<svg width="86" height="86" viewBox="0 0 86 86" fill="none" xmlns="http://www.w3.org/2000/svg">
<path d="M43.0029 16.3838C37.7387 16.3838 32.5927 17.9448 28.2157 20.8694C23.8387 23.794 20.4273 27.9509 18.4128 32.8144C16.3982 37.6778 15.8712 43.0295 16.8982 48.1925C17.9251 53.3555 20.4601 58.0981 24.1824 61.8204C27.9048 65.5427 32.6473 68.0777 37.8103 69.1047C42.9734 70.1317 48.325 69.6046 53.1884 67.5901C58.0519 65.5755 62.2088 62.1641 65.1334 57.7871C68.058 53.4101 69.619 48.2641 69.619 42.9999C69.6112 35.9433 66.8045 29.1779 61.8147 24.1881C56.8249 19.1983 50.0595 16.3916 43.0029 16.3838ZM43.0029 66.6572C38.3247 66.6572 33.7516 65.27 29.8618 62.6711C25.972 60.0721 22.9403 56.3781 21.1498 52.0561C19.3594 47.7341 18.8908 42.9782 19.8032 38.3899C20.7156 33.8016 22.9681 29.5869 26.2758 26.2787C29.5836 22.9705 33.798 20.7174 38.3862 19.8043C42.9743 18.8913 47.7303 19.3592 52.0525 21.149C56.3747 22.9388 60.0692 25.97 62.6688 29.8595C65.2683 33.7489 66.6561 38.3218 66.6568 42.9999C66.6499 49.2712 64.1555 55.2836 59.7211 59.7181C55.2866 64.1526 49.2742 66.6469 43.0029 66.6539V66.6572Z" fill="black"/>
<path d="M81.4175 49.1826C83.1466 47.4493 85.1068 45.4849 85.1068 43C85.1068 40.5151 83.1466 38.5508 81.4175 36.8216C80.2546 35.6562 79.0528 34.4519 78.776 33.4168C78.4781 32.303 78.9267 30.6069 79.36 28.9658C80.0033 26.5325 80.6676 24.0155 79.47 21.9461C78.2538 19.8446 75.719 19.1608 73.2671 18.4998C71.648 18.0631 69.9731 17.6111 69.1835 16.8215C68.3938 16.0318 67.9427 14.3577 67.506 12.7378C66.845 10.2834 66.1611 7.75193 64.0605 6.53572C61.9895 5.33813 59.4724 6.00251 57.0357 6.6449C55.3947 7.07823 53.6969 7.5251 52.5848 7.22888C51.5488 6.95212 50.3453 5.7503 49.1799 4.58741C47.4499 2.85408 45.4855 0.893921 43.0006 0.893921C40.5158 0.893921 38.5522 2.85408 36.8223 4.58318C35.6568 5.74607 34.4525 6.94789 33.4174 7.22465C32.3036 7.52087 30.6066 7.074 28.9656 6.64067C26.5306 5.99744 24.0152 5.3322 21.9451 6.53064C19.8436 7.74685 19.1605 10.2817 18.4987 12.7336C18.0628 14.3526 17.6109 16.0284 16.8212 16.8172C16.0316 17.606 14.3575 18.058 12.7376 18.4947C10.2831 19.1557 7.75085 19.8396 6.53548 21.9411C5.33789 24.0104 6.00228 26.5274 6.64466 28.9607C7.07799 30.6018 7.52656 32.2987 7.22864 33.4125C6.94596 34.4519 5.74668 35.652 4.58464 36.8216C2.85469 38.555 0.894531 40.5194 0.894531 43.0043C0.894531 45.4892 2.85469 47.4535 4.58464 49.1869C5.74668 50.3523 6.9485 51.5567 7.22526 52.5918C7.52318 53.7056 7.07461 55.4017 6.64128 57.0436C5.99889 59.4769 5.33366 61.9931 6.5321 64.0624C7.74746 66.1639 10.2823 66.8477 12.7342 67.5088C14.3533 67.9455 16.0282 68.3974 16.817 69.1871C17.6058 69.9767 18.0586 71.6517 18.4953 73.2707C19.1563 75.7252 19.8402 78.2566 21.9417 79.4728C24.011 80.6712 26.5289 80.006 28.9622 79.3636C30.6024 78.9303 32.2977 78.4809 33.4132 78.7796C34.4491 79.0564 35.6535 80.2582 36.8189 81.4211C38.5522 83.1502 40.5158 85.1104 42.9973 85.1104C45.4788 85.1104 47.4465 83.1502 49.1799 81.4211C50.3453 80.2582 51.5497 79.0564 52.5848 78.7796C53.6977 78.4817 55.3964 78.9303 57.0357 79.3636C59.4699 80.0077 61.9852 80.6721 64.0554 79.4737C66.1569 78.2574 66.8408 75.7226 67.5018 73.2707C67.9385 71.6517 68.3904 69.9767 69.1801 69.1871C69.9697 68.3974 71.6438 67.9463 73.2637 67.5096C75.7182 66.8486 78.2496 66.1647 79.4658 64.0641C80.6643 61.9939 79.9999 59.4769 79.3566 57.0394C78.9225 55.3983 78.4747 53.7022 78.7727 52.5884C79.0553 51.5482 80.2546 50.3481 81.4175 49.1826ZM76.496 57.7943C76.9852 59.6478 77.4913 61.564 76.9056 62.5754C76.3021 63.6181 74.3665 64.1411 72.4961 64.6447C70.5004 65.183 68.4378 65.739 67.0887 67.0881C65.7396 68.4372 65.1827 70.4998 64.6453 72.4955C64.1375 74.3668 63.6187 76.3041 62.576 76.9058C61.5603 77.4915 59.6484 76.9837 57.7958 76.4953C55.7814 75.963 53.6977 75.4145 51.823 75.9139C50.022 76.3946 48.5316 77.8817 47.0911 79.3196C45.6988 80.7085 44.26 82.1439 43.0006 82.1439C41.7413 82.1439 40.3025 80.7051 38.9111 79.3196C37.4723 77.8808 35.9801 76.3946 34.1783 75.9139C33.6554 75.7785 33.117 75.7122 32.577 75.7167C31.0929 75.7914 29.6241 76.053 28.2055 76.4953C26.3529 76.9837 24.4359 77.489 23.4253 76.905C22.3818 76.3015 21.8596 74.3659 21.3551 72.4955C20.8177 70.4998 20.2617 68.4372 18.9126 67.0881C17.5635 65.739 15.5001 65.1821 13.5052 64.6447C11.6339 64.1369 9.69661 63.6181 9.0957 62.5754C8.51003 61.5597 9.01615 59.6478 9.50534 57.7952C10.0377 55.7808 10.5887 53.6971 10.0868 51.8224C9.60521 50.0214 8.11901 48.531 6.68105 47.0905C5.29303 45.6982 3.85677 44.2594 3.85677 43C3.85677 41.7407 5.29557 40.3019 6.68105 38.9096C8.11986 37.4708 9.60521 35.9787 10.0868 34.1776C10.5887 32.303 10.0377 30.2192 9.50534 28.2041C9.01615 26.3514 8.51087 24.4361 9.0957 23.4247C9.69915 22.382 11.6348 21.859 13.5052 21.3554C15.5009 20.8171 17.5677 20.261 18.9126 18.912C20.2574 17.5629 20.8186 15.5003 21.356 13.5046C21.8638 11.6333 22.3826 9.696 23.4253 9.09424C24.435 8.50857 26.352 9.01553 28.2055 9.50473C30.2207 10.0379 32.3053 10.5872 34.1783 10.0862C35.9801 9.60544 37.4697 8.1184 38.9111 6.68044C40.3025 5.29158 41.7413 3.85616 43.0006 3.85616C44.26 3.85616 45.6988 5.29496 47.0911 6.68044C48.5299 8.11925 50.022 9.60544 51.823 10.0862C53.6977 10.5872 55.7814 10.0379 57.7949 9.50473C59.6484 9.01638 61.5637 8.50941 62.576 9.09509C63.6187 9.69854 64.1417 11.6342 64.6453 13.5046C65.1836 15.5003 65.7396 17.5671 67.0887 18.912C68.4378 20.2568 70.5004 20.8179 72.4961 21.3554C74.3674 21.8632 76.3047 22.382 76.9064 23.4247C77.4913 24.4403 76.9852 26.3523 76.496 28.2049C75.9636 30.2192 75.4135 32.303 75.9145 34.1776C76.3952 35.9787 77.8823 37.4691 79.3202 38.9096C80.7091 40.3019 82.1445 41.7407 82.1445 43C82.1445 44.2594 80.7057 45.6982 79.3202 47.0905C77.8814 48.5293 76.3952 50.0214 75.9145 51.8224C75.416 53.6963 75.9636 55.78 76.496 57.7943Z" fill="black"/>
<path d="M54.5713 31.0412C53.932 31.0394 53.2987 31.1645 52.7081 31.4093C52.1176 31.6542 51.5815 32.0137 51.1309 32.4673L40.3864 43.21L34.8707 37.6943C34.4201 37.2369 33.8834 36.8731 33.2915 36.624C32.6996 36.3749 32.0643 36.2454 31.4222 36.2429C30.78 36.2405 30.1437 36.3651 29.55 36.6097C28.9563 36.8543 28.4168 37.214 27.9627 37.6681C27.5086 38.1221 27.1489 38.6615 26.9042 39.2552C26.6595 39.8489 26.5348 40.4852 26.5371 41.1273C26.5395 41.7695 26.6689 42.4048 26.918 42.9967C27.167 43.5886 27.5307 44.1254 27.9881 44.576L36.9451 53.533C37.3969 53.9851 37.9334 54.3438 38.5238 54.5885C39.1143 54.8332 39.7472 54.9592 40.3864 54.9592C41.0256 54.9592 41.6585 54.8332 42.249 54.5885C42.8394 54.3438 43.3759 53.9851 43.8277 53.533L58.0126 39.3498C58.6931 38.6691 59.1565 37.8019 59.3443 36.8578C59.532 35.9138 59.4356 34.9353 59.0673 34.046C58.699 33.1567 58.0752 32.3966 57.275 31.8618C56.4747 31.3269 55.5338 31.0413 54.5713 31.0412ZM55.9187 37.2542L41.7313 51.4391C41.3683 51.7851 40.8861 51.9781 40.3847 51.9781C39.8833 51.9781 39.4011 51.7851 39.0382 51.4391L30.0829 42.4822C29.906 42.3053 29.7658 42.0954 29.6701 41.8644C29.5744 41.6333 29.5251 41.3857 29.5251 41.1356C29.5251 40.8855 29.5744 40.6379 29.6701 40.4069C29.7658 40.1758 29.906 39.9659 30.0829 39.7891C30.2597 39.6122 30.4696 39.472 30.7007 39.3763C30.9317 39.2806 31.1793 39.2313 31.4294 39.2313C31.6795 39.2313 31.9271 39.2806 32.1582 39.3763C32.3892 39.472 32.5991 39.6122 32.776 39.7891L39.3395 46.3517C39.4769 46.4893 39.6401 46.5985 39.8197 46.673C39.9993 46.7475 40.1919 46.7858 40.3864 46.7858C40.5809 46.7858 40.7734 46.7475 40.9531 46.673C41.1327 46.5985 41.2959 46.4893 41.4333 46.3517L53.2265 34.5603C53.5888 34.2134 54.071 34.0198 54.5726 34.0198C55.0742 34.0198 55.5564 34.2134 55.9187 34.5603C56.0955 34.7371 56.2358 34.9469 56.3315 35.1779C56.4271 35.4089 56.4764 35.6564 56.4764 35.9064C56.4764 36.1564 56.4271 36.404 56.3315 36.635C56.2358 36.8659 56.0955 37.0758 55.9187 37.2525V37.2542Z" fill="black"/>
</svg>
