<svg width="76" height="86" viewBox="0 0 76 86" fill="none" xmlns="http://www.w3.org/2000/svg">
<path d="M46.4375 16.2812C46.4375 14.6125 45.9427 12.9812 45.0155 11.5936C44.0884 10.2061 42.7706 9.12463 41.2289 8.48602C39.6871 7.84741 37.9906 7.68032 36.3539 8.00588C34.7172 8.33144 33.2138 9.13503 32.0338 10.315C30.8538 11.495 30.0502 12.9985 29.7246 14.6352C29.3991 16.2719 29.5662 17.9684 30.2048 19.5101C30.8434 21.0519 31.9248 22.3696 33.3124 23.2968C34.6999 24.2239 36.3312 24.7187 38 24.7187C40.237 24.7162 42.3817 23.8265 43.9634 22.2447C45.5452 20.6629 46.435 18.5182 46.4375 16.2812ZM32.375 16.2812C32.375 15.1687 32.7049 14.0812 33.323 13.1562C33.9411 12.2311 34.8196 11.5102 35.8474 11.0844C36.8752 10.6587 38.0062 10.5473 39.0974 10.7643C40.1885 10.9814 41.1908 11.5171 41.9775 12.3038C42.7641 13.0904 43.2999 14.0927 43.5169 15.1839C43.734 16.275 43.6226 17.406 43.1968 18.4338C42.7711 19.4617 42.0501 20.3402 41.1251 20.9583C40.2001 21.5763 39.1125 21.9062 38 21.9062C36.5087 21.9046 35.0789 21.3114 34.0244 20.2569C32.9698 19.2023 32.3767 17.7726 32.375 16.2812Z" fill="black"/>
<path d="M37.1935 39.9333C37.4299 40.0988 37.7115 40.1876 38 40.1876C38.2885 40.1876 38.5701 40.0988 38.8065 39.9333C41.4772 37.9659 43.9208 35.7075 46.0924 33.2C50.918 27.6506 53.4688 21.8008 53.4688 16.2812C53.4688 12.1787 51.839 8.24415 48.9381 5.34319C46.0371 2.44224 42.1026 0.8125 38 0.8125C33.8974 0.8125 29.9629 2.44224 27.0619 5.34319C24.161 8.24415 22.5312 12.1787 22.5312 16.2812C22.5312 21.8008 25.082 27.6506 29.9076 33.2C32.0792 35.7075 34.5228 37.9659 37.1935 39.9333ZM38 3.625C41.3555 3.62877 44.5725 4.9634 46.9452 7.33609C49.3178 9.70878 50.6525 12.9258 50.6562 16.2812C50.6562 26.3431 40.9034 34.7429 38 37.0205C35.0922 34.7457 25.3438 26.3625 25.3438 16.2812C25.3475 12.9258 26.6822 9.70878 29.0548 7.33609C31.4275 4.9634 34.6445 3.62877 38 3.625Z" fill="black"/>
<path d="M74.9761 33.2185L53.8824 26.7281L53.0551 29.4164L69.7812 34.5625L38 44.3413L6.21875 34.5625L22.9443 29.4164L22.1171 26.7281L1.02336 33.2185C0.736039 33.3071 0.484659 33.4854 0.306105 33.7273C0.12755 33.9691 0.0312204 34.2619 0.03125 34.5625V72.5313C0.0312551 72.832 0.127661 73.1248 0.306317 73.3667C0.484972 73.6086 0.736468 73.7869 1.02389 73.8753L37.5864 85.1253C37.8559 85.2083 38.1441 85.2083 38.4136 85.1253L74.9761 73.8753C75.2635 73.7869 75.515 73.6086 75.6937 73.3667C75.8723 73.1248 75.9687 72.832 75.9688 72.5313V34.5625C75.9687 34.2618 75.8723 33.969 75.6937 33.7271C75.515 33.4852 75.2635 33.307 74.9761 33.2185ZM2.84375 36.4666L36.5938 46.8512V81.8772L2.84375 71.4928V36.4666ZM39.4062 81.8772V46.8512L73.1562 36.4666V71.4928L39.4062 81.8772Z" fill="black"/>
<path d="M26.75 57.6034C27.123 57.6034 27.4806 57.4552 27.7444 57.1915C28.0081 56.9278 28.1562 56.5701 28.1562 56.1971V49.1659C28.1562 48.8652 28.0598 48.5724 27.8812 48.3305C27.7025 48.0886 27.451 47.9103 27.1636 47.8219L13.1011 43.4948C12.8908 43.4301 12.6682 43.4156 12.4512 43.4526C12.2343 43.4896 12.029 43.577 11.852 43.7077C11.675 43.8385 11.5311 44.009 11.432 44.2054C11.3329 44.4019 11.2812 44.6189 11.2813 44.839V51.8703C11.2813 52.171 11.3777 52.4638 11.5563 52.7057C11.735 52.9476 11.9865 53.1259 12.2739 53.2143L26.3364 57.5413C26.4704 57.5825 26.6098 57.6034 26.75 57.6034ZM25.3438 54.2931L14.0938 50.8318V46.7431L25.3438 50.2044V54.2931Z" fill="black"/>
<path d="M64.7188 51.8703V44.839C64.7188 44.6189 64.6671 44.4019 64.568 44.2054C64.4689 44.009 64.325 43.8385 64.148 43.7077C63.971 43.577 63.7657 43.4896 63.5488 43.4526C63.3318 43.4156 63.1092 43.4301 62.8989 43.4948L48.8364 47.8219C48.549 47.9103 48.2975 48.0886 48.1188 48.3305C47.9402 48.5724 47.8438 48.8652 47.8438 49.1659V56.1971C47.8437 56.4172 47.8954 56.6342 47.9945 56.8307C48.0936 57.0272 48.2375 57.1977 48.4145 57.3284C48.5915 57.4592 48.7968 57.5466 49.0137 57.5836C49.2307 57.6205 49.4533 57.6061 49.6636 57.5414L63.7261 53.2143C64.0135 53.1259 64.265 52.9476 64.4437 52.7057C64.6223 52.4638 64.7187 52.171 64.7188 51.8703ZM61.9062 50.8318L50.6562 54.2931V50.2044L61.9062 46.7431V50.8318Z" fill="black"/>
</svg>
