<svg width="23" height="18" viewBox="0 0 23 18" fill="none" xmlns="http://www.w3.org/2000/svg">
<path d="M4.23005 16.455L4.57054 15.7868L4.23005 16.455ZM2.04497 14.27L2.71322 13.9295L2.04497 14.27ZM20.955 14.27L20.2868 13.9295L20.955 14.27ZM18.77 16.455L18.4295 15.7868L18.77 16.455ZM18.77 1.54497L18.4295 2.21322L18.77 1.54497ZM20.955 3.73005L21.6233 3.38955L20.955 3.73005ZM4.23005 1.54497L4.57054 2.21322L4.23005 1.54497ZM2.04497 3.73005L1.37671 3.38955L2.04497 3.73005ZM14.5 14.75C14.9142 14.75 15.25 14.4142 15.25 14C15.25 13.5858 14.9142 13.25 14.5 13.25V14.75ZM10.5 13.25C10.0858 13.25 9.75 13.5858 9.75 14C9.75 14.4142 10.0858 14.75 10.5 14.75V13.25ZM7.5 14.75C7.91421 14.75 8.25 14.4142 8.25 14C8.25 13.5858 7.91421 13.25 7.5 13.25V14.75ZM5.5 13.25C5.08579 13.25 4.75 13.5858 4.75 14C4.75 14.4142 5.08579 14.75 5.5 14.75V13.25ZM1.51105 7L0.761185 6.98564L1.51105 7ZM21.489 7L22.2388 6.98564L21.489 7ZM9.5 1.75H13.5V0.25H9.5V1.75ZM13.5 16.25H9.5V17.75H13.5V16.25ZM9.5 16.25C8.08749 16.25 7.07322 16.2494 6.27708 16.1844C5.4897 16.12 4.98197 15.9964 4.57054 15.7868L3.88955 17.1233C4.54768 17.4586 5.27479 17.6075 6.15494 17.6794C7.02632 17.7506 8.11224 17.75 9.5 17.75V16.25ZM0.75 9C0.75 10.3878 0.749417 11.4737 0.820612 12.3451C0.892522 13.2252 1.04138 13.9523 1.37671 14.6104L2.71322 13.9295C2.50359 13.518 2.37996 13.0103 2.31563 12.2229C2.25058 11.4268 2.25 10.4125 2.25 9H0.75ZM4.57054 15.7868C3.77085 15.3793 3.12068 14.7291 2.71322 13.9295L1.37671 14.6104C1.92798 15.6924 2.80762 16.572 3.88955 17.1233L4.57054 15.7868ZM20.75 9C20.75 10.4125 20.7494 11.4268 20.6844 12.2229C20.62 13.0103 20.4964 13.518 20.2868 13.9295L21.6233 14.6104C21.9586 13.9523 22.1075 13.2252 22.1794 12.3451C22.2506 11.4737 22.25 10.3878 22.25 9H20.75ZM13.5 17.75C14.8878 17.75 15.9737 17.7506 16.8451 17.6794C17.7252 17.6075 18.4523 17.4586 19.1104 17.1233L18.4295 15.7868C18.018 15.9964 17.5103 16.12 16.7229 16.1844C15.9268 16.2494 14.9125 16.25 13.5 16.25V17.75ZM20.2868 13.9295C19.8793 14.7291 19.2291 15.3793 18.4295 15.7868L19.1104 17.1233C20.1924 16.572 21.072 15.6924 21.6233 14.6104L20.2868 13.9295ZM13.5 1.75C14.9125 1.75 15.9268 1.75058 16.7229 1.81563C17.5103 1.87996 18.018 2.00359 18.4295 2.21322L19.1104 0.876713C18.4523 0.541378 17.7252 0.392522 16.8451 0.320612C15.9737 0.249417 14.8878 0.25 13.5 0.25V1.75ZM18.4295 2.21322C19.2291 2.62068 19.8793 3.27085 20.2868 4.07054L21.6233 3.38955C21.072 2.30762 20.1924 1.42798 19.1104 0.876713L18.4295 2.21322ZM9.5 0.25C8.11224 0.25 7.02632 0.249417 6.15494 0.320612C5.27479 0.392522 4.54768 0.541378 3.88955 0.876713L4.57054 2.21322C4.98197 2.00359 5.4897 1.87996 6.27708 1.81563C7.07322 1.75058 8.08749 1.75 9.5 1.75V0.25ZM3.88955 0.876713C2.80762 1.42798 1.92798 2.30762 1.37671 3.38955L2.71322 4.07054C3.12068 3.27085 3.77085 2.62068 4.57054 2.21322L3.88955 0.876713ZM14.5 13.25H10.5V14.75H14.5V13.25ZM7.5 13.25H5.5V14.75H7.5V13.25ZM2.25 9C2.25 8.2343 2.25003 7.58271 2.26091 7.01436L0.761185 6.98564C0.749971 7.57134 0.75 8.23863 0.75 9H2.25ZM2.26091 7.01436C2.29044 5.47218 2.40325 4.6789 2.71322 4.07054L1.37671 3.38955C0.893939 4.33705 0.790597 5.44938 0.761185 6.98564L2.26091 7.01436ZM21.489 6.25H1.51105V7.75H21.489V6.25ZM22.25 9C22.25 8.23863 22.25 7.57134 22.2388 6.98564L20.7391 7.01436C20.75 7.58271 20.75 8.2343 20.75 9H22.25ZM22.2388 6.98564C22.2094 5.44938 22.1061 4.33705 21.6233 3.38955L20.2868 4.07054C20.5968 4.6789 20.7096 5.47218 20.7391 7.01436L22.2388 6.98564Z" fill="white"/>
</svg>
