<?xml version="1.0" encoding="utf-8"?><svg width="45" height="42" viewBox="0 0 45 42" fill="none" xmlns="http://www.w3.org/2000/svg">
<path d="M38.3624 0.983398H6.99856C5.40398 0.986282 3.87552 1.63253 2.74798 2.78059C1.62044 3.92865 0.985742 5.48493 0.98291 7.10853V25.4076C0.984329 27.0302 1.61801 28.5859 2.74485 29.7332C3.87169 30.8806 5.39961 31.5258 6.9932 31.5273H10.0894V40.8431C10.0894 41.0023 10.135 41.1581 10.2206 41.2913C10.3063 41.4245 10.4282 41.5294 10.5715 41.593C10.7148 41.6567 10.8732 41.6765 11.0274 41.6498C11.1815 41.6232 11.3247 41.5513 11.4393 41.4431L21.9065 31.5273H38.3571C39.9517 31.5244 41.4801 30.8781 42.6077 29.7301C43.7352 28.582 44.3699 27.0257 44.3727 25.4021V7.10308C44.3713 5.48048 43.7376 3.92476 42.6108 2.77741C41.484 1.63006 39.956 0.984843 38.3624 0.983398ZM42.7657 25.4021C42.7643 26.5922 42.2994 27.7331 41.4729 28.5746C40.6464 29.4161 39.5259 29.8895 38.3571 29.891H21.5904C21.3915 29.8937 21.2006 29.9714 21.0547 30.1091L11.6964 38.9669V30.7091C11.6964 30.4921 11.6118 30.284 11.4611 30.1306C11.3104 29.9772 11.106 29.891 10.8929 29.891H6.9932C5.82582 29.8895 4.70666 29.4167 3.88119 28.5762C3.05573 27.7357 2.59136 26.5962 2.58994 25.4076V7.10853C2.59136 5.91846 3.05629 4.77754 3.88276 3.93603C4.70923 3.09452 5.82976 2.62112 6.99856 2.61968H38.3624C39.5298 2.62112 40.649 3.09394 41.4745 3.93443C42.2999 4.77492 42.7643 5.91445 42.7657 7.10308V25.4021Z" fill="#D7D2BE"/>
<path d="M11.8305 17.2549C11.2942 17.2549 10.7699 17.4139 10.3239 17.7119C9.87792 18.0099 9.53034 18.4334 9.32508 18.929C9.11983 19.4245 9.06612 19.9698 9.17076 20.4958C9.2754 21.0219 9.53368 21.5051 9.91294 21.8843C10.2922 22.2636 10.7754 22.5219 11.3015 22.6265C11.8275 22.7311 12.3728 22.6774 12.8683 22.4722C13.3638 22.2669 13.7874 21.9193 14.0854 21.4734C14.3833 21.0274 14.5424 20.5031 14.5424 19.9667C14.5408 19.248 14.2546 18.5591 13.7464 18.0509C13.2381 17.5426 12.5493 17.2564 11.8305 17.2549ZM11.8305 20.9197C11.6435 20.9197 11.4606 20.8643 11.305 20.7605C11.1493 20.6567 11.0279 20.5091 10.9561 20.3364C10.8842 20.1637 10.8651 19.9736 10.9012 19.79C10.9373 19.6065 11.0269 19.4377 11.1588 19.305C11.2906 19.1723 11.4588 19.0817 11.6422 19.0445C11.8255 19.0073 12.0157 19.0252 12.1889 19.096C12.3621 19.1667 12.5104 19.2872 12.6151 19.4422C12.7199 19.5972 12.7764 19.7797 12.7776 19.9667C12.7776 20.2179 12.6778 20.4588 12.5002 20.6364C12.3226 20.8141 12.0817 20.9138 11.8305 20.9138V20.9197Z" fill="#D7D2BE"/>
<path d="M18.6098 17.2549C18.0735 17.2549 17.5491 17.4139 17.1032 17.7119C16.6572 18.0099 16.3096 18.4334 16.1044 18.929C15.8991 19.4245 15.8454 19.9698 15.9501 20.4958C16.0547 21.0219 16.313 21.5051 16.6922 21.8843C17.0715 22.2636 17.5547 22.5219 18.0808 22.6265C18.6068 22.7311 19.1521 22.6774 19.6476 22.4722C20.1431 22.2669 20.5667 21.9193 20.8646 21.4734C21.1626 21.0274 21.3217 20.5031 21.3217 19.9667C21.3201 19.248 21.0339 18.5591 20.5257 18.0509C20.0174 17.5426 19.3286 17.2564 18.6098 17.2549ZM18.6098 20.9197C18.4227 20.9197 18.2399 20.8643 18.0843 20.7605C17.9286 20.6567 17.8072 20.5091 17.7354 20.3364C17.6635 20.1637 17.6444 19.9736 17.6805 19.79C17.7166 19.6065 17.8062 19.4377 17.9381 19.305C18.0699 19.1723 18.2381 19.0817 18.4215 19.0445C18.6048 19.0073 18.795 19.0252 18.9682 19.096C19.1414 19.1667 19.2897 19.2872 19.3944 19.4422C19.4992 19.5972 19.5557 19.7797 19.5569 19.9667C19.5569 20.2179 19.4571 20.4588 19.2795 20.6364C19.1019 20.8141 18.861 20.9138 18.6098 20.9138V20.9197Z" fill="#D7D2BE"/>
<path d="M25.9594 17.3154C25.3459 17.1836 24.7056 17.2686 24.1477 17.556C23.5898 17.8433 23.1489 18.3153 22.9 18.8914C22.6512 19.4675 22.6099 20.1121 22.7831 20.7153C22.9563 21.3185 23.3334 21.8429 23.85 22.1992C24.3666 22.5555 24.9908 22.7216 25.6161 22.6691C26.2415 22.6167 26.8293 22.349 27.2794 21.9117C27.7295 21.4744 28.014 20.8945 28.0843 20.2709C28.1547 19.6473 28.0067 19.0186 27.6654 18.4919C27.2744 17.8899 26.6611 17.4669 25.9594 17.3154ZM26.3124 20.1685C26.2721 20.3513 26.1785 20.518 26.0434 20.6477C25.9084 20.7773 25.7379 20.864 25.5537 20.8969C25.3694 20.9297 25.1795 20.9072 25.008 20.8322C24.8364 20.7572 24.691 20.633 24.59 20.4754C24.4891 20.3177 24.4371 20.1337 24.4406 19.9465C24.4441 19.7594 24.5031 19.5775 24.6099 19.4238C24.7168 19.2701 24.8668 19.1515 25.0411 19.083C25.2153 19.0145 25.4059 18.9992 25.5888 19.039C25.8326 19.0951 26.0442 19.2454 26.1776 19.457C26.3109 19.6686 26.3551 19.9244 26.3006 20.1685H26.3124Z" fill="#D7D2BE"/>
<path d="M34.3968 7.85044C33.8025 7.72905 33.1865 7.73367 32.5943 7.86396C32.0021 7.99426 31.4487 8.24692 30.9748 8.60335C30.5009 8.95978 30.1186 9.41091 29.856 9.92355C29.5935 10.4362 29.4573 10.9973 29.4575 11.5656C29.4575 11.7675 29.5434 11.9611 29.6962 12.1039C29.8491 12.2467 30.0564 12.3269 30.2726 12.3269C30.4888 12.3269 30.6961 12.2467 30.8489 12.1039C31.0018 11.9611 31.0877 11.7675 31.0877 11.5656C31.0877 11.1163 31.2302 10.6771 31.4972 10.3034C31.7642 9.92973 32.1437 9.63829 32.5879 9.46591C33.0321 9.29352 33.521 9.2479 33.9929 9.33481C34.4649 9.42173 34.8986 9.63728 35.2395 9.95425C35.5804 10.2712 35.8131 10.6754 35.9082 11.1158C36.0034 11.5562 35.9567 12.0131 35.7741 12.4287C35.5916 12.8444 35.2812 13.2002 34.8823 13.4512C34.4835 13.7023 34.0139 13.8373 33.5329 13.8393C33.3167 13.8393 33.1094 13.9195 32.9565 14.0623C32.8037 14.2051 32.7178 14.3987 32.7178 14.6006V17.8489C32.7178 18.0508 32.8037 18.2444 32.9565 18.3872C33.1094 18.5299 33.3167 18.6102 33.5329 18.6102C33.749 18.6102 33.9564 18.5299 34.1092 18.3872C34.2621 18.2444 34.3479 18.0508 34.3479 17.8489V15.3112C35.2605 15.1348 36.0807 14.6712 36.6713 13.9979C37.2619 13.3246 37.5873 12.4824 37.593 11.612C37.5988 10.7416 37.2845 9.89566 36.7028 9.21564C36.121 8.53562 35.307 8.06267 34.3968 7.87582V7.85044Z" fill="#D7D2BE"/>
<path d="M34.2034 19.9668C34.0235 19.9668 33.8511 20.0525 33.724 20.2051C33.5968 20.3577 33.5254 20.5646 33.5254 20.7804V21.8651C33.5254 22.0809 33.5968 22.2878 33.724 22.4404C33.8511 22.5929 34.0235 22.6787 34.2034 22.6787C34.3832 22.6787 34.5556 22.5929 34.6828 22.4404C34.8099 22.2878 34.8813 22.0809 34.8813 21.8651V20.7804C34.8813 20.5646 34.8099 20.3577 34.6828 20.2051C34.5556 20.0525 34.3832 19.9668 34.2034 19.9668Z" fill="#D7D2BE"/>
</svg>
