<?xml version="1.0" encoding="utf-8"?><svg width="53" height="42" viewBox="0 0 53 42" fill="none" xmlns="http://www.w3.org/2000/svg">
<path d="M47.1557 8.36621H35.0412V5.78621C35.0412 3.13793 33.2387 0.983398 31.024 0.983398H22.3333C20.1181 0.983398 18.3161 3.13793 18.3161 5.78621V8.36621H6.19981C3.2859 8.36621 0.915039 10.6954 0.915039 13.5594V36.4681C0.915039 39.3316 3.28528 41.6614 6.19981 41.6614H47.1557C50.0696 41.6614 52.4405 39.3322 52.4405 36.4681V13.5594C52.4405 10.6954 50.0696 8.36621 47.1557 8.36621ZM20.1611 5.78621C20.1611 4.16533 21.1556 2.79647 22.3333 2.79647H31.024C32.2018 2.79647 33.1962 4.16533 33.1962 5.78621V8.36621H20.1611V5.78621ZM50.5954 36.4681C50.5954 38.332 49.0524 39.8483 47.1557 39.8483H6.19981C4.30312 39.8483 2.76006 38.332 2.76006 36.4681V13.5594C2.76006 11.6956 4.30312 10.1793 6.19981 10.1793H47.1557C49.0524 10.1793 50.5954 11.6956 50.5954 13.5594V36.4681Z" fill="#D7D2BE"/>
</svg>
