<?xml version="1.0" encoding="utf-8"?><svg width="55" height="36" viewBox="0 0 55 36" fill="none" xmlns="http://www.w3.org/2000/svg">
<path d="M32.8339 16.7138C33.2431 16.4156 33.4435 15.9204 33.3558 15.424L32.6385 11.2328L35.6821 8.26238C36.0436 7.91037 36.1718 7.39347 36.0164 6.91266C35.8603 6.43129 35.4523 6.08706 34.9515 6.01378L30.7408 5.40193L28.8586 1.58375C28.6326 1.13236 28.1796 0.852539 27.676 0.852539C27.6743 0.852539 27.6721 0.852539 27.6704 0.852539C27.1663 0.85476 26.7155 1.13681 26.4939 1.58875L24.614 5.40193L20.405 6.01378C19.903 6.08706 19.4944 6.4324 19.3389 6.91544C19.184 7.39625 19.3129 7.91315 19.6732 8.26127L22.7185 11.2328L21.999 15.4418C21.9135 15.9365 22.1106 16.429 22.5142 16.7266C22.7463 16.8981 23.02 16.9853 23.2948 16.9853C23.498 16.9853 23.7018 16.9381 23.8906 16.842L27.7654 14.881L31.4409 16.8137C31.89 17.0508 32.4241 17.0125 32.8339 16.7138ZM27.4017 13.2182L23.7351 15.0737L24.4169 11.0834C24.463 10.8163 24.3742 10.5437 24.1804 10.355L21.3038 7.54838L25.2808 6.9704C25.549 6.93154 25.7811 6.7622 25.901 6.51902L27.6777 2.9157L29.4538 6.51902C29.5737 6.7622 29.8058 6.93154 30.0739 6.9704L34.0526 7.54838L31.1766 10.355C30.9828 10.5443 30.894 10.8169 30.9401 11.084L31.618 15.0443L28.1562 13.2237C27.9219 13.0999 27.6393 13.0983 27.4017 13.2182Z" fill="#D7D2BE"/>
<path d="M54.9342 6.94753C54.7788 6.46505 54.3701 6.12027 53.8688 6.04698L49.6575 5.43514L47.7748 1.61973C47.5505 1.16668 47.0974 0.885742 46.5927 0.885742C46.5916 0.885742 46.5905 0.885742 46.5894 0.885742C46.0847 0.886853 45.6328 1.1689 45.4107 1.62195L43.5307 5.43514L39.32 6.04753C38.8159 6.12082 38.4067 6.46783 38.2524 6.95253C38.0991 7.435 38.2313 7.95079 38.5899 8.2928L41.6347 11.2665L40.9124 15.4806C40.8291 15.9769 41.0295 16.4694 41.4348 16.7659C41.6663 16.9352 41.9378 17.0207 42.2105 17.0207C42.4137 17.0207 42.618 16.973 42.8062 16.8764L46.681 14.9176L50.3593 16.853C50.8101 17.0862 51.3431 17.0457 51.7523 16.7459C52.1593 16.4472 52.358 15.9525 52.2714 15.4583L51.5519 11.2671L54.5955 8.29614C54.9603 7.94413 55.0891 7.42834 54.9342 6.94753ZM50.0922 10.3882C49.8979 10.5775 49.8096 10.8507 49.8557 11.1172L50.5364 15.0808L47.0746 13.2592C46.8381 13.1348 46.5572 13.1326 46.319 13.2531L42.6502 15.108L43.3336 11.1172C43.3797 10.8501 43.2914 10.5775 43.0971 10.3882L40.2222 7.58102L44.1975 7.0036C44.4657 6.96474 44.6978 6.7954 44.8177 6.55222L46.5933 2.95001L48.3711 6.55222C48.491 6.7954 48.7231 6.96418 48.9912 7.00305L52.9682 7.58102L50.0922 10.3882Z" fill="#D7D2BE"/>
<path d="M13.917 16.7128C14.3268 16.4141 14.5266 15.9189 14.4384 15.4236L13.721 11.2323L16.7647 8.26196C17.1267 7.9094 17.2555 7.39194 17.0995 6.91057C16.944 6.42976 16.5365 6.08609 16.0368 6.0128L11.825 5.40096L9.94115 1.58278C9.71518 1.13194 9.26268 0.851562 8.75911 0.851562C8.758 0.851562 8.75689 0.851562 8.75578 0.851562C8.2522 0.852673 7.80026 1.13416 7.57707 1.58611V1.58666L5.69657 5.40096L1.48752 6.0128C0.984497 6.08609 0.575862 6.43198 0.420958 6.91557C0.267165 7.39749 0.39764 7.91439 0.757416 8.25974L3.80275 11.2312L3.08097 15.4403C2.99547 15.9344 3.19257 16.4263 3.59676 16.7245C3.8294 16.8966 4.10311 16.9838 4.37905 16.9838C4.58171 16.9838 4.78602 16.9366 4.97479 16.8405L8.84961 14.8795L12.5229 16.8122C12.9743 17.0509 13.5078 17.0121 13.917 16.7128ZM8.4865 13.2178L4.81823 15.0744L5.50169 11.0835C5.54777 10.8165 5.45894 10.5433 5.26517 10.3545L2.38807 7.54796L6.36338 6.96998C6.63154 6.93112 6.86362 6.76178 6.98355 6.5186L8.76022 2.91473L10.5386 6.5186C10.6585 6.76178 10.8906 6.93056 11.1587 6.96943L15.1357 7.5474L12.2592 10.354C12.0654 10.5433 11.9766 10.8159 12.0226 11.083L12.7005 15.0433L9.24159 13.2233C9.00618 13.0995 8.72413 13.0978 8.4865 13.2178Z" fill="#D7D2BE"/>
<path d="M25.4937 24.9435L21.283 24.3339L19.3997 20.5146C19.1737 20.0648 18.7212 19.7861 18.2188 19.7861C18.2177 19.7861 18.2165 19.7861 18.2154 19.7861C17.7124 19.7872 17.261 20.0676 17.0378 20.5179C17.0373 20.5185 17.0367 20.519 17.0367 20.5201L15.1562 24.3339L10.9422 24.9446C10.4403 25.0207 10.0322 25.3688 9.87894 25.8529C9.72681 26.3332 9.85729 26.8479 10.2154 27.1921L13.2618 30.1636L12.5406 34.3737C12.4557 34.8679 12.6517 35.3592 13.0542 35.6574C13.2863 35.8295 13.56 35.9172 13.8365 35.9172C14.0391 35.9172 14.2429 35.87 14.4328 35.7745L18.3076 33.8119L21.9831 35.7445C22.4328 35.98 22.9647 35.9428 23.375 35.6446C23.7836 35.3476 23.9852 34.8534 23.8991 34.356L23.1796 30.1625L26.2216 27.1943C26.5836 26.8445 26.7135 26.3293 26.5597 25.849C26.4065 25.3671 26 25.0201 25.4937 24.9435ZM21.7194 29.2852C21.525 29.4746 21.4368 29.7472 21.4828 30.0142L22.1624 33.9756L18.699 32.1546C18.4636 32.0302 18.1816 32.028 17.9434 32.149L14.2768 34.0056L14.9602 30.0142C15.0063 29.7472 14.9175 29.4746 14.7232 29.2852L11.8455 26.4786L15.8219 25.9023C16.0906 25.8635 16.3227 25.6947 16.4426 25.4509L18.2188 21.8476L19.9954 25.4509C20.1154 25.6947 20.3474 25.8635 20.6162 25.9023L24.5942 26.4786L21.7194 29.2852Z" fill="#D7D2BE"/>
<path d="M44.4114 24.9775L40.2007 24.3657L38.3169 20.5453C38.0909 20.0961 37.6384 19.8174 37.1365 19.8174C37.1354 19.8174 37.1343 19.8174 37.1332 19.8174C36.6307 19.8185 36.1793 20.0989 35.955 20.548C35.9544 20.5491 35.9544 20.5503 35.9539 20.5514L34.0734 24.3651L29.8638 24.977C29.363 25.0502 28.9538 25.3945 28.7983 25.8764C28.6429 26.3572 28.7711 26.8752 29.1337 27.2267L32.1779 30.1943L31.4584 34.4039C31.3734 34.8969 31.5688 35.3883 31.9703 35.687C32.2023 35.8602 32.4772 35.9485 32.7553 35.9485C32.9569 35.9485 33.1601 35.9018 33.3505 35.8074L37.2253 33.8448L40.9003 35.7752C41.3489 36.0123 41.8835 35.974 42.2933 35.6748C42.7025 35.3766 42.9024 34.8819 42.8146 34.3878L42.0967 30.1948L45.1426 27.2261C45.5041 26.8724 45.6312 26.3544 45.4752 25.8736C45.3197 25.3939 44.9117 25.0502 44.4114 24.9775ZM40.6371 29.317C40.4428 29.5064 40.3539 29.779 40.4 30.046L41.0785 34.0069L37.6167 32.1886C37.3813 32.0642 37.0993 32.062 36.8611 32.183L33.1939 34.0402L33.8763 30.046C33.9224 29.779 33.8335 29.5064 33.6392 29.317L30.7621 26.5127L34.7402 25.9347C35.0084 25.8958 35.2404 25.7265 35.3604 25.4833L37.137 21.8794L38.9137 25.4833C39.0336 25.7265 39.2657 25.8958 39.5339 25.9347L43.5142 26.5127L40.6371 29.317Z" fill="#D7D2BE"/>
</svg>
