<?xml version="1.0" encoding="utf-8"?><svg width="85" height="85" viewBox="0 0 85 85" fill="none" xmlns="http://www.w3.org/2000/svg">
<path d="M55.4839 27.9836H48.3549V14.7897C48.3549 14.5156 48.246 14.2528 48.0523 14.0591C47.8585 13.8653 47.5957 13.7565 47.3217 13.7565H37.6786C37.4046 13.7565 37.1418 13.8653 36.948 14.0591C36.7542 14.2528 36.6454 14.5156 36.6454 14.7897V27.9836H29.5164C28.6663 27.9854 27.8516 28.3244 27.2512 28.9262C26.6507 29.5279 26.3135 30.3433 26.3135 31.1934V61.9687C26.3135 62.8188 26.6507 63.6342 27.2512 64.2359C27.8516 64.8377 28.6663 65.1767 29.5164 65.1785H31.8238V68.9669C31.8238 69.2409 31.9327 69.5037 32.1264 69.6974C32.3202 69.8912 32.583 70 32.857 70C33.131 70 33.3938 69.8912 33.5876 69.6974C33.7814 69.5037 33.8902 69.2409 33.8902 68.9669V65.1785H51.11V68.9669C51.11 69.2409 51.2189 69.5037 51.4127 69.6974C51.6064 69.8912 51.8692 70 52.1432 70C52.4173 70 52.6801 69.8912 52.8738 69.6974C53.0676 69.5037 53.1764 69.2409 53.1764 68.9669V65.1785H55.4839C56.334 65.1767 57.1486 64.8377 57.7491 64.2359C58.3496 63.6342 58.6868 62.8188 58.6868 61.9687V31.1934C58.6868 30.3433 58.3496 29.5279 57.7491 28.9262C57.1486 28.3244 56.334 27.9854 55.4839 27.9836ZM38.7118 15.8229H46.2885V27.9836H38.7118V15.8229ZM56.6204 61.9687C56.6204 62.2708 56.5009 62.5606 56.2879 62.7748C56.075 62.989 55.7859 63.1103 55.4839 63.1121H29.5164C29.2143 63.1103 28.9253 62.989 28.7123 62.7748C28.4994 62.5606 28.3799 62.2708 28.3799 61.9687V31.1934C28.3799 30.8913 28.4994 30.6016 28.7123 30.3873C28.9253 30.1731 29.2143 30.0518 29.5164 30.05H55.4839C55.7859 30.0518 56.075 30.1731 56.2879 30.3873C56.5009 30.6016 56.6204 30.8913 56.6204 31.1934V61.9687Z" fill="#D7D2BE"/>
<path d="M52.1431 43.8258H32.8569C32.5829 43.8258 32.3201 43.9347 32.1263 44.1284C31.9326 44.3222 31.8237 44.585 31.8237 44.859V58.6349C31.8237 58.9089 31.9326 59.1717 32.1263 59.3654C32.3201 59.5592 32.5829 59.6681 32.8569 59.6681H52.1431C52.4172 59.6681 52.68 59.5592 52.8737 59.3654C53.0675 59.1717 53.1763 58.9089 53.1763 58.6349V44.859C53.1763 44.585 53.0675 44.3222 52.8737 44.1284C52.68 43.9347 52.4172 43.8258 52.1431 43.8258ZM51.11 57.6017H33.8901V45.8922H51.11V57.6017Z" fill="#D7D2BE"/>
</svg>
