<?xml version="1.0" encoding="utf-8"?><svg width="50" height="50" viewBox="0 0 50 50" fill="none" xmlns="http://www.w3.org/2000/svg">
<path d="M44.9771 38.8348C47.5963 34.9655 49.0846 30.3222 49.0846 25.3218C49.0846 11.8683 38.1313 0.915039 24.6778 0.915039C11.2243 0.915039 0.270996 11.8683 0.270996 25.3218C0.270996 38.7753 11.2243 49.7286 24.6778 49.7286C32.8927 49.7286 40.1552 45.6211 44.6199 39.3706C44.6794 39.3111 44.6794 39.3111 44.739 39.2515C44.7985 39.192 44.9175 39.0134 44.9771 38.8348ZM47.2987 25.3218C47.2987 27.822 46.882 30.2032 46.1676 32.4057C46.2272 30.1436 45.87 27.8816 44.858 26.6315C43.7865 25.3218 42.4173 25.3813 41.3458 25.5004C39.8576 25.6195 38.4289 25.7385 36.7621 22.2263C35.4525 19.4285 36.7026 18.357 38.8456 16.9283C40.3934 15.9163 42.4173 14.4876 40.9887 11.9279C39.679 9.60623 37.7146 9.66576 36.1073 9.66576C35.0953 9.66576 34.1428 9.66576 33.3094 9.13C31.9998 8.2966 30.9878 6.51074 29.9758 4.84394C29.6187 4.24865 29.2615 3.65336 28.9638 3.1176C39.4409 5.20111 47.2987 14.3685 47.2987 25.3218ZM18.3677 3.59383L18.4273 3.65336C19.7964 4.78441 23.1896 8.2966 22.8324 11.273C22.7133 12.285 20.6894 13.1184 18.963 13.9518C16.5223 15.0233 13.7245 16.2735 13.1887 18.7141C12.8316 20.3214 13.5459 22.1073 15.4508 24.2503C19.7369 29.1317 23.3086 30.2032 25.9279 31.0366C27.8923 31.6319 29.202 32.0486 30.0949 33.7749C31.2259 35.8584 30.3925 36.6918 28.1304 38.6563C26.0469 40.5016 23.1896 43.0019 22.8324 47.9427C21.3442 47.8237 19.9155 47.5856 18.4868 47.1689C18.7249 40.0254 15.6889 37.7038 13.4268 35.9775C12.7125 35.4417 12.0577 34.9059 11.7005 34.3702C11.4029 33.894 12.0577 32.7629 12.653 31.7509C13.5459 30.2032 14.5579 28.4173 13.9031 26.691C13.4268 25.4409 12.2363 24.5479 10.2123 23.8336C3.42602 21.5715 4.31895 15.4996 4.37848 15.2615C4.37848 15.2615 4.37848 15.2615 4.37848 15.2019C7.29539 9.60623 12.2958 5.37969 18.3677 3.59383ZM2.05686 25.3218C2.05686 23.0597 2.41403 20.8572 3.00932 18.8332C3.66413 21.2143 5.39047 24.0717 9.73606 25.5004C11.2243 25.9766 12.1172 26.5719 12.3553 27.2863C12.7125 28.2387 11.9386 29.5484 11.2243 30.858C10.3314 32.3462 9.43842 33.9535 10.2718 35.3226C10.7481 36.1561 11.5815 36.7513 12.4149 37.4062C14.3793 38.8944 16.82 40.7398 16.7605 46.5736C8.18832 43.2995 2.05686 35.025 2.05686 25.3218ZM24.6778 47.9427C24.9754 43.7757 27.297 41.7518 29.321 39.9064C31.345 38.1205 33.488 36.2156 31.6426 32.8224C30.333 30.4413 28.5471 29.9055 26.4041 29.2507C23.9039 28.4768 20.7489 27.4649 16.7605 23.0002C15.3318 21.3929 14.6769 20.0238 14.9151 19.0118C15.2722 17.464 17.5939 16.452 19.6774 15.4996C22.0585 14.4281 24.3801 13.4161 24.6182 11.4516C25.035 7.99896 21.999 4.54629 20.4512 3.05807C21.8204 2.81996 23.2491 2.64137 24.6778 2.64137C25.3326 2.64137 25.9874 2.7009 26.5827 2.7009C26.6422 2.76043 26.6422 2.81996 26.7018 2.81996C27.297 3.47477 27.9519 4.54629 28.6067 5.61781C29.6187 7.40367 30.8092 9.42765 32.476 10.4992C33.7261 11.3326 35.0358 11.3326 36.2264 11.273C37.8932 11.273 38.7861 11.3326 39.5004 12.6422C40.0957 13.6542 39.679 14.0709 37.8932 15.321C35.9882 16.5711 33.1904 18.5355 35.1548 22.8811C37.2979 27.5244 39.679 27.3458 41.4649 27.1672C42.4769 27.1077 42.9531 27.0482 43.4293 27.6434C44.9771 29.6674 44.3223 36.037 43.5484 37.8229C39.5004 43.8948 32.5356 47.9427 24.6778 47.9427Z" fill="#D7D2BE"/>
</svg>
