<svg width="15" height="17" viewBox="0 0 15 17" fill="none" xmlns="http://www.w3.org/2000/svg">
<path fill-rule="evenodd" clip-rule="evenodd" d="M5.15957 0C5.42397 0 5.6383 0.220023 5.6383 0.491435V1.61209C6.18712 1.60171 6.80237 1.60171 7.49291 1.60171H7.50709C8.19763 1.60171 8.81288 1.60171 9.3617 1.61209V0.491435C9.3617 0.220023 9.57603 0 9.84042 0C10.1048 0 10.3191 0.220023 10.3191 0.491435V1.64634C11.542 1.71737 12.4526 1.90681 13.1947 2.46032C13.5665 2.73761 13.8935 3.07325 14.1636 3.45491C14.7687 4.3098 14.9271 5.38245 14.9771 6.88146C15 7.56609 15 8.36329 15 9.2936V9.30811C15 10.2384 15 11.0356 14.9771 11.7203C14.9271 13.2193 14.7687 14.2919 14.1636 15.1468C13.8935 15.5285 13.5665 15.8641 13.1947 16.1414C12.362 16.7625 11.3171 16.9252 9.85682 16.9765C9.18983 17 8.41315 17 7.50678 17H7.47074C6.03284 17 4.91455 17 4.02928 16.9015C3.12904 16.8014 2.41316 16.5948 1.80527 16.1414C1.43348 15.8641 1.10652 15.5285 0.836397 15.1468C0.39474 14.5228 0.193441 13.7879 0.0959065 12.8637C-7.70422e-06 11.9549 -4.31627e-06 10.807 5.89645e-08 9.33088L1.35056e-07 9.29357C-1.71265e-08 8.36327 -1.68827e-07 7.56608 0.0228491 6.88146C0.0728789 5.38245 0.231349 4.3098 0.836397 3.45491C1.10652 3.07325 1.43348 2.73761 1.80527 2.46032C2.5474 1.90681 3.45799 1.71737 4.68085 1.64634V0.491435C4.68085 0.220023 4.89518 0 5.15957 0ZM4.68085 2.63112C3.54239 2.70213 2.87701 2.87587 2.36804 3.25548C2.07753 3.47215 1.82205 3.73441 1.61099 4.03263C1.2412 4.55511 1.07195 5.23816 1.00278 6.40685H13.9972C13.928 5.23816 13.7588 4.55511 13.389 4.03263C13.1779 3.73441 12.9225 3.47215 12.632 3.25548C12.123 2.87587 11.4576 2.70213 10.3191 2.63112V2.894C10.3191 3.16542 10.1048 3.38544 9.84042 3.38544C9.57603 3.38544 9.3617 3.16542 9.3617 2.894V2.59512C8.81992 2.58462 8.20578 2.58458 7.5 2.58458C6.79422 2.58458 6.18008 2.58462 5.6383 2.59512V2.894C5.6383 3.16542 5.42397 3.38544 5.15957 3.38544C4.89518 3.38544 4.68085 3.16542 4.68085 2.894V2.63112ZM14.0323 7.38972H0.967714C0.957483 7.94589 0.957447 8.57633 0.957447 9.30086C0.957447 10.8133 0.958104 11.9082 1.04778 12.7579C1.13649 13.5984 1.30768 14.1405 1.61099 14.5691C1.82205 14.8673 2.07753 15.1296 2.36804 15.3462C2.78551 15.6576 3.31364 15.8333 4.13241 15.9244C4.96013 16.0165 6.02667 16.0171 7.5 16.0171C8.20609 16.0171 8.82045 16.0171 9.3624 16.0066C9.36468 15.5722 9.37439 15.2717 9.41562 15.0044C9.71242 13.0807 11.1821 11.572 13.056 11.2673C13.3164 11.225 13.6092 11.215 14.0323 11.2127C14.0425 10.6564 14.0426 10.0257 14.0426 9.30086C14.0426 8.57633 14.0425 7.94589 14.0323 7.38972ZM13.9972 12.196C13.6086 12.1988 13.3916 12.2079 13.2058 12.2381C11.7416 12.4762 10.5932 13.6551 10.3613 15.1582C10.3319 15.3488 10.3229 15.5717 10.3203 15.9705C11.458 15.8995 12.1232 15.7257 12.632 15.3462C12.9225 15.1296 13.1779 14.8673 13.389 14.5691C13.7587 14.0468 13.9279 13.364 13.9972 12.196ZM4.68085 10.1017C4.68085 9.8303 4.89518 9.61028 5.15957 9.61028H9.84042C10.1048 9.61028 10.3191 9.8303 10.3191 10.1017C10.3191 10.3731 10.1048 10.5931 9.84042 10.5931H5.15957C4.89518 10.5931 4.68085 10.3731 4.68085 10.1017Z" fill="#333434"/>
</svg>
