<svg width="24" height="20" viewBox="0 0 24 20" fill="none" xmlns="http://www.w3.org/2000/svg">
<path d="M5 6C5 4.59375 5.75 3.28125 7 2.5625C8.21875 1.84375 9.75 1.84375 11 2.5625C12.2188 3.28125 13 4.59375 13 6C13 7.4375 12.2188 8.75 11 9.46875C9.75 10.1875 8.21875 10.1875 7 9.46875C5.75 8.75 5 7.4375 5 6ZM2 17.0938C2 14 4.46875 11.5 7.5625 11.5H10.4062C13.5 11.5 16 14 16 17.0938C16 17.5938 15.5625 18 15.0625 18H2.90625C2.40625 18 2 17.5938 2 17.0938ZM17.75 11.75V9.75H15.75C15.3125 9.75 15 9.4375 15 9C15 8.59375 15.3125 8.25 15.75 8.25H17.75V6.25C17.75 5.84375 18.0625 5.5 18.5 5.5C18.9062 5.5 19.25 5.84375 19.25 6.25V8.25H21.25C21.6562 8.25 22 8.59375 22 9C22 9.4375 21.6562 9.75 21.25 9.75H19.25V11.75C19.25 12.1875 18.9062 12.5 18.5 12.5C18.0625 12.5 17.75 12.1875 17.75 11.75Z" fill="white"/>
</svg>
