<svg width="28" height="24" viewBox="0 0 28 24" fill="none" xmlns="http://www.w3.org/2000/svg">
<path d="M14 22.5C10.4062 22.5 7.125 20.625 5.32812 17.5C3.53125 14.4141 3.53125 10.625 5.32812 7.5C7.125 4.41406 10.4062 2.5 14 2.5C17.5547 2.5 20.8359 4.41406 22.6328 7.5C24.4297 10.625 24.4297 14.4141 22.6328 17.5C20.8359 20.625 17.5547 22.5 14 22.5ZM18.4141 10.6641H18.375C18.7656 10.3125 18.7656 9.72656 18.375 9.33594C18.0234 8.98438 17.4375 8.98438 17.0859 9.33594L12.75 13.7109L10.9141 11.875C10.5234 11.4844 9.9375 11.4844 9.58594 11.875C9.19531 12.2266 9.19531 12.8125 9.58594 13.1641L12.0859 15.6641C12.4375 16.0547 13.0234 16.0547 13.4141 15.6641L18.4141 10.6641Z" fill="#388431"/>
</svg>
