<svg width="13" height="13" viewBox="0 0 13 13" fill="none" xmlns="http://www.w3.org/2000/svg">
<path d="M12.0234 2.55859L8.33203 6.25L12.0234 9.97656C12.4805 10.3984 12.4805 11.1367 12.0234 11.5586C11.6016 12.0156 10.8633 12.0156 10.4414 11.5586L6.75 7.86719L3.02344 11.5586C2.60156 12.0156 1.86328 12.0156 1.44141 11.5586C0.984375 11.1367 0.984375 10.3984 1.44141 9.97656L5.13281 6.25L1.44141 2.55859C0.984375 2.13672 0.984375 1.39844 1.44141 0.976562C1.86328 0.519531 2.60156 0.519531 3.02344 0.976562L6.75 4.66797L10.4414 0.976562C10.8633 0.519531 11.6016 0.519531 12.0234 0.976562C12.4805 1.39844 12.4805 2.13672 12.0234 2.55859Z" fill="#CA383A"/>
</svg>
