<svg width="28" height="24" viewBox="0 0 28 24" fill="none" xmlns="http://www.w3.org/2000/svg">
<path d="M14 3.75C14.5469 3.75 15.0547 4.0625 15.3281 4.53125L23.7656 18.9062C24.0391 19.4141 24.0391 20 23.7656 20.4688C23.4922 20.9766 22.9844 21.25 22.4375 21.25H5.5625C4.97656 21.25 4.46875 20.9766 4.19531 20.4688C3.92188 20 3.92188 19.4141 4.19531 18.9062L12.6328 4.53125C12.9062 4.0625 13.4141 3.75 14 3.75ZM14 8.75C13.4531 8.75 13.0625 9.17969 13.0625 9.6875V14.0625C13.0625 14.6094 13.4531 15 14 15C14.5078 15 14.9375 14.6094 14.9375 14.0625V9.6875C14.9375 9.17969 14.5078 8.75 14 8.75ZM15.25 17.5C15.25 16.8359 14.6641 16.25 14 16.25C13.2969 16.25 12.75 16.8359 12.75 17.5C12.75 18.2031 13.2969 18.75 14 18.75C14.6641 18.75 15.25 18.2031 15.25 17.5Z" fill="#CA383A"/>
</svg>
