<svg width="56" height="45" viewBox="0 0 56 45" fill="none" xmlns="http://www.w3.org/2000/svg">
<path d="M8.75 11.5C8.75 7.63281 10.8125 4.02344 14.25 2.04688C17.6016 0.0703125 21.8125 0.0703125 25.25 2.04688C28.6016 4.02344 30.75 7.63281 30.75 11.5C30.75 15.4531 28.6016 19.0625 25.25 21.0391C21.8125 23.0156 17.6016 23.0156 14.25 21.0391C10.8125 19.0625 8.75 15.4531 8.75 11.5ZM0.5 42.0078C0.5 33.5 7.28906 26.625 15.7969 26.625H23.6172C32.125 26.625 39 33.5 39 42.0078C39 43.3828 37.7969 44.5 36.4219 44.5H2.99219C1.61719 44.5 0.5 43.3828 0.5 42.0078ZM41.0625 17.6875H53.4375C54.5547 17.6875 55.5 18.6328 55.5 19.75C55.5 20.9531 54.5547 21.8125 53.4375 21.8125H41.0625C39.8594 21.8125 39 20.9531 39 19.75C39 18.6328 39.8594 17.6875 41.0625 17.6875Z" fill="#777777"/>
</svg>
