<svg width="516" height="468" viewBox="0 0 516 468" fill="none" xmlns="http://www.w3.org/2000/svg">
<path d="M476.943 344.867C507.222 295.583 520.018 237.529 513.266 180.072C506.514 122.616 480.608 69.1063 439.728 28.1773C429.471 17.9855 418.378 8.67114 406.567 0.331733L366.382 104.293C383.609 121.998 396.255 143.641 403.22 167.344C410.185 191.046 411.259 216.091 406.349 240.301C401.438 264.511 390.692 287.154 375.043 306.264C359.395 325.374 339.318 340.372 316.556 349.954C303.787 355.261 290.373 358.855 276.661 360.644C240.303 365.176 203.53 356.406 173.123 335.952C142.716 315.497 120.726 284.737 111.206 249.344C105.654 228.625 102.811 198.472 109.579 171.336L22.9856 104.976C7.83579 138.972 0.230924 175.849 0.694563 213.069C1.1582 250.29 9.67934 286.969 25.6714 320.582C41.6634 354.195 64.7465 383.944 93.3318 407.78C121.917 431.617 155.326 448.976 191.258 458.661C213.743 464.721 236.951 467.671 260.235 467.43C303.738 466.892 346.411 455.458 384.354 434.173C404.64 422.739 423.263 408.58 439.706 392.09C453.91 377.849 466.407 362.001 476.943 344.867Z" fill="#DFF1F2"/>
</svg>
