<svg width="250" height="228" viewBox="0 0 250 228" fill="none" xmlns="http://www.w3.org/2000/svg">
<path d="M230.885 60.268C245.544 84.1285 251.739 112.235 248.47 140.052C245.201 167.869 232.659 193.775 212.868 213.591C207.902 218.525 202.531 223.034 196.813 227.072L177.358 176.74C185.698 168.168 191.82 157.69 195.192 146.214C198.564 134.739 199.084 122.614 196.707 110.893C194.33 99.1716 189.127 88.2089 181.551 78.9571C173.975 69.7053 164.255 62.4442 153.235 57.8049C147.053 55.2357 140.558 53.4955 133.92 52.6296C116.317 50.4354 98.5142 54.6812 83.793 64.5841C69.0717 74.4869 58.4251 89.3791 53.8162 106.515C51.1285 116.545 49.752 131.144 53.0285 144.282L11.105 176.409C3.77033 159.95 0.0884863 142.096 0.312952 124.077C0.537418 106.057 4.66286 88.2988 12.4053 72.0253C20.1477 55.7518 31.3232 41.3492 45.1625 29.8088C59.0019 18.2684 75.1764 9.86433 92.5727 5.17518C103.459 2.24146 114.695 0.813098 125.967 0.929868C147.029 1.19025 167.689 6.72598 186.059 17.0313C195.88 22.5666 204.896 29.4216 212.857 37.4052C219.734 44.2998 225.784 51.9724 230.885 60.268Z" fill="#DFF1F2"/>
</svg>
