<svg width="649" height="532" viewBox="0 0 649 532" fill="none" xmlns="http://www.w3.org/2000/svg">
<path d="M101.496 88.8266C48.4939 139.036 13.9373 205.654 3.40177 277.932C-7.1338 350.209 6.96624 423.931 43.4269 487.205C52.6005 502.986 63.079 517.97 74.7524 532L157.687 418.346C142.471 391.125 134.126 360.597 133.378 329.415C132.629 298.233 139.5 267.339 153.392 239.418C167.284 211.497 187.778 187.394 213.093 169.203C238.408 151.011 267.778 139.281 298.651 135.033C315.948 132.734 333.472 132.734 350.769 135.033C396.566 141.387 438.524 164.099 468.906 198.98C499.288 233.861 516.046 278.56 516.089 324.836C516.089 351.917 509.707 389.619 492.595 420.501L576.469 529.727C606.038 493.218 627.352 450.729 638.943 405.186C650.534 359.643 652.127 312.126 643.612 265.908C635.098 219.689 616.678 175.866 589.621 137.455C562.564 99.0445 527.512 66.9576 486.878 43.4039C461.451 28.6664 434.127 17.4845 405.667 10.1699C352.466 -3.38993 296.719 -3.38992 243.518 10.1699C215.059 17.4845 187.734 28.6665 162.307 43.4039C140.343 56.1296 119.935 71.3733 101.496 88.8266Z" fill="#DFF1F2"/>
</svg>
