<svg width="200" height="61" viewBox="0 0 200 61" fill="none" xmlns="http://www.w3.org/2000/svg">
<path d="M89.0239 1.60862L88.9241 1.63216H88.8889C84.6921 2.72003 80.6504 4.33871 76.8611 6.44923C76.5882 6.59922 76.3183 6.74332 76.0484 6.908C75.67 7.12857 75.2945 7.35206 74.9219 7.58439C72.3735 9.14654 69.9665 10.9296 67.7287 12.9132C67.142 13.4366 66.5552 13.9807 65.9685 14.5336C65.5637 14.9257 65.1647 15.3256 64.7716 15.7334C64.2201 16.304 63.6813 16.8921 63.1552 17.4979C61.179 19.7433 59.4004 22.1559 57.8394 24.7088C57.6077 25.0853 57.3847 25.4617 57.1647 25.8411C57.0092 26.1116 56.8567 26.3822 56.707 26.6557C54.6012 30.454 52.9864 34.5058 51.9018 38.7131C51.362 38.7366 49.1764 38.7366 48.6337 38.7131C47.5513 34.5054 45.9375 30.4536 43.8313 26.6557C43.6817 26.3822 43.538 26.1116 43.3737 25.8411C43.1537 25.4617 42.9307 25.0853 42.699 24.7088C41.1409 22.1552 39.3653 19.7416 37.392 17.495C36.8679 16.9068 36.3291 16.3187 35.7756 15.7305C35.3845 15.3247 34.9855 14.9247 34.5787 14.5306C34.0066 13.9777 33.4228 13.4337 32.8185 12.9102C30.5807 10.9267 28.1737 9.1436 25.6252 7.58146C25.2527 7.34913 24.8772 7.12562 24.4958 6.90506C24.2279 6.74822 23.958 6.59529 23.6861 6.44629C19.8966 4.33629 15.8549 2.71763 11.6582 1.62921H11.623L11.5233 1.60569C7.43382 0.555814 0 0 0 0H37.392C37.3896 0.53686 37.4229 1.07328 37.4918 1.60569C37.8483 4.45505 39.1414 7.10417 41.1671 9.13476C43.1927 11.1653 45.8353 12.4617 48.6777 12.8191C49.7404 12.9524 50.8156 12.9524 51.8783 12.8191C54.7207 12.4617 57.3633 11.1653 59.3889 9.13476C61.4145 7.10417 62.7077 4.45505 63.0642 1.60569C63.1331 1.07328 63.1664 0.53686 63.164 0H100.274C100.274 0 93.131 0.558749 89.0239 1.60862Z" fill="#00BEC8"/>
<path d="M66.9857 53.3359C70.9567 49.5683 73.5456 44.5694 74.335 39.1459C75.1243 33.7223 74.0679 28.1903 71.3363 23.4424C70.649 22.2582 69.8639 21.1338 68.9894 20.0811L62.776 28.6094C63.9159 30.652 64.5411 32.9428 64.5972 35.2827C64.6532 37.6225 64.1385 39.9407 63.0977 42.0358C62.0569 44.131 60.5215 45.9396 58.6249 47.3047C56.7283 48.6697 54.5279 49.5499 52.2149 49.8687C50.919 50.0412 49.6061 50.0412 48.3102 49.8687C44.8791 49.3919 41.7357 47.6877 39.4595 45.0702C37.1832 42.4528 35.9277 39.0987 35.9245 35.6263C35.9245 33.5942 36.4026 30.7651 37.6846 28.4477L31.4008 20.2516C29.1855 22.9912 27.5887 26.1795 26.7203 29.5969C25.8519 33.0144 25.7325 36.5799 26.3704 40.0481C27.0083 43.5162 28.3883 46.8046 30.4155 49.6869C32.4426 52.5692 35.0687 54.9769 38.1129 56.7444C40.018 57.8502 42.0651 58.6893 44.1973 59.2382C48.1831 60.2557 52.3597 60.2557 56.3454 59.2382C58.4776 58.6893 60.5248 57.8502 62.4298 56.7444C64.0753 55.7895 65.6043 54.6456 66.9857 53.3359Z" fill="black"/>
<path d="M97.9368 39.621L109.07 24.0435H99.3068L93.0963 32.9542L86.6277 24.0435H76.4538L87.584 39.8622L75.9522 56.0514H86.261L92.7854 46.1291L99.3977 56.0514H109.495L104.787 49.0552L97.9368 39.621Z" fill="black"/>
<path d="M183.307 49.0566V43.2014H197.491V36.4346H186.959V36.4375H174.365V56.0528H199.999V49.0566H183.307Z" fill="black"/>
<path d="M137.736 43.2V36.4332H123.552V31.0367H138.156V24.0435H114.611V43.153L137.736 43.2Z" fill="black"/>
<path d="M163.113 38.2396C161.145 37.5411 159.131 36.9839 157.084 36.5721C154.933 36.1134 153.368 35.6713 152.391 35.2458C151.417 34.8194 150.924 34.1783 150.924 33.3255C150.924 32.4726 151.334 31.7786 152.153 31.2434C152.971 30.7081 154.5 30.8493 156.292 30.8493C158.375 30.8493 174.378 31.011 174.378 31.011L199.42 31.0375V24.0442H156.204C153.133 24.0442 150.437 23.8589 148.325 24.7735C146.212 25.6881 144.622 26.9321 143.557 28.4996C142.496 30.058 141.939 31.9062 141.962 33.793C141.962 36.0202 142.539 37.7847 143.695 39.0865C144.816 40.375 146.244 41.3583 147.846 41.945C149.812 42.6387 151.824 43.1959 153.866 43.6125C156.059 44.1007 157.648 44.5653 158.633 45.0064C159.619 45.4476 160.113 46.1259 160.115 47.0415C160.115 48.7795 158.56 48.8266 155.092 48.8266C153.268 48.8266 140.16 49.056 140.16 49.056H114.84V56.0492H155.101C158.143 56.0492 161.2 55.8993 163.315 54.97C165.431 54.0407 166.343 53.1231 167.423 51.5704C168.479 50.0395 169.037 48.2179 169.018 46.3563C169.018 44.133 168.432 42.3685 167.258 41.0628C166.125 39.7996 164.702 38.8308 163.113 38.2396Z" fill="black"/>
</svg>
