<svg width="18" height="15" viewBox="0 0 18 15" fill="none" xmlns="http://www.w3.org/2000/svg">
<path d="M15.185 12.4955C16.655 11.0798 17.6134 9.20148 17.9057 7.16359C18.1979 5.12569 17.8068 3.04705 16.7956 1.26303C16.5411 0.818068 16.2505 0.395584 15.9267 0L13.6266 3.20454C14.0486 3.97204 14.28 4.83279 14.3008 5.71199C14.3215 6.59119 14.131 7.46225 13.7457 8.24949C13.3604 9.03673 12.792 9.71633 12.0899 10.2292C11.3878 10.7422 10.5732 11.0729 9.71691 11.1927C9.23719 11.2575 8.75115 11.2575 8.27143 11.1927C7.00125 11.0135 5.83756 10.3732 4.99491 9.38967C4.15227 8.40617 3.68749 7.14586 3.68627 5.8411C3.68627 5.07754 3.86329 4.01451 4.33788 3.14376L2.01164 0.0640893C1.19154 1.09348 0.60041 2.29147 0.278935 3.57558C-0.0425401 4.8597 -0.0867237 6.19944 0.149424 7.5026C0.385571 8.80575 0.896441 10.0414 1.64687 11.1244C2.3973 12.2074 3.36946 13.1121 4.49644 13.7762C5.20166 14.1917 5.95951 14.507 6.74883 14.7133C8.22435 15.0956 9.7705 15.0956 11.246 14.7133C12.0353 14.507 12.7932 14.1917 13.4984 13.7762C14.1076 13.4174 14.6736 12.9876 15.185 12.4955Z" fill="white"/>
</svg>
