<svg width="82" height="40" viewBox="0 0 82 40" fill="none" xmlns="http://www.w3.org/2000/svg">
<path d="M35.2 13.8H29.6V39.3H35.2V13.8ZM20.5 26.8C20.5 28.7626 19.7204 30.6448 18.3326 32.0326C16.9448 33.4204 15.0626 34.2 13.1 34.2C11.1374 34.2 9.25518 33.4204 7.86741 32.0326C6.47964 30.6448 5.7 28.7626 5.7 26.8V19.4H12.9C17.1 19.4 20.5 22.8 20.5 26.8ZM25.9 26.8C25.9 23.3522 24.5304 20.0456 22.0924 17.6076C19.6544 15.1696 16.3478 13.8 12.9 13.8H5.6V0H0V26.7C0 30.1478 1.36964 33.4544 3.80761 35.8924C6.24559 38.3304 9.55219 39.7 13 39.7C20.2 39.9 25.9 34 25.9 26.8ZM35.5 7.3C35.5 6.50435 35.1839 5.74129 34.6213 5.17868C34.0587 4.61607 33.2957 4.3 32.5 4.3C31.7044 4.3 30.9413 4.61607 30.3787 5.17868C29.8161 5.74129 29.5 6.50435 29.5 7.3C29.5 8.09565 29.8161 8.85871 30.3787 9.42132C30.9413 9.98393 31.7044 10.3 32.5 10.3C33.2957 10.3 34.0587 9.98393 34.6213 9.42132C35.1839 8.85871 35.5 8.09565 35.5 7.3ZM52.5 40H53.3V34.5H52.6C49.7 34.3 47.8 32.1 47.8 29.1V19H53.3V13.7H48V4.5H42.6V13.7H38.4V19.1H42.6V29C42.4 35 46.7 39.5 52.6 39.9L52.5 40ZM71.5 7.3C71.5 6.50435 71.1839 5.74129 70.6213 5.17868C70.0587 4.61607 69.2956 4.3 68.5 4.3C67.7044 4.3 66.9413 4.61607 66.3787 5.17868C65.8161 5.74129 65.5 6.50435 65.5 7.3C65.5 8.09565 65.8161 8.85871 66.3787 9.42132C66.9413 9.98393 67.7044 10.3 68.5 10.3C70 10.4 71.5 9 71.5 7.3ZM74.9 23.3H61.6C62.9 20.1 65.8 18.3 68.3 18.3C71.2 18.3 73.8 20.3 74.9 23.3ZM81.2 27.6C81.2 23.3 79.7 19.6 77.2 16.9C76.0386 15.7204 74.6528 14.7853 73.1242 14.1499C71.5957 13.5144 69.9554 13.1914 68.3 13.2C61.3 13.2 55.5 19.2 55.5 26.6C55.5 34 61.2 39.9 68.5 39.9C71.1726 40.009 73.8049 39.2219 75.979 37.6638C78.1531 36.1057 79.7444 33.8658 80.5 31.3H74.5C73.9106 32.3648 73.0383 33.246 71.9794 33.846C70.9205 34.446 69.7164 34.7416 68.5 34.7C66.7047 34.6955 64.9706 34.0471 63.6128 32.8727C62.2549 31.6984 61.3633 30.0759 61.1 28.3H81.1V27.6H81.2Z" fill="#2A3232"/>
</svg>
