<svg width="606" height="541" viewBox="0 0 606 541" fill="none" xmlns="http://www.w3.org/2000/svg">
<path d="M95.9007 359.867C65.6218 310.583 52.8261 252.529 59.578 195.073C66.3299 137.616 92.2357 84.1068 133.116 43.1778C143.373 32.986 154.465 23.6716 166.277 15.3322L206.462 119.294C189.235 136.998 176.589 158.642 169.624 182.344C162.659 206.047 161.585 231.091 166.495 255.301C171.406 279.511 182.152 302.155 197.8 321.265C213.449 340.374 233.526 355.372 256.288 364.955C269.057 370.261 282.471 373.856 296.182 375.644C332.541 380.176 369.314 371.407 399.72 350.952C430.127 330.498 452.118 299.738 461.638 264.344C467.189 243.626 470.032 213.473 463.265 186.336L549.858 119.976C565.008 153.972 572.613 190.85 572.149 228.07C571.686 265.29 563.164 301.969 547.172 335.582C531.18 369.195 508.097 398.944 479.512 422.781C450.927 446.618 417.518 463.976 381.586 473.662C359.101 479.722 335.893 482.672 312.609 482.431C269.106 481.893 226.433 470.459 188.489 449.173C168.204 437.74 149.58 423.581 133.138 407.09C118.934 392.85 106.437 377.002 95.9007 359.867Z" fill="#DFF1F2"/>
</svg>
