<svg width="31" height="36" viewBox="0 0 31 36" fill="none" xmlns="http://www.w3.org/2000/svg">
<path d="M21.8337 1.33325H10.3337C9.66699 1.33325 9.00033 1.66659 8.50033 2.16659C8.00033 2.66659 7.66699 3.33325 7.66699 3.99992V25.3333C7.66699 25.9999 8.00033 26.6666 8.50033 27.1666C9.00033 27.6666 9.66699 27.9999 10.3337 27.9999H26.667C27.3337 27.9999 28.0003 27.6666 28.5003 27.1666C29.0003 26.6666 29.3337 25.9999 29.3337 25.3333V8.83325L21.8337 1.33325Z" stroke="#00BEC8" stroke-width="2" stroke-linecap="round" stroke-linejoin="round"/>
<path d="M1 10.6667V32.0001C1 32.6667 1.33333 33.3334 1.83333 33.8334C2.33333 34.3334 3 34.6667 3.66667 34.6667H20" stroke="#00BEC8" stroke-width="2" stroke-linecap="round" stroke-linejoin="round"/>
<path d="M21 1.33325V9.66658H29.3333" stroke="#00BEC8" stroke-width="2" stroke-linecap="round" stroke-linejoin="round"/>
</svg>
