<svg width="24" height="24" viewBox="0 0 24 24" fill="none" xmlns="http://www.w3.org/2000/svg">
<path d="M18 2.475C16.2375 1.3875 14.2125 0.75 12 0.75V2.475H18Z" fill="#ED4C5C"/>
<path d="M12 4.2001H20.1C19.4625 3.5626 18.75 2.9626 18 2.4751H12V4.2001Z" fill="white"/>
<path d="M12 5.92568H21.4875C21.075 5.28818 20.625 4.72568 20.1375 4.20068H12V5.92568Z" fill="#ED4C5C"/>
<path d="M12 7.64932H22.3875C22.125 7.04932 21.825 6.44932 21.4875 5.92432H12V7.64932Z" fill="white"/>
<path d="M12 9.3749H22.95C22.8 8.7749 22.6125 8.2124 22.3875 7.6499H12V9.3749Z" fill="#ED4C5C"/>
<path d="M12 11.1376H23.2125C23.175 10.5376 23.0625 9.9751 22.95 9.4126H12V11.1376" fill="white"/>
<path d="M23.2125 11.1382H12V12.0007H0.75C0.75 12.3007 0.75 12.5632 0.7875 12.8632H23.2125C23.25 12.5632 23.25 12.3007 23.25 12.0007C23.25 11.7007 23.25 11.4007 23.2125 11.1382" fill="#ED4C5C"/>
<path d="M1.04961 14.5868H22.9496C23.0996 14.0243 23.1746 13.4618 23.2121 12.8618H0.787109C0.824609 13.4243 0.899609 14.0243 1.04961 14.5868Z" fill="white"/>
<path d="M1.6123 16.3124H22.3873C22.6123 15.7499 22.7998 15.1874 22.9498 14.5874H1.0498C1.1998 15.1874 1.3873 15.7499 1.6123 16.3124Z" fill="#ED4C5C"/>
<path d="M2.5123 18.0375H21.4873C21.8248 17.475 22.1248 16.9125 22.3873 16.3125H1.6123C1.8748 16.9125 2.1748 17.475 2.5123 18.0375" fill="white"/>
<path d="M3.8627 19.7626H20.1377C20.6252 19.2376 21.1127 18.6376 21.4877 18.0376H2.5127C2.8877 18.6751 3.3752 19.2376 3.8627 19.7626Z" fill="#ED4C5C"/>
<path d="M5.9623 21.4882H18.0373C18.8248 21.0007 19.4998 20.4007 20.1373 19.7632H3.8623C4.4998 20.4382 5.2123 21.0007 5.9623 21.4882Z" fill="white"/>
<path d="M12.0004 23.2493C14.2129 23.2493 16.2754 22.6118 18.0379 21.4868H5.96289C7.72539 22.6118 9.78789 23.2493 12.0004 23.2493Z" fill="#ED4C5C"/>
<path d="M6 2.475C5.2125 2.9625 4.5 3.5625 3.8625 4.2C3.3375 4.725 2.8875 5.325 2.5125 5.925C2.175 6.4875 1.8375 7.05 1.6125 7.65C1.3875 8.2125 1.2 8.775 1.05 9.375C0.9 9.9375 0.825 10.5 0.7875 11.1C0.75 11.4 0.75 11.7 0.75 12H12V0.75C9.7875 0.75 7.7625 1.3875 6 2.475Z" fill="#428BC1"/>
<path d="M9.375 1.125L9.5625 1.6875H10.125L9.675 2.0625L9.825 2.625L9.375 2.2875L8.925 2.625L9.075 2.0625L8.625 1.6875H9.1875L9.375 1.125Z" fill="white"/>
<path d="M10.875 3.375L11.0625 3.9375H11.625L11.175 4.3125L11.325 4.875L10.875 4.5375L10.425 4.875L10.575 4.3125L10.125 3.9375H10.6875L10.875 3.375Z" fill="white"/>
<path d="M7.875 3.375L8.0625 3.9375H8.625L8.175 4.3125L8.325 4.875L7.875 4.5375L7.425 4.875L7.575 4.3125L7.125 3.9375H7.6875L7.875 3.375Z" fill="white"/>
<path d="M9.375 5.625L9.5625 6.1875H10.125L9.675 6.5625L9.825 7.125L9.375 6.7875L8.925 7.125L9.075 6.5625L8.625 6.1875H9.1875L9.375 5.625Z" fill="white"/>
<path d="M6.375 5.625L6.5625 6.1875H7.125L6.675 6.5625L6.825 7.125L6.375 6.7875L5.925 7.125L6.075 6.5625L5.625 6.1875H6.1875L6.375 5.625Z" fill="white"/>
<path d="M3.375 5.625L3.5625 6.1875H4.125L3.675 6.5625L3.825 7.125L3.375 6.7875L2.925 7.125L3.075 6.5625L2.625 6.1875H3.1875L3.375 5.625Z" fill="white"/>
<path d="M10.875 7.875L11.0625 8.4375H11.625L11.175 8.8125L11.325 9.375L10.875 9.0375L10.425 9.375L10.575 8.8125L10.125 8.4375H10.6875L10.875 7.875Z" fill="white"/>
<path d="M7.875 7.875L8.0625 8.4375H8.625L8.175 8.8125L8.325 9.375L7.875 9.0375L7.425 9.375L7.575 8.8125L7.125 8.4375H7.6875L7.875 7.875Z" fill="white"/>
<path d="M4.875 7.875L5.0625 8.4375H5.625L5.175 8.8125L5.325 9.375L4.875 9.0375L4.425 9.375L4.575 8.8125L4.125 8.4375H4.6875L4.875 7.875Z" fill="white"/>
<path d="M9.375 10.125L9.5625 10.6875H10.125L9.675 11.0625L9.825 11.625L9.375 11.2875L8.925 11.625L9.075 11.0625L8.625 10.6875H9.1875L9.375 10.125Z" fill="white"/>
<path d="M6.375 10.125L6.5625 10.6875H7.125L6.675 11.0625L6.825 11.625L6.375 11.2875L5.925 11.625L6.075 11.0625L5.625 10.6875H6.1875L6.375 10.125Z" fill="white"/>
<path d="M3.375 10.125L3.5625 10.6875H4.125L3.675 11.0625L3.825 11.625L3.375 11.2875L2.925 11.625L3.075 11.0625L2.625 10.6875H3.1875L3.375 10.125Z" fill="white"/>
<path d="M4.42559 4.875L4.87559 4.5375L5.32559 4.875L5.13809 4.3125L5.58809 3.9375H5.02559L4.87559 3.375L4.68809 3.9375H4.16309L4.61309 4.275L4.42559 4.875" fill="white"/>
<path d="M1.42539 9.375L1.87539 9.0375L2.32539 9.375L2.13789 8.8125L2.58789 8.4375H2.06289L1.87539 7.875L1.68789 8.4375H1.31289C1.31289 8.475 1.27539 8.5125 1.27539 8.55L1.57539 8.775L1.42539 9.375" fill="white"/>
</svg>
