<svg width="160" height="49" viewBox="0 0 160 49" fill="none" xmlns="http://www.w3.org/2000/svg">
<path d="M71.2191 1.2869L71.1393 1.30572H71.1111C67.7536 2.17602 64.5202 3.47097 61.4888 5.15939C61.2706 5.27937 61.0546 5.39465 60.8387 5.5264C60.536 5.70285 60.2356 5.88165 59.9375 6.06751C57.8987 7.31723 55.9732 8.74369 54.1829 10.3305C53.7135 10.7493 53.2442 11.1845 52.7748 11.6269C52.4509 11.9405 52.1317 12.2605 51.8172 12.5867C51.376 13.0432 50.945 13.5137 50.5241 13.9983C48.9431 15.7946 47.5203 17.7247 46.2715 19.7671C46.0861 20.0682 45.9077 20.3693 45.7317 20.6728C45.6073 20.8893 45.4853 21.1057 45.3656 21.3245C43.6809 24.3632 42.3891 27.6046 41.5214 30.9704C41.0895 30.9893 39.3411 30.9893 38.9069 30.9704C38.041 27.6043 36.75 24.3628 35.0651 21.3245C34.9454 21.1057 34.8304 20.8893 34.6989 20.6728C34.5229 20.3693 34.3446 20.0682 34.1591 19.7671C32.9127 17.7242 31.4922 15.7933 29.9136 13.996C29.4943 13.5254 29.0632 13.0549 28.6205 12.5844C28.3075 12.2597 27.9884 11.9398 27.6629 11.6245C27.2053 11.1822 26.7382 10.747 26.2548 10.3282C24.4645 8.74135 22.539 7.31488 20.5002 6.06516C20.2021 5.8793 19.9017 5.70049 19.5966 5.52404C19.3823 5.39857 19.1664 5.27623 18.9489 5.15703C15.9173 3.46903 12.6839 2.1741 9.32659 1.30337H9.29842L9.21863 1.28455C5.94705 0.444651 0 0 0 0H29.9136C29.9116 0.429488 29.9383 0.858625 29.9934 1.28455C30.2786 3.56404 31.3131 5.68334 32.9336 7.3078C34.5541 8.93227 36.6682 9.96934 38.9421 10.2553C39.7923 10.3619 40.6524 10.3619 41.5026 10.2553C43.7765 9.96934 45.8906 8.93227 47.5111 7.3078C49.1316 5.68334 50.1661 3.56404 50.4513 1.28455C50.5064 0.858625 50.5331 0.429488 50.5311 0H80.2194C80.2194 0 74.5047 0.446999 71.2191 1.2869Z" fill="#00BEC8"/>
<path d="M53.5885 42.6688C56.7653 39.6547 58.8365 35.6556 59.4679 31.3168C60.0994 26.9779 59.2543 22.5524 57.069 18.754C56.5192 17.8067 55.8911 16.9072 55.1915 16.0649L50.2207 22.8877C51.1327 24.5217 51.6328 26.3543 51.6777 28.2262C51.7226 30.0981 51.3108 31.9527 50.4782 33.6288C49.6455 35.3049 48.4172 36.7518 46.8999 37.8438C45.3827 38.9359 43.6223 39.64 41.7719 39.8951C40.7352 40.0331 39.6849 40.0331 38.6482 39.8951C35.9033 39.5136 33.3885 38.1502 31.5676 36.0563C29.7466 33.9623 28.7422 31.279 28.7395 28.5011C28.7395 26.8754 29.1221 24.6122 30.1477 22.7583L25.1206 16.2014C23.3484 18.3931 22.0709 20.9437 21.3762 23.6776C20.6815 26.4116 20.586 29.264 21.0963 32.0386C21.6067 34.8131 22.7107 37.4438 24.3324 39.7496C25.954 42.0554 28.0549 43.9816 30.4903 45.3956C32.0143 46.2803 33.6521 46.9515 35.3578 47.3906C38.5464 48.2046 41.8877 48.2046 45.0763 47.3906C46.7821 46.9515 48.4198 46.2803 49.9438 45.3956C51.2602 44.6317 52.4834 43.7166 53.5885 42.6688Z" fill="white"/>
<path d="M78.3494 31.6964L87.2559 19.2344H79.4454L74.477 26.3629L69.3021 19.2344H61.163L70.0672 31.8893L60.7617 44.8407H69.0087L74.2282 36.9029L79.5182 44.8407H87.5962L83.8294 39.2438L78.3494 31.6964Z" fill="white"/>
<path d="M146.646 39.2451V34.5609H157.993V29.1475H149.567V29.1498H139.492V44.8421H159.999V39.2451H146.646Z" fill="white"/>
<path d="M110.189 34.5596V29.1461H98.8418V24.829H110.525V19.2344H91.6885V34.522L110.189 34.5596Z" fill="white"/>
<path d="M130.49 30.5913C128.916 30.0325 127.305 29.5867 125.667 29.2573C123.946 28.8903 122.695 28.5366 121.912 28.1963C121.133 27.8551 120.739 27.3423 120.739 26.66C120.739 25.9777 121.068 25.4225 121.722 24.9943C122.377 24.5661 123.6 24.679 125.034 24.679C126.7 24.679 139.502 24.8084 139.502 24.8084L159.536 24.8296V19.235H124.963C122.506 19.235 120.349 19.0868 118.66 19.8184C116.97 20.5501 115.698 21.5453 114.846 22.7993C113.997 24.046 113.551 25.5245 113.569 27.034C113.569 28.8158 114.032 30.2274 114.956 31.2688C115.853 32.2996 116.995 33.0862 118.277 33.5556C119.85 34.1106 121.459 34.5563 123.093 34.8896C124.847 35.2801 126.118 35.6518 126.907 36.0047C127.695 36.3576 128.09 36.9003 128.092 37.6328C128.092 39.0232 126.848 39.0608 124.074 39.0608C122.614 39.0608 112.128 39.2444 112.128 39.2444H91.8721V44.839H124.081C126.515 44.839 128.96 44.719 130.652 43.9756C132.344 43.2321 133.074 42.4981 133.938 41.2559C134.783 40.0312 135.229 38.5739 135.215 37.0846C135.215 35.306 134.745 33.8944 133.807 32.8498C132.9 31.8393 131.762 31.0643 130.49 30.5913Z" fill="white"/>
</svg>
