<svg width="125" height="121" viewBox="0 0 125 121" fill="none" xmlns="http://www.w3.org/2000/svg">
<path d="M82.227 120.911C101.074 121.428 119.548 115.58 134.666 104.311C149.784 93.0415 160.666 77.0084 165.556 58.798C166.761 54.2415 167.582 49.5921 168.01 44.8987L132.114 50.4958C129.925 58.2442 125.876 65.3412 120.321 71.17C114.765 76.9988 107.871 81.3833 100.237 83.9423C92.6022 86.5014 84.4587 87.1576 76.5137 85.854C68.5687 84.5505 61.0624 81.3266 54.6472 76.4624C51.0679 73.7225 47.8667 70.5213 45.1268 66.942C37.921 57.4164 34.4024 45.6061 35.2198 33.6889C36.0373 21.7716 41.1356 10.551 49.5748 2.09573C54.5182 -2.84773 62.5664 -8.56405 71.3295 -11.0757L75.9466 -46.3354C63.8807 -45.0723 52.2314 -41.2096 41.8005 -35.0134C31.3695 -28.8171 22.4048 -20.4344 15.5233 -10.4422C8.64173 -0.449966 4.0069 10.9143 1.93779 22.8685C-0.131328 34.8227 0.414394 47.0829 3.53745 58.8051C5.49204 66.1401 8.44225 73.1726 12.3058 79.7066C19.5487 91.9001 29.7321 102.083 41.9255 109.326C48.4595 113.19 55.4921 116.14 62.8271 118.095C69.1623 119.784 75.6728 120.729 82.227 120.911Z" fill="#DFF1F2"/>
</svg>
