<svg width="154" height="119" viewBox="0 0 154 119" fill="none" xmlns="http://www.w3.org/2000/svg">
<path d="M164.694 58.6391C170.071 40.5676 169.203 21.2104 162.231 3.69057C155.259 -13.8292 142.588 -28.49 126.264 -37.9263C122.175 -40.2696 117.896 -42.2661 113.474 -43.8949L109.589 -7.77302C116.507 -3.65269 122.314 2.09451 126.507 8.96922C130.699 15.8439 133.15 23.6382 133.646 31.6748C134.142 39.7114 132.668 47.7473 129.352 55.0842C126.037 62.4211 120.98 68.8372 114.621 73.7749C111.048 76.5231 107.128 78.7867 102.961 80.5068C91.8951 85.0017 79.5766 85.3437 68.2769 81.4697C56.9773 77.5957 47.4585 69.767 41.4756 59.427C37.9801 53.3725 34.5415 44.1191 34.3836 35.0045L1.52031 21.4189C-0.382506 33.4005 0.333427 45.6526 3.61884 57.3318C6.90426 69.0111 12.6811 79.84 20.5518 89.0732C28.4224 98.3064 38.1999 105.725 49.2112 110.817C60.2226 115.91 72.2063 118.556 84.3373 118.573C91.9283 118.584 99.4848 117.554 106.796 115.513C120.449 111.673 132.921 104.472 143.073 94.5689C148.496 89.2575 153.166 83.2282 156.952 76.649C160.223 70.9669 162.821 64.9228 164.694 58.6391Z" fill="#DFF1F2"/>
</svg>
