<svg width="125" height="143" viewBox="0 0 125 143" fill="none" xmlns="http://www.w3.org/2000/svg">
<path d="M0.755052 56.2275C0.238493 75.0749 6.08656 93.548 17.3558 108.666C28.625 123.785 44.6581 134.666 62.8685 139.556C67.425 140.761 72.0743 141.582 76.7678 142.011L71.1707 106.115C63.4223 103.925 56.3253 99.8768 50.4965 94.3214C44.6677 88.766 40.2832 81.8715 37.7242 74.2371C35.1652 66.6027 34.5089 58.4592 35.8125 50.5142C37.116 42.5692 40.3399 35.0629 45.2041 28.6477C47.944 25.0684 51.1452 21.8672 54.7245 19.1273C64.2501 11.9215 76.0604 8.40287 87.9776 9.22031C99.8949 10.0377 111.116 15.1361 119.571 23.5752C124.514 28.5187 130.231 36.5669 132.742 45.33L168.002 49.9471C166.739 37.8812 162.876 26.2319 156.68 15.8009C150.484 5.37003 142.101 -3.59474 132.109 -10.4763C122.116 -17.3578 110.752 -21.9926 98.798 -24.0617C86.8438 -26.1308 74.5836 -25.5851 62.8615 -22.4621C55.5264 -20.5075 48.4939 -17.5573 41.9599 -13.6938C29.7664 -6.45084 19.583 3.73257 12.3401 15.926C8.47659 22.46 5.52639 29.4925 3.57179 36.8276C1.88258 43.1627 0.93731 49.6733 0.755052 56.2275Z" fill="#DFF1F2"/>
</svg>
