<svg width="146" height="143" viewBox="0 0 146 143" fill="none" xmlns="http://www.w3.org/2000/svg">
<path d="M86.438 -25.2449C67.5906 -25.7615 49.1175 -19.9134 33.9993 -8.64423C18.881 2.62497 7.99917 18.6581 3.10937 36.8685C1.90438 41.425 1.08325 46.0744 0.654552 50.7678L36.551 45.1707C38.7404 37.4223 42.7888 30.3253 48.3442 24.4965C53.8995 18.6677 60.794 14.2832 68.4284 11.7242C76.0628 9.16515 84.2063 8.50894 92.1513 9.81248C100.096 11.116 107.603 14.3399 114.018 19.2041C117.597 21.944 120.798 25.1452 123.538 28.7245C130.744 38.2501 134.263 50.0604 133.445 61.9776C132.628 73.8949 127.529 85.1155 119.09 93.5708C114.147 98.5142 106.099 104.231 97.3355 106.742L92.7184 142.002C104.784 140.739 116.434 136.876 126.865 130.68C137.295 124.484 146.26 116.101 153.142 106.109C160.023 96.1165 164.658 84.7522 166.727 72.798C168.796 60.8438 168.251 48.5836 165.128 36.8615C163.173 29.5264 160.223 22.4939 156.359 15.9599C149.116 3.76645 138.933 -6.41697 126.74 -13.6599C120.206 -17.5234 113.173 -20.4736 105.838 -22.4282C99.5028 -24.1174 92.9922 -25.0627 86.438 -25.2449Z" fill="#DFF1F2"/>
</svg>
