<svg width="19" height="19" viewBox="0 0 19 19" fill="none" xmlns="http://www.w3.org/2000/svg">
<path d="M2.98292 5.1968C4.19132 5.1968 5.17092 4.2172 5.17092 3.0088C5.17092 1.8004 4.19132 0.820801 2.98292 0.820801C1.77452 0.820801 0.794922 1.8004 0.794922 3.0088C0.794922 4.2172 1.77452 5.1968 2.98292 5.1968Z" fill="#00BEC8"/>
<path d="M7.23722 6.85518V18.9942H11.0062V12.9912C11.0062 11.4072 11.3042 9.87318 13.2682 9.87318C15.2052 9.87318 15.2292 11.6842 15.2292 13.0912V18.9952H19.0002V12.3382C19.0002 9.06818 18.2962 6.55518 14.4742 6.55518C12.6392 6.55518 11.4092 7.56218 10.9062 8.51518H10.8552V6.85518H7.23722ZM1.09521 6.85518H4.87021V18.9942H1.09521V6.85518Z" fill="#00BEC8"/>
</svg>
