<svg width="81" height="31" viewBox="0 0 81 31" fill="none" xmlns="http://www.w3.org/2000/svg">
<path d="M71.2191 1.2869L71.1393 1.30572H71.1111C67.7536 2.17602 64.5202 3.47097 61.4888 5.15939C61.2706 5.27937 61.0546 5.39465 60.8387 5.5264C60.536 5.70285 60.2356 5.88165 59.9375 6.06751C57.8987 7.31723 55.9732 8.74369 54.1829 10.3305C53.7135 10.7493 53.2442 11.1845 52.7748 11.6269C52.4509 11.9405 52.1317 12.2605 51.8172 12.5867C51.376 13.0432 50.945 13.5137 50.5241 13.9983C48.9431 15.7946 47.5203 17.7247 46.2715 19.7671C46.0861 20.0682 45.9077 20.3693 45.7317 20.6728C45.6073 20.8893 45.4853 21.1057 45.3656 21.3245C43.6809 24.3632 42.3891 27.6046 41.5214 30.9704C41.0895 30.9893 39.3411 30.9893 38.9069 30.9704C38.041 27.6043 36.75 24.3628 35.0651 21.3245C34.9454 21.1057 34.8304 20.8893 34.6989 20.6728C34.5229 20.3693 34.3446 20.0682 34.1591 19.7671C32.9127 17.7242 31.4922 15.7933 29.9136 13.996C29.4943 13.5254 29.0632 13.0549 28.6205 12.5844C28.3075 12.2597 27.9884 11.9398 27.6629 11.6245C27.2053 11.1822 26.7382 10.747 26.2548 10.3282C24.4645 8.74135 22.539 7.31488 20.5002 6.06516C20.2021 5.8793 19.9017 5.70049 19.5966 5.52404C19.3823 5.39857 19.1664 5.27623 18.9489 5.15703C15.9173 3.46903 12.6839 2.1741 9.32659 1.30337H9.29842L9.21863 1.28455C5.94705 0.444651 0 0 0 0H29.9136C29.9116 0.429488 29.9383 0.858625 29.9934 1.28455C30.2786 3.56404 31.3131 5.68334 32.9336 7.3078C34.5541 8.93227 36.6682 9.96934 38.9421 10.2553C39.7923 10.3619 40.6524 10.3619 41.5026 10.2553C43.7765 9.96934 45.8906 8.93227 47.5111 7.3078C49.1316 5.68334 50.1661 3.56404 50.4513 1.28455C50.5064 0.858625 50.5331 0.429488 50.5311 0H80.2194C80.2194 0 74.5047 0.446999 71.2191 1.2869Z" fill="#00BEC8"/>
</svg>
