<svg width="32" height="32" viewBox="0 0 32 32" fill="none" xmlns="http://www.w3.org/2000/svg">
<path d="M13.5003 2C13.8982 2 14.2797 2.15804 14.561 2.43934C14.8423 2.72064 15.0003 3.10218 15.0003 3.5V16C15.0003 16.2652 15.1057 16.5196 15.2932 16.7071C15.4808 16.8946 15.7351 17 16.0003 17C16.2655 17 16.5199 16.8946 16.7074 16.7071C16.895 16.5196 17.0003 16.2652 17.0003 16V10.934L17.1723 10.926C17.8063 10.902 18.4463 10.91 18.8043 10.98C19.0723 11.034 19.3923 11.172 19.7003 11.344C19.8543 11.428 20.0003 11.638 20.0003 11.972V16C20.0003 16.2652 20.1057 16.5196 20.2932 16.7071C20.4808 16.8946 20.7351 17 21.0003 17C21.2655 17 21.5199 16.8946 21.7074 16.7071C21.895 16.5196 22.0003 16.2652 22.0003 16V12.87L22.2123 12.85C22.8443 12.802 23.3803 12.83 23.6283 12.93C23.8643 13.022 24.2283 13.344 24.6003 13.79C24.7623 13.982 24.9003 14.17 25.0003 14.308V17C25.0003 17.2652 25.1057 17.5196 25.2932 17.7071C25.4808 17.8946 25.7351 18 26.0003 18C26.2655 18 26.5199 17.8946 26.7074 17.7071C26.895 17.5196 27.0003 17.2652 27.0003 17V15H27.6843C27.9638 15 28.2402 15.0586 28.4957 15.172C28.7512 15.2854 28.9801 15.4511 29.1676 15.6583C29.3551 15.8656 29.4971 16.1099 29.5843 16.3755C29.6716 16.641 29.7023 16.9219 29.6743 17.2L29.1323 22.63C29.0623 23.3278 28.8463 24.0031 28.4983 24.612L25.7083 29.496C25.6209 29.6491 25.4946 29.7763 25.3421 29.8648C25.1897 29.9533 25.0166 29.9999 24.8403 30H12.2363C12.0508 30 11.8689 29.9484 11.711 29.8509C11.5531 29.7534 11.4255 29.6139 11.3423 29.448L8.87833 24.518L3.85433 16.148C3.72525 15.9316 3.67964 15.6755 3.72606 15.4278C3.77248 15.1802 3.90774 14.958 4.10643 14.803C4.30512 14.648 4.55356 14.571 4.80507 14.5862C5.05659 14.6015 5.29386 14.7081 5.47233 14.886L10.2923 19.706C10.4321 19.8461 10.6102 19.9416 10.8043 19.9804C10.9983 20.0192 11.1995 19.9995 11.3823 19.924C11.5652 19.8484 11.7215 19.7202 11.8315 19.5558C11.9415 19.3913 12.0003 19.1979 12.0003 19V3.5C12.0003 3.10218 12.1584 2.72064 12.4397 2.43934C12.721 2.15804 13.1025 2 13.5003 2V2ZM17.0003 8.932V3.5C17.0003 2.57174 16.6316 1.6815 15.9752 1.02513C15.3188 0.368749 14.4286 0 13.5003 0C12.5721 0 11.6818 0.368749 11.0255 1.02513C10.3691 1.6815 10.0003 2.57174 10.0003 3.5V16.586L6.88633 13.472C6.36239 12.951 5.66632 12.639 4.92873 12.5947C4.19114 12.5504 3.46274 12.7769 2.88023 13.2315C2.29772 13.6861 1.90113 14.3377 1.76491 15.0639C1.62868 15.7902 1.76217 16.5412 2.14033 17.176L7.12233 25.482L9.55233 30.342C9.80159 30.8404 10.1847 31.2594 10.6588 31.5523C11.1329 31.8451 11.6791 32.0002 12.2363 32H24.8403C25.3691 31.9998 25.8885 31.8599 26.3458 31.5944C26.8031 31.3288 27.182 30.9472 27.4443 30.488L30.2343 25.606C30.7221 24.7526 31.0247 23.8061 31.1223 22.828L31.6643 17.398C31.7199 16.8419 31.6584 16.2804 31.4837 15.7496C31.309 15.2187 31.025 14.7304 30.65 14.316C30.2751 13.9017 29.8174 13.5705 29.3066 13.3438C28.7958 13.1171 28.2432 13 27.6843 13H26.5223C26.3975 12.8307 26.2674 12.6653 26.1323 12.504C25.7503 12.046 25.1123 11.368 24.3723 11.072C23.6443 10.78 22.6803 10.808 22.0563 10.856L21.7923 10.88C21.5794 10.3349 21.1834 9.88098 20.6723 9.596C20.2122 9.33063 19.7146 9.13643 19.1963 9.02C18.5763 8.896 17.7183 8.904 17.0963 8.928L17.0003 8.932Z" fill="#698486"/>
</svg>
