<svg width="26" height="22" viewBox="0 0 26 22" fill="none" xmlns="http://www.w3.org/2000/svg">
<path d="M21.9339 18.3267C24.0573 16.2504 25.4416 13.4955 25.8637 10.5066C26.2858 7.51768 25.7209 4.46901 24.2602 1.85244V1.85244C23.8927 1.19983 23.473 0.58019 23.0053 0L19.6828 4.69999C20.2924 5.82566 20.6267 7.08809 20.6567 8.37758C20.6867 9.66708 20.4114 10.9446 19.8549 12.0993C19.2983 13.2539 18.4773 14.2506 17.4632 15.0029C16.449 15.7552 15.2724 16.2402 14.0355 16.4159C13.3426 16.511 12.6405 16.511 11.9476 16.4159C10.1129 16.1532 8.43203 15.214 7.21488 13.7715C5.99772 12.329 5.32637 10.4806 5.32461 8.56695C5.32461 7.44706 5.58031 5.88795 6.26583 4.61085L2.9057 0.0939976C1.72111 1.60377 0.867258 3.36082 0.402906 5.24419C-0.0614468 7.12756 -0.125268 9.09252 0.215834 11.0038C0.556936 12.9151 1.29486 14.7273 2.37881 16.3158C3.46276 17.9042 4.867 19.2311 6.49486 20.2051C7.51351 20.8145 8.60818 21.277 9.74832 21.5794C11.8796 22.1402 14.1129 22.1402 16.2443 21.5794C17.3844 21.277 18.4791 20.8145 19.4977 20.2051C20.3776 19.6789 21.1952 19.0485 21.9339 18.3267V18.3267Z" fill="#00BEC8"/>
</svg>
