<svg width="26" height="21" viewBox="0 0 26 21" fill="none" xmlns="http://www.w3.org/2000/svg">
<path d="M21.9339 17.4937C24.0573 15.5117 25.4416 12.8821 25.8637 10.029C26.2858 7.17596 25.7209 4.26587 24.2602 1.76824C23.8927 1.14529 23.473 0.553818 23.0053 0L19.6828 4.48635C20.2924 5.56086 20.6267 6.7659 20.6567 7.99678C20.6867 9.22766 20.4114 10.4472 19.8549 11.5493C19.2983 12.6514 18.4773 13.6029 17.4632 14.3209C16.449 15.039 15.2724 15.5021 14.0355 15.6698C13.3426 15.7605 12.6405 15.7605 11.9476 15.6698C10.1129 15.4189 8.43203 14.5224 7.21488 13.1455C5.99772 11.7686 5.32637 10.0042 5.32461 8.17755C5.32461 7.10855 5.58031 5.62032 6.26583 4.40127L2.9057 0.089725C1.72111 1.53088 0.867258 3.20806 0.402906 5.00582C-0.0614468 6.80358 -0.125268 8.67922 0.215834 10.5036C0.556936 12.3281 1.29486 14.0579 2.37881 15.5741C3.46276 17.0903 4.867 18.3569 6.49485 19.2867C7.51351 19.8684 8.60818 20.3098 9.74832 20.5986C11.8796 21.1338 14.1129 21.1338 16.2442 20.5986C17.3844 20.3098 18.4791 19.8684 19.4977 19.2867C20.3776 18.7844 21.1952 18.1826 21.9339 17.4937Z" fill="white"/>
</svg>
