<svg width="36" height="33" viewBox="0 0 36 33" fill="none" xmlns="http://www.w3.org/2000/svg">
<path d="M35.3335 9.83317C35.3335 12.2643 34.3677 14.5959 32.6486 16.315C30.9296 18.0341 28.598 18.9998 26.1668 18.9998C23.7357 18.9998 21.4041 18.0341 19.685 16.315C17.9659 14.5959 17.0002 12.2643 17.0002 9.83317C17.0002 7.40202 17.9659 5.07044 19.685 3.35136C21.4041 1.63228 23.7357 0.666504 26.1668 0.666504C28.598 0.666504 30.9296 1.63228 32.6486 3.35136C34.3677 5.07044 35.3335 7.40202 35.3335 9.83317ZM22.0002 8.1665V9.6365L21.2552 11.1265C21.1915 11.2536 21.1614 11.3948 21.1677 11.5367C21.174 11.6787 21.2165 11.8167 21.2911 11.9376C21.3658 12.0585 21.4701 12.1584 21.5942 12.2276C21.7183 12.2968 21.8581 12.3332 22.0002 12.3332H30.3335C30.4756 12.3332 30.6153 12.2968 30.7394 12.2276C30.8636 12.1584 30.9679 12.0585 31.0425 11.9376C31.1172 11.8167 31.1597 11.6787 31.166 11.5367C31.1723 11.3948 31.1422 11.2536 31.0785 11.1265L30.3335 9.6365V8.1665C30.3335 7.06144 29.8945 6.00163 29.1131 5.22023C28.3317 4.43882 27.2719 3.99984 26.1668 3.99984C25.0618 3.99984 24.002 4.43882 23.2206 5.22023C22.4391 6.00163 22.0002 7.06144 22.0002 8.1665ZM26.1668 15.6665C26.684 15.6668 27.1886 15.5066 27.611 15.2081C28.0334 14.9096 28.3528 14.4875 28.5252 13.9998H23.8085C23.9809 14.4875 24.3003 14.9096 24.7227 15.2081C25.1451 15.5066 25.6496 15.6668 26.1668 15.6665ZM31.1668 26.9165V19.4465C32.0812 18.9693 32.923 18.3644 33.6668 17.6498V26.9165C33.6669 28.3001 33.1376 29.6312 32.1874 30.6369C31.2372 31.6426 29.9382 32.2465 28.5568 32.3248L28.2502 32.3332H5.75016C4.3666 32.3333 3.03545 31.8039 2.02978 30.8537C1.02411 29.9035 0.420161 28.6045 0.34183 27.2232L0.333496 26.9165V11.0832C0.333406 9.69961 0.862753 8.36846 1.81295 7.36279C2.76314 6.35712 4.06215 5.75317 5.4435 5.67484L5.75016 5.6665H16.1635C15.8289 6.46836 15.5927 7.30781 15.4602 8.1665H5.75016C5.01818 8.16653 4.31297 8.44179 3.77451 8.93764C3.23606 9.43349 2.90373 10.1137 2.8435 10.8432L2.8335 11.0832V11.7982L17.0002 19.2532L19.1752 18.1082C19.9068 18.7265 20.7202 19.2498 21.5985 19.6582L17.5818 21.7732C17.4286 21.8537 17.2602 21.9015 17.0875 21.9135C16.9148 21.9256 16.7415 21.9016 16.5785 21.8432L16.4185 21.7732L2.8335 14.6232V26.9165C2.83352 27.6485 3.10878 28.3537 3.60463 28.8922C4.10048 29.4306 4.78066 29.7629 5.51016 29.8232L5.75016 29.8332H28.2502C28.9824 29.8331 29.6878 29.5576 30.2263 29.0614C30.7648 28.5652 31.097 27.8846 31.1568 27.1548L31.1668 26.9165Z" fill="#00BEC8"/>
</svg>
