<svg width="40" height="46" viewBox="0 0 40 46" fill="none" xmlns="http://www.w3.org/2000/svg">
<path d="M1.22477e-06 6.26663C-0.000631946 5.33222 0.244244 4.41403 0.710107 3.60403C1.17597 2.79403 1.84647 2.12064 2.65446 1.65129C3.46245 1.18194 4.37957 0.933113 5.31398 0.929723C6.24839 0.926332 7.16729 1.1685 7.97867 1.63197L37.2693 18.3733C38.0851 18.84 38.763 19.5139 39.2345 20.3268C39.706 21.1398 39.9543 22.0629 39.9543 23.0026C39.9543 23.9424 39.706 24.8655 39.2345 25.6784C38.763 26.4914 38.0851 27.1653 37.2693 27.632L7.97867 44.3733C7.16729 44.8368 6.24839 45.0789 5.31398 45.0755C4.37957 45.0722 3.46245 44.8233 2.65446 44.354C1.84647 43.8846 1.17597 43.2112 0.710107 42.4012C0.244244 41.5912 -0.000631946 40.673 1.22477e-06 39.7386V6.26663ZM34.624 23.0026L5.33333 6.26663V39.7386L34.624 23.0026Z" fill="white"/>
</svg>
