<svg width="24" height="24" viewBox="0 0 24 24" fill="none" xmlns="http://www.w3.org/2000/svg">
<path fill-rule="evenodd" clip-rule="evenodd" d="M8.27629 6.55218C8.27629 7.15743 7.80566 7.6468 7.22591 7.6468C6.64466 7.6468 6.17554 7.15743 6.17554 6.55218C6.17554 5.94768 6.64466 5.45605 7.22591 5.45605C7.80604 5.45605 8.27629 5.9473 8.27629 6.55218Z" fill="#ECB118"/>
<path fill-rule="evenodd" clip-rule="evenodd" d="M5.75757 10.9537C5.75757 10.9537 8.22019 9.42673 6.96319 6.33936C6.96319 6.33936 11.4193 12.7556 12.6774 10.0256C13.9352 7.29523 12.3103 13.3575 12.2057 13.5206C12.1011 13.6852 10.0041 15.3236 10.0041 15.3236H6.70182L5.75757 10.9537Z" fill="#C79617"/>
<path d="M16.7756 7.64677C17.3563 7.64677 17.8271 7.15669 17.8271 6.55214C17.8271 5.9476 17.3563 5.45752 16.7756 5.45752C16.1949 5.45752 15.7241 5.9476 15.7241 6.55214C15.7241 7.15669 16.1949 7.64677 16.7756 7.64677Z" fill="#ECB118"/>
<path fill-rule="evenodd" clip-rule="evenodd" d="M18.2429 10.9537C18.2429 10.9537 15.7788 9.42673 17.0373 6.33936C17.0373 6.33936 12.5808 12.7556 11.3223 10.0256C10.0649 7.29523 11.6902 13.3575 11.7959 13.5206C11.8987 13.6852 13.9961 15.3236 13.9961 15.3236H17.2998L18.2429 10.9537Z" fill="#C79617"/>
<path fill-rule="evenodd" clip-rule="evenodd" d="M22.5269 5.46235C21.7221 5.46235 21.0704 6.17748 21.0704 7.06098C21.0704 7.29648 21.1191 7.51998 21.2027 7.72098C18.949 9.01623 16.8546 11.0165 16.8546 11.0165C14.95 13.2151 13.4076 9.63123 12.5665 6.88398C13.591 6.59485 14.3504 5.57598 14.3504 4.36023C14.3504 2.9191 13.2869 1.75098 11.9736 1.75098C10.6607 1.75098 9.59686 2.9191 9.59686 4.36023C9.59686 5.5951 10.3787 6.62523 11.4291 6.89823C10.5861 9.64585 9.04636 13.2144 7.14661 11.0184C7.14661 11.0184 5.05223 9.0181 2.79623 7.72285C2.88389 7.51384 2.92914 7.2895 2.92936 7.06285C2.92936 6.17935 2.27686 5.46423 1.47286 5.46423C0.668482 5.46423 0.0163574 6.17935 0.0163574 7.06285C0.0163574 7.94635 0.668857 8.66223 1.47286 8.66223C1.74286 8.66223 1.99148 8.57635 2.20898 8.43573C3.05048 10.1904 4.23848 13.3445 3.61823 16.2372C3.61823 16.2372 4.53136 19.8954 11.9999 19.772C19.468 19.8954 20.38 16.2372 20.38 16.2372C19.7605 13.3456 20.9481 10.1922 21.7904 8.43573C22.0079 8.57635 22.2565 8.66223 22.5265 8.66223C23.3309 8.66223 23.9834 7.94635 23.9834 7.06285C23.9834 6.17935 23.3312 5.46385 22.5269 5.46385" fill="#ECB118"/>
<path fill-rule="evenodd" clip-rule="evenodd" d="M11.9998 20.6083C6.03241 20.7069 4.25154 18.3924 3.77716 17.4575C3.75786 17.8795 3.70469 18.2992 3.61816 18.7126C3.61816 18.7126 4.53129 22.37 11.9998 22.2481C19.4679 22.37 20.3799 18.7126 20.3799 18.7126C20.2936 18.2992 20.2407 17.8795 20.2217 17.4575C19.7473 18.3924 17.9679 20.7069 11.9998 20.6083Z" fill="#ECB118"/>
<path fill-rule="evenodd" clip-rule="evenodd" d="M11.6625 19.7306C12.7343 14.3437 13.1663 8.84432 11.5609 3.49307C11.3779 2.88407 11.3299 2.31632 11.3828 1.79395C10.3553 2.08232 9.59588 3.1012 9.59588 4.3192C9.59588 5.55407 10.3778 6.58795 11.4281 6.85645C10.5851 9.60482 9.04538 13.1741 7.14563 10.9773C7.14563 10.9773 5.05126 8.97707 2.79526 7.68145C2.88298 7.47233 2.92823 7.24785 2.92838 7.02107C2.92838 6.13907 2.27588 5.4232 1.47188 5.4232C0.667506 5.4232 0.0153809 6.13907 0.0153809 7.02107C0.0153809 7.90532 0.667881 8.6212 1.47188 8.6212C1.74188 8.6212 1.99051 8.53457 2.20801 8.3947C3.04951 10.1482 4.23751 13.3034 3.61726 16.1951C3.61726 16.1951 4.50788 19.7377 11.6625 19.7317" fill="#ECB118"/>
<path d="M12.0004 15.0977L12.6349 16.2827L14.0513 16.4717L13.0249 17.3927L13.2679 18.6943L12.0004 18.0789L10.7344 18.6943L10.9767 17.3927L9.95142 16.4717L11.3667 16.2827L12.0004 15.0977Z" fill="white"/>
<path d="M11.9772 15.7209C11.969 15.5205 11.981 15.3197 12.0132 15.1217L12.0015 15.0977L11.3674 16.2819L9.95142 16.4717L10.9752 17.3919L10.734 18.6943L12.0015 18.08L13.2672 18.6943L13.1652 18.1415C12.4425 17.5119 12.0128 16.6378 11.9772 15.7209Z" fill="white"/>
<path d="M16.954 15.7407L17.344 16.4656L18.211 16.5826L17.5844 17.1462L17.7302 17.9453L16.954 17.5703L16.1777 17.9453L16.3262 17.1462L15.6985 16.5826L16.5677 16.4656L16.954 15.7407Z" fill="white"/>
<path d="M16.9391 16.122C16.9345 15.9992 16.9421 15.8762 16.962 15.7549L16.9545 15.7402L16.5664 16.4655L15.6982 16.5821L16.326 17.1461L16.1786 17.9452L16.9545 17.5702L17.7304 17.9452L17.6681 17.6062C17.2252 17.2196 16.9616 16.6826 16.9391 16.122Z" fill="white"/>
<path d="M7.01419 15.7407L7.40157 16.4656L8.26894 16.5826L7.64157 17.1462L7.79007 17.9453L7.01419 17.5703L6.23794 17.9453L6.38644 17.1462L5.75757 16.5826L6.62494 16.4656L7.01419 15.7407Z" fill="white"/>
<path d="M6.99844 16.122C6.99234 15.9991 7.00027 15.8759 7.02207 15.7549L7.01419 15.7402L6.62494 16.4655L5.75757 16.5821L6.38494 17.1461L6.23757 17.9452L7.01382 17.5702L7.78969 17.9452L7.72669 17.6062C7.28382 17.2196 7.02057 16.6826 6.99844 16.122Z" fill="white"/>
</svg>
