<svg width="20" height="17" viewBox="0 0 20 17" fill="none" xmlns="http://www.w3.org/2000/svg">
<path d="M16.8722 13.6787C18.5056 12.1289 19.5705 10.0728 19.8952 7.84189C20.2198 5.61103 19.7853 3.33557 18.6617 1.38262C18.379 0.895529 18.0561 0.433041 17.6964 0L15.1406 3.50797C15.6095 4.34814 15.8667 5.29039 15.8897 6.25284C15.9128 7.21529 15.7011 8.16884 15.273 9.03062C14.8449 9.8924 14.2133 10.6363 13.4332 11.1978C12.6531 11.7593 11.748 12.1214 10.7966 12.2525C10.2635 12.3235 9.7235 12.3235 9.19047 12.2525C7.77917 12.0564 6.48618 11.3554 5.5499 10.2788C4.61363 9.20213 4.09721 7.82248 4.09586 6.39419C4.09586 5.55832 4.29255 4.39464 4.81987 3.44144L2.23515 0.0701578C1.32393 1.19702 0.667122 2.50844 0.309928 3.91415C-0.0472668 5.31985 -0.0963597 6.78645 0.166026 8.213C0.428412 9.63955 0.996045 10.9922 1.82985 12.1777C2.66366 13.3633 3.74384 14.3537 4.99604 15.0806C5.77963 15.5355 6.62167 15.8807 7.4987 16.1064C9.13817 16.5249 10.8561 16.5249 12.4956 16.1064C13.3726 15.8807 14.2147 15.5355 14.9982 15.0806C15.6751 14.6879 16.304 14.2174 16.8722 13.6787Z" fill="#2AA0A7"/>
</svg>
