<svg width="22" height="22" viewBox="0 0 22 22" fill="none" xmlns="http://www.w3.org/2000/svg">
<path d="M13.7419 0.082948C13.8404 0.082772 13.9381 0.102023 14.0292 0.139601C14.1203 0.177178 14.2031 0.232345 14.2729 0.301948L21.6979 7.72695C21.8385 7.86759 21.9175 8.05833 21.9175 8.2572C21.9175 8.45607 21.8385 8.6468 21.6979 8.78745C20.9779 9.50745 20.0899 9.66945 19.4434 9.66945C19.1779 9.66945 18.9409 9.64245 18.7534 9.61095L14.0524 14.3119C14.1761 14.8106 14.2564 15.319 14.2924 15.8314C14.3614 16.8844 14.2444 18.3619 13.2124 19.3939C13.0717 19.5346 12.881 19.6135 12.6821 19.6135C12.4833 19.6135 12.2925 19.5346 12.1519 19.3939L7.90838 15.1519L3.13538 19.9249C2.84288 20.2174 1.30688 21.2779 1.01438 20.9854C0.721885 20.6929 1.78238 19.1554 2.07488 18.8644L6.84788 14.0914L2.60588 9.84795C2.46528 9.7073 2.38629 9.51657 2.38629 9.3177C2.38629 9.11882 2.46528 8.92809 2.60588 8.78745C3.63788 7.75545 5.11538 7.63695 6.16838 7.70745C6.68087 7.74336 7.18928 7.82366 7.68788 7.94745L12.3889 3.24795C12.3496 3.01952 12.3296 2.78822 12.3289 2.55645C12.3289 1.91145 12.4909 1.02345 13.2124 0.301948C13.3529 0.161745 13.5434 0.0829902 13.7419 0.082948Z" fill="#9DB5B7"/>
</svg>
