<svg width="22" height="22" viewBox="0 0 22 22" fill="none" xmlns="http://www.w3.org/2000/svg">
<path d="M13.7419 0.082948C13.8404 0.082772 13.9381 0.102023 14.0292 0.139601C14.1203 0.177178 14.2031 0.232345 14.2729 0.301948L21.6979 7.72695C21.8385 7.86759 21.9175 8.05833 21.9175 8.2572C21.9175 8.45607 21.8385 8.6468 21.6979 8.78745C20.9779 9.50745 20.0899 9.66945 19.4434 9.66945C19.1779 9.66945 18.9409 9.64245 18.7534 9.61095L14.0524 14.3119C14.1761 14.8106 14.2564 15.319 14.2924 15.8314C14.3614 16.8844 14.2444 18.3619 13.2124 19.3939C13.0717 19.5346 12.881 19.6135 12.6821 19.6135C12.4833 19.6135 12.2925 19.5346 12.1519 19.3939L7.90838 15.1519L3.13538 19.9249C2.84288 20.2174 1.30688 21.2779 1.01438 20.9854C0.721885 20.6929 1.78238 19.1554 2.07488 18.8644L6.84788 14.0914L2.60588 9.84795C2.46528 9.7073 2.38629 9.51657 2.38629 9.3177C2.38629 9.11882 2.46528 8.92809 2.60588 8.78745C3.63788 7.75545 5.11538 7.63695 6.16838 7.70745C6.68087 7.74336 7.18928 7.82366 7.68788 7.94745L12.3889 3.24795C12.3496 3.01952 12.3296 2.78822 12.3289 2.55645C12.3289 1.91145 12.4909 1.02345 13.2124 0.301948C13.3529 0.161745 13.5434 0.0829902 13.7419 0.082948ZM13.9249 3.25095V3.24795V3.25095ZM13.9249 3.24795V3.25095C13.9682 3.3829 13.974 3.52429 13.9417 3.65936C13.9094 3.79443 13.8402 3.91788 13.7419 4.01595L8.43938 9.31695C8.34086 9.41505 8.21701 9.48383 8.08165 9.51562C7.9463 9.54741 7.80478 9.54094 7.67288 9.49695H7.66988L7.64888 9.49095C7.50618 9.4482 7.3621 9.41018 7.21688 9.37695C6.83954 9.28893 6.45586 9.23075 6.06938 9.20295C5.43638 9.16095 4.81538 9.21495 4.30688 9.42795L12.5719 17.6914C12.7834 17.1814 12.8374 16.5619 12.7954 15.9289C12.7572 15.393 12.6606 14.8629 12.5074 14.3479L12.5014 14.3284V14.3269C12.4571 14.1948 12.4505 14.053 12.4823 13.9174C12.5141 13.7817 12.583 13.6576 12.6814 13.5589L17.9854 8.25645C18.0875 8.15369 18.2172 8.08271 18.3589 8.0521C18.5005 8.02149 18.6479 8.03255 18.7834 8.08395L18.9274 8.11695C19.0579 8.14245 19.2394 8.16795 19.4434 8.16795C19.6144 8.16795 19.7884 8.15145 19.9579 8.10795L13.8904 2.04195C13.8469 2.21145 13.8304 2.38695 13.8304 2.55645C13.8311 2.78952 13.8624 3.0215 13.9234 3.24645L13.9249 3.24795Z" fill="#9DB5B7"/>
</svg>
