<svg width="671" height="443" viewBox="0 0 671 443" fill="none" xmlns="http://www.w3.org/2000/svg">
<rect x="6" y="6" width="659" height="431" rx="14" fill="#F2FAFB" stroke="#DFF1F2" stroke-width="12"/>
<path d="M12 20C12 15.5817 15.5817 12 20 12H651C655.418 12 659 15.5817 659 20V60H12V20Z" fill="white"/>
<rect x="90" y="80" width="492" height="24" rx="8" fill="white"/>
<rect x="120" y="127" width="508" height="80" rx="8" fill="white"/>
<rect x="100" y="219" width="508" height="80" rx="8" fill="white"/>
<rect x="80" y="311" width="508" height="80" rx="8" fill="#008990"/>
<rect x="136" y="141" width="40" height="4" rx="2" fill="#DFF1F2"/>
<rect x="116" y="233" width="40" height="4" rx="2" fill="#DFF1F2"/>
<rect x="96" y="325" width="40" height="4" rx="2" fill="#03A1A9"/>
<rect x="560" y="141" width="56" height="4" rx="2" fill="#DFF1F2"/>
<rect x="540" y="233" width="56" height="4" rx="2" fill="#DFF1F2"/>
<rect x="520" y="325" width="56" height="4" rx="2" fill="#03A1A9"/>
<rect x="540" y="141" width="12" height="4" rx="2" fill="#DFF1F2"/>
<rect x="520" y="233" width="12" height="4" rx="2" fill="#DFF1F2"/>
<rect x="500" y="325" width="12" height="4" rx="2" fill="#03A1A9"/>
<rect x="136" y="157" width="160" height="4" rx="2" fill="#DFF1F2"/>
<rect x="116" y="249" width="160" height="4" rx="2" fill="#DFF1F2"/>
<rect x="96" y="341" width="160" height="4" rx="2" fill="#03A1A9"/>
<rect x="136" y="184" width="64" height="4" rx="2" fill="#DFF1F2"/>
<rect x="116" y="276" width="64" height="4" rx="2" fill="#DFF1F2"/>
<rect x="96" y="368" width="64" height="4" rx="2" fill="#03A1A9"/>
<rect x="212" y="184" width="64" height="4" rx="2" fill="#DFF1F2"/>
<rect x="192" y="276" width="64" height="4" rx="2" fill="#DFF1F2"/>
<rect x="172" y="368" width="64" height="4" rx="2" fill="#03A1A9"/>
<rect x="288" y="184" width="64" height="4" rx="2" fill="#DFF1F2"/>
<rect x="268" y="276" width="64" height="4" rx="2" fill="#DFF1F2"/>
<rect x="248" y="368" width="64" height="4" rx="2" fill="#03A1A9"/>
<rect x="540" y="184" width="76" height="4" rx="2" fill="#DFF1F2"/>
<rect x="520" y="276" width="76" height="4" rx="2" fill="#DFF1F2"/>
<rect x="500" y="368" width="76" height="4" rx="2" fill="#03A1A9"/>
<rect x="550" y="172" width="56" height="4" rx="2" fill="#DFF1F2"/>
<rect x="530" y="264" width="56" height="4" rx="2" fill="#DFF1F2"/>
<rect x="510" y="356" width="56" height="4" rx="2" fill="#03A1A9"/>
<path d="M56.4877 26.5169L56.4558 26.5245H56.4445C55.1016 26.874 53.8082 27.3942 52.5956 28.0723C52.5083 28.1205 52.4219 28.1668 52.3356 28.2198C52.2145 28.2906 52.0943 28.3625 51.9751 28.4371C51.1596 28.9391 50.3893 29.512 49.6732 30.1494C49.4855 30.3176 49.2977 30.4925 49.11 30.6701C48.9804 30.7961 48.8528 30.9246 48.727 31.0557C48.5505 31.239 48.3781 31.428 48.2097 31.6227C47.5773 32.3442 47.0082 33.1194 46.5087 33.9397C46.4345 34.0607 46.3632 34.1817 46.2928 34.3036C46.243 34.3905 46.1942 34.4774 46.1463 34.5653C45.4724 35.7859 44.9557 37.0878 44.6086 38.4398C44.4359 38.4473 43.7365 38.4473 43.5628 38.4398C43.2165 37.0877 42.7 35.7857 42.0261 34.5653C41.9782 34.4774 41.9322 34.3905 41.8796 34.3036C41.8092 34.1817 41.7379 34.0607 41.6637 33.9397C41.1651 33.1192 40.5969 32.3436 39.9655 31.6217C39.7978 31.4327 39.6253 31.2437 39.4482 31.0547C39.3231 30.9243 39.1954 30.7958 39.0652 30.6692C38.8822 30.4915 38.6953 30.3167 38.502 30.1485C37.7858 29.5111 37.0156 28.9381 36.2001 28.4362C36.0809 28.3615 35.9607 28.2897 35.8387 28.2188C35.7529 28.1684 35.6666 28.1193 35.5796 28.0714C34.3669 27.3934 33.0736 26.8733 31.7306 26.5235H31.7194L31.6875 26.516C30.3788 26.1786 28 26 28 26H39.9655C39.9647 26.1725 39.9754 26.3449 39.9974 26.516C40.1115 27.4316 40.5253 28.2828 41.1735 28.9353C41.8217 29.5878 42.6673 30.0043 43.5769 30.1192C43.917 30.162 44.261 30.162 44.6011 30.1192C45.5107 30.0043 46.3563 29.5878 47.0045 28.9353C47.6527 28.2828 48.0665 27.4316 48.1806 26.516C48.2026 26.3449 48.2133 26.1725 48.2125 26H60.0879C60.0879 26 57.802 26.1795 56.4877 26.5169Z" fill="#00BEC8"/>
<path d="M49.4354 43.1391C50.7061 41.9284 51.5346 40.3221 51.7872 38.5793C52.0398 36.8365 51.7017 35.0589 50.8276 33.5332C50.6077 33.1527 50.3565 32.7914 50.0766 32.4531L48.0883 35.1936C48.4531 35.85 48.6531 36.586 48.6711 37.3379C48.689 38.0898 48.5243 38.8347 48.1913 39.508C47.8582 40.1812 47.3669 40.7624 46.76 41.201C46.153 41.6397 45.4489 41.9225 44.7087 42.0249C44.2941 42.0804 43.8739 42.0804 43.4592 42.0249C42.3613 41.8717 41.3554 41.3241 40.627 40.483C39.8986 39.6419 39.4968 38.5641 39.4958 37.4483C39.4958 36.7954 39.6488 35.8863 40.059 35.1416L38.0482 32.5079C37.3393 33.3883 36.8283 34.4128 36.5504 35.5109C36.2726 36.6091 36.2344 37.7548 36.4385 38.8692C36.6426 39.9837 37.0842 41.0403 37.7329 41.9665C38.3816 42.8927 39.2219 43.6664 40.1961 44.2343C40.8057 44.5897 41.4608 44.8593 42.1431 45.0357C43.4186 45.3626 44.7551 45.3626 46.0305 45.0357C46.7128 44.8593 47.3679 44.5897 47.9775 44.2343C48.5041 43.9275 48.9934 43.5599 49.4354 43.1391Z" fill="black"/>
<path d="M59.3398 38.7312L62.9024 33.7256H59.7782L57.7908 36.5889L55.7208 33.7256H52.4652L56.0269 38.8087L52.3047 44.0109H55.6035L57.6913 40.8225L59.8073 44.0109H63.0385L61.5318 41.7627L59.3398 38.7312Z" fill="black"/>
<path d="M86.6585 41.7634V39.8819H91.1974V37.7075H87.8272V37.7085H83.7971V44.0115H92V41.7634H86.6585Z" fill="black"/>
<path d="M72.0761 39.8812V37.7068H67.5371V35.9728H72.2103V33.7256H64.6758V39.8661L72.0761 39.8812Z" fill="black"/>
<path d="M80.1966 38.2876C79.567 38.0631 78.9223 37.8841 78.2675 37.7518C77.5791 37.6043 77.0784 37.4623 76.7655 37.3256C76.4538 37.1886 76.2961 36.9825 76.2961 36.7085C76.2961 36.4345 76.4275 36.2114 76.6894 36.0395C76.9513 35.8675 77.4404 35.9128 78.014 35.9128C78.6805 35.9128 83.8015 35.9648 83.8015 35.9648L91.8148 35.9733V33.7261H77.9858C77.003 33.7261 76.1402 33.6666 75.4643 33.9605C74.7884 34.2544 74.2796 34.6541 73.9388 35.1578C73.5992 35.6585 73.4209 36.2524 73.4281 36.8588C73.4281 37.5744 73.6131 38.1414 73.983 38.5597C74.3417 38.9737 74.7987 39.2897 75.3113 39.4782C75.9404 39.7012 76.5841 39.8802 77.2377 40.014C77.9392 40.1709 78.4477 40.3202 78.7631 40.462C79.0786 40.6037 79.2366 40.8217 79.2372 41.1159C79.2372 41.6744 78.7397 41.6895 77.6301 41.6895C77.0461 41.6895 72.8517 41.7632 72.8517 41.7632H64.7493V44.0104H77.6329C78.6064 44.0104 79.5846 43.9622 80.2614 43.6636C80.9383 43.365 81.2302 43.0701 81.5757 42.5712C81.9139 42.0793 82.0923 41.4939 82.0864 40.8957C82.0864 40.1813 81.8986 39.6143 81.5231 39.1948C81.1603 38.7888 80.7052 38.4775 80.1966 38.2876Z" fill="black"/>
<rect x="51" y="349" width="29" height="4" fill="#008990"/>
<rect x="51" y="143" width="29" height="4" fill="#008990"/>
<rect x="51" y="349" width="204" height="4.00001" transform="rotate(-90 51 349)" fill="#008990"/>
<path d="M563.5 95.5C565.709 95.5 567.5 93.7091 567.5 91.5C567.5 89.2909 565.709 87.5 563.5 87.5C561.291 87.5 559.5 89.2909 559.5 91.5C559.5 93.7091 561.291 95.5 563.5 95.5Z" stroke="#9DB5B7" stroke-width="2" stroke-linecap="round" stroke-linejoin="round"/>
<path d="M568.5 96.5002L566.325 94.3252" stroke="#9DB5B7" stroke-width="2" stroke-linecap="round" stroke-linejoin="round"/>
<path d="M76 138.5L82.5 145L76 151.5" stroke="#008990" stroke-width="4" stroke-linecap="round"/>
</svg>
