<svg width="14" height="13" viewBox="0 0 14 13" fill="none" xmlns="http://www.w3.org/2000/svg">
<path d="M13.1891 4.51739L9.2219 3.94083L7.44847 0.345514C7.40003 0.247076 7.32034 0.167389 7.2219 0.118951C6.97503 -0.00292391 6.67503 0.0986386 6.55159 0.345514L4.77815 3.94083L0.810967 4.51739C0.701592 4.53301 0.601592 4.58458 0.525029 4.6627C0.432469 4.75784 0.381465 4.88583 0.383223 5.01855C0.384981 5.15127 0.439357 5.27786 0.534404 5.37051L3.40472 8.16895L2.72659 12.1205C2.71069 12.2124 2.72086 12.307 2.75595 12.3934C2.79105 12.4798 2.84966 12.5547 2.92514 12.6095C3.00062 12.6644 3.08995 12.6969 3.183 12.7036C3.27605 12.7102 3.3691 12.6906 3.45159 12.6471L7.00003 10.7815L10.5485 12.6471C10.6453 12.6986 10.7578 12.7158 10.8657 12.6971C11.1375 12.6502 11.3203 12.3924 11.2735 12.1205L10.5953 8.16895L13.4657 5.37051C13.5438 5.29395 13.5953 5.19395 13.611 5.08458C13.6532 4.81114 13.4625 4.55801 13.1891 4.51739Z" fill="#FFCE31"/>
</svg>
