<svg width="283" height="345" viewBox="0 0 283 345" fill="none" xmlns="http://www.w3.org/2000/svg">
<path d="M235.748 291.046C209.039 319.221 173.601 337.591 135.153 343.192C96.7046 348.792 57.4877 341.297 23.8291 321.915C15.4342 317.038 7.46335 311.468 -3.64022e-06 305.263L60.4589 261.176C74.9392 269.264 91.1786 273.7 107.766 274.098C124.354 274.496 140.788 270.844 155.64 263.459C170.493 256.074 183.315 245.18 192.992 231.723C202.669 218.266 208.909 202.653 211.169 186.241C212.392 177.046 212.392 167.73 211.169 158.536C207.789 134.191 195.707 111.887 177.152 95.7358C158.596 79.5851 134.818 70.6768 110.202 70.6535C95.7962 70.6535 75.7405 74.0464 59.3123 83.1427L1.20915 38.5563C20.6304 22.8379 43.2324 11.5079 67.4593 5.34625C91.6863 -0.815351 116.963 -1.6622 141.549 2.86395C166.135 7.39011 189.447 17.1818 209.88 31.565C230.313 45.9482 247.382 64.5813 259.911 86.1817C267.751 99.6986 273.699 114.224 277.59 129.353C284.803 157.633 284.803 187.268 277.59 215.549C273.699 230.677 267.751 245.203 259.911 258.72C253.142 270.395 245.033 281.244 235.748 291.046Z" fill="#008087"/>
</svg>
