<svg width="45" height="50" viewBox="0 0 45 50" fill="none" xmlns="http://www.w3.org/2000/svg">
<path d="M43.9993 20.8597H42.1537C41.8238 9.29699 33.1058 0 22.4296 0C11.754 0 3.03739 9.29699 2.70797 20.8597H0.74641C0.333894 20.8597 0 21.224 0 21.6742V30.4314C0 30.881 0.333894 31.2459 0.74641 31.2459H6.09767C6.51018 31.2459 6.84408 30.881 6.84408 30.4314V21.6742C6.84408 21.224 6.51018 20.8597 6.09767 20.8597H4.20079C4.52971 10.195 12.5775 1.62886 22.4296 1.62886C32.2832 1.62886 40.3315 10.1956 40.6604 20.8597H38.6481C38.2361 20.8597 37.9017 21.224 37.9017 21.6742V30.4314C37.9017 30.881 38.2361 31.2459 38.6481 31.2459H40.7311C40.3842 38.5529 34.9613 44.4174 28.2456 44.7171V42.4834C28.2456 42.0338 27.9112 41.669 27.4992 41.669H19.4743C19.0618 41.669 18.7279 42.0338 18.7279 42.4834V48.3223C18.7279 48.7719 19.0618 49.1367 19.4743 49.1367H27.4992C27.9112 49.1367 28.2456 48.7719 28.2456 48.3223V46.346C35.7844 46.0435 41.8751 39.451 42.2244 31.2459H43.9993C44.4114 31.2459 44.7458 30.881 44.7458 30.4314V21.6742C44.7458 21.2246 44.4114 20.8597 43.9993 20.8597ZM5.35126 29.617H1.49282V22.4886H5.35126V29.617ZM26.7528 47.5079H20.2207V43.2978H26.7528V47.5079ZM43.2529 29.617H39.3945V22.4886H43.2529V29.617Z" fill="#D7D2BE"/>
</svg>
