<svg width="45" height="42" viewBox="0 0 45 42" fill="none" xmlns="http://www.w3.org/2000/svg">
<path d="M38.3627 0.983398H6.99881C5.40423 0.986282 3.87577 1.63253 2.74823 2.78059C1.62069 3.92865 0.985987 5.48493 0.983154 7.10853V25.4076C0.984573 27.0302 1.61825 28.5859 2.7451 29.7332C3.87194 30.8806 5.39985 31.5258 6.99345 31.5273H10.0897V40.8431C10.0896 41.0023 10.1352 41.1581 10.2209 41.2913C10.3065 41.4245 10.4284 41.5294 10.5717 41.593C10.715 41.6567 10.8735 41.6765 11.0276 41.6498C11.1818 41.6232 11.3249 41.5513 11.4396 41.4431L21.9067 31.5273H38.3573C39.9519 31.5244 41.4804 30.8781 42.6079 29.7301C43.7355 28.582 44.3702 27.0257 44.373 25.4021V7.10308C44.3716 5.48048 43.7379 3.92476 42.611 2.77741C41.4842 1.63006 39.9563 0.984843 38.3627 0.983398ZM42.766 25.4021C42.7645 26.5922 42.2996 27.7331 41.4731 28.5746C40.6467 29.4161 39.5261 29.8895 38.3573 29.891H21.5906C21.3917 29.8937 21.2008 29.9714 21.055 30.1091L11.6967 38.9669V30.7091C11.6967 30.4921 11.612 30.284 11.4613 30.1306C11.3107 29.9772 11.1063 29.891 10.8932 29.891H6.99345C5.82607 29.8895 4.7069 29.4167 3.88144 28.5762C3.05597 27.7357 2.5916 26.5962 2.59018 25.4076V7.10853C2.5916 5.91846 3.05654 4.77754 3.88301 3.93603C4.70948 3.09452 5.83 2.62112 6.99881 2.61968H38.3627C39.5301 2.62112 40.6492 3.09394 41.4747 3.93443C42.3002 4.77492 42.7645 5.91445 42.766 7.10308V25.4021Z" fill="#D7D2BE"/>
<path d="M11.8305 17.2549C11.2942 17.2549 10.7699 17.4139 10.3239 17.7119C9.87792 18.0099 9.53034 18.4334 9.32508 18.929C9.11983 19.4245 9.06612 19.9698 9.17076 20.4958C9.2754 21.0219 9.53368 21.5051 9.91294 21.8843C10.2922 22.2636 10.7754 22.5219 11.3015 22.6265C11.8275 22.7311 12.3728 22.6774 12.8683 22.4722C13.3638 22.2669 13.7874 21.9193 14.0854 21.4734C14.3833 21.0274 14.5424 20.5031 14.5424 19.9667C14.5408 19.248 14.2546 18.5591 13.7464 18.0509C13.2381 17.5426 12.5493 17.2564 11.8305 17.2549ZM11.8305 20.9197C11.6435 20.9197 11.4606 20.8643 11.305 20.7605C11.1493 20.6567 11.0279 20.5091 10.9561 20.3364C10.8842 20.1637 10.8651 19.9736 10.9012 19.79C10.9373 19.6065 11.0269 19.4377 11.1588 19.305C11.2906 19.1723 11.4588 19.0817 11.6422 19.0445C11.8255 19.0073 12.0157 19.0252 12.1889 19.096C12.3621 19.1667 12.5104 19.2872 12.6151 19.4422C12.7199 19.5972 12.7764 19.7797 12.7776 19.9667C12.7776 20.2179 12.6778 20.4588 12.5002 20.6364C12.3226 20.8141 12.0817 20.9138 11.8305 20.9138V20.9197Z" fill="#D7D2BE"/>
<path d="M18.6103 17.2549C18.0739 17.2549 17.5496 17.4139 17.1037 17.7119C16.6577 18.0099 16.3101 18.4334 16.1049 18.929C15.8996 19.4245 15.8459 19.9698 15.9505 20.4958C16.0552 21.0219 16.3135 21.5051 16.6927 21.8843C17.072 22.2636 17.5552 22.5219 18.0812 22.6265C18.6073 22.7311 19.1526 22.6774 19.6481 22.4722C20.1436 22.2669 20.5671 21.9193 20.8651 21.4734C21.1631 21.0274 21.3222 20.5031 21.3222 19.9667C21.3206 19.248 21.0344 18.5591 20.5262 18.0509C20.0179 17.5426 19.3291 17.2564 18.6103 17.2549ZM18.6103 20.9197C18.4232 20.9197 18.2404 20.8643 18.0847 20.7605C17.9291 20.6567 17.8077 20.5091 17.7359 20.3364C17.664 20.1637 17.6449 19.9736 17.681 19.79C17.7171 19.6065 17.8067 19.4377 17.9386 19.305C18.0704 19.1723 18.2386 19.0817 18.422 19.0445C18.6053 19.0073 18.7955 19.0252 18.9687 19.096C19.1418 19.1667 19.2902 19.2872 19.3949 19.4422C19.4997 19.5972 19.5562 19.7797 19.5574 19.9667C19.5574 20.2179 19.4576 20.4588 19.28 20.6364C19.1024 20.8141 18.8615 20.9138 18.6103 20.9138V20.9197Z" fill="#D7D2BE"/>
<path d="M25.9597 17.3154C25.3461 17.1836 24.7058 17.2686 24.148 17.556C23.5901 17.8433 23.1491 18.3153 22.9003 18.8914C22.6514 19.4675 22.6101 20.1121 22.7833 20.7153C22.9566 21.3185 23.3336 21.8429 23.8502 22.1992C24.3668 22.5555 24.991 22.7216 25.6164 22.6691C26.2417 22.6167 26.8296 22.349 27.2797 21.9117C27.7297 21.4744 28.0142 20.8945 28.0846 20.2709C28.155 19.6473 28.0069 19.0186 27.6656 18.4919C27.2747 17.8899 26.6614 17.4669 25.9597 17.3154ZM26.3126 20.1685C26.2723 20.3513 26.1787 20.518 26.0437 20.6477C25.9086 20.7773 25.7382 20.864 25.5539 20.8969C25.3696 20.9297 25.1797 20.9072 25.0082 20.8322C24.8367 20.7572 24.6913 20.633 24.5903 20.4754C24.4893 20.3177 24.4373 20.1337 24.4408 19.9465C24.4444 19.7594 24.5033 19.5775 24.6102 19.4238C24.7171 19.2701 24.8671 19.1515 25.0413 19.083C25.2155 19.0145 25.4061 18.9992 25.5891 19.039C25.8328 19.0951 26.0444 19.2454 26.1778 19.457C26.3112 19.6686 26.3554 19.9244 26.3009 20.1685H26.3126Z" fill="#D7D2BE"/>
<path d="M34.3971 7.85044C33.8027 7.72905 33.1868 7.73367 32.5945 7.86396C32.0023 7.99426 31.4489 8.24692 30.975 8.60335C30.5012 8.95978 30.1189 9.41091 29.8563 9.92355C29.5937 10.4362 29.4575 10.9973 29.4578 11.5656C29.4578 11.7675 29.5436 11.9611 29.6965 12.1039C29.8493 12.2467 30.0567 12.3269 30.2728 12.3269C30.489 12.3269 30.6963 12.2467 30.8492 12.1039C31.002 11.9611 31.0879 11.7675 31.0879 11.5656C31.0879 11.1163 31.2304 10.6771 31.4974 10.3034C31.7644 9.92973 32.144 9.63829 32.5882 9.46591C33.0324 9.29352 33.5213 9.2479 33.9932 9.33481C34.4651 9.42173 34.8989 9.63728 35.2398 9.95425C35.5806 10.2712 35.8133 10.6754 35.9085 11.1158C36.0036 11.5562 35.957 12.0131 35.7744 12.4287C35.5918 12.8444 35.2815 13.2002 34.8826 13.4512C34.4837 13.7023 34.0141 13.8373 33.5331 13.8393C33.3169 13.8393 33.1096 13.9195 32.9568 14.0623C32.8039 14.2051 32.718 14.3987 32.718 14.6006V17.8489C32.718 18.0508 32.8039 18.2444 32.9568 18.3872C33.1096 18.5299 33.3169 18.6102 33.5331 18.6102C33.7493 18.6102 33.9566 18.5299 34.1095 18.3872C34.2623 18.2444 34.3482 18.0508 34.3482 17.8489V15.3112C35.2608 15.1348 36.0809 14.6712 36.6715 13.9979C37.2622 13.3246 37.5876 12.4824 37.5933 11.612C37.599 10.7416 37.2847 9.89566 36.703 9.21564C36.1213 8.53562 35.3073 8.06267 34.3971 7.87582V7.85044Z" fill="#D7D2BE"/>
<path d="M34.2036 19.9668C34.0238 19.9668 33.8513 20.0525 33.7242 20.2051C33.5971 20.3577 33.5256 20.5646 33.5256 20.7804V21.8651C33.5256 22.0809 33.5971 22.2878 33.7242 22.4404C33.8513 22.5929 34.0238 22.6787 34.2036 22.6787C34.3834 22.6787 34.5559 22.5929 34.683 22.4404C34.8101 22.2878 34.8816 22.0809 34.8816 21.8651V20.7804C34.8816 20.5646 34.8101 20.3577 34.683 20.2051C34.5559 20.0525 34.3834 19.9668 34.2036 19.9668Z" fill="#D7D2BE"/>
</svg>
