<svg width="53" height="42" viewBox="0 0 53 42" fill="none" xmlns="http://www.w3.org/2000/svg">
<path d="M47.1559 8.36621H35.0415V5.78621C35.0415 3.13793 33.2389 0.983398 31.0243 0.983398H22.3336C20.1183 0.983398 18.3163 3.13793 18.3163 5.78621V8.36621H6.20005C3.28614 8.36621 0.915283 10.6954 0.915283 13.5594V36.4681C0.915283 39.3316 3.28553 41.6614 6.20005 41.6614H47.1559C50.0698 41.6614 52.4407 39.3322 52.4407 36.4681V13.5594C52.4407 10.6954 50.0698 8.36621 47.1559 8.36621ZM20.1614 5.78621C20.1614 4.16533 21.1558 2.79647 22.3336 2.79647H31.0243C32.202 2.79647 33.1965 4.16533 33.1965 5.78621V8.36621H20.1614V5.78621ZM50.5957 36.4681C50.5957 38.332 49.0526 39.8483 47.1559 39.8483H6.20005C4.30337 39.8483 2.76031 38.332 2.76031 36.4681V13.5594C2.76031 11.6956 4.30337 10.1793 6.20005 10.1793H47.1559C49.0526 10.1793 50.5957 11.6956 50.5957 13.5594V36.4681Z" fill="#D7D2BE"/>
</svg>
