<svg width="41" height="52" viewBox="0 0 41 52" fill="none" xmlns="http://www.w3.org/2000/svg">
<path d="M40.673 8.6216C40.6711 8.58969 40.668 8.5584 40.6636 8.52711C40.6586 8.49644 40.6529 8.4664 40.6454 8.43699C40.6379 8.40757 40.6292 8.37816 40.6185 8.35C40.6079 8.32121 40.5966 8.29305 40.5828 8.26552C40.5697 8.23861 40.5559 8.21295 40.5403 8.18791C40.5246 8.16163 40.5077 8.1366 40.4896 8.11219C40.4715 8.08841 40.4527 8.06525 40.4327 8.04335C40.4126 8.02145 40.392 8.00017 40.3701 7.98014C40.3475 7.95949 40.3244 7.94009 40.2994 7.92194C40.2756 7.90442 40.2518 7.88752 40.2261 7.8725C40.1998 7.85623 40.1729 7.84184 40.1454 7.8287C40.1179 7.81555 40.0903 7.80366 40.0615 7.79302C40.0328 7.78239 40.004 7.77362 39.9739 7.76611C39.9433 7.75798 39.912 7.75172 39.8801 7.74671C39.8638 7.74421 39.8488 7.73858 39.8325 7.73733C32.3753 6.99136 26.5433 5.47501 20.5192 0.230677C20.1281 -0.109766 19.5342 -0.0684626 19.195 0.322046C19.1731 0.347079 19.1568 0.37524 19.138 0.40215C13.0802 5.62896 8.02107 7.02014 0.845476 7.7367C0.365476 7.78489 0 8.18854 0 8.67104V30.6565C0 30.7398 0.0112644 30.8224 0.0331679 30.9025C3.84 44.942 19.1931 51.612 19.8446 51.8892C19.9622 51.9393 20.0874 51.9643 20.2119 51.9643C20.3352 51.9643 20.4598 51.9399 20.5755 51.8911C21.2352 51.6145 36.7641 44.9452 40.571 30.9031C40.5841 30.8537 40.5941 30.8036 40.5991 30.7523L40.673 30.0257C40.6761 29.9944 40.678 29.9625 40.678 29.9306V8.67167C40.678 8.65352 40.6742 8.63787 40.673 8.6216ZM38.7392 30.4832C35.4537 42.4356 22.5606 48.9041 20.2138 49.9936C17.8877 48.9009 5.18175 42.4469 1.87682 30.5289V9.51527C8.6788 8.76241 13.9544 7.20351 19.9335 2.18447C25.8587 7.099 31.8189 8.73926 38.7999 9.51214V29.8818L38.7392 30.4832Z" fill="#D7D2BE"/>
<path d="M29.1 20.2475H28.1988C27.7032 16.0902 24.1317 12.8535 19.8073 12.8535C15.4829 12.8535 11.9114 16.0902 11.4163 20.2475H10.3262C9.808 20.2475 9.38745 20.6674 9.38745 21.1862V34.9542C9.38745 35.473 9.808 35.8929 10.3262 35.8929H29.1006C29.6188 35.8929 30.0393 35.473 30.0393 34.9542V21.1862C30.0387 20.6674 29.6182 20.2475 29.1 20.2475ZM19.8066 14.731C23.0934 14.731 25.817 17.1291 26.3007 20.2475H13.3126C13.7969 17.1291 16.5199 14.731 19.8066 14.731ZM28.1613 22.125V34.0154H11.2643V22.125H28.1613Z" fill="#D7D2BE"/>
</svg>
