<svg width="30" height="30" viewBox="0 0 30 30" fill="none" xmlns="http://www.w3.org/2000/svg">
<g id="Viber">
<g id="Viber_2">
<rect id="Rectangle" width="30" height="30" rx="15" fill="#333434"/>
<g id="Group">
<path id="Vector" d="M22.346 7.61534C21.8498 7.15917 19.8411 5.69864 15.3634 5.67863C15.3634 5.67863 10.0855 5.35851 7.51257 7.71938C6.08005 9.1519 5.57587 11.2447 5.52385 13.8456C5.47183 16.4426 5.4038 21.3123 10.0975 22.6328H10.1015L10.0975 24.6456C10.0975 24.6456 10.0695 25.4619 10.6057 25.6259C11.2539 25.826 11.6381 25.2058 12.2583 24.5375C12.5984 24.1694 13.0666 23.6332 13.4227 23.221C16.6319 23.4891 19.1008 22.8729 19.3809 22.7809C20.0292 22.5688 23.6985 22.1006 24.2947 17.2309C24.9109 12.221 23.9946 9.04786 22.346 7.61534ZM22.8902 16.8787C22.386 20.9442 19.4129 21.2003 18.8647 21.3764C18.6326 21.4524 16.4638 21.9926 13.7348 21.8125C13.7348 21.8125 11.7021 24.2654 11.0699 24.9017C10.9698 25.0017 10.8538 25.0417 10.7778 25.0217C10.6697 24.9937 10.6377 24.8657 10.6417 24.6776C10.6417 24.4055 10.6577 21.3284 10.6577 21.3284C10.6537 21.3284 10.6537 21.3284 10.6577 21.3284C6.68427 20.228 6.91636 16.0824 6.96037 13.9136C7.00439 11.7449 7.41254 9.9642 8.62498 8.76776C10.7978 6.79904 15.2834 7.09115 15.2834 7.09115C19.0688 7.10715 20.8815 8.24757 21.3016 8.62771C22.6981 9.82815 23.4104 12.6892 22.8902 16.8787Z" fill="white"/>
<path id="Vector_2" d="M17.2082 13.9897C17.0761 13.9897 16.9641 13.8856 16.9561 13.7496C16.9121 12.8893 16.5079 12.4691 15.6836 12.4251C15.5436 12.4171 15.4355 12.2971 15.4435 12.157C15.4515 12.017 15.5716 11.9089 15.7116 11.9169C16.8 11.9769 17.4083 12.6012 17.4643 13.7216C17.4723 13.8616 17.3642 13.9817 17.2242 13.9857C17.2162 13.9897 17.2122 13.9897 17.2082 13.9897Z" fill="white"/>
<path id="Vector_3" d="M18.5046 14.4219H18.5006C18.3605 14.4179 18.2485 14.3019 18.2525 14.1618C18.2725 13.2975 18.0244 12.5973 17.4962 12.021C16.972 11.4448 16.2477 11.1327 15.2914 11.0647C15.1513 11.0527 15.0473 10.9326 15.0593 10.7926C15.0713 10.6525 15.1913 10.5485 15.3314 10.5605C16.4118 10.6405 17.2641 11.0167 17.8723 11.6809C18.4845 12.3492 18.7807 13.1855 18.7606 14.1738C18.7566 14.3139 18.6406 14.4219 18.5046 14.4219Z" fill="white"/>
<path id="Vector_4" d="M19.833 14.9418C19.6929 14.9418 19.5809 14.8298 19.5809 14.6897C19.5689 13.1412 19.1247 11.9607 18.2204 11.0764C17.3281 10.2041 16.1957 9.75994 14.8632 9.74793C14.7231 9.74793 14.6111 9.63189 14.6111 9.49184C14.6111 9.35179 14.7271 9.23975 14.8632 9.23975C16.3317 9.25175 17.5802 9.74393 18.5685 10.7123C19.5609 11.6806 20.0691 13.0171 20.0851 14.6817C20.0891 14.8258 19.977 14.9418 19.833 14.9418C19.837 14.9418 19.837 14.9418 19.833 14.9418Z" fill="white"/>
<path id="Vector_5" d="M15.7437 17.1229C15.7437 17.1229 16.0998 17.1549 16.2919 16.9189L16.664 16.4507C16.8441 16.2186 17.2802 16.0705 17.7044 16.3066C17.9405 16.4387 18.3686 16.7028 18.6327 16.8988C18.9168 17.1069 19.493 17.5871 19.497 17.5911C19.7731 17.8232 19.8372 18.1633 19.6491 18.5274C19.6491 18.5274 19.6491 18.5314 19.6491 18.5354C19.457 18.8756 19.1969 19.1957 18.8728 19.4918C18.8688 19.4918 18.8688 19.4958 18.8648 19.4958C18.5967 19.7199 18.3326 19.8479 18.0765 19.8759C18.0445 19.8839 18.0085 19.8839 17.9605 19.8839C17.8484 19.8839 17.7364 19.8679 17.6244 19.8319L17.6164 19.8199C17.2162 19.7079 16.552 19.4278 15.4476 18.8155C14.7273 18.4194 14.1311 18.0153 13.6229 17.6111C13.3548 17.399 13.0827 17.1629 12.8026 16.8828C12.7946 16.8748 12.7826 16.8628 12.7746 16.8548C12.7666 16.8468 12.7546 16.8348 12.7466 16.8268C12.7386 16.8188 12.7266 16.8068 12.7186 16.7988C12.7106 16.7908 12.6986 16.7788 12.6906 16.7708C12.4144 16.4907 12.1744 16.2186 11.9623 15.9505C11.5581 15.4463 11.154 14.8461 10.7578 14.1258C10.1456 13.0174 9.86552 12.3532 9.75348 11.957L9.74147 11.949C9.70546 11.837 9.68945 11.725 9.68945 11.6129C9.68945 11.5649 9.68945 11.5289 9.69746 11.4969C9.72947 11.2368 9.85751 10.9767 10.0776 10.7086C10.0776 10.7046 10.0816 10.7046 10.0816 10.7006C10.3777 10.3725 10.6978 10.1164 11.0379 9.9243C11.0379 9.9243 11.0419 9.9243 11.0459 9.9243C11.4061 9.73623 11.7462 9.80025 11.9823 10.0764C11.9823 10.0764 12.4665 10.6566 12.6745 10.9407C12.8706 11.2088 13.1347 11.6329 13.2668 11.869C13.5028 12.2932 13.3548 12.7293 13.1227 12.9094L12.6545 13.2815C12.4185 13.4736 12.4505 13.8297 12.4505 13.8297C12.4505 13.8297 13.1427 16.4627 15.7437 17.1229Z" fill="white"/>
</g>
</g>
</g>
</svg>
