<svg width="50" height="50" viewBox="0 0 50 50" fill="none" xmlns="http://www.w3.org/2000/svg">
<path d="M44.9773 38.8348C47.5966 34.9655 49.0848 30.3222 49.0848 25.3218C49.0848 11.8683 38.1315 0.915039 24.678 0.915039C11.2245 0.915039 0.27124 11.8683 0.27124 25.3218C0.27124 38.7753 11.2245 49.7286 24.678 49.7286C32.893 49.7286 40.1555 45.6211 44.6201 39.3706C44.6797 39.3111 44.6797 39.3111 44.7392 39.2515C44.7987 39.192 44.9178 39.0134 44.9773 38.8348ZM47.2989 25.3218C47.2989 27.822 46.8822 30.2032 46.1679 32.4057C46.2274 30.1436 45.8703 27.8816 44.8583 26.6315C43.7867 25.3218 42.4176 25.3813 41.3461 25.5004C39.8578 25.6195 38.4292 25.7385 36.7624 22.2263C35.4527 19.4285 36.7028 18.357 38.8459 16.9283C40.3936 15.9163 42.4176 14.4876 40.9889 11.9279C39.6793 9.60623 37.7148 9.66576 36.1075 9.66576C35.0955 9.66576 34.1431 9.66576 33.3097 9.13C32.0001 8.2966 30.9881 6.51074 29.9761 4.84394C29.6189 4.24865 29.2617 3.65336 28.9641 3.1176C39.4411 5.20111 47.2989 14.3685 47.2989 25.3218ZM18.368 3.59383L18.4275 3.65336C19.7967 4.78441 23.1898 8.2966 22.8326 11.273C22.7136 12.285 20.6896 13.1184 18.9633 13.9518C16.5226 15.0233 13.7247 16.2735 13.189 18.7141C12.8318 20.3214 13.5461 22.1073 15.4511 24.2503C19.7371 29.1317 23.3089 30.2032 25.9281 31.0366C27.8926 31.6319 29.2022 32.0486 30.0951 33.7749C31.2262 35.8584 30.3928 36.6918 28.1307 38.6563C26.0472 40.5016 23.1898 43.0019 22.8326 47.9427C21.3444 47.8237 19.9157 47.5856 18.487 47.1689C18.7251 40.0254 15.6892 37.7038 13.4271 35.9775C12.7127 35.4417 12.0579 34.9059 11.7008 34.3702C11.4031 33.894 12.0579 32.7629 12.6532 31.7509C13.5461 30.2032 14.5581 28.4173 13.9033 26.691C13.4271 25.4409 12.2365 24.5479 10.2125 23.8336C3.42626 21.5715 4.31919 15.4996 4.37872 15.2615C4.37872 15.2615 4.37872 15.2615 4.37872 15.2019C7.29563 9.60623 12.296 5.37969 18.368 3.59383ZM2.0571 25.3218C2.0571 23.0597 2.41427 20.8572 3.00956 18.8332C3.66438 21.2143 5.39071 24.0717 9.73631 25.5004C11.2245 25.9766 12.1175 26.5719 12.3556 27.2863C12.7127 28.2387 11.9389 29.5484 11.2245 30.858C10.3316 32.3462 9.43866 33.9535 10.2721 35.3226C10.7483 36.1561 11.5817 36.7513 12.4151 37.4062C14.3795 38.8944 16.8202 40.7398 16.7607 46.5736C8.18856 43.2995 2.0571 35.025 2.0571 25.3218ZM24.678 47.9427C24.9757 43.7757 27.2973 41.7517 29.3213 39.9064C31.3452 38.1205 33.4883 36.2156 31.6429 32.8224C30.3333 30.4413 28.5474 29.9055 26.4044 29.2507C23.9041 28.4768 20.7491 27.4649 16.7607 23.0002C15.332 21.3929 14.6772 20.0238 14.9153 19.0118C15.2725 17.464 17.5941 16.452 19.6776 15.4996C22.0588 14.4281 24.3804 13.4161 24.6185 11.4516C25.0352 7.99896 21.9992 4.54629 20.4515 3.05807C21.8206 2.81996 23.2493 2.64137 24.678 2.64137C25.3328 2.64137 25.9877 2.7009 26.5829 2.7009C26.6425 2.76043 26.6425 2.81996 26.702 2.81996C27.2973 3.47477 27.9521 4.54629 28.6069 5.61781C29.6189 7.40367 30.8095 9.42765 32.4763 10.4992C33.7264 11.3326 35.036 11.3326 36.2266 11.273C37.8934 11.273 38.7863 11.3326 39.5007 12.6422C40.096 13.6542 39.6793 14.0709 37.8934 15.321C35.9885 16.5711 33.1906 18.5355 35.1551 22.8811C37.2981 27.5244 39.6793 27.3458 41.4651 27.1672C42.4771 27.1077 42.9533 27.0482 43.4296 27.6434C44.9773 29.6674 44.3225 36.037 43.5486 37.8229C39.5007 43.8948 32.5358 47.9427 24.678 47.9427Z" fill="#D7D2BE"/>
</svg>
