<svg width="42" height="53" viewBox="0 0 42 53" fill="none" xmlns="http://www.w3.org/2000/svg">
<path d="M41.0118 9.18117C41.01 9.14926 41.0068 9.11797 41.0024 9.08668C40.9974 9.05601 40.9918 9.02597 40.9843 8.99656C40.9768 8.96714 40.968 8.93773 40.9574 8.90957C40.9467 8.88078 40.9355 8.85262 40.9217 8.82509C40.9086 8.79818 40.8948 8.77252 40.8792 8.74748C40.8635 8.7212 40.8466 8.69617 40.8285 8.67176C40.8103 8.64798 40.7915 8.62482 40.7715 8.60292C40.7515 8.58102 40.7308 8.55974 40.7089 8.53971C40.6864 8.51906 40.6632 8.49966 40.6382 8.48151C40.6144 8.46399 40.5907 8.44709 40.565 8.43207C40.5387 8.4158 40.5118 8.40141 40.4843 8.38827C40.4567 8.37512 40.4292 8.36323 40.4004 8.35259C40.3716 8.34196 40.3428 8.33319 40.3128 8.32569C40.2821 8.31755 40.2508 8.31129 40.2189 8.30628C40.2027 8.30378 40.1876 8.29815 40.1714 8.2969C32.7141 7.55093 26.8822 6.03458 20.8581 0.790247C20.467 0.449804 19.8731 0.491108 19.5339 0.881616C19.512 0.906649 19.4957 0.934811 19.4769 0.961721C13.419 6.18853 8.35994 7.57971 1.18434 8.29627C0.704343 8.34446 0.338867 8.74811 0.338867 9.23061V31.2161C0.338867 31.2994 0.350132 31.382 0.372035 31.4621C4.17887 45.5016 19.532 52.1715 20.1835 52.4488C20.3011 52.4988 20.4263 52.5239 20.5508 52.5239C20.6741 52.5239 20.7986 52.4995 20.9144 52.4506C21.574 52.174 37.103 45.5047 40.9098 31.4627C40.923 31.4132 40.933 31.3632 40.938 31.3119L41.0118 30.5853C41.015 30.554 41.0168 30.5221 41.0168 30.4902V9.23124C41.0168 9.21309 41.0131 9.19744 41.0118 9.18117ZM39.0781 31.0428C35.7925 42.9952 22.8995 49.4636 20.5527 50.5532C18.2265 49.4605 5.52062 43.0065 2.21569 31.0885V10.0748C9.01767 9.32198 14.2933 7.76308 20.2723 2.74404C26.1975 7.65857 32.1578 9.29883 39.1388 10.0717V30.4414L39.0781 31.0428Z" fill="#D7D2BE"/>
<path d="M29.4391 20.8071H28.5379C28.0423 16.6498 24.4708 13.4131 20.1464 13.4131C15.822 13.4131 12.2505 16.6498 11.7555 20.8071H10.6653C10.1471 20.8071 9.72656 21.227 9.72656 21.7458V35.5137C9.72656 36.0325 10.1471 36.4525 10.6653 36.4525H29.4397C29.9579 36.4525 30.3785 36.0325 30.3785 35.5137V21.7458C30.3778 21.227 29.9573 20.8071 29.4391 20.8071ZM20.1458 15.2905C23.4325 15.2905 26.1561 17.6887 26.6398 20.8071H13.6517C14.1361 17.6887 16.859 15.2905 20.1458 15.2905ZM28.5004 22.6845V34.575H11.6034V22.6845H28.5004Z" fill="#D7D2BE"/>
</svg>
