<svg width="85" height="85" viewBox="0 0 85 85" fill="none" xmlns="http://www.w3.org/2000/svg">
<path d="M65.8609 27.5248C65.8113 27.4381 60.5665 19.1776 49.761 23.0663C48.9374 19.7473 46.0456 15.0164 39.2341 15.0164H38.9802C38.8108 15.0223 38.6462 15.0744 38.5043 15.1672C38.3624 15.26 38.2486 15.3899 38.1752 15.5427C38.1752 15.5984 36.1875 20.094 39.618 23.8094C38.2315 23.7842 36.8541 24.0391 35.5683 24.5587C33.0294 25.6175 31.116 27.7291 29.8652 30.85C29.8157 30.9667 29.7905 31.0922 29.7914 31.219C29.7922 31.3457 29.819 31.471 29.87 31.587C29.9211 31.703 29.9953 31.8073 30.0882 31.8936C30.1811 31.9798 30.2906 32.0461 30.4101 32.0885C30.6578 32.1813 35.494 33.9028 40.2063 33.0359C37.1101 37.4448 35.6921 42.3243 35.593 48.7457H35.5063C30.2128 48.7452 25.0028 50.0647 20.3477 52.5849C20.2157 52.6244 20.0943 52.6928 19.992 52.7851C19.8898 52.8774 19.8093 52.9913 19.7565 53.1185C19.7037 53.2457 19.6799 53.383 19.6867 53.5206C19.6935 53.6582 19.7308 53.7925 19.796 53.9138C19.8611 54.0352 19.9524 54.1405 20.0633 54.2223C20.1741 54.304 20.3018 54.36 20.437 54.3863C20.5722 54.4127 20.7115 54.4086 20.8449 54.3744C20.9784 54.3402 21.1025 54.2768 21.2084 54.1887C27.3625 50.8586 34.4882 49.7879 41.3492 51.1621C48.2103 52.5364 54.3739 56.2689 58.7707 61.7123C58.9259 61.9036 59.1508 62.0255 59.3958 62.051C59.6408 62.0766 59.886 62.0037 60.0773 61.8485C60.2686 61.6933 60.3905 61.4685 60.416 61.2234C60.4416 60.9784 60.3687 60.7333 60.2135 60.542C56.0335 55.3526 50.3241 51.6128 43.8969 49.8541C43.8969 48.0831 44.1446 41.0549 46.2809 35.4632C47.3398 38.0888 49.6123 41.2221 54.4485 42.894C54.6549 42.9651 54.8797 42.9612 55.0835 42.8831C55.2874 42.805 55.4572 42.6575 55.5631 42.4667C55.6065 42.3924 58.9008 36.2744 54.9934 30.9119C58.0896 31.5311 62.4242 31.5807 65.6813 28.7137C65.8473 28.569 65.9565 28.37 65.9894 28.1522C66.0223 27.9344 65.9768 27.712 65.8609 27.5248ZM51.9778 27.9954C51.7771 27.8656 51.5341 27.8183 51.2993 27.8631C51.0646 27.908 50.8561 28.0416 50.7174 28.2362C50.5786 28.4308 50.5202 28.6713 50.5543 28.9079C50.5884 29.1445 50.7123 29.3588 50.9003 29.5063C56.5972 33.4569 55.0801 38.8752 54.2813 40.8196C49.5195 38.8876 47.8971 35.3208 47.3831 32.6086C47.348 32.419 47.2548 32.2451 47.1165 32.1109C46.9781 31.9767 46.8013 31.8888 46.6108 31.8596C46.4202 31.8303 46.2253 31.8611 46.053 31.9476C45.8807 32.0341 45.7396 32.172 45.6493 32.3423C42.5532 38.2002 42.1073 46.6403 42.0516 49.3897C40.5289 49.0709 38.985 48.8639 37.4321 48.7704C37.556 41.6184 39.3703 36.5159 43.4944 31.8036C43.6364 31.6417 43.7178 31.4354 43.7245 31.22C43.7312 31.0047 43.6628 30.7938 43.5311 30.6233C43.3994 30.4528 43.2126 30.3334 43.0025 30.2855C42.7925 30.2376 42.5723 30.2643 42.3798 30.3608C38.7697 32.169 33.9892 31.1658 31.9768 30.6085C32.8113 28.684 34.3321 27.1388 36.2432 26.2739C39.618 24.8621 43.2467 26.3482 43.2777 26.3606C43.4998 26.4441 43.7455 26.4395 43.9643 26.3476C44.1831 26.2557 44.3584 26.0835 44.4543 25.8664C44.5502 25.6493 44.5593 25.4038 44.4798 25.1802C44.4004 24.9565 44.2383 24.7718 44.0269 24.6639C38.7078 22.2242 39.2341 18.3045 39.649 16.8493C47.1788 17.1093 48.0829 24.1376 48.1448 24.4472C48.1614 24.5902 48.2111 24.7274 48.2899 24.848C48.3686 24.9685 48.4743 25.0691 48.5987 25.1418C48.723 25.2144 48.8625 25.2572 49.0062 25.2667C49.1499 25.2762 49.2938 25.2521 49.4266 25.1965C57.7428 21.6916 62.3251 26.0696 63.7927 27.8344C59.3404 30.9305 52.7518 28.4846 51.9778 27.9954Z" fill="#D7D2BE"/>
<path d="M63.9598 63.6691L62.4055 65.2853C62.031 65.682 61.5794 65.9981 61.0784 66.2141C60.5774 66.4302 60.0376 66.5416 59.492 66.5416C58.9465 66.5416 58.4066 66.4302 57.9056 66.2141C57.4046 65.9981 56.9531 65.682 56.5786 65.2853C56.0014 64.6782 55.307 64.1944 54.5375 63.8634C53.768 63.5324 52.9393 63.361 52.1016 63.3595C51.2638 63.361 50.4352 63.5324 49.6656 63.8634C48.8961 64.1944 48.2017 64.6782 47.6245 65.2853C47.25 65.682 46.7985 65.9981 46.2975 66.2141C45.7965 66.4302 45.2567 66.5416 44.7111 66.5416C44.1655 66.5416 43.6257 66.4302 43.1247 66.2141C42.6237 65.9981 42.1721 65.682 41.7976 65.2853C41.2497 64.7078 40.59 64.2479 39.8586 63.9337C39.1272 63.6194 38.3395 63.4573 37.5435 63.4573C36.7475 63.4573 35.9598 63.6194 35.2284 63.9337C34.497 64.2479 33.8373 64.7078 33.2894 65.2853C32.9146 65.6859 32.4616 66.0054 31.9583 66.2237C31.455 66.4421 30.9122 66.5548 30.3636 66.5548C29.8149 66.5548 29.2722 66.4421 28.7689 66.2237C28.2656 66.0054 27.8125 65.6859 27.4377 65.2853C27.4377 65.2853 26.4841 64.3565 25.8401 63.6939C25.6675 63.525 25.4358 63.4299 25.1942 63.429C24.9527 63.428 24.7203 63.5212 24.5463 63.6888C24.3723 63.8563 24.2704 64.085 24.2622 64.3265C24.2541 64.5679 24.3403 64.803 24.5026 64.9819C25.1528 65.6568 26.1188 66.598 26.1188 66.598C26.6667 67.1755 27.3264 67.6354 28.0578 67.9497C28.7891 68.2639 29.5768 68.426 30.3729 68.426C31.1689 68.426 31.9566 68.2639 32.688 67.9497C33.4193 67.6354 34.0791 67.1755 34.627 66.598C35.0015 66.2013 35.453 65.8852 35.954 65.6692C36.455 65.4532 36.9948 65.3417 37.5404 65.3417C38.086 65.3417 38.6258 65.4532 39.1268 65.6692C39.6278 65.8852 40.0794 66.2013 40.4539 66.598C41.0018 67.1755 41.6615 67.6354 42.3929 67.9497C43.1242 68.2639 43.9119 68.426 44.708 68.426C45.504 68.426 46.2917 68.2639 47.0231 67.9497C47.7544 67.6354 48.4142 67.1755 48.9621 66.598C49.3669 66.1728 49.854 65.8342 50.3936 65.6028C50.9333 65.3715 51.5144 65.2522 52.1016 65.2522C52.6887 65.2522 53.2698 65.3715 53.8095 65.6028C54.3491 65.8342 54.8362 66.1728 55.241 66.598C55.7889 67.1755 56.4487 67.6354 57.18 67.9497C57.9114 68.2639 58.6991 68.426 59.4951 68.426C60.2912 68.426 61.0789 68.2639 61.8102 67.9497C62.5416 67.6354 63.2013 67.1755 63.7492 66.598L65.3035 64.9819C65.4658 64.803 65.552 64.5679 65.5438 64.3265C65.5357 64.085 65.4338 63.8563 65.2598 63.6888C65.0858 63.5212 64.8534 63.428 64.6118 63.429C64.3703 63.4299 64.1386 63.525 63.966 63.6939L63.9598 63.6691Z" fill="#D7D2BE"/>
</svg>
