<svg width="46" height="46" viewBox="0 0 46 46" fill="none" xmlns="http://www.w3.org/2000/svg">
<path d="M37.129 19.0665C37.129 11.3068 30.8159 4.99414 23.0567 4.99414C15.2975 4.99414 8.98438 11.3073 8.98438 19.0665C8.98438 26.8256 15.2975 33.1388 23.0567 33.1388C30.8159 33.1388 37.129 26.8256 37.129 19.0665ZM10.4767 19.0665C10.4767 12.1303 16.1201 6.48696 23.0562 6.48696C29.9923 6.48696 35.6357 12.1303 35.6357 19.0665C35.6357 26.0026 29.9923 31.6459 23.0562 31.6459C16.1201 31.6459 10.4767 26.0026 10.4767 19.0665Z" fill="#D7D2BE"/>
<path d="M44.6263 19.389H42.7807C42.4508 8.792 33.7327 0.271484 23.0566 0.271484C12.3809 0.271484 3.66434 8.792 3.33493 19.389H1.37336C0.960847 19.389 0.626953 19.7229 0.626953 20.1354V28.1613C0.626953 28.5733 0.960847 28.9077 1.37336 28.9077H6.72462C7.13714 28.9077 7.47103 28.5733 7.47103 28.1613V20.1354C7.47103 19.7229 7.13714 19.389 6.72462 19.389H4.82775C5.15666 9.61504 13.2045 1.7643 23.0566 1.7643C32.9102 1.7643 40.9584 9.61554 41.2874 19.389H39.275C38.863 19.389 38.5286 19.7229 38.5286 20.1354V28.1613C38.5286 28.5733 38.863 28.9077 39.275 28.9077H41.358C41.0112 35.6045 35.5883 40.9792 28.8726 41.2539V39.2067C28.8726 38.7947 28.5382 38.4603 28.1262 38.4603H20.1013C19.6888 38.4603 19.3549 38.7947 19.3549 39.2067V44.558C19.3549 44.97 19.6888 45.3044 20.1013 45.3044H28.1262C28.5382 45.3044 28.8726 44.97 28.8726 44.558V42.7467C36.4113 42.4695 42.502 36.4276 42.8513 28.9077H44.6263C45.0383 28.9077 45.3727 28.5733 45.3727 28.1613V20.1354C45.3727 19.7234 45.0383 19.389 44.6263 19.389ZM5.97821 27.4149H2.11977V20.8818H5.97821V27.4149ZM27.3798 43.8116H20.8477V39.9531H27.3798V43.8116ZM43.8799 27.4149H40.0215V20.8818H43.8799V27.4149Z" fill="#D7D2BE"/>
</svg>
