<svg width="85" height="85" viewBox="0 0 85 85" fill="none" xmlns="http://www.w3.org/2000/svg">
<path d="M59.9329 24.2333H54.7601V17.2348C54.7598 17.0938 54.7269 16.9547 54.6638 16.8286C54.6008 16.7024 54.5094 16.5926 54.3968 16.5077C54.2841 16.4228 54.1534 16.3651 54.0148 16.3392C53.8761 16.3134 53.7334 16.3199 53.5977 16.3585L25.6038 24.2698H25.5551L25.4638 24.3063L25.3908 24.3489L25.3117 24.3976L25.2447 24.4524L25.1839 24.5132L25.1291 24.5802L25.0804 24.6532L25.0378 24.7262L25.0013 24.8419V24.9271C25.0013 24.9271 25.0013 24.9818 25.0013 25.0123C24.9996 25.0447 24.9996 25.0772 25.0013 25.1096C25.0013 25.1096 25.0013 25.1462 25.0013 25.1644V67.1553C25.0054 67.384 25.0952 67.6029 25.253 67.7686C25.4108 67.9343 25.625 68.0347 25.8533 68.0499H59.9329C60.175 68.0499 60.4071 67.9537 60.5783 67.7825C60.7495 67.6113 60.8457 67.3791 60.8457 67.137V25.1462C60.8457 24.904 60.7495 24.6719 60.5783 24.5007C60.4071 24.3295 60.175 24.2333 59.9329 24.2333ZM52.9344 24.2333H32.438L52.9344 18.4398V24.2333ZM59.02 66.2242H26.7661V26.059H59.02V66.2242Z" fill="#D7D2BE"/>
<path d="M42.8931 32.7533C41.0877 32.7533 39.3228 33.2887 37.8216 34.2917C36.3204 35.2948 35.1504 36.7204 34.4595 38.3884C33.7686 40.0565 33.5878 41.8919 33.9401 43.6626C34.2923 45.4334 35.1617 47.0599 36.4383 48.3365C37.715 49.6132 39.3415 50.4826 41.1122 50.8348C42.883 51.187 44.7184 51.0063 46.3864 50.3153C48.0544 49.6244 49.4801 48.4544 50.4831 46.9532C51.4862 45.4521 52.0216 43.6872 52.0216 41.8818C52.0216 39.4607 51.0598 37.1389 49.3479 35.427C47.636 33.715 45.3141 32.7533 42.8931 32.7533ZM42.8931 49.1845C41.4488 49.1845 40.0368 48.7562 38.8359 47.9538C37.635 47.1513 36.699 46.0108 36.1462 44.6764C35.5935 43.342 35.4489 41.8736 35.7307 40.4571C36.0124 39.0405 36.708 37.7392 37.7293 36.7179C38.7506 35.6966 40.0518 35.0011 41.4684 34.7193C42.885 34.4375 44.3533 34.5821 45.6878 35.1349C47.0222 35.6876 48.1627 36.6236 48.9651 37.8246C49.7676 39.0255 50.1959 40.4374 50.1959 41.8818C50.1959 43.8186 49.4265 45.6761 48.0569 47.0456C46.6874 48.4151 44.8299 49.1845 42.8931 49.1845Z" fill="#D7D2BE"/>
<path d="M48.6743 57.0958H37.1116C36.8695 57.0958 36.6373 57.192 36.4661 57.3632C36.2949 57.5344 36.1987 57.7666 36.1987 58.0087C36.1987 58.2508 36.2949 58.483 36.4661 58.6542C36.6373 58.8253 36.8695 58.9215 37.1116 58.9215H48.6743C48.9164 58.9215 49.1486 58.8253 49.3198 58.6542C49.491 58.483 49.5871 58.2508 49.5871 58.0087C49.5871 57.7666 49.491 57.5344 49.3198 57.3632C49.1486 57.192 48.9164 57.0958 48.6743 57.0958Z" fill="#D7D2BE"/>
</svg>
