<svg width="26" height="25" viewBox="0 0 26 25" fill="none" xmlns="http://www.w3.org/2000/svg">
<path fill-rule="evenodd" clip-rule="evenodd" d="M16.37 16.2605C16.37 17.0405 16.47 17.8205 16.76 18.6105C16.96 19.3905 17.25 19.9905 17.75 20.4705C18.44 21.2505 19.22 21.5505 20.11 21.5505C20.88 21.5505 21.57 21.2505 22.17 20.5705C23.05 19.6005 23.54 18.1305 23.54 16.2705C23.54 14.4105 23.05 12.9305 22.17 11.9505C21.48 11.2605 20.79 10.8705 19.91 10.8705C19.03 10.8705 18.34 11.2605 17.65 12.0405C17.26 12.5205 16.97 13.2105 16.66 13.9005C16.47 14.6805 16.37 15.4705 16.37 16.2605ZM13.91 16.3505C13.91 14.8805 14.4 13.6005 15.48 12.5205C16.65 11.1605 18.23 10.4705 19.99 10.4705C21.66 10.4705 23.13 11.1605 24.31 12.5205C25.3 13.6005 25.88 14.7805 25.88 16.1505C25.88 18.0105 25.09 19.4905 23.62 20.6705C22.54 21.5505 21.27 21.9405 19.79 21.9405C19.01 21.9405 18.22 21.8505 17.53 21.5505C16.75 21.2505 16.16 20.7705 15.57 20.2805C14.49 19.2105 13.9 17.9305 13.9 16.3605L13.91 16.3505ZM3.40997 7.82053C3.40997 8.61053 3.50998 9.39053 3.69998 10.1705C4.00998 10.8605 4.28998 11.5505 4.78998 11.9405C5.37998 12.7205 6.16998 13.1105 7.13998 13.1105C7.91998 13.1105 8.60998 12.7205 9.19998 12.1305C10.08 11.0505 10.58 9.58052 10.58 7.81052C10.58 5.85052 10.09 4.48052 9.19998 3.50052C8.50998 2.72052 7.72997 2.42053 6.83997 2.42053C6.05997 2.42053 5.27996 2.81052 4.67996 3.59052C4.28996 4.08052 3.99997 4.67053 3.68997 5.45053C3.49997 6.23053 3.39996 7.02052 3.39996 7.81052L3.40997 7.82053ZM4.28998 24.8805L3.69998 24.3905L19.51 2.91052L18.92 3.30051C17.75 3.89051 16.76 4.29051 15.98 4.58051C15.2 4.77051 14.41 4.87051 13.52 4.87051C13.04 4.87051 12.54 4.87053 12.05 4.67053C12.44 5.36053 12.74 5.84052 12.83 6.34052C13.03 6.72052 13.03 7.22051 13.03 7.71051C13.03 9.08051 12.63 10.2505 11.65 11.3305C11.06 12.0205 10.37 12.5005 9.58997 12.9005C8.80997 13.2905 7.91998 13.4905 7.03998 13.4905C6.15998 13.4905 5.36996 13.2905 4.57996 13.0005C3.79996 12.6105 3.10996 12.1205 2.51996 11.5305C1.43996 10.4505 0.959961 9.28051 0.959961 7.90051C0.959961 7.21051 1.04998 6.52051 1.34998 5.84052C1.63998 5.15052 2.03996 4.57053 2.51996 3.98053C3.10996 3.39053 3.68998 2.90053 4.47998 2.51053C5.26998 2.22053 6.14997 2.03052 6.93997 2.03052C7.52997 2.03052 8.11996 2.12053 8.60995 2.23053C9.09995 2.43053 9.68997 2.61053 10.28 3.01053C11.06 3.50053 11.66 3.80053 11.95 3.89053C12.33 3.98053 12.83 4.09052 13.32 4.09052C14.7 4.09052 16.27 3.69053 18.04 2.82053C19.12 2.23053 20.29 1.35051 21.57 0.270508H22.56V0.570526L4.29996 24.8805H4.28998Z" fill="#4B6244"/>
</svg>
