<svg width="26" height="23" viewBox="0 0 26 23" fill="none" xmlns="http://www.w3.org/2000/svg">
<path fill-rule="evenodd" clip-rule="evenodd" d="M18.4601 13.3004H17.1801L18.4601 11.5304V13.3004ZM13.9501 14.8604H11.9801L13.1601 13.3904C14.6401 11.6204 14.6401 10.3604 14.3401 9.76039C13.9501 8.98039 13.1601 8.4904 12.2801 8.4904C11.3101 8.4904 10.2301 9.0704 9.82014 9.9604C9.73014 10.0504 9.73015 10.1504 9.73015 10.2504C9.82015 10.3504 9.93015 10.3504 9.93015 10.4504L10.6201 10.7504C10.8101 10.8404 11.1101 10.7504 11.2101 10.5504C11.4101 10.1604 11.9001 9.9704 12.2901 9.9704C12.5901 9.9704 12.8801 10.1604 12.9801 10.2604C13.0801 10.6504 12.9801 11.4304 12.1001 12.4104L9.46014 15.7504C9.36014 15.8404 9.36014 16.0404 9.46014 16.1304C9.46014 16.2404 9.66014 16.3304 9.75014 16.3304H13.9701C14.2601 16.3304 14.3601 16.1304 14.3601 15.9404V15.1604C14.3601 14.9604 14.2601 14.8604 13.9701 14.8604H13.9501ZM20.2301 13.3004H19.9401V9.0804C19.9401 8.8904 19.7401 8.6904 19.5401 8.6904H18.7601C18.6701 8.6904 18.5601 8.7904 18.4601 8.8904L14.6401 14.1804V14.5704C14.7301 14.7704 14.8301 14.7704 15.0301 14.7704H18.4601V15.9404C18.4601 16.1304 18.5601 16.2404 18.7601 16.2404H19.5401C19.7401 16.2404 19.9401 16.1304 19.9401 15.9404V14.7704H20.2301C20.4301 14.7704 20.6201 14.6704 20.6201 14.4704V13.6904C20.6201 13.4904 20.4201 13.3004 20.2301 13.3004ZM0.990143 11.6304L1.38014 12.1204C1.48014 12.2204 1.68014 12.2204 1.78014 12.2204C1.87014 12.3104 1.97014 12.2204 2.07014 12.1204L3.45014 11.0404C3.35014 13.2004 3.75015 15.3504 4.83015 17.2104C6.79015 20.8404 10.6201 23.0004 14.6501 23.0004C16.5201 23.0004 18.4701 22.5204 20.1401 21.5304C22.7001 20.0604 24.5701 17.7104 25.3501 14.7704C26.2301 11.9204 25.8401 8.89039 24.3701 6.34039C22.4101 2.81039 18.6801 0.650391 14.6601 0.650391C14.2601 0.650391 13.8801 0.650397 13.3801 0.750397C13.0801 0.750397 12.8901 0.950402 12.9801 1.2404V1.8204C13.0801 2.1204 13.2801 2.3204 13.5701 2.3204C13.9601 2.3204 14.3501 2.2204 14.6501 2.2204C18.0801 2.2204 21.3201 4.08039 22.9901 7.12039C25.5401 11.7204 23.8701 17.6104 19.2601 20.1604C17.8801 20.9404 16.2101 21.3304 14.6501 21.3304C11.2101 21.3304 7.97015 19.4704 6.30015 16.4304C5.32015 14.7704 4.92014 13.0004 5.03014 11.1404L6.30015 12.5104C6.50015 12.7104 6.69014 12.8004 6.99014 12.6104L7.48015 12.1204C7.57015 12.0204 7.67014 11.9204 7.67014 11.8304C7.67014 11.7204 7.58015 11.6304 7.48015 11.5304L4.92014 8.3904C4.83014 8.2004 4.62014 8.20039 4.53014 8.20039C4.43014 8.20039 4.33014 8.20039 4.24014 8.29039L1.10014 10.9304C1.00014 11.0304 0.900146 11.1304 0.900146 11.2304C0.900146 11.4304 0.900145 11.5304 1.00014 11.6204L0.990143 11.6304Z" fill="#4B6244"/>
</svg>
