<svg width="26" height="17" viewBox="0 0 26 17" fill="none" xmlns="http://www.w3.org/2000/svg">
<path fill-rule="evenodd" clip-rule="evenodd" d="M3.03011 6.17044C3.03011 6.56044 3.33012 6.86041 3.72012 6.86041H13.1401C13.5401 6.86041 13.9301 6.56044 13.9301 6.17044C13.8301 5.78044 13.5401 5.39044 13.1401 5.39044H3.72012C3.33012 5.39044 3.03011 5.78044 3.03011 6.17044ZM3.03011 2.93042C3.03011 3.32042 3.33012 3.72043 3.72012 3.72043H13.1401C13.5401 3.72043 13.9301 3.32042 13.9301 2.93042C13.8301 2.54042 13.5401 2.24042 13.1401 2.24042H3.72012C3.33012 2.24042 3.03011 2.54042 3.03011 2.93042ZM18.2501 4.89044H22.5701L24.0401 9.10043H20.2201V8.22043H18.2601V4.89044H18.2501ZM18.8401 14.6004C18.8401 15.3804 19.4201 15.8704 20.2101 15.8704C20.9001 15.8704 21.4801 15.3804 21.4801 14.6004C21.4801 13.9104 20.8901 13.3204 20.2101 13.3204C19.4201 13.3204 18.8401 13.9104 18.8401 14.6004ZM19.5101 14.6004C19.5101 14.2104 19.8201 13.9104 20.2101 13.9104C20.6001 13.9104 20.8001 14.2104 20.8001 14.6004C20.8001 14.9904 20.6001 15.2904 20.2101 15.2904C19.8201 15.2904 19.5101 14.9904 19.5101 14.6004ZM5.09011 14.6004C5.09011 15.3804 5.68012 15.8704 6.37012 15.8704C7.16012 15.8704 7.74011 15.3804 7.74011 14.6004C7.74011 13.9104 7.16012 13.3204 6.37012 13.3204C5.68012 13.3204 5.09011 13.9104 5.09011 14.6004ZM4.01012 14.6004C4.01012 13.3204 5.09012 12.2504 6.36012 12.2504C7.73011 12.2504 8.82011 13.3204 8.82011 14.6004C8.82011 15.8804 7.73011 16.9504 6.36012 16.9504C5.08012 16.9504 4.01012 15.8704 4.01012 14.6004ZM5.68011 14.6004C5.68011 14.2104 5.98012 13.9104 6.37012 13.9104C6.76012 13.9104 7.06011 14.2104 7.06011 14.6004C7.06011 14.9904 6.76012 15.2904 6.37012 15.2904C5.98012 15.2904 5.68011 14.9904 5.68011 14.6004ZM17.7601 14.6004C17.7601 13.3204 18.8401 12.2504 20.2101 12.2504C21.4801 12.2504 22.5601 13.3204 22.5601 14.6004C22.5601 15.8804 21.4801 16.9504 20.2101 16.9504C18.8401 16.9504 17.7601 15.8704 17.7601 14.6004ZM1.66012 13.5204V1.16043C1.66012 0.680431 2.05011 0.19043 2.64011 0.19043H15.6001C16.0901 0.19043 16.4801 0.680431 16.4801 1.16043V6.76044H17.3601V4.10043H22.9601L24.9201 9.11041V10.4904C25.1201 10.4904 25.3201 10.6804 25.3201 10.9704V11.5604H25.4101V13.5204C25.7101 13.6204 25.8001 13.8204 25.8001 14.1104C25.8001 14.4004 25.5001 14.7004 25.2101 14.7004H22.7501V14.6004C22.7501 13.9104 22.3701 13.3204 21.9801 12.8304C21.4901 12.3404 20.9001 12.0504 20.2101 12.0504C19.5201 12.0504 18.8401 12.3504 18.3401 12.8304C17.9501 13.3204 17.6601 13.9104 17.6601 14.6004V14.7004H8.92011V14.6004C8.92011 13.9104 8.63011 13.3204 8.14011 12.8304C7.74011 12.3404 7.06012 12.0504 6.37012 12.0504C5.68012 12.0504 5.09011 12.3504 4.60011 12.8304C4.11011 13.3204 3.92011 13.9104 3.92011 14.6004V14.7004H1.56011C1.17011 14.7004 0.870117 14.4004 0.870117 14.1104C0.870117 13.8204 1.17011 13.5204 1.56011 13.5204H1.66012Z" fill="#4B6244"/>
</svg>
