<svg width="26" height="23" viewBox="0 0 26 23" fill="none" xmlns="http://www.w3.org/2000/svg">
<path fill-rule="evenodd" clip-rule="evenodd" d="M1.11002 8.39062C1.11002 8.29063 1.02003 8.29063 1.02003 8.19063C0.920027 8.00063 0.920023 7.80063 1.11002 7.60063L6.80003 0.840622C6.90003 0.750622 7.10004 0.640625 7.19004 0.640625H19.66C19.76 0.640625 19.96 0.740622 20.06 0.840622L25.75 7.60063C25.95 7.80063 25.95 8.00063 25.84 8.19063C25.84 8.25729 25.81 8.32396 25.75 8.39062L13.87 22.5106L13.48 23.0006L1.11002 8.39062ZM17.41 7.40062L13.48 2.11063L9.45005 7.40062H17.4H17.41ZM14.46 1.71063L18.68 7.40062H24.18L19.37 1.71063H14.46ZM8.18003 7.40062L12.4 1.71063H7.49003L2.68003 7.40062H8.18003ZM8.08002 8.48062H2.68003L11.91 19.5506L8.08002 8.48062ZM17.7001 8.48062H9.17005L13.49 20.5406L17.7001 8.48062ZM24.18 8.48062H18.77L14.9501 19.5506L24.18 8.48062Z" fill="#4B6244"/>
</svg>
