<svg width="14" height="15" viewBox="0 0 14 15" fill="none" xmlns="http://www.w3.org/2000/svg">
<path fill-rule="evenodd" clip-rule="evenodd" d="M12.76 2.78058C12.95 4.46058 13.08 6.16058 13.24 7.84058C13.4 9.54058 13.57 11.2506 13.7 12.9506C13.79 14.1206 12.78 14.6906 11.73 14.6906H2.18999C1.14999 14.6906 0.179998 14.1006 0.259998 12.9606C0.389998 11.2606 0.55998 9.55052 0.70998 7.85052C0.80998 6.77052 0.899988 5.69053 0.999988 4.61053C1.04999 4.01053 1.10998 3.40054 1.14998 2.80054V2.78058V2.76056C1.25998 1.72056 1.90998 0.810547 3.01998 0.810547H10.94C12.04 0.810547 12.7 1.76058 12.77 2.78058H12.76ZM6.95 10.0505H6.99999C7.77999 10.0505 8.46999 9.76052 8.96999 9.22052C10.05 8.09052 10.25 6.22058 10.29 5.09058C10.74 4.94058 11.08 4.50056 11.08 4.01056C11.08 3.38056 10.59 2.88055 9.95 2.88055C9.31 2.88055 8.82 3.37056 8.82 4.01056C8.82 4.50056 9.10999 4.94058 9.55999 5.09058C9.50999 6.12058 9.31998 7.79054 8.42998 8.68054C8.02998 9.12054 7.55 9.37054 6.95 9.37054C6.31 9.37054 5.81998 9.12054 5.42998 8.68054C4.53998 7.79054 4.34998 6.13058 4.29998 5.09058C4.73998 4.94058 5.08998 4.50056 5.08998 4.01056C5.08998 3.38056 4.54998 2.88055 3.95998 2.88055C3.31998 2.88055 2.77999 3.37056 2.77999 4.01056C2.77999 4.50056 3.13 4.94058 3.57 5.09058C3.62 6.22058 3.85998 8.09052 4.89998 9.22052C5.38998 9.76052 6.07998 10.0505 6.86998 10.0505H6.96999H6.95ZM9.35997 4.01056C9.35997 4.35056 9.61 4.61053 9.95 4.61053C10.24 4.61053 10.49 4.36056 10.49 4.01056C10.49 3.72056 10.24 3.47052 9.95 3.47052C9.6 3.47052 9.35997 3.72056 9.35997 4.01056ZM4.48998 4.01056C4.48998 3.72056 4.24 3.47052 3.95 3.47052C3.6 3.47052 3.35997 3.72056 3.35997 4.01056C3.35997 4.35056 3.61 4.61053 3.95 4.61053C4.24 4.61053 4.48998 4.36056 4.48998 4.01056ZM12.06 2.83057C12.01 1.94057 11.47 1.50055 10.93 1.50055H3.01C2.42 1.50055 1.92998 1.94057 1.82998 2.83057C1.77998 3.72057 0.989991 12.3105 0.939991 13.0005C0.889991 13.6405 1.43 13.9805 2.17 13.9805H11.71C12.5 13.9805 13.04 13.6405 12.99 13.0005C12.94 12.3105 12.15 3.72057 12.05 2.83057H12.06Z" fill="#4B6244"/>
</svg>
