<svg xmlns="http://www.w3.org/2000/svg" xmlns:xlink="http://www.w3.org/1999/xlink" width="13" height="14" viewBox="0 0 13 14"><defs><path id="jmvua" d="M714.192 3750.457c0 .15-.121.27-.271.27h-10.837a.271.271 0 0 1-.27-.27v-9.624c0-.15.12-.27.27-.27h1.761v.818a.406.406 0 1 0 .813 0v-.818h2.435v.818a.406.406 0 1 0 .812 0v-.818h2.435v.818a.406.406 0 1 0 .812 0v-.818h1.761c.15 0 .271.122.271.271v9.623zm-.271-10.706h-1.761v-.814a.406.406 0 1 0-.812 0v.813h-2.435v-.813a.406.406 0 1 0-.813 0v.813h-2.434v-.813a.406.406 0 1 0-.813 0v.813h-1.77c-.598 0-1.083.485-1.083 1.083v9.624c0 .598.485 1.083 1.084 1.083h10.837a1.084 1.084 0 0 0 1.079-1.083v-9.624c0-.596-.483-1.08-1.08-1.082z"/><path id="jmvub" d="M704.844 3744.627v-1.22h1.626v1.22z"/><path id="jmvuc" d="M704.844 3746.66v-1.22h1.626v1.22z"/><path id="jmvud" d="M704.844 3748.691v-1.22h1.626v1.22z"/><path id="jmvue" d="M707.69 3748.691v-1.22h1.626v1.22z"/><path id="jmvuf" d="M707.69 3746.66v-1.22h1.626v1.22z"/><path id="jmvug" d="M707.69 3744.627v-1.22h1.626v1.22z"/><path id="jmvuh" d="M710.534 3748.691v-1.22h1.626v1.22z"/><path id="jmvui" d="M710.534 3746.66v-1.22h1.626v1.22z"/><path id="jmvuj" d="M710.534 3744.627v-1.22h1.626v1.22z"/></defs><g><g transform="translate(-702 -3738)"><g><use fill="#2c2c2c" xlink:href="#jmvua"/></g><g><use fill="#dd147b" xlink:href="#jmvub"/></g><g><use fill="#dd147b" xlink:href="#jmvuc"/></g><g><use fill="#dd147b" xlink:href="#jmvud"/></g><g><use fill="#dd147b" xlink:href="#jmvue"/></g><g><use fill="#dd147b" xlink:href="#jmvuf"/></g><g><use fill="#dd147b" xlink:href="#jmvug"/></g><g><use fill="#dd147b" xlink:href="#jmvuh"/></g><g><use fill="#dd147b" xlink:href="#jmvui"/></g><g><use fill="#dd147b" xlink:href="#jmvuj"/></g></g></g></svg>