<svg xmlns="http://www.w3.org/2000/svg" xmlns:xlink="http://www.w3.org/1999/xlink" width="20" height="21" viewBox="0 0 20 21"><defs><path id="yppya" d="M51.305 553.455h-14.61A2.695 2.695 0 0 0 34 556.15v14.61a2.695 2.695 0 0 0 2.695 2.695h7.206l.012-7.147h-1.857a.438.438 0 0 1-.438-.436l-.009-2.304c0-.243.196-.44.438-.44h1.854v-2.226c0-2.583 1.578-3.99 3.882-3.99h1.891c.242 0 .438.197.438.439v1.942a.438.438 0 0 1-.438.438h-1.16c-1.253 0-1.496.596-1.496 1.47v1.927h2.753c.263 0 .467.23.435.49l-.273 2.304a.438.438 0 0 1-.435.386H47.03l-.012 7.147h4.287A2.695 2.695 0 0 0 54 570.76v-14.61a2.695 2.695 0 0 0-2.695-2.695z"/><path id="yppyb" d="M43.9 573.455l.013-7.147h-.03v7.147z"/></defs><g><g transform="translate(-34 -553)"><g><use fill="#464646" xlink:href="#yppya"/></g><g><use fill="#464646" xlink:href="#yppyb"/></g></g></g></svg>