<svg xmlns="http://www.w3.org/2000/svg" width="19.746" height="19.833" viewBox="0 0 19.746 19.833"><path d="M410.409,984.378a21.034,21.034,0,0,0,7,5.48,10.988,10.988,0,0,0,3.915,1.165c.095,0,.185.009.28.009a3.242,3.242,0,0,0,2.518-1.08.09.09,0,0,0,.016-.02,10.561,10.561,0,0,1,.793-.821c.194-.185.39-.379.582-.582a1.985,1.985,0,0,0-.009-2.954l-2.475-2.475a2,2,0,0,0-1.446-.665,2.065,2.065,0,0,0-1.456.661l-1.481,1.47c-.135-.079-.275-.146-.406-.214a5.074,5.074,0,0,1-.451-.246,15.564,15.564,0,0,1-3.714-3.379,8.968,8.968,0,0,1-1.256-2c.386-.349.748-.715,1.1-1.072.124-.127.25-.255.378-.381a2.12,2.12,0,0,0,.681-1.479,2.089,2.089,0,0,0-.681-1.479l-1.224-1.224c-.146-.146-.28-.284-.419-.427-.271-.279-.555-.566-.834-.825a2.048,2.048,0,0,0-1.446-.633,2.108,2.108,0,0,0-1.456.636l-1.536,1.536a3.156,3.156,0,0,0-.94,2.021,7.608,7.608,0,0,0,.571,3.286A18.742,18.742,0,0,0,410.409,984.378Zm-2.983-8.9a2.174,2.174,0,0,1,.654-1.4l1.529-1.529a1.107,1.107,0,0,1,.756-.349,1.05,1.05,0,0,1,.74.357c.275.255.534.521.814.805l.427.437,1.224,1.224a.958.958,0,0,1,0,1.537l-.381.386c-.381.386-.74.751-1.134,1.1l-.02.021a.8.8,0,0,0-.205.911l.012.033a9.666,9.666,0,0,0,1.441,2.345,16.429,16.429,0,0,0,3.96,3.608,5.888,5.888,0,0,0,.542.291,5.033,5.033,0,0,1,.451.246l.045.025a.859.859,0,0,0,.4.1.873.873,0,0,0,.611-.279l1.536-1.536a1.087,1.087,0,0,1,.751-.365,1.033,1.033,0,0,1,.728.365l2.475,2.475a.991.991,0,0,1-.012,1.549c-.173.185-.354.361-.546.546a11.812,11.812,0,0,0-.859.891,2.255,2.255,0,0,1-1.763.748,1.73,1.73,0,0,1-.214-.009,9.864,9.864,0,0,1-3.541-1.06,19.982,19.982,0,0,1-6.659-5.218,18.276,18.276,0,0,1-3.245-5.4A6.682,6.682,0,0,1,407.426,975.48Z" transform="translate(-406.418 -971.2)" fill="#ff007b"/></svg>