<svg xmlns="http://www.w3.org/2000/svg" xmlns:xlink="http://www.w3.org/1999/xlink" width="37" height="19" viewBox="0 0 37 19"><defs><path id="82tda" d="M321.517 18.49h34.338a1.145 1.145 0 0 0 0-2.289h-34.338a1.145 1.145 0 0 0 0 2.29z"/><path id="82tdb" d="M355.855 24.214h-34.338a1.145 1.145 0 0 0 0 2.289h34.338a1.145 1.145 0 0 0 0-2.29z"/><path id="82tdc" d="M355.855 32.226h-22.892a1.145 1.145 0 0 0 0 2.29h22.892a1.145 1.145 0 0 0 0-2.29z"/></defs><g><g transform="translate(-320 -16)"><use xlink:href="#82tda"/></g><g transform="translate(-320 -16)"><use xlink:href="#82tdb"/></g><g transform="translate(-320 -16)"><use xlink:href="#82tdc"/></g></g></svg>