<svg xmlns="http://www.w3.org/2000/svg" xmlns:xlink="http://www.w3.org/1999/xlink" width="23" height="20" viewBox="0 0 23 20"><defs><path id="tb1ka" d="M189.402 558.362c.228-.202-.037-.558-.295-.397l-11.242 6.972a.51.51 0 0 0-.219.587l1.533 6.732c.03.103.178.088.191-.019l.343-5.13a.507.507 0 0 1 .169-.327zm2.57-3.712a1.055 1.055 0 0 1 1.415 1.198l-3.5 16.73a1.102 1.102 0 0 1-1.73.662l-5.284-3.878-2.693 2.75a.895.895 0 0 1-1.492-.357l-1.943-6.168-5.209-1.538c-.684-.202-.723-1.154-.06-1.414z"/><path id="tb1kb" d="M179.235 572.326a.88.88 0 0 1-.547-.571l-1.943-6.168-5.209-1.539c-.684-.201-.723-1.153-.06-1.413l20.495-7.985a1.051 1.051 0 0 1 1.274.416 1.104 1.104 0 0 0-.168-.199l-13.904 11.351v.497l-.077-.055.077 3.13v2.51c.02.009.04.016.062.023v.003z"/><path id="tb1kc" d="M180.11 572.177a.947.947 0 0 1-.072.055v-.001a.91.91 0 0 0 .072-.054z"/><path id="tb1kd" d="M180.037 572.23v.002s0-.001 0 0v-.001z"/><path id="tb1ke" d="M179.88 572.315z"/><path id="tb1kf" d="M179.45 572.374z"/><path id="tb1kg" d="M179.545 572.381z"/><path id="tb1kh" d="M179.451 572.374c.005.003.01.003.016.003a.505.505 0 0 1-.016-.003z"/><path id="tb1ki" d="M179.451 572.374z"/><path id="tb1kj" d="M179.262 572.333l.087.026-.035-.008a.047.047 0 0 1-.015-.006.202.202 0 0 1-.037-.011z"/><path id="tb1kk" d="M179.314 572.35l.035.009a.17.17 0 0 1-.035-.008z"/><path id="tb1kl" d="M179.262 572.333c.012.006.025.01.037.012a.342.342 0 0 1-.059-.018c.008.002.014.005.022.006z"/><path id="tb1km" d="M179.262 572.333l-.022-.006c-.001.001-.004 0-.005-.002v-.002c.009.005.018.008.027.01z"/><path id="tb1kn" d="M179.173 569.79l.062 2.533a.523.523 0 0 1-.062-.024z"/><path id="tb1ko" d="M179.173 566.715v3.074l-.077-3.13z"/></defs><g><g transform="translate(-171 -554)"><g><use fill="#464646" xlink:href="#tb1ka"/></g><g><use fill="#464646" xlink:href="#tb1kb"/></g><g><g><use fill="#464646" xlink:href="#tb1kc"/></g><g><use fill="#464646" xlink:href="#tb1kd"/></g><g><use fill="#464646" xlink:href="#tb1ke"/></g><g><use fill="#464646" xlink:href="#tb1kf"/></g></g><g><g><use fill="#464646" xlink:href="#tb1kg"/></g><g><use fill="#464646" xlink:href="#tb1kh"/></g></g><g><g><use fill="#464646" xlink:href="#tb1ki"/></g><g><use fill="#464646" xlink:href="#tb1kj"/></g></g><g><g><use fill="#464646" xlink:href="#tb1kk"/></g><g><use fill="#464646" xlink:href="#tb1kl"/></g></g><g><use fill="#464646" xlink:href="#tb1km"/></g><g><use fill="#464646" xlink:href="#tb1kn"/></g><g><use fill="#464646" xlink:href="#tb1ko"/></g></g></g></svg>