<svg xmlns="http://www.w3.org/2000/svg" xmlns:xlink="http://www.w3.org/1999/xlink" width="21" height="30" viewBox="0 0 21 30"><defs><path id="jlkwa" d="M1047.7 33.716l-7.254 12.111L1033 33.83a8.602 8.602 0 1 1 14.697-.112zM1040.315 19a10.315 10.315 0 0 0-8.774 15.738l8.194 13.196a.86.86 0 0 0 .731.405.86.86 0 0 0 .732-.417l7.979-13.322a10.315 10.315 0 0 0-8.862-15.6z"/><path id="jlkwb" d="M1040.315 32.764a3.45 3.45 0 1 1-.023-6.9 3.45 3.45 0 0 1 .023 6.9zm0-8.607a5.157 5.157 0 1 0 5.157 5.158 5.164 5.164 0 0 0-5.157-5.158z"/></defs><g><g transform="translate(-1030 -19)"><g><use fill="#2c2c2c" xlink:href="#jlkwa"/></g><g><use fill="#dd147b" xlink:href="#jlkwb"/></g></g></g></svg>