<svg xmlns="http://www.w3.org/2000/svg" xmlns:xlink="http://www.w3.org/1999/xlink" width="20" height="15" viewBox="0 0 20 15"><defs><path id="z1xpa" d="M231.037 563.816l-5.469 2.608a.22.22 0 0 1-.314-.198v-5.38a.22.22 0 0 1 .319-.196l5.469 2.772a.22.22 0 0 1-.005.394zm2.81-7.36h-11.693a4.154 4.154 0 0 0-4.154 4.153v5.845a4.154 4.154 0 0 0 4.154 4.154h11.692a4.154 4.154 0 0 0 4.154-4.154v-5.845a4.154 4.154 0 0 0-4.154-4.154z"/></defs><g><g transform="translate(-218 -556)"><use fill="#464646" xlink:href="#z1xpa"/></g></g></svg>