<svg xmlns="http://www.w3.org/2000/svg" xmlns:xlink="http://www.w3.org/1999/xlink" width="21" height="21" viewBox="0 0 21 21"><defs><path id="jsvpa" d="M97.148 567.69a3.983 3.983 0 0 1-3.98 3.981h-8.155a3.983 3.983 0 0 1-3.981-3.98v-8.155a3.983 3.983 0 0 1 3.98-3.981h8.162a3.983 3.983 0 0 1 3.981 3.98l-.007 8.155zm-3.98-14.167h-8.155A6.023 6.023 0 0 0 79 559.536v8.161c0 3.313 2.7 6.013 6.013 6.013h8.161c3.313 0 6.013-2.7 6.013-6.013v-8.161a6.024 6.024 0 0 0-6.02-6.013z"/><path id="jsvpb" d="M89.09 566.802a3.186 3.186 0 0 1-3.189-3.189 3.186 3.186 0 0 1 3.189-3.189 3.186 3.186 0 0 1 3.189 3.19 3.186 3.186 0 0 1-3.189 3.188zm0-8.41a5.226 5.226 0 0 0-5.22 5.221 5.226 5.226 0 0 0 5.22 5.22 5.226 5.226 0 0 0 5.22-5.22 5.226 5.226 0 0 0-5.22-5.22z"/></defs><g><g transform="translate(-79 -553)"><g><use fill="#464646" xlink:href="#jsvpa"/></g><g><use fill="#464646" xlink:href="#jsvpb"/></g></g></g></svg>