<svg xmlns="http://www.w3.org/2000/svg" xmlns:xlink="http://www.w3.org/1999/xlink" width="32" height="32" viewBox="0 0 32 32"><defs><path id="k6l7a" d="M248 25c0-8.837 7.163-16 16-16s16 7.163 16 16-7.163 16-16 16-16-7.163-16-16z"/><path id="k6l7b" d="M256.817 20.471c.033-.43.221-.832.53-1.132l1.24-1.24c.16-.17.38-.272.613-.283a.85.85 0 0 1 .6.29c.223.206.433.422.66.652l.346.354.993.993c.206.207.313.417.313.624 0 .206-.107.417-.313.623l-.31.313c-.309.313-.6.61-.92.893l-.016.016a.652.652 0 0 0-.166.74l.009.027c.297.686.69 1.327 1.169 1.902a13.323 13.323 0 0 0 3.211 2.925c.143.087.29.166.44.237.125.06.247.127.366.2l.036.02c.1.053.21.082.324.083a.709.709 0 0 0 .496-.227l1.245-1.245a.881.881 0 0 1 .61-.297c.229.014.442.121.59.297l2.007 2.007c.4.4.397.832-.01 1.256-.14.15-.286.293-.442.443-.245.229-.477.47-.697.723a1.83 1.83 0 0 1-1.43.607c-.056 0-.118 0-.173-.007-1.093-.07-2.109-.496-2.872-.86a16.208 16.208 0 0 1-5.4-4.232c-1.243-1.496-2.08-2.89-2.632-4.381-.339-.914-.47-1.651-.417-2.32zm2.42 7.217a17.058 17.058 0 0 0 5.674 4.444c.827.393 1.939.86 3.175.945.077 0 .15.007.227.007a2.63 2.63 0 0 0 2.055-.893c.203-.233.418-.455.644-.666.157-.15.316-.307.472-.472.709-.739.709-1.679-.007-2.396l-2.007-2.007c-.3-.334-.724-.53-1.173-.54-.45.013-.875.207-1.18.536l-1.201 1.193c-.11-.064-.223-.118-.33-.173a4.09 4.09 0 0 1-.366-.2 12.622 12.622 0 0 1-3.012-2.74 7.27 7.27 0 0 1-1.019-1.626c.313-.284.607-.58.89-.87.1-.102.203-.206.307-.309.354-.354.552-.775.552-1.2a1.694 1.694 0 0 0-.552-1.199l-.993-.993c-.119-.118-.227-.23-.34-.346-.22-.227-.45-.46-.677-.67a1.661 1.661 0 0 0-1.173-.513 1.71 1.71 0 0 0-1.18.516l-1.246 1.246a2.56 2.56 0 0 0-.763 1.639c-.063.795.084 1.642.463 2.664.573 1.586 1.452 3.054 2.76 4.623z"/><clipPath id="k6l7c"><use fill="#fff" xlink:href="#k6l7a"/></clipPath></defs><g><g transform="translate(-248 -9)"><g><use fill="#ff007b" xlink:href="#k6l7b"/></g><g><use fill="#fff" fill-opacity="0" stroke="#ff007b" stroke-miterlimit="50" stroke-width="1.4" clip-path="url(&quot;#k6l7c&quot;)" xlink:href="#k6l7a"/></g></g></g></svg>