<svg xmlns="http://www.w3.org/2000/svg" xmlns:xlink="http://www.w3.org/1999/xlink" width="22" height="23" viewBox="0 0 22 23"><defs><path id="fgqia" d="M143.608 567.4c-.351 1.387-2.153 3.113-3.584 3.431a26.298 26.298 0 0 1-5.649.457.133.133 0 0 0-.1.04l-1.756 1.804-1.869 1.917a.219.219 0 0 1-.376-.15v-3.935a.136.136 0 0 0-.11-.132h-.002c-1.43-.32-3.231-2.045-3.583-3.433a18.863 18.863 0 0 1 0-8.093c.352-1.388 2.152-3.113 3.583-3.432a26.278 26.278 0 0 1 9.862 0c1.432.319 3.233 2.044 3.584 3.432a18.843 18.843 0 0 1 0 8.093zm1.904-8.525l-.006-.026c-.526-2.127-2.899-4.41-5.078-4.885l-.024-.005a28.216 28.216 0 0 0-10.62 0l-.026.005c-2.177.475-4.55 2.758-5.077 4.885l-.006.026c-.65 2.971-.65 5.984 0 8.955l.006.026c.505 2.037 2.7 4.214 4.798 4.813v2.375c0 .86 1.047 1.282 1.643.661l2.406-2.5a28.313 28.313 0 0 0 6.876-.458l.024-.006c2.18-.475 4.551-2.758 5.078-4.885l.006-.026c.65-2.97.65-5.984 0-8.955z"/><path id="fgqib" d="M138.207 569.215c-.22-.067-.43-.112-.624-.192-2.018-.838-3.876-1.918-5.347-3.573-.836-.942-1.49-2.005-2.044-3.13-.263-.533-.484-1.087-.71-1.638-.205-.502.098-1.021.417-1.4.299-.355.684-.627 1.1-.827.326-.156.647-.066.885.21.514.596.986 1.223 1.368 1.914.235.425.17.945-.256 1.234-.103.07-.198.153-.294.233a.965.965 0 0 0-.222.234.642.642 0 0 0-.043.563c.525 1.444 1.41 2.566 2.863 3.17.233.097.466.21.734.179.449-.053.594-.545.908-.802.307-.25.7-.254 1.03-.045.332.21.653.435.972.662.313.223.624.441.913.695.278.245.374.566.217.898-.286.607-.703 1.113-1.303 1.436-.17.09-.373.12-.564.18-.22-.068.191-.06 0 0z"/><path id="fgqic" d="M135.1 557.76c2.639.074 4.807 1.826 5.271 4.435.08.445.107.9.143 1.35.015.19-.093.37-.298.373-.211.003-.306-.174-.32-.364-.028-.375-.046-.753-.098-1.125-.273-1.966-1.841-3.593-3.798-3.942-.295-.053-.596-.067-.895-.098-.188-.02-.435-.031-.477-.265-.035-.197.131-.354.318-.364.05-.003.102 0 .153 0 2.64.074-.051 0 0 0z"/><path id="fgqid" d="M139.11 562.96c-.004.033-.006.11-.026.183-.07.265-.472.299-.564.031a.796.796 0 0 1-.032-.255c0-.559-.122-1.117-.404-1.604-.29-.5-.733-.92-1.252-1.174a3.598 3.598 0 0 0-.998-.306c-.15-.025-.302-.04-.453-.061-.183-.026-.281-.143-.272-.323.008-.17.131-.291.316-.28.605.034 1.19.165 1.73.45 1.094.58 1.72 1.495 1.902 2.718.009.055.022.11.026.166.01.137.017.274.027.455-.004.033-.01-.181 0 0z"/><path id="fgqie" d="M137.469 562.896c-.221.004-.34-.118-.362-.32-.016-.142-.029-.285-.062-.422a1.186 1.186 0 0 0-.438-.687 1.147 1.147 0 0 0-.357-.172c-.162-.047-.33-.034-.491-.074-.176-.043-.273-.185-.245-.35a.317.317 0 0 1 .334-.254c1.024.073 1.755.602 1.86 1.807.007.085.016.175-.003.257-.033.139-.136.208-.236.215-.221.004.1-.007 0 0z"/></defs><g><g transform="translate(-124 -553)"><g><use fill="#464646" xlink:href="#fgqia"/></g><g><use fill="#464646" xlink:href="#fgqib"/></g><g><use fill="#464646" xlink:href="#fgqic"/></g><g><use fill="#464646" xlink:href="#fgqid"/></g><g><use fill="#464646" xlink:href="#fgqie"/></g></g></g></svg>