<svg xmlns="http://www.w3.org/2000/svg" xmlns:xlink="http://www.w3.org/1999/xlink" width="22" height="20" viewBox="0 0 22 20"><defs><path id="v2yga" d="M1414.915 42.637a.687.687 0 1 0 .971.971l4.74-4.74a.793.793 0 0 0 0-1.04l-4.743-4.74a.687.687 0 0 0-.972.972l3.603 3.602h-14.827a.687.687 0 1 0 0 1.374h14.83z"/><path id="v2ygb" d="M1422.235 28.731h-13.74a2.748 2.748 0 0 0-2.748 2.749v2.748h1.375V31.48c0-.76.615-1.374 1.374-1.374h13.74c.758 0 1.373.615 1.373 1.374v13.74c0 .758-.615 1.373-1.374 1.373h-13.74a1.374 1.374 0 0 1-1.373-1.374v-2.748h-1.375v2.748a2.748 2.748 0 0 0 2.749 2.748h13.74a2.748 2.748 0 0 0 2.747-2.748V31.48a2.748 2.748 0 0 0-2.748-2.748z"/></defs><g><g transform="translate(-1403 -28)"><g><use fill="#dd147b" xlink:href="#v2yga"/></g><g><use fill="#2c2c2c" xlink:href="#v2ygb"/></g></g></g></svg>