<svg xmlns="http://www.w3.org/2000/svg" xmlns:xlink="http://www.w3.org/1999/xlink" width="15" height="21" viewBox="0 0 15 21"><defs><path id="ltpua" d="M818.162 519.451l-4.984 8.322-5.116-8.243a5.91 5.91 0 1 1 10.099-.077zm-5.074-10.111a7.088 7.088 0 0 0-6.03 10.814l5.631 9.067a.59.59 0 0 0 .503.279.59.59 0 0 0 .502-.287l5.483-9.154a7.088 7.088 0 0 0-6.09-10.72z"/><path id="ltpub" d="M813.088 518.798a2.37 2.37 0 1 1-.016-4.741 2.37 2.37 0 0 1 .016 4.74zm0-5.914a3.544 3.544 0 1 0 0 7.087 3.544 3.544 0 0 0 0-7.087z"/></defs><g><g transform="translate(-806 -509)"><g><use fill="#2c2c2c" xlink:href="#ltpua"/></g><g><use fill="#dd147b" xlink:href="#ltpub"/></g></g></g></svg>