<svg xmlns="http://www.w3.org/2000/svg" xmlns:xlink="http://www.w3.org/1999/xlink" width="12" height="16" viewBox="0 0 12 16"><defs><path id="gftea" d="M587.653 3743.025l-3.956 6.605-4.06-6.543a4.691 4.691 0 1 1 8.015-.06zm-4.028-8.025a5.625 5.625 0 0 0-4.785 8.582l4.47 7.197a.469.469 0 0 0 .798-.006l4.35-7.266a5.625 5.625 0 0 0-4.833-8.507z"/><path id="gfteb" d="M583.625 3742.506a1.881 1.881 0 1 1-.012-3.762 1.881 1.881 0 0 1 .012 3.762zm0-4.693a2.813 2.813 0 1 0 0 5.625 2.813 2.813 0 0 0 0-5.626z"/></defs><g><g transform="translate(-578 -3735)"><g><use fill="#2c2c2c" xlink:href="#gftea"/></g><g><use fill="#dd147b" xlink:href="#gfteb"/></g></g></g></svg>