<svg xmlns="http://www.w3.org/2000/svg" xmlns:xlink="http://www.w3.org/1999/xlink" width="16" height="17" viewBox="0 0 16 17"><defs><path id="5lk0a" d="M855.16 3709.674c-.147.313-.328.473-.546.48.116.143.203.307.254.484a1.615 1.615 0 0 1-.44 1.781c.123.214.187.457.186.704-.002.26-.063.517-.178.75-.1.227-.27.415-.485.536.033.19.05.38.052.573 0 1.136-.654 1.705-1.962 1.705h-1.231c-.892 0-2.055-.248-3.488-.745l-.296-.107-.377-.127-.357-.117c-.16-.05-.29-.088-.388-.113a3.684 3.684 0 0 0-.659-.096h-.326v-6.537h.326a.878.878 0 0 0 .363-.093c.15-.071.288-.164.41-.275.138-.123.269-.244.395-.363.144-.142.281-.292.41-.45.15-.18.267-.325.353-.434l.322-.41.234-.306c.375-.463.637-.772.786-.93.295-.315.507-.7.616-1.118.125-.453.23-.88.312-1.282a1.69 1.69 0 0 1 .387-.868c.654 0 1.09.16 1.307.48.218.32.327.814.327 1.481 0 .402-.164.95-.49 1.642-.328.692-.491 1.235-.491 1.629h3.595a1.354 1.354 0 0 1 1.307 1.307 2.006 2.006 0 0 1-.228.819zm-11.74 5.515a.642.642 0 1 1 0-.002zm12.766-4.688c.33-.492.504-1.072.5-1.665a2.651 2.651 0 0 0-2.614-2.603h-1.797c.31-.608.478-1.28.49-1.962a4.237 4.237 0 0 0-.357-1.9 2.245 2.245 0 0 0-1.04-1.038 3.488 3.488 0 0 0-1.543-.333c-.345 0-.676.136-.92.38a2.463 2.463 0 0 0-.633 1.104c-.13.449-.234.88-.312 1.293-.038.319-.163.622-.363.874a19.94 19.94 0 0 0-1.094 1.307c-.684.892-1.15 1.42-1.4 1.584h-2.796c-.722 0-1.307.585-1.307 1.307v6.535c0 .722.585 1.307 1.307 1.307h2.94c.15 0 .62.137 1.41.41a23.38 23.38 0 0 0 2.212.67c.634.152 1.283.23 1.935.229h1.317c.958 0 1.73-.274 2.319-.82.588-.548.877-1.295.868-2.243.407-.518.624-1.16.615-1.818 0-.147-.01-.294-.03-.44a2.93 2.93 0 0 0 .387-1.47c0-.24-.031-.478-.094-.709z"/><path id="5lk0b" d="M842.231 3707.5h2.54a.15.15 0 0 1 .15.15v8.89a.15.15 0 0 1-.15.149h-2.54c-.68 0-1.231-.551-1.231-1.231v-6.726c0-.68.551-1.231 1.231-1.231z"/></defs><g><g transform="translate(-841 -3701)"><g><use fill="#2c2c2c" xlink:href="#5lk0a"/></g><g><use fill="#52b80f" xlink:href="#5lk0b"/></g></g></g></svg>