<svg xmlns="http://www.w3.org/2000/svg" xmlns:xlink="http://www.w3.org/1999/xlink" width="54" height="55" viewBox="0 0 54 55"><defs><path id="596sa" d="M1209.156 3307.418c0-14.847 12.036-26.882 26.882-26.882 14.847 0 26.882 12.035 26.882 26.882 0 14.846-12.035 26.882-26.882 26.882-14.846 0-26.882-12.036-26.882-26.882z"/><path id="596sb" d="M1262.912 3306.796l-11.933-11.914-19.438 23.693 13.996 13.996c10.159-3.838 17.383-13.651 17.383-25.153 0-.208-.003-.416-.008-.622z"/><path id="596sc" d="M1245.921 3299.654c.314-.277-.05-.766-.405-.545l-15.438 9.574a.702.702 0 0 0-.3.806l2.105 9.245c.042.141.244.121.262-.026l.471-7.045a.697.697 0 0 1 .232-.449zm3.529-5.098a1.448 1.448 0 0 1 1.944 1.646l-4.806 22.973a1.514 1.514 0 0 1-2.377.911l-7.256-5.326-3.698 3.777c-.65.662-1.77.392-2.05-.491l-2.667-8.47-7.153-2.113c-.94-.277-.993-1.584-.083-1.94z"/><path id="596sd" d="M1245.516 3299.109c.355-.22.719.268.406.545l-13.074 11.56a.698.698 0 0 0-.232.449l-.47 7.045c-.018.147-.221.167-.263.026l-2.105-9.245a.701.701 0 0 1 .3-.806z"/><path id="596se" d="M1231.96 3318.83a1.207 1.207 0 0 1-.752-.784l-2.668-8.47-7.153-2.113c-.94-.277-.993-1.584-.083-1.94l28.146-10.967c.691-.27 1.399.026 1.748.572a1.513 1.513 0 0 0-.23-.273l-19.094 15.588v.682l-.105-.076.105 4.298v3.447a.683.683 0 0 0 .085.032v.004z"/><path id="596sf" d="M1251.425 3295.816c.005.123-.004.254-.031.386l-4.806 22.974a1.514 1.514 0 0 1-2.377.91l-7.256-5.326-5.081-3.635v-.682l19.094-15.588a1.512 1.512 0 0 1 .268.335c.011.022.024.043.035.063.01.022.022.044.03.065l.03.07c.007.02.016.04.023.064a1.439 1.439 0 0 1 .07.364z"/><path id="596sg" d="M1236.955 3314.76l-3.698 3.777a1.478 1.478 0 0 1-.195.163l-.002.001c-.069.046-.14.084-.214.114-.038.015-.074.03-.112.038a1.225 1.225 0 0 1-.601.026c-.005 0-.01-.002-.016-.004a2.802 2.802 0 0 1-.158-.049l-.085-3.479v-4.221z"/><path id="596sh" d="M1226.39 3318.625a1.296 1.296 0 0 1-.1.076v-.002c.035-.023.068-.047.1-.074z"/><path id="596si" d="M1226.29 3318.7v.001s0-.002-.001 0l.002-.002z"/><path id="596sj" d="M1226.075 3318.815z"/><path id="596sk" d="M1225.485 3318.897z"/><path id="596sl" d="M1225.614 3318.906z"/><path id="596sm" d="M1225.485 3318.897c.007.003.015.003.022.003a.714.714 0 0 1-.022-.003z"/><path id="596sn" d="M1225.485 3318.897z"/><path id="596so" d="M1225.226 3318.84c.04.013.08.024.12.035l-.049-.01a.064.064 0 0 1-.02-.008.276.276 0 0 1-.05-.016z"/><path id="596sp" d="M1225.297 3318.864l.049.011a.234.234 0 0 1-.05-.01z"/><path id="596sq" d="M1225.226 3318.84a.475.475 0 0 1-.03-.01c.01.005.02.01.03.01z"/><path id="596sr" d="M1225.226 3318.84c-.01-.001-.02-.005-.03-.008-.002.001-.006 0-.008-.002v-.004c.013.008.026.011.038.015z"/><path id="596ss" d="M1225.103 3315.347l.085 3.48a.692.692 0 0 1-.085-.033z"/><path id="596st" d="M1225.103 3311.125v4.222l-.105-4.298z"/><path id="596su" d="M1245.921 3299.654l-13.073 11.56a.697.697 0 0 0-.232.449l-.47 7.046c-.018.147-.22.167-.264.025l-2.104-9.245a.701.701 0 0 1 .3-.806l15.438-9.574c.355-.22.719.268.405.545z"/></defs><g><g transform="translate(-1209 -3280)"><g><use fill="#7aa5da" xlink:href="#596sa"/></g><g><use fill="#5786b5" xlink:href="#596sb"/></g><g><use fill="#fff" xlink:href="#596sc"/></g><g><use fill="#9ec2e5" xlink:href="#596sd"/></g><g><use fill="#fff" xlink:href="#596se"/></g><g><g><use fill="#d1d1d1" xlink:href="#596sf"/></g><g><use fill="#d1d1d1" xlink:href="#596sg"/></g></g><g><g><use fill="#dadde0" xlink:href="#596sh"/></g><g><use fill="#dadde0" xlink:href="#596si"/></g><g><use fill="#dadde0" xlink:href="#596sj"/></g><g><use fill="#dadde0" xlink:href="#596sk"/></g></g><g><g><use fill="#fff" xlink:href="#596sl"/></g><g><use fill="#fff" xlink:href="#596sm"/></g></g><g><g><use fill="#dadde0" xlink:href="#596sn"/></g><g><use fill="#dadde0" xlink:href="#596so"/></g></g><g><g><use fill="#fff" xlink:href="#596sp"/></g><g><use fill="#fff" xlink:href="#596sq"/></g></g><g><use fill="#dadde0" xlink:href="#596sr"/></g><g><use fill="#d1d1d1" xlink:href="#596ss"/></g><g><use fill="#dadde0" xlink:href="#596st"/></g><g><use fill="#adbcc9" xlink:href="#596su"/></g></g></g></svg>