<svg xmlns="http://www.w3.org/2000/svg" xmlns:xlink="http://www.w3.org/1999/xlink" width="54" height="55" viewBox="0 0 54 55"><defs><path id="qjsaa" d="M1209.156 3233.582c0-14.846 12.036-26.882 26.882-26.882 14.847 0 26.882 12.036 26.882 26.882 0 14.847-12.035 26.882-26.882 26.882-14.846 0-26.882-12.035-26.882-26.882z"/><path id="qjsab" d="M1247.7 3221.448c-6.543-1.58-13.098-3.429-19.808-1.08-4.344 1.629-4.344 6.335-4.163 10.318 0 1.086-1.267 2.534-.724 3.802 1.086 3.62 1.99 7.24 5.792 9.05.543.363 0 1.087.362 1.63-.18 0-.543.18-.543.362 0 .868.39 2.195.131 3.05l11.552 11.547c11.875-1.891 21.156-11.558 22.462-23.618z"/><path id="qjsac" d="M1247.66 3237.228c-.48 1.895-2.938 4.25-4.892 4.685a35.894 35.894 0 0 1-7.71.623.182.182 0 0 0-.136.055l-2.398 2.462-2.55 2.618a.299.299 0 0 1-.515-.207v-5.37a.185.185 0 0 0-.15-.18l-.002-.001c-1.953-.435-4.411-2.79-4.891-4.685-.8-3.665-.8-7.381 0-11.046.48-1.895 2.938-4.25 4.891-4.685 4.467-.85 8.996-.85 13.461 0 1.955.435 4.413 2.79 4.892 4.685.8 3.665.8 7.381 0 11.046zm2.6-11.634l-.01-.036c-.718-2.904-3.956-6.02-6.93-6.668l-.033-.007a38.514 38.514 0 0 0-14.496 0l-.035.007c-2.973.649-6.211 3.765-6.93 6.668l-.008.036a28.375 28.375 0 0 0 0 12.222l.008.036c.688 2.78 3.685 5.752 6.548 6.57v3.241c0 1.173 1.43 1.75 2.243.903l3.284-3.414c.712.04 1.425.062 2.137.062 2.422 0 4.844-.229 7.248-.687l.034-.007c2.974-.648 6.212-3.764 6.93-6.668l.01-.036a28.376 28.376 0 0 0 0-12.222z"/><path id="qjsad" d="M1240.288 3239.707c-.3-.091-.586-.153-.852-.263-2.755-1.142-5.29-2.617-7.298-4.877-1.142-1.285-2.035-2.736-2.79-4.271-.359-.728-.66-1.485-.969-2.237-.28-.685.133-1.393.568-1.91.409-.485.934-.856 1.503-1.13.444-.213.883-.09 1.207.287.701.814 1.346 1.67 1.867 2.613.32.58.233 1.29-.349 1.685-.14.096-.27.209-.401.317a1.317 1.317 0 0 0-.303.32.876.876 0 0 0-.059.769c.717 1.97 1.925 3.502 3.908 4.327.318.132.636.286 1.002.243.612-.071.81-.743 1.24-1.094.419-.343.955-.347 1.406-.061.452.286.89.593 1.325.903.428.304.853.602 1.247.95.38.333.51.771.296 1.224-.39.83-.959 1.52-1.779 1.96-.231.124-.508.165-.769.245-.3-.091.261-.08 0 0z"/><path id="qjsae" d="M1236.046 3224.071c3.602.101 6.562 2.492 7.196 6.054.108.607.146 1.227.194 1.843.02.26-.126.506-.406.509-.288.003-.418-.238-.437-.497-.037-.513-.063-1.028-.134-1.536-.373-2.684-2.513-4.904-5.184-5.38-.402-.072-.813-.091-1.22-.134-.258-.027-.595-.043-.652-.363-.048-.268.179-.481.434-.495.07-.004.139-.001.209 0 3.603.1-.07-.001 0 0z"/><path id="qjsaf" d="M1241.521 3231.169c-.006.045-.01.15-.036.25-.095.362-.644.407-.77.042a1.085 1.085 0 0 1-.043-.348c-.001-.763-.167-1.525-.552-2.19a4.076 4.076 0 0 0-1.709-1.602 4.912 4.912 0 0 0-1.361-.418c-.206-.034-.413-.055-.62-.083-.25-.035-.383-.194-.371-.44.01-.232.18-.398.431-.384.827.047 1.626.226 2.36.615 1.495.792 2.35 2.041 2.599 3.71.01.076.029.15.035.226.014.187.023.375.037.622-.006.045-.014-.247 0 0z"/><path id="qjsag" d="M1239.28 3231.082c-.301.005-.463-.162-.494-.438-.021-.193-.038-.388-.085-.575-.09-.37-.286-.712-.597-.938a1.565 1.565 0 0 0-.487-.235c-.22-.064-.45-.046-.67-.1-.24-.06-.373-.253-.335-.478a.433.433 0 0 1 .456-.348c1.397.101 2.396.823 2.538 2.468.01.116.022.238-.004.35-.044.19-.185.284-.322.294-.301.005.137-.01 0 0z"/><path id="qjsah" d="M1250.26 3225.594l-.01-.036c-.402-1.628-1.597-3.322-3.093-4.61l-2.022 1.791c1.202.959 2.233 2.286 2.525 3.443.8 3.665.8 7.38 0 11.046-.48 1.895-2.938 4.25-4.891 4.685a35.896 35.896 0 0 1-7.711.623.182.182 0 0 0-.136.055l-2.398 2.462-2.55 2.618a.299.299 0 0 1-.514-.207v-5.37a.185.185 0 0 0-.151-.18h-.001c-1.11-.248-2.383-1.116-3.364-2.166l-1.998 1.77c1.248 1.358 2.858 2.456 4.428 2.904v3.241c0 1.174 1.43 1.75 2.243.903l3.284-3.413c.712.04 1.425.062 2.137.062 2.422 0 4.844-.23 7.248-.688l.034-.007c2.974-.648 6.212-3.764 6.93-6.668l.009-.035a28.376 28.376 0 0 0 0-12.223z"/><path id="qjsai" d="M1242.54 3236.277c-.394-.347-.82-.645-1.246-.95a29.21 29.21 0 0 0-1.325-.902c-.452-.286-.988-.282-1.407.061-.43.35-.628 1.023-1.24 1.094-.365.043-.684-.111-1.001-.243a6.48 6.48 0 0 1-2.846-2.264l-1.487 1.318c.05.058.099.119.15.176 2.008 2.26 4.543 3.734 7.297 4.877.266.11.553.172.853.263-.3-.091.261-.08 0 0 .261-.08.538-.12.77-.245.82-.44 1.388-1.13 1.779-1.96.213-.453.083-.891-.297-1.225z"/><path id="qjsaj" d="M1229.284 3224.072H1229.285z"/><path id="qjsak" d="M1229.275 3224.071h.009c.2.008 3.452.097-.01 0z"/><path id="qjsal" d="M1241.214 3226.214l-.634.562a6.361 6.361 0 0 1 1.88 3.668c.07.508.096 1.023.133 1.536.019.259.149.5.438.497.28-.003.426-.25.406-.509-.049-.616-.087-1.236-.195-1.843-.277-1.56-1-2.894-2.028-3.91z"/><path id="qjsam" d="M1241.449 3230.32c-.182-1.215-.686-2.207-1.524-2.963l-.632.56c.327.29.61.63.827 1.007.385.664.55 1.426.552 2.189 0 .117.006.24.043.348.127.365.675.32.77-.042.027-.1.03-.205.036-.25-.006.045-.014-.247 0 0-.014-.247-.023-.435-.037-.622-.006-.076-.024-.15-.035-.227z"/><path id="qjsan" d="M1239.28 3231.082c.005 0 .01-.003.014-.003h-.052c.013.001.025.003.038.003z"/><path id="qjsao" d="M1239.28 3231.082l-.038-.002a.543.543 0 0 0 .038.002z"/><path id="qjsap" d="M1239.294 3231.079c-.005 0-.01.003-.014.003.035-.002.032-.003.014-.003z"/><path id="qjsaq" d="M1238.644 3228.492l-.643.57a1.5 1.5 0 0 1 .104.069c.31.226.506.568.597.938.046.187.063.382.085.575.03.264.18.426.455.436l.052-.001a.357.357 0 0 0 .309-.292c.025-.11.014-.233.003-.35-.08-.919-.427-1.55-.962-1.945z"/></defs><g><g transform="translate(-1209 -3206)"><use fill="#6f3faa" xlink:href="#qjsaa"/></g><g transform="translate(-1209 -3206)"><use fill="#512d84" xlink:href="#qjsab"/></g><g transform="translate(-1209 -3206)"><g><use fill="#fff" xlink:href="#qjsac"/></g><g><use fill="#fff" xlink:href="#qjsad"/></g><g><use fill="#fff" xlink:href="#qjsae"/></g><g><use fill="#fff" xlink:href="#qjsaf"/></g><g><use fill="#fff" xlink:href="#qjsag"/></g></g><g transform="translate(-1209 -3206)"><use fill="#d1d1d1" xlink:href="#qjsah"/></g><g transform="translate(-1209 -3206)"><use fill="#d1d1d1" xlink:href="#qjsai"/></g><g transform="translate(-1209 -3206)"><g><use fill="#fff" xlink:href="#qjsaj"/></g><g><use fill="#fff" xlink:href="#qjsak"/></g></g><g transform="translate(-1209 -3206)"><g><use fill="#d1d1d1" xlink:href="#qjsal"/></g><g><use fill="#d1d1d1" xlink:href="#qjsam"/></g></g><g transform="translate(-1209 -3206)"><g/><g><use fill="#fff" xlink:href="#qjsan"/></g><g><use fill="#fff" xlink:href="#qjsao"/></g><g><use fill="#fff" xlink:href="#qjsap"/></g></g><g transform="translate(-1209 -3206)"><use fill="#d1d1d1" xlink:href="#qjsaq"/></g></g></svg>