<svg xmlns="http://www.w3.org/2000/svg" xmlns:xlink="http://www.w3.org/1999/xlink" width="27" height="16" viewBox="0 0 27 16"><defs><path id="51tma" d="M795.273 3366.79c-1.875 1.491-4.826 3.268-8.27 3.268-3.722 0-7.351-2.04-10.799-6.07a21.297 21.297 0 0 1 2.876-2.78c1.875-1.492 4.826-3.268 8.27-3.268 3.722 0 7.352 2.04 10.799 6.07a20.972 20.972 0 0 1-2.876 2.78zm4.885-3.402c-3.985-4.902-8.287-7.388-12.8-7.388a13.418 13.418 0 0 0-5.386 1.18 18.864 18.864 0 0 0-4.142 2.548 21.575 21.575 0 0 0-3.643 3.7.978.978 0 0 0 .027 1.185c3.98 4.907 8.288 7.387 12.8 7.387a13.419 13.419 0 0 0 5.387-1.18 18.863 18.863 0 0 0 4.142-2.547 21.584 21.584 0 0 0 3.643-3.7.978.978 0 0 0-.028-1.185z"/><path id="51tmb" d="M790.75 3363.032a.972.972 0 0 0-.97.97 2.606 2.606 0 1 1-2.606-2.607.97.97 0 1 0 0-1.94 4.546 4.546 0 1 0 4.545 4.547.972.972 0 0 0-.97-.97z"/></defs><g><g transform="translate(-774 -3356)"><g><use fill="#e2e2e2" xlink:href="#51tma"/></g><g><use fill="#e2e2e2" xlink:href="#51tmb"/></g></g></g></svg>