<?xml version="1.0" encoding="utf-8"?><svg width="85" height="85" viewBox="0 0 85 85" fill="none" xmlns="http://www.w3.org/2000/svg">
<path d="M68.9434 21.8337H57.1323L56.0277 17.7822C55.9495 17.4923 55.7514 17.2499 55.485 17.1145C55.2185 16.9792 54.907 16.9629 54.6292 17.0706L42.0456 21.9273C41.9138 21.8678 41.7686 21.8337 41.6149 21.8337H26.4908C26.2039 21.8337 25.929 21.9514 25.7296 22.1591L16.4095 31.8782C16.2079 32.0377 16.0719 32.2616 16.0247 32.5104C16.019 32.5359 16.0176 32.5629 16.0141 32.5891C16.0106 32.6231 16.0049 32.6557 16.0042 32.6905C16.0035 32.7039 16 32.7174 16 32.7309C16 32.7316 16 32.7323 16 32.7337V65.9368C16 66.5237 16.473 67 17.0573 67H64.2263C64.8099 67 65.2836 66.5237 65.2836 65.9368V62.2595H68.9427C69.5263 62.2595 70 61.7832 70 61.1963V22.8969C70.0007 22.3093 69.527 21.8337 68.9434 21.8337ZM57.6229 31.6712H22.7028L54.2972 19.4756L57.6229 31.6712ZM26.9398 23.9601H36.7794L21.1584 29.9899L26.9398 23.9601ZM63.1689 64.8736H18.1147V33.7976H63.1689V64.8736ZM67.886 60.1331H65.2836V32.7344C65.2836 32.1468 64.8099 31.6712 64.2263 31.6712H59.8144L57.7117 23.9601H67.8853V60.1331H67.886Z" fill="#D7D2BE"/>
</svg>
