<?xml version="1.0" encoding="utf-8"?><svg width="42" height="58" viewBox="0 0 42 58" fill="none" xmlns="http://www.w3.org/2000/svg">
<path d="M41.0167 21.2026C41.0879 10.0508 32.0736 0.919881 20.9224 0.848019C9.75606 0.78183 0.639667 9.79106 0.567805 20.9423C0.516115 29.0079 5.21803 36.0131 12.0424 39.3018L12.1086 56.9193C12.1099 57.2976 12.3362 57.6379 12.6841 57.7855C12.8033 57.8365 12.9293 57.8611 13.0541 57.8611C13.2931 57.8611 13.5282 57.7703 13.7078 57.5995L20.6961 50.9245L27.7317 57.5528C28.0065 57.8126 28.4112 57.8813 28.756 57.7319C29.1027 57.5818 29.3265 57.2396 29.3252 56.8613L29.2653 39.4304C36.1534 36.2376 40.965 29.2833 41.0167 21.2026ZM27.4266 54.6677L21.3391 48.9332C20.9735 48.5884 20.4017 48.5903 20.038 48.9376L13.9915 54.713L13.9367 40.0967C16.0396 40.8569 18.302 41.2818 20.6621 41.2969C20.7062 41.2969 20.7497 41.2975 20.7938 41.2975C23.0972 41.2975 25.3104 40.9048 27.3761 40.1912L27.4266 54.6677ZM20.7938 39.4064C20.7547 39.4064 20.7138 39.4058 20.6747 39.4058C10.5655 39.3409 2.39398 31.0641 2.45954 20.9543C2.52447 10.8848 10.7363 2.73849 20.7913 2.73849C20.8304 2.73849 20.8714 2.73849 20.9104 2.73849C31.019 2.80405 39.1905 11.0808 39.1256 21.19C39.0613 31.2595 30.8488 39.4064 20.7938 39.4064Z" fill="#D7D2BE"/>
<path d="M29.9845 18.1666L24.2355 17.2941L21.6977 12.0659C21.5407 11.7419 21.2129 11.5357 20.8536 11.5332C20.8517 11.5332 20.8498 11.5332 20.8473 11.5332C20.4899 11.5332 20.1627 11.7349 20.002 12.0551L17.3973 17.2506L11.6401 18.0487C11.284 18.0985 10.9858 18.3456 10.873 18.6873C10.7595 19.0289 10.8496 19.4052 11.1062 19.658L15.2421 23.7422L14.2234 29.4647C14.1603 29.8189 14.3034 30.1783 14.5934 30.3919C14.8834 30.6056 15.2692 30.6353 15.5888 30.4701L20.7496 27.7986L25.8789 30.5363C26.0188 30.6107 26.1714 30.6479 26.3239 30.6479C26.5181 30.6479 26.711 30.588 26.8749 30.4707C27.1674 30.2615 27.3155 29.904 27.2569 29.5485L26.3113 23.8134L30.4995 19.7822C30.7586 19.5326 30.8538 19.1575 30.7453 18.8146C30.635 18.4723 30.3413 18.2208 29.9845 18.1666ZM24.6415 22.796C24.4177 23.0116 24.3131 23.3236 24.3641 23.6312L25.079 27.9663L21.2016 25.8962C21.0623 25.8218 20.9091 25.7846 20.7559 25.7846C20.6065 25.7846 20.4577 25.8199 20.3216 25.8905L16.4208 27.9096L17.1905 23.584C17.2454 23.2776 17.1458 22.9643 16.9239 22.7456L13.7979 19.6587L18.1499 19.0548C18.4582 19.0119 18.7261 18.8203 18.8654 18.5423L20.8341 14.6157L22.7523 18.5675C22.8884 18.8474 23.1538 19.0428 23.4614 19.0894L27.8078 19.7488L24.6415 22.796Z" fill="#D7D2BE"/>
</svg>
