<?xml version="1.0" encoding="utf-8"?><svg width="85" height="85" viewBox="0 0 85 85" fill="none" xmlns="http://www.w3.org/2000/svg">
<path d="M42.3178 26.0242C38.8608 26.0254 35.4818 27.0515 32.6079 28.9729C29.734 30.8943 27.4942 33.6246 26.1718 36.8187C24.8495 40.0128 24.5038 43.5272 25.1785 46.9178C25.8532 50.3083 27.5181 53.4227 29.9625 55.8672C32.407 58.3117 35.5214 59.9765 38.9119 60.6512C42.3025 61.326 45.8169 60.9803 49.011 59.6579C52.2051 58.3355 54.9355 56.0958 56.8568 53.2219C58.7782 50.3479 59.8043 46.9689 59.8055 43.5119C59.8007 38.8753 57.9567 34.4301 54.6782 31.1515C51.3997 27.873 46.9544 26.029 42.3178 26.0242ZM42.3178 59.1712C39.221 59.17 36.194 58.2506 33.6196 56.5292C31.0453 54.8078 29.0391 52.3617 27.8548 49.5002C26.6705 46.6388 26.3613 43.4904 26.9662 40.4532C27.5711 37.4159 29.063 34.6263 31.2532 32.4369C33.4435 30.2475 36.2337 28.7567 39.2712 28.153C42.3086 27.5492 45.4569 27.8597 48.3179 29.0451C51.1789 30.2305 53.6242 32.2376 55.3446 34.8126C57.065 37.3877 57.9833 40.415 57.9833 43.5119C57.9785 47.6646 56.3263 51.6457 53.3893 54.5815C50.4523 57.5174 46.4705 59.168 42.3178 59.1712Z" fill="#D7D2BE"/>
<path d="M70.0889 27.5852C69.8472 27.5852 69.6155 27.6812 69.4446 27.8521C69.2737 28.0229 69.1777 28.2547 69.1777 28.4963V35.4817H67.3555V28.4963C67.3555 28.2547 67.2595 28.0229 67.0886 27.8521C66.9177 27.6812 66.686 27.5852 66.4443 27.5852C66.2027 27.5852 65.9709 27.6812 65.8001 27.8521C65.6292 28.0229 65.5332 28.2547 65.5332 28.4963V35.4817H63.7109V28.4963C63.7109 28.2547 63.6149 28.0229 63.4441 27.8521C63.2732 27.6812 63.0415 27.5852 62.7998 27.5852C62.5582 27.5852 62.3264 27.6812 62.1555 27.8521C61.9847 28.0229 61.8887 28.2547 61.8887 28.4963V36.3928C61.8887 36.6345 61.9847 36.8662 62.1555 37.0371C62.3264 37.208 62.5582 37.304 62.7998 37.304H65.5332V58.2601C65.5332 58.5017 65.6292 58.7335 65.8001 58.9043C65.9709 59.0752 66.2027 59.1712 66.4443 59.1712C66.686 59.1712 66.9177 59.0752 67.0886 58.9043C67.2595 58.7335 67.3555 58.5017 67.3555 58.2601V37.304H70.0889C70.3305 37.304 70.5623 37.208 70.7332 37.0371C70.904 36.8662 71 36.6345 71 36.3928V28.4963C71 28.2547 70.904 28.0229 70.7332 27.8521C70.5623 27.6812 70.3305 27.5852 70.0889 27.5852Z" fill="#D7D2BE"/>
<path d="M20.6512 27.5852C20.4895 27.5131 20.3104 27.4897 20.1356 27.5177C19.9609 27.5458 19.7981 27.6241 19.6671 27.7432C19.4485 27.9375 14.3765 32.6937 14.3765 44.8664C14.3724 44.9886 14.393 45.1104 14.4369 45.2244C14.4809 45.3385 14.5474 45.4426 14.6324 45.5304C14.7174 45.6183 14.8192 45.6881 14.9318 45.7358C15.0444 45.7835 15.1654 45.808 15.2876 45.8079H19.3695V58.2601C19.3695 58.5017 19.4655 58.7335 19.6364 58.9044C19.8072 59.0752 20.039 59.1712 20.2806 59.1712C20.5223 59.1712 20.754 59.0752 20.9249 58.9044C21.0958 58.7335 21.1918 58.5017 21.1918 58.2601V28.4478C21.1977 28.2665 21.1495 28.0876 21.0532 27.934C20.9568 27.7803 20.8169 27.6589 20.6512 27.5852ZM19.3695 43.9857H16.2109C16.3324 37.4923 18.0575 33.3922 19.3695 31.1812V43.9857Z" fill="#D7D2BE"/>
<path d="M52.7779 44.0708C52.5395 44.0341 52.2963 44.0934 52.1016 44.2357C51.9069 44.3781 51.7766 44.5918 51.7392 44.83C51.4001 47.0191 50.2928 49.0159 48.6154 50.4628C46.9381 51.9098 44.8005 52.7122 42.5854 52.7265H42.4517C39.97 52.7386 37.5851 51.7644 35.8217 50.0181C34.0583 48.2718 33.0609 45.8965 33.0488 43.4147C33.0367 40.933 34.011 38.5481 35.7573 36.7848C37.5036 35.0214 39.8789 34.0239 42.3606 34.0118C42.6023 34.0118 42.834 33.9158 43.0049 33.745C43.1757 33.5741 43.2717 33.3424 43.2717 33.1007C43.2717 32.8591 43.1757 32.6273 43.0049 32.4564C42.834 32.2856 42.6023 32.1896 42.3606 32.1896C39.3964 32.2017 36.5584 33.3908 34.4709 35.4953C32.3834 37.5999 31.2175 40.4475 31.2296 43.4117C31.2417 46.3759 32.4308 49.2139 34.5353 51.3014C36.6399 53.3889 39.4875 54.5548 42.4517 54.5427H42.5611C45.206 54.5251 47.7584 53.567 49.7616 51.8399C51.7647 50.1127 53.088 47.7291 53.4947 45.1155C53.5341 44.8824 53.4814 44.6431 53.3476 44.4482C53.2139 44.2532 53.0096 44.1179 52.7779 44.0708Z" fill="#D7D2BE"/>
</svg>
