<?xml version="1.0" encoding="utf-8"?><svg width="85" height="85" viewBox="0 0 85 85" fill="none" xmlns="http://www.w3.org/2000/svg">
<path d="M40.4107 68.4641C39.8973 68.4641 39.4807 68.048 39.4807 67.534V62.8732L35.7053 62.7498C28.8626 62.7504 25.1535 57.0926 25.1535 51.7696L25.1635 49.2852C23.7343 48.7507 21.7781 47.4709 21.3217 46.9749C19.0369 44.4948 23.3747 39.3696 24.8857 37.729C24.8045 36.9924 24.7635 36.239 24.7635 35.4838C24.7635 24.2668 34.012 15.1405 45.3797 15.1405C56.7499 15.1405 66.0001 24.2662 66.0001 35.4838C66.0001 41.1695 63.5808 46.5967 59.3472 50.4421L59.3348 67.4298C59.3342 67.9432 58.9181 68.3593 58.4047 68.3593H58.4041C57.8907 68.3593 57.4741 67.942 57.4747 67.4286L57.4871 50.0236C57.4871 49.7545 57.6036 49.4991 57.8064 49.323C61.8317 45.8173 64.1407 40.7727 64.1407 35.4838C64.1407 25.2923 55.7249 17.0006 45.3803 17.0006C35.0381 17.0006 26.6243 25.2923 26.6243 35.4838C26.6243 36.3085 26.6782 37.1294 26.7842 37.9249C26.8221 38.2045 26.7297 38.4866 26.535 38.6906C24.0517 41.2904 21.8624 44.8147 22.692 45.715C23.4026 46.4882 25.6607 47.5168 26.2107 47.7047C26.6013 47.7524 26.9293 48.0457 27.0093 48.4463C27.0223 48.5083 27.0273 48.5703 27.0273 48.6316L27.0149 51.7727C27.0149 56.3015 30.0109 60.8897 35.7363 60.8897L40.4417 61.0429C40.9433 61.059 41.3414 61.4701 41.3414 61.9723V67.5334C41.3408 68.048 40.9241 68.4641 40.4107 68.4641Z" fill="#D7D2BE"/>
<path d="M45.4809 47.0208C44.9675 47.0208 44.5509 46.6048 44.5509 46.0907V41.9037C44.5509 39.7385 45.693 37.9832 47.7663 36.9607C49.5359 36.0884 50.6787 34.2816 50.6787 32.357C50.6787 29.6053 48.4019 27.3657 45.6037 27.3657C42.8048 27.3657 40.5281 29.6047 40.5281 32.357C40.5281 32.871 40.1114 33.287 39.598 33.287C39.0846 33.287 38.668 32.871 38.668 32.357C38.668 28.5791 41.7793 25.5056 45.6037 25.5056C49.4274 25.5056 52.5388 28.5791 52.5388 32.357C52.5388 34.9841 50.988 37.4462 48.5885 38.6286C47.1438 39.3411 46.411 40.4429 46.411 41.903V46.0901C46.411 46.6048 45.9943 47.0208 45.4809 47.0208Z" fill="#D7D2BE"/>
<path d="M45.5438 53.6836C45.0304 53.6836 44.6138 53.2676 44.6138 52.7535V50.0018C44.6138 49.4878 45.0304 49.0718 45.5438 49.0718C46.0572 49.0718 46.4739 49.4878 46.4739 50.0018V52.7535C46.4739 53.2676 46.0572 53.6836 45.5438 53.6836Z" fill="#D7D2BE"/>
</svg>
