<svg width="12" height="17" viewBox="0 0 12 17" fill="none" xmlns="http://www.w3.org/2000/svg">
<path fill-rule="evenodd" clip-rule="evenodd" d="M6 1.8817C3.28922 1.8817 1.02857 4.23362 1.02857 7.21479C1.02857 8.04712 1.46717 9.16086 2.15743 10.3686C2.83631 11.5564 3.71368 12.7596 4.49786 13.7492C4.92229 14.2849 5.20174 14.6348 5.45199 14.8597C5.68022 15.0649 5.83256 15.1186 6 15.1186C6.16744 15.1186 6.31978 15.0649 6.54801 14.8597C6.79826 14.6348 7.07771 14.2849 7.50214 13.7492C8.28632 12.7596 9.16369 11.5564 9.84257 10.3686C10.5328 9.16086 10.9714 8.04712 10.9714 7.21479C10.9714 4.23362 8.71078 1.8817 6 1.8817ZM0 7.21479C0 3.74301 2.65143 0.86377 6 0.86377C9.34857 0.86377 12 3.74301 12 7.21479C12 8.32823 11.4411 9.63934 10.7378 10.8697C10.0232 12.1201 9.11117 13.3682 8.31152 14.3774L8.28485 14.411C7.89454 14.9037 7.56204 15.3234 7.23961 15.6132C6.88784 15.9294 6.49993 16.1365 6 16.1365C5.50007 16.1365 5.11216 15.9294 4.7604 15.6132C4.43797 15.3234 4.10546 14.9037 3.71515 14.411L3.68848 14.3774C2.88883 13.3682 1.97676 12.1201 1.26215 10.8697C0.55893 9.63934 0 8.32823 0 7.21479ZM3.42857 7.48034C3.42857 6.07487 4.57984 4.93551 6 4.93551C7.42016 4.93551 8.57143 6.07487 8.57143 7.48034C8.57143 8.88582 7.42016 10.0252 6 10.0252C4.57984 10.0252 3.42857 8.88582 3.42857 7.48034ZM6 5.95344C5.1479 5.95344 4.45714 6.63706 4.45714 7.48034C4.45714 8.32363 5.1479 9.00724 6 9.00724C6.8521 9.00724 7.54286 8.32363 7.54286 7.48034C7.54286 6.63706 6.8521 5.95344 6 5.95344Z" fill="white"/>
</svg>
