<svg width="240" height="44" viewBox="0 0 240 44" fill="none" xmlns="http://www.w3.org/2000/svg">
<g clip-path="url(#clip0_248_1337)">
<path d="M52.5855 6.66602H10.001V7.79406H52.5855V6.66602Z" fill="#3F4349"/>
<path d="M62.3634 21.7338C62.3634 33.7502 48.3996 43.4783 31.1979 43.4783C13.9963 43.4783 0 33.7502 0 21.7338C0 9.71735 13.9638 0 31.1979 0C48.4321 0 62.3634 9.73346 62.3634 21.7338Z" fill="#3F4349"/>
<path d="M52.8017 21.9918C52.8017 32.5686 42.9041 41.1472 30.7487 41.1472C18.5933 41.1472 8.68494 32.5525 8.68494 21.9918C8.68494 11.4311 18.5554 2.85254 30.7487 2.85254C42.942 2.85254 52.8017 11.415 52.8017 21.9918Z" fill="white"/>
<path d="M8.97168 15.3735L54.9727 15.395V16.5392H9.05831L8.97168 15.3735Z" fill="#3F4349"/>
<path d="M61.1015 15.3951H1.27209C1.4138 15.0246 1.58395 14.6655 1.78105 14.3208H60.598C60.8017 14.6613 60.9704 15.0212 61.1015 15.3951Z" fill="white"/>
<path d="M5.15955 31.5962L52.2001 31.6123L52.0864 32.8102L5.86884 32.8263L5.15955 31.5962Z" fill="#3F4349"/>
<path d="M4.21204 32.665H58.1885C58.1885 32.665 57.5442 33.4332 57.2301 33.7394C57.2301 33.7716 5.25161 33.7394 5.14873 33.7394C4.81305 33.4021 4.50014 33.0432 4.21204 32.665V32.665Z" fill="white"/>
<path d="M14.7274 5.9624H49.6126V7.30532L15.0198 7.23549L14.7274 5.9624Z" fill="#3F4349"/>
<path d="M53.2508 6.34386C53.4079 6.50501 9.1449 6.34386 9.1449 6.34386C9.1449 6.34386 10.7692 5.26953 10.8288 5.26953H51.5724C52.1527 5.59458 52.7131 5.95331 53.2508 6.34386V6.34386Z" fill="white"/>
<path d="M8.896 10.6733L51.3776 10.6841V11.839L8.95556 11.8175L8.896 10.6733Z" fill="#3F4349"/>
<path d="M58.1241 10.7488L4.29382 10.7757C4.58446 10.3909 4.89532 10.0215 5.22511 9.66911C5.27384 9.64225 57.0953 9.70134 57.1711 9.70134C57.5081 10.0327 57.8262 10.3824 58.1241 10.7488V10.7488Z" fill="white"/>
<path d="M52.0868 28.2067L5.86927 28.153L4.52649 26.6006" fill="#3F4349"/>
<path d="M4.28772 26.5737L56.4882 26.665L58.0097 28.5559" fill="#3F4349"/>
<path d="M1.34277 28.0884H61.0423C60.9032 28.4609 60.7311 28.8204 60.5279 29.1627H1.87339C1.65702 28.8252 1.47906 28.4649 1.34277 28.0884Z" fill="white"/>
<path d="M4.12062 21.734C4.21365 23.5942 4.80419 25.3963 5.83157 26.9552L55.5306 26.9283C55.5306 26.9283 57.6477 25.1718 57.404 21.6104C57.4311 17.2808 55.5036 16.5396 55.5036 16.5396H5.79909C4.70477 18.0537 4.11763 19.8708 4.12062 21.734Z" fill="white"/>
<path d="M15.5504 19.6922C14.8987 19.6548 14.2578 19.8706 13.7637 20.2938C13.5459 20.5064 13.3759 20.7622 13.2648 21.0446C13.1538 21.327 13.1042 21.6294 13.1193 21.9322C13.1193 23.3986 13.9857 24.1077 15.7237 24.1077C16.2381 24.1105 16.7514 24.0619 17.256 23.9627C17.7433 23.8713 18.2306 23.7585 18.7341 23.6511V25.37C17.6341 25.6506 16.502 25.7879 15.3663 25.7783C13.585 25.7783 12.2205 25.4452 11.2568 24.7953C10.7879 24.4769 10.4093 24.0445 10.1571 23.5395C9.90497 23.0344 9.78769 22.4736 9.81654 21.9107C9.80252 21.1678 10.0516 20.4435 10.5204 19.8641C11.0456 19.2363 11.7323 18.7611 12.5075 18.4889C13.492 18.1565 14.5268 17.9948 15.5667 18.0109C16.8124 18.0048 18.0519 18.186 19.2431 18.548L18.263 20.1595C17.8353 20.0252 17.4022 19.9178 16.9473 19.8211C16.4879 19.7273 16.0194 19.6841 15.5504 19.6922Z" fill="#3F4349"/>
<path d="M28.2087 25.6766L27.6294 24.2692H23.7797L23.1787 25.6766H19.6431L23.5252 18.1133H27.8026L31.7281 25.6927L28.2087 25.6766ZM26.9688 22.5825L26.4544 21.347C26.3299 21.0784 26.1891 20.7078 26.0159 20.2727C25.8907 19.9641 25.784 19.6484 25.6964 19.3273C25.6314 19.5207 25.5394 19.8054 25.3878 20.1975C25.2362 20.5896 24.9492 21.4061 24.4348 22.5825H26.9688Z" fill="#3F4349"/>
<path d="M40.6513 23.3992C40.644 23.632 40.5895 23.861 40.4908 24.0723C40.3922 24.2837 40.2516 24.4732 40.0774 24.6293C39.6095 25.0355 39.0537 25.3296 38.453 25.4888C37.6442 25.6901 36.8124 25.7858 35.9786 25.7735C35.3077 25.7827 34.6368 25.7504 33.9699 25.6768C33.409 25.6017 32.8562 25.4758 32.3185 25.3008V23.4851C32.9446 23.6861 33.5854 23.8387 34.2352 23.9417C34.8315 24.053 35.4369 24.1087 36.0436 24.1082C36.4 24.1311 36.7574 24.0818 37.094 23.9632C37.3214 23.8558 37.4297 23.7215 37.4297 23.555C37.4265 23.5056 37.4133 23.4573 37.391 23.413C37.3687 23.3687 37.3377 23.3293 37.2998 23.2971C37.1763 23.1837 37.0251 23.104 36.8612 23.0661C36.6554 22.9695 36.1411 22.819 35.2856 22.572C34.6822 22.4091 34.0965 22.1878 33.5367 21.9112C33.2041 21.7446 32.915 21.5037 32.6921 21.2075C32.4992 20.9106 32.4046 20.5613 32.4214 20.2084C32.4319 19.8547 32.5489 19.5121 32.7573 19.2249C32.9658 18.9377 33.2561 18.719 33.5909 18.5969C34.6288 18.1542 35.7542 17.9503 36.8828 18.0007C38.1544 18.0062 39.4191 18.1869 40.6405 18.5378L39.6604 20.1171C38.7273 19.8168 37.7553 19.6521 36.7746 19.6283C36.4642 19.6076 36.1531 19.6572 35.8649 19.7733C35.6808 19.8646 35.5726 19.9559 35.5726 20.1171C35.5726 20.2782 35.6917 20.3964 35.9353 20.5146C36.5831 20.7633 37.2448 20.9749 37.917 21.1485C38.6813 21.3191 39.4031 21.6406 40.0395 22.0939C40.2364 22.2495 40.3943 22.4484 40.5004 22.675C40.6066 22.9015 40.6583 23.1494 40.6513 23.3992V23.3992Z" fill="#3F4349"/>
<path d="M49.4067 25.6766H42.3679V18.1133H49.4067V19.757H45.5679V20.9334H49.1251V22.5771H45.5679V24.0221H49.4067V25.6766Z" fill="#3F4349"/>
<path d="M11.262 36.0171L52.2005 36.0601L52.0868 37.2203L11.8413 37.2365L11.262 36.0171Z" fill="#3F4349"/>
<path d="M9.08484 37.0806H53.3316C53.3316 37.0806 51.7072 38.1549 51.6314 38.1549H10.7741C10.1819 37.844 9.61686 37.4846 9.08484 37.0806V37.0806Z" fill="white"/>
<path d="M80.0259 7.43422C79.3517 7.41812 78.6856 7.58339 78.0984 7.91251C77.5112 8.24163 77.0247 8.72231 76.6906 9.30356C75.9073 10.5426 75.5157 12.2669 75.5157 14.4765C75.5157 19.0907 77.0317 21.3952 80.0259 21.3952C81.613 21.3295 83.173 20.9649 84.6228 20.3208V24.0219C83.0664 24.7254 81.3733 25.0811 79.6631 25.064C77.0642 25.064 75.05 24.1616 73.6802 22.3406C72.3103 20.5196 71.6011 17.8767 71.6011 14.4604C71.554 12.5285 71.8983 10.6068 72.6135 8.80937C73.1951 7.30551 74.2196 6.01022 75.5536 5.09217C76.8788 4.21969 78.4412 3.76987 80.0313 3.80297C81.8894 3.82649 83.7098 4.3261 85.3158 5.25332L84.1138 8.79863C83.4153 8.45484 82.7331 8.12179 82.0672 7.84247C81.4203 7.57505 80.7267 7.43634 80.0259 7.43422V7.43422Z" fill="#3F4349"/>
<path d="M99.4688 24.7796L98.1856 19.8376H91.6071L90.3076 24.7796H86.1873L92.533 3.99658H97.211L103.605 24.7796H99.4688ZM97.2598 16.1849C96.0361 11.721 95.3701 9.20172 95.2239 8.61621C95.0882 8.15843 94.9762 7.69408 94.8882 7.22495C94.6283 8.42821 93.8487 11.4256 92.5763 16.1849H97.2598Z" fill="#3F4349"/>
<path d="M116.481 19.0104C116.525 19.8316 116.39 20.6525 116.085 21.4172C115.781 22.182 115.313 22.8726 114.716 23.4421C113.551 24.5164 111.922 25.0536 109.843 25.0536C108.057 25.0934 106.293 24.6614 104.731 23.802V19.7249C105.716 20.2533 106.745 20.6954 107.807 21.0463C108.553 21.2888 109.333 21.4156 110.119 21.4223C110.804 21.4689 111.485 21.2791 112.046 20.8851C112.279 20.6788 112.46 20.4224 112.578 20.1357C112.695 19.8489 112.745 19.5394 112.723 19.2307C112.733 18.852 112.631 18.4788 112.431 18.1563C112.196 17.8038 111.906 17.4917 111.57 17.2324C110.813 16.7233 110.028 16.2553 109.22 15.8304C108.325 15.3748 107.495 14.804 106.751 14.133C106.202 13.5797 105.753 12.9364 105.424 12.2314C105.091 11.4184 104.929 10.5465 104.948 9.6691C104.948 7.84274 105.489 6.40313 106.572 5.37177C107.655 4.34041 109.15 3.80862 111.055 3.80862C111.972 3.79492 112.885 3.92175 113.763 4.18463C114.681 4.46208 115.573 4.82167 116.426 5.25897L115.181 8.67535C114.42 8.28745 113.627 7.96573 112.81 7.71382C112.211 7.54423 111.592 7.45569 110.969 7.45061C110.665 7.43128 110.36 7.47267 110.073 7.57232C109.786 7.67198 109.521 7.82787 109.296 8.03075C109.103 8.23118 108.952 8.46815 108.854 8.72749C108.755 8.98684 108.71 9.26324 108.722 9.54018C108.704 9.89643 108.788 10.2504 108.965 10.5608C109.146 10.887 109.393 11.1723 109.691 11.3988C110.469 11.9261 111.275 12.412 112.106 12.8545C113.8 13.7731 114.959 14.697 115.576 15.6155C116.211 16.6328 116.526 17.8148 116.481 19.0104Z" fill="#3F4349"/>
<path d="M130.109 24.7795H119.74V4.09326H130.104V7.66542H123.547V12.2045H129.654V15.7927H123.547V21.1161H130.109V24.7795Z" fill="#3F4349"/>
<path d="M154.599 4.09326L149.038 18.7203C148.555 20.118 147.896 21.4499 147.078 22.6846C146.513 23.4427 145.77 24.0515 144.912 24.4572C143.956 24.8791 142.915 25.0811 141.869 25.0481C140.895 25.055 139.925 24.9137 138.994 24.6291V20.869C139.849 21.2293 140.773 21.4015 141.701 21.3739C142.302 21.4057 142.893 21.2142 143.358 20.8367C143.877 20.3132 144.239 19.6566 144.403 18.9405L138.139 4.09326H142.189L146.601 15.6316H146.731L146.959 14.9118L150.678 4.09326H154.599Z" fill="#3F4349"/>
<path d="M165.59 8.98145H169.737L164.296 16.5609L170.203 24.7795H165.942L160.306 16.722V24.7795H156.559V8.98145H160.306V16.6468L165.59 8.98145Z" fill="#3F4349"/>
<path d="M179.749 25.0481C178.995 25.0655 178.25 24.8891 177.586 24.5361C176.922 24.1831 176.361 23.6655 175.958 23.0337H175.758C175.888 24.3444 175.958 25.1286 175.958 25.3166V31.7304H172.201V8.9814H175.26L175.801 11.0334H175.98C176.333 10.3086 176.89 9.70075 177.584 9.28323C178.278 8.86572 179.078 8.65641 179.889 8.68059C180.662 8.66803 181.423 8.86062 182.096 9.23842C182.768 9.61622 183.326 10.1655 183.712 10.8293C184.616 12.2796 185.071 14.2779 185.071 16.8616C185.1 18.3489 184.886 19.831 184.437 21.2503C184.097 22.348 183.46 23.3325 182.597 24.0973C181.792 24.7412 180.782 25.0784 179.749 25.0481ZM178.633 12.1131C178.237 12.085 177.841 12.1611 177.485 12.3338C177.128 12.5064 176.824 12.7694 176.603 13.0961C176.186 13.7407 175.958 14.8312 175.937 16.3191V16.8133C175.937 18.4893 176.143 19.7032 176.603 20.4445C176.806 20.8061 177.109 21.1027 177.477 21.2996C177.844 21.4965 178.26 21.5856 178.676 21.5565C180.377 21.5565 181.205 19.945 181.205 16.7703C181.274 15.5758 181.066 14.3816 180.599 13.2787C180.422 12.9149 180.142 12.6105 179.792 12.4033C179.443 12.1961 179.04 12.0952 178.633 12.1131V12.1131Z" fill="#3F4349"/>
<path d="M196.89 24.7796L196.154 22.6309H196.056C195.567 23.4152 194.897 24.0725 194.101 24.5486C193.286 24.9335 192.389 25.1178 191.486 25.0858C190.902 25.1171 190.319 25.0175 189.779 24.7943C189.239 24.5711 188.756 24.2301 188.368 23.7966C187.549 22.7341 187.145 21.4139 187.231 20.0794C187.231 18.3927 187.741 17.1536 188.763 16.3622C189.786 15.5725 191.346 15.1321 193.376 15.0622L195.775 14.9655V14.2619C195.775 12.6504 195.054 11.8554 193.609 11.8554C192.244 11.9284 190.917 12.3244 189.737 13.0103L188.503 10.0558C190.09 9.09957 191.915 8.60277 193.771 8.62161C195.628 8.62161 197.02 9.08894 198.032 9.99676C199.045 10.9046 199.5 12.3173 199.5 14.2189V24.7688L196.89 24.7796ZM195.775 17.4204L194.323 17.501C193.458 17.4641 192.603 17.7011 191.882 18.1778C191.609 18.4099 191.395 18.7026 191.258 19.0321C191.12 19.3616 191.063 19.7185 191.091 20.074C191.091 21.2934 191.687 21.9004 192.91 21.9004C193.301 21.9166 193.691 21.8476 194.052 21.6982C194.413 21.5488 194.737 21.3226 195 21.0355C195.54 20.3943 195.818 19.5761 195.78 18.7418L195.775 17.4204Z" fill="#3F4349"/>
<path d="M201.066 4.88287C201.032 4.37494 201.199 3.87389 201.531 3.48623C201.694 3.3195 201.89 3.18951 202.108 3.10515C202.326 3.02079 202.559 2.98404 202.793 2.99741C203.027 2.97996 203.262 3.01644 203.48 3.10402C203.698 3.19161 203.893 3.32793 204.049 3.50235C204.379 3.88538 204.548 4.37974 204.52 4.88287C204.542 5.38524 204.374 5.87767 204.049 6.26339C203.891 6.43816 203.698 6.57677 203.481 6.66955C203.264 6.76232 203.029 6.80703 202.793 6.80055C202.56 6.81082 202.327 6.77263 202.11 6.68845C201.893 6.60427 201.695 6.47595 201.531 6.31173C201.197 5.91224 201.03 5.40076 201.066 4.88287V4.88287ZM207.141 24.758H203.35V8.98145H207.141V24.758ZM206.058 4.88287C206.033 4.6224 206.065 4.3597 206.151 4.11236C206.236 3.86501 206.375 3.63872 206.556 3.44863C206.72 3.2969 206.912 3.17889 207.122 3.10144C207.332 3.02399 207.556 2.98863 207.779 2.99741C208.017 2.98066 208.255 3.01736 208.477 3.1048C208.698 3.19223 208.896 3.32813 209.057 3.50235C209.224 3.68994 209.352 3.90861 209.433 4.14562C209.514 4.38264 209.546 4.63326 209.528 4.88287C209.557 5.38615 209.388 5.88092 209.057 6.26339C208.893 6.43494 208.694 6.57114 208.475 6.66354C208.255 6.75594 208.018 6.80258 207.779 6.80055C207.326 6.80698 206.888 6.63957 206.556 6.33322C206.372 6.14127 206.23 5.91276 206.142 5.66276C206.053 5.41276 206.019 5.14695 206.041 4.88287H206.058Z" fill="#3F4349"/>
<path d="M214.823 8.98145V15.0568H220.065V8.98145H223.806V24.801H220.048V18.2422H214.807V24.7795H211.06V8.98145H214.823Z" fill="#3F4349"/>
<path d="M236.508 24.7796L235.787 22.631H235.679C235.19 23.4114 234.525 24.0681 233.735 24.5486C232.914 24.9323 232.012 25.1164 231.104 25.0858C230.522 25.1183 229.941 25.0191 229.403 24.7957C228.866 24.5724 228.386 24.2307 228.001 23.7966C227.177 22.7366 226.769 21.4156 226.854 20.0794C226.854 18.3927 227.395 17.1572 228.381 16.3622C229.366 15.5672 230.952 15.1321 232.999 15.0623L235.392 14.9656V14.2619C235.392 12.6504 234.672 11.8554 233.226 11.8554C231.858 11.9267 230.527 12.3228 229.344 13.0103L228.137 10.0559C229.725 9.09866 231.552 8.60182 233.41 8.62167C235.251 8.62167 236.659 9.089 237.672 9.99681C238.684 10.9046 239.15 12.3174 239.15 14.2189V24.7689L236.508 24.7796ZM235.392 17.4205L233.941 17.501C233.079 17.4646 232.227 17.7017 231.51 18.1779C231.233 18.4066 231.015 18.6984 230.875 19.0286C230.736 19.3587 230.679 19.7173 230.709 20.0741C230.709 21.2934 231.31 21.9004 232.528 21.9004C232.919 21.9193 233.31 21.8515 233.671 21.7019C234.033 21.5523 234.356 21.3247 234.618 21.0356C235.153 20.3925 235.429 19.5752 235.392 18.7419V17.4205Z" fill="#3F4349"/>
<path d="M78.011 38.649H78.6499V40.8514H78.0381V39.2882H73.8582V33.272H74.4971V38.6436H77.3667V33.272H78.011V38.649Z" fill="#3F4349"/>
<path d="M81.4333 39.3689C81.1624 39.3811 80.8922 39.3334 80.6422 39.2294C80.3922 39.1254 80.1686 38.9675 79.9876 38.7672C79.6 38.2862 79.4069 37.6791 79.4462 37.0644C79.4053 36.4488 79.5793 35.838 79.9389 35.3347C80.0879 35.1292 80.285 34.9627 80.5132 34.8495C80.7415 34.7363 80.994 34.6797 81.2492 34.6848C81.4864 34.6695 81.724 34.7102 81.9423 34.8036C82.1606 34.897 82.3536 35.0403 82.5053 35.2219C82.8215 35.6463 82.9785 36.1668 82.9493 36.6938V37.1396H80.0959C80.0805 37.5701 80.21 37.9935 80.4641 38.3429C80.5874 38.4779 80.7391 38.5844 80.9084 38.6549C81.0777 38.7254 81.2606 38.7583 81.4441 38.7511C81.9117 38.752 82.3732 38.6453 82.7923 38.4396V39.0627C82.5806 39.1572 82.3637 39.2397 82.1425 39.3098C81.9081 39.3486 81.6709 39.3684 81.4333 39.3689V39.3689ZM81.2546 35.2542C81.1058 35.2508 80.9581 35.2805 80.8223 35.3409C80.6865 35.4013 80.566 35.4909 80.4695 35.6033C80.2564 35.8931 80.1339 36.2387 80.1175 36.5971H82.2833C82.2935 36.2473 82.2014 35.9022 82.018 35.6033C81.9267 35.4908 81.8101 35.4011 81.6775 35.3414C81.5449 35.2817 81.4001 35.2536 81.2546 35.2595V35.2542Z" fill="#3F4349"/>
<path d="M84.8605 34.7656V36.6672H87.1887V34.7656H87.8114V39.2832H87.1887V37.2581H84.8605V39.2832H84.2271V34.7656H84.8605Z" fill="#3F4349"/>
<path d="M92.154 35.3619H90.7842V39.2886H90.1615V35.3619H88.8187V34.7656H92.1594L92.154 35.3619Z" fill="#3F4349"/>
<path d="M95.0939 39.369C94.8314 39.3686 94.5718 39.3156 94.3305 39.2132C94.1121 39.09 93.9265 38.9169 93.789 38.7083H93.7349C93.7349 38.9769 93.789 39.2455 93.789 39.4657V41.3189H93.1393V34.7655H93.6807L93.7728 35.3886H93.8107C93.9433 35.1677 94.1294 34.9831 94.3521 34.8514C94.5843 34.7325 94.8436 34.6751 95.1047 34.6849C95.35 34.6746 95.594 34.7247 95.815 34.8306C96.0361 34.9365 96.2273 35.095 96.3717 35.2919C96.693 35.8141 96.8442 36.4218 96.8048 37.0323C96.8516 37.6389 96.6935 38.2437 96.3554 38.7513C96.2128 38.9494 96.0229 39.1095 95.8028 39.2173C95.5827 39.325 95.3392 39.3772 95.0939 39.369V39.369ZM95.0073 35.2543C94.8285 35.2374 94.6483 35.2649 94.4829 35.3343C94.3175 35.4037 94.1721 35.5128 94.0597 35.6518C93.8567 36.0195 93.7629 36.4367 93.789 36.8551V37.027C93.7452 37.4929 93.8393 37.9615 94.0597 38.3752C94.1725 38.5168 94.3194 38.628 94.4869 38.6984C94.6544 38.7688 94.8371 38.7962 95.0181 38.7781C95.187 38.7846 95.3543 38.7437 95.5009 38.66C95.6474 38.5764 95.7672 38.4535 95.8465 38.3054C96.0808 37.9134 96.1903 37.4603 96.1605 37.0055C96.1955 36.5536 96.0856 36.1024 95.8465 35.7163C95.7614 35.5719 95.6383 35.4532 95.4905 35.3728C95.3427 35.2924 95.1757 35.2533 95.0073 35.2597V35.2543Z" fill="#3F4349"/>
<path d="M101.981 39.369C101.715 39.3838 101.449 39.3372 101.203 39.2328C100.958 39.1284 100.741 38.9691 100.568 38.7674C100.208 38.2743 100.034 37.6718 100.075 37.0645C100.031 36.4435 100.205 35.8264 100.568 35.3187C100.741 35.1083 100.962 34.9413 101.212 34.8312C101.462 34.7211 101.735 34.671 102.008 34.6849C102.21 34.6919 102.411 34.7135 102.609 34.7494C102.776 34.7853 102.936 34.845 103.086 34.9266L102.88 35.5014C102.74 35.4388 102.595 35.3867 102.447 35.3456C102.293 35.3188 102.137 35.3044 101.981 35.3026C101.126 35.3026 100.72 35.8881 100.72 37.0592C100.684 37.512 100.792 37.9645 101.028 38.3537C101.131 38.498 101.27 38.6134 101.431 38.6887C101.593 38.7639 101.771 38.7966 101.949 38.7835C102.313 38.7838 102.672 38.7011 102.999 38.5417V39.1487C102.683 39.3045 102.334 39.3802 101.981 39.369V39.369Z" fill="#3F4349"/>
<path d="M107.79 37.0323C107.822 37.6468 107.641 38.2536 107.276 38.7512C107.098 38.9552 106.876 39.1167 106.627 39.2237C106.377 39.3307 106.107 39.3803 105.835 39.369C105.491 39.3699 105.153 39.275 104.861 39.095C104.559 38.8943 104.328 38.6051 104.2 38.2678C104.03 37.878 103.943 37.4572 103.946 37.0323C103.919 36.4077 104.11 35.793 104.487 35.2919C104.661 35.0911 104.878 34.9325 105.123 34.8282C105.368 34.7239 105.634 34.6767 105.9 34.6903C106.164 34.681 106.426 34.7336 106.665 34.8437C106.904 34.9539 107.113 35.1185 107.276 35.3241C107.645 35.8156 107.827 36.4206 107.79 37.0323V37.0323ZM104.601 37.0323C104.574 37.4934 104.687 37.9518 104.926 38.3484C105.03 38.4933 105.17 38.6093 105.332 38.6855C105.494 38.7617 105.673 38.7954 105.852 38.7835C106.035 38.797 106.218 38.7642 106.385 38.688C106.551 38.6119 106.696 38.4951 106.805 38.3484C107.016 37.9393 107.126 37.4864 107.126 37.0269C107.126 36.5675 107.016 36.1146 106.805 35.7055C106.698 35.5559 106.554 35.4359 106.387 35.3569C106.221 35.2779 106.036 35.2426 105.852 35.2543C105.671 35.2414 105.49 35.2764 105.327 35.3557C105.165 35.435 105.026 35.5557 104.926 35.7055C104.681 36.1035 104.567 36.5673 104.601 37.0323Z" fill="#3F4349"/>
<path d="M113.129 40.8517H112.49V39.2886H109.063V34.7656H109.702V38.7031H111.906V34.7656H112.544V38.7031H113.129V40.8517Z" fill="#3F4349"/>
<path d="M114.049 33.5459C114.046 33.4218 114.086 33.3003 114.163 33.2022C114.234 33.1325 114.328 33.0905 114.428 33.084C114.532 33.0928 114.631 33.1341 114.71 33.2022C114.77 33.3066 114.798 33.426 114.791 33.5459C114.799 33.6695 114.771 33.7927 114.71 33.9005C114.629 33.964 114.531 34.0031 114.428 34.0133C114.33 34.0053 114.237 33.9657 114.163 33.9005C114.09 33.7964 114.05 33.6728 114.049 33.5459V33.5459ZM114.731 39.2883H114.109V34.7653H114.731V39.2883Z" fill="#3F4349"/>
<path d="M118.825 39.2887L118.695 38.6495H118.657C118.506 38.8881 118.298 39.0857 118.05 39.2242C117.799 39.3241 117.531 39.3734 117.26 39.3693C117.087 39.3781 116.914 39.3523 116.751 39.2932C116.588 39.2341 116.439 39.1431 116.312 39.0255C116.188 38.8916 116.093 38.7339 116.032 38.5621C115.972 38.3902 115.947 38.2079 115.961 38.0263C115.961 37.1185 116.616 36.6566 117.975 36.5975H118.679V36.3182C118.709 36.0347 118.634 35.75 118.467 35.5178C118.381 35.4316 118.276 35.365 118.162 35.3223C118.047 35.2797 117.924 35.2621 117.801 35.2707C117.384 35.2911 116.977 35.4109 116.616 35.6198L116.426 35.0827C116.64 34.9593 116.87 34.8636 117.108 34.798C117.346 34.7395 117.589 34.7106 117.834 34.712C118.224 34.679 118.612 34.7963 118.917 35.0397C119.187 35.3661 119.317 35.7846 119.28 36.2053V39.2833L118.825 39.2887ZM117.401 38.7999C117.573 38.8143 117.746 38.7889 117.907 38.7255C118.068 38.6621 118.211 38.5625 118.327 38.4346C118.56 38.1716 118.678 37.8279 118.657 37.4784V37.0594L118.034 37.0863C117.658 37.0792 117.286 37.1641 116.951 37.3334C116.839 37.413 116.75 37.5203 116.692 37.6446C116.634 37.7689 116.609 37.906 116.621 38.0425C116.614 38.145 116.628 38.248 116.663 38.3449C116.697 38.4419 116.751 38.5309 116.821 38.6065C116.981 38.7448 117.189 38.816 117.401 38.8052V38.7999Z" fill="#3F4349"/>
<path d="M123.887 39.2881H123.232V35.3614H121.987C121.946 36.1437 121.854 36.9225 121.71 37.6927C121.63 38.1369 121.468 38.5629 121.234 38.9497C121.154 39.0718 121.044 39.1717 120.914 39.2403C120.784 39.3088 120.639 39.3438 120.492 39.3418C120.378 39.3393 120.265 39.3212 120.156 39.2881V38.7885C120.225 38.7962 120.294 38.7962 120.362 38.7885C120.638 38.7885 120.871 38.477 121.061 37.7894C121.276 36.7907 121.401 35.7751 121.434 34.7544H123.892L123.887 39.2881Z" fill="#3F4349"/>
<path d="M126.021 36.635H127.309C128.36 36.635 128.901 37.0647 128.901 37.9081C128.918 38.0971 128.888 38.2874 128.816 38.4631C128.743 38.6387 128.63 38.7947 128.484 38.9179C128.141 39.1873 127.708 39.3195 127.271 39.2886H125.393V34.7656H126.021V36.635ZM126.021 37.2258V38.7138H127.239C127.496 38.7249 127.751 38.6595 127.97 38.5258C128.06 38.4595 128.132 38.3714 128.178 38.2699C128.225 38.1683 128.244 38.0568 128.235 37.9456C128.245 37.8428 128.228 37.7391 128.186 37.6448C128.143 37.5505 128.076 37.4691 127.992 37.4085C127.755 37.2576 127.475 37.1895 127.196 37.2151L126.021 37.2258Z" fill="#3F4349"/>
<path d="M130.829 34.7656V36.6672H133.141V34.7656H133.769V39.2832H133.141V37.2581H130.829V39.2832H130.184V34.7656H130.829Z" fill="#3F4349"/>
<path d="M138.875 37.0323C138.911 37.6449 138.736 38.2516 138.376 38.7513C138.2 38.9551 137.979 39.1166 137.731 39.2236C137.482 39.3306 137.212 39.3803 136.942 39.369C136.598 39.3677 136.261 39.2729 135.967 39.095C135.666 38.8886 135.429 38.6018 135.285 38.2678C135.131 37.8738 135.054 37.4547 135.057 37.0323C135.025 36.4069 135.217 35.7903 135.599 35.2919C135.773 35.091 135.992 34.9324 136.238 34.8281C136.484 34.7238 136.75 34.6767 137.017 34.6903C137.283 34.6827 137.547 34.7359 137.788 34.8459C138.029 34.9558 138.242 35.1195 138.409 35.3241C138.754 35.825 138.918 36.4271 138.875 37.0323V37.0323ZM135.713 37.0323C135.681 37.4924 135.79 37.9512 136.027 38.3484C136.133 38.4911 136.273 38.6055 136.434 38.6814C136.596 38.7574 136.774 38.7924 136.952 38.7835C137.135 38.797 137.319 38.7642 137.486 38.6881C137.652 38.6119 137.797 38.4951 137.905 38.3484C138.116 37.9393 138.226 37.4864 138.226 37.027C138.226 36.5675 138.116 36.1146 137.905 35.7055C137.799 35.5559 137.655 35.4359 137.488 35.3569C137.321 35.2779 137.137 35.2426 136.952 35.2543C136.772 35.2463 136.592 35.2834 136.429 35.3622C136.266 35.441 136.126 35.5591 136.021 35.7055C135.787 36.1069 135.681 36.5698 135.718 37.0323H135.713Z" fill="#3F4349"/>
<path d="M139.828 37.3384V36.7153H141.69V37.3384H139.828Z" fill="#3F4349"/>
<path d="M144.609 39.3688C144.337 39.3807 144.065 39.333 143.813 39.229C143.561 39.125 143.336 38.9673 143.153 38.7671C142.77 38.2834 142.578 37.6783 142.611 37.0643C142.572 36.4481 142.748 35.8373 143.109 35.3346C143.259 35.125 143.46 34.9558 143.692 34.8423C143.925 34.7289 144.182 34.6747 144.441 34.6847C144.676 34.6741 144.909 34.717 145.124 34.8101C145.339 34.9033 145.53 35.0441 145.681 35.2218C146.001 35.6453 146.163 36.1651 146.141 36.6937V37.1395H143.255C143.238 37.5712 143.37 37.9958 143.629 38.3428C143.752 38.4786 143.903 38.5858 144.073 38.6564C144.242 38.727 144.425 38.7593 144.609 38.751C145.073 38.7534 145.532 38.6466 145.946 38.4395V39.0626C145.742 39.1602 145.53 39.2428 145.313 39.3097C145.08 39.3473 144.845 39.3671 144.609 39.3688V39.3688ZM144.452 35.2541C144.3 35.2475 144.148 35.2755 144.008 35.336C143.868 35.3965 143.744 35.4879 143.645 35.6032C143.43 35.8921 143.308 36.2383 143.293 36.597H145.459C145.482 36.2459 145.389 35.8969 145.194 35.6032C145.107 35.4914 144.994 35.4019 144.865 35.3421C144.736 35.2823 144.594 35.2539 144.452 35.2594V35.2541Z" fill="#3F4349"/>
<path d="M149.844 34.7656H150.516L148.734 36.9465L150.678 39.2832H149.947L148.003 37.011V39.2886H147.37V34.7656H148.003V36.9573L149.844 34.7656Z" fill="#3F4349"/>
<path d="M155.22 37.0321C155.245 37.6498 155.054 38.257 154.679 38.751C154.505 38.9564 154.285 39.119 154.037 39.2261C153.789 39.3333 153.52 39.3821 153.25 39.3688C152.905 39.3703 152.567 39.2753 152.275 39.0948C151.974 38.8902 151.741 38.6026 151.604 38.2676C151.431 37.8784 151.345 37.4572 151.349 37.0321C151.323 36.4075 151.514 35.793 151.891 35.2917C152.069 35.099 152.286 34.9457 152.527 34.8416C152.769 34.7375 153.03 34.6851 153.294 34.6876C153.557 34.6901 153.817 34.7476 154.057 34.8563C154.296 34.965 154.51 35.1225 154.684 35.3186C155.056 35.8119 155.245 36.4169 155.22 37.0321ZM152.053 37.0321C152.018 37.4918 152.126 37.9511 152.362 38.3482C152.468 38.4917 152.609 38.6066 152.772 38.6825C152.934 38.7585 153.114 38.7931 153.293 38.7833C153.476 38.7968 153.659 38.764 153.826 38.6878C153.993 38.6117 154.137 38.4949 154.246 38.3482C154.449 37.9368 154.555 37.4848 154.555 37.0267C154.555 36.5687 154.449 36.1167 154.246 35.7053C154.139 35.5557 153.995 35.4357 153.829 35.3567C153.662 35.2777 153.477 35.2424 153.293 35.2541C153.112 35.243 152.931 35.2787 152.767 35.3578C152.604 35.4369 152.464 35.5566 152.362 35.7053C152.118 36.1032 152.008 36.568 152.048 37.0321H152.053Z" fill="#3F4349"/>
<path d="M157.132 34.7656V36.6672H159.46V34.7656H160.088V39.2832H159.46V37.2581H157.132V39.2832H156.504V34.7656H157.132Z" fill="#3F4349"/>
<path d="M165.21 37.0324C165.25 37.647 165.07 38.2557 164.701 38.7514C164.527 38.9537 164.309 39.1143 164.063 39.2213C163.818 39.3282 163.551 39.3788 163.283 39.3691C162.935 39.3738 162.592 39.2787 162.297 39.0952C161.991 38.8956 161.754 38.6065 161.621 38.2679C161.448 37.8791 161.365 37.4571 161.377 37.0324C161.343 36.4118 161.522 35.7981 161.886 35.292C162.066 35.0997 162.284 34.9468 162.527 34.843C162.77 34.7393 163.032 34.687 163.297 34.6895C163.561 34.6921 163.822 34.7493 164.063 34.8577C164.304 34.9661 164.52 35.1232 164.696 35.3189C165.063 35.8132 165.245 36.4193 165.21 37.0324V37.0324ZM162.038 37.0324C162.007 37.4931 162.118 37.9521 162.357 38.3485C162.461 38.4934 162.601 38.6095 162.763 38.6856C162.925 38.7618 163.104 38.7955 163.283 38.7836C163.465 38.7962 163.647 38.7629 163.813 38.6868C163.979 38.6108 164.122 38.4944 164.23 38.3485C164.447 37.9411 164.56 37.4875 164.56 37.0271C164.56 36.5666 164.447 36.1131 164.23 35.7056C164.124 35.5568 163.981 35.4373 163.815 35.3583C163.65 35.2794 163.466 35.2436 163.283 35.2544C163.102 35.241 162.921 35.2757 162.758 35.3551C162.595 35.4344 162.457 35.5554 162.357 35.7056C162.112 36.1035 162.001 36.5678 162.038 37.0324V37.0324Z" fill="#3F4349"/>
<path d="M168.649 38.6332L168.768 38.2572L168.93 37.763L170.067 34.7871H170.869V39.2939H170.327V35.5714L170.251 35.8024L170.035 36.4362L168.952 39.2886H168.411L167.328 36.4255C167.219 36.1459 167.125 35.8608 167.046 35.5714V39.2886H166.505V34.7656H167.268L168.351 37.6287C168.479 37.9544 168.579 38.2905 168.649 38.6332V38.6332Z" fill="#3F4349"/>
<path d="M172.325 33.5461C172.323 33.4212 172.365 33.2997 172.444 33.2023C172.479 33.1639 172.521 33.1334 172.569 33.113C172.617 33.0926 172.668 33.0827 172.72 33.0841C172.817 33.0965 172.908 33.1377 172.98 33.2023C173.046 33.3048 173.078 33.4248 173.072 33.5461C173.079 33.6709 173.047 33.7948 172.98 33.9006C172.905 33.9605 172.815 33.9994 172.72 34.0134C172.669 34.0138 172.618 34.0041 172.571 33.9847C172.523 33.9653 172.48 33.9367 172.444 33.9006C172.366 33.7989 172.324 33.6741 172.325 33.5461V33.5461ZM173.029 39.2884H172.368V34.7654H173.007L173.029 39.2884Z" fill="#3F4349"/>
<path d="M175.076 34.7656V36.4201C175.076 36.9573 175.346 37.199 175.91 37.199C176.133 37.2045 176.356 37.1662 176.565 37.0862C176.817 36.985 177.057 36.8553 177.279 36.6994V34.7656H177.908V39.2832H177.279V37.2366C177.057 37.4131 176.809 37.5545 176.543 37.6556C176.296 37.7413 176.036 37.7867 175.774 37.7899C175.597 37.8 175.419 37.7728 175.253 37.7099C175.086 37.6471 174.935 37.5501 174.81 37.4254C174.684 37.3006 174.586 37.1508 174.523 36.9859C174.46 36.821 174.432 36.6446 174.442 36.4684V34.7656H175.076Z" fill="#3F4349"/>
<path d="M180.083 34.7656V36.6672H182.411V34.7656H183.045V39.2832H182.411V37.2581H180.083V39.2832H179.455V34.7656H180.083Z" fill="#3F4349"/>
<path d="M185.146 34.7656V38.3808V38.6117L187.399 34.7656H188.189V39.2832H187.588V36.5383V35.9635V35.4263L185.363 39.2886H184.594V34.7656H185.146Z" fill="#3F4349"/>
<path d="M190.679 36.9783L189.217 34.7705H189.97L191.053 36.5109L192.136 34.7705H192.84L191.394 36.9783L192.932 39.2881H192.211L191.047 37.451L189.878 39.2827H189.152L190.679 36.9783Z" fill="#3F4349"/>
<path d="M199.743 40.8517H199.126V39.2886H196.224V40.8517H195.65V38.7031H195.959C196.314 38.153 196.576 37.5487 196.733 36.9143C196.928 36.2145 197.024 35.4915 197.02 34.7656H199.142V38.7031H199.727L199.743 40.8517ZM198.558 38.7031V35.3028H197.61C197.578 35.9282 197.467 36.5472 197.28 37.1453C197.138 37.6941 196.908 38.2166 196.598 38.6923L198.558 38.7031Z" fill="#3F4349"/>
<path d="M204.357 37.0321C204.394 37.6447 204.218 38.2513 203.859 38.751C203.681 38.9541 203.459 39.115 203.209 39.2219C202.96 39.3287 202.69 39.3789 202.419 39.3688C202.066 39.3765 201.72 39.2745 201.428 39.077C201.137 38.8795 200.915 38.5964 200.794 38.2676C200.628 37.8771 200.547 37.456 200.556 37.0321C200.515 36.414 200.695 35.8014 201.065 35.3024C201.237 35.1011 201.454 34.942 201.698 34.8376C201.942 34.7332 202.207 34.6864 202.473 34.7008C202.738 34.6902 203.002 34.7422 203.243 34.8524C203.484 34.9626 203.695 35.1278 203.859 35.3346C204.222 35.8245 204.398 36.4257 204.357 37.0321V37.0321ZM201.195 37.0321C201.163 37.4929 201.274 37.9524 201.515 38.3481C201.617 38.4926 201.754 38.6085 201.915 38.6847C202.075 38.7609 202.252 38.7948 202.43 38.7832C202.613 38.7977 202.798 38.7653 202.966 38.6892C203.133 38.613 203.279 38.4956 203.388 38.3481C203.596 37.9384 203.705 37.4857 203.705 37.0267C203.705 36.5677 203.596 36.1151 203.388 35.7053C203.281 35.5548 203.136 35.4343 202.968 35.3553C202.8 35.2763 202.615 35.2414 202.43 35.2541C202.246 35.2453 202.062 35.282 201.896 35.3607C201.73 35.4394 201.586 35.5578 201.477 35.7053C201.262 36.1134 201.164 36.5725 201.195 37.0321V37.0321Z" fill="#3F4349"/>
<path d="M207.308 39.3688C207.045 39.3876 206.781 39.3427 206.54 39.2379C206.298 39.133 206.086 38.9715 205.922 38.7672C205.556 38.2763 205.378 37.6731 205.418 37.0644C205.377 36.4347 205.561 35.8109 205.938 35.3024C206.105 35.0918 206.32 34.9242 206.566 34.8139C206.812 34.7035 207.082 34.6537 207.351 34.6686C207.555 34.6745 207.757 34.696 207.957 34.733C208.126 34.7635 208.287 34.8235 208.434 34.9103L208.234 35.4851C208.091 35.4231 207.945 35.371 207.795 35.3293C207.645 35.2969 207.493 35.2771 207.34 35.2702C206.49 35.2702 206.079 35.8557 206.079 37.0268C206.053 37.4795 206.162 37.9297 206.393 38.3213C206.497 38.4648 206.636 38.5796 206.797 38.6548C206.958 38.73 207.136 38.7631 207.313 38.7511C207.688 38.7552 208.059 38.6724 208.396 38.5093V39.1163C208.06 39.289 207.686 39.3758 207.308 39.3688Z" fill="#3F4349"/>
<path d="M212.636 39.2881H212.002V35.3614H210.741C210.691 36.1431 210.597 36.9214 210.459 37.6927C210.385 38.137 210.227 38.5635 209.994 38.9497C209.91 39.0695 209.798 39.1676 209.668 39.2359C209.538 39.3041 209.394 39.3404 209.246 39.3418C209.136 39.3385 209.027 39.3204 208.922 39.2881V38.7885C208.986 38.7969 209.052 38.7969 209.117 38.7885C209.404 38.7885 209.658 38.477 209.815 37.7894C210.028 36.7906 210.149 35.7748 210.178 34.7544H212.636V39.2881Z" fill="#3F4349"/>
<path d="M214.092 33.5459C214.086 33.4239 214.12 33.3033 214.189 33.2022C214.262 33.1347 214.355 33.0931 214.455 33.084C214.557 33.0916 214.655 33.1332 214.731 33.2022C214.812 33.2981 214.854 33.4207 214.85 33.5459C214.854 33.6745 214.812 33.8003 214.731 33.9005C214.652 33.9649 214.556 34.0043 214.455 34.0133C214.357 34.0031 214.264 33.9638 214.189 33.9005C214.122 33.7946 214.088 33.6711 214.092 33.5459V33.5459ZM214.779 39.2883H214.146V34.7653H214.779V39.2883Z" fill="#3F4349"/>
<path d="M219.918 40.8512H219.301V39.2881H216.382V40.8512H215.787V38.7026H216.112C216.474 38.1564 216.742 37.5535 216.902 36.9192C217.108 36.2214 217.21 35.4975 217.205 34.7705H219.312V38.7079H219.918V40.8512ZM218.711 38.7026V35.3023H217.779C217.732 35.9259 217.621 36.5432 217.449 37.1448C217.306 37.6958 217.07 38.2189 216.751 38.6918L218.711 38.7026Z" fill="#3F4349"/>
<path d="M222.83 34.7656H223.399V36.9412L225.148 34.7656H225.814L224.081 36.9412L225.96 39.2671H225.245L223.399 36.9895V39.2671H222.83V36.9895L221 39.2671H220.286L222.159 36.9412L220.41 34.7656H221.098L222.814 36.9412L222.83 34.7656Z" fill="#3F4349"/>
<path d="M228.598 39.369C228.325 39.3803 228.052 39.3323 227.8 39.2284C227.547 39.1244 227.321 38.9671 227.136 38.7674C226.755 38.2828 226.563 37.6783 226.594 37.0646C226.562 36.4467 226.744 35.8364 227.109 35.3349C227.259 35.1253 227.459 34.9561 227.692 34.8426C227.924 34.7291 228.182 34.6749 228.441 34.6849C228.674 34.6735 228.906 34.7161 229.119 34.8094C229.333 34.9026 229.521 35.0439 229.67 35.2221C229.993 35.6435 230.154 36.1653 230.125 36.6939V37.1398H227.266C227.241 37.5715 227.371 37.998 227.634 38.343C227.757 38.4783 227.909 38.585 228.078 38.6556C228.247 38.7261 228.43 38.7588 228.614 38.7513C229.076 38.7506 229.532 38.644 229.946 38.4397V39.0628C229.742 39.1589 229.532 39.2415 229.318 39.3099C229.08 39.3484 228.839 39.3681 228.598 39.369V39.369ZM228.441 35.2543C228.288 35.2473 228.136 35.2752 227.996 35.3357C227.856 35.3962 227.732 35.4878 227.634 35.6035C227.414 35.8908 227.286 36.2369 227.266 36.5972H229.432C229.455 36.2476 229.365 35.8998 229.177 35.6035C229.089 35.4926 228.976 35.4038 228.847 35.3441C228.719 35.2844 228.577 35.2555 228.435 35.2597L228.441 35.2543Z" fill="#3F4349"/>
<path d="M232.008 34.7656V36.6672H234.347V34.7656H234.986V39.2832H234.347V37.2581H232.008V39.2832H231.385V34.7656H232.008Z" fill="#3F4349"/>
<path d="M237.114 36.635H238.425C239.507 36.635 240.049 37.0647 240.049 37.9081C240.065 38.0966 240.036 38.2862 239.964 38.4616C239.893 38.637 239.781 38.7933 239.637 38.9179C239.291 39.1849 238.857 39.3167 238.419 39.2886H236.535V34.7656H237.158L237.114 36.635ZM237.114 37.2258V38.7138H238.327C238.597 38.7326 238.867 38.6708 239.101 38.5365C239.189 38.4676 239.259 38.3792 239.306 38.2785C239.353 38.1777 239.376 38.0674 239.372 37.9564C239.376 37.8553 239.357 37.7545 239.317 37.6616C239.277 37.5686 239.216 37.4858 239.139 37.4192C238.891 37.2677 238.601 37.1999 238.311 37.2258H237.114Z" fill="#3F4349"/>
</g>
<defs>
<clipPath id="clip0_248_1337">
<rect width="240" height="43.4783" fill="white"/>
</clipPath>
</defs>
</svg>
