<svg width="535" height="325" viewBox="0 0 535 325" fill="none" xmlns="http://www.w3.org/2000/svg">
<path d="M310.437 73.8473V79.4957L349.282 73.073V32.5046L315.121 38.1531V32.5046L276.276 38.9274V79.4957L310.437 73.8473ZM309.161 81V75.3516L275 81V37.845L316.396 31.0004V36.6488L350.558 31.0004V74.1553L309.161 81Z" fill="#FFCD00"/>
<path d="M295.334 51.6751C294.157 51.6751 293.569 52.4894 293.569 54.1178V54.2705C293.569 55.8672 294.164 56.6655 295.353 56.6655C296.504 56.6655 297.093 55.9021 297.118 54.3754V54.0701C297.118 52.4735 296.524 51.6751 295.334 51.6751ZM295.935 49.1942C297.284 49.1942 298.354 49.6364 299.146 50.5206C299.938 51.4049 300.334 52.6102 300.334 54.1368V54.2705C300.334 55.2374 300.134 56.0915 299.733 56.8324C299.332 57.5736 298.755 58.1444 298.001 58.5451C297.247 58.9459 296.365 59.1462 295.353 59.1462C293.826 59.1462 292.61 58.6566 291.703 57.6769C290.797 56.6974 290.344 55.3487 290.344 53.6311V53.3258C290.357 50.9722 290.744 49.1212 291.508 47.7725C292.271 46.4239 293.438 45.5748 295.01 45.2248C295.716 45.0659 296.179 44.9116 296.398 44.762C296.618 44.6127 296.727 44.3789 296.727 44.0607H299.313C299.313 44.8559 299.19 45.4602 298.946 45.8737C298.701 46.2872 298.313 46.6291 297.782 46.8994C297.25 47.1699 296.504 47.3941 295.544 47.5721C294.787 47.7121 294.203 48.0096 293.793 48.4643C293.383 48.9192 293.104 49.5537 292.958 50.3679C293.817 49.5855 294.809 49.1942 295.935 49.1942Z" fill="#0049CC"/>
<path d="M305.19 58.9465H301.965V48.6222H305.19V58.9465Z" fill="#0049CC"/>
<path d="M305.19 47.3955H301.965V45.1797H305.19V47.3955Z" fill="#0049CC"/>
<path d="M316.392 48.6223V58.9465H313.177V51.1031H311.249L311.078 54.2614C310.957 55.8263 310.604 56.9968 310.018 57.7729C309.433 58.549 308.565 58.9403 307.413 58.9465H306.402L306.364 56.4656L306.698 56.4276C307.124 56.3769 307.44 56.0929 307.647 55.5756C307.854 55.0584 307.986 54.2764 308.043 53.2293L308.244 48.6223H316.392Z" fill="#0049CC"/>
<path d="M321.948 56.8469C322.349 56.8469 322.681 56.761 322.945 56.5893C323.209 56.4175 323.398 56.2236 323.513 56.0072V54.3566H322.578C321.458 54.3566 320.898 54.859 320.898 55.8641C320.898 56.1568 320.997 56.3937 321.194 56.5749C321.391 56.7562 321.643 56.8469 321.948 56.8469ZM323.961 58.9461C323.847 58.7361 323.745 58.4277 323.656 58.0206C323.064 58.7648 322.237 59.137 321.175 59.137C320.202 59.137 319.375 58.8428 318.694 58.2543C318.014 57.666 317.673 56.9265 317.673 56.0359C317.673 54.9164 318.087 54.0703 318.914 53.4978C319.741 52.9253 320.943 52.639 322.521 52.639H323.513V52.0925C323.513 51.14 323.103 50.6639 322.282 50.6639C321.519 50.6639 321.137 51.041 321.137 51.7954H317.922C317.922 50.7979 318.346 49.9877 319.195 49.3652C320.045 48.7425 321.127 48.431 322.444 48.431C323.761 48.431 324.801 48.7523 325.564 49.3948C326.328 50.0373 326.719 50.9183 326.738 52.0378V56.6083C326.751 57.5563 326.897 58.2814 327.177 58.7839V58.9461H323.961Z" fill="#0049CC"/>
<path d="M315.568 60.2881H316.207V65.5093H319.31V60.2881H319.949V65.5093H320.534L320.486 67.7554H319.901V66.0469H315.568V60.2881Z" fill="#0049CC"/>
<path d="M322.437 66.0461H321.799V60.2873H322.437V66.0461Z" fill="#0049CC"/>
<path d="M328.592 66.0469H327.954V63.4069H324.851V66.0469H324.212V60.288H324.851V62.8693H327.954V60.288H328.592V66.0469Z" fill="#0049CC"/>
<path d="M331.934 65.5889C332.36 65.5889 332.741 65.486 333.076 65.2802C333.411 65.0745 333.655 64.7995 333.808 64.4553V63.1885H332.669C332.034 63.1957 331.537 63.3119 331.179 63.5371C330.82 63.7625 330.641 64.072 330.641 64.4659C330.641 64.7888 330.761 65.0567 331 65.2696C331.24 65.4825 331.551 65.5889 331.934 65.5889ZM333.936 66.0467C333.872 65.8657 333.831 65.5978 333.813 65.243C333.59 65.534 333.305 65.7583 332.959 65.9162C332.613 66.0741 332.247 66.1531 331.86 66.1531C331.306 66.1531 330.858 65.9988 330.516 65.69C330.174 65.3813 330.002 64.9911 330.002 64.5191C330.002 63.9585 330.236 63.515 330.702 63.1885C331.169 62.8621 331.819 62.6988 332.653 62.6988H333.808V62.0442C333.808 61.6326 333.681 61.3089 333.427 61.0728C333.174 60.8369 332.804 60.7189 332.318 60.7189C331.874 60.7189 331.507 60.8325 331.216 61.0595C330.925 61.2867 330.78 61.5598 330.78 61.8792L330.141 61.8738C330.141 61.4162 330.354 61.0196 330.78 60.6843C331.205 60.3491 331.729 60.1814 332.35 60.1814C332.992 60.1814 333.498 60.342 333.869 60.6631C334.24 60.9842 334.431 61.4322 334.441 62.007V64.732C334.441 65.2891 334.5 65.7059 334.617 65.9827V66.0467H333.936Z" fill="#0049CC"/>
<path fill-rule="evenodd" clip-rule="evenodd" d="M267.5 0C119.764 0 0 101.85 0 227.488C0 353.125 119.764 320.623 267.5 320.623C415.236 320.623 535 353.125 535 227.488C535 101.85 415.236 0 267.5 0Z" fill="#EAEBED"/>
<path d="M430.734 148.172C427.687 142.264 418.249 143.825 416.985 136.598C416.521 133.885 417.338 131.098 418.472 128.572C424.213 115.826 438.463 106.184 438.593 91.0976C438.648 84.4834 434.635 79.0398 427.78 78.9469C423.952 78.8911 420.404 80.396 417.115 82.2725C413.53 84.3162 409.238 88.2736 404.927 88.1621C400.617 88.0506 398.889 83.1829 398.053 79.5971C397.161 75.7884 397.422 62.17 391.681 62.0028C389.34 61.9285 387.277 63.4891 385.568 65.1055C375.089 75.0453 372.005 88.6637 369.126 102.226C368.94 103.062 368.698 104.01 367.955 104.437C366.469 105.273 365.001 103.397 363.626 102.375C361.025 100.461 357.086 101.762 355.08 104.27C345.939 115.715 355.916 133.049 358.907 144.754C359.52 147.169 360.078 149.714 359.409 152.111C358.74 154.508 356.399 156.607 353.965 156.161C352.014 155.808 350.528 153.988 348.559 153.746C338.86 152.576 344.564 169.074 345.883 173.366C349.005 183.565 355.767 194.416 353.872 205.266C353.185 209.149 352.163 213.329 353.203 217.249C353.259 217.454 353.333 217.658 353.408 217.844C353.668 218.55 353.965 219.237 354.281 219.906C354.374 220.129 354.764 221.578 355.191 221.318C355.266 221.262 355.321 221.169 355.34 221.077C355.414 220.798 355.414 220.519 355.507 220.241C355.823 219.163 357.235 218.698 358.108 219.404C358.814 219.98 359.204 220.928 360.078 221.318C361.75 222.061 363.645 221.058 365.298 220.742C369.627 219.925 374.03 220.947 378.359 221.188C386.348 221.653 394.913 220.24 402.066 216.413C405.169 214.76 408.903 212.214 410.037 208.647C411.059 205.489 409.442 202.386 407.417 200.082C404.593 196.868 400.803 194.471 400.357 189.789C399.967 185.628 402.141 181.485 405.02 178.642C411.17 172.548 420.162 170.765 426.498 164.912C430.957 160.825 433.781 154.043 430.734 148.172Z" fill="#0049CC"/>
<path d="M342.632 235.178L342 234.565C359.874 216.524 373.733 197.258 383.19 177.323C392.833 156.997 398.184 135.353 399.112 112.983L399.986 113.021C399.057 135.501 393.669 157.257 383.971 177.694C374.495 197.722 360.58 217.063 342.632 235.178Z" fill="#EBEEF2"/>
<path d="M84.8435 187.067C89.4696 182.459 95.5078 180.044 101.1 176.867C106.674 173.709 111.114 169.603 113.511 163.583C118.341 151.507 114.57 138 108.495 127.15C101.658 114.906 92.1265 104.372 86.0139 91.7193C82.967 85.421 80.7003 78.6211 80.3102 71.5796C79.9943 65.8387 80.5889 59.1317 84.2675 54.4312C91.6062 45.1231 103.497 52.6476 112.805 52.6104C126.368 52.5361 124.175 35.2948 127.129 26.3397C128.616 21.8621 131.254 17.3474 135.936 15.6567C141.863 13.5201 147.901 16.9944 152.583 20.3758C157.302 23.7943 161.482 28.1604 163.953 33.4926C166.703 39.4379 166.35 45.7919 164.51 51.9602C162.411 59.076 158.491 66.1917 159.104 73.8277C159.568 79.6058 164.269 86.0527 170.864 84.6407C176.048 83.526 176.141 76.3359 181.417 75.184C186.75 74.0321 191.413 79.3828 193.364 83.7303C198.473 95.175 192.36 107.01 186.081 116.504C182.216 122.338 178.055 128.153 176.067 134.953C174.394 140.675 173.651 150.931 180.247 154.108C185.505 156.635 188.942 148.33 193.345 146.713C198.231 144.93 203.359 147.995 205.997 152.064C209.267 157.099 208.357 163.211 206.127 168.469C203.359 175.009 198.993 181.01 195.296 187.03C191.078 193.885 186.768 200.704 182.569 207.578C180.693 210.644 178.798 213.895 178.705 217.592C178.593 222.237 181.027 226.77 182.997 230.821C185.3 235.577 187.92 240.147 190.818 244.551C190.837 244.551 190.837 244.551 190.855 244.551C190.447 246.799 189.945 248.972 189.351 250.997C181.603 257.816 170.604 260.807 160.516 258.243C149.647 255.475 140.618 246.446 137.775 235.595C136.14 229.353 138.091 220.881 133.911 215.586C132.09 213.282 128.876 211.368 126.07 213.096C123.544 214.657 122.317 217.983 120.069 219.915C111.114 227.551 96.7712 220.212 88.7079 214.638C84.2118 211.536 80.1244 207.392 79.1954 201.819C78.2293 196.208 80.9604 190.931 84.8435 187.067Z" fill="#0049CC"/>
<path d="M205.924 271.229L207.317 269.464C191.413 256.923 177.498 241.503 165.923 223.611C155.017 206.741 146.452 188.088 140.47 168.19C128.784 129.285 127.91 89.0618 137.98 54.8763L135.825 54.2446C125.625 88.8202 126.517 129.527 138.315 168.84C144.353 188.943 153.011 207.8 164.028 224.837C175.733 242.915 189.834 258.521 205.924 271.229Z" fill="#EBEEF2"/>
<path d="M201.781 186.759L192.882 282.943L204.679 284.039L217.462 204.019L228.498 284.039L240.667 282.943L232.232 184.957L201.781 186.759Z" fill="#424973"/>
<path d="M284.421 161.398C283.975 158.165 281.003 158.146 278.494 158.481C273.998 159.094 269.428 159.67 264.876 159.651C260.547 159.633 256.441 157.607 253.171 154.895C250.626 152.777 247.096 148.206 243.696 151.681C239.237 156.233 247.282 161.286 250.607 163.274C259.674 168.718 269.967 167.584 279.906 165.856C282.285 165.429 284.848 164.389 284.421 161.398Z" fill="#FDC7BF"/>
<path d="M279.275 158.405C282.396 155.656 283.047 153.036 284.459 153.538C285.871 154.039 283.251 157.402 285.257 157.885C287.245 158.387 296.461 154.82 297.334 158.833C298.207 162.846 285.871 168.531 279.888 165.837C273.887 163.162 279.275 158.405 279.275 158.405Z" fill="#FDC7BF"/>
<path d="M243.696 151.681C240.259 155.192 244.235 158.982 247.765 161.453L252.113 153.947C249.679 151.699 246.632 148.671 243.696 151.681Z" fill="#FDC7BF"/>
<path d="M195.354 160.562C194.016 164.241 191.489 169.87 190.858 173.865C190.152 178.361 191.824 194.599 192.084 199.095V199.151C192.195 201.213 189.91 203.015 188.573 203.09C187.235 203.164 184.875 201.733 184.652 199.783C184.169 195.472 182.869 179.364 182.776 175.017C182.702 170.818 184.058 164.52 185.711 160.692C187.086 157.515 189 152.295 193.515 154.431C196.357 155.787 196.227 158.203 195.354 160.562Z" fill="#FDC7BF"/>
<path d="M185.024 199.169C185.024 199.169 175.549 204.353 175.308 206.805C175.066 209.258 187.886 203.74 191.267 205.319C194.648 206.898 195.001 207.307 195.373 206.136C195.745 204.966 192.047 199.169 192.047 199.169H185.024Z" fill="#FDC7BF"/>
<path d="M195.354 160.563C196.227 158.203 196.357 155.769 193.515 154.432C189.242 152.425 187.291 156.996 185.935 160.173L194.054 163.907C194.5 162.774 194.964 161.678 195.354 160.563Z" fill="#FDC7BF"/>
<path d="M250.905 152.388C251.982 152.22 239.627 141.277 234.351 139.457C230.356 138.063 200.5 138.156 196.896 139.958C193.273 141.742 186.064 157.627 186.064 157.627L195.279 162.365L198.01 157.032C198.01 157.032 197.156 183.433 200.946 192.63C204.736 201.827 228.777 199.969 232.753 192.63C236.729 185.291 235.967 154.078 235.967 154.078L245.052 160.377L250.905 152.388Z" fill="#040A2C"/>
<path d="M232.01 153H222.832V155.936H232.01V153Z" fill="#F4EEFE"/>
<path d="M220.545 131.579H213.188V138.806C213.188 140.831 214.841 142.485 216.866 142.485C218.891 142.485 220.545 140.831 220.545 138.806V131.579Z" fill="#FDC7BF"/>
<path d="M216.866 135.61C218.148 135.61 219.393 135.387 220.545 134.979V131.95H213.188V134.979C214.321 135.387 215.566 135.61 216.866 135.61Z" fill="#FDC7BF"/>
<path d="M226.566 114.338V124.315C226.566 129.721 222.181 134.106 216.775 134.106C211.368 134.106 206.984 129.721 206.984 124.315V114.338C206.984 112.443 207.522 110.696 208.451 109.191C209.566 110.306 211.09 110.994 212.78 110.994H220.769C222.46 110.994 224.002 110.306 225.098 109.191C226.009 110.678 226.566 112.443 226.566 114.338Z" fill="#FDC7BF"/>
<path d="M212.948 111.792H221.159C222.869 111.792 224.429 111.123 225.563 110.046C225.414 109.749 225.265 109.451 225.098 109.173C223.983 110.287 222.46 110.975 220.769 110.975H212.78C211.09 110.975 209.548 110.287 208.451 109.173C207.522 110.678 206.984 112.424 206.984 114.319V115.136C206.984 113.241 207.541 111.495 208.507 109.99C209.622 111.105 211.201 111.792 212.948 111.792Z" fill="#FDC7BF"/>
<path d="M216.757 97.9694C212 95.87 208.656 97.5978 207.876 98.3781C207.876 98.3781 210.143 99.2699 210.143 100.032C210.143 100.032 207.114 99.1213 205.572 100.032C205.572 100.032 207.597 101.184 207.541 102.54C207.541 102.54 203.788 101.76 202.729 103.06C202.729 103.06 205.238 104.992 205.219 109.173L205.238 109.154C205.238 109.265 205.219 109.377 205.219 109.47V115.285C205.219 116.233 205.999 117.013 206.947 117.013V114.338C206.947 112.442 207.486 110.696 208.415 109.191C209.529 110.306 211.053 110.993 212.744 110.993H220.733C222.423 110.993 223.965 110.306 225.061 109.191C225.99 110.696 226.529 112.442 226.529 114.338V117.05C227.477 117.05 228.257 116.27 228.257 115.322V109.507C228.276 103.134 223.129 97.9694 216.757 97.9694Z" fill="#18171C"/>
<path d="M205.237 115.323C204.642 115.806 204.252 116.549 204.252 117.385V121.268C204.252 122.754 205.46 123.962 206.946 123.98V117.05C205.998 117.032 205.237 116.27 205.237 115.323Z" fill="#FDC7BF"/>
<path d="M206.945 117.422C206.927 117.422 206.927 117.422 206.908 117.422C205.979 117.422 205.236 117.868 205.236 119.689C205.236 121.528 205.979 121.955 206.908 121.955C206.927 121.955 206.927 121.955 206.945 121.955V117.422Z" fill="#FDC7BF"/>
<path d="M228.274 115.323C228.868 115.806 229.258 116.549 229.258 117.385V121.268C229.258 122.754 228.051 123.962 226.564 123.98V117.05C227.512 117.032 228.274 116.27 228.274 115.323Z" fill="#FDC7BF"/>
<path d="M226.584 117.422C226.603 117.422 226.603 117.422 226.621 117.422C227.55 117.422 228.293 117.868 228.293 119.689C228.293 121.528 227.55 121.955 226.621 121.955C226.603 121.955 226.603 121.955 226.584 121.955V117.422Z" fill="#FDC7BF"/>
<path d="M213.485 126.581C213.225 126.581 213.039 126.804 213.058 127.064C213.299 128.885 214.86 130.297 216.755 130.297C218.65 130.297 220.211 128.885 220.452 127.064C220.489 126.804 220.285 126.581 220.025 126.581H213.485Z" fill="#FDEDEB"/>
<path d="M416.63 208.738H152.325V212.342H416.63V208.738Z" fill="#B7BEC7"/>
<path d="M257.204 163.536C257.204 158.389 253.023 154.209 247.877 154.209C242.73 154.209 238.55 158.389 238.55 163.536H237.714C237.714 157.925 242.266 153.373 247.877 153.373C253.488 153.373 258.04 157.925 258.04 163.536H257.204Z" fill="#B7BEC7"/>
<path d="M229.466 163.554H258.561V208.739H224.58L229.466 163.554Z" fill="#EBEEF2"/>
<path d="M268.148 208.739H258.562V163.554H265.622L268.148 208.739Z" fill="#B7BEC7"/>
<path d="M240.32 174.792H247.547V163.533H240.32V174.792Z" fill="#FCFEFF"/>
<path d="M254.641 163.536C254.641 158.389 250.46 154.209 245.314 154.209C240.168 154.209 235.987 158.389 235.987 163.536H235.151C235.151 157.925 239.703 153.373 245.314 153.373C250.925 153.373 255.477 157.925 255.477 163.536H254.641Z" fill="#EBEEF2"/>
<path d="M262.946 170.317C263.169 170.317 263.354 170.502 263.354 170.725V201.901C263.354 202.124 263.169 202.31 262.946 202.31C262.723 202.31 262.537 202.124 262.537 201.901V170.725C262.537 170.502 262.723 170.317 262.946 170.317Z" fill="#EBEEF2"/>
<path d="M412.208 212.342H156.728V298.233H412.208V212.342Z" fill="#EBEEF2"/>
<path d="M374.716 228.227H252.373V212.342H250.924V228.227H207.783V212.342H206.334V228.227H156.728V229.676H206.353V298.251H207.802V282.738H250.942V298.251H252.392V229.676H374.735V228.227H374.716ZM207.802 247.363H250.942V263.601H207.802V247.363ZM207.802 281.289V265.051H250.942V281.289H207.802ZM250.924 245.914H207.783V229.676H250.924V245.914Z" fill="#B7BEC7"/>
<path d="M412.227 212.342H374.716V298.233H412.227V212.342Z" fill="#B7BEC7"/>
<path d="M311.473 161.546H287.785C287.357 161.546 287.023 161.881 287.023 162.308V171.282C287.023 171.709 287.357 172.044 287.785 172.044H311.473C311.9 172.044 312.235 171.709 312.235 171.282V162.308C312.235 161.881 311.882 161.546 311.473 161.546Z" fill="#B7BEC7"/>
<path d="M310.432 161.547H287.952C287.431 161.547 287.004 161.974 287.004 162.494V170.298C287.004 170.818 287.431 171.245 287.952 171.245H310.432C310.953 171.245 311.38 170.818 311.38 170.298V162.494C311.38 161.956 310.953 161.547 310.432 161.547Z" fill="#EBEEF2"/>
<path d="M300.251 172.044H298.133V180.256H300.251V172.044Z" fill="#B7BEC7"/>
<path d="M341.608 186.071C341.608 182.857 339.007 180.237 335.774 180.237H288.602C285.387 180.237 282.768 182.838 282.768 186.071V203.09H341.608V186.071Z" fill="#EBEEF2"/>
<path d="M341.608 203.089H282.787V208.273H341.608V203.089Z" fill="#B7BEC7"/>
<path d="M371.037 156.661H349.634C349.021 156.661 348.52 157.162 348.52 157.775V198.668C348.52 199.95 349.56 200.99 350.842 200.99H369.811C371.093 200.99 372.134 199.95 372.134 198.668V157.757C372.134 157.162 371.65 156.661 371.037 156.661Z" fill="#969CA3"/>
<path d="M369.588 156.661H349.634C349.021 156.661 348.52 157.162 348.52 157.775V197.014H370.684V157.757C370.684 157.162 370.201 156.661 369.588 156.661Z" fill="#B7BEC7"/>
<path d="M368.083 159.69H351.009V172.695H368.083V159.69Z" fill="#F8F9FA"/>
<path d="M351.734 160.414H368.102V159.69H351.009V172.695H351.734V160.414Z" fill="#EBEEF2"/>
<path d="M360.203 162.903L359.757 163.349C360.444 164.148 360.834 165.17 360.834 166.229C360.834 167.307 360.463 168.31 359.757 169.109L360.203 169.555C361.02 168.626 361.466 167.455 361.466 166.229C361.466 165.003 361.02 163.832 360.203 162.903Z" fill="#B7BEC7"/>
<path d="M359.533 163.572L359.087 164.018C360.146 165.3 360.146 167.158 359.087 168.44L359.533 168.886C360.834 167.362 360.834 165.096 359.533 163.572Z" fill="#B7BEC7"/>
<path d="M358.863 164.241L358.417 164.687C359.105 165.597 359.105 166.861 358.417 167.752L358.863 168.198C359.792 167.065 359.792 165.411 358.863 164.241Z" fill="#B7BEC7"/>
<path d="M358.195 164.929L357.75 165.375C358.047 165.821 358.084 166.396 357.861 166.861C357.824 166.935 357.787 167.01 357.75 167.084L358.195 167.53C358.418 167.214 358.567 166.861 358.604 166.508C358.66 165.969 358.53 165.393 358.195 164.929Z" fill="#B7BEC7"/>
<path d="M359.59 171.505C356.692 171.505 354.333 169.146 354.333 166.248C354.333 163.349 356.692 160.99 359.59 160.99C362.489 160.99 364.848 163.349 364.848 166.248C364.867 169.146 362.507 171.505 359.59 171.505ZM359.59 161.603C357.045 161.603 354.964 163.684 354.964 166.229C354.964 168.774 357.045 170.855 359.59 170.855C362.136 170.855 364.217 168.774 364.217 166.229C364.235 163.684 362.154 161.603 359.59 161.603Z" fill="#B7BEC7"/>
<path d="M355.783 192.445H351.064V195.325H355.783V192.445Z" fill="#B7BEC7"/>
<path d="M361.914 192.445H357.195V195.325H361.914V192.445Z" fill="#B7BEC7"/>
<path d="M368.102 192.407H363.383V195.287H368.102V192.407Z" fill="#B7BEC7"/>
<path d="M355.783 192.092H351.064V194.972H355.783V192.092Z" fill="#ED1C24"/>
<path d="M361.914 192.091H357.195V194.971H361.914V192.091Z" fill="#FFDE17"/>
<path d="M368.102 192.036H363.383V194.915H368.102V192.036Z" fill="#00A14B"/>
<path d="M354.982 188.173H351.842C351.415 188.173 351.043 188.526 351.043 188.971V189.287C351.043 189.715 351.396 190.086 351.842 190.086H354.982C355.41 190.086 355.781 189.733 355.781 189.287V188.971C355.763 188.526 355.41 188.173 354.982 188.173Z" fill="#F8F9FA"/>
<path d="M361.113 188.173H357.973C357.546 188.173 357.175 188.526 357.175 188.971V189.287C357.175 189.715 357.528 190.086 357.973 190.086H361.113C361.541 190.086 361.912 189.733 361.912 189.287V188.971C361.912 188.526 361.559 188.173 361.113 188.173Z" fill="#F8F9FA"/>
<path d="M367.299 188.154H364.159C363.731 188.154 363.36 188.507 363.36 188.953V189.269C363.36 189.696 363.713 190.067 364.159 190.067H367.299C367.726 190.067 368.098 189.714 368.098 189.269V188.953C368.098 188.507 367.745 188.154 367.299 188.154Z" fill="#F8F9FA"/>
<path d="M354.982 185.293H351.842C351.415 185.293 351.043 185.646 351.043 186.092V186.407C351.043 186.835 351.396 187.206 351.842 187.206H354.982C355.41 187.206 355.781 186.853 355.781 186.407V186.092C355.763 185.664 355.41 185.293 354.982 185.293Z" fill="#F8F9FA"/>
<path d="M361.113 185.293H357.973C357.546 185.293 357.175 185.646 357.175 186.092V186.407C357.175 186.835 357.528 187.206 357.973 187.206H361.113C361.541 187.206 361.912 186.853 361.912 186.407V186.092C361.912 185.664 361.559 185.293 361.113 185.293Z" fill="#F8F9FA"/>
<path d="M367.299 185.274H364.159C363.731 185.274 363.36 185.627 363.36 186.073V186.389C363.36 186.816 363.713 187.188 364.159 187.188H367.299C367.726 187.188 368.098 186.835 368.098 186.389V186.073C368.098 185.627 367.745 185.274 367.299 185.274Z" fill="#F8F9FA"/>
<path d="M354.982 182.431H351.842C351.415 182.431 351.043 182.784 351.043 183.23V183.545C351.043 183.973 351.396 184.344 351.842 184.344H354.982C355.41 184.344 355.781 183.991 355.781 183.545V183.23C355.763 182.784 355.41 182.431 354.982 182.431Z" fill="#F8F9FA"/>
<path d="M361.113 182.431H357.973C357.546 182.431 357.175 182.784 357.175 183.23V183.545C357.175 183.973 357.528 184.344 357.973 184.344H361.113C361.541 184.344 361.912 183.991 361.912 183.545V183.23C361.912 182.784 361.559 182.431 361.113 182.431Z" fill="#F8F9FA"/>
<path d="M367.301 182.393H364.161C363.733 182.393 363.362 182.746 363.362 183.192V183.508C363.362 183.935 363.715 184.307 364.161 184.307H367.301C367.728 184.307 368.099 183.954 368.099 183.508V183.192C368.099 182.746 367.746 182.393 367.301 182.393Z" fill="#F8F9FA"/>
<path d="M354.982 179.552H351.842C351.415 179.552 351.043 179.905 351.043 180.351V180.667C351.043 181.094 351.396 181.466 351.842 181.466H354.982C355.41 181.466 355.781 181.113 355.781 180.667V180.351C355.763 179.905 355.41 179.552 354.982 179.552Z" fill="#F8F9FA"/>
<path d="M361.113 179.551H357.973C357.546 179.551 357.175 179.904 357.175 180.35V180.666C357.175 181.093 357.528 181.465 357.973 181.465H361.113C361.541 181.465 361.912 181.112 361.912 180.666V180.35C361.912 179.904 361.559 179.551 361.113 179.551Z" fill="#F8F9FA"/>
<path d="M367.299 179.513H364.159C363.731 179.513 363.36 179.866 363.36 180.312V180.628C363.36 181.055 363.713 181.427 364.159 181.427H367.299C367.726 181.427 368.098 181.074 368.098 180.628V180.312C368.098 179.866 367.745 179.513 367.299 179.513Z" fill="#F8F9FA"/>
<path d="M354.335 175.742H351.009V177.488H354.335V175.742Z" fill="#F8F9FA"/>
<path d="M358.923 175.742H355.597V177.488H358.923V175.742Z" fill="#F8F9FA"/>
<path d="M363.512 175.742H360.186V177.488H363.512V175.742Z" fill="#F8F9FA"/>
<path d="M368.101 175.742H364.775V177.488H368.101V175.742Z" fill="#F8F9FA"/>
<path d="M360.689 200.99H358.497V208.738H360.689V200.99Z" fill="#969CA3"/>
<path d="M206.184 123.664L207.782 132.099C211.906 138.657 220.174 138.639 224.298 132.08L225.878 123.664C219.468 125.615 212.909 125.67 206.184 123.664Z" fill="#FFFDFE"/>
<path d="M208.079 132.284C207.224 132.284 206.258 131.708 205.403 130.668C203.694 128.606 202.226 124.574 202.988 120.58C203.304 118.889 203.824 117.941 204.493 117.774C204.79 117.7 205.273 117.737 205.794 118.387C206.704 119.483 207.317 122.883 206.741 124.128C206.704 124.221 206.574 124.258 206.481 124.221C206.388 124.184 206.351 124.054 206.388 123.961C206.908 122.883 206.332 119.632 205.496 118.629C205.273 118.35 204.939 118.053 204.586 118.146C204.289 118.22 203.75 118.647 203.36 120.654C202.617 124.537 204.047 128.438 205.701 130.426C206.5 131.393 207.336 131.913 208.079 131.913C208.19 131.913 208.265 132.006 208.265 132.099C208.265 132.191 208.19 132.284 208.079 132.284Z" fill="#F4F1F2"/>
<path d="M224.039 132.284C224.894 132.284 225.86 131.708 226.714 130.668C228.424 128.606 229.891 124.574 229.13 120.58C228.814 118.889 228.294 117.941 227.625 117.774C227.327 117.7 226.863 117.737 226.324 118.387C225.414 119.483 224.801 122.883 225.377 124.128C225.414 124.221 225.544 124.258 225.637 124.221C225.73 124.184 225.767 124.054 225.73 123.961C225.209 122.883 225.785 119.632 226.621 118.629C226.844 118.35 227.179 118.053 227.532 118.146C227.829 118.22 228.368 118.647 228.758 120.654C229.501 124.537 228.071 128.438 226.417 130.426C225.618 131.393 224.782 131.913 224.039 131.913C223.928 131.913 223.853 132.006 223.853 132.099C223.835 132.191 223.928 132.284 224.039 132.284Z" fill="#F4F1F2"/>
<path d="M207.707 131.709L207.763 132.099C211.887 138.676 220.155 138.676 224.28 132.099L225.376 126.284C219.802 133.493 211.386 133.994 207.707 131.709Z" fill="#F4F1F2"/>
<path d="M216.162 126.042H215.902V135.573H216.162V126.042Z" fill="#E9E8EA"/>
<path d="M220.1 133.083C219.988 133.083 219.896 132.972 219.896 132.842C219.896 132.712 219.988 132.6 220.1 132.6C221.753 132.6 223.11 131.114 223.11 129.293C223.11 129.163 223.203 129.052 223.314 129.052C223.426 129.052 223.518 129.163 223.518 129.293C223.537 131.374 221.995 133.083 220.1 133.083Z" fill="#E9E8EA"/>
<path d="M220.231 132.061C220.119 132.061 220.026 131.95 220.026 131.82C220.026 131.69 220.119 131.578 220.231 131.578C221.253 131.578 222.089 130.668 222.089 129.535C222.089 129.405 222.182 129.293 222.293 129.293C222.404 129.293 222.497 129.405 222.497 129.535C222.497 130.928 221.476 132.061 220.231 132.061Z" fill="#E9E8EA"/>
<path d="M450.016 295.576C450.629 295.576 451.224 295.501 451.8 295.39C451.893 295.056 451.948 294.721 451.948 294.368C452.041 286.453 452.041 269.788 452.041 269.788H444.052L443.885 288.85C443.885 288.85 443.086 289.166 441.823 289.668C442.956 293.105 446.189 295.576 450.016 295.576Z" fill="#FCC6BE"/>
<path d="M450.016 295.575C446.189 295.575 442.956 293.104 441.804 289.667C438.07 291.191 430.303 294.479 427.702 296.672C427.108 297.173 427.461 298.158 428.26 298.158H448.121C449.867 298.158 451.335 296.987 451.799 295.39C451.223 295.52 450.629 295.575 450.016 295.575Z" fill="#424973"/>
<path d="M477.012 295.576C477.625 295.576 478.22 295.501 478.796 295.39C478.889 295.056 478.944 294.721 478.944 294.368C479.037 286.453 477.217 269.788 477.217 269.788H469.228L470.881 288.85C470.881 288.85 470.082 289.166 468.819 289.668C469.952 293.105 473.204 295.576 477.012 295.576Z" fill="#FCC6BE"/>
<path d="M477.012 295.575C473.185 295.575 469.952 293.104 468.8 289.667C465.066 291.191 457.3 294.479 454.698 296.672C454.104 297.173 454.457 298.158 455.256 298.158H475.117C476.863 298.158 478.331 296.987 478.795 295.39C478.22 295.52 477.625 295.575 477.012 295.575Z" fill="#424973"/>
<path d="M468.02 272.167H478.48L473.779 208.831C473.779 208.831 474.782 207.456 477.792 198.26C480.802 189.044 473.779 178.287 473.779 178.287H459.752L458.804 214.795C458.804 214.795 467.351 264.81 468.02 272.167Z" fill="#040A2C"/>
<path d="M453.1 272.167L456.035 213.866C456.035 213.866 472.329 199.616 473.054 188.951C473.797 178.287 473.797 178.287 473.797 178.287H452.022C452.022 178.287 440.894 212.528 440.726 217.693C440.578 222.449 442.807 265.423 443.16 272.185H453.1V272.167Z" fill="#040A2C"/>
<path d="M491.094 202.737H478.571C476.936 202.737 475.617 201.418 475.617 199.783V191.775C475.617 190.14 476.936 188.821 478.571 188.821H491.094C492.728 188.821 494.048 190.14 494.048 191.775V199.783C494.048 201.418 492.728 202.737 491.094 202.737ZM478.571 190.27C477.735 190.27 477.066 190.939 477.066 191.775V199.783C477.066 200.619 477.735 201.288 478.571 201.288H491.094C491.93 201.288 492.598 200.619 492.598 199.783V191.775C492.598 190.939 491.93 190.27 491.094 190.27H478.571Z" fill="#424973"/>
<path d="M446.134 158.259C442.493 158.259 441.136 155.36 440.375 152.499C439.594 149.657 443.087 146.74 444.351 143.135C445.614 139.531 442.79 138.045 442.939 135.462C443.087 132.88 448.772 134.515 448.642 131.765C448.512 128.997 445.855 125.411 446.19 123.163C446.766 119.243 451.726 117.924 452.265 116.214C452.804 114.486 450.686 113.799 451.931 110.845C453.176 107.872 460.031 107.872 463.468 107.872C466.924 107.872 476.659 109.73 477.05 114.096C477.44 118.462 474.541 118.425 474.56 121.361C474.579 124.296 479.799 125.857 479.985 128.272C480.171 130.687 475.285 131.765 475.117 133.53C474.95 135.314 483.144 134.477 483.292 138.138C483.441 141.798 478.239 142.169 478.647 145.309C479.056 148.449 486.098 154.19 486.098 157.144C486.098 160.117 481.416 162.327 477.774 163.201C474.114 164.092 449.776 158.259 446.134 158.259Z" fill="#212B53"/>
<path d="M459.231 107.872C454.345 107.872 450.388 111.83 450.388 116.716V124.482C450.388 129.368 454.345 133.326 459.231 133.326C464.118 133.326 468.075 129.368 468.075 124.482V116.716C468.075 111.83 464.118 107.872 459.231 107.872Z" fill="#FCC6BE"/>
<path d="M465.641 130.557H459.751V137.673C459.751 139.289 461.07 140.608 462.686 140.608C464.303 140.608 465.622 139.289 465.622 137.673V130.557H465.641Z" fill="#FCC6BE"/>
<path d="M459.231 107.872C454.345 107.872 450.388 111.83 450.388 116.716V124.482C450.388 129.368 454.345 133.326 459.231 133.326C464.118 133.326 468.075 129.368 468.075 124.482V116.716C468.075 111.83 464.118 107.872 459.231 107.872Z" fill="#FCC6BE"/>
<path d="M463.153 112.163C462.001 112.126 460.366 115.396 456.464 115.544C454.402 115.618 443.199 115.934 443.199 109.264C443.199 102.576 458.917 103.319 461.388 103.877C463.339 104.322 465.587 106.329 466.59 107.314C466.887 107.592 467.333 107.648 467.705 107.425C468.262 107.109 469.191 106.719 470.25 107.221C475.917 109.933 471.365 116.938 470.919 120.579C470.566 123.496 467.538 131.113 465.494 130.723C463.747 130.389 464.825 123.756 464.583 121.972C464.342 120.189 465.475 115.637 465.475 114.782C465.457 113.928 464.323 112.218 463.153 112.163Z" fill="#212B53"/>
<path d="M465.807 117.998V124.296C467.554 124.296 468.947 122.884 468.947 121.137C468.947 119.41 467.535 117.998 465.807 117.998Z" fill="#FCC6BE"/>
<path d="M465.808 119.242V123.069C466.867 123.069 467.703 122.215 467.703 121.156C467.703 120.097 466.848 119.242 465.808 119.242Z" fill="#FCC6BE"/>
<path d="M449.885 121.323L451.185 129.869C452.059 131.393 458.97 140.106 464.804 129.851L466.086 121.323C458.413 123.887 452.839 122.289 449.885 121.323Z" fill="#FFFDFE"/>
<path d="M464.581 130.017C465.287 130.017 466.049 129.497 466.755 128.568C468.129 126.729 469.337 123.106 468.724 119.501C468.464 117.978 468.055 117.142 467.498 116.975C467.256 116.9 466.866 116.938 466.439 117.532C465.695 118.517 465.194 120.598 465.677 121.694C465.714 121.787 465.807 121.824 465.881 121.768C465.956 121.731 465.993 121.619 465.956 121.545C465.547 120.579 466.011 118.647 466.68 117.736C466.866 117.495 467.145 117.216 467.423 117.291C467.665 117.365 468.111 117.736 468.408 119.539C469.003 123.013 467.851 126.524 466.513 128.308C465.863 129.163 465.175 129.646 464.581 129.646C464.488 129.646 464.432 129.72 464.432 129.813C464.432 129.943 464.488 130.017 464.581 130.017Z" fill="#F4F1F2"/>
<path d="M451.112 129.497L451.168 129.85C452.041 131.374 458.952 140.106 464.786 129.85L465.678 123.998C459.528 132.767 450.759 129.256 451.112 129.497Z" fill="#F4F1F2"/>
<path d="M456.126 123.44H455.922V132.971H456.126V123.44Z" fill="#E9E8EA"/>
<path d="M461.385 130.741C461.293 130.741 461.218 130.648 461.218 130.518C461.218 130.407 461.293 130.295 461.385 130.295C462.742 130.295 463.838 128.958 463.838 127.323C463.838 127.211 463.912 127.1 464.005 127.1C464.098 127.1 464.172 127.193 464.172 127.323C464.172 129.199 462.928 130.741 461.385 130.741Z" fill="#E9E8EA"/>
<path d="M461.477 129.831C461.384 129.831 461.31 129.738 461.31 129.608C461.31 129.497 461.384 129.385 461.477 129.385C462.313 129.385 463 128.568 463 127.546C463 127.434 463.075 127.323 463.167 127.323C463.26 127.323 463.335 127.416 463.335 127.546C463.335 128.809 462.499 129.831 461.477 129.831Z" fill="#E9E8EA"/>
<path d="M473.779 178.286C479.092 173.957 479.334 144.509 477.16 142.02C474.838 139.344 468.465 137.505 463.077 137.505C457.689 137.505 452.153 138.824 448.641 142.02C445.39 144.974 448.307 175.053 451.986 178.286C455.701 181.519 468.484 182.615 473.779 178.286Z" fill="#FFD247"/>
<path d="M413.842 162.569C408.677 162.997 404.125 154.227 407.692 151.292C411.259 148.356 418.933 155.194 418.951 157.497C418.951 159.801 417.112 162.309 413.842 162.569Z" fill="#FCC6BE"/>
<path d="M416.722 156.03C414.939 155.119 412.746 155.825 411.836 157.609C410.926 159.393 411.632 161.585 413.415 162.495C415.347 163.48 422.352 166.936 429.115 168.626L430.471 161.492C426.736 160.507 421.887 158.668 416.722 156.03Z" fill="#FCC6BE"/>
<path d="M452.951 141.129C451.074 140.423 448.975 141.37 448.269 143.228C444.367 153.521 439.258 161.306 436.954 162.142C435.877 162.513 433.573 162.29 430.47 161.473L429.114 168.607C432.941 169.555 436.675 169.945 439.369 168.979C439.425 168.96 439.481 168.942 439.537 168.923C444.237 167.14 448.046 160.637 450.517 155.862C453.155 150.753 454.957 145.997 455.05 145.811C455.756 143.934 454.827 141.835 452.951 141.129Z" fill="#FFD247"/>
<path d="M411.167 142.225L404.367 144.808C403.959 144.975 403.736 145.439 403.903 145.848L408.622 158.24C408.789 158.649 409.254 158.872 409.662 158.705L416.462 156.122C416.871 155.955 417.094 155.491 416.927 155.082L412.208 142.69C412.04 142.262 411.576 142.058 411.167 142.225Z" fill="#18171C"/>
<path d="M413.844 162.569C408.177 158.203 407.341 153.243 409.032 153.113C410.723 153.001 409.794 155.751 410.147 156.475C410.5 157.2 414.884 155.063 415.535 157.312C416.203 159.578 413.844 162.569 413.844 162.569Z" fill="#FCC6BE"/>
<path d="M484.833 171.393L478.163 174.403L482.176 187.464C482.678 189.136 484.294 190.158 485.948 190.009C486.208 189.99 486.45 189.935 486.71 189.86C488.623 189.266 489.701 187.241 489.106 185.327L484.833 171.393Z" fill="#FCC6BE"/>
<path d="M477.83 148.56C477.235 146.646 475.21 145.569 473.297 146.163C471.383 146.758 470.305 148.783 470.9 150.696L478.183 174.403L484.853 171.393L477.83 148.56Z" fill="#FFD247"/>
<path d="M489.825 187.452C490.087 184.395 487.822 181.704 484.765 181.442C481.708 181.179 479.018 183.445 478.755 186.501C478.493 189.558 480.758 192.249 483.815 192.511C486.872 192.773 489.562 190.508 489.825 187.452Z" fill="#FCC6BE"/>
<path d="M465.418 130.297C457.411 134.087 465.994 137.673 459.584 147.074C454.549 154.45 454.345 154.543 457.281 161.863C460.216 169.183 475.637 163.702 477.755 163.201C481.415 162.309 486.078 160.098 486.078 157.144C486.078 154.171 479.055 148.449 478.628 145.309C478.219 142.169 483.421 141.798 483.273 138.137C483.124 134.477 474.931 135.313 475.098 133.53C475.265 131.746 480.151 130.669 479.965 128.272C479.78 125.857 474.559 124.296 474.54 121.361C474.54 121.082 474.559 120.84 474.615 120.617C467.016 123.85 473.017 126.693 465.418 130.297Z" fill="#212B53"/>
<path d="M507.983 200.73C508.169 198.983 506.794 197.46 505.029 197.46H464.656C462.891 197.46 461.517 198.983 461.702 200.73L464.173 224.418H505.53L507.983 200.73Z" fill="#F4EEFE"/>
<path d="M464.155 224.418L464.694 229.62C464.842 231.125 466.124 232.277 467.648 232.277H502.019C503.542 232.277 504.824 231.125 504.973 229.62L505.512 224.418H464.155Z" fill="#424973"/>
<path d="M81.8714 297.081H69.3677L77.431 267.076L85.4385 269.9L78.9916 289.148L83.9336 291.73C82.6145 293.514 81.314 296.17 81.8714 297.081Z" fill="#FCC6BE"/>
<path d="M81.872 297.081C81.3147 296.171 82.6338 293.533 83.9157 291.73C83.9157 291.73 92.8708 295.855 93.8741 296.933C94.8774 297.992 94.8774 298.921 94.8774 298.921H68.8667L69.3498 297.081H81.872Z" fill="#323D50"/>
<path d="M99.7261 297.081L100.878 267.076L108.421 268.896L107.009 289.724L114.292 292.733C113.01 294.536 111.226 295.725 111.022 297.081H99.7261Z" fill="#FCC6BE"/>
<path d="M99.7256 297.081H111.003C111.207 295.724 112.991 294.517 114.273 292.733C114.273 292.733 123.228 295.873 124.231 296.932C125.235 297.991 125.235 298.92 125.235 298.92H99.7256V297.081Z" fill="#323D50"/>
<path d="M111.525 177.283C111.525 177.283 115.761 191.83 115.426 199.169C115.092 206.527 110.428 271.107 110.428 271.107C106.564 272.779 102.662 273.077 98.6493 271.33C98.6493 271.33 103.368 221.873 103.294 220.442C103.22 219.012 101.659 191.422 98.6493 191.849C95.6395 192.276 99.0952 229.286 98.6493 231.59C98.2034 233.893 86.6844 271.33 86.6844 271.33C82.2068 271.237 78.4538 270.178 75.8528 267.484C75.8528 267.484 86.4614 229.918 86.6844 227.892C86.8887 225.849 81.8538 200.99 81.8538 195.342C81.8538 189.694 90.7718 175.685 90.7718 175.685L111.525 177.283Z" fill="#043C5E"/>
<path d="M134.117 147.742C134.21 147.575 134.302 147.408 134.395 147.241C136.625 143.339 138.631 140.719 139.523 139.809C140.415 138.917 142.329 137.784 143.388 138.156C144.447 138.527 144.354 140.552 144.224 141.834C144.094 143.116 144.056 146.665 141.53 151.142C141.307 151.551 141.065 151.941 140.842 152.331C137.925 151.811 135.752 150.158 134.117 147.742Z" fill="#FDC7BF"/>
<path d="M143.276 147.26L151.247 139.847L155.055 131.133L154.201 130.65L154.498 129.87L153.643 129.35L153.978 128.421L153.105 127.9L152.417 128.625L151.507 128.253L143.871 135.109L142.143 132.972L141.047 133.195L138.91 140.516L143.276 147.26Z" fill="#FDC7BF"/>
<path d="M112.565 143.34C114.553 142.281 117.006 143.024 118.083 145.012C118.102 145.049 119.644 147.891 121.929 150.53C124.27 153.242 126.518 154.71 127.93 154.468C128.358 154.394 130.624 153.707 134.117 147.761C135.771 150.158 137.926 151.83 140.843 152.369C137.183 158.444 133.43 161.751 129.361 162.476C128.766 162.587 128.153 162.643 127.559 162.643C123.62 162.643 119.663 160.358 115.78 155.862C112.9 152.518 111.005 149.025 110.931 148.876C109.853 146.87 110.596 144.417 112.565 143.34Z" fill="#FFD247"/>
<path d="M96.4205 110.473C96.4205 110.473 97.0336 105.605 103.964 106.831C110.912 108.058 115.427 123.831 115.427 128.253C115.427 132.675 115.427 135.034 115.427 135.034C115.427 135.034 106.936 138.174 100.415 138.174C93.8938 138.174 88.3387 135.072 86.9638 132.248C85.5704 129.442 89.6578 121.323 89.9365 118.072C90.2151 114.839 92.296 110.566 94.061 109.6C95.826 108.652 96.4205 110.473 96.4205 110.473Z" fill="#8F724C"/>
<path d="M108.646 127.863C107.401 127.863 106.397 126.766 106.397 125.429V122.456C106.397 121.118 107.401 120.022 108.646 120.022C109.89 120.022 110.912 121.118 110.912 122.456V125.429C110.912 126.766 109.89 127.863 108.646 127.863Z" fill="#FDC7BF"/>
<path d="M92.1831 127.863C93.4279 127.863 94.4498 126.766 94.4498 125.429V122.456C94.4498 121.118 93.4465 120.022 92.2017 120.022C90.9569 120.022 89.9536 121.118 89.9536 122.456V125.429C89.935 126.766 90.9383 127.863 92.1831 127.863Z" fill="#FDC7BF"/>
<path d="M108.645 122.029C108.664 122.029 108.664 122.029 108.682 122.029C109.462 122.029 110.076 122.4 110.076 123.942C110.076 125.485 109.444 125.856 108.682 125.856C108.664 125.856 108.664 125.856 108.645 125.856V122.029Z" fill="#FDC7BF"/>
<path d="M92.1833 122.029C92.1647 122.029 92.1647 122.029 92.1461 122.029C91.3658 122.029 90.7527 122.4 90.7527 123.942C90.7527 125.485 91.3844 125.856 92.1461 125.856C92.1647 125.856 92.1647 125.856 92.1833 125.856V122.029Z" fill="#FDC7BF"/>
<path d="M100.34 111.569C104.873 111.569 108.552 115.247 108.552 119.781V128.085C108.552 132.619 104.873 136.297 100.34 136.297C95.8066 136.297 92.1279 132.619 92.1279 128.085V119.799C92.1279 115.247 95.8066 111.569 100.34 111.569Z" fill="#FDC7BF"/>
<path d="M95.5291 139.177C96.9039 138.843 97.8886 137.635 97.8886 136.223V135.944C98.6689 136.186 99.4864 136.316 100.36 136.316C101.363 136.316 102.31 136.13 103.184 135.814V136.372C103.184 137.765 104.131 138.954 105.469 139.307C106.788 139.642 109.463 140.979 110.782 141.574C110.745 146.534 105.339 155.266 100.36 155.266C95.3804 155.266 89.9553 146.534 89.9368 141.555C91.3302 140.886 94.0985 139.53 95.5291 139.177Z" fill="#FDC7BF"/>
<path d="M101.808 114.969C97.3858 116.27 93.2055 121.565 92.1465 124.946C91.8678 121.862 91.6449 118.871 92.1465 117.143C92.1465 117.143 93.447 112.517 96.6798 112.182C99.9126 111.848 102.737 114.691 101.808 114.969Z" fill="#8F724C"/>
<path d="M111.877 128.903C110.317 123.088 106.081 122.772 103.294 118.74C100.507 114.709 99.7081 111.996 95.3792 113.222C95.3792 113.222 98.0545 110.361 101.919 109.971C105.783 109.6 111.896 116.957 111.896 119.428C111.896 121.899 111.877 128.903 111.877 128.903Z" fill="#6B5539"/>
<path d="M112.472 128.272C110.911 122.457 106.675 122.141 103.889 118.109C101.102 114.077 100.303 111.365 95.9739 112.591C95.9739 112.591 98.6493 109.73 102.514 109.34C106.378 108.968 112.491 116.325 112.491 118.796C112.472 121.286 112.472 128.272 112.472 128.272Z" fill="#8F724C"/>
<path d="M100.34 137.746C99.4107 137.746 98.5189 137.579 97.6643 137.301C97.7944 136.966 97.8687 136.595 97.8687 136.223V135.944C98.649 136.186 99.4665 136.316 100.34 136.316C101.343 136.316 102.29 136.13 103.164 135.814V136.372C103.164 136.65 103.201 136.929 103.275 137.208C102.383 137.542 101.38 137.746 100.34 137.746Z" fill="#FDC7BF"/>
<path d="M89.4349 177.284C91.2742 178.398 109.686 178.398 111.525 177.284C113.086 176.318 119.96 145.829 117.285 143.749C115.074 142.021 113.773 142.206 111.99 141.872C112.176 143.637 110.095 152.518 100.359 152.518C90.7169 152.518 88.5803 143.804 88.7289 141.928C87.0754 142.206 85.812 142.132 83.7126 143.749C81.0186 145.829 87.8743 176.318 89.4349 177.284Z" fill="#FFD247"/>
<path d="M100.34 152.517C110.075 152.517 112.156 143.637 111.97 141.871C111.952 141.704 111.915 141.593 111.859 141.574C111.246 141.258 111.302 141.017 110.763 141.574C110.763 141.574 110.466 145.94 107.994 148.318C104.613 151.551 100.34 151.347 100.34 151.347C100.34 151.347 96.0482 151.533 92.6668 148.318C90.3816 146.145 89.9542 142.262 89.8985 141.667C89.8985 141.611 89.8985 141.593 89.8985 141.593C89.3597 141.035 89.3969 141.277 88.8023 141.593C88.7466 141.63 88.7094 141.741 88.6909 141.946C88.5794 143.804 90.6974 152.517 100.34 152.517Z" fill="#FFD247"/>
<path d="M104.929 129.943C105.152 129.943 105.338 130.147 105.301 130.37C105.078 132.005 103.666 133.287 101.975 133.287C100.266 133.287 98.8727 132.024 98.6498 130.37C98.6126 130.147 98.7984 129.943 99.0214 129.943H104.929Z" fill="#FDEDEB"/>
<path d="M79.5134 174.516C82.9506 179.848 88.58 189.658 89.0445 190.011C89.3418 190.234 91.2554 193.244 89.509 194.656C87.7625 196.068 85.1429 193.225 84.8271 192.983C84.6598 192.853 78.1758 187.131 74.0884 181.056C72.8807 179.254 71.7103 177.451 70.7441 175.761C73.3638 174.237 76.2807 173.828 79.5134 174.516Z" fill="#FDC7BF"/>
<path d="M105.393 208.719C105.393 203.703 101.324 199.634 96.2894 199.634C91.2544 199.634 87.2042 203.703 87.1856 208.719H86.3867C86.3867 203.257 90.8271 198.816 96.2894 198.816C101.752 198.816 106.192 203.238 106.192 208.719H105.393Z" fill="#B7BEC7"/>
<path d="M78.3612 208.719H106.731V252.752H73.605L78.3612 208.719Z" fill="#EBEEF2"/>
<path d="M116.058 252.752H106.731V208.719H113.587L116.058 252.752Z" fill="#B7BEC7"/>
<path d="M88.9385 219.692H95.98V208.731H88.9385V219.692Z" fill="#FCFEFF"/>
<path d="M102.904 208.719C102.904 203.703 98.8348 199.634 93.7998 199.634C88.7835 199.634 84.7147 203.703 84.6961 208.719H83.8972C83.8972 203.257 88.3376 198.816 93.7998 198.816C99.2621 198.816 103.702 203.238 103.702 208.719H102.904Z" fill="#EBEEF2"/>
<path d="M110.986 215.315C111.209 215.315 111.395 215.501 111.395 215.724V246.1C111.395 246.323 111.209 246.509 110.986 246.509C110.763 246.509 110.596 246.323 110.596 246.1V215.724C110.596 215.501 110.782 215.315 110.986 215.315Z" fill="#EBEEF2"/>
<path d="M88.45 189.193L96.5876 191.553L96.5133 192.909L93.2805 194.135L94.3767 200.173L99.2444 203.685L99.0958 204.632L99.6903 205.32L99.3559 206.119L98.7242 205.951L98.4641 206.713L97.4608 206.546L97.2936 207.512L88.1156 201.474L83.9539 192.221L88.45 189.193Z" fill="#FDC7BF"/>
<path d="M87.2977 144.027C88.9512 145.55 89.0627 148.114 87.5392 149.786C87.5021 149.823 83.9906 153.651 80.8322 158.258C75.4628 166.043 76.206 168.551 76.206 168.57C76.8005 170.112 78.0082 172.23 79.4945 174.533C76.2803 173.827 73.3448 174.255 70.7252 175.797C69.8334 174.236 69.0902 172.768 68.6072 171.505C66.9351 167.195 68.7001 161.528 74.1066 153.651C77.5994 148.579 81.371 144.454 81.5196 144.287C83.0617 142.615 85.6442 142.503 87.2977 144.027Z" fill="#FFD247"/>
<path d="M149.965 122.364H142.812C142.366 122.364 142.013 122.717 142.013 123.163V136.242C142.013 136.688 142.366 137.041 142.812 137.041H149.984C150.43 137.041 150.783 136.688 150.783 136.242V123.163C150.764 122.717 150.411 122.364 149.965 122.364Z" fill="#18171C"/>
<path d="M108.85 126.358L107.55 133.046C107.345 133.511 101.567 141.407 93.541 133.028L92.2405 126.358C99.9322 128.922 105.896 127.324 108.85 126.358Z" fill="#FFFDFE"/>
<path d="M93.5414 133.028C100.583 140.366 105.896 135.183 107.234 133.492C101.493 133.325 96.6255 131.764 92.854 128.476L93.5414 133.028Z" fill="#F4F1F2"/>
<path d="M93.745 133.195C93.039 133.195 92.2587 132.675 91.5713 131.727C90.1779 129.869 88.9702 126.246 89.6019 122.642C89.862 121.118 90.2708 120.264 90.8281 120.115C91.0697 120.041 91.4598 120.078 91.8871 120.672C92.6303 121.657 93.1319 125.614 92.6489 126.729C92.6117 126.822 92.5188 126.859 92.4445 126.804C92.3702 126.766 92.333 126.655 92.3702 126.581C92.7789 125.614 92.3145 121.787 91.6456 120.895C91.4598 120.654 91.1811 120.375 90.9025 120.45C90.6609 120.524 90.215 120.895 89.8992 122.716C89.3047 126.209 90.4566 129.72 91.8128 131.504C92.4631 132.359 93.1505 132.842 93.7636 132.842C93.8565 132.842 93.9123 132.916 93.9123 133.009C93.9123 133.12 93.8379 133.195 93.745 133.195Z" fill="#F4F1F2"/>
<path d="M102.42 128.495H102.215V136.168H102.42V128.495Z" fill="#E9E8EA"/>
<path d="M96.9387 133.92C97.0316 133.92 97.1059 133.827 97.1059 133.697C97.1059 133.585 97.0316 133.474 96.9387 133.474C95.5824 133.474 94.4863 132.136 94.4863 130.501C94.4863 130.39 94.412 130.278 94.3191 130.278C94.2262 130.278 94.1519 130.371 94.1519 130.501C94.1519 132.378 95.4152 133.92 96.9387 133.92Z" fill="#E9E8EA"/>
<path d="M96.8442 132.991C96.9371 132.991 97.0114 132.898 97.0114 132.768C97.0114 132.657 96.9371 132.545 96.8442 132.545C96.0082 132.545 95.3207 131.728 95.3207 130.706C95.3207 130.594 95.2464 130.483 95.1535 130.483C95.0606 130.483 94.9863 130.576 94.9863 130.706C94.9863 131.988 95.8224 132.991 96.8442 132.991Z" fill="#E9E8EA"/>
<path d="M290.602 87.4195V92.616L326.339 86.7071V49.3843L294.911 54.5808V49.3843L259.174 55.2932V92.616L290.602 87.4195ZM289.428 94V88.8034L258 94V54.2975L296.085 48.0004V53.1969L327.513 48.0004V87.7029L289.428 94Z" fill="#FFCD00"/>
<path d="M276.708 67.0216C275.625 67.0216 275.084 67.7708 275.084 69.2689V69.4093C275.084 70.8783 275.631 71.6127 276.725 71.6127C277.784 71.6127 278.326 70.9104 278.349 69.5059V69.225C278.349 67.7561 277.802 67.0216 276.708 67.0216ZM277.261 64.7392C278.501 64.7392 279.486 65.146 280.215 65.9594C280.943 66.773 281.308 67.8819 281.308 69.2864V69.4093C281.308 70.2989 281.123 71.0846 280.755 71.7663C280.386 72.4482 279.855 72.9733 279.161 73.342C278.468 73.7108 277.656 73.895 276.725 73.895C275.321 73.895 274.201 73.4445 273.367 72.5432C272.533 71.6421 272.116 70.4013 272.116 68.8211V68.5403C272.128 66.3749 272.485 64.672 273.187 63.4312C273.89 62.1905 274.964 61.4093 276.409 61.0873C277.059 60.9411 277.484 60.7992 277.686 60.6615C277.888 60.5241 277.989 60.309 277.989 60.0164H280.368C280.368 60.7479 280.255 61.3039 280.03 61.6843C279.805 62.0647 279.448 62.3793 278.959 62.6279C278.471 62.8768 277.784 63.0831 276.901 63.2468C276.204 63.3756 275.667 63.6493 275.29 64.0677C274.912 64.4861 274.656 65.0699 274.522 65.8189C275.312 65.0991 276.225 64.7392 277.261 64.7392Z" fill="#0049CC"/>
<path d="M285.775 73.7114H282.808V64.2131H285.775V73.7114Z" fill="#0049CC"/>
<path d="M285.775 63.0845H282.808V61.0459H285.775V63.0845Z" fill="#0049CC"/>
<path d="M296.08 64.2126V73.7109H293.121V66.495H291.348L291.19 69.4006C291.079 70.8404 290.754 71.9172 290.216 72.6312C289.677 73.3452 288.878 73.7052 287.819 73.7109H286.889L286.854 71.4285L287.161 71.3935C287.553 71.3469 287.844 71.0856 288.034 70.6097C288.224 70.1339 288.346 69.4144 288.399 68.4511L288.583 64.2126H296.08Z" fill="#0049CC"/>
<path d="M301.193 71.7799C301.561 71.7799 301.867 71.7008 302.11 71.5429C302.353 71.3848 302.527 71.2064 302.632 71.0073V69.4888H301.772C300.742 69.4888 300.227 69.951 300.227 70.8757C300.227 71.145 300.318 71.3629 300.499 71.5297C300.68 71.6964 300.912 71.7799 301.193 71.7799ZM303.045 73.7111C302.939 73.5179 302.846 73.2342 302.764 72.8597C302.22 73.5444 301.459 73.8867 300.482 73.8867C299.586 73.8867 298.825 73.6161 298.199 73.0746C297.573 72.5335 297.26 71.8531 297.26 71.0338C297.26 70.0038 297.64 69.2253 298.401 68.6987C299.162 68.172 300.268 67.9086 301.719 67.9086H302.632V67.4058C302.632 66.5295 302.255 66.0915 301.5 66.0915C300.798 66.0915 300.446 66.4385 300.446 67.1325H297.488C297.488 66.2148 297.879 65.4694 298.66 64.8967C299.441 64.3238 300.438 64.0372 301.649 64.0372C302.86 64.0372 303.817 64.3329 304.52 64.9239C305.222 65.515 305.582 66.3255 305.599 67.3555V71.5604C305.611 72.4325 305.745 73.0996 306.003 73.5619V73.7111H303.045Z" fill="#0049CC"/>
<path d="M295.322 74.9453H295.91V79.7488H298.764V74.9453H299.352V79.7488H299.891L299.846 81.8152H299.308V80.2434H295.322V74.9453Z" fill="#0049CC"/>
<path d="M301.643 80.2432H301.055V74.9451H301.643V80.2432Z" fill="#0049CC"/>
<path d="M307.305 80.2437H306.717V77.8149H303.863V80.2437H303.275V74.9455H303.863V77.3203H306.717V74.9455H307.305V80.2437Z" fill="#0049CC"/>
<path d="M310.379 79.822C310.77 79.822 311.12 79.7273 311.429 79.538C311.737 79.3488 311.962 79.0957 312.102 78.7791V77.6137H311.054C310.47 77.6203 310.013 77.7272 309.683 77.9343C309.353 78.1417 309.189 78.4265 309.189 78.7889C309.189 79.0859 309.299 79.3324 309.519 79.5283C309.74 79.7242 310.026 79.822 310.379 79.822ZM312.22 80.2432C312.161 80.0767 312.123 79.8302 312.107 79.5038C311.901 79.7715 311.639 79.9779 311.321 80.1232C311.003 80.2684 310.666 80.3411 310.31 80.3411C309.801 80.3411 309.389 80.1991 309.074 79.915C308.759 79.631 308.601 79.272 308.601 78.8378C308.601 78.3221 308.816 77.914 309.245 77.6137C309.674 77.3134 310.272 77.1631 311.04 77.1631H312.102V76.5609C312.102 76.1822 311.985 75.8844 311.752 75.6672C311.519 75.4502 311.178 75.3416 310.731 75.3416C310.323 75.3416 309.985 75.4461 309.717 75.655C309.45 75.864 309.316 76.1153 309.316 76.4091L308.728 76.4042C308.728 75.9831 308.924 75.6183 309.316 75.3098C309.708 75.0014 310.189 74.8471 310.761 74.8471C311.351 74.8471 311.817 74.9949 312.158 75.2903C312.5 75.5857 312.675 75.9978 312.685 76.5266V79.0337C312.685 79.5462 312.739 79.9297 312.846 80.1843V80.2432H312.22Z" fill="#0049CC"/>
</svg>
