<svg width="536" height="326" viewBox="0 0 536 326" fill="none" xmlns="http://www.w3.org/2000/svg">
<path fill-rule="evenodd" clip-rule="evenodd" d="M268.165 11.3813C111.39 66.2103 -17.4662 30.7973 1.94073 218.473C21.8453 305.608 121.39 354.408 263.89 308.264C406.39 262.121 545.39 324.971 534.39 218.473C523.39 111.974 424.941 -43.4478 268.165 11.3813Z" fill="#EAEBED"/>
<g clip-path="url(#clip0_306_3)">
<path d="M55.8129 64.7531C55.7332 64.7531 55.7332 64.6734 55.6535 64.5937C55.494 64.3545 55.494 64.0356 55.7332 63.8762C56.4507 63.2384 57.1683 62.76 57.9655 62.2817C58.2047 62.1222 58.5236 62.202 58.683 62.4411C58.8425 62.6803 58.7627 62.9992 58.5236 63.1587C57.806 63.5573 57.0885 64.1154 56.4507 64.6734C56.2116 64.8329 55.9724 64.9126 55.8129 64.7531Z" fill="#C5C8CE"/>
<path d="M63.2273 122.394C61.7125 121.517 60.2775 120.241 59.0816 118.806C58.9221 118.567 58.9221 118.248 59.1613 118.089C59.4005 117.929 59.7194 117.929 59.8788 118.169C60.995 119.524 62.3503 120.64 63.7056 121.517C63.9448 121.676 64.0245 121.995 63.8651 122.235C63.7853 122.394 63.4664 122.474 63.2273 122.394ZM57.4871 116.335C57.4074 116.255 57.3276 116.255 57.2479 116.096C56.371 114.501 55.6534 112.827 55.2548 111.073C55.1751 110.754 55.3345 110.515 55.6534 110.435C55.9723 110.356 56.2115 110.515 56.2912 110.834C56.6898 112.508 57.3276 114.103 58.2046 115.617C58.3641 115.857 58.2843 116.175 58.0452 116.335C57.806 116.415 57.6465 116.415 57.4871 116.335ZM55.0156 108.283C54.8562 108.203 54.7765 108.044 54.6967 107.884V107.645C54.617 105.971 54.6967 104.217 54.9359 102.463C55.0156 102.144 55.2548 101.985 55.5737 101.985C55.8926 102.064 56.0521 102.303 56.0521 102.543C55.8129 104.217 55.7332 105.891 55.8129 107.486V107.725C55.8129 108.044 55.6534 108.283 55.3345 108.283C55.1751 108.283 55.0954 108.283 55.0156 108.283ZM55.8926 99.8319C55.6534 99.7522 55.5737 99.5131 55.6534 99.1942C56.0521 97.5997 56.6898 95.8457 57.4074 94.0918C57.4871 93.8526 57.806 93.6932 58.1249 93.7729C58.3641 93.8526 58.5235 94.1715 58.4438 94.4904C57.7263 96.1646 57.1682 97.8388 56.7696 99.4333C56.6898 99.7522 56.371 99.9117 56.1318 99.8319C55.9723 99.9117 55.9723 99.8319 55.8926 99.8319ZM58.9221 91.9392C58.683 91.7798 58.5235 91.4609 58.683 91.2217C58.7627 91.142 58.7627 90.9825 58.8424 90.9028C58.0452 90.5042 57.2479 90.1055 56.5304 89.6272C56.2912 89.4678 56.2115 89.1489 56.371 88.9097C56.5304 88.6705 56.8493 88.5908 57.0885 88.7502C57.806 89.2286 58.5235 89.6272 59.241 89.9461C59.7991 88.83 60.4369 87.7138 61.1544 86.5179C61.3139 86.2788 61.6328 86.199 61.8719 86.3585C62.1111 86.5179 62.1908 86.8368 62.0314 87.076C61.3139 88.2719 60.7558 89.3083 60.1977 90.3447C60.6761 90.5042 61.1544 90.6636 61.7125 90.8231C62.0314 90.9028 62.1908 91.2217 62.1111 91.4609C62.0314 91.7798 61.7125 91.9392 61.4733 91.8595C60.9153 91.7 60.3572 91.5406 59.7991 91.3014C59.7194 91.4609 59.6397 91.5406 59.6397 91.7C59.5599 91.9392 59.241 92.0987 58.9221 91.9392C59.0019 91.9392 58.9221 91.9392 58.9221 91.9392ZM54.2184 87.6341C54.1387 87.6341 54.1387 87.5544 54.0589 87.5544C53.2617 86.7571 52.5442 85.8004 51.9861 84.8437C51.6672 84.2059 51.3483 83.6479 51.0294 82.9303C50.9497 82.6912 51.0294 82.3723 51.3483 82.2128C51.5875 82.1331 51.9064 82.2128 52.0658 82.5317C52.305 83.1695 52.6239 83.7276 52.9428 84.2857C53.5009 85.1626 54.1387 86.0396 54.8562 86.7571C55.0954 86.9963 55.0156 87.3152 54.8562 87.4746C54.617 87.7138 54.3778 87.7138 54.2184 87.6341ZM64.5826 92.4176C64.4231 92.3378 64.2637 92.0987 64.2637 91.9392C64.2637 91.6203 64.5029 91.4609 64.8218 91.4609C66.5757 91.6203 68.2499 91.4609 69.9241 91.0622C70.243 90.9825 70.4822 91.142 70.5619 91.4609C70.6417 91.7798 70.4822 92.0189 70.1633 92.0987C68.4094 92.577 66.5757 92.6567 64.742 92.4973C64.742 92.4176 64.6623 92.4176 64.5826 92.4176ZM50.4713 80.14C50.3119 80.0602 50.2322 79.9008 50.1524 79.7414C49.8335 77.9874 49.8335 76.1537 50.0727 74.3201C50.1524 74.0012 50.3916 73.8417 50.6308 73.8417C51.0294 73.9215 51.1889 74.2404 51.1091 74.4795C50.87 76.2335 50.87 77.9077 51.1889 79.5819C51.2686 79.9008 51.0294 80.14 50.7902 80.2197C50.6308 80.2197 50.5511 80.2197 50.4713 80.14ZM72.7942 90.9028C72.7145 90.8231 72.6348 90.7433 72.555 90.6636C72.3956 90.4244 72.555 90.1055 72.7942 89.9461C73.1928 89.7069 73.5915 89.5475 73.9104 89.3083C74.9468 88.6705 75.9035 87.7138 76.621 86.7571C76.7804 86.5179 77.0993 86.4382 77.3385 86.5977C77.5777 86.7571 77.6574 87.076 77.498 87.3152C76.7007 88.4313 75.6643 89.388 74.5482 90.1853C74.1495 90.4244 73.7509 90.6636 73.3523 90.9028C73.1131 90.9825 72.9537 90.9825 72.7942 90.9028ZM63.1475 84.5248C63.1475 84.5248 63.0678 84.5248 63.1475 84.5248C62.8286 84.3654 62.7489 84.0465 62.9084 83.8073C64.1042 81.9736 65.1407 80.6183 66.3365 79.5819C66.5757 79.4224 66.8946 79.4224 67.054 79.5819C67.2135 79.8211 67.2135 80.14 67.054 80.2994C65.9379 81.2561 64.9015 82.5317 63.7853 84.2857C63.6259 84.6045 63.3867 84.6843 63.1475 84.5248ZM51.1091 71.7689C50.87 71.6892 50.7902 71.3703 50.87 71.1311C51.1091 70.3338 51.428 69.5366 51.8266 68.8191C52.305 67.9421 52.7833 67.0651 53.4211 66.2679C53.5806 66.1084 53.8995 66.0287 54.1387 66.2679C54.3778 66.4273 54.3778 66.7462 54.2184 66.9854C53.6603 67.7029 53.182 68.5002 52.7036 69.3772C52.3847 70.0947 52.0658 70.8122 51.8266 71.5297C51.7469 71.7689 51.5078 71.9283 51.1091 71.7689C51.1889 71.8486 51.1889 71.7689 51.1091 71.7689ZM78.2155 84.6045C77.9763 84.5248 77.8966 84.2857 77.9763 84.0465C78.2952 82.7709 78.1358 81.6547 77.6574 80.6183C77.498 80.2197 77.2588 79.9008 76.9399 79.6616C76.7007 79.4225 76.7804 79.1036 76.9399 78.9441C77.1791 78.7049 77.498 78.7847 77.6574 78.9441C77.9763 79.3427 78.2952 79.7414 78.5344 80.14C79.1722 81.4156 79.3316 82.8506 78.933 84.3654C78.8533 84.6843 78.6141 84.8437 78.2952 84.764C78.2952 84.6843 78.2155 84.6843 78.2155 84.6045ZM69.1269 78.7049C69.0472 78.6252 68.9674 78.5455 68.8877 78.4658C68.7283 78.2266 68.8877 77.9077 69.1269 77.7482C70.8011 76.951 72.8739 76.7915 74.6279 77.1902C74.9468 77.2699 75.1062 77.5091 75.0265 77.828C74.9468 78.1469 74.7076 78.3063 74.3887 78.2266C72.7942 77.828 71.0403 77.9874 69.5255 78.7049C69.3661 78.7847 69.2066 78.7049 69.1269 78.7049Z" fill="#C5C8CE"/>
<path d="M66.1772 123.67C65.938 123.59 65.8583 123.271 65.938 123.032C66.0177 122.713 66.3366 122.554 66.5758 122.633C67.373 122.873 68.25 123.032 69.0472 123.032C69.3661 123.032 69.5256 123.271 69.5256 123.59C69.5256 123.909 69.2864 124.068 68.9675 124.068C68.0905 123.989 67.1338 123.829 66.2569 123.59C66.2569 123.67 66.2569 123.67 66.1772 123.67Z" fill="#C5C8CE"/>
<path d="M97.9873 85.003C94.4794 100.151 130.276 102.144 145.025 102.303C149.091 102.383 153.157 101.984 157.223 101.187C169.66 98.6359 197.005 92.0188 193.178 83.0099C188.236 71.3701 173.407 79.502 173.407 79.502C173.407 79.502 175.24 70.7323 150.047 64.9124C124.775 59.0925 124.934 78.4656 124.934 78.4656C124.934 78.4656 102.372 65.8691 97.9873 85.003Z" fill="#F5F7F9"/>
<path d="M395.201 90.2649H275.215C275.215 90.2649 268.678 82.0533 275.215 76.4726C278.803 73.443 283.028 73.7619 286.137 74.6389C288.13 75.197 290.124 73.8417 290.602 71.8485C291.319 68.5001 293.552 64.0355 300.009 61.4046C306.387 58.8534 310.374 62.7599 312.686 66.8259C313.483 68.1812 315.476 67.942 315.954 66.507C317.947 60.129 324.963 51.6782 348.083 51.6782C377.422 51.6782 374.153 67.3042 371.522 73.7619C371.044 74.8781 372.001 76.0739 373.197 75.8348C377.741 74.8781 386.112 73.6025 389.859 76.5523C395.201 80.698 395.201 90.2649 395.201 90.2649Z" fill="#F5F7F9"/>
<path d="M159.056 76.3131L158.419 75.6753C157.223 76.8712 155.947 78.1468 154.831 79.4223L155.469 79.9804C156.665 78.7845 157.86 77.509 159.056 76.3131Z" fill="#C6C8CE"/>
<path d="M166.949 69.7756L166.471 69.0581C165.036 70.0945 163.68 71.1309 162.405 72.2471L162.963 72.8849C164.159 71.8485 165.514 70.812 166.949 69.7756Z" fill="#C6C8CE"/>
<path d="M175.24 63.6367C173.726 64.434 172.211 65.3109 170.696 66.1879L171.174 66.9054C172.609 66.0285 174.124 65.1515 175.639 64.434L175.24 63.6367Z" fill="#C6C8CE"/>
<path d="M152.359 84.0462L151.642 83.5679C150.605 84.9232 149.569 86.3582 148.692 87.7933L149.41 88.2716C150.287 86.7569 151.323 85.4015 152.359 84.0462Z" fill="#C6C8CE"/>
<path d="M184.807 59.6506C183.213 60.2087 181.539 60.8465 179.944 61.4843L180.263 62.2815C181.858 61.6438 183.452 61.006 185.047 60.4479L184.807 59.6506Z" fill="#C6C8CE"/>
<path d="M146.779 92.5768L146.061 92.1782C145.264 93.693 144.467 95.2875 143.749 96.8023L144.547 97.1211C145.264 95.6861 145.982 94.0916 146.779 92.5768Z" fill="#C6C8CE"/>
<path d="M252.653 73.5226C251.377 72.4065 250.022 71.2903 248.667 70.2539L248.109 70.9714C249.464 72.0078 250.819 73.124 252.015 74.2401L252.653 73.5226Z" fill="#C6C8CE"/>
<path d="M244.441 67.2244C243.006 66.2677 241.491 65.3908 239.977 64.5935L239.578 65.311C241.093 66.1083 242.528 66.9852 243.963 67.9419L244.441 67.2244Z" fill="#C6C8CE"/>
<path d="M194.853 57.0994C193.178 57.4183 191.424 57.7372 189.75 58.2155L189.989 59.0128C191.664 58.6141 193.338 58.2155 195.012 57.9763L194.853 57.0994Z" fill="#C6C8CE"/>
<path d="M259.191 81.495L259.828 80.9369C258.712 79.5816 257.596 78.306 256.4 77.1101L255.762 77.6682C256.958 78.9438 258.074 80.2194 259.191 81.495Z" fill="#C6C8CE"/>
<path d="M154.831 169.272L154.193 169.83C155.31 171.106 156.505 172.461 157.701 173.657L158.339 173.019C157.063 171.823 155.947 170.548 154.831 169.272Z" fill="#C6C8CE"/>
<path d="M205.137 56.063C203.383 56.063 201.709 56.2224 199.955 56.3819L200.035 57.2589C201.709 57.0994 203.463 57.0197 205.137 56.94V56.063Z" fill="#C6C8CE"/>
<path d="M142.633 101.984L141.836 101.666C141.278 103.26 140.72 104.934 140.242 106.608L141.039 106.848C141.517 105.173 142.075 103.579 142.633 101.984Z" fill="#C6C8CE"/>
<path d="M235.353 62.2814C233.758 61.5639 232.164 60.9261 230.569 60.2883L230.25 61.0856C231.845 61.6436 233.439 62.3612 234.954 62.999L235.353 62.2814Z" fill="#C6C8CE"/>
<path d="M225.626 58.6939C223.952 58.2156 222.278 57.8169 220.604 57.498L220.444 58.375C222.118 58.6939 223.793 59.0925 225.387 59.5709L225.626 58.6939Z" fill="#C6C8CE"/>
<path d="M138.647 121.915L137.77 121.836C137.69 123.59 137.69 125.264 137.69 127.018H138.567C138.567 125.344 138.567 123.669 138.647 121.915Z" fill="#C6C8CE"/>
<path d="M274.896 127.496H275.773C275.853 125.742 275.853 124.068 275.773 122.314H274.896C274.896 124.068 274.976 125.822 274.896 127.496Z" fill="#C6C8CE"/>
<path d="M261.423 84.3651C262.459 85.7204 263.416 87.1554 264.293 88.5905L265.01 88.1121C264.054 86.6771 263.097 85.242 262.061 83.8867L261.423 84.3651Z" fill="#C6C8CE"/>
<path d="M269.156 97.5994L269.953 97.2805C269.236 95.686 268.518 94.1713 267.641 92.6565L266.924 93.0551C267.721 94.4902 268.439 96.0049 269.156 97.5994Z" fill="#C6C8CE"/>
<path d="M272.584 107.246L273.381 107.007C272.903 105.333 272.425 103.658 271.866 102.064L271.069 102.383C271.627 103.898 272.106 105.572 272.584 107.246Z" fill="#C6C8CE"/>
<path d="M274.498 117.291L275.375 117.212C275.215 115.538 274.896 113.784 274.577 112.109L273.7 112.269C274.019 113.863 274.259 115.617 274.498 117.291Z" fill="#C6C8CE"/>
<path d="M140.799 142.245L140.002 142.485C140.401 144.159 140.959 145.833 141.517 147.427L142.314 147.188C141.676 145.514 141.198 143.92 140.799 142.245Z" fill="#C6C8CE"/>
<path d="M138.966 132.2L138.089 132.28C138.248 133.954 138.487 135.708 138.806 137.382L139.683 137.223C139.364 135.548 139.125 133.874 138.966 132.2Z" fill="#C6C8CE"/>
<path d="M144.068 151.892L143.271 152.211C143.909 153.805 144.706 155.4 145.503 156.914L146.3 156.516C145.503 155.001 144.706 153.486 144.068 151.892Z" fill="#C6C8CE"/>
<path d="M148.772 160.981L148.054 161.459C148.931 162.894 149.968 164.329 150.925 165.764L151.642 165.286C150.685 163.851 149.729 162.416 148.772 160.981Z" fill="#C6C8CE"/>
<path d="M273.78 137.621L274.657 137.781C274.976 136.107 275.215 134.353 275.454 132.678L274.578 132.599C274.338 134.273 274.099 136.027 273.78 137.621Z" fill="#C6C8CE"/>
<path d="M215.501 56.6212C213.827 56.382 212.073 56.2225 210.319 56.1428L210.24 57.0198C211.914 57.0995 213.668 57.259 215.342 57.4981L215.501 56.6212Z" fill="#C6C8CE"/>
<path d="M271.149 147.507L271.946 147.826C272.504 146.232 272.983 144.557 273.461 142.883L272.664 142.644C272.185 144.318 271.707 145.913 271.149 147.507Z" fill="#C6C8CE"/>
<path d="M306.786 78.8643L306.706 77.9873C305.032 78.2265 303.278 78.5454 301.604 78.8643L301.763 79.7412C303.438 79.3426 305.112 79.0237 306.786 78.8643Z" fill="#C5C8CE"/>
<path d="M327.355 78.306C325.681 77.9871 323.927 77.8277 322.252 77.6682L322.173 78.5452C323.847 78.7046 325.601 78.9438 327.275 79.183L327.355 78.306Z" fill="#C5C8CE"/>
<path d="M296.821 80.9369L296.581 80.1396C294.907 80.618 293.313 81.1761 291.638 81.8139L291.957 82.6111C293.552 81.9733 295.146 81.4152 296.821 80.9369Z" fill="#C5C8CE"/>
<path d="M316.991 78.2263V77.3494C315.237 77.3494 313.483 77.3494 311.809 77.4291L311.888 78.3061C313.563 78.2263 315.316 78.2263 316.991 78.2263Z" fill="#C5C8CE"/>
<path d="M287.253 84.5245L286.855 83.7273C285.26 84.4448 283.745 85.2421 282.231 86.119L282.629 86.8366C284.144 86.0393 285.739 85.2421 287.253 84.5245Z" fill="#C5C8CE"/>
<path d="M270.272 95.7657L269.714 95.1279C268.438 96.2441 267.163 97.5197 265.967 98.7155L266.605 99.2736C267.721 98.0777 268.996 96.8819 270.272 95.7657Z" fill="#C5C8CE"/>
<path d="M337.4 80.7776C335.806 80.2195 334.052 79.7412 332.457 79.3425L332.218 80.1398C333.892 80.5384 335.487 81.0167 337.161 81.5748L337.4 80.7776Z" fill="#C5C8CE"/>
<path d="M278.324 89.5471L277.846 88.8296C276.411 89.7863 274.976 90.8227 273.621 91.8591L274.179 92.5766C275.534 91.4605 276.889 90.4241 278.324 89.5471Z" fill="#C5C8CE"/>
<path d="M263.176 103.18L262.539 102.622C261.422 103.977 260.386 105.333 259.429 106.768L260.147 107.246C261.024 105.891 262.14 104.456 263.176 103.18Z" fill="#C5C8CE"/>
<path d="M380.691 122.553C380.132 120.959 379.415 119.364 378.697 117.77L377.9 118.089C378.618 119.603 379.255 121.198 379.814 122.792L380.691 122.553Z" fill="#C5C8CE"/>
<path d="M383.959 142.803L384.836 142.724C384.756 140.97 384.597 139.295 384.358 137.542L383.481 137.621C383.72 139.375 383.879 141.129 383.959 142.803Z" fill="#C5C8CE"/>
<path d="M346.967 84.7639C345.452 83.9666 343.858 83.2491 342.263 82.6113L341.944 83.4086C343.539 84.0464 345.054 84.7639 346.568 85.5611L346.967 84.7639Z" fill="#C5C8CE"/>
<path d="M247.87 150.776L246.993 150.856C247.072 152.61 247.312 154.284 247.551 156.038L248.428 155.958C248.109 154.204 247.949 152.45 247.87 150.776Z" fill="#C5C8CE"/>
<path d="M252.175 170.707L251.377 171.026C252.015 172.62 252.653 174.215 253.371 175.809L254.168 175.411C253.45 173.816 252.812 172.302 252.175 170.707Z" fill="#C5C8CE"/>
<path d="M250.5 165.844C250.022 164.249 249.623 162.575 249.225 160.901L248.348 161.06C248.746 162.735 249.145 164.409 249.623 166.083L250.5 165.844Z" fill="#C5C8CE"/>
<path d="M383.481 132.519C383.162 130.845 382.684 129.17 382.285 127.496L381.488 127.735C381.966 129.33 382.365 131.004 382.684 132.678L383.481 132.519Z" fill="#C5C8CE"/>
<path d="M376.385 113.146C375.588 111.631 374.631 110.116 373.754 108.681L373.037 109.16C373.994 110.595 374.871 112.03 375.668 113.544L376.385 113.146Z" fill="#C5C8CE"/>
<path d="M362.115 196.538L362.673 197.175C363.949 195.98 365.144 194.784 366.34 193.508L365.702 192.95C364.586 194.146 363.311 195.342 362.115 196.538Z" fill="#C5C8CE"/>
<path d="M369.051 189.043L369.688 189.602C370.725 188.246 371.841 186.891 372.798 185.456L372.08 184.978C371.203 186.333 370.167 187.688 369.051 189.043Z" fill="#C5C8CE"/>
<path d="M370.725 104.456C369.689 103.1 368.572 101.745 367.456 100.469L366.818 101.028C367.935 102.303 369.051 103.658 370.087 104.934L370.725 104.456Z" fill="#C5C8CE"/>
<path d="M374.871 180.593L375.588 180.991C376.465 179.477 377.262 177.962 378.06 176.447L377.262 176.048C376.545 177.643 375.748 179.158 374.871 180.593Z" fill="#C5C8CE"/>
<path d="M255.762 180.354C256.639 181.868 257.516 183.303 258.473 184.738L259.19 184.26C258.234 182.825 257.357 181.39 256.48 179.875L255.762 180.354Z" fill="#C5C8CE"/>
<path d="M384.039 146.391C384.039 148.065 383.959 149.819 383.88 151.493L384.756 151.573C384.916 149.899 384.916 148.145 384.916 146.391H384.039Z" fill="#C5C8CE"/>
<path d="M382.365 161.618L383.162 161.778C383.561 160.103 383.88 158.35 384.119 156.675L383.242 156.516C383.082 158.27 382.763 159.944 382.365 161.618Z" fill="#C5C8CE"/>
<path d="M379.335 171.424L380.133 171.743C380.77 170.149 381.329 168.475 381.887 166.88L381.089 166.641C380.531 168.156 379.973 169.83 379.335 171.424Z" fill="#C5C8CE"/>
<path d="M252.733 120.72L251.936 120.401C251.298 121.995 250.66 123.669 250.182 125.264L250.979 125.503C251.537 123.909 252.095 122.314 252.733 120.72Z" fill="#C5C8CE"/>
<path d="M249.624 130.446L248.826 130.207C248.428 131.881 248.109 133.555 247.79 135.309L248.667 135.469C248.906 133.794 249.225 132.12 249.624 130.446Z" fill="#C5C8CE"/>
<path d="M247.949 140.571L247.072 140.491C246.913 142.165 246.833 143.919 246.833 145.673H247.71C247.71 143.919 247.869 142.245 247.949 140.571Z" fill="#C5C8CE"/>
<path d="M257.277 111.551L256.559 111.073C255.683 112.588 254.806 114.103 254.088 115.617L254.885 116.016C255.603 114.501 256.4 112.986 257.277 111.551Z" fill="#C5C8CE"/>
<path d="M345.213 207.938L345.612 208.735C347.126 208.018 348.721 207.221 350.236 206.344L349.837 205.626C348.243 206.423 346.728 207.221 345.213 207.938Z" fill="#C5C8CE"/>
<path d="M354.063 202.836L354.541 203.553C355.976 202.597 357.331 201.56 358.687 200.524L358.129 199.886C356.853 200.922 355.498 201.879 354.063 202.836Z" fill="#C5C8CE"/>
<path d="M355.817 90.1052C354.382 89.0688 352.947 88.1121 351.512 87.2351L351.033 87.9526C352.468 88.8296 353.903 89.7863 355.338 90.743L355.817 90.1052Z" fill="#C5C8CE"/>
<path d="M478.832 294.997C493.342 253.461 486.246 223.245 486.246 223.245L427.17 244.532L440.245 294.918H478.832V294.997Z" fill="#212B53"/>
<path d="M436.578 138.02L441.043 151.095L452.045 143.681L445.427 128.294L436.578 138.02Z" fill="#F4A086"/>
<path d="M432.432 140.013C430.758 140.252 429.163 140.252 428.207 139.774C422.227 133.555 424.46 113.784 424.46 113.784L431.635 109.239L442.477 113.704L445.188 126.3C445.906 129.649 444.869 133.157 442.318 135.788C439.528 137.94 436.099 139.455 432.432 140.013Z" fill="#F8B68F"/>
<path d="M440.325 117.69C439.448 115.617 437.136 114.661 434.983 115.378C433.469 115.936 431.635 116.415 429.801 116.733C425.496 117.451 419.756 116.654 418.64 110.116C417.524 103.499 425.975 104.376 425.975 104.376C425.975 104.376 437.295 104.057 444.63 107.804C448.138 109.558 449.972 117.85 448.696 121.836C447.979 124.148 446.783 126.3 445.348 128.214L440.325 117.69Z" fill="#18171C"/>
<path d="M446.623 120.799C445.507 120.082 443.753 120.56 442.637 121.836C441.521 123.111 441.601 124.706 442.717 125.344C443.833 126.061 445.587 125.583 446.703 124.307C447.739 123.032 447.739 121.437 446.623 120.799Z" fill="#F8B68F"/>
<path d="M444.949 142.325C410.827 155.161 425.177 234.726 425.177 234.726L486.964 236.081C486.964 236.081 494.777 136.984 444.949 142.325Z" fill="#040A2C"/>
<path d="M476.52 176.766C476.52 176.766 462.089 227.312 448.775 227.63C435.541 227.949 402.216 178.44 402.216 178.44L410.268 173.497C410.268 173.497 429.801 190.479 437.853 197.415C442.716 182.427 449.732 161.698 449.732 161.698L476.52 176.766Z" fill="#040A2C"/>
<path d="M409.551 173.976L438.252 198.451L438.491 197.574C442.158 186.413 446.942 171.983 449.174 165.445C448.855 165.206 448.616 164.967 448.297 164.728C448.616 164.967 448.935 165.126 449.174 165.366V165.286C448.855 165.047 448.536 164.728 448.217 164.489C446.145 170.627 441.361 185.057 437.614 196.378L410.348 173.497L409.551 173.976Z" fill="#040A2C"/>
<path d="M473.331 184.898C468.627 199.169 458.263 226.833 448.775 227.073C439.687 227.232 421.031 202.677 410.587 188.326C410.189 188.805 410.189 188.725 409.79 189.203C420.154 203.394 438.013 226.993 447.898 228.268C448.217 228.348 448.536 228.348 448.855 228.348C459.14 228.109 469.743 199.966 474.526 185.456C474.128 185.137 473.729 185.058 473.331 184.898Z" fill="#040A2C"/>
<path d="M438.172 142.644L449.653 138.179L453.719 142.485L437.136 147.029L438.172 142.644Z" fill="url(#paint0_linear_306_3)"/>
<path d="M466.953 294.998C487.601 260.158 487.602 231.856 487.602 231.856L425.177 234.646L426.373 294.998H466.953Z" fill="#043C5E"/>
<path d="M391.644 144.192L389.555 145.356L404.335 171.891L406.425 170.728L391.644 144.192Z" fill="#18171C"/>
<path d="M403.093 177.962L398.708 174.374C395.36 170.468 393.526 165.525 393.526 160.343L393.686 152.928C395.201 153.726 396.157 156.357 396.875 157.871L402.376 167.04L409.392 173.976L403.093 177.962Z" fill="#F8B68F"/>
<path d="M401.818 170.388C402.695 169.591 406.761 173.976 407 172.222C407 172.222 406.043 164.488 404.369 162.495C402.695 160.502 401.818 155.559 401.818 155.559C401.818 155.559 400.064 155.559 400.144 158.35C400.223 159.705 401.18 161.698 401.339 163.771C401.339 165.844 400.622 167.996 401.818 170.388Z" fill="#F8B68F"/>
<path d="M223.713 196.06L203.064 251.468L207.369 253.142C207.369 253.142 223.554 228.268 239.658 199.727C254.885 172.939 223.713 196.06 223.713 196.06Z" fill="#F8B68F"/>
<path d="M223.713 196.059C223.713 196.059 234.237 171.504 248.587 171.504C262.858 171.504 247.232 173.338 265.489 171.504C277.926 170.229 288.928 191.834 288.928 191.834L274.976 199.328L273.461 232.812H239.977L238.063 200.444L223.713 196.059Z" fill="#FFD247"/>
<path d="M248.587 161.619V171.505L248.667 171.584C252.653 174.534 258.074 174.694 262.22 171.983L262.858 171.505L260.626 160.024L248.587 161.619Z" fill="#F4A086"/>
<path d="M241.811 140.81C241.811 140.81 241.013 163.213 253.849 163.213C266.685 163.213 266.685 138.738 266.685 138.738L255.523 127.576L241.811 140.81Z" fill="#F8B68F"/>
<path d="M257.197 133.795C257.197 133.795 252.494 141.608 247.232 144.876C244.681 146.471 243.405 149.421 244.043 152.371C244.84 156.118 249.305 159.227 248.667 162.735C247.71 168.395 250.58 174.215 253.769 178.999C263.575 193.588 254.327 217.506 240.615 217.506C225.228 217.506 227.221 199.408 228.337 196.139C229.613 192.631 228.656 188.645 225.866 186.174C223.873 184.34 221.959 182.028 221.959 179.397C221.959 176.288 224.75 170.946 227.301 166.721C229.932 162.416 232.802 153.487 233.36 148.544C236.07 123.112 254.009 123.032 254.806 123.112C263.655 123.829 271.628 131.403 271.787 140.332C271.947 150.696 275.136 171.823 277.926 175.73C268.758 179.716 256.799 173.258 260.227 158.749C260.865 155.878 266.446 147.986 266.206 145.514C265.17 135.389 257.197 133.795 257.197 133.795Z" fill="#212B53"/>
<path d="M258.632 139.535C256.958 140.651 255.204 141.608 253.371 142.405C251.696 144.876 249.703 146.949 247.312 148.783C248.428 152.211 248.906 155.878 248.826 159.307C248.826 160.104 248.747 160.821 248.667 161.619C250.102 162.655 251.856 163.213 253.929 163.213C262.698 163.213 265.489 151.733 266.366 144.478C263.416 143.362 260.865 141.608 258.632 139.535Z" fill="#F8B68F"/>
<path d="M263.416 149.022C262.539 148.065 262.698 146.391 263.815 145.116C264.931 143.92 266.525 143.681 267.482 144.637C268.359 145.594 268.199 147.268 267.083 148.544C265.967 149.66 264.373 149.899 263.416 149.022Z" fill="#F8B68F"/>
<path d="M252.892 294.998L256.719 270.044L260.546 294.998H284.941C287.413 251.707 273.541 232.813 273.541 232.813H239.977C239.977 232.813 227.38 251.07 229.294 294.998H252.892Z" fill="#043C5E"/>
<path d="M288.928 191.914C288.928 191.914 305.67 223.724 298.654 228.348C291.638 232.892 264.054 216.15 264.054 216.15L265.489 211.606L280.796 212.164L275.056 199.408L288.928 191.914Z" fill="#F8B68F"/>
<path d="M297.777 218.781C286.536 211.686 266.446 212.961 266.286 212.961L266.206 211.686C267.083 211.606 286.855 210.41 298.495 217.665L297.777 218.781Z" fill="#F4A086"/>
<path d="M205.934 256.092C205.456 256.411 203.862 257.527 202.347 261.035C200.912 264.224 200.035 271.639 197.085 269.167C196.368 265.42 195.012 261.115 195.012 261.115C194.773 258.803 196.926 255.614 198.68 253.86L204.739 249.156C204.739 249.156 208.565 249.874 208.725 249.874L209.203 250.512C207.928 251.947 206.652 254.418 205.934 256.092Z" fill="#F8B68F"/>
<path d="M204.021 256.65C204.021 256.65 203.782 256.73 203.463 256.89C203.463 256.411 203.383 255.933 203.303 255.455C203.861 253.701 204.34 252.026 204.818 250.272C205.855 250.751 207.29 251.389 207.369 251.389L206.413 263.427C206.413 263.427 204.898 263.905 204.18 261.434C203.543 258.962 204.021 256.65 204.021 256.65Z" fill="#F8B68F"/>
<path d="M259.589 209.852L258.074 189.442C257.995 188.566 257.277 187.928 256.4 187.928H246.753C245.797 187.928 244.999 188.725 245.079 189.682L246.674 210.091C246.753 210.968 247.471 211.606 248.348 211.606H257.915C258.951 211.606 259.669 210.809 259.589 209.852Z" fill="#040A2C"/>
<path d="M262.698 209.134C262.14 209.055 260.068 208.736 256.958 206.105C254.168 203.793 249.863 197.096 248.189 200.843C249.225 204.75 249.943 209.453 249.943 209.453C250.82 211.686 254.327 213.758 256.799 214.635L264.692 216.31C264.692 216.31 267.96 213.838 268.199 213.758L267.562 212.164C265.808 211.446 264.134 210.41 262.698 209.134Z" fill="#F8B68F"/>
<path d="M260.626 209.453C260.626 209.453 260.386 209.533 259.988 209.533C260.147 210.011 260.307 210.49 260.466 211.048C261.742 212.403 263.017 213.838 264.293 215.273C265.01 214.396 266.127 213.121 266.206 213.041L259.669 202.039C259.669 202.039 257.995 202.278 258.553 204.989C259.111 207.54 260.626 209.453 260.626 209.453Z" fill="#F8B68F"/>
<path d="M250.022 194.943C250.022 195.82 250.74 196.458 251.537 196.458C252.334 196.458 253.052 195.741 253.052 194.943C253.052 194.067 252.334 193.429 251.537 193.429C250.74 193.429 250.022 194.146 250.022 194.943Z" fill="white"/>
<path d="M361.716 177.085L375.349 202.836L360.281 202.039L359.245 176.208L361.716 177.085Z" fill="#F8B68F"/>
<path d="M340.19 165.684L352.867 165.605L358.049 247.243H335.487L340.19 165.684Z" fill="white"/>
<path d="M363.55 294.998L365.942 247.163H330.544C330.544 247.163 329.029 255.933 335.965 294.998H363.55Z" fill="#043C5E"/>
<path d="M351.432 165.684L355.497 264.702L369.051 258.882C369.051 258.882 362.912 240.307 363.55 214.476C361.477 195.82 372.08 205.626 359.085 169.671C354.302 165.605 351.432 165.684 351.432 165.684Z" fill="#FFD247"/>
<path d="M353.265 155.4L351.671 163.771C350.953 167.438 346.808 169.272 343.619 167.279L338.038 163.771L348.003 141.289L353.265 155.4Z" fill="#F4A086"/>
<path d="M345.931 294.998L354.86 247.163H319.462C319.462 247.163 308.62 255.933 312.765 294.998H345.931Z" fill="#043C5E"/>
<path d="M340.19 157.234C340.19 157.234 327.435 164.409 323.448 170.787C319.701 176.846 318.346 190.718 318.027 203.075C317.549 220.057 309.337 264.543 309.337 264.543H343.459L344.336 167.598L340.19 157.234Z" fill="#FFD247"/>
<path d="M365.383 130.366C357.65 128.373 350.236 136.346 350.236 136.346L344.416 167.678L335.486 153.885C335.486 153.885 335.008 135.15 343.618 122.793C349.837 115.298 361.716 117.451 367.695 124.706C370.645 128.294 371.203 133.157 370.964 137.701C370.565 143.76 368.891 178.52 368.891 178.52L351.192 165.445C351.192 165.445 351.591 161.937 353.345 155.48C356.135 144.398 370.565 131.722 365.383 130.366Z" fill="#212B53"/>
<path d="M347.924 135.868C349.04 135.389 350.555 136.186 351.192 137.622C351.91 139.057 351.511 140.571 350.395 141.05C349.279 141.528 347.764 140.731 347.127 139.296C346.409 137.861 346.728 136.346 347.924 135.868Z" fill="#F8B68F"/>
<path d="M356.215 156.915C357.65 157.473 359.085 157.712 359.962 157.393C366.659 152.53 369.131 133.077 369.131 133.077L363.789 127.417L353.186 129.729L347.924 141.289C346.569 144.398 346.728 147.985 348.322 150.935C350.395 153.646 353.106 155.719 356.215 156.915Z" fill="#F8B68F"/>
<path d="M367.137 129.968C366.579 135.868 350.236 136.346 350.236 136.346L349.359 128.373L358.926 123.112L366.5 127.656C366.5 127.656 367.217 129.011 367.137 129.968Z" fill="#212B53"/>
<path d="M366.818 131.164C366.26 133.316 368.493 137.143 368.493 137.143L369.768 134.751V132.679L368.493 131.084C368.413 131.164 367.297 128.932 366.818 131.164Z" fill="#212B53"/>
<path d="M327.036 170.787C310.533 172.7 318.346 215.353 321.854 232.892C322.731 237.197 327.116 239.828 331.341 238.473C345.691 233.929 366.739 215.114 366.739 215.114L363.39 210.888L335.487 217.426C335.487 217.505 346.17 168.554 327.036 170.787Z" fill="#F8B68F"/>
<path d="M360.042 200.923L354.621 234.327C354.461 235.284 355.179 236.161 356.215 236.161H377.581C378.379 236.161 379.017 235.603 379.176 234.806L384.518 201.401C384.677 200.444 383.959 199.567 382.923 199.567H361.637C360.839 199.567 360.202 200.205 360.042 200.923Z" fill="#040A2C"/>
<path d="M383.8 215.751C383.959 214.556 383.8 213.838 383.401 211.446C382.923 208.257 383.003 203.314 379.814 205.786C376.784 209.613 376.385 213.679 376.385 213.679C375.748 215.911 377.103 219.02 378.458 220.694L380.69 225.558C380.69 225.558 384.517 221.093 383.8 215.751Z" fill="#F8B68F"/>
<path d="M369.848 212.563C369.848 213.439 370.565 214.157 371.442 214.157C372.319 214.157 373.037 213.439 373.037 212.563C373.037 211.686 372.319 210.968 371.442 210.968C370.565 210.968 369.848 211.686 369.848 212.563Z" fill="white"/>
<path d="M189.671 136.904L186.96 149.58L173.646 145.913L182.416 127.735L189.671 136.904Z" fill="#F4A086"/>
<path d="M193.019 140.491C194.534 140.97 196.048 141.129 197.005 140.81C203.463 135.787 203.941 116.893 203.941 116.893L197.802 111.631L187.04 114.341L182.814 125.742C181.698 128.772 182.256 132.28 184.249 134.99C186.641 137.541 189.671 139.455 193.019 140.491Z" fill="#F8B68F"/>
<path d="M186.402 121.357C187.518 119.603 188.714 114.979 190.548 115.936C191.903 116.654 196.846 118.408 198.52 118.966C202.506 120.241 210.08 120.959 211.993 114.9C212.95 111.87 210.877 108.362 209.283 106.927C207.688 105.572 205.615 104.934 203.543 105.014C198.679 105.173 191.823 106.688 189.591 105.492C185.923 103.499 181.299 104.535 180.343 107.804C179.306 111.392 179.386 117.291 180.104 121.198C180.502 123.51 181.299 125.662 182.416 127.656L186.402 121.357Z" fill="#18171C"/>
<path d="M182.256 120.56C183.373 120.082 184.967 120.719 185.844 122.075C186.721 123.43 186.482 124.865 185.366 125.423C184.25 125.902 182.655 125.264 181.778 123.908C180.821 122.473 181.061 121.038 182.256 120.56Z" fill="#F8B68F"/>
<path d="M179.466 143.122C154.592 141.767 152.519 163.85 150.446 187.848C148.054 215.432 149.888 245.488 149.888 245.488H207.688C207.688 245.488 207.688 219.897 207.051 194.305C206.493 169.431 205.695 144.557 179.466 143.122Z" fill="#040A2C"/>
<path d="M204.579 231.935C204.579 231.935 210.239 228.029 212.392 228.986C214.465 229.942 212.87 233.849 212.87 233.849L204.579 231.935Z" fill="#F4A086"/>
<path d="M213.508 219.817C223.633 216.229 217.495 181.39 217.495 181.39L211.515 181.31C211.435 181.39 203.304 223.405 213.508 219.817Z" fill="#F4A086"/>
<path d="M219.009 181.47L211.914 185.695C211.914 185.695 182.097 137.382 196.846 150.138C212.233 163.372 219.009 181.47 219.009 181.47Z" fill="#040A2C"/>
<path d="M141.756 187.768C141.756 187.768 151.243 143.68 173.646 144.716C196.049 145.753 163.92 190.957 163.92 190.957L141.756 187.768Z" fill="#040A2C"/>
<path d="M213.349 220.615C227.38 209.294 199.795 149.979 199.795 149.979L193.099 150.616C193.099 150.616 193.657 229.225 213.349 220.615Z" fill="#F8B68F"/>
<path d="M189.671 145.275L188.794 140.969L177.313 138.657L173.646 143.281L189.671 145.275Z" fill="#040A2C"/>
<path d="M199.795 149.978L200.672 138.657C200.672 138.657 195.012 130.047 189.67 132.359C188.714 134.751 190.388 139.534 190.388 139.534L193.099 150.696L199.795 149.978Z" fill="#F8B68F"/>
<path d="M213.508 294.998C211.914 271.638 207.688 245.409 207.688 245.409H173.646L172.769 275.625C172.769 275.625 174.443 282.879 178.35 294.998H213.508Z" fill="#212B53"/>
<path d="M199.078 149.5H199.238L200.035 138.817C199.317 137.701 194.454 131.084 190.069 132.758C189.511 134.592 190.468 138.1 190.867 139.375V139.535C190.468 139.455 190.069 139.375 189.671 139.375C189.272 138.179 188.156 134.353 189.113 132.2L189.192 131.961L189.432 131.881C195.092 129.41 200.832 138.02 201.071 138.418L201.151 138.578L200.274 150.537L199.636 150.616C199.477 150.138 199.317 149.819 199.078 149.5Z" fill="#F4A086"/>
<path d="M182.336 294.998L190.627 245.409H149.808C149.808 245.409 145.742 260.238 149.569 294.998H182.336Z" fill="#212B53"/>
<path d="M269.076 208.417H219.328C218.85 208.417 218.371 208.656 218.212 209.134L202.187 242.22C201.789 243.017 202.426 244.053 203.303 244.053H253.052C253.53 244.053 254.008 243.814 254.168 243.336L270.192 210.25C270.591 209.373 269.953 208.417 269.076 208.417Z" fill="white"/>
<path d="M238.382 221.332C238.382 222.528 239.339 223.405 240.455 223.405C241.651 223.405 242.528 222.448 242.528 221.332C242.528 220.136 241.571 219.259 240.455 219.259C239.339 219.259 238.382 220.216 238.382 221.332Z" fill="#040A2C"/>
<path d="M163.92 190.957L161.209 209.293L205.456 231.377L200.593 236.161C200.593 236.161 150.924 227.231 143.909 220.614C136.893 214.077 141.756 187.768 141.756 187.768L163.92 190.957Z" fill="#F8B68F"/>
<path d="M197.962 235.204L208.406 241.901C212.631 243.814 216.299 240.785 219.328 236.559C221.242 233.928 219.328 230.341 216.06 230.341C212.312 230.421 207.768 231.138 205.536 231.298L197.962 235.204Z" fill="#F8B68F"/>
<path d="M95.6753 155.161L90.2541 167.119L81.5641 159.306L87.7029 141.926L95.6753 155.161Z" fill="#F4A086"/>
<path d="M98.7049 155.958C100.14 156.117 101.575 156.117 102.372 155.639C107.634 149.66 105.88 131.961 105.88 131.961L99.6616 126.619L90.1744 131.004L87.7029 140.73C87.0651 143.919 87.9421 149.58 90.1744 151.972C92.5661 154.124 95.5159 155.479 98.7049 155.958Z" fill="#F4A086"/>
<path d="M100.14 219.259C100.14 219.259 102.292 222.368 106.598 223.803C110.903 225.238 142.713 218.621 142.713 218.621L149.091 219.259C152.439 220.136 156.027 219.977 159.216 218.701L168.623 215.113L113.613 213.997L92.6458 187.848L100.14 219.259Z" fill="#F8B68F"/>
<path d="M81.5639 159.306C81.5639 159.306 68.8877 175.57 65.8582 186.253C62.9084 196.936 61.7922 226.434 61.7922 226.434H88.5C88.5 226.434 96.1535 212.562 102.133 199.886C103.887 196.059 103.967 191.754 102.292 187.927C97.9075 178.041 91.3701 164.409 91.3701 164.409L81.5639 159.306Z" fill="#FFD247"/>
<path d="M94.001 294.998C98.2264 241.423 88.5797 226.833 88.5797 226.833L69.4458 226.355C69.4458 226.355 72.7145 263.905 73.9901 294.918H94.001V294.998Z" fill="#043C5E"/>
<path d="M80.7668 294.997C87.8623 249.714 88.6595 226.434 88.6595 226.434H61.8721C61.8721 226.434 48 237.596 48 254.178C48 263.506 51.189 279.929 54.378 294.997H80.7668Z" fill="#043C5E"/>
<path d="M170.138 215.114H126.449V211.925H168.225L186.721 176.686L189.591 178.201L170.138 215.114Z" fill="url(#paint1_linear_306_3)"/>
<path d="M69.5256 189.123C69.5256 189.123 83.4774 221.571 90.1743 221.571C96.8712 221.571 134.023 205.706 134.023 205.706L133.066 200.205L95.0375 206.583C95.0375 206.583 91.6891 197.654 89.3771 187.369C88.4204 183.303 85.3111 179.955 81.1654 179.237C72.2363 177.483 69.5256 189.123 69.5256 189.123Z" fill="#F4A086"/>
<path d="M88.0218 137.541C88.0218 137.541 92.1675 140.013 104.844 131.961C106.757 132.439 103.728 114.182 87.3043 119.603C75.8239 123.35 76.382 134.432 76.9401 140.571C77.4982 147.188 74.07 151.573 69.5257 156.436C65.6989 160.502 65.7786 167.996 63.2275 171.982C60.1182 176.925 56.7698 176.686 54.2983 181.709C51.6674 186.971 51.3485 193.428 54.8564 198.132C56.8495 200.843 61.4735 207.3 68.7285 204.988C72.7944 203.713 73.9105 196.538 74.1497 190.479C74.3092 185.137 76.9401 180.114 81.0858 176.766C84.9923 173.657 89.2974 169.352 90.4933 164.807C92.6458 156.038 88.0218 137.541 88.0218 137.541Z" fill="#8F724C"/>
<path d="M86.5072 137.94C87.4639 137.302 89.0583 137.701 89.9353 138.897C90.892 140.093 90.8123 141.607 89.8556 142.245C88.8989 142.883 87.3044 142.484 86.4274 141.289C85.4707 140.093 85.5505 138.578 86.5072 137.94Z" fill="#F4A086"/>
<path d="M153.715 202.995C153.795 202.198 153.396 201.401 152.599 201.082L145.503 197.973C143.749 197.175 141.756 197.096 139.923 197.734L132.827 200.046H131.87L131.073 206.583C132.508 206.025 133.305 205.706 133.305 205.706L137.77 204.112C137.77 204.112 147.496 212.403 151.004 204.909C152.041 212.323 154.193 211.526 154.193 211.526L153.715 202.995Z" fill="#F4A086"/>
<path d="M81.7237 131.164C83.1588 136.266 90.334 138.658 97.8281 136.585C105.322 134.512 109.388 128.852 108.91 123.669C108.192 116.813 100.3 116.175 92.8055 118.248C85.2316 120.321 80.2887 126.141 81.7237 131.164Z" fill="#8F724C"/>
<path d="M469.903 110.355C468.866 109.877 467.83 109.239 466.793 108.602C466.554 108.442 466.235 108.522 466.076 108.761C465.916 109 465.996 109.319 466.235 109.478C467.272 110.196 468.388 110.754 469.504 111.312C469.903 111.472 470.301 111.711 470.7 111.87C470.859 111.95 471.019 111.95 471.178 111.87C471.258 111.79 471.338 111.711 471.417 111.631C471.497 111.392 471.417 111.073 471.178 110.993C470.7 110.674 470.301 110.515 469.903 110.355Z" fill="#C5C8CE"/>
<path d="M411.066 32.7039C409.471 32.7039 407.877 32.8633 406.123 32.943C405.884 32.943 405.645 33.1822 405.645 33.5011C405.645 33.7403 405.884 33.9795 406.203 33.9795C407.957 33.82 409.551 33.7403 411.146 33.7403C411.225 33.7403 411.305 33.7403 411.385 33.6606C411.544 33.5808 411.624 33.4214 411.624 33.2619C411.544 32.8633 411.305 32.7039 411.066 32.7039Z" fill="#C5C8CE"/>
<path d="M419.198 33.8996C419.357 33.8199 419.437 33.6604 419.437 33.501C419.437 33.2618 419.277 33.0226 419.038 32.9429C417.444 32.7835 415.77 32.624 414.095 32.624C413.856 32.624 413.617 32.8632 413.617 33.1024C413.617 33.3415 413.856 33.5807 414.095 33.5807C415.77 33.5807 417.444 33.7402 418.958 33.8996C419.038 33.9793 419.118 33.9793 419.198 33.8996Z" fill="#C5C8CE"/>
<path d="M461.053 103.419C460.894 103.18 460.575 103.18 460.336 103.34C460.096 103.499 460.096 103.818 460.256 104.057C461.292 105.333 462.488 106.529 463.843 107.645C464.003 107.804 464.242 107.804 464.401 107.724C464.481 107.724 464.481 107.645 464.561 107.645C464.72 107.406 464.72 107.087 464.481 106.927C463.285 105.811 462.089 104.615 461.053 103.419Z" fill="#C5C8CE"/>
<path d="M459.219 101.745C459.458 101.586 459.538 101.267 459.379 101.028C459.14 100.629 458.9 100.31 458.661 99.9115C458.023 98.8751 457.545 97.8387 457.067 96.7225C456.987 96.4834 456.668 96.3239 456.429 96.4834C456.19 96.5631 456.03 96.882 456.19 97.1212C456.668 98.2373 457.226 99.3535 457.864 100.39C458.103 100.788 458.342 101.187 458.581 101.586C458.661 101.825 458.9 101.905 459.219 101.745C459.14 101.745 459.219 101.745 459.219 101.745Z" fill="#C5C8CE"/>
<path d="M455.712 94.6497C455.791 94.6497 455.791 94.6497 455.791 94.57C455.951 94.4903 456.11 94.2511 456.031 94.0119C455.632 92.4972 455.233 90.9824 454.994 89.2285C454.994 88.9893 454.675 88.7501 454.436 88.8298C454.197 88.8298 453.958 89.1487 454.037 89.3879C454.277 91.1419 454.596 92.7364 455.074 94.2511C455.233 94.57 455.473 94.7295 455.712 94.6497Z" fill="#C5C8CE"/>
<path d="M447.101 51.3594C447.42 51.9175 447.819 52.4756 448.138 53.0336C448.616 53.9106 449.094 54.7079 449.493 55.5848C449.653 55.824 449.892 55.9037 450.131 55.824C450.37 55.6646 450.45 55.4254 450.29 55.1862C449.892 54.3092 449.334 53.4323 448.855 52.5553C448.536 51.9972 448.138 51.4391 447.819 50.8811C447.659 50.6419 447.341 50.5622 447.101 50.7216C447.022 50.8014 446.942 51.1202 447.101 51.3594Z" fill="#C5C8CE"/>
<path d="M450.689 58.2157C451.327 59.7304 451.805 61.3249 452.204 62.8397C452.284 63.0789 452.523 63.2383 452.842 63.2383C452.921 63.2383 452.921 63.2383 453.001 63.1586C453.16 63.0789 453.32 62.8397 453.24 62.6005C452.842 61.006 452.363 59.4115 451.725 57.817C451.646 57.5779 451.327 57.4184 451.088 57.5779C450.689 57.7373 450.609 57.9765 450.689 58.2157Z" fill="#C5C8CE"/>
<path d="M442.158 45.3001C443.274 46.496 444.391 47.6918 445.347 48.9674C445.507 49.2066 445.746 49.2066 445.985 49.1269C445.985 49.1269 445.985 49.1269 446.065 49.1269C446.304 48.9674 446.304 48.6485 446.145 48.4094C445.108 47.1338 443.992 45.8582 442.876 44.6623C442.716 44.5029 442.397 44.5029 442.158 44.6623C441.999 44.742 441.999 45.0609 442.158 45.3001Z" fill="#C5C8CE"/>
<path d="M433.707 38.7628C433.867 38.8425 434.026 38.8425 434.186 38.7628C434.265 38.6831 434.345 38.6831 434.345 38.6034C434.505 38.3642 434.425 38.0453 434.186 37.9656C432.751 37.1683 431.236 36.3711 429.721 35.7333C429.482 35.6535 429.163 35.7333 429.083 35.9724C429.004 36.2116 429.083 36.5305 429.323 36.6102C430.758 37.1683 432.272 37.8858 433.707 38.7628Z" fill="#C5C8CE"/>
<path d="M453.957 79.0239C454.037 79.0239 454.117 79.0239 454.197 78.9442C454.356 78.8644 454.436 78.705 454.436 78.5455V77.9077C454.436 76.4727 454.436 75.0377 454.356 73.6026C454.356 73.3634 454.117 73.1243 453.878 73.1243C453.639 73.1243 453.399 73.3634 453.399 73.6026C453.479 75.0377 453.479 76.4727 453.479 77.9077V78.5455C453.479 78.7847 453.718 79.0239 453.957 79.0239Z" fill="#C5C8CE"/>
<path d="M440.006 43.3071C440.165 43.4665 440.404 43.4665 440.564 43.3868C440.643 43.3868 440.644 43.3071 440.723 43.3071C440.883 43.0679 440.883 42.8287 440.643 42.5895C439.368 41.4734 438.092 40.437 436.657 39.56C436.418 39.4006 436.099 39.4803 435.94 39.7195C435.78 39.9586 435.86 40.2775 436.099 40.437C437.534 41.2342 438.81 42.1909 440.006 43.3071Z" fill="#C5C8CE"/>
<path d="M454.037 80.9373C453.798 80.9373 453.559 81.1764 453.559 81.4156C453.639 83.329 453.639 84.9235 453.798 86.3585C453.798 86.5977 454.037 86.8369 454.356 86.8369C454.436 86.8369 454.516 86.8369 454.596 86.7571C454.755 86.6774 454.835 86.518 454.835 86.2788C454.755 84.8438 454.675 83.329 454.596 81.3359C454.516 81.1764 454.277 80.9373 454.037 80.9373Z" fill="#C5C8CE"/>
<path d="M473.809 111.791C473.57 111.711 473.251 111.87 473.171 112.109C473.092 112.349 473.251 112.667 473.49 112.747C475.005 113.226 476.599 113.624 478.353 113.863C478.513 113.863 478.593 113.863 478.672 113.784C478.832 113.704 478.911 113.624 478.911 113.465C478.991 113.226 478.752 112.907 478.513 112.907C476.839 112.667 475.324 112.269 473.809 111.791Z" fill="#C5C8CE"/>
<path d="M453.16 65.1516C452.921 65.2313 452.682 65.4705 452.762 65.7097C453.001 67.2244 453.16 68.8189 453.24 70.5729C453.24 70.8121 453.479 71.0512 453.798 71.0512C453.878 71.0512 453.958 71.0512 454.037 70.9715C454.197 70.8918 454.277 70.7323 454.277 70.4932C454.197 68.6595 453.958 67.065 453.719 65.5502C453.719 65.3111 453.4 65.1516 453.16 65.1516Z" fill="#C5C8CE"/>
<path d="M423.742 33.7401C423.184 33.5806 422.626 33.5009 422.068 33.4212C421.829 33.3414 421.51 33.5806 421.51 33.8198C421.43 34.059 421.669 34.3779 421.908 34.3779C422.466 34.4576 423.024 34.617 423.582 34.6967C424.619 34.9359 425.655 35.1751 426.612 35.5737C426.771 35.6534 426.931 35.5737 427.011 35.494C427.09 35.4143 427.17 35.3345 427.25 35.2548C427.33 35.0156 427.17 34.6967 426.931 34.617C425.815 34.2981 424.778 33.9792 423.742 33.7401Z" fill="#C5C8CE"/>
<path d="M406.681 197.574C402.296 193.189 396.954 192.312 393.765 192.312C392.57 192.312 391.613 193.269 391.613 194.465C391.613 195.581 392.49 196.538 393.606 196.617C396.157 196.857 400.064 197.574 402.854 199.806C406.123 202.358 407.638 208.177 408.116 211.366C408.275 212.403 409.152 213.2 410.268 213.2H410.348C411.544 213.2 412.58 212.164 412.501 210.968C412.262 207.779 411.225 202.118 406.681 197.574Z" fill="#0049CC"/>
<path d="M400.861 203.075C398.549 201.002 395.838 200.285 393.765 200.125C392.57 200.046 391.533 201.002 391.533 202.198C391.533 203.314 392.41 204.191 393.446 204.271C394.722 204.351 396.317 204.749 397.831 205.865C399.824 207.46 400.303 209.453 400.303 211.207C400.303 212.323 401.259 213.28 402.376 213.28H402.455C403.651 213.28 404.608 212.243 404.528 211.048C404.289 208.736 403.492 205.467 400.861 203.075Z" fill="#0049CC"/>
<path d="M393.765 206.822C392.091 206.822 390.736 208.177 390.736 209.852C390.736 211.526 392.091 212.881 393.765 212.881C395.44 212.881 396.795 211.526 396.795 209.852C396.795 208.177 395.44 206.822 393.765 206.822Z" fill="#0049CC"/>
<path d="M333.813 126.938L333.334 126.779C327.275 124.706 320.817 124.307 314.519 125.663C307.344 127.177 297.538 128.373 292.196 125.742C288.529 123.909 284.144 114.182 285.021 108.123C285.659 103.499 289.805 99.9913 294.508 99.5926C301.604 98.9548 314.838 98.6359 321.216 103.18C330.145 109.638 330.145 121.039 330.145 121.039L333.813 126.938Z" fill="#0049CC"/>
<path d="M306.228 106.768C306.228 109 304.394 112.109 302.242 112.109C300.009 112.109 298.255 109 298.255 106.768C298.255 104.535 300.089 102.781 302.242 102.781C304.394 102.781 306.228 104.535 306.228 106.768Z" fill="white"/>
<path d="M313.642 107.326C313.642 109 312.287 111.312 310.613 111.312C308.939 111.312 307.583 109 307.583 107.326C307.583 105.651 308.939 104.296 310.613 104.296C312.287 104.296 313.642 105.651 313.642 107.326Z" fill="white"/>
<path d="M316.592 118.168C316.193 114.74 313.642 112.109 310.613 112.109C307.583 112.109 305.032 114.74 304.633 118.168H316.592Z" fill="white"/>
<path d="M310.214 121.198C309.656 116.654 306.308 113.226 302.242 113.226C298.176 113.226 294.827 116.733 294.269 121.198H310.214Z" fill="white"/>
<path d="M387.858 28.1162C391.047 27.5582 392.403 29.3918 392.801 30.0296C393.2 29.3918 394.555 27.5582 397.744 28.1162C402.129 28.9135 401.571 33.2983 401.571 33.2983C401.571 33.2983 402.129 36.8062 393.519 41.3505C393.28 41.51 393.04 41.5897 392.881 41.7491V41.8289C392.881 41.8289 392.881 41.8289 392.801 41.8289C392.801 41.8289 392.801 41.8289 392.721 41.8289V41.7491C392.482 41.6694 392.323 41.51 392.084 41.3505C383.473 36.7265 384.031 33.2983 384.031 33.2983C384.031 33.2983 383.394 28.9135 387.858 28.1162Z" fill="#0049CC"/>
<path d="M392.881 29.8702C393.359 29.1526 394.794 27.5582 397.744 28.1162C401.81 28.9135 401.571 33.2983 401.571 33.2983C401.571 33.2983 402.129 36.8062 393.519 41.3505C393.28 41.4302 393.12 41.5897 392.881 41.6694V29.8702Z" fill="#0049CC"/>
<path d="M132.987 113.784C136.176 113.226 137.531 115.059 137.929 115.697C138.328 115.059 139.683 113.226 142.872 113.784C147.257 114.581 146.699 118.966 146.699 118.966C146.699 118.966 147.257 122.474 138.647 127.018C138.408 127.177 138.169 127.257 138.009 127.417V127.496C138.009 127.496 138.009 127.496 137.929 127.496C137.929 127.496 137.929 127.496 137.85 127.496V127.417C137.611 127.337 137.451 127.177 137.212 127.018C128.602 122.394 129.16 118.966 129.16 118.966C129.16 118.966 128.522 114.581 132.987 113.784Z" fill="#0049CC"/>
<path d="M138.089 115.617C138.567 114.9 140.002 113.305 142.952 113.864C147.018 114.661 146.779 119.046 146.779 119.046C146.779 119.046 147.337 122.554 138.727 127.098C138.487 127.178 138.328 127.337 138.089 127.417V115.617Z" fill="#0049CC"/>
<path d="M70.7195 65.439C77.192 65.439 82.439 60.192 82.439 53.7195C82.439 47.247 77.192 42 70.7195 42C64.247 42 59 47.247 59 53.7195C59 60.192 64.247 65.439 70.7195 65.439Z" fill="#0049CC"/>
<path d="M64.8995 55.4734H77.496C77.496 55.4734 76.1407 61.6122 71.1181 61.6122C66.0954 61.6122 64.8995 55.4734 64.8995 55.4734Z" fill="white"/>
<path d="M76.4598 50.7697C76.4598 50.69 76.5395 50.5306 76.5395 50.4509C76.5395 49.8928 76.0612 49.3347 75.4234 49.3347C74.8653 49.3347 74.3073 49.8131 74.3073 50.4509C74.3073 50.5306 74.3073 50.69 74.387 50.7697H76.4598Z" fill="white"/>
<path d="M68.009 50.7697C68.009 50.69 68.0887 50.5306 68.0887 50.4509C68.0887 49.8928 67.6104 49.3347 66.9726 49.3347C66.4145 49.3347 65.8564 49.8131 65.8564 50.4509C65.8564 50.5306 65.8564 50.69 65.9362 50.7697H68.009Z" fill="white"/>
<path d="M342.024 82.8506C341.546 84.764 340.111 91.0623 341.706 95.6863C341.945 96.4038 342.503 96.9619 343.141 97.2011C348.881 99.3536 356.295 99.1145 358.846 98.955C359.484 98.955 360.042 98.6361 360.361 98.078C361.637 96.3241 364.268 91.7001 363.869 83.0898C363.869 82.5317 363.55 81.9737 363.072 81.6548C357.571 77.828 344.655 80.5386 342.583 81.8939C342.343 82.1331 342.184 82.452 342.024 82.8506Z" fill="#0049CC"/>
<path d="M352.468 89.8664L341.945 81.8939L342.423 81.2561L352.548 88.9097L364.268 82.452L364.666 83.1695L352.468 89.8664Z" fill="white"/>
<path d="M349.433 87.0008L340.302 93.5566L340.767 94.2042L349.898 87.6484L349.433 87.0008Z" fill="white"/>
<path d="M356.615 87.0734L355.972 87.5449L362.197 96.0301L362.84 95.5586L356.615 87.0734Z" fill="white"/>
<path d="M214.624 105.253C214.624 105.253 216.777 101.984 217.574 101.028C220.365 98.1577 215.103 84.3653 218.451 82.1331C221.8 79.9008 245.956 77.1901 248.587 82.1331C251.218 87.076 252.573 102.463 247.63 104.615C242.687 106.768 223.394 105.253 221.242 104.536C217.734 103.42 214.624 105.253 214.624 105.253Z" fill="#0049CC"/>
<path d="M226.025 92.8959C226.025 92.8959 232.483 90.3447 232.642 84.9234C233.519 81.4156 235.034 83.5681 235.034 83.5681C235.034 83.5681 236.389 87.3949 235.034 90.1853C237.426 90.6636 239.02 90.4244 240.774 91.2217C242.448 92.0189 242.05 96.7227 239.02 100.549C236.867 103.26 226.583 100.231 226.583 100.231L226.025 92.8959Z" fill="white"/>
<path d="M310.533 162.256C310.453 161.937 309.417 161.379 308.141 160.901C308.221 159.785 308.141 158.668 307.822 157.552C308.859 157.074 309.895 156.436 310.055 155.878C310.214 154.762 308.46 152.131 308.061 151.892C307.743 151.732 306.626 152.051 305.351 152.689C304.633 151.892 303.756 151.095 302.879 150.537C303.278 149.42 303.597 148.225 303.278 147.826C302.56 146.869 299.531 146.231 299.053 146.471C298.734 146.55 298.176 147.587 297.697 148.862C296.581 148.783 295.385 148.862 294.269 149.022C293.791 147.985 293.233 147.029 292.675 146.949C291.558 146.789 288.928 148.543 288.688 148.942C288.529 149.181 288.848 150.218 289.326 151.334C288.449 152.051 287.572 152.928 286.934 153.965C285.978 153.646 284.941 153.407 284.543 153.726C283.586 154.443 282.948 157.473 283.187 157.951C283.267 158.19 284.144 158.748 285.181 159.147C285.021 160.422 285.101 161.618 285.42 162.814C284.543 163.292 283.745 163.771 283.666 164.249C283.506 165.365 285.26 167.996 285.659 168.235C285.898 168.315 286.775 168.156 287.811 167.677C288.609 168.634 289.565 169.431 290.682 170.069C290.363 171.026 290.203 171.903 290.442 172.301C291.16 173.258 294.189 173.896 294.668 173.657C294.907 173.577 295.465 172.7 295.864 171.664C297.139 171.743 298.335 171.584 299.531 171.345C300.009 172.301 300.567 173.099 301.046 173.178C302.162 173.338 304.793 171.584 305.032 171.185C305.191 170.946 304.872 169.91 304.394 168.714C305.271 167.917 305.989 167.04 306.626 166.003C307.663 166.402 308.779 166.641 309.178 166.322C310.055 165.764 310.692 162.734 310.533 162.256ZM294.987 165.126C292.276 164.249 290.841 161.299 291.718 158.589C292.595 155.878 295.545 154.443 298.255 155.32C300.966 156.197 302.401 159.147 301.524 161.857C300.647 164.568 297.697 166.083 294.987 165.126Z" fill="#0049CC"/>
<path d="M294.349 167.119C290.522 165.844 288.37 161.698 289.645 157.871C290.921 154.044 295.066 151.892 298.893 153.167C302.72 154.443 304.873 158.589 303.597 162.416C302.401 166.322 298.255 168.395 294.349 167.119ZM298.973 153.247C295.146 151.972 291.08 154.044 289.805 157.871C288.529 161.698 290.602 165.764 294.429 167.04C298.255 168.315 302.321 166.242 303.597 162.416C304.793 158.589 302.72 154.523 298.973 153.247Z" fill="white"/>
<path d="M307.264 161.379C307.184 161.379 307.184 161.299 307.105 161.299C307.025 162.017 306.866 162.814 306.626 163.532C304.793 169.033 298.813 172.062 293.312 170.228C289.725 169.033 287.174 166.083 286.376 162.655C286.297 162.655 286.297 162.655 286.217 162.655C287.014 166.163 289.645 169.192 293.312 170.388C298.893 172.222 304.952 169.192 306.786 163.611C307.025 162.894 307.184 162.176 307.264 161.379Z" fill="white"/>
<path d="M293.153 150.377C295.305 149.659 297.697 149.5 299.93 150.297C300.009 150.297 300.009 150.297 300.089 150.377C300.089 150.297 300.089 150.297 300.089 150.218H300.009C297.697 149.42 295.305 149.5 293.153 150.297C293.073 150.297 293.073 150.297 293.153 150.377Z" fill="white"/>
</g>
<defs>
<linearGradient id="paint0_linear_306_3" x1="437.167" y1="142.592" x2="453.702" y2="142.592" gradientUnits="userSpaceOnUse">
<stop stop-color="#E0F0EB"/>
<stop offset="1" stop-color="#C0E4EF"/>
</linearGradient>
<linearGradient id="paint1_linear_306_3" x1="126.461" y1="195.912" x2="189.572" y2="195.912" gradientUnits="userSpaceOnUse">
<stop stop-color="#E0F0EB"/>
<stop offset="1" stop-color="#C0E4EF"/>
</linearGradient>
<clipPath id="clip0_306_3">
<rect width="440" height="266.998" fill="white" transform="translate(48 28)"/>
</clipPath>
</defs>
</svg>
