<svg width="609" height="381" viewBox="0 0 609 381" fill="none" xmlns="http://www.w3.org/2000/svg">
<rect width="609" height="381" rx="40" fill="#0049CC"/>
<path d="M182.254 223.031V233.272L252.687 221.627V148.069L190.746 158.311V148.069L120.314 159.715V233.272L182.254 223.031ZM179.941 236V225.758L118 236V157.752L193.059 145.342V155.583L255 145.342V223.589L179.941 236Z" fill="white"/>
<path d="M154.869 182.829C152.736 182.829 151.669 184.306 151.669 187.259V187.535C151.669 190.431 152.747 191.878 154.904 191.878C156.992 191.878 158.058 190.494 158.105 187.726V187.172C158.105 184.277 157.026 182.829 154.869 182.829ZM155.959 178.331C158.404 178.331 160.345 179.133 161.781 180.736C163.217 182.339 163.935 184.525 163.935 187.293V187.535C163.935 189.289 163.572 190.837 162.845 192.181C162.119 193.524 161.072 194.559 159.705 195.286C158.338 196.013 156.738 196.376 154.904 196.376C152.136 196.376 149.93 195.488 148.287 193.712C146.643 191.936 145.821 189.49 145.821 186.376V185.823C145.844 181.555 146.548 178.199 147.932 175.753C149.316 173.308 151.432 171.768 154.281 171.134C155.562 170.846 156.401 170.566 156.798 170.295C157.197 170.024 157.395 169.6 157.395 169.023H162.084C162.084 170.465 161.862 171.561 161.418 172.311C160.974 173.06 160.27 173.68 159.307 174.17C158.344 174.661 156.992 175.067 155.25 175.39C153.877 175.644 152.819 176.183 152.075 177.008C151.331 177.832 150.827 178.983 150.561 180.459C152.119 179.041 153.918 178.331 155.959 178.331" fill="white"/>
<path d="M172.741 196.014H166.893V177.294H172.741V196.014Z" fill="white"/>
<path d="M172.741 175.07H166.893V171.052H172.741V175.07Z" fill="white"/>
<path d="M193.052 177.292V196.012H187.221V181.79H183.726L183.415 187.517C183.196 190.354 182.556 192.477 181.495 193.884C180.433 195.291 178.859 196 176.771 196.012H174.937L174.868 191.513L175.474 191.444C176.247 191.353 176.82 190.837 177.195 189.9C177.57 188.962 177.809 187.544 177.913 185.645L178.276 177.292H193.052Z" fill="white"/>
<path d="M203.126 192.205C203.853 192.205 204.455 192.049 204.934 191.738C205.412 191.427 205.756 191.075 205.963 190.683V187.69H204.268C202.237 187.69 201.223 188.601 201.223 190.423C201.223 190.954 201.401 191.383 201.759 191.712C202.116 192.041 202.572 192.205 203.126 192.205ZM206.776 196.011C206.569 195.631 206.384 195.071 206.223 194.333C205.15 195.683 203.651 196.357 201.725 196.357C199.96 196.357 198.46 195.824 197.226 194.757C195.992 193.69 195.375 192.349 195.375 190.735C195.375 188.705 196.125 187.171 197.624 186.133C199.123 185.095 201.303 184.575 204.164 184.575H205.963V183.585C205.963 181.857 205.219 180.994 203.731 180.994C202.347 180.994 201.655 181.678 201.655 183.046H195.825C195.825 181.237 196.595 179.768 198.134 178.639C199.674 177.51 201.638 176.946 204.026 176.946C206.413 176.946 208.299 177.528 209.683 178.693C211.067 179.858 211.776 181.455 211.811 183.485V191.773C211.834 193.491 212.099 194.806 212.607 195.717V196.011H206.776Z" fill="white"/>
<path d="M191.555 198.445H192.713V207.912H198.339V198.445H199.497V207.912H200.559L200.472 211.985H199.41V208.887H191.555V198.445Z" fill="white"/>
<path d="M204.018 208.887H202.86V198.445H204.018V208.887Z" fill="white"/>
<path d="M215.172 208.887H214.015V204.1H208.388V208.887H207.23V198.445H208.388V203.126H214.015V198.445H215.172V208.887Z" fill="white"/>
<path d="M221.238 208.057C222.01 208.057 222.7 207.871 223.308 207.497C223.916 207.124 224.358 206.626 224.635 206.002V203.705H222.57C221.418 203.718 220.517 203.929 219.867 204.337C219.217 204.746 218.893 205.307 218.893 206.021C218.893 206.606 219.11 207.092 219.544 207.478C219.978 207.864 220.543 208.057 221.238 208.057ZM224.866 208.887C224.75 208.559 224.676 208.073 224.644 207.43C224.239 207.958 223.723 208.364 223.095 208.651C222.468 208.937 221.804 209.08 221.103 209.08C220.099 209.08 219.287 208.8 218.666 208.24C218.045 207.681 217.735 206.973 217.735 206.117C217.735 205.101 218.158 204.297 219.004 203.705C219.85 203.113 221.029 202.817 222.541 202.817H224.635V201.63C224.635 200.884 224.405 200.297 223.945 199.869C223.485 199.441 222.814 199.227 221.932 199.227C221.128 199.227 220.462 199.433 219.935 199.845C219.407 200.256 219.144 200.752 219.144 201.331L217.986 201.321C217.986 200.491 218.371 199.772 219.144 199.164C219.916 198.556 220.865 198.252 221.991 198.252C223.155 198.252 224.073 198.544 224.746 199.126C225.418 199.708 225.764 200.52 225.783 201.562V206.503C225.783 207.514 225.889 208.269 226.102 208.771V208.887H224.866Z" fill="white"/>
<line x1="304" y1="100" x2="304" y2="280" stroke="white" stroke-opacity="0.2" stroke-width="2"/>
<g clip-path="url(#clip0_311_16)">
<path d="M441.404 150.928C441.404 150.421 440.982 149.999 440.475 149.999C439.968 149.999 439.545 150.421 439.545 150.928C439.545 152.872 440.39 154.561 441.658 155.829C442.925 157.096 444.784 157.856 446.727 157.856C448.67 157.856 450.529 157.096 451.796 155.829C453.064 154.561 453.909 152.872 453.909 150.928C453.909 150.421 453.486 149.999 452.979 149.999C452.472 149.999 452.05 150.421 452.05 150.928C452.05 152.365 451.458 153.632 450.445 154.561C449.431 155.491 448.079 156.082 446.558 156.082C445.037 156.082 443.685 155.491 442.672 154.561C441.996 153.632 441.404 152.28 441.404 150.928Z" fill="white"/>
<path d="M444.699 157.603C446.558 157.941 447.825 157.772 448.417 157.687C448.501 157.687 448.586 157.603 448.755 157.603C449.346 157.518 450.445 157.012 450.867 156.674L450.022 155.068C450.022 155.068 448.586 155.913 447.403 155.998H447.318C446.305 156.082 445.629 155.829 444.615 155.575L444.699 157.603Z" fill="white"/>
<path fill-rule="evenodd" clip-rule="evenodd" d="M447.15 145.774H449.938V149.238H447.15V145.774Z" fill="white"/>
<path fill-rule="evenodd" clip-rule="evenodd" d="M408.031 188.442H414.621C415.55 188.442 416.311 187.681 416.311 186.752V186.667V185.654C416.311 184.724 417.071 183.879 418.085 183.879H442.08C442.672 187.005 445.46 189.287 448.755 189.287C452.05 189.287 454.754 186.921 455.43 183.879H479.425C480.354 183.879 481.199 184.64 481.199 185.654V186.161V186.752C481.199 187.681 481.959 188.442 482.889 188.442H489.395C490.239 188.442 491 189.202 491 190.047V209.649H475.454H472.159H472.074V199.679C472.074 199.087 471.736 198.665 471.314 198.665H469.201C468.779 198.665 468.441 199.087 468.441 199.679V209.649H468.356H465.061H464.977V199.679C464.977 199.087 464.639 198.665 464.216 198.665H462.104C461.682 198.665 461.344 199.087 461.344 199.679V209.649H461.259H457.964V199.679C457.964 199.087 457.626 198.665 457.204 198.665H455.092C454.669 198.665 454.331 199.087 454.331 199.679V209.649H454.247H450.952V199.679C450.952 199.087 450.614 198.665 450.191 198.665H448.079C447.656 198.665 447.318 199.087 447.318 199.679V209.649H447.234H443.939V199.679C443.939 199.087 443.601 198.665 443.178 198.665H440.475C440.052 198.665 439.714 199.087 439.714 199.679V209.649H439.545H436.25V199.679C436.25 199.087 435.912 198.665 435.49 198.665H433.378C432.955 198.665 432.617 199.087 432.617 199.679V209.649H432.448H429.238V199.679C429.238 199.087 428.9 198.665 428.477 198.665H426.365C425.942 198.665 425.605 199.087 425.605 199.679V209.649H425.267H418.676H406.425V190.047C406.425 189.202 407.186 188.442 408.031 188.442Z" fill="white"/>
<path fill-rule="evenodd" clip-rule="evenodd" d="M467.427 178.81C466.498 174.754 464.47 171.375 461.26 168.587C458.133 165.883 454.5 164.362 450.276 163.94H449.938V148.731C449.515 147.633 448.248 147.211 447.15 147.211V164.024H446.981C442.756 164.447 439.039 165.967 435.997 168.671C432.871 171.375 430.843 174.839 429.829 178.894C429.829 178.894 426.788 178.387 426.788 181.767H441.911C442.334 178.472 445.206 175.853 448.586 175.853C452.05 175.853 454.838 178.387 455.345 181.767H470.722C470.722 178.725 467.427 178.81 467.427 178.81Z" fill="white"/>
<path fill-rule="evenodd" clip-rule="evenodd" d="M448.671 177.965C451.206 177.965 453.233 179.993 453.233 182.527C453.233 185.062 451.206 187.09 448.671 187.09C446.136 187.09 444.108 185.062 444.108 182.527C444.024 180.077 446.136 177.965 448.671 177.965Z" fill="white"/>
<path fill-rule="evenodd" clip-rule="evenodd" d="M436.504 145.098L438.025 145.521C438.954 145.774 440.644 146.197 441.32 146.366C441.996 146.535 442.587 146.619 443.094 146.704C443.01 146.788 442.925 146.788 442.841 146.873C443.601 147.042 444.446 147.295 444.7 147.464C444.784 147.464 444.868 147.549 444.953 147.718C445.375 148.394 445.291 149.492 445.291 151.689C445.291 151.773 445.291 152.449 445.291 152.534V156.251C445.291 157.434 445.375 157.518 444.362 158.279L432.871 167.15L415.297 162.841C414.621 161.996 414.79 160.814 415.635 160.138L433.631 146.366L434.392 145.774C435.321 145.183 435.575 145.014 436.504 145.098ZM440.391 148.9C439.799 148.816 439.208 148.985 438.616 149.407C437.602 150.168 437.433 151.604 438.194 152.703C438.954 153.716 440.475 153.885 441.489 153.125C442.165 152.618 442.503 151.773 442.334 150.928V150.844C442.249 150.59 442.165 150.337 441.996 149.999C441.658 149.323 440.644 149.407 440.644 149.407L440.391 148.9Z" fill="white"/>
<path fill-rule="evenodd" clip-rule="evenodd" d="M444.953 147.633C444.868 147.549 444.784 147.464 444.699 147.464C444.446 147.38 443.516 147.126 442.756 146.873C442.587 147.042 442.418 147.126 442.249 147.295C441.658 147.886 441.151 148.562 440.813 149.323C441.151 149.323 441.742 149.492 441.996 149.914C442.08 150.083 442.165 150.337 442.249 150.506C442.503 149.745 442.925 149.154 443.516 148.562C443.939 148.224 444.446 147.886 444.953 147.633Z" fill="white"/>
<path fill-rule="evenodd" clip-rule="evenodd" d="M426.703 158.194L427.886 157.687L436.588 164.278L432.871 167.15L426.703 158.194Z" fill="white"/>
<path d="M441.404 150.928C441.404 151.435 440.982 151.858 440.475 151.858C439.968 151.858 439.545 151.435 439.545 150.928C439.545 148.985 440.39 147.295 441.658 146.028C442.925 144.76 444.784 144 446.727 144C448.67 144 450.529 144.76 451.796 146.028C453.064 147.295 453.909 148.985 453.909 150.928C453.909 151.435 453.486 151.858 452.979 151.858C452.472 151.858 452.05 151.435 452.05 150.928C452.05 149.492 451.458 148.225 450.445 147.295C449.431 146.366 448.079 145.774 446.558 145.774C445.037 145.774 443.685 146.366 442.672 147.295C441.996 148.225 441.404 149.492 441.404 150.928Z" fill="white"/>
<path fill-rule="evenodd" clip-rule="evenodd" d="M432.786 167.15L428.815 158.617C428.393 157.687 427.21 157.265 426.281 157.687L415.212 162.757L432.786 167.15Z" fill="white"/>
<path d="M367.645 228.997C368.49 228.997 369.166 228.152 369.673 226.547C370.18 224.857 370.518 222.491 370.686 219.365L371.024 212.944H381.67V228.997H383.36V236.432H381.332V230.687H367.983V236.432H366.124V228.997H367.645ZM372.63 219.365C372.461 221.731 372.292 223.674 371.954 225.279C371.616 226.885 371.193 228.152 370.602 228.997H379.642V214.803H372.883L372.63 219.365ZM393.33 231.025C391.049 231.025 389.19 230.18 387.753 228.574C386.317 226.969 385.641 224.857 385.641 222.322V221.393C385.641 218.858 386.402 216.746 387.838 215.056C389.274 213.366 391.049 212.606 393.245 212.606C395.358 212.606 397.047 213.282 398.23 214.718C399.413 216.07 400.005 217.929 400.005 220.294V221.815H387.584V222.322C387.584 224.35 388.091 226.04 389.105 227.307C390.119 228.659 391.556 229.335 393.33 229.335C394.428 229.335 395.442 229.166 396.287 228.828C397.216 228.49 397.977 227.983 398.568 227.392L399.413 228.743C398.822 229.419 397.977 229.926 396.963 230.349C395.949 230.771 394.766 231.025 393.33 231.025ZM393.161 214.296C391.64 214.296 390.457 214.803 389.443 215.901C388.514 216.999 387.922 218.351 387.753 220.041L387.838 220.125H397.977V219.703C397.977 218.098 397.554 216.83 396.709 215.817C395.865 214.803 394.682 214.296 393.161 214.296ZM417.325 222.322C417.325 224.941 416.734 227.054 415.551 228.659C414.368 230.264 412.678 231.025 410.566 231.025C409.298 231.025 408.285 230.771 407.355 230.349C406.426 229.842 405.665 229.25 405.074 228.321V237.446H403.131V212.944H404.651L404.989 215.732C405.581 214.718 406.341 213.958 407.271 213.451C408.2 212.944 409.298 212.606 410.566 212.606C412.678 212.606 414.368 213.451 415.551 215.141C416.734 216.83 417.325 219.112 417.325 221.9V222.322ZM415.382 221.984C415.382 219.703 414.959 217.929 414.03 216.492C413.1 215.056 411.833 214.38 410.143 214.38C408.876 214.38 407.778 214.718 406.933 215.31C406.088 215.901 405.496 216.746 405.074 217.76V226.293C405.496 227.223 406.172 227.983 407.017 228.574C407.862 229.081 408.876 229.419 410.143 229.419C411.833 229.419 413.185 228.743 414.03 227.476C414.959 226.209 415.382 224.519 415.382 222.322V221.984V221.984ZM432.111 222.491H430.59V230.687H428.647V222.491H427.21L420.536 230.687H418.17L418.085 230.602L425.521 221.562L418.846 213.028H421.212L427.126 220.801H428.647V212.944H430.59V220.717H432.111L438.025 212.944H440.391L433.632 221.477L441.067 230.518L440.982 230.602H438.785L432.111 222.491ZM453.233 230.687C453.149 230.095 452.98 229.504 452.98 229.081C452.895 228.659 452.895 228.152 452.895 227.73C452.304 228.659 451.459 229.504 450.361 230.095C449.262 230.687 447.995 231.025 446.559 231.025C444.784 231.025 443.517 230.602 442.503 229.673C441.574 228.743 441.067 227.476 441.067 225.955C441.067 224.35 441.743 223.083 443.179 222.153C444.531 221.139 446.39 220.717 448.586 220.717H452.895V218.52C452.895 217.253 452.473 216.239 451.712 215.563C450.868 214.803 449.769 214.465 448.333 214.465C446.981 214.465 445.883 214.803 445.122 215.479C444.277 216.154 443.855 216.999 443.855 217.929H442.081V217.844C441.996 216.492 442.588 215.31 443.77 214.296C444.953 213.282 446.559 212.775 448.502 212.775C450.445 212.775 451.966 213.282 453.149 214.296C454.332 215.31 454.923 216.746 454.923 218.605V227.307C454.923 227.899 454.923 228.575 455.008 229.166C455.092 229.757 455.177 230.349 455.346 230.94H453.233V230.687ZM446.728 229.25C448.248 229.25 449.516 228.912 450.614 228.152C451.712 227.476 452.473 226.547 452.811 225.364V221.984H448.417C446.812 221.984 445.545 222.407 444.446 223.083C443.432 223.843 442.925 224.772 442.925 225.786C442.925 226.8 443.263 227.561 443.939 228.237C444.615 228.997 445.545 229.25 446.728 229.25ZM459.401 230.687V212.944H465.907C468.104 212.944 469.793 213.366 471.061 214.127C472.244 214.887 472.919 216.07 472.919 217.675C472.919 218.605 472.666 219.365 472.075 220.041C471.568 220.717 470.723 221.224 469.793 221.562C470.976 221.815 471.906 222.322 472.581 223.083C473.257 223.843 473.68 224.772 473.68 225.786C473.68 227.392 473.088 228.574 471.906 229.419C470.723 230.264 469.117 230.687 467.09 230.687H459.401ZM461.344 222.491V228.997H467.005C468.441 228.997 469.624 228.743 470.385 228.152C471.145 227.561 471.568 226.8 471.568 225.702C471.568 224.688 471.145 223.928 470.385 223.336C469.54 222.745 468.441 222.491 467.005 222.491H461.344ZM461.344 220.886H466.076C467.681 220.886 468.864 220.632 469.709 220.125C470.554 219.619 470.976 218.774 470.976 217.76C470.976 216.661 470.554 215.901 469.709 215.394C468.864 214.887 467.597 214.634 465.991 214.634H461.429V220.886H461.344ZM488.719 212.944H490.662V230.687H488.719V216.239H488.635L479.172 230.687H477.228V212.944H479.172V227.392H479.256L488.719 212.944Z" fill="white"/>
<path d="M351 193.849H355.309V206.438H360.547V193.849H364.856V206.438H367.138V214.972H362.913V209.733H351.084L351 193.849ZM372.629 209.649H368.32V193.849H372.629V209.649ZM372.629 191.821H368.32V188.611H372.629V191.821ZM388.345 209.649H384.036V203.481H378.797V209.649H374.573V193.849H378.882V200.27H384.12V193.849H388.429L388.345 209.649ZM399.413 209.649C399.244 209.311 399.159 208.888 398.99 208.466C398.906 208.043 398.821 207.621 398.737 207.199C398.314 207.959 397.723 208.635 396.963 209.142C396.202 209.649 395.357 209.902 394.343 209.902C392.654 209.902 391.386 209.48 390.541 208.635C389.612 207.79 389.19 206.607 389.19 205.171C389.19 203.65 389.781 202.383 390.964 201.538C392.147 200.693 393.921 200.27 396.202 200.27H398.568V199.003C398.568 198.243 398.399 197.651 397.976 197.229C397.554 196.806 396.963 196.637 396.202 196.637C395.526 196.637 394.935 196.806 394.597 197.144C394.259 197.482 394.005 197.905 394.005 198.496H389.865V198.412C389.781 197.06 390.372 195.877 391.64 194.948C392.907 194.018 394.512 193.511 396.456 193.511C398.399 193.511 399.92 194.018 401.103 194.948C402.285 195.877 402.877 197.313 402.877 199.088V205.593C402.877 206.354 402.961 207.03 403.046 207.706C403.13 208.381 403.299 208.973 403.553 209.649H399.413ZM395.526 206.776C396.287 206.776 396.963 206.607 397.554 206.185C398.145 205.847 398.568 205.424 398.737 204.917V202.636H396.371C395.442 202.636 394.766 202.89 394.343 203.312C393.921 203.734 393.667 204.326 393.667 205.002C393.667 205.509 393.836 205.931 394.174 206.269C394.428 206.692 394.935 206.776 395.526 206.776Z" fill="white"/>
<path fill-rule="evenodd" clip-rule="evenodd" d="M449.938 164.024C455.936 164.953 460.837 171.037 461.682 178.725H467.342C466.329 170.53 457.204 164.024 449.938 164.024Z" fill="white"/>
</g>
<defs>
<clipPath id="clip0_311_16">
<rect width="140" height="92.4321" fill="white" transform="translate(351 144)"/>
</clipPath>
</defs>
</svg>
