<svg width="88" height="60" viewBox="0 0 88 60" fill="none" xmlns="http://www.w3.org/2000/svg">
<path d="M41.2728 50.8432V57.4218L86.5141 49.9414V2.69274L46.7272 9.27131V2.69274L1.48607 10.1731V57.4218L41.2728 50.8432ZM39.7868 59.1738V52.5953L0 59.1738V8.91257L48.2132 0.940876V7.51929L88 0.940876V51.202L39.7868 59.1738Z" fill="#FFCD00"/>
<path d="M23.6825 25.0198C22.3118 25.0198 21.6266 25.9682 21.6266 27.8648V28.0426C21.6266 29.9022 22.3193 30.8319 23.7047 30.8319C25.0456 30.8319 25.7308 29.9428 25.7606 28.1648V27.8091C25.7606 25.9496 25.0679 25.0198 23.6825 25.0198ZM24.3826 22.1304C25.9531 22.1304 27.1997 22.6454 28.1221 23.6751C29.0445 24.705 29.5058 26.1089 29.5058 27.8869V28.0426C29.5058 29.1687 29.2724 30.1634 28.8057 31.0263C28.3388 31.8896 27.6666 32.5544 26.7886 33.0211C25.9107 33.4879 24.8826 33.7212 23.7047 33.7212C21.9266 33.7212 20.5098 33.1509 19.454 32.0099C18.3982 30.8691 17.8704 29.2983 17.8704 27.2978V26.9424C17.8852 24.2012 18.3371 22.0453 19.2262 20.4745C20.1153 18.9039 21.4746 17.9149 23.3046 17.5074C24.1271 17.3223 24.6659 17.1426 24.9215 16.9683C25.1772 16.7944 25.305 16.5221 25.305 16.1516H28.3167C28.3167 17.0777 28.1739 17.7815 27.8887 18.2631C27.6035 18.7447 27.1515 19.1429 26.533 19.4577C25.9142 19.7727 25.0456 20.0339 23.9269 20.2411C23.0453 20.4042 22.3656 20.7507 21.8877 21.2803C21.4099 21.81 21.0857 22.5491 20.9153 23.4973C21.9155 22.5861 23.0713 22.1304 24.3826 22.1304Z" fill="#0049CC"/>
<path d="M35.1617 33.4893H31.4055V21.4649H35.1617V33.4893Z" fill="#0049CC"/>
<path d="M35.1617 20.0356H31.4055V17.4549H35.1617V20.0356Z" fill="#0049CC"/>
<path d="M48.2073 21.4639V33.4883H44.462V24.3533H42.2173L42.0173 28.0316C41.8764 29.8543 41.4653 31.2175 40.7837 32.1213C40.102 33.0253 39.0907 33.481 37.7498 33.4883H36.5718L36.5273 30.5989L36.9163 30.5546C37.4127 30.4955 37.7812 30.1647 38.0221 29.5623C38.2628 28.9599 38.4166 28.0491 38.4834 26.8296L38.7166 21.4639H48.2073Z" fill="#0049CC"/>
<path d="M54.6791 31.0443C55.1459 31.0443 55.5329 30.9442 55.8403 30.7443C56.1478 30.5441 56.3682 30.3183 56.5016 30.0663V28.1439H55.4125C54.1084 28.1439 53.4567 28.7291 53.4567 29.8996C53.4567 30.2405 53.5714 30.5164 53.8011 30.7275C54.0307 30.9386 54.3234 31.0443 54.6791 31.0443ZM57.0239 33.4892C56.8905 33.2446 56.772 32.8854 56.6682 32.4112C55.9793 33.278 55.0161 33.7114 53.779 33.7114C52.6455 33.7114 51.6822 33.3688 50.8896 32.6834C50.0967 31.9983 49.7004 31.1369 49.7004 30.0997C49.7004 28.7958 50.182 27.8104 51.1451 27.1437C52.1081 26.4769 53.5084 26.1434 55.3459 26.1434H56.5016V25.5069C56.5016 24.3976 56.0237 23.8431 55.068 23.8431C54.1791 23.8431 53.7345 24.2823 53.7345 25.1609H49.9895C49.9895 23.9992 50.4839 23.0556 51.4729 22.3305C52.4621 21.6053 53.7234 21.2425 55.257 21.2425C56.7906 21.2425 58.0019 21.6167 58.891 22.365C59.7799 23.1133 60.2356 24.1394 60.2578 25.4433V30.7664C60.2727 31.8705 60.4429 32.715 60.7691 33.3002V33.4892H57.0239Z" fill="#0049CC"/>
<path d="M47.2466 35.0511H47.9904V41.1322H51.6044V35.0511H52.3482V41.1322H53.0301L52.9743 43.748H52.2925V41.7583H47.2466V35.0511Z" fill="#0049CC"/>
<path d="M55.2493 41.7573H54.5055V35.0502H55.2493V41.7573Z" fill="#0049CC"/>
<path d="M62.4173 41.7588H61.6735V38.6841H58.0595V41.7588H57.3157V35.0516H58.0595V38.058H61.6735V35.0516H62.4173V41.7588Z" fill="#0049CC"/>
<path d="M66.3076 41.2253C66.8036 41.2253 67.2468 41.1054 67.6373 40.8658C68.0279 40.6261 68.312 40.3058 68.4896 39.9049V38.4296H67.1631C66.4234 38.4379 65.8448 38.5733 65.4274 38.8355C65.0099 39.0981 64.8013 39.4585 64.8013 39.9173C64.8013 40.2934 64.9409 40.6054 65.2198 40.8534C65.4988 41.1013 65.8614 41.2253 66.3076 41.2253ZM68.6383 41.7584C68.564 41.5476 68.5164 41.2356 68.4958 40.8224C68.2355 41.1613 67.9038 41.4226 67.501 41.6065C67.0981 41.7903 66.6712 41.8823 66.2209 41.8823C65.5762 41.8823 65.0544 41.7026 64.6557 41.343C64.2568 40.9835 64.0575 40.529 64.0575 39.9793C64.0575 39.3264 64.3292 38.8098 64.8727 38.4296C65.4161 38.0495 66.1734 37.8592 67.1445 37.8592H68.4896V37.0969C68.4896 36.6175 68.3419 36.2404 68.0465 35.9655C67.751 35.6907 67.32 35.5533 66.7539 35.5533C66.2373 35.5533 65.8097 35.6856 65.4708 35.95C65.132 36.2146 64.9625 36.5327 64.9625 36.9046L64.2187 36.8984C64.2187 36.3654 64.4666 35.9035 64.9625 35.5131C65.4584 35.1226 66.068 34.9272 66.7912 34.9272C67.5391 34.9272 68.1291 35.1144 68.5609 35.4883C68.9927 35.8623 69.2149 36.384 69.2273 37.0535V40.2273C69.2273 40.8761 69.2954 41.3616 69.4319 41.6839V41.7584H68.6383Z" fill="#0049CC"/>
</svg>
