<svg width="184" height="42" viewBox="0 0 184 42" fill="none" xmlns="http://www.w3.org/2000/svg">
<path d="M50.7666 8.98236H55.8767V19.7313H55.9648C56.4935 18.7621 57.0221 17.881 57.5507 17.0881L62.749 8.98236H69.0926L61.5155 19.3788L69.5331 33.2995H63.4538L57.8151 22.815L55.8767 25.37V33.2995H50.7666V8.98236Z" fill="#009440"/>
<path d="M70.9434 8.98236H76.1416V33.3876H70.9434V8.98236Z" fill="#009440"/>
<path d="M94.9962 23.8722C94.9962 30.5683 90.679 33.652 86.1856 33.652C81.3398 33.652 77.5513 30.1277 77.5513 24.1365C77.5513 18.2335 81.0755 14.3568 86.4499 14.3568C91.5601 14.533 94.9962 18.4097 94.9962 23.8722ZM82.9257 24.0484C82.9257 27.2202 84.1592 29.5991 86.3618 29.5991C88.3883 29.5991 89.6217 27.3965 89.6217 24.0484C89.6217 21.3172 88.6526 18.4978 86.3618 18.4978C83.8949 18.5859 82.9257 21.4053 82.9257 24.0484Z" fill="#009440"/>
<path d="M112.177 28.0132C112.177 30.2158 112.265 31.9779 112.353 33.3876H107.86L107.595 31.0088H107.507C106.891 32.066 105.305 33.74 102.309 33.74C98.9611 33.74 96.4941 31.6255 96.4941 26.5154V14.2687H101.692V25.6343C101.692 28.0132 102.485 29.511 104.247 29.511C105.657 29.511 106.45 28.5418 106.803 27.7489C106.979 27.4845 106.979 27.044 106.979 26.6035V14.2687H112.177V28.0132Z" fill="#009440"/>
<path d="M130.767 8.98239V27.837C130.767 29.8635 130.855 32.0661 130.944 33.2996H126.362L126.098 30.5683H126.01C124.952 32.5947 122.926 33.652 120.811 33.652C116.847 33.652 113.675 29.9516 113.675 24.2247C113.675 18.0573 117.111 14.4449 121.164 14.4449C123.19 14.4449 124.776 15.2379 125.569 16.4714H125.657V8.89429H130.767V8.98239ZM125.657 22.7269C125.657 22.4626 125.657 22.022 125.569 21.6696C125.305 20.1718 124.159 18.8502 122.573 18.8502C120.195 18.8502 118.961 21.141 118.961 24.0485C118.961 27.1322 120.371 29.1586 122.485 29.1586C123.983 29.1586 125.129 28.0132 125.481 26.4273C125.569 25.9868 125.657 25.6344 125.657 25.1057V22.7269Z" fill="#009440"/>
<path d="M133.234 28.2775C134.203 28.8943 136.141 29.6872 137.727 29.6872C139.313 29.6872 139.93 29.0705 139.93 28.1894C139.93 27.2202 139.401 26.7797 137.463 26.0749C134.027 24.7533 132.705 22.7269 132.705 20.5242C132.705 17.0881 135.348 14.533 139.489 14.533C141.428 14.533 143.19 15.0617 144.159 15.5903L143.278 19.555C142.573 19.1145 141.075 18.4978 139.666 18.4978C138.432 18.4978 137.727 19.0264 137.727 19.9956C137.727 20.8766 138.344 21.3172 140.37 22.1101C143.542 23.3436 144.864 25.1057 144.864 27.7489C144.864 31.185 142.397 33.652 137.639 33.652C135.436 33.652 133.498 33.1233 132.265 32.3304L133.234 28.2775Z" fill="#009440"/>
<path d="M152.616 8.98236V15.2379H156.317V19.0264H152.616V26.5154C152.616 28.5418 153.057 29.4229 154.643 29.4229C155.26 29.4229 155.788 29.3348 156.141 29.2467V33.1233C155.436 33.3876 154.202 33.5639 152.793 33.5639C151.119 33.5639 149.709 32.9471 148.916 32.1542C147.947 31.185 147.506 29.5991 147.506 27.2202V19.0264H145.304V15.2379H147.506V8.98236H152.616Z" fill="#009440"/>
<path d="M161.251 25.8987C161.427 28.2775 163.542 29.4229 165.92 29.4229C167.683 29.4229 169.092 29.1586 170.502 28.6299L171.207 32.5066C169.533 33.2995 167.418 33.652 165.216 33.652C159.577 33.652 156.317 30.0396 156.317 24.3128C156.317 19.6432 158.96 14.533 164.687 14.533C170.061 14.533 172.088 19.1145 172.088 23.696C172.088 24.6652 172 25.5462 171.912 25.9868L161.251 25.8987ZM167.33 22.022C167.33 20.6123 166.801 18.3216 164.423 18.3216C162.22 18.3216 161.339 20.5242 161.251 22.022H167.33Z" fill="#009440"/>
<path d="M173.763 20.9648C173.763 18.2335 173.675 16.4714 173.587 14.8855H178.08L178.257 18.2335H178.433C179.314 15.5903 181.34 14.4449 182.926 14.4449C183.367 14.4449 183.631 14.4449 183.983 14.5331V19.9075C183.631 19.8194 183.19 19.7313 182.574 19.7313C180.635 19.7313 179.402 20.8767 179.049 22.6388C178.961 22.9912 178.961 23.4317 178.961 23.9604V33.2996H173.763V20.9648Z" fill="#009440"/>
<path d="M7.1543 13.1233L14.2028 17.1762L21.2512 13.0352L14.2028 8.98236L7.1543 13.1233Z" fill="#009440"/>
<path d="M35.2602 13.1234L35.3483 21.2291L28.2998 25.2819V17.1762L35.2602 13.1234Z" fill="#009440"/>
<path d="M21.2515 29.3348V37.4405L28.2118 33.3876L28.2999 25.2819L21.2515 29.3348Z" fill="#009440"/>
<path d="M7.1543 4.92951L14.2028 0.876648L21.2512 4.92951L14.2028 8.98238L7.1543 4.92951Z" fill="#009440"/>
<path d="M0.105957 17.1762V25.2819L7.15442 29.3348V21.2291L0.105957 17.1762Z" fill="#009440"/>
<path d="M14.2028 33.3876L7.1543 29.3348V37.4405L14.2028 41.5815V33.3876Z" fill="#009440"/>
<path d="M28.2124 8.98237L35.2609 4.9295L42.3093 9.07047L35.2609 13.1233L28.2124 8.98237Z" fill="#009440"/>
<path d="M42.3092 25.2819L35.2607 29.3348V37.4405L42.3092 33.3876V25.2819Z" fill="#009440"/>
<path d="M14.2026 25.2819V17.1762L21.2511 21.2291V29.3348L14.2026 25.2819Z" fill="#009440"/>
</svg>
