<svg width="140" height="140" viewBox="0 0 140 140" fill="none" xmlns="http://www.w3.org/2000/svg">
<path d="M52.8 110.1V90H56.7C61.8 90 64.3 91.8 64.3 95.7C64.3 96.9 63.6 98.6 62.6 99.4C64.6 100 66.1 102.3 66.1 104.5C66.1 108.8 62.4 110.2 58.9 110.2H52.8V110.1ZM58.8 107.5C61.6 107.5 63 106.5 63 104.2C63 101.5 60.2 101.2 58.3 101.2H56V107.2H58.8V107.5ZM57.5 98.7C60 98.7 61.4 98.3 61.4 95.6C61.4 93.1 60 92.7 57.5 92.7H55.9V98.7H57.5ZM102.2 89.9H105.5L111.2 104L116.7 89.9H120L111.2 111.8L102.2 89.8V89.9ZM81 110V90H84V107.4H93.3L93.1 108L92.1 110.2H81V110ZM36.3 110H39.6L29.7 88.5L19.9 110H23.2L25.4 105.1H32.6L33.4 103.5L36.3 110ZM26.7 102.3L29.7 95.3L32.8 102.3H26.7ZM70.3 55.7L71.3 63.7H90L70.4 53.4L51 63.8H69.5L68.5 72.4L50.5 64L70.5 75.5L90.2 64L70.3 73.3V55.8V55.7ZM73.3 50.2L79.9 45.2L70.7 29.3L71.3 51.4L90 63.1L81 47.1L88.8 43.9L90.4 63.3V40.3L70.6 29L88.6 41.5L73.5 50.3L73.3 50.2ZM67 50.2L59.7 47.2L50.4 63.2L69.3 51.4L69.9 29.4L60.7 45.3L53.7 40.2L70 29L50.1 40.5V63.5L52 41.5L67 50.3V50.2Z" fill="#3F4349"/>
</svg>
