<svg width="140" height="140" viewBox="0 0 140 140" fill="none" xmlns="http://www.w3.org/2000/svg">
<path d="M64.2 63.8H58.6V89.3H64.2V63.8ZM49.5 76.8C49.5 78.7626 48.7204 80.6448 47.3326 82.0326C45.9448 83.4204 44.0626 84.2 42.1 84.2C40.1374 84.2 38.2552 83.4204 36.8674 82.0326C35.4796 80.6448 34.7 78.7626 34.7 76.8V69.4H41.9C46.1 69.4 49.5 72.8 49.5 76.8ZM54.9 76.8C54.9 73.3522 53.5304 70.0456 51.0924 67.6076C48.6544 65.1696 45.3478 63.8 41.9 63.8H34.6V50H29V76.7C29 80.1478 30.3696 83.4544 32.8076 85.8924C35.2456 88.3304 38.5522 89.7 42 89.7C49.2 89.9 54.9 84 54.9 76.8ZM64.5 57.3C64.5 56.5043 64.1839 55.7413 63.6213 55.1787C63.0587 54.6161 62.2957 54.3 61.5 54.3C60.7044 54.3 59.9413 54.6161 59.3787 55.1787C58.8161 55.7413 58.5 56.5043 58.5 57.3C58.5 58.0956 58.8161 58.8587 59.3787 59.4213C59.9413 59.9839 60.7044 60.3 61.5 60.3C62.2957 60.3 63.0587 59.9839 63.6213 59.4213C64.1839 58.8587 64.5 58.0956 64.5 57.3ZM81.5 90H82.3V84.5H81.6C78.7 84.3 76.8 82.1 76.8 79.1V69H82.3V63.7H77V54.5H71.6V63.7H67.4V69.1H71.6V79C71.4 85 75.7 89.5 81.6 89.9L81.5 90ZM100.5 57.3C100.5 56.5043 100.184 55.7413 99.6213 55.1787C99.0587 54.6161 98.2956 54.3 97.5 54.3C96.7044 54.3 95.9413 54.6161 95.3787 55.1787C94.8161 55.7413 94.5 56.5043 94.5 57.3C94.5 58.0956 94.8161 58.8587 95.3787 59.4213C95.9413 59.9839 96.7044 60.3 97.5 60.3C99 60.4 100.5 59 100.5 57.3ZM103.9 73.3H90.6C91.9 70.1 94.8 68.3 97.3 68.3C100.2 68.3 102.8 70.3 103.9 73.3ZM110.2 77.6C110.2 73.3 108.7 69.6 106.2 66.9C105.039 65.7204 103.653 64.7853 102.124 64.1499C100.596 63.5144 98.9554 63.1914 97.3 63.2C90.3 63.2 84.5 69.2 84.5 76.6C84.5 84 90.2 89.9 97.5 89.9C100.173 90.009 102.805 89.2219 104.979 87.6638C107.153 86.1057 108.744 83.8658 109.5 81.3H103.5C102.911 82.3648 102.038 83.246 100.979 83.846C99.9205 84.446 98.7164 84.7416 97.5 84.7C95.7047 84.6955 93.9706 84.0471 92.6128 82.8727C91.2549 81.6984 90.3633 80.0759 90.1 78.3H110.1V77.6H110.2Z" fill="#3F4349"/>
</svg>
