<svg width="20" height="20" viewBox="0 0 20 20" fill="none" xmlns="http://www.w3.org/2000/svg">
<g clip-path="url(#clip0_122_2167)">
<path d="M11.4017 0.28284C11.8454 0.469637 12.2473 0.743236 12.5837 1.08756V1.08881L13.3612 1.88381L14.4737 1.87131C14.9553 1.86561 15.4331 1.95626 15.8791 2.13792C16.3252 2.31958 16.7304 2.58859 17.0709 2.92913C17.4114 3.26967 17.6804 3.67487 17.8621 4.12089C18.0438 4.56691 18.1344 5.04475 18.1287 5.52631L18.115 6.63881L18.9112 7.41631C19.2555 7.75277 19.5291 8.15467 19.7159 8.59837C19.9027 9.04208 19.999 9.51864 19.999 10.0001C19.999 10.4815 19.9027 10.958 19.7159 11.4018C19.5291 11.8455 19.2555 12.2473 18.9112 12.5838L18.1162 13.3613L18.1287 14.4738C18.1344 14.9554 18.0438 15.4332 17.8621 15.8792C17.6804 16.3253 17.4114 16.7304 17.0709 17.071C16.7304 17.4115 16.3252 17.6805 15.8791 17.8622C15.4331 18.0439 14.9553 18.1345 14.4737 18.1288L13.3612 18.1151L12.5837 18.9113C12.2473 19.2556 11.8454 19.5292 11.4017 19.716C10.958 19.9028 10.4814 19.9991 9.99997 19.9991C9.51855 19.9991 9.04198 19.9028 8.59828 19.716C8.15458 19.5292 7.75268 19.2556 7.41622 18.9113L6.63872 18.1163L5.52622 18.1288C5.04466 18.1345 4.56682 18.0439 4.1208 17.8622C3.67478 17.6805 3.26958 17.4115 2.92904 17.071C2.5885 16.7304 2.31949 16.3253 2.13783 15.8792C1.95617 15.4332 1.86552 14.9554 1.87122 14.4738L1.88497 13.3613L1.08872 12.5838C0.744396 12.2473 0.470796 11.8455 0.283999 11.4018C0.0972024 10.958 0.000976562 10.4815 0.000976562 10.0001C0.000976562 9.51864 0.0972024 9.04208 0.283999 8.59837C0.470796 8.15467 0.744396 7.75277 1.08872 7.41631L1.88372 6.63881L1.87122 5.52631C1.86552 5.04475 1.95617 4.56691 2.13783 4.12089C2.31949 3.67487 2.5885 3.26967 2.92904 2.92913C3.26958 2.58859 3.67478 2.31958 4.1208 2.13792C4.56682 1.95626 5.04466 1.86561 5.52622 1.87131L6.63872 1.88506L7.41622 1.08756C7.75268 0.743236 8.15458 0.469637 8.59828 0.28284C9.04198 0.0960427 9.51855 -0.000183105 9.99997 -0.000183105C10.4814 -0.000183105 10.958 0.0960427 11.4017 0.28284Z" fill="#D31450"/>
<path d="M13.4456 6.25506C13.6184 6.08965 13.8483 5.99821 14.0869 6.00003C14.3255 6.00184 14.5541 6.09677 14.7244 6.26478C14.8947 6.4328 14.9934 6.66075 14.9997 6.90055C15.006 7.14034 14.9194 7.37323 14.7582 7.55005L9.86357 13.7044C9.7794 13.7955 9.67782 13.8686 9.5649 13.9194C9.45198 13.9702 9.33003 13.9975 9.20636 13.9998C9.08268 14.0021 8.95981 13.9793 8.8451 13.9328C8.73038 13.8863 8.62618 13.817 8.53872 13.729L5.29283 10.4656C5.20243 10.381 5.12993 10.2788 5.07965 10.1654C5.02936 10.0519 5.00232 9.92942 5.00014 9.80522C4.99796 9.68102 5.02069 9.55765 5.06696 9.44248C5.11323 9.3273 5.18211 9.22267 5.26947 9.13483C5.35684 9.047 5.4609 8.97775 5.57547 8.93123C5.69003 8.88471 5.81273 8.86186 5.93627 8.86405C6.0598 8.86624 6.18163 8.89343 6.29449 8.94398C6.40734 8.99454 6.50892 9.06743 6.59315 9.15831L9.16189 11.7397L13.4223 6.28219C13.4299 6.27269 13.4381 6.26364 13.4468 6.25506H13.4456Z" fill="white"/>
</g>
<defs>
<clipPath id="clip0_122_2167">
<rect width="20" height="20" fill="white"/>
</clipPath>
</defs>
</svg>
