<svg width="20" height="20" viewBox="0 0 20 20" fill="none" xmlns="http://www.w3.org/2000/svg">
<g clip-path="url(#clip0_122_1627)">
<path d="M2.5 7.50001C2.5 7.27899 2.5878 7.06703 2.74408 6.91075C2.90036 6.75447 3.11232 6.66667 3.33333 6.66667H16.6667C16.8877 6.66667 17.0996 6.75447 17.2559 6.91075C17.4122 7.06703 17.5 7.27899 17.5 7.50001V9.16667C17.5 9.38769 17.4122 9.59965 17.2559 9.75593C17.0996 9.91221 16.8877 10 16.6667 10H3.33333C3.11232 10 2.90036 9.91221 2.74408 9.75593C2.5878 9.59965 2.5 9.38769 2.5 9.16667V7.50001Z" stroke="#D31450" stroke-width="1.5" stroke-linecap="round" stroke-linejoin="round"/>
<path d="M10 6.66667V17.5" stroke="#D31450" stroke-width="1.5" stroke-linecap="round" stroke-linejoin="round"/>
<path d="M15.8337 10V15.8333C15.8337 16.2754 15.6581 16.6993 15.3455 17.0118C15.0329 17.3244 14.609 17.5 14.167 17.5H5.83366C5.39163 17.5 4.96771 17.3244 4.65515 17.0118C4.34259 16.6993 4.16699 16.2754 4.16699 15.8333V10" stroke="#D31450" stroke-width="1.5" stroke-linecap="round" stroke-linejoin="round"/>
<path d="M6.25033 6.66667C5.69779 6.66667 5.16789 6.44717 4.77719 6.05647C4.38649 5.66577 4.16699 5.13587 4.16699 4.58333C4.16699 4.0308 4.38649 3.50089 4.77719 3.11019C5.16789 2.71949 5.69779 2.5 6.25033 2.5C7.05423 2.48599 7.84201 2.87605 8.51094 3.6193C9.17986 4.36255 9.69889 5.4245 10.0003 6.66667C10.3018 5.4245 10.8208 4.36255 11.4897 3.6193C12.1586 2.87605 12.9464 2.48599 13.7503 2.5C14.3029 2.5 14.8328 2.71949 15.2235 3.11019C15.6142 3.50089 15.8337 4.0308 15.8337 4.58333C15.8337 5.13587 15.6142 5.66577 15.2235 6.05647C14.8328 6.44717 14.3029 6.66667 13.7503 6.66667" stroke="#D31450" stroke-width="1.5" stroke-linecap="round" stroke-linejoin="round"/>
</g>
<defs>
<clipPath id="clip0_122_1627">
<rect width="20" height="20" fill="white"/>
</clipPath>
</defs>
</svg>
