<svg width="13" height="10" viewBox="0 0 13 10" fill="none" xmlns="http://www.w3.org/2000/svg">
<path d="M10.455 0.454995C10.6663 0.253828 10.9475 0.142615 11.2392 0.144823C11.531 0.14703 11.8104 0.262486 12.0187 0.466827C12.2269 0.671168 12.3476 0.948411 12.3553 1.24006C12.363 1.5317 12.2571 1.81494 12.06 2.03L6.07499 9.515C5.97208 9.62584 5.84787 9.7148 5.70979 9.77655C5.57171 9.83829 5.4226 9.87156 5.27137 9.87436C5.12014 9.87716 4.9699 9.84944 4.82963 9.79284C4.68936 9.73625 4.56194 9.65196 4.45499 9.545L0.485992 5.576C0.375462 5.473 0.286809 5.3488 0.225321 5.2108C0.163833 5.0728 0.13077 4.92383 0.128105 4.77278C0.12544 4.62173 0.153227 4.47168 0.209808 4.3316C0.26639 4.19152 0.350607 4.06427 0.457435 3.95744C0.564263 3.85061 0.691514 3.76639 0.831596 3.70981C0.971678 3.65323 1.12172 3.62544 1.27278 3.62811C1.42383 3.63077 1.5728 3.66384 1.7108 3.72532C1.8488 3.78681 1.973 3.87547 2.07599 3.986L5.21699 7.1255L10.4265 0.487995C10.4359 0.476447 10.4459 0.465429 10.4565 0.454995H10.455Z" fill="#171A38"/>
</svg>
