<svg width="436" height="75" viewBox="0 0 436 75" fill="none" xmlns="http://www.w3.org/2000/svg">
<path d="M64.9429 58.872C65.1309 58.872 65.2249 59.06 65.2249 59.436C65.2249 59.812 65.1309 60 64.9429 60C63.0003 60 61.4649 59.9687 60.3369 59.906L53.8509 59.812L46.8949 59.906C45.8296 59.9687 44.3569 60 42.4769 60C42.2889 60 42.1949 59.812 42.1949 59.436C42.1949 59.06 42.2889 58.872 42.4769 58.872C44.9209 58.872 46.7069 58.7153 47.8349 58.402C48.9629 58.0887 49.7149 57.4933 50.0909 56.616C50.5296 55.676 50.7489 54.266 50.7489 52.386V30.39H14.6529V52.386C14.6529 54.266 14.8409 55.676 15.2169 56.616C15.6556 57.4933 16.4389 58.0887 17.5669 58.402C18.6949 58.7153 20.4809 58.872 22.9249 58.872C23.0503 58.872 23.1129 59.06 23.1129 59.436C23.1129 59.812 23.0503 60 22.9249 60C20.9823 60 19.4469 59.9687 18.3189 59.906L11.5509 59.812L5.06492 59.906C3.93692 59.9687 2.37025 60 0.364921 60C0.239587 60 0.176921 59.812 0.176921 59.436C0.176921 59.06 0.239587 58.872 0.364921 58.872C2.74625 58.872 4.50092 58.7153 5.62892 58.402C6.81959 58.0887 7.60292 57.4933 7.97892 56.616C8.41759 55.676 8.63692 54.266 8.63692 52.386V8.864C8.63692 6.984 8.41759 5.60533 7.97892 4.728C7.60292 3.85066 6.85092 3.25533 5.72292 2.942C4.59492 2.566 2.84025 2.378 0.458921 2.378C0.333588 2.378 0.270921 2.19 0.270921 1.814C0.270921 1.438 0.333588 1.25 0.458921 1.25L5.25292 1.344C7.88492 1.46933 9.98425 1.532 11.5509 1.532C13.3683 1.532 15.6556 1.46933 18.4129 1.344L22.9249 1.25C23.0503 1.25 23.1129 1.438 23.1129 1.814C23.1129 2.19 23.0503 2.378 22.9249 2.378C20.5436 2.378 18.7576 2.566 17.5669 2.942C16.4389 3.318 15.6556 3.976 15.2169 4.916C14.8409 5.79333 14.6529 7.172 14.6529 9.05199V28.416H50.7489V9.05199C50.7489 7.172 50.5296 5.79333 50.0909 4.916C49.7149 3.976 48.9629 3.318 47.8349 2.942C46.7069 2.566 44.9209 2.378 42.4769 2.378C42.2889 2.378 42.1949 2.19 42.1949 1.814C42.1949 1.438 42.2889 1.25 42.4769 1.25L46.8949 1.344C49.6523 1.46933 51.9709 1.532 53.8509 1.532C55.5429 1.532 57.7049 1.46933 60.3369 1.344L64.9429 1.25C65.1309 1.25 65.2249 1.438 65.2249 1.814C65.2249 2.19 65.1309 2.378 64.9429 2.378C62.5616 2.378 60.8069 2.566 59.6789 2.942C58.5509 3.25533 57.7676 3.85066 57.3289 4.728C56.9529 5.60533 56.7649 6.984 56.7649 8.864V52.386C56.7649 54.266 56.9529 55.676 57.3289 56.616C57.7676 57.4933 58.5509 58.0887 59.6789 58.402C60.8069 58.7153 62.5616 58.872 64.9429 58.872ZM130.347 58.872C130.598 58.872 130.723 59.06 130.723 59.436C130.723 59.812 130.598 60 130.347 60C129.156 60 127.308 59.9373 124.801 59.812C122.294 59.6867 120.477 59.624 119.349 59.624C117.97 59.624 116.216 59.6867 114.085 59.812C112.08 59.9373 110.544 60 109.479 60C109.228 60 109.103 59.812 109.103 59.436C109.103 59.06 109.228 58.872 109.479 58.872C111.798 58.872 113.49 58.6527 114.555 58.214C115.62 57.7753 116.153 57.0233 116.153 55.958C116.153 55.0807 115.746 53.7333 114.931 51.916L106.565 34.15H84.1931L78.2711 48.062C77.3938 50.1927 76.9551 51.916 76.9551 53.232C76.9551 55.1747 77.7071 56.616 79.2111 57.556C80.7778 58.4333 83.0964 58.872 86.1671 58.872C86.4804 58.872 86.6371 59.06 86.6371 59.436C86.6371 59.812 86.4804 60 86.1671 60C85.0391 60 83.4098 59.9373 81.2791 59.812C78.8978 59.6867 76.8298 59.624 75.0751 59.624C73.4458 59.624 71.5658 59.6867 69.4351 59.812C67.5551 59.9373 65.9884 60 64.7351 60C64.4218 60 64.2651 59.812 64.2651 59.436C64.2651 59.06 64.4218 58.872 64.7351 58.872C66.4898 58.872 67.9624 58.5587 69.1531 57.932C70.4064 57.2427 71.5658 56.0833 72.6311 54.454C73.7591 52.762 74.9811 50.3493 76.2971 47.216L96.1311 0.404C96.2564 0.215998 96.4758 0.121998 96.7891 0.121998C97.1024 0.121998 97.2904 0.215998 97.3531 0.404L119.537 47.122C121.668 51.7593 123.485 54.8927 124.989 56.522C126.493 58.0887 128.279 58.872 130.347 58.872ZM84.9451 32.27H105.719L94.7211 9.05199L84.9451 32.27ZM190.051 57.838C190.552 57.838 190.834 57.9007 190.897 58.026C191.022 58.0887 191.085 58.3707 191.085 58.872C191.085 59.1853 191.022 60.0313 190.897 61.41C190.458 64.9193 190.239 69.2747 190.239 74.476C190.239 74.7893 190.051 74.946 189.675 74.946C189.299 74.946 189.111 74.7893 189.111 74.476C189.111 69.4627 187.889 65.7967 185.445 63.478C183.001 61.1593 178.99 60 173.413 60H144.743C135.907 60 131.489 64.8253 131.489 74.476C131.489 74.7893 131.301 74.946 130.925 74.946C130.612 74.946 130.455 74.7893 130.455 74.476C130.455 69.4 130.204 65.358 129.703 62.35C129.515 61.1593 129.421 60 129.421 58.872C129.421 58.3707 129.484 58.0887 129.609 58.026C129.734 57.9007 130.016 57.838 130.455 57.838H136.377L159.877 0.404C159.94 0.215998 160.128 0.121998 160.441 0.121998C160.817 0.121998 161.036 0.215998 161.099 0.404L184.975 57.838H190.051ZM138.821 57.838H178.395L158.467 9.71L138.821 57.838ZM258.667 58.872C258.855 58.872 258.949 59.06 258.949 59.436C258.949 59.812 258.855 60 258.667 60C256.725 60 255.158 59.9687 253.967 59.906L247.481 59.812L240.619 59.906C239.491 59.9687 238.019 60 236.201 60C236.013 60 235.919 59.812 235.919 59.436C235.919 59.06 236.013 58.872 236.201 58.872C238.645 58.872 240.431 58.7153 241.559 58.402C242.687 58.0887 243.439 57.4933 243.815 56.616C244.191 55.7387 244.379 54.3287 244.379 52.386V9.05199L203.959 60.846C203.771 61.0967 203.395 61.222 202.831 61.222C201.891 61.222 201.421 61.0027 201.421 60.564V8.864C201.421 6.984 201.202 5.60533 200.763 4.728C200.387 3.85066 199.604 3.25533 198.413 2.942C197.285 2.566 195.531 2.378 193.149 2.378C193.024 2.378 192.961 2.19 192.961 1.814C192.961 1.438 193.024 1.25 193.149 1.25L198.037 1.344C200.669 1.46933 202.8 1.532 204.429 1.532C206.247 1.532 208.534 1.46933 211.291 1.344L215.709 1.25C215.897 1.25 215.991 1.438 215.991 1.814C215.991 2.19 215.897 2.378 215.709 2.378C213.265 2.378 211.479 2.566 210.351 2.942C209.223 3.25533 208.471 3.85066 208.095 4.728C207.719 5.60533 207.531 6.984 207.531 8.864V52.762L248.045 0.779995C248.233 0.591997 248.578 0.497998 249.079 0.497998C250.019 0.497998 250.489 0.717331 250.489 1.156V52.386C250.489 54.266 250.677 55.676 251.053 56.616C251.492 57.4933 252.275 58.0887 253.403 58.402C254.531 58.7153 256.286 58.872 258.667 58.872ZM318.034 58.872C318.159 58.872 318.222 59.06 318.222 59.436C318.222 59.812 318.159 60 318.034 60C316.404 60 315.12 59.9687 314.18 59.906L309.01 59.812L301.772 59.906C300.644 59.9687 299.108 60 297.166 60C297.04 60 296.978 59.812 296.978 59.436C296.978 59.06 297.04 58.872 297.166 58.872C298.858 58.872 300.08 58.7467 300.832 58.496C301.584 58.2453 301.96 57.838 301.96 57.274C301.96 56.71 301.678 56.0207 301.114 55.206L286.826 33.586L274.888 50.412C273.384 52.5427 272.632 54.266 272.632 55.582C272.632 57.7753 274.48 58.872 278.178 58.872C278.366 58.872 278.46 59.06 278.46 59.436C278.46 59.812 278.366 60 278.178 60C276.298 60 274.856 59.9687 273.854 59.906L267.368 59.812L263.42 59.906C262.73 59.9687 261.571 60 259.942 60C259.754 60 259.66 59.812 259.66 59.436C259.66 59.06 259.754 58.872 259.942 58.872C262.01 58.872 264.14 58.1513 266.334 56.71C268.527 55.2687 270.658 53.138 272.726 50.318L285.98 32.176L270.846 9.24C269.154 6.73333 267.493 4.97866 265.864 3.976C264.297 2.91066 262.448 2.378 260.318 2.378C260.192 2.378 260.13 2.19 260.13 1.814C260.13 1.438 260.192 1.25 260.318 1.25L263.89 1.344C265.519 1.46933 266.71 1.532 267.462 1.532C269.592 1.532 272.162 1.46933 275.17 1.344L280.058 1.25C280.246 1.25 280.34 1.438 280.34 1.814C280.34 2.19 280.246 2.378 280.058 2.378C278.428 2.378 277.206 2.50333 276.392 2.754C275.64 3.00466 275.264 3.44333 275.264 4.07C275.264 4.57133 275.546 5.26067 276.11 6.138L290.022 27.1L301.02 11.496C302.712 9.11466 303.558 7.172 303.558 5.668C303.558 3.47466 301.803 2.378 298.294 2.378C298.106 2.378 298.012 2.19 298.012 1.814C298.012 1.438 298.106 1.25 298.294 1.25L302.524 1.344C304.905 1.46933 307.067 1.532 309.01 1.532C310.138 1.532 311.454 1.46933 312.958 1.344L316.436 1.25C316.624 1.25 316.718 1.438 316.718 1.814C316.718 2.19 316.624 2.378 316.436 2.378C314.368 2.378 312.206 3.16133 309.95 4.728C307.694 6.29467 305.438 8.61333 303.182 11.684L290.868 28.51L306.566 52.198C308.195 54.642 309.856 56.3653 311.548 57.368C313.302 58.3707 315.464 58.872 318.034 58.872ZM381.61 58.872C381.861 58.872 381.986 59.06 381.986 59.436C381.986 59.812 381.861 60 381.61 60C380.419 60 378.571 59.9373 376.064 59.812C373.557 59.6867 371.74 59.624 370.612 59.624C369.233 59.624 367.479 59.6867 365.348 59.812C363.343 59.9373 361.807 60 360.742 60C360.491 60 360.366 59.812 360.366 59.436C360.366 59.06 360.491 58.872 360.742 58.872C363.061 58.872 364.753 58.6527 365.818 58.214C366.883 57.7753 367.416 57.0233 367.416 55.958C367.416 55.0807 367.009 53.7333 366.194 51.916L357.828 34.15H335.456L329.534 48.062C328.657 50.1927 328.218 51.916 328.218 53.232C328.218 55.1747 328.97 56.616 330.474 57.556C332.041 58.4333 334.359 58.872 337.43 58.872C337.743 58.872 337.9 59.06 337.9 59.436C337.9 59.812 337.743 60 337.43 60C336.302 60 334.673 59.9373 332.542 59.812C330.161 59.6867 328.093 59.624 326.338 59.624C324.709 59.624 322.829 59.6867 320.698 59.812C318.818 59.9373 317.251 60 315.998 60C315.685 60 315.528 59.812 315.528 59.436C315.528 59.06 315.685 58.872 315.998 58.872C317.753 58.872 319.225 58.5587 320.416 57.932C321.669 57.2427 322.829 56.0833 323.894 54.454C325.022 52.762 326.244 50.3493 327.56 47.216L347.394 0.404C347.519 0.215998 347.739 0.121998 348.052 0.121998C348.365 0.121998 348.553 0.215998 348.616 0.404L370.8 47.122C372.931 51.7593 374.748 54.8927 376.252 56.522C377.756 58.0887 379.542 58.872 381.61 58.872ZM336.208 32.27H356.982L345.984 9.05199L336.208 32.27ZM434.76 44.678C434.76 44.49 434.886 44.396 435.136 44.396C435.324 44.396 435.481 44.4273 435.606 44.49C435.794 44.5527 435.888 44.6467 435.888 44.772L434.572 55.394C434.447 56.146 434.29 56.6473 434.102 56.898C433.977 57.086 433.632 57.3053 433.068 57.556C427.428 59.9373 421.475 61.128 415.208 61.128C407.688 61.128 401.39 59.624 396.314 56.616C391.301 53.5453 387.604 49.66 385.222 44.96C382.841 40.26 381.65 35.3093 381.65 30.108C381.65 24.3427 383.248 19.1727 386.444 14.598C389.64 10.0233 393.87 6.48266 399.134 3.976C404.398 1.46933 410.038 0.215997 416.054 0.215997C419.062 0.215997 422.102 0.497997 425.172 1.062C428.243 1.626 430.687 2.44066 432.504 3.506C433.068 3.75667 433.413 4.03867 433.538 4.352C433.726 4.60267 433.852 5.07267 433.914 5.762L434.948 16.29C434.948 16.478 434.792 16.6033 434.478 16.666C434.165 16.666 433.977 16.572 433.914 16.384C432.536 11.5587 429.966 8.018 426.206 5.762C422.509 3.44333 417.903 2.284 412.388 2.284C407.626 2.284 403.458 3.34933 399.886 5.48C396.314 7.548 393.557 10.4933 391.614 14.316C389.672 18.1387 388.7 22.5567 388.7 27.57V29.45H405.15C409.474 29.45 412.514 28.8233 414.268 27.57C416.086 26.254 416.994 23.9667 416.994 20.708C416.994 20.52 417.182 20.426 417.558 20.426C417.934 20.426 418.122 20.52 418.122 20.708L418.028 30.202C418.028 32.1447 418.06 33.586 418.122 34.526L418.216 39.132C418.216 39.32 418.028 39.414 417.652 39.414C417.339 39.414 417.182 39.32 417.182 39.132C417.057 36.5627 416.023 34.6513 414.08 33.398C412.2 32.082 409.13 31.424 404.868 31.424H388.888C389.39 36.688 390.894 41.5133 393.4 45.9C395.907 50.224 399.072 53.6393 402.894 56.146C406.78 58.59 410.947 59.812 415.396 59.812C419.908 59.812 423.825 58.59 427.146 56.146C430.468 53.6393 433.006 49.8167 434.76 44.678Z" fill="#1C356E"/>
<path d="M64.9429 58.872C65.1309 58.872 65.2249 59.06 65.2249 59.436C65.2249 59.812 65.1309 60 64.9429 60C63.0003 60 61.4649 59.9687 60.3369 59.906L53.8509 59.812L46.8949 59.906C45.8296 59.9687 44.3569 60 42.4769 60C42.2889 60 42.1949 59.812 42.1949 59.436C42.1949 59.06 42.2889 58.872 42.4769 58.872C44.9209 58.872 46.7069 58.7153 47.8349 58.402C48.9629 58.0887 49.7149 57.4933 50.0909 56.616C50.5296 55.676 50.7489 54.266 50.7489 52.386V30.39H14.6529V52.386C14.6529 54.266 14.8409 55.676 15.2169 56.616C15.6556 57.4933 16.4389 58.0887 17.5669 58.402C18.6949 58.7153 20.4809 58.872 22.9249 58.872C23.0503 58.872 23.1129 59.06 23.1129 59.436C23.1129 59.812 23.0503 60 22.9249 60C20.9823 60 19.4469 59.9687 18.3189 59.906L11.5509 59.812L5.06492 59.906C3.93692 59.9687 2.37025 60 0.364921 60C0.239587 60 0.176921 59.812 0.176921 59.436C0.176921 59.06 0.239587 58.872 0.364921 58.872C2.74625 58.872 4.50092 58.7153 5.62892 58.402C6.81959 58.0887 7.60292 57.4933 7.97892 56.616C8.41759 55.676 8.63692 54.266 8.63692 52.386V8.864C8.63692 6.984 8.41759 5.60533 7.97892 4.728C7.60292 3.85066 6.85092 3.25533 5.72292 2.942C4.59492 2.566 2.84025 2.378 0.458921 2.378C0.333588 2.378 0.270921 2.19 0.270921 1.814C0.270921 1.438 0.333588 1.25 0.458921 1.25L5.25292 1.344C7.88492 1.46933 9.98425 1.532 11.5509 1.532C13.3683 1.532 15.6556 1.46933 18.4129 1.344L22.9249 1.25C23.0503 1.25 23.1129 1.438 23.1129 1.814C23.1129 2.19 23.0503 2.378 22.9249 2.378C20.5436 2.378 18.7576 2.566 17.5669 2.942C16.4389 3.318 15.6556 3.976 15.2169 4.916C14.8409 5.79333 14.6529 7.172 14.6529 9.05199V28.416H50.7489V9.05199C50.7489 7.172 50.5296 5.79333 50.0909 4.916C49.7149 3.976 48.9629 3.318 47.8349 2.942C46.7069 2.566 44.9209 2.378 42.4769 2.378C42.2889 2.378 42.1949 2.19 42.1949 1.814C42.1949 1.438 42.2889 1.25 42.4769 1.25L46.8949 1.344C49.6523 1.46933 51.9709 1.532 53.8509 1.532C55.5429 1.532 57.7049 1.46933 60.3369 1.344L64.9429 1.25C65.1309 1.25 65.2249 1.438 65.2249 1.814C65.2249 2.19 65.1309 2.378 64.9429 2.378C62.5616 2.378 60.8069 2.566 59.6789 2.942C58.5509 3.25533 57.7676 3.85066 57.3289 4.728C56.9529 5.60533 56.7649 6.984 56.7649 8.864V52.386C56.7649 54.266 56.9529 55.676 57.3289 56.616C57.7676 57.4933 58.5509 58.0887 59.6789 58.402C60.8069 58.7153 62.5616 58.872 64.9429 58.872ZM130.347 58.872C130.598 58.872 130.723 59.06 130.723 59.436C130.723 59.812 130.598 60 130.347 60C129.156 60 127.308 59.9373 124.801 59.812C122.294 59.6867 120.477 59.624 119.349 59.624C117.97 59.624 116.216 59.6867 114.085 59.812C112.08 59.9373 110.544 60 109.479 60C109.228 60 109.103 59.812 109.103 59.436C109.103 59.06 109.228 58.872 109.479 58.872C111.798 58.872 113.49 58.6527 114.555 58.214C115.62 57.7753 116.153 57.0233 116.153 55.958C116.153 55.0807 115.746 53.7333 114.931 51.916L106.565 34.15H84.1931L78.2711 48.062C77.3938 50.1927 76.9551 51.916 76.9551 53.232C76.9551 55.1747 77.7071 56.616 79.2111 57.556C80.7778 58.4333 83.0964 58.872 86.1671 58.872C86.4804 58.872 86.6371 59.06 86.6371 59.436C86.6371 59.812 86.4804 60 86.1671 60C85.0391 60 83.4098 59.9373 81.2791 59.812C78.8978 59.6867 76.8298 59.624 75.0751 59.624C73.4458 59.624 71.5658 59.6867 69.4351 59.812C67.5551 59.9373 65.9884 60 64.7351 60C64.4218 60 64.2651 59.812 64.2651 59.436C64.2651 59.06 64.4218 58.872 64.7351 58.872C66.4898 58.872 67.9624 58.5587 69.1531 57.932C70.4064 57.2427 71.5658 56.0833 72.6311 54.454C73.7591 52.762 74.9811 50.3493 76.2971 47.216L96.1311 0.404C96.2564 0.215998 96.4758 0.121998 96.7891 0.121998C97.1024 0.121998 97.2904 0.215998 97.3531 0.404L119.537 47.122C121.668 51.7593 123.485 54.8927 124.989 56.522C126.493 58.0887 128.279 58.872 130.347 58.872ZM84.9451 32.27H105.719L94.7211 9.05199L84.9451 32.27ZM190.051 57.838C190.552 57.838 190.834 57.9007 190.897 58.026C191.022 58.0887 191.085 58.3707 191.085 58.872C191.085 59.1853 191.022 60.0313 190.897 61.41C190.458 64.9193 190.239 69.2747 190.239 74.476C190.239 74.7893 190.051 74.946 189.675 74.946C189.299 74.946 189.111 74.7893 189.111 74.476C189.111 69.4627 187.889 65.7967 185.445 63.478C183.001 61.1593 178.99 60 173.413 60H144.743C135.907 60 131.489 64.8253 131.489 74.476C131.489 74.7893 131.301 74.946 130.925 74.946C130.612 74.946 130.455 74.7893 130.455 74.476C130.455 69.4 130.204 65.358 129.703 62.35C129.515 61.1593 129.421 60 129.421 58.872C129.421 58.3707 129.484 58.0887 129.609 58.026C129.734 57.9007 130.016 57.838 130.455 57.838H136.377L159.877 0.404C159.94 0.215998 160.128 0.121998 160.441 0.121998C160.817 0.121998 161.036 0.215998 161.099 0.404L184.975 57.838H190.051ZM138.821 57.838H178.395L158.467 9.71L138.821 57.838ZM258.667 58.872C258.855 58.872 258.949 59.06 258.949 59.436C258.949 59.812 258.855 60 258.667 60C256.725 60 255.158 59.9687 253.967 59.906L247.481 59.812L240.619 59.906C239.491 59.9687 238.019 60 236.201 60C236.013 60 235.919 59.812 235.919 59.436C235.919 59.06 236.013 58.872 236.201 58.872C238.645 58.872 240.431 58.7153 241.559 58.402C242.687 58.0887 243.439 57.4933 243.815 56.616C244.191 55.7387 244.379 54.3287 244.379 52.386V9.05199L203.959 60.846C203.771 61.0967 203.395 61.222 202.831 61.222C201.891 61.222 201.421 61.0027 201.421 60.564V8.864C201.421 6.984 201.202 5.60533 200.763 4.728C200.387 3.85066 199.604 3.25533 198.413 2.942C197.285 2.566 195.531 2.378 193.149 2.378C193.024 2.378 192.961 2.19 192.961 1.814C192.961 1.438 193.024 1.25 193.149 1.25L198.037 1.344C200.669 1.46933 202.8 1.532 204.429 1.532C206.247 1.532 208.534 1.46933 211.291 1.344L215.709 1.25C215.897 1.25 215.991 1.438 215.991 1.814C215.991 2.19 215.897 2.378 215.709 2.378C213.265 2.378 211.479 2.566 210.351 2.942C209.223 3.25533 208.471 3.85066 208.095 4.728C207.719 5.60533 207.531 6.984 207.531 8.864V52.762L248.045 0.779995C248.233 0.591997 248.578 0.497998 249.079 0.497998C250.019 0.497998 250.489 0.717331 250.489 1.156V52.386C250.489 54.266 250.677 55.676 251.053 56.616C251.492 57.4933 252.275 58.0887 253.403 58.402C254.531 58.7153 256.286 58.872 258.667 58.872ZM318.034 58.872C318.159 58.872 318.222 59.06 318.222 59.436C318.222 59.812 318.159 60 318.034 60C316.404 60 315.12 59.9687 314.18 59.906L309.01 59.812L301.772 59.906C300.644 59.9687 299.108 60 297.166 60C297.04 60 296.978 59.812 296.978 59.436C296.978 59.06 297.04 58.872 297.166 58.872C298.858 58.872 300.08 58.7467 300.832 58.496C301.584 58.2453 301.96 57.838 301.96 57.274C301.96 56.71 301.678 56.0207 301.114 55.206L286.826 33.586L274.888 50.412C273.384 52.5427 272.632 54.266 272.632 55.582C272.632 57.7753 274.48 58.872 278.178 58.872C278.366 58.872 278.46 59.06 278.46 59.436C278.46 59.812 278.366 60 278.178 60C276.298 60 274.856 59.9687 273.854 59.906L267.368 59.812L263.42 59.906C262.73 59.9687 261.571 60 259.942 60C259.754 60 259.66 59.812 259.66 59.436C259.66 59.06 259.754 58.872 259.942 58.872C262.01 58.872 264.14 58.1513 266.334 56.71C268.527 55.2687 270.658 53.138 272.726 50.318L285.98 32.176L270.846 9.24C269.154 6.73333 267.493 4.97866 265.864 3.976C264.297 2.91066 262.448 2.378 260.318 2.378C260.192 2.378 260.13 2.19 260.13 1.814C260.13 1.438 260.192 1.25 260.318 1.25L263.89 1.344C265.519 1.46933 266.71 1.532 267.462 1.532C269.592 1.532 272.162 1.46933 275.17 1.344L280.058 1.25C280.246 1.25 280.34 1.438 280.34 1.814C280.34 2.19 280.246 2.378 280.058 2.378C278.428 2.378 277.206 2.50333 276.392 2.754C275.64 3.00466 275.264 3.44333 275.264 4.07C275.264 4.57133 275.546 5.26067 276.11 6.138L290.022 27.1L301.02 11.496C302.712 9.11466 303.558 7.172 303.558 5.668C303.558 3.47466 301.803 2.378 298.294 2.378C298.106 2.378 298.012 2.19 298.012 1.814C298.012 1.438 298.106 1.25 298.294 1.25L302.524 1.344C304.905 1.46933 307.067 1.532 309.01 1.532C310.138 1.532 311.454 1.46933 312.958 1.344L316.436 1.25C316.624 1.25 316.718 1.438 316.718 1.814C316.718 2.19 316.624 2.378 316.436 2.378C314.368 2.378 312.206 3.16133 309.95 4.728C307.694 6.29467 305.438 8.61333 303.182 11.684L290.868 28.51L306.566 52.198C308.195 54.642 309.856 56.3653 311.548 57.368C313.302 58.3707 315.464 58.872 318.034 58.872ZM381.61 58.872C381.861 58.872 381.986 59.06 381.986 59.436C381.986 59.812 381.861 60 381.61 60C380.419 60 378.571 59.9373 376.064 59.812C373.557 59.6867 371.74 59.624 370.612 59.624C369.233 59.624 367.479 59.6867 365.348 59.812C363.343 59.9373 361.807 60 360.742 60C360.491 60 360.366 59.812 360.366 59.436C360.366 59.06 360.491 58.872 360.742 58.872C363.061 58.872 364.753 58.6527 365.818 58.214C366.883 57.7753 367.416 57.0233 367.416 55.958C367.416 55.0807 367.009 53.7333 366.194 51.916L357.828 34.15H335.456L329.534 48.062C328.657 50.1927 328.218 51.916 328.218 53.232C328.218 55.1747 328.97 56.616 330.474 57.556C332.041 58.4333 334.359 58.872 337.43 58.872C337.743 58.872 337.9 59.06 337.9 59.436C337.9 59.812 337.743 60 337.43 60C336.302 60 334.673 59.9373 332.542 59.812C330.161 59.6867 328.093 59.624 326.338 59.624C324.709 59.624 322.829 59.6867 320.698 59.812C318.818 59.9373 317.251 60 315.998 60C315.685 60 315.528 59.812 315.528 59.436C315.528 59.06 315.685 58.872 315.998 58.872C317.753 58.872 319.225 58.5587 320.416 57.932C321.669 57.2427 322.829 56.0833 323.894 54.454C325.022 52.762 326.244 50.3493 327.56 47.216L347.394 0.404C347.519 0.215998 347.739 0.121998 348.052 0.121998C348.365 0.121998 348.553 0.215998 348.616 0.404L370.8 47.122C372.931 51.7593 374.748 54.8927 376.252 56.522C377.756 58.0887 379.542 58.872 381.61 58.872ZM336.208 32.27H356.982L345.984 9.05199L336.208 32.27ZM434.76 44.678C434.76 44.49 434.886 44.396 435.136 44.396C435.324 44.396 435.481 44.4273 435.606 44.49C435.794 44.5527 435.888 44.6467 435.888 44.772L434.572 55.394C434.447 56.146 434.29 56.6473 434.102 56.898C433.977 57.086 433.632 57.3053 433.068 57.556C427.428 59.9373 421.475 61.128 415.208 61.128C407.688 61.128 401.39 59.624 396.314 56.616C391.301 53.5453 387.604 49.66 385.222 44.96C382.841 40.26 381.65 35.3093 381.65 30.108C381.65 24.3427 383.248 19.1727 386.444 14.598C389.64 10.0233 393.87 6.48266 399.134 3.976C404.398 1.46933 410.038 0.215997 416.054 0.215997C419.062 0.215997 422.102 0.497997 425.172 1.062C428.243 1.626 430.687 2.44066 432.504 3.506C433.068 3.75667 433.413 4.03867 433.538 4.352C433.726 4.60267 433.852 5.07267 433.914 5.762L434.948 16.29C434.948 16.478 434.792 16.6033 434.478 16.666C434.165 16.666 433.977 16.572 433.914 16.384C432.536 11.5587 429.966 8.018 426.206 5.762C422.509 3.44333 417.903 2.284 412.388 2.284C407.626 2.284 403.458 3.34933 399.886 5.48C396.314 7.548 393.557 10.4933 391.614 14.316C389.672 18.1387 388.7 22.5567 388.7 27.57V29.45H405.15C409.474 29.45 412.514 28.8233 414.268 27.57C416.086 26.254 416.994 23.9667 416.994 20.708C416.994 20.52 417.182 20.426 417.558 20.426C417.934 20.426 418.122 20.52 418.122 20.708L418.028 30.202C418.028 32.1447 418.06 33.586 418.122 34.526L418.216 39.132C418.216 39.32 418.028 39.414 417.652 39.414C417.339 39.414 417.182 39.32 417.182 39.132C417.057 36.5627 416.023 34.6513 414.08 33.398C412.2 32.082 409.13 31.424 404.868 31.424H388.888C389.39 36.688 390.894 41.5133 393.4 45.9C395.907 50.224 399.072 53.6393 402.894 56.146C406.78 58.59 410.947 59.812 415.396 59.812C419.908 59.812 423.825 58.59 427.146 56.146C430.468 53.6393 433.006 49.8167 434.76 44.678Z" fill="url(#paint0_linear_155_141)"/>
<defs>
<linearGradient id="paint0_linear_155_141" x1="455.113" y1="4.85209" x2="-17.1393" y2="37.5354" gradientUnits="userSpaceOnUse">
<stop stop-color="#7B5A35"/>
<stop offset="0.239832" stop-color="#7B5A35"/>
<stop offset="0.369925" stop-color="#F4E5B4"/>
<stop offset="0.536334" stop-color="#947650"/>
<stop offset="1" stop-color="#947650"/>
</linearGradient>
</defs>
</svg>
