<svg width="360" height="54" viewBox="0 0 360 54" fill="none" xmlns="http://www.w3.org/2000/svg">
<path d="M0 53.0899H6.62599V34.4326L14.8539 25.2556L34.2222 53.0899H41.7947L19.077 20.5534L37.5716 0H33.9309L6.62599 29.882V0H0V53.0899Z" fill="#1C356E"/>
<path d="M56.3306 0V53.0899H62.9566V0H56.3306Z" fill="#1C356E"/>
<path d="M89.0334 0H84.0821V53.0899H87.2859V9.78371H87.5771L110.076 54H111.387L134.396 10.0871H134.687V53.0899H141.313V0H136.289L112.698 45.5815H112.406L89.0334 0Z" fill="#1C356E"/>
<path d="M159.543 53.0899H177.819C181.072 53.0899 183.814 52.6601 186.047 51.8006C188.28 50.8905 190.076 49.7275 191.435 48.3118C192.795 46.8961 193.765 45.3034 194.348 43.5337C194.979 41.7135 195.294 39.8933 195.294 38.073C195.294 35.191 194.688 32.8905 193.474 31.1714C192.309 29.4523 190.901 28.1376 189.251 27.2275C187.601 26.3174 185.902 25.7107 184.154 25.4073C182.407 25.1039 180.999 24.927 179.931 24.8764V24.573C181.63 24.573 183.232 24.2444 184.737 23.5871C186.241 22.8792 187.552 21.9944 188.668 20.9326C189.833 19.8202 190.756 18.5562 191.435 17.1404C192.115 15.6742 192.455 14.132 192.455 12.514C192.455 11.0983 192.163 9.65731 191.581 8.19101C190.998 6.72472 190.1 5.38483 188.887 4.17135C187.722 2.95787 186.193 1.97191 184.3 1.21349C182.455 0.404495 180.271 0 177.746 0H159.543V53.0899ZM166.169 49.7528V26.5449H174.179C176.557 26.5449 178.62 26.8736 180.368 27.5309C182.115 28.1882 183.547 29.073 184.664 30.1854C185.829 31.2978 186.678 32.5871 187.212 34.0534C187.795 35.5197 188.086 37.0618 188.086 38.6798C188.086 40.4494 187.77 42.0169 187.139 43.382C186.557 44.7472 185.756 45.9101 184.737 46.8708C183.717 47.8315 182.504 48.5646 181.096 49.0702C179.737 49.5253 178.28 49.7528 176.727 49.7528H166.169ZM166.169 23.2079V3.33708H175.052C176.946 3.33708 178.547 3.61517 179.858 4.17135C181.217 4.72753 182.309 5.46068 183.135 6.37079C184.008 7.2809 184.639 8.31742 185.028 9.48034C185.416 10.6433 185.61 11.8062 185.61 12.9691C185.61 14.4354 185.319 15.8006 184.737 17.0646C184.203 18.3287 183.426 19.4157 182.407 20.3258C181.436 21.236 180.295 21.9438 178.984 22.4494C177.722 22.9551 176.363 23.2079 174.907 23.2079H166.169Z" fill="#1C356E"/>
<path d="M208.411 0V53.0899H241.322V48.9185H215.036V26.6966H237.609V23.2079H215.036V4.17135H241.322V0H208.411Z" fill="#1C356E"/>
<path d="M252.94 0V53.0899H259.566V29.6545H262.77C264.129 29.6545 265.246 29.7809 266.119 30.0337C267.042 30.2865 267.867 30.7163 268.595 31.323C269.323 31.9298 270.003 32.7135 270.634 33.6742C271.265 34.6348 272.017 35.823 272.891 37.2388L278.643 46.1124C279.371 47.2753 280.075 48.3371 280.755 49.2978C281.483 50.2584 282.26 51.0927 283.085 51.8006C283.91 52.4579 284.832 52.9888 285.852 53.3933C286.92 53.7978 288.182 54 289.638 54C290.706 54 291.58 53.9494 292.259 53.8483C292.939 53.7472 293.619 53.4944 294.298 53.0899V50.2837C294.055 50.3343 293.813 50.3848 293.57 50.4354C293.327 50.4354 293.085 50.4354 292.842 50.4354C291.822 50.4354 290.924 50.2837 290.148 49.9803C289.371 49.677 288.643 49.2472 287.963 48.691C287.284 48.0843 286.628 47.3764 285.997 46.5674C285.366 45.7079 284.711 44.7472 284.031 43.6854C281.993 40.6011 280.415 38.1489 279.299 36.3287C278.182 34.4579 277.284 33.0169 276.605 32.0056C275.973 30.9944 275.44 30.2612 275.003 29.8062C274.614 29.3511 274.129 28.9719 273.546 28.6685L272.818 28.2893V27.986C275.148 27.8343 277.138 27.3034 278.789 26.3933C280.488 25.4831 281.871 24.3455 282.939 22.9803C284.007 21.6152 284.784 20.1489 285.269 18.5815C285.755 16.9635 285.997 15.3961 285.997 13.8792C285.997 12.514 285.73 11.0225 285.196 9.4045C284.711 7.78652 283.837 6.29494 282.575 4.92978C281.362 3.51405 279.687 2.35112 277.551 1.44101C275.415 0.480337 272.721 0 269.469 0H252.94ZM259.566 3.33708H266.92C268.765 3.33708 270.415 3.61517 271.872 4.17135C273.376 4.72753 274.663 5.51124 275.731 6.52247C276.799 7.48315 277.6 8.64607 278.134 10.0112C278.716 11.3764 279.007 12.868 279.007 14.486C279.007 15.8511 278.74 17.2416 278.206 18.6573C277.721 20.0225 276.969 21.2865 275.949 22.4494C274.93 23.5618 273.668 24.4719 272.163 25.1798C270.707 25.8876 269.008 26.2416 267.066 26.2416H259.566V3.33708Z" fill="#1C356E"/>
<path d="M305.932 53.0899V0H312.558V48.9185H338.843V53.0899H305.932Z" fill="#1C356E"/>
<path d="M353.374 0V53.0899H360V0H353.374Z" fill="#1C356E"/>
</svg>
