<svg width="19" height="19" viewBox="0 0 19 19" fill="none" xmlns="http://www.w3.org/2000/svg">
<path d="M11.5049 9.72166C11.5049 10.1619 11.3743 10.5923 11.1297 10.9584C10.8851 11.3245 10.5374 11.6098 10.1307 11.7783C9.72391 11.9468 9.27632 11.9909 8.8445 11.905C8.41268 11.8191 8.01603 11.6071 7.70471 11.2957C7.39338 10.9844 7.18137 10.5878 7.09547 10.1559C7.00958 9.72413 7.05366 9.27654 7.22215 8.86977C7.39064 8.46301 7.67596 8.11534 8.04204 7.87074C8.40812 7.62613 8.83851 7.49557 9.27879 7.49557C9.86862 7.49741 10.4338 7.73253 10.8508 8.1496C11.2679 8.56668 11.503 9.13183 11.5049 9.72166ZM16.2353 6.66079V12.7825C16.2353 13.8157 15.8249 14.8066 15.0943 15.5372C14.3637 16.2677 13.3728 16.6782 12.3397 16.6782H6.21792C5.18473 16.6782 4.19385 16.2677 3.46328 15.5372C2.7327 14.8066 2.32227 13.8157 2.32227 12.7825V6.66079C2.32227 5.6276 2.7327 4.63672 3.46328 3.90615C4.19385 3.17557 5.18473 2.76514 6.21792 2.76514H12.3397C13.3728 2.76514 14.3637 3.17557 15.0943 3.90615C15.8249 4.63672 16.2353 5.6276 16.2353 6.66079ZM12.6179 9.72166C12.6179 9.06124 12.4221 8.41565 12.0552 7.86654C11.6883 7.31742 11.1668 6.88944 10.5566 6.6367C9.94647 6.38397 9.27508 6.31785 8.62736 6.44669C7.97963 6.57553 7.38465 6.89355 6.91767 7.36054C6.45068 7.82752 6.13266 8.4225 6.00382 9.07023C5.87498 9.71795 5.9411 10.3893 6.19383 10.9995C6.44656 11.6096 6.87455 12.1311 7.42367 12.498C7.97278 12.865 8.61837 13.0608 9.27879 13.0608C10.1644 13.0608 11.0137 12.709 11.6399 12.0828C12.2661 11.4566 12.6179 10.6073 12.6179 9.72166ZM13.731 6.10427C13.731 5.93916 13.682 5.77777 13.5903 5.64049C13.4985 5.50321 13.3682 5.39621 13.2156 5.33303C13.0631 5.26985 12.8953 5.25331 12.7333 5.28552C12.5714 5.31773 12.4226 5.39724 12.3059 5.51399C12.1892 5.63073 12.1096 5.77948 12.0774 5.94141C12.0452 6.10334 12.0618 6.27119 12.1249 6.42372C12.1881 6.57626 12.2951 6.70664 12.4324 6.79836C12.5697 6.89009 12.7311 6.93905 12.8962 6.93905C13.1176 6.93905 13.3299 6.8511 13.4865 6.69455C13.643 6.538 13.731 6.32567 13.731 6.10427Z" fill="white"/>
</svg>
