<svg width="313" height="93" viewBox="0 0 313 93" fill="none" xmlns="http://www.w3.org/2000/svg">
<path d="M160.954 34.712C161.253 34.712 161.421 34.7493 161.458 34.824C161.533 34.8613 161.57 35.0293 161.57 35.328C161.57 35.5147 161.533 36.0187 161.458 36.84C161.197 38.9307 161.066 41.5253 161.066 44.624C161.066 44.8107 160.954 44.904 160.73 44.904C160.506 44.904 160.394 44.8107 160.394 44.624C160.394 41.6373 159.666 39.4533 158.21 38.072C156.754 36.6907 154.365 36 151.042 36H133.962C128.698 36 126.066 38.8747 126.066 44.624C126.066 44.8107 125.954 44.904 125.73 44.904C125.543 44.904 125.45 44.8107 125.45 44.624C125.45 41.6 125.301 39.192 125.002 37.4C124.89 36.6907 124.834 36 124.834 35.328C124.834 35.0293 124.871 34.8613 124.946 34.824C125.021 34.7493 125.189 34.712 125.45 34.712H128.978L142.978 0.496C143.015 0.383999 143.127 0.327999 143.314 0.327999C143.538 0.327999 143.669 0.383999 143.706 0.496L157.93 34.712H160.954ZM130.434 34.712H154.01L142.138 6.04L130.434 34.712ZM187.44 27.656C187.44 27.5813 187.515 27.544 187.664 27.544C187.776 27.544 187.869 27.5627 187.944 27.6C188.056 27.6373 188.112 27.6933 188.112 27.768C187.776 30.12 187.608 32.584 187.608 35.16C187.608 35.4587 187.533 35.6827 187.384 35.832C187.272 35.944 187.048 36 186.712 36H163.248C163.173 36 163.136 35.888 163.136 35.664C163.136 35.44 163.173 35.328 163.248 35.328C164.667 35.328 165.693 35.2347 166.328 35.048C167 34.8613 167.448 34.5067 167.672 33.984C167.933 33.424 168.064 32.584 168.064 31.464V5.536C168.064 4.416 167.933 3.59467 167.672 3.072C167.448 2.54933 167 2.19466 166.328 2.008C165.693 1.784 164.667 1.672 163.248 1.672C163.173 1.672 163.136 1.56 163.136 1.336C163.136 1.112 163.173 1 163.248 1H185.76C186.096 1 186.264 1.168 186.264 1.504L186.376 8.392C186.376 8.504 186.283 8.57867 186.096 8.616C185.909 8.616 185.797 8.56 185.76 8.448C185.648 6.46933 185.051 4.93867 183.968 3.856C182.885 2.736 181.448 2.176 179.656 2.176H176.24C174.933 2.176 173.963 2.288 173.328 2.512C172.731 2.69866 172.301 3.05333 172.04 3.576C171.816 4.06133 171.704 4.808 171.704 5.816V17.184H178.536C180.328 17.184 181.597 16.8853 182.344 16.288C183.128 15.6907 183.52 14.6827 183.52 13.264C183.52 13.1893 183.632 13.152 183.856 13.152C184.08 13.152 184.192 13.1893 184.192 13.264L184.136 17.8C184.136 18.8827 184.155 19.704 184.192 20.264L184.248 22.952C184.248 23.0267 184.136 23.064 183.912 23.064C183.688 23.064 183.576 23.0267 183.576 22.952C183.576 21.3093 183.165 20.1333 182.344 19.424C181.56 18.7147 180.235 18.36 178.368 18.36H171.704V31.24C171.704 32.2853 171.816 33.0507 172.04 33.536C172.264 34.0213 172.675 34.3573 173.272 34.544C173.869 34.7307 174.803 34.824 176.072 34.824H180.552C182.344 34.824 183.837 34.1893 185.032 32.92C186.227 31.6507 187.029 29.896 187.44 27.656ZM17.8946 92.672C14.4226 92.672 11.3239 91.8693 8.59859 90.264C5.91059 88.6213 3.81992 86.4187 2.32659 83.656C0.87059 80.856 0.14259 77.8133 0.14259 74.528C0.14259 70.6827 1.11326 67.3973 3.05459 64.672C4.99592 61.9093 7.47859 59.8373 10.5026 58.456C13.5639 57.0747 16.6813 56.384 19.8546 56.384C23.4013 56.384 26.5186 57.224 29.2066 58.904C31.8946 60.5467 33.9479 62.7307 35.3666 65.456C36.8226 68.1813 37.5506 71.0747 37.5506 74.136C37.5506 77.5333 36.6546 80.6507 34.8626 83.488C33.0706 86.3253 30.6626 88.5653 27.6386 90.208C24.6519 91.8507 21.4039 92.672 17.8946 92.672ZM19.8546 91.496C22.3933 91.496 24.6706 90.88 26.6866 89.648C28.7399 88.416 30.3453 86.6053 31.5026 84.216C32.6973 81.8267 33.2946 78.9893 33.2946 75.704C33.2946 72.1947 32.6413 69.0773 31.3346 66.352C30.0279 63.6267 28.1799 61.4987 25.7906 59.968C23.4386 58.4373 20.6759 57.672 17.5026 57.672C13.3959 57.672 10.1853 58.9973 7.87059 61.648C5.55592 64.2987 4.39859 67.9387 4.39859 72.568C4.39859 76.0773 5.05192 79.288 6.35859 82.2C7.66526 85.0747 9.49459 87.352 11.8466 89.032C14.1986 90.6747 16.8679 91.496 19.8546 91.496ZM91.0568 91.328C91.1315 91.328 91.1688 91.44 91.1688 91.664C91.1688 91.888 91.1315 92 91.0568 92H83.9448C83.4968 92 83.1048 91.8693 82.7688 91.608C82.4328 91.3093 81.8542 90.5813 81.0328 89.424C80.2488 88.2293 78.7555 85.952 76.5528 82.592C74.8355 79.9413 73.5848 78.112 72.8008 77.104C72.0168 76.0587 71.1955 75.3493 70.3368 74.976C69.5155 74.5653 68.3582 74.36 66.8648 74.36L65.6328 74.416V87.464C65.6328 88.6213 65.7448 89.4613 65.9688 89.984C66.1928 90.5067 66.6222 90.8613 67.2568 91.048C67.9288 91.2347 68.9928 91.328 70.4488 91.328C70.5608 91.328 70.6168 91.44 70.6168 91.664C70.6168 91.888 70.5608 92 70.4488 92C69.2915 92 68.3768 91.9813 67.7048 91.944L63.7288 91.888L59.9208 91.944C59.2488 91.9813 58.3155 92 57.1208 92C57.0462 92 57.0088 91.888 57.0088 91.664C57.0088 91.44 57.0462 91.328 57.1208 91.328C58.5768 91.328 59.6408 91.2347 60.3128 91.048C60.9848 90.8613 61.4328 90.5067 61.6568 89.984C61.9182 89.424 62.0488 88.584 62.0488 87.464V74.472C61.3768 74.3973 60.9102 74.36 60.6488 74.36C59.1928 74.36 58.0355 74.5653 57.1768 74.976C56.3555 75.3493 55.5342 76.04 54.7128 77.048C53.9288 78.056 52.6782 79.8667 50.9608 82.48L49.8408 84.272C48.4595 86.4373 47.3395 88.1547 46.4808 89.424C45.6222 90.656 45.0435 91.4027 44.7448 91.664C44.4462 91.888 44.0728 92 43.6248 92H36.5688C36.4942 92 36.4568 91.888 36.4568 91.664C36.4568 91.44 36.4942 91.328 36.5688 91.328C37.9875 91.2907 39.2382 90.936 40.3208 90.264C41.4408 89.5547 42.5235 88.5653 43.5688 87.296C44.6142 85.9893 45.9955 84.048 47.7128 81.472C49.6915 78.448 51.0728 76.4693 51.8568 75.536C52.6782 74.5653 53.6115 73.9307 54.6568 73.632L48.1048 63.944C46.5368 61.6293 44.9875 60.0053 43.4568 59.072C41.9635 58.1387 40.1715 57.672 38.0808 57.672C38.0062 57.672 37.9688 57.56 37.9688 57.336C37.9688 57.112 38.0062 57 38.0808 57L40.1528 57.056C41.4968 57.1307 42.7848 57.168 44.0168 57.168C45.2488 57.168 46.6115 57.1307 48.1048 57.056L50.6808 57C50.7928 57 50.8488 57.112 50.8488 57.336C50.8488 57.56 50.7928 57.672 50.6808 57.672C49.6355 57.672 48.8702 57.784 48.3848 58.008C47.9368 58.1947 47.7128 58.5307 47.7128 59.016C47.7128 59.464 47.8995 60.0613 48.2728 60.808C48.6835 61.5547 49.3182 62.6373 50.1768 64.056L55.8328 73.464C56.2062 73.3893 56.8595 73.352 57.7928 73.352L60.8728 73.408C61.0968 73.4453 61.4888 73.464 62.0488 73.464V61.536C62.0488 60.4533 61.8808 59.6507 61.5448 59.128C61.2462 58.568 60.7235 58.1947 59.9768 58.008C59.2302 57.784 58.1288 57.672 56.6728 57.672C56.5982 57.672 56.5608 57.56 56.5608 57.336C56.5608 57.112 56.5982 57 56.6728 57L59.6968 57.056C61.4142 57.1307 62.7582 57.168 63.7288 57.168C64.8115 57.168 66.2488 57.1307 68.0408 57.056L71.0088 57C71.0835 57 71.1208 57.112 71.1208 57.336C71.1208 57.56 71.0835 57.672 71.0088 57.672C69.5902 57.672 68.4888 57.784 67.7048 58.008C66.9582 58.232 66.4168 58.624 66.0808 59.184C65.7822 59.744 65.6328 60.5653 65.6328 61.648V73.464C67.9475 73.3893 69.3288 73.352 69.7768 73.352C70.7102 73.352 71.3635 73.3707 71.7368 73.408L77.3928 64.112C78.2515 62.7307 78.8675 61.648 79.2408 60.864C79.6515 60.08 79.8568 59.464 79.8568 59.016C79.8568 58.5307 79.6328 58.1947 79.1848 58.008C78.7368 57.784 77.9902 57.672 76.9448 57.672C76.8328 57.672 76.7768 57.56 76.7768 57.336C76.7768 57.112 76.8328 57 76.9448 57L79.5208 57.056C81.0142 57.1307 82.3768 57.168 83.6088 57.168C84.8408 57.168 86.1288 57.1307 87.4728 57.056L89.5448 57C89.6195 57 89.6568 57.112 89.6568 57.336C89.6568 57.56 89.6195 57.672 89.5448 57.672C87.4542 57.672 85.6435 58.1387 84.1128 59.072C82.6195 60.0053 81.0888 61.6293 79.5208 63.944L72.9128 73.632C73.9208 73.8933 74.7982 74.4533 75.5448 75.312C76.2915 76.1707 77.5235 77.888 79.2408 80.464L79.9128 81.472C81.6302 84.048 83.0115 85.9893 84.0568 87.296C85.1022 88.5653 86.1662 89.5547 87.2488 90.264C88.3688 90.936 89.6382 91.2907 91.0568 91.328ZM130.325 91.328C130.437 91.328 130.493 91.44 130.493 91.664C130.493 91.888 130.437 92 130.325 92C129.167 92 128.234 91.9813 127.525 91.944L123.661 91.888L119.573 91.944C118.901 91.9813 118.023 92 116.941 92C116.829 92 116.773 91.888 116.773 91.664C116.773 91.44 116.829 91.328 116.941 91.328C118.397 91.328 119.461 91.2347 120.133 91.048C120.805 90.8613 121.253 90.5067 121.477 89.984C121.701 89.4613 121.813 88.6213 121.813 87.464V61.648L97.7326 92.504C97.6206 92.6533 97.3966 92.728 97.0606 92.728C96.5006 92.728 96.2206 92.5973 96.2206 92.336V61.536C96.2206 60.416 96.09 59.5947 95.8286 59.072C95.6046 58.5493 95.138 58.1947 94.4286 58.008C93.7566 57.784 92.7113 57.672 91.2926 57.672C91.218 57.672 91.1806 57.56 91.1806 57.336C91.1806 57.112 91.218 57 91.2926 57L94.2046 57.056C95.7726 57.1307 97.042 57.168 98.0126 57.168C99.0953 57.168 100.458 57.1307 102.101 57.056L104.733 57C104.845 57 104.901 57.112 104.901 57.336C104.901 57.56 104.845 57.672 104.733 57.672C103.277 57.672 102.213 57.784 101.541 58.008C100.869 58.1947 100.421 58.5493 100.197 59.072C99.9726 59.5947 99.8606 60.416 99.8606 61.536V87.688L123.997 56.72C124.109 56.608 124.314 56.552 124.613 56.552C125.173 56.552 125.453 56.6827 125.453 56.944V87.464C125.453 88.584 125.565 89.424 125.789 89.984C126.05 90.5067 126.517 90.8613 127.189 91.048C127.861 91.2347 128.906 91.328 130.325 91.328ZM148.724 72.288C151.673 72.512 154.044 73.5013 155.836 75.256C157.665 76.9733 158.58 79.12 158.58 81.696C158.58 83.6747 158.094 85.4667 157.124 87.072C156.153 88.6773 154.809 89.9467 153.092 90.88C151.412 91.776 149.526 92.224 147.436 92.224C146.204 92.224 144.86 92.168 143.404 92.056C142.881 92.0187 142.265 91.9813 141.556 91.944C140.846 91.9067 140.062 91.888 139.204 91.888L135.396 91.944C134.724 91.9813 133.772 92 132.54 92C132.465 92 132.428 91.888 132.428 91.664C132.428 91.44 132.465 91.328 132.54 91.328C133.921 91.328 134.948 91.2347 135.62 91.048C136.292 90.824 136.758 90.4507 137.02 89.928C137.281 89.4053 137.412 88.584 137.412 87.464V61.536C137.412 60.416 137.281 59.5947 137.02 59.072C136.796 58.5493 136.348 58.1947 135.676 58.008C135.041 57.784 134.033 57.672 132.652 57.672C132.54 57.672 132.484 57.56 132.484 57.336C132.484 57.112 132.54 57 132.652 57L135.396 57.056C136.964 57.1307 138.233 57.168 139.204 57.168C139.876 57.168 140.492 57.1493 141.052 57.112C141.649 57.0747 142.153 57.0373 142.564 57C143.721 56.888 144.804 56.832 145.812 56.832C148.948 56.832 151.3 57.5227 152.868 58.904C154.436 60.248 155.22 62.0213 155.22 64.224C155.22 66.016 154.641 67.6213 153.484 69.04C152.326 70.4213 150.74 71.504 148.724 72.288ZM144.636 57.672C143.665 57.672 142.937 57.7653 142.452 57.952C141.966 58.1013 141.612 58.456 141.388 59.016C141.164 59.5387 141.052 60.416 141.052 61.648V72.288L143.572 72.344C146.297 72.344 148.313 71.6533 149.62 70.272C150.926 68.8533 151.58 66.9867 151.58 64.672C151.58 62.5813 151.001 60.9013 149.844 59.632C148.724 58.3253 146.988 57.672 144.636 57.672ZM146.596 91.216C149.321 91.216 151.337 90.5253 152.644 89.144C153.988 87.7253 154.66 85.7093 154.66 83.096C154.66 80.2587 153.82 77.9627 152.14 76.208C150.497 74.4533 148.22 73.5573 145.308 73.52C144.113 73.4827 142.694 73.52 141.052 73.632V87.464C141.052 88.4347 141.182 89.1813 141.444 89.704C141.742 90.2267 142.284 90.6187 143.068 90.88C143.889 91.104 145.065 91.216 146.596 91.216ZM198.262 91.328C198.412 91.328 198.486 91.44 198.486 91.664C198.486 91.888 198.412 92 198.262 92C197.553 92 196.452 91.9627 194.958 91.888C193.465 91.8133 192.382 91.776 191.71 91.776C190.889 91.776 189.844 91.8133 188.574 91.888C187.38 91.9627 186.465 92 185.83 92C185.681 92 185.606 91.888 185.606 91.664C185.606 91.44 185.681 91.328 185.83 91.328C187.212 91.328 188.22 91.1973 188.854 90.936C189.489 90.6747 189.806 90.2267 189.806 89.592C189.806 89.0693 189.564 88.2667 189.078 87.184L184.094 76.6H170.766L167.238 84.888C166.716 86.1573 166.454 87.184 166.454 87.968C166.454 89.1253 166.902 89.984 167.798 90.544C168.732 91.0667 170.113 91.328 171.942 91.328C172.129 91.328 172.222 91.44 172.222 91.664C172.222 91.888 172.129 92 171.942 92C171.27 92 170.3 91.9627 169.03 91.888C167.612 91.8133 166.38 91.776 165.334 91.776C164.364 91.776 163.244 91.8133 161.974 91.888C160.854 91.9627 159.921 92 159.174 92C158.988 92 158.894 91.888 158.894 91.664C158.894 91.44 158.988 91.328 159.174 91.328C160.22 91.328 161.097 91.1413 161.806 90.768C162.553 90.3573 163.244 89.6667 163.878 88.696C164.55 87.688 165.278 86.2507 166.062 84.384L177.878 56.496C177.953 56.384 178.084 56.328 178.27 56.328C178.457 56.328 178.569 56.384 178.606 56.496L191.822 84.328C193.092 87.0907 194.174 88.9573 195.07 89.928C195.966 90.8613 197.03 91.328 198.262 91.328ZM171.214 75.48H183.59L177.038 61.648L171.214 75.48ZM234.447 56.384C237.844 56.384 240.831 57.224 243.407 58.904C245.983 60.5467 247.961 62.7307 249.343 65.456C250.761 68.1813 251.471 71.0747 251.471 74.136C251.471 77.5333 250.593 80.6507 248.839 83.488C247.121 86.3253 244.807 88.5653 241.895 90.208C238.983 91.8507 235.828 92.672 232.431 92.672C229.071 92.672 226.084 91.8693 223.471 90.264C220.895 88.6213 218.897 86.4187 217.479 83.656C216.06 80.856 215.351 77.8133 215.351 74.528V74.36H206.671V87.464C206.671 88.584 206.783 89.424 207.007 89.984C207.268 90.5067 207.735 90.8613 208.407 91.048C209.079 91.2347 210.143 91.328 211.599 91.328C211.673 91.328 211.711 91.44 211.711 91.664C211.711 91.888 211.673 92 211.599 92C210.441 92 209.527 91.9813 208.855 91.944L204.823 91.888L200.959 91.944C200.287 91.9813 199.353 92 198.159 92C198.084 92 198.047 91.888 198.047 91.664C198.047 91.44 198.084 91.328 198.159 91.328C199.577 91.328 200.623 91.2347 201.295 91.048C202.004 90.8613 202.471 90.5067 202.695 89.984C202.956 89.424 203.087 88.584 203.087 87.464V61.536C203.087 60.416 202.956 59.5947 202.695 59.072C202.471 58.5493 202.023 58.1947 201.351 58.008C200.679 57.784 199.633 57.672 198.215 57.672C198.14 57.672 198.103 57.56 198.103 57.336C198.103 57.112 198.14 57 198.215 57L201.071 57.056C202.639 57.1307 203.889 57.168 204.823 57.168C205.905 57.168 207.268 57.1307 208.911 57.056L211.599 57C211.673 57 211.711 57.112 211.711 57.336C211.711 57.56 211.673 57.672 211.599 57.672C210.18 57.672 209.116 57.784 208.407 58.008C207.735 58.232 207.268 58.624 207.007 59.184C206.783 59.7067 206.671 60.528 206.671 61.648V73.184H215.407C215.631 69.6373 216.695 66.5947 218.599 64.056C220.54 61.5173 222.929 59.6133 225.767 58.344C228.604 57.0373 231.497 56.384 234.447 56.384ZM234.335 91.496C236.724 91.496 238.871 90.88 240.775 89.648C242.716 88.416 244.247 86.6053 245.367 84.216C246.487 81.8267 247.047 78.9893 247.047 75.704C247.047 72.1947 246.412 69.0773 245.143 66.352C243.911 63.6267 242.156 61.4987 239.879 59.968C237.601 58.4373 234.951 57.672 231.927 57.672C228.007 57.672 224.945 58.9973 222.743 61.648C220.577 64.2987 219.495 67.9387 219.495 72.568C219.495 76.0773 220.111 79.288 221.343 82.2C222.612 85.0747 224.367 87.352 226.607 89.032C228.884 90.6747 231.46 91.496 234.335 91.496ZM261.472 58.008C259.12 58.008 257.347 58.6053 256.152 59.8C254.995 60.9947 254.155 63.0293 253.632 65.904C253.632 65.9787 253.52 66.016 253.296 66.016C253.11 66.016 253.016 65.9787 253.016 65.904C253.166 64.56 253.334 62.8053 253.52 60.64C253.707 58.4747 253.8 56.8507 253.8 55.768C253.8 55.5813 253.894 55.488 254.08 55.488C254.304 55.488 254.416 55.5813 254.416 55.768C254.416 56.5893 255.424 57 257.44 57C260.614 57.112 264.366 57.168 268.696 57.168C270.899 57.168 273.232 57.1307 275.696 57.056L279.504 57C280.848 57 281.838 56.9067 282.472 56.72C283.144 56.5333 283.574 56.16 283.76 55.6C283.798 55.4507 283.91 55.376 284.096 55.376C284.283 55.376 284.376 55.4507 284.376 55.6C284.264 56.6827 284.152 58.3253 284.04 60.528C283.928 62.7307 283.872 64.5227 283.872 65.904C283.872 65.9787 283.76 66.016 283.536 66.016C283.312 66.016 283.2 65.9787 283.2 65.904C283.088 62.992 282.491 60.9573 281.408 59.8C280.326 58.6053 278.534 58.008 276.032 58.008C274.352 58.008 273.158 58.0827 272.448 58.232C271.739 58.3813 271.254 58.6987 270.992 59.184C270.731 59.6693 270.6 60.4907 270.6 61.648V87.464C270.6 88.6213 270.731 89.4613 270.992 89.984C271.254 90.5067 271.758 90.8613 272.504 91.048C273.251 91.2347 274.427 91.328 276.032 91.328C276.144 91.328 276.2 91.44 276.2 91.664C276.2 91.888 276.144 92 276.032 92C274.8 92 273.811 91.9813 273.064 91.944L268.696 91.888L264.496 91.944C263.75 91.9813 262.723 92 261.416 92C261.342 92 261.304 91.888 261.304 91.664C261.304 91.44 261.342 91.328 261.416 91.328C263.022 91.328 264.198 91.2347 264.944 91.048C265.691 90.8613 266.195 90.5067 266.456 89.984C266.755 89.424 266.904 88.584 266.904 87.464V61.536C266.904 60.3787 266.774 59.576 266.512 59.128C266.251 58.6427 265.766 58.344 265.056 58.232C264.347 58.0827 263.152 58.008 261.472 58.008ZM301.332 72.232C304.879 72.232 307.642 72.9413 309.62 74.36C311.599 75.7787 312.588 78.1307 312.588 81.416C312.588 83.544 312.103 85.4293 311.132 87.072C310.199 88.7147 308.874 89.984 307.156 90.88C305.439 91.776 303.479 92.224 301.276 92.224C300.306 92.224 299.148 92.168 297.804 92.056C297.282 92.0187 296.61 91.9813 295.788 91.944C295.004 91.9067 294.127 91.888 293.156 91.888L289.46 91.944C288.751 91.9813 287.78 92 286.548 92C286.474 92 286.436 91.888 286.436 91.664C286.436 91.44 286.474 91.328 286.548 91.328C287.967 91.2907 289.012 91.1787 289.684 90.992C290.356 90.8053 290.804 90.4507 291.028 89.928C291.29 89.4053 291.42 88.584 291.42 87.464V61.536C291.42 60.416 291.308 59.5947 291.084 59.072C290.86 58.5493 290.412 58.1947 289.74 58.008C289.106 57.8213 288.079 57.7093 286.66 57.672C286.548 57.672 286.492 57.56 286.492 57.336C286.492 57.112 286.548 57 286.66 57L289.348 57.056C290.842 57.1307 292.111 57.168 293.156 57.168C294.239 57.168 295.602 57.1307 297.244 57.056L299.988 57C300.063 57 300.1 57.112 300.1 57.336C300.1 57.56 300.063 57.672 299.988 57.672C298.532 57.7093 297.468 57.8213 296.796 58.008C296.124 58.1947 295.658 58.568 295.396 59.128C295.172 59.6507 295.06 60.4907 295.06 61.648V72.848C297.188 72.4373 299.279 72.232 301.332 72.232ZM300.156 91.216C303.18 91.216 305.346 90.544 306.652 89.2C307.996 87.8187 308.668 85.672 308.668 82.76C308.668 79.4 307.922 76.992 306.428 75.536C304.935 74.08 302.77 73.352 299.932 73.352C298.476 73.352 296.852 73.5387 295.06 73.912V87.464C295.06 88.7707 295.396 89.7227 296.068 90.32C296.74 90.9173 298.103 91.216 300.156 91.216Z" fill="#1C356E"/>
<path d="M160.954 34.712C161.253 34.712 161.421 34.7493 161.458 34.824C161.533 34.8613 161.57 35.0293 161.57 35.328C161.57 35.5147 161.533 36.0187 161.458 36.84C161.197 38.9307 161.066 41.5253 161.066 44.624C161.066 44.8107 160.954 44.904 160.73 44.904C160.506 44.904 160.394 44.8107 160.394 44.624C160.394 41.6373 159.666 39.4533 158.21 38.072C156.754 36.6907 154.365 36 151.042 36H133.962C128.698 36 126.066 38.8747 126.066 44.624C126.066 44.8107 125.954 44.904 125.73 44.904C125.543 44.904 125.45 44.8107 125.45 44.624C125.45 41.6 125.301 39.192 125.002 37.4C124.89 36.6907 124.834 36 124.834 35.328C124.834 35.0293 124.871 34.8613 124.946 34.824C125.021 34.7493 125.189 34.712 125.45 34.712H128.978L142.978 0.496C143.015 0.383999 143.127 0.327999 143.314 0.327999C143.538 0.327999 143.669 0.383999 143.706 0.496L157.93 34.712H160.954ZM130.434 34.712H154.01L142.138 6.04L130.434 34.712ZM187.44 27.656C187.44 27.5813 187.515 27.544 187.664 27.544C187.776 27.544 187.869 27.5627 187.944 27.6C188.056 27.6373 188.112 27.6933 188.112 27.768C187.776 30.12 187.608 32.584 187.608 35.16C187.608 35.4587 187.533 35.6827 187.384 35.832C187.272 35.944 187.048 36 186.712 36H163.248C163.173 36 163.136 35.888 163.136 35.664C163.136 35.44 163.173 35.328 163.248 35.328C164.667 35.328 165.693 35.2347 166.328 35.048C167 34.8613 167.448 34.5067 167.672 33.984C167.933 33.424 168.064 32.584 168.064 31.464V5.536C168.064 4.416 167.933 3.59467 167.672 3.072C167.448 2.54933 167 2.19466 166.328 2.008C165.693 1.784 164.667 1.672 163.248 1.672C163.173 1.672 163.136 1.56 163.136 1.336C163.136 1.112 163.173 1 163.248 1H185.76C186.096 1 186.264 1.168 186.264 1.504L186.376 8.392C186.376 8.504 186.283 8.57867 186.096 8.616C185.909 8.616 185.797 8.56 185.76 8.448C185.648 6.46933 185.051 4.93867 183.968 3.856C182.885 2.736 181.448 2.176 179.656 2.176H176.24C174.933 2.176 173.963 2.288 173.328 2.512C172.731 2.69866 172.301 3.05333 172.04 3.576C171.816 4.06133 171.704 4.808 171.704 5.816V17.184H178.536C180.328 17.184 181.597 16.8853 182.344 16.288C183.128 15.6907 183.52 14.6827 183.52 13.264C183.52 13.1893 183.632 13.152 183.856 13.152C184.08 13.152 184.192 13.1893 184.192 13.264L184.136 17.8C184.136 18.8827 184.155 19.704 184.192 20.264L184.248 22.952C184.248 23.0267 184.136 23.064 183.912 23.064C183.688 23.064 183.576 23.0267 183.576 22.952C183.576 21.3093 183.165 20.1333 182.344 19.424C181.56 18.7147 180.235 18.36 178.368 18.36H171.704V31.24C171.704 32.2853 171.816 33.0507 172.04 33.536C172.264 34.0213 172.675 34.3573 173.272 34.544C173.869 34.7307 174.803 34.824 176.072 34.824H180.552C182.344 34.824 183.837 34.1893 185.032 32.92C186.227 31.6507 187.029 29.896 187.44 27.656ZM17.8946 92.672C14.4226 92.672 11.3239 91.8693 8.59859 90.264C5.91059 88.6213 3.81992 86.4187 2.32659 83.656C0.87059 80.856 0.14259 77.8133 0.14259 74.528C0.14259 70.6827 1.11326 67.3973 3.05459 64.672C4.99592 61.9093 7.47859 59.8373 10.5026 58.456C13.5639 57.0747 16.6813 56.384 19.8546 56.384C23.4013 56.384 26.5186 57.224 29.2066 58.904C31.8946 60.5467 33.9479 62.7307 35.3666 65.456C36.8226 68.1813 37.5506 71.0747 37.5506 74.136C37.5506 77.5333 36.6546 80.6507 34.8626 83.488C33.0706 86.3253 30.6626 88.5653 27.6386 90.208C24.6519 91.8507 21.4039 92.672 17.8946 92.672ZM19.8546 91.496C22.3933 91.496 24.6706 90.88 26.6866 89.648C28.7399 88.416 30.3453 86.6053 31.5026 84.216C32.6973 81.8267 33.2946 78.9893 33.2946 75.704C33.2946 72.1947 32.6413 69.0773 31.3346 66.352C30.0279 63.6267 28.1799 61.4987 25.7906 59.968C23.4386 58.4373 20.6759 57.672 17.5026 57.672C13.3959 57.672 10.1853 58.9973 7.87059 61.648C5.55592 64.2987 4.39859 67.9387 4.39859 72.568C4.39859 76.0773 5.05192 79.288 6.35859 82.2C7.66526 85.0747 9.49459 87.352 11.8466 89.032C14.1986 90.6747 16.8679 91.496 19.8546 91.496ZM91.0568 91.328C91.1315 91.328 91.1688 91.44 91.1688 91.664C91.1688 91.888 91.1315 92 91.0568 92H83.9448C83.4968 92 83.1048 91.8693 82.7688 91.608C82.4328 91.3093 81.8542 90.5813 81.0328 89.424C80.2488 88.2293 78.7555 85.952 76.5528 82.592C74.8355 79.9413 73.5848 78.112 72.8008 77.104C72.0168 76.0587 71.1955 75.3493 70.3368 74.976C69.5155 74.5653 68.3582 74.36 66.8648 74.36L65.6328 74.416V87.464C65.6328 88.6213 65.7448 89.4613 65.9688 89.984C66.1928 90.5067 66.6222 90.8613 67.2568 91.048C67.9288 91.2347 68.9928 91.328 70.4488 91.328C70.5608 91.328 70.6168 91.44 70.6168 91.664C70.6168 91.888 70.5608 92 70.4488 92C69.2915 92 68.3768 91.9813 67.7048 91.944L63.7288 91.888L59.9208 91.944C59.2488 91.9813 58.3155 92 57.1208 92C57.0462 92 57.0088 91.888 57.0088 91.664C57.0088 91.44 57.0462 91.328 57.1208 91.328C58.5768 91.328 59.6408 91.2347 60.3128 91.048C60.9848 90.8613 61.4328 90.5067 61.6568 89.984C61.9182 89.424 62.0488 88.584 62.0488 87.464V74.472C61.3768 74.3973 60.9102 74.36 60.6488 74.36C59.1928 74.36 58.0355 74.5653 57.1768 74.976C56.3555 75.3493 55.5342 76.04 54.7128 77.048C53.9288 78.056 52.6782 79.8667 50.9608 82.48L49.8408 84.272C48.4595 86.4373 47.3395 88.1547 46.4808 89.424C45.6222 90.656 45.0435 91.4027 44.7448 91.664C44.4462 91.888 44.0728 92 43.6248 92H36.5688C36.4942 92 36.4568 91.888 36.4568 91.664C36.4568 91.44 36.4942 91.328 36.5688 91.328C37.9875 91.2907 39.2382 90.936 40.3208 90.264C41.4408 89.5547 42.5235 88.5653 43.5688 87.296C44.6142 85.9893 45.9955 84.048 47.7128 81.472C49.6915 78.448 51.0728 76.4693 51.8568 75.536C52.6782 74.5653 53.6115 73.9307 54.6568 73.632L48.1048 63.944C46.5368 61.6293 44.9875 60.0053 43.4568 59.072C41.9635 58.1387 40.1715 57.672 38.0808 57.672C38.0062 57.672 37.9688 57.56 37.9688 57.336C37.9688 57.112 38.0062 57 38.0808 57L40.1528 57.056C41.4968 57.1307 42.7848 57.168 44.0168 57.168C45.2488 57.168 46.6115 57.1307 48.1048 57.056L50.6808 57C50.7928 57 50.8488 57.112 50.8488 57.336C50.8488 57.56 50.7928 57.672 50.6808 57.672C49.6355 57.672 48.8702 57.784 48.3848 58.008C47.9368 58.1947 47.7128 58.5307 47.7128 59.016C47.7128 59.464 47.8995 60.0613 48.2728 60.808C48.6835 61.5547 49.3182 62.6373 50.1768 64.056L55.8328 73.464C56.2062 73.3893 56.8595 73.352 57.7928 73.352L60.8728 73.408C61.0968 73.4453 61.4888 73.464 62.0488 73.464V61.536C62.0488 60.4533 61.8808 59.6507 61.5448 59.128C61.2462 58.568 60.7235 58.1947 59.9768 58.008C59.2302 57.784 58.1288 57.672 56.6728 57.672C56.5982 57.672 56.5608 57.56 56.5608 57.336C56.5608 57.112 56.5982 57 56.6728 57L59.6968 57.056C61.4142 57.1307 62.7582 57.168 63.7288 57.168C64.8115 57.168 66.2488 57.1307 68.0408 57.056L71.0088 57C71.0835 57 71.1208 57.112 71.1208 57.336C71.1208 57.56 71.0835 57.672 71.0088 57.672C69.5902 57.672 68.4888 57.784 67.7048 58.008C66.9582 58.232 66.4168 58.624 66.0808 59.184C65.7822 59.744 65.6328 60.5653 65.6328 61.648V73.464C67.9475 73.3893 69.3288 73.352 69.7768 73.352C70.7102 73.352 71.3635 73.3707 71.7368 73.408L77.3928 64.112C78.2515 62.7307 78.8675 61.648 79.2408 60.864C79.6515 60.08 79.8568 59.464 79.8568 59.016C79.8568 58.5307 79.6328 58.1947 79.1848 58.008C78.7368 57.784 77.9902 57.672 76.9448 57.672C76.8328 57.672 76.7768 57.56 76.7768 57.336C76.7768 57.112 76.8328 57 76.9448 57L79.5208 57.056C81.0142 57.1307 82.3768 57.168 83.6088 57.168C84.8408 57.168 86.1288 57.1307 87.4728 57.056L89.5448 57C89.6195 57 89.6568 57.112 89.6568 57.336C89.6568 57.56 89.6195 57.672 89.5448 57.672C87.4542 57.672 85.6435 58.1387 84.1128 59.072C82.6195 60.0053 81.0888 61.6293 79.5208 63.944L72.9128 73.632C73.9208 73.8933 74.7982 74.4533 75.5448 75.312C76.2915 76.1707 77.5235 77.888 79.2408 80.464L79.9128 81.472C81.6302 84.048 83.0115 85.9893 84.0568 87.296C85.1022 88.5653 86.1662 89.5547 87.2488 90.264C88.3688 90.936 89.6382 91.2907 91.0568 91.328ZM130.325 91.328C130.437 91.328 130.493 91.44 130.493 91.664C130.493 91.888 130.437 92 130.325 92C129.167 92 128.234 91.9813 127.525 91.944L123.661 91.888L119.573 91.944C118.901 91.9813 118.023 92 116.941 92C116.829 92 116.773 91.888 116.773 91.664C116.773 91.44 116.829 91.328 116.941 91.328C118.397 91.328 119.461 91.2347 120.133 91.048C120.805 90.8613 121.253 90.5067 121.477 89.984C121.701 89.4613 121.813 88.6213 121.813 87.464V61.648L97.7326 92.504C97.6206 92.6533 97.3966 92.728 97.0606 92.728C96.5006 92.728 96.2206 92.5973 96.2206 92.336V61.536C96.2206 60.416 96.09 59.5947 95.8286 59.072C95.6046 58.5493 95.138 58.1947 94.4286 58.008C93.7566 57.784 92.7113 57.672 91.2926 57.672C91.218 57.672 91.1806 57.56 91.1806 57.336C91.1806 57.112 91.218 57 91.2926 57L94.2046 57.056C95.7726 57.1307 97.042 57.168 98.0126 57.168C99.0953 57.168 100.458 57.1307 102.101 57.056L104.733 57C104.845 57 104.901 57.112 104.901 57.336C104.901 57.56 104.845 57.672 104.733 57.672C103.277 57.672 102.213 57.784 101.541 58.008C100.869 58.1947 100.421 58.5493 100.197 59.072C99.9726 59.5947 99.8606 60.416 99.8606 61.536V87.688L123.997 56.72C124.109 56.608 124.314 56.552 124.613 56.552C125.173 56.552 125.453 56.6827 125.453 56.944V87.464C125.453 88.584 125.565 89.424 125.789 89.984C126.05 90.5067 126.517 90.8613 127.189 91.048C127.861 91.2347 128.906 91.328 130.325 91.328ZM148.724 72.288C151.673 72.512 154.044 73.5013 155.836 75.256C157.665 76.9733 158.58 79.12 158.58 81.696C158.58 83.6747 158.094 85.4667 157.124 87.072C156.153 88.6773 154.809 89.9467 153.092 90.88C151.412 91.776 149.526 92.224 147.436 92.224C146.204 92.224 144.86 92.168 143.404 92.056C142.881 92.0187 142.265 91.9813 141.556 91.944C140.846 91.9067 140.062 91.888 139.204 91.888L135.396 91.944C134.724 91.9813 133.772 92 132.54 92C132.465 92 132.428 91.888 132.428 91.664C132.428 91.44 132.465 91.328 132.54 91.328C133.921 91.328 134.948 91.2347 135.62 91.048C136.292 90.824 136.758 90.4507 137.02 89.928C137.281 89.4053 137.412 88.584 137.412 87.464V61.536C137.412 60.416 137.281 59.5947 137.02 59.072C136.796 58.5493 136.348 58.1947 135.676 58.008C135.041 57.784 134.033 57.672 132.652 57.672C132.54 57.672 132.484 57.56 132.484 57.336C132.484 57.112 132.54 57 132.652 57L135.396 57.056C136.964 57.1307 138.233 57.168 139.204 57.168C139.876 57.168 140.492 57.1493 141.052 57.112C141.649 57.0747 142.153 57.0373 142.564 57C143.721 56.888 144.804 56.832 145.812 56.832C148.948 56.832 151.3 57.5227 152.868 58.904C154.436 60.248 155.22 62.0213 155.22 64.224C155.22 66.016 154.641 67.6213 153.484 69.04C152.326 70.4213 150.74 71.504 148.724 72.288ZM144.636 57.672C143.665 57.672 142.937 57.7653 142.452 57.952C141.966 58.1013 141.612 58.456 141.388 59.016C141.164 59.5387 141.052 60.416 141.052 61.648V72.288L143.572 72.344C146.297 72.344 148.313 71.6533 149.62 70.272C150.926 68.8533 151.58 66.9867 151.58 64.672C151.58 62.5813 151.001 60.9013 149.844 59.632C148.724 58.3253 146.988 57.672 144.636 57.672ZM146.596 91.216C149.321 91.216 151.337 90.5253 152.644 89.144C153.988 87.7253 154.66 85.7093 154.66 83.096C154.66 80.2587 153.82 77.9627 152.14 76.208C150.497 74.4533 148.22 73.5573 145.308 73.52C144.113 73.4827 142.694 73.52 141.052 73.632V87.464C141.052 88.4347 141.182 89.1813 141.444 89.704C141.742 90.2267 142.284 90.6187 143.068 90.88C143.889 91.104 145.065 91.216 146.596 91.216ZM198.262 91.328C198.412 91.328 198.486 91.44 198.486 91.664C198.486 91.888 198.412 92 198.262 92C197.553 92 196.452 91.9627 194.958 91.888C193.465 91.8133 192.382 91.776 191.71 91.776C190.889 91.776 189.844 91.8133 188.574 91.888C187.38 91.9627 186.465 92 185.83 92C185.681 92 185.606 91.888 185.606 91.664C185.606 91.44 185.681 91.328 185.83 91.328C187.212 91.328 188.22 91.1973 188.854 90.936C189.489 90.6747 189.806 90.2267 189.806 89.592C189.806 89.0693 189.564 88.2667 189.078 87.184L184.094 76.6H170.766L167.238 84.888C166.716 86.1573 166.454 87.184 166.454 87.968C166.454 89.1253 166.902 89.984 167.798 90.544C168.732 91.0667 170.113 91.328 171.942 91.328C172.129 91.328 172.222 91.44 172.222 91.664C172.222 91.888 172.129 92 171.942 92C171.27 92 170.3 91.9627 169.03 91.888C167.612 91.8133 166.38 91.776 165.334 91.776C164.364 91.776 163.244 91.8133 161.974 91.888C160.854 91.9627 159.921 92 159.174 92C158.988 92 158.894 91.888 158.894 91.664C158.894 91.44 158.988 91.328 159.174 91.328C160.22 91.328 161.097 91.1413 161.806 90.768C162.553 90.3573 163.244 89.6667 163.878 88.696C164.55 87.688 165.278 86.2507 166.062 84.384L177.878 56.496C177.953 56.384 178.084 56.328 178.27 56.328C178.457 56.328 178.569 56.384 178.606 56.496L191.822 84.328C193.092 87.0907 194.174 88.9573 195.07 89.928C195.966 90.8613 197.03 91.328 198.262 91.328ZM171.214 75.48H183.59L177.038 61.648L171.214 75.48ZM234.447 56.384C237.844 56.384 240.831 57.224 243.407 58.904C245.983 60.5467 247.961 62.7307 249.343 65.456C250.761 68.1813 251.471 71.0747 251.471 74.136C251.471 77.5333 250.593 80.6507 248.839 83.488C247.121 86.3253 244.807 88.5653 241.895 90.208C238.983 91.8507 235.828 92.672 232.431 92.672C229.071 92.672 226.084 91.8693 223.471 90.264C220.895 88.6213 218.897 86.4187 217.479 83.656C216.06 80.856 215.351 77.8133 215.351 74.528V74.36H206.671V87.464C206.671 88.584 206.783 89.424 207.007 89.984C207.268 90.5067 207.735 90.8613 208.407 91.048C209.079 91.2347 210.143 91.328 211.599 91.328C211.673 91.328 211.711 91.44 211.711 91.664C211.711 91.888 211.673 92 211.599 92C210.441 92 209.527 91.9813 208.855 91.944L204.823 91.888L200.959 91.944C200.287 91.9813 199.353 92 198.159 92C198.084 92 198.047 91.888 198.047 91.664C198.047 91.44 198.084 91.328 198.159 91.328C199.577 91.328 200.623 91.2347 201.295 91.048C202.004 90.8613 202.471 90.5067 202.695 89.984C202.956 89.424 203.087 88.584 203.087 87.464V61.536C203.087 60.416 202.956 59.5947 202.695 59.072C202.471 58.5493 202.023 58.1947 201.351 58.008C200.679 57.784 199.633 57.672 198.215 57.672C198.14 57.672 198.103 57.56 198.103 57.336C198.103 57.112 198.14 57 198.215 57L201.071 57.056C202.639 57.1307 203.889 57.168 204.823 57.168C205.905 57.168 207.268 57.1307 208.911 57.056L211.599 57C211.673 57 211.711 57.112 211.711 57.336C211.711 57.56 211.673 57.672 211.599 57.672C210.18 57.672 209.116 57.784 208.407 58.008C207.735 58.232 207.268 58.624 207.007 59.184C206.783 59.7067 206.671 60.528 206.671 61.648V73.184H215.407C215.631 69.6373 216.695 66.5947 218.599 64.056C220.54 61.5173 222.929 59.6133 225.767 58.344C228.604 57.0373 231.497 56.384 234.447 56.384ZM234.335 91.496C236.724 91.496 238.871 90.88 240.775 89.648C242.716 88.416 244.247 86.6053 245.367 84.216C246.487 81.8267 247.047 78.9893 247.047 75.704C247.047 72.1947 246.412 69.0773 245.143 66.352C243.911 63.6267 242.156 61.4987 239.879 59.968C237.601 58.4373 234.951 57.672 231.927 57.672C228.007 57.672 224.945 58.9973 222.743 61.648C220.577 64.2987 219.495 67.9387 219.495 72.568C219.495 76.0773 220.111 79.288 221.343 82.2C222.612 85.0747 224.367 87.352 226.607 89.032C228.884 90.6747 231.46 91.496 234.335 91.496ZM261.472 58.008C259.12 58.008 257.347 58.6053 256.152 59.8C254.995 60.9947 254.155 63.0293 253.632 65.904C253.632 65.9787 253.52 66.016 253.296 66.016C253.11 66.016 253.016 65.9787 253.016 65.904C253.166 64.56 253.334 62.8053 253.52 60.64C253.707 58.4747 253.8 56.8507 253.8 55.768C253.8 55.5813 253.894 55.488 254.08 55.488C254.304 55.488 254.416 55.5813 254.416 55.768C254.416 56.5893 255.424 57 257.44 57C260.614 57.112 264.366 57.168 268.696 57.168C270.899 57.168 273.232 57.1307 275.696 57.056L279.504 57C280.848 57 281.838 56.9067 282.472 56.72C283.144 56.5333 283.574 56.16 283.76 55.6C283.798 55.4507 283.91 55.376 284.096 55.376C284.283 55.376 284.376 55.4507 284.376 55.6C284.264 56.6827 284.152 58.3253 284.04 60.528C283.928 62.7307 283.872 64.5227 283.872 65.904C283.872 65.9787 283.76 66.016 283.536 66.016C283.312 66.016 283.2 65.9787 283.2 65.904C283.088 62.992 282.491 60.9573 281.408 59.8C280.326 58.6053 278.534 58.008 276.032 58.008C274.352 58.008 273.158 58.0827 272.448 58.232C271.739 58.3813 271.254 58.6987 270.992 59.184C270.731 59.6693 270.6 60.4907 270.6 61.648V87.464C270.6 88.6213 270.731 89.4613 270.992 89.984C271.254 90.5067 271.758 90.8613 272.504 91.048C273.251 91.2347 274.427 91.328 276.032 91.328C276.144 91.328 276.2 91.44 276.2 91.664C276.2 91.888 276.144 92 276.032 92C274.8 92 273.811 91.9813 273.064 91.944L268.696 91.888L264.496 91.944C263.75 91.9813 262.723 92 261.416 92C261.342 92 261.304 91.888 261.304 91.664C261.304 91.44 261.342 91.328 261.416 91.328C263.022 91.328 264.198 91.2347 264.944 91.048C265.691 90.8613 266.195 90.5067 266.456 89.984C266.755 89.424 266.904 88.584 266.904 87.464V61.536C266.904 60.3787 266.774 59.576 266.512 59.128C266.251 58.6427 265.766 58.344 265.056 58.232C264.347 58.0827 263.152 58.008 261.472 58.008ZM301.332 72.232C304.879 72.232 307.642 72.9413 309.62 74.36C311.599 75.7787 312.588 78.1307 312.588 81.416C312.588 83.544 312.103 85.4293 311.132 87.072C310.199 88.7147 308.874 89.984 307.156 90.88C305.439 91.776 303.479 92.224 301.276 92.224C300.306 92.224 299.148 92.168 297.804 92.056C297.282 92.0187 296.61 91.9813 295.788 91.944C295.004 91.9067 294.127 91.888 293.156 91.888L289.46 91.944C288.751 91.9813 287.78 92 286.548 92C286.474 92 286.436 91.888 286.436 91.664C286.436 91.44 286.474 91.328 286.548 91.328C287.967 91.2907 289.012 91.1787 289.684 90.992C290.356 90.8053 290.804 90.4507 291.028 89.928C291.29 89.4053 291.42 88.584 291.42 87.464V61.536C291.42 60.416 291.308 59.5947 291.084 59.072C290.86 58.5493 290.412 58.1947 289.74 58.008C289.106 57.8213 288.079 57.7093 286.66 57.672C286.548 57.672 286.492 57.56 286.492 57.336C286.492 57.112 286.548 57 286.66 57L289.348 57.056C290.842 57.1307 292.111 57.168 293.156 57.168C294.239 57.168 295.602 57.1307 297.244 57.056L299.988 57C300.063 57 300.1 57.112 300.1 57.336C300.1 57.56 300.063 57.672 299.988 57.672C298.532 57.7093 297.468 57.8213 296.796 58.008C296.124 58.1947 295.658 58.568 295.396 59.128C295.172 59.6507 295.06 60.4907 295.06 61.648V72.848C297.188 72.4373 299.279 72.232 301.332 72.232ZM300.156 91.216C303.18 91.216 305.346 90.544 306.652 89.2C307.996 87.8187 308.668 85.672 308.668 82.76C308.668 79.4 307.922 76.992 306.428 75.536C304.935 74.08 302.77 73.352 299.932 73.352C298.476 73.352 296.852 73.5387 295.06 73.912V87.464C295.06 88.7707 295.396 89.7227 296.068 90.32C296.74 90.9173 298.103 91.216 300.156 91.216Z" fill="url(#paint0_linear_220_344)"/>
<defs>
<linearGradient id="paint0_linear_220_344" x1="348.281" y1="16.0365" x2="-36.471" y2="34.1976" gradientUnits="userSpaceOnUse">
<stop stop-color="#7B5A35"/>
<stop offset="0.239832" stop-color="#A68F3C"/>
<stop offset="0.369925" stop-color="#F4E5B4"/>
<stop offset="0.536334" stop-color="#947650"/>
<stop offset="1" stop-color="#947650"/>
</linearGradient>
</defs>
</svg>
