<svg width="656" height="77" viewBox="0 0 656 77" fill="none" xmlns="http://www.w3.org/2000/svg">
<path d="M61.4563 59.838C61.9576 59.838 62.2396 59.9007 62.3023 60.026C62.4276 60.0887 62.4903 60.3707 62.4903 60.872C62.4903 61.1853 62.4276 62.0313 62.3023 63.41C61.8636 66.9193 61.6443 71.2747 61.6443 76.476C61.6443 76.7893 61.4563 76.946 61.0803 76.946C60.7043 76.946 60.5163 76.7893 60.5163 76.476C60.5163 71.4627 59.2943 67.7967 56.8503 65.478C54.4063 63.1593 50.3956 62 44.8183 62H16.1483C7.31227 62 2.89427 66.8253 2.89427 76.476C2.89427 76.7893 2.70627 76.946 2.33027 76.946C2.01694 76.946 1.86027 76.7893 1.86027 76.476C1.86027 71.4 1.6096 67.358 1.10827 64.35C0.920269 63.1593 0.826269 62 0.826269 60.872C0.826269 60.3707 0.888936 60.0887 1.01427 60.026C1.1396 59.9007 1.4216 59.838 1.86027 59.838H7.78227L31.2823 2.404C31.3449 2.216 31.5329 2.122 31.8463 2.122C32.2223 2.122 32.4416 2.216 32.5043 2.404L56.3803 59.838H61.4563ZM10.2263 59.838H49.8003L29.8723 11.71L10.2263 59.838ZM105.915 47.994C105.915 47.8687 106.04 47.806 106.291 47.806C106.479 47.806 106.635 47.8373 106.761 47.9C106.949 47.9627 107.043 48.0567 107.043 48.182C106.479 52.13 106.197 56.266 106.197 60.59C106.197 61.0913 106.071 61.4673 105.821 61.718C105.633 61.906 105.257 62 104.693 62H65.3066C65.1813 62 65.1186 61.812 65.1186 61.436C65.1186 61.06 65.1813 60.872 65.3066 60.872C67.6879 60.872 69.4113 60.7153 70.4766 60.402C71.6046 60.0887 72.3566 59.4933 72.7326 58.616C73.1713 57.676 73.3906 56.266 73.3906 54.386V10.864C73.3906 8.984 73.1713 7.60533 72.7326 6.728C72.3566 5.85066 71.6046 5.25533 70.4766 4.942C69.4113 4.566 67.6879 4.378 65.3066 4.378C65.1813 4.378 65.1186 4.19 65.1186 3.814C65.1186 3.438 65.1813 3.25 65.3066 3.25H103.095C103.659 3.25 103.941 3.532 103.941 4.09599L104.129 15.658C104.129 15.846 103.972 15.9713 103.659 16.034C103.345 16.034 103.157 15.94 103.095 15.752C102.907 12.4307 101.904 9.86133 100.087 8.044C98.2693 6.164 95.8566 5.224 92.8486 5.224H87.1146C84.9213 5.224 83.2919 5.412 82.2266 5.788C81.2239 6.10133 80.5033 6.69666 80.0646 7.57399C79.6886 8.38866 79.5006 9.642 79.5006 11.334V30.416H90.9686C93.9766 30.416 96.1073 29.9147 97.3606 28.912C98.6766 27.9093 99.3346 26.2173 99.3346 23.836C99.3346 23.7107 99.5226 23.648 99.8986 23.648C100.275 23.648 100.463 23.7107 100.463 23.836L100.369 31.45C100.369 33.2673 100.4 34.646 100.463 35.586L100.557 40.098C100.557 40.2233 100.369 40.286 99.9926 40.286C99.6166 40.286 99.4286 40.2233 99.4286 40.098C99.4286 37.3407 98.7393 35.3667 97.3606 34.176C96.0446 32.9853 93.8199 32.39 90.6866 32.39H79.5006V54.01C79.5006 55.7647 79.6886 57.0493 80.0646 57.864C80.4406 58.6787 81.1299 59.2427 82.1326 59.556C83.1353 59.8693 84.7019 60.026 86.8326 60.026H94.3526C97.3606 60.026 99.8673 58.9607 101.873 56.83C103.878 54.6993 105.225 51.754 105.915 47.994ZM160.668 63.128C154.84 63.128 149.639 61.7807 145.064 59.086C140.552 56.3287 137.043 52.6313 134.536 47.994C132.092 43.294 130.87 38.1867 130.87 32.672C130.87 26.2173 132.499 20.7027 135.758 16.128C139.017 11.4907 143.184 8.01266 148.26 5.694C153.399 3.37533 158.631 2.216 163.958 2.216C169.911 2.216 175.144 3.626 179.656 6.446C184.168 9.20333 187.615 12.8693 189.996 17.444C192.44 22.0187 193.662 26.8753 193.662 32.014C193.662 37.7167 192.158 42.9493 189.15 47.712C186.142 52.4747 182.1 56.2347 177.024 58.992C172.011 61.7493 166.559 63.128 160.668 63.128ZM163.958 61.154C168.219 61.154 172.042 60.12 175.426 58.052C178.873 55.984 181.567 52.9447 183.51 48.934C185.515 44.9233 186.518 40.1607 186.518 34.646C186.518 28.7553 185.421 23.5227 183.228 18.948C181.035 14.3733 177.933 10.8013 173.922 8.232C169.974 5.66266 165.337 4.378 160.01 4.378C153.117 4.378 147.727 6.60266 143.842 11.052C139.957 15.5013 138.014 21.6113 138.014 29.382C138.014 35.2727 139.111 40.662 141.304 45.55C143.497 50.3753 146.568 54.198 150.516 57.018C154.464 59.7753 158.945 61.154 163.958 61.154ZM283.476 60.872C283.602 60.872 283.664 61.06 283.664 61.436C283.664 61.812 283.602 62 283.476 62H271.538C270.786 62 270.128 61.7807 269.564 61.342C269 60.8407 268.029 59.6187 266.65 57.676C265.334 55.6707 262.828 51.848 259.13 46.208C256.248 41.7587 254.148 38.688 252.832 36.996C251.516 35.2413 250.138 34.0507 248.696 33.424C247.318 32.7347 245.375 32.39 242.868 32.39L240.8 32.484V54.386C240.8 56.3287 240.988 57.7387 241.364 58.616C241.74 59.4933 242.461 60.0887 243.526 60.402C244.654 60.7153 246.44 60.872 248.884 60.872C249.072 60.872 249.166 61.06 249.166 61.436C249.166 61.812 249.072 62 248.884 62C246.942 62 245.406 61.9687 244.278 61.906L237.604 61.812L231.212 61.906C230.084 61.9687 228.518 62 226.512 62C226.387 62 226.324 61.812 226.324 61.436C226.324 61.06 226.387 60.872 226.512 60.872C228.956 60.872 230.742 60.7153 231.87 60.402C232.998 60.0887 233.75 59.4933 234.126 58.616C234.565 57.676 234.784 56.266 234.784 54.386V32.578C233.656 32.4527 232.873 32.39 232.434 32.39C229.99 32.39 228.048 32.7347 226.606 33.424C225.228 34.0507 223.849 35.21 222.47 36.902C221.154 38.594 219.055 41.6333 216.172 46.02L214.292 49.028C211.974 52.6627 210.094 55.5453 208.652 57.676C207.211 59.744 206.24 60.9973 205.738 61.436C205.237 61.812 204.61 62 203.858 62H192.014C191.889 62 191.826 61.812 191.826 61.436C191.826 61.06 191.889 60.872 192.014 60.872C194.396 60.8093 196.495 60.214 198.312 59.086C200.192 57.8953 202.01 56.2347 203.764 54.104C205.519 51.9107 207.838 48.652 210.72 44.328C214.042 39.252 216.36 35.9307 217.676 34.364C219.055 32.7347 220.622 31.6693 222.376 31.168L211.378 14.906C208.746 11.0207 206.146 8.29467 203.576 6.728C201.07 5.16133 198.062 4.378 194.552 4.378C194.427 4.378 194.364 4.19 194.364 3.814C194.364 3.438 194.427 3.25 194.552 3.25L198.03 3.344C200.286 3.46933 202.448 3.532 204.516 3.532C206.584 3.532 208.872 3.46933 211.378 3.344L215.702 3.25C215.89 3.25 215.984 3.438 215.984 3.814C215.984 4.19 215.89 4.378 215.702 4.378C213.948 4.378 212.663 4.566 211.848 4.942C211.096 5.25533 210.72 5.81933 210.72 6.634C210.72 7.386 211.034 8.38866 211.66 9.642C212.35 10.8953 213.415 12.7127 214.856 15.094L224.35 30.886C224.977 30.7607 226.074 30.698 227.64 30.698L232.81 30.792C233.186 30.8547 233.844 30.886 234.784 30.886V10.864C234.784 9.04666 234.502 7.69933 233.938 6.822C233.437 5.882 232.56 5.25533 231.306 4.942C230.053 4.566 228.204 4.378 225.76 4.378C225.635 4.378 225.572 4.19 225.572 3.814C225.572 3.438 225.635 3.25 225.76 3.25L230.836 3.344C233.719 3.46933 235.975 3.532 237.604 3.532C239.422 3.532 241.834 3.46933 244.842 3.344L249.824 3.25C249.95 3.25 250.012 3.438 250.012 3.814C250.012 4.19 249.95 4.378 249.824 4.378C247.443 4.378 245.594 4.566 244.278 4.942C243.025 5.318 242.116 5.976 241.552 6.916C241.051 7.856 240.8 9.23466 240.8 11.052V30.886C244.686 30.7607 247.004 30.698 247.756 30.698C249.323 30.698 250.42 30.7293 251.046 30.792L260.54 15.188C261.982 12.8693 263.016 11.052 263.642 9.73599C264.332 8.42 264.676 7.386 264.676 6.634C264.676 5.81933 264.3 5.25533 263.548 4.942C262.796 4.566 261.543 4.378 259.788 4.378C259.6 4.378 259.506 4.19 259.506 3.814C259.506 3.438 259.6 3.25 259.788 3.25L264.112 3.344C266.619 3.46933 268.906 3.532 270.974 3.532C273.042 3.532 275.204 3.46933 277.46 3.344L280.938 3.25C281.064 3.25 281.126 3.438 281.126 3.814C281.126 4.19 281.064 4.378 280.938 4.378C277.429 4.378 274.39 5.16133 271.82 6.728C269.314 8.29467 266.744 11.0207 264.112 14.906L253.02 31.168C254.712 31.6067 256.185 32.5467 257.438 33.988C258.692 35.4293 260.76 38.312 263.642 42.636L264.77 44.328C267.653 48.652 269.972 51.9107 271.726 54.104C273.481 56.2347 275.267 57.8953 277.084 59.086C278.964 60.214 281.095 60.8093 283.476 60.872ZM349.39 60.872C349.578 60.872 349.672 61.06 349.672 61.436C349.672 61.812 349.578 62 349.39 62C347.447 62 345.881 61.9687 344.69 61.906L338.204 61.812L331.342 61.906C330.214 61.9687 328.741 62 326.924 62C326.736 62 326.642 61.812 326.642 61.436C326.642 61.06 326.736 60.872 326.924 60.872C329.368 60.872 331.154 60.7153 332.282 60.402C333.41 60.0887 334.162 59.4933 334.538 58.616C334.914 57.7387 335.102 56.3287 335.102 54.386V11.052L294.682 62.846C294.494 63.0967 294.118 63.222 293.554 63.222C292.614 63.222 292.144 63.0027 292.144 62.564V10.864C292.144 8.984 291.925 7.60533 291.486 6.728C291.11 5.85066 290.327 5.25533 289.136 4.942C288.008 4.566 286.253 4.378 283.872 4.378C283.747 4.378 283.684 4.19 283.684 3.814C283.684 3.438 283.747 3.25 283.872 3.25L288.76 3.344C291.392 3.46933 293.523 3.532 295.152 3.532C296.969 3.532 299.257 3.46933 302.014 3.344L306.432 3.25C306.62 3.25 306.714 3.438 306.714 3.814C306.714 4.19 306.62 4.378 306.432 4.378C303.988 4.378 302.202 4.566 301.074 4.942C299.946 5.25533 299.194 5.85066 298.818 6.728C298.442 7.60533 298.254 8.984 298.254 10.864V54.762L338.768 2.77999C338.956 2.592 339.301 2.498 339.802 2.498C340.742 2.498 341.212 2.71733 341.212 3.156V54.386C341.212 56.266 341.4 57.676 341.776 58.616C342.215 59.4933 342.998 60.0887 344.126 60.402C345.254 60.7153 347.009 60.872 349.39 60.872ZM380.274 28.912C385.225 29.288 389.204 30.9487 392.212 33.894C395.283 36.7767 396.818 40.38 396.818 44.704C396.818 48.0253 396.003 51.0333 394.374 53.728C392.745 56.4227 390.489 58.5533 387.606 60.12C384.786 61.624 381.621 62.376 378.112 62.376C376.044 62.376 373.788 62.282 371.344 62.094C370.467 62.0313 369.433 61.9687 368.242 61.906C367.051 61.8433 365.735 61.812 364.294 61.812L357.902 61.906C356.774 61.9687 355.176 62 353.108 62C352.983 62 352.92 61.812 352.92 61.436C352.92 61.06 352.983 60.872 353.108 60.872C355.427 60.872 357.15 60.7153 358.278 60.402C359.406 60.026 360.189 59.3993 360.628 58.522C361.067 57.6447 361.286 56.266 361.286 54.386V10.864C361.286 8.984 361.067 7.60533 360.628 6.728C360.252 5.85066 359.5 5.25533 358.372 4.942C357.307 4.566 355.615 4.378 353.296 4.378C353.108 4.378 353.014 4.19 353.014 3.814C353.014 3.438 353.108 3.25 353.296 3.25L357.902 3.344C360.534 3.46933 362.665 3.532 364.294 3.532C365.422 3.532 366.456 3.50066 367.396 3.438C368.399 3.37533 369.245 3.31267 369.934 3.25C371.877 3.062 373.694 2.968 375.386 2.968C380.65 2.968 384.598 4.12733 387.23 6.446C389.862 8.702 391.178 11.6787 391.178 15.376C391.178 18.384 390.207 21.0787 388.264 23.46C386.321 25.7787 383.658 27.596 380.274 28.912ZM373.412 4.378C371.783 4.378 370.561 4.53466 369.746 4.848C368.931 5.09866 368.336 5.694 367.96 6.634C367.584 7.51133 367.396 8.984 367.396 11.052V28.912L371.626 29.006C376.201 29.006 379.585 27.8467 381.778 25.528C383.971 23.1467 385.068 20.0133 385.068 16.128C385.068 12.6187 384.097 9.79866 382.154 7.668C380.274 5.47466 377.36 4.378 373.412 4.378ZM376.702 60.684C381.277 60.684 384.661 59.5247 386.854 57.206C389.11 54.8247 390.238 51.4407 390.238 47.054C390.238 42.2913 388.828 38.4373 386.008 35.492C383.251 32.5467 379.428 31.0427 374.54 30.98C372.535 30.9173 370.153 30.98 367.396 31.168V54.386C367.396 56.0153 367.615 57.2687 368.054 58.146C368.555 59.0233 369.464 59.6813 370.78 60.12C372.159 60.496 374.133 60.684 376.702 60.684ZM463.428 60.872C463.679 60.872 463.804 61.06 463.804 61.436C463.804 61.812 463.679 62 463.428 62C462.238 62 460.389 61.9373 457.882 61.812C455.376 61.6867 453.558 61.624 452.43 61.624C451.052 61.624 449.297 61.6867 447.166 61.812C445.161 61.9373 443.626 62 442.56 62C442.31 62 442.184 61.812 442.184 61.436C442.184 61.06 442.31 60.872 442.56 60.872C444.879 60.872 446.571 60.6527 447.636 60.214C448.702 59.7753 449.234 59.0233 449.234 57.958C449.234 57.0807 448.827 55.7333 448.012 53.916L439.646 36.15H417.274L411.352 50.062C410.475 52.1927 410.036 53.916 410.036 55.232C410.036 57.1747 410.788 58.616 412.292 59.556C413.859 60.4333 416.178 60.872 419.248 60.872C419.562 60.872 419.718 61.06 419.718 61.436C419.718 61.812 419.562 62 419.248 62C418.12 62 416.491 61.9373 414.36 61.812C411.979 61.6867 409.911 61.624 408.156 61.624C406.527 61.624 404.647 61.6867 402.516 61.812C400.636 61.9373 399.07 62 397.816 62C397.503 62 397.346 61.812 397.346 61.436C397.346 61.06 397.503 60.872 397.816 60.872C399.571 60.872 401.044 60.5587 402.234 59.932C403.488 59.2427 404.647 58.0833 405.712 56.454C406.84 54.762 408.062 52.3493 409.378 49.216L429.212 2.404C429.338 2.216 429.557 2.122 429.87 2.122C430.184 2.122 430.372 2.216 430.434 2.404L452.618 49.122C454.749 53.7593 456.566 56.8927 458.07 58.522C459.574 60.0887 461.36 60.872 463.428 60.872ZM418.026 34.27H438.8L427.802 11.052L418.026 34.27ZM524.166 2.216C529.869 2.216 534.882 3.626 539.206 6.446C543.53 9.20333 546.851 12.8693 549.17 17.444C551.551 22.0187 552.742 26.8753 552.742 32.014C552.742 37.7167 551.269 42.9493 548.324 47.712C545.441 52.4747 541.556 56.2347 536.668 58.992C531.78 61.7493 526.485 63.128 520.782 63.128C515.142 63.128 510.129 61.7807 505.742 59.086C501.418 56.3287 498.065 52.6313 495.684 47.994C493.303 43.294 492.112 38.1867 492.112 32.672V32.39H477.542V54.386C477.542 56.266 477.73 57.676 478.106 58.616C478.545 59.4933 479.328 60.0887 480.456 60.402C481.584 60.7153 483.37 60.872 485.814 60.872C485.939 60.872 486.002 61.06 486.002 61.436C486.002 61.812 485.939 62 485.814 62C483.871 62 482.336 61.9687 481.208 61.906L474.44 61.812L467.954 61.906C466.826 61.9687 465.259 62 463.254 62C463.129 62 463.066 61.812 463.066 61.436C463.066 61.06 463.129 60.872 463.254 60.872C465.635 60.872 467.39 60.7153 468.518 60.402C469.709 60.0887 470.492 59.4933 470.868 58.616C471.307 57.676 471.526 56.266 471.526 54.386V10.864C471.526 8.984 471.307 7.60533 470.868 6.728C470.492 5.85066 469.74 5.25533 468.612 4.942C467.484 4.566 465.729 4.378 463.348 4.378C463.223 4.378 463.16 4.19 463.16 3.814C463.16 3.438 463.223 3.25 463.348 3.25L468.142 3.344C470.774 3.46933 472.873 3.532 474.44 3.532C476.257 3.532 478.545 3.46933 481.302 3.344L485.814 3.25C485.939 3.25 486.002 3.438 486.002 3.814C486.002 4.19 485.939 4.378 485.814 4.378C483.433 4.378 481.647 4.566 480.456 4.942C479.328 5.318 478.545 5.976 478.106 6.916C477.73 7.79333 477.542 9.172 477.542 11.052V30.416H492.206C492.582 24.4627 494.368 19.3553 497.564 15.094C500.823 10.8327 504.833 7.63666 509.596 5.506C514.359 3.31266 519.215 2.216 524.166 2.216ZM523.978 61.154C527.989 61.154 531.592 60.12 534.788 58.052C538.047 55.984 540.616 52.9447 542.496 48.934C544.376 44.9233 545.316 40.1607 545.316 34.646C545.316 28.7553 544.251 23.5227 542.12 18.948C540.052 14.3733 537.107 10.8013 533.284 8.232C529.461 5.66266 525.012 4.378 519.936 4.378C513.356 4.378 508.217 6.60266 504.52 11.052C500.885 15.5013 499.068 21.6113 499.068 29.382C499.068 35.2727 500.102 40.662 502.17 45.55C504.301 50.3753 507.246 54.198 511.006 57.018C514.829 59.7753 519.153 61.154 523.978 61.154ZM569.531 4.942C565.583 4.942 562.606 5.94466 560.601 7.95C558.658 9.95533 557.248 13.3707 556.371 18.196C556.371 18.3213 556.183 18.384 555.807 18.384C555.493 18.384 555.337 18.3213 555.337 18.196C555.587 15.94 555.869 12.9947 556.183 9.36C556.496 5.72533 556.653 2.99933 556.653 1.182C556.653 0.868666 556.809 0.711999 557.123 0.711999C557.499 0.711999 557.687 0.868666 557.687 1.182C557.687 2.56067 559.379 3.25 562.763 3.25C568.089 3.438 574.387 3.532 581.657 3.532C585.354 3.532 589.271 3.46933 593.407 3.344L599.799 3.25C602.055 3.25 603.715 3.09333 604.781 2.77999C605.909 2.46666 606.629 1.84 606.943 0.899997C607.005 0.649329 607.193 0.523996 607.507 0.523996C607.82 0.523996 607.977 0.649329 607.977 0.899997C607.789 2.71733 607.601 5.47466 607.413 9.172C607.225 12.8693 607.131 15.8773 607.131 18.196C607.131 18.3213 606.943 18.384 606.567 18.384C606.191 18.384 606.003 18.3213 606.003 18.196C605.815 13.308 604.812 9.89266 602.995 7.95C601.177 5.94466 598.169 4.942 593.971 4.942C591.151 4.942 589.145 5.06733 587.955 5.318C586.764 5.56866 585.949 6.10133 585.511 6.916C585.072 7.73067 584.853 9.10933 584.853 11.052V54.386C584.853 56.3287 585.072 57.7387 585.511 58.616C585.949 59.4933 586.795 60.0887 588.049 60.402C589.302 60.7153 591.276 60.872 593.971 60.872C594.159 60.872 594.253 61.06 594.253 61.436C594.253 61.812 594.159 62 593.971 62C591.903 62 590.242 61.9687 588.989 61.906L581.657 61.812L574.607 61.906C573.353 61.9687 571.63 62 569.437 62C569.311 62 569.249 61.812 569.249 61.436C569.249 61.06 569.311 60.872 569.437 60.872C572.131 60.872 574.105 60.7153 575.359 60.402C576.612 60.0887 577.458 59.4933 577.897 58.616C578.398 57.676 578.649 56.266 578.649 54.386V10.864C578.649 8.92133 578.429 7.574 577.991 6.822C577.552 6.00733 576.737 5.506 575.547 5.318C574.356 5.06733 572.351 4.942 569.531 4.942ZM636.439 28.818C642.392 28.818 647.03 30.0087 650.351 32.39C653.672 34.7713 655.333 38.7193 655.333 44.234C655.333 47.806 654.518 50.9707 652.889 53.728C651.322 56.4853 649.098 58.616 646.215 60.12C643.332 61.624 640.042 62.376 636.345 62.376C634.716 62.376 632.773 62.282 630.517 62.094C629.64 62.0313 628.512 61.9687 627.133 61.906C625.817 61.8433 624.344 61.812 622.715 61.812L616.511 61.906C615.32 61.9687 613.691 62 611.623 62C611.498 62 611.435 61.812 611.435 61.436C611.435 61.06 611.498 60.872 611.623 60.872C614.004 60.8093 615.759 60.6213 616.887 60.308C618.015 59.9947 618.767 59.3993 619.143 58.522C619.582 57.6447 619.801 56.266 619.801 54.386V10.864C619.801 8.984 619.613 7.60533 619.237 6.728C618.861 5.85066 618.109 5.25533 616.981 4.942C615.916 4.62866 614.192 4.44066 611.811 4.378C611.623 4.378 611.529 4.19 611.529 3.814C611.529 3.438 611.623 3.25 611.811 3.25L616.323 3.344C618.83 3.46933 620.96 3.532 622.715 3.532C624.532 3.532 626.82 3.46933 629.577 3.344L634.183 3.25C634.308 3.25 634.371 3.438 634.371 3.814C634.371 4.19 634.308 4.378 634.183 4.378C631.739 4.44066 629.953 4.62866 628.825 4.942C627.697 5.25533 626.914 5.882 626.475 6.822C626.099 7.69933 625.911 9.10933 625.911 11.052V29.852C629.483 29.1627 632.992 28.818 636.439 28.818ZM634.465 60.684C639.541 60.684 643.176 59.556 645.369 57.3C647.625 54.9813 648.753 51.378 648.753 46.49C648.753 40.85 647.5 36.808 644.993 34.364C642.486 31.92 638.852 30.698 634.089 30.698C631.645 30.698 628.919 31.0113 625.911 31.638V54.386C625.911 56.5793 626.475 58.1773 627.603 59.18C628.731 60.1827 631.018 60.684 634.465 60.684Z" fill="#1C356E"/>
<path d="M61.4563 59.838C61.9576 59.838 62.2396 59.9007 62.3023 60.026C62.4276 60.0887 62.4903 60.3707 62.4903 60.872C62.4903 61.1853 62.4276 62.0313 62.3023 63.41C61.8636 66.9193 61.6443 71.2747 61.6443 76.476C61.6443 76.7893 61.4563 76.946 61.0803 76.946C60.7043 76.946 60.5163 76.7893 60.5163 76.476C60.5163 71.4627 59.2943 67.7967 56.8503 65.478C54.4063 63.1593 50.3956 62 44.8183 62H16.1483C7.31227 62 2.89427 66.8253 2.89427 76.476C2.89427 76.7893 2.70627 76.946 2.33027 76.946C2.01694 76.946 1.86027 76.7893 1.86027 76.476C1.86027 71.4 1.6096 67.358 1.10827 64.35C0.920269 63.1593 0.826269 62 0.826269 60.872C0.826269 60.3707 0.888936 60.0887 1.01427 60.026C1.1396 59.9007 1.4216 59.838 1.86027 59.838H7.78227L31.2823 2.404C31.3449 2.216 31.5329 2.122 31.8463 2.122C32.2223 2.122 32.4416 2.216 32.5043 2.404L56.3803 59.838H61.4563ZM10.2263 59.838H49.8003L29.8723 11.71L10.2263 59.838ZM105.915 47.994C105.915 47.8687 106.04 47.806 106.291 47.806C106.479 47.806 106.635 47.8373 106.761 47.9C106.949 47.9627 107.043 48.0567 107.043 48.182C106.479 52.13 106.197 56.266 106.197 60.59C106.197 61.0913 106.071 61.4673 105.821 61.718C105.633 61.906 105.257 62 104.693 62H65.3066C65.1813 62 65.1186 61.812 65.1186 61.436C65.1186 61.06 65.1813 60.872 65.3066 60.872C67.6879 60.872 69.4113 60.7153 70.4766 60.402C71.6046 60.0887 72.3566 59.4933 72.7326 58.616C73.1713 57.676 73.3906 56.266 73.3906 54.386V10.864C73.3906 8.984 73.1713 7.60533 72.7326 6.728C72.3566 5.85066 71.6046 5.25533 70.4766 4.942C69.4113 4.566 67.6879 4.378 65.3066 4.378C65.1813 4.378 65.1186 4.19 65.1186 3.814C65.1186 3.438 65.1813 3.25 65.3066 3.25H103.095C103.659 3.25 103.941 3.532 103.941 4.09599L104.129 15.658C104.129 15.846 103.972 15.9713 103.659 16.034C103.345 16.034 103.157 15.94 103.095 15.752C102.907 12.4307 101.904 9.86133 100.087 8.044C98.2693 6.164 95.8566 5.224 92.8486 5.224H87.1146C84.9213 5.224 83.2919 5.412 82.2266 5.788C81.2239 6.10133 80.5033 6.69666 80.0646 7.57399C79.6886 8.38866 79.5006 9.642 79.5006 11.334V30.416H90.9686C93.9766 30.416 96.1073 29.9147 97.3606 28.912C98.6766 27.9093 99.3346 26.2173 99.3346 23.836C99.3346 23.7107 99.5226 23.648 99.8986 23.648C100.275 23.648 100.463 23.7107 100.463 23.836L100.369 31.45C100.369 33.2673 100.4 34.646 100.463 35.586L100.557 40.098C100.557 40.2233 100.369 40.286 99.9926 40.286C99.6166 40.286 99.4286 40.2233 99.4286 40.098C99.4286 37.3407 98.7393 35.3667 97.3606 34.176C96.0446 32.9853 93.8199 32.39 90.6866 32.39H79.5006V54.01C79.5006 55.7647 79.6886 57.0493 80.0646 57.864C80.4406 58.6787 81.1299 59.2427 82.1326 59.556C83.1353 59.8693 84.7019 60.026 86.8326 60.026H94.3526C97.3606 60.026 99.8673 58.9607 101.873 56.83C103.878 54.6993 105.225 51.754 105.915 47.994ZM160.668 63.128C154.84 63.128 149.639 61.7807 145.064 59.086C140.552 56.3287 137.043 52.6313 134.536 47.994C132.092 43.294 130.87 38.1867 130.87 32.672C130.87 26.2173 132.499 20.7027 135.758 16.128C139.017 11.4907 143.184 8.01266 148.26 5.694C153.399 3.37533 158.631 2.216 163.958 2.216C169.911 2.216 175.144 3.626 179.656 6.446C184.168 9.20333 187.615 12.8693 189.996 17.444C192.44 22.0187 193.662 26.8753 193.662 32.014C193.662 37.7167 192.158 42.9493 189.15 47.712C186.142 52.4747 182.1 56.2347 177.024 58.992C172.011 61.7493 166.559 63.128 160.668 63.128ZM163.958 61.154C168.219 61.154 172.042 60.12 175.426 58.052C178.873 55.984 181.567 52.9447 183.51 48.934C185.515 44.9233 186.518 40.1607 186.518 34.646C186.518 28.7553 185.421 23.5227 183.228 18.948C181.035 14.3733 177.933 10.8013 173.922 8.232C169.974 5.66266 165.337 4.378 160.01 4.378C153.117 4.378 147.727 6.60266 143.842 11.052C139.957 15.5013 138.014 21.6113 138.014 29.382C138.014 35.2727 139.111 40.662 141.304 45.55C143.497 50.3753 146.568 54.198 150.516 57.018C154.464 59.7753 158.945 61.154 163.958 61.154ZM283.476 60.872C283.602 60.872 283.664 61.06 283.664 61.436C283.664 61.812 283.602 62 283.476 62H271.538C270.786 62 270.128 61.7807 269.564 61.342C269 60.8407 268.029 59.6187 266.65 57.676C265.334 55.6707 262.828 51.848 259.13 46.208C256.248 41.7587 254.148 38.688 252.832 36.996C251.516 35.2413 250.138 34.0507 248.696 33.424C247.318 32.7347 245.375 32.39 242.868 32.39L240.8 32.484V54.386C240.8 56.3287 240.988 57.7387 241.364 58.616C241.74 59.4933 242.461 60.0887 243.526 60.402C244.654 60.7153 246.44 60.872 248.884 60.872C249.072 60.872 249.166 61.06 249.166 61.436C249.166 61.812 249.072 62 248.884 62C246.942 62 245.406 61.9687 244.278 61.906L237.604 61.812L231.212 61.906C230.084 61.9687 228.518 62 226.512 62C226.387 62 226.324 61.812 226.324 61.436C226.324 61.06 226.387 60.872 226.512 60.872C228.956 60.872 230.742 60.7153 231.87 60.402C232.998 60.0887 233.75 59.4933 234.126 58.616C234.565 57.676 234.784 56.266 234.784 54.386V32.578C233.656 32.4527 232.873 32.39 232.434 32.39C229.99 32.39 228.048 32.7347 226.606 33.424C225.228 34.0507 223.849 35.21 222.47 36.902C221.154 38.594 219.055 41.6333 216.172 46.02L214.292 49.028C211.974 52.6627 210.094 55.5453 208.652 57.676C207.211 59.744 206.24 60.9973 205.738 61.436C205.237 61.812 204.61 62 203.858 62H192.014C191.889 62 191.826 61.812 191.826 61.436C191.826 61.06 191.889 60.872 192.014 60.872C194.396 60.8093 196.495 60.214 198.312 59.086C200.192 57.8953 202.01 56.2347 203.764 54.104C205.519 51.9107 207.838 48.652 210.72 44.328C214.042 39.252 216.36 35.9307 217.676 34.364C219.055 32.7347 220.622 31.6693 222.376 31.168L211.378 14.906C208.746 11.0207 206.146 8.29467 203.576 6.728C201.07 5.16133 198.062 4.378 194.552 4.378C194.427 4.378 194.364 4.19 194.364 3.814C194.364 3.438 194.427 3.25 194.552 3.25L198.03 3.344C200.286 3.46933 202.448 3.532 204.516 3.532C206.584 3.532 208.872 3.46933 211.378 3.344L215.702 3.25C215.89 3.25 215.984 3.438 215.984 3.814C215.984 4.19 215.89 4.378 215.702 4.378C213.948 4.378 212.663 4.566 211.848 4.942C211.096 5.25533 210.72 5.81933 210.72 6.634C210.72 7.386 211.034 8.38866 211.66 9.642C212.35 10.8953 213.415 12.7127 214.856 15.094L224.35 30.886C224.977 30.7607 226.074 30.698 227.64 30.698L232.81 30.792C233.186 30.8547 233.844 30.886 234.784 30.886V10.864C234.784 9.04666 234.502 7.69933 233.938 6.822C233.437 5.882 232.56 5.25533 231.306 4.942C230.053 4.566 228.204 4.378 225.76 4.378C225.635 4.378 225.572 4.19 225.572 3.814C225.572 3.438 225.635 3.25 225.76 3.25L230.836 3.344C233.719 3.46933 235.975 3.532 237.604 3.532C239.422 3.532 241.834 3.46933 244.842 3.344L249.824 3.25C249.95 3.25 250.012 3.438 250.012 3.814C250.012 4.19 249.95 4.378 249.824 4.378C247.443 4.378 245.594 4.566 244.278 4.942C243.025 5.318 242.116 5.976 241.552 6.916C241.051 7.856 240.8 9.23466 240.8 11.052V30.886C244.686 30.7607 247.004 30.698 247.756 30.698C249.323 30.698 250.42 30.7293 251.046 30.792L260.54 15.188C261.982 12.8693 263.016 11.052 263.642 9.73599C264.332 8.42 264.676 7.386 264.676 6.634C264.676 5.81933 264.3 5.25533 263.548 4.942C262.796 4.566 261.543 4.378 259.788 4.378C259.6 4.378 259.506 4.19 259.506 3.814C259.506 3.438 259.6 3.25 259.788 3.25L264.112 3.344C266.619 3.46933 268.906 3.532 270.974 3.532C273.042 3.532 275.204 3.46933 277.46 3.344L280.938 3.25C281.064 3.25 281.126 3.438 281.126 3.814C281.126 4.19 281.064 4.378 280.938 4.378C277.429 4.378 274.39 5.16133 271.82 6.728C269.314 8.29467 266.744 11.0207 264.112 14.906L253.02 31.168C254.712 31.6067 256.185 32.5467 257.438 33.988C258.692 35.4293 260.76 38.312 263.642 42.636L264.77 44.328C267.653 48.652 269.972 51.9107 271.726 54.104C273.481 56.2347 275.267 57.8953 277.084 59.086C278.964 60.214 281.095 60.8093 283.476 60.872ZM349.39 60.872C349.578 60.872 349.672 61.06 349.672 61.436C349.672 61.812 349.578 62 349.39 62C347.447 62 345.881 61.9687 344.69 61.906L338.204 61.812L331.342 61.906C330.214 61.9687 328.741 62 326.924 62C326.736 62 326.642 61.812 326.642 61.436C326.642 61.06 326.736 60.872 326.924 60.872C329.368 60.872 331.154 60.7153 332.282 60.402C333.41 60.0887 334.162 59.4933 334.538 58.616C334.914 57.7387 335.102 56.3287 335.102 54.386V11.052L294.682 62.846C294.494 63.0967 294.118 63.222 293.554 63.222C292.614 63.222 292.144 63.0027 292.144 62.564V10.864C292.144 8.984 291.925 7.60533 291.486 6.728C291.11 5.85066 290.327 5.25533 289.136 4.942C288.008 4.566 286.253 4.378 283.872 4.378C283.747 4.378 283.684 4.19 283.684 3.814C283.684 3.438 283.747 3.25 283.872 3.25L288.76 3.344C291.392 3.46933 293.523 3.532 295.152 3.532C296.969 3.532 299.257 3.46933 302.014 3.344L306.432 3.25C306.62 3.25 306.714 3.438 306.714 3.814C306.714 4.19 306.62 4.378 306.432 4.378C303.988 4.378 302.202 4.566 301.074 4.942C299.946 5.25533 299.194 5.85066 298.818 6.728C298.442 7.60533 298.254 8.984 298.254 10.864V54.762L338.768 2.77999C338.956 2.592 339.301 2.498 339.802 2.498C340.742 2.498 341.212 2.71733 341.212 3.156V54.386C341.212 56.266 341.4 57.676 341.776 58.616C342.215 59.4933 342.998 60.0887 344.126 60.402C345.254 60.7153 347.009 60.872 349.39 60.872ZM380.274 28.912C385.225 29.288 389.204 30.9487 392.212 33.894C395.283 36.7767 396.818 40.38 396.818 44.704C396.818 48.0253 396.003 51.0333 394.374 53.728C392.745 56.4227 390.489 58.5533 387.606 60.12C384.786 61.624 381.621 62.376 378.112 62.376C376.044 62.376 373.788 62.282 371.344 62.094C370.467 62.0313 369.433 61.9687 368.242 61.906C367.051 61.8433 365.735 61.812 364.294 61.812L357.902 61.906C356.774 61.9687 355.176 62 353.108 62C352.983 62 352.92 61.812 352.92 61.436C352.92 61.06 352.983 60.872 353.108 60.872C355.427 60.872 357.15 60.7153 358.278 60.402C359.406 60.026 360.189 59.3993 360.628 58.522C361.067 57.6447 361.286 56.266 361.286 54.386V10.864C361.286 8.984 361.067 7.60533 360.628 6.728C360.252 5.85066 359.5 5.25533 358.372 4.942C357.307 4.566 355.615 4.378 353.296 4.378C353.108 4.378 353.014 4.19 353.014 3.814C353.014 3.438 353.108 3.25 353.296 3.25L357.902 3.344C360.534 3.46933 362.665 3.532 364.294 3.532C365.422 3.532 366.456 3.50066 367.396 3.438C368.399 3.37533 369.245 3.31267 369.934 3.25C371.877 3.062 373.694 2.968 375.386 2.968C380.65 2.968 384.598 4.12733 387.23 6.446C389.862 8.702 391.178 11.6787 391.178 15.376C391.178 18.384 390.207 21.0787 388.264 23.46C386.321 25.7787 383.658 27.596 380.274 28.912ZM373.412 4.378C371.783 4.378 370.561 4.53466 369.746 4.848C368.931 5.09866 368.336 5.694 367.96 6.634C367.584 7.51133 367.396 8.984 367.396 11.052V28.912L371.626 29.006C376.201 29.006 379.585 27.8467 381.778 25.528C383.971 23.1467 385.068 20.0133 385.068 16.128C385.068 12.6187 384.097 9.79866 382.154 7.668C380.274 5.47466 377.36 4.378 373.412 4.378ZM376.702 60.684C381.277 60.684 384.661 59.5247 386.854 57.206C389.11 54.8247 390.238 51.4407 390.238 47.054C390.238 42.2913 388.828 38.4373 386.008 35.492C383.251 32.5467 379.428 31.0427 374.54 30.98C372.535 30.9173 370.153 30.98 367.396 31.168V54.386C367.396 56.0153 367.615 57.2687 368.054 58.146C368.555 59.0233 369.464 59.6813 370.78 60.12C372.159 60.496 374.133 60.684 376.702 60.684ZM463.428 60.872C463.679 60.872 463.804 61.06 463.804 61.436C463.804 61.812 463.679 62 463.428 62C462.238 62 460.389 61.9373 457.882 61.812C455.376 61.6867 453.558 61.624 452.43 61.624C451.052 61.624 449.297 61.6867 447.166 61.812C445.161 61.9373 443.626 62 442.56 62C442.31 62 442.184 61.812 442.184 61.436C442.184 61.06 442.31 60.872 442.56 60.872C444.879 60.872 446.571 60.6527 447.636 60.214C448.702 59.7753 449.234 59.0233 449.234 57.958C449.234 57.0807 448.827 55.7333 448.012 53.916L439.646 36.15H417.274L411.352 50.062C410.475 52.1927 410.036 53.916 410.036 55.232C410.036 57.1747 410.788 58.616 412.292 59.556C413.859 60.4333 416.178 60.872 419.248 60.872C419.562 60.872 419.718 61.06 419.718 61.436C419.718 61.812 419.562 62 419.248 62C418.12 62 416.491 61.9373 414.36 61.812C411.979 61.6867 409.911 61.624 408.156 61.624C406.527 61.624 404.647 61.6867 402.516 61.812C400.636 61.9373 399.07 62 397.816 62C397.503 62 397.346 61.812 397.346 61.436C397.346 61.06 397.503 60.872 397.816 60.872C399.571 60.872 401.044 60.5587 402.234 59.932C403.488 59.2427 404.647 58.0833 405.712 56.454C406.84 54.762 408.062 52.3493 409.378 49.216L429.212 2.404C429.338 2.216 429.557 2.122 429.87 2.122C430.184 2.122 430.372 2.216 430.434 2.404L452.618 49.122C454.749 53.7593 456.566 56.8927 458.07 58.522C459.574 60.0887 461.36 60.872 463.428 60.872ZM418.026 34.27H438.8L427.802 11.052L418.026 34.27ZM524.166 2.216C529.869 2.216 534.882 3.626 539.206 6.446C543.53 9.20333 546.851 12.8693 549.17 17.444C551.551 22.0187 552.742 26.8753 552.742 32.014C552.742 37.7167 551.269 42.9493 548.324 47.712C545.441 52.4747 541.556 56.2347 536.668 58.992C531.78 61.7493 526.485 63.128 520.782 63.128C515.142 63.128 510.129 61.7807 505.742 59.086C501.418 56.3287 498.065 52.6313 495.684 47.994C493.303 43.294 492.112 38.1867 492.112 32.672V32.39H477.542V54.386C477.542 56.266 477.73 57.676 478.106 58.616C478.545 59.4933 479.328 60.0887 480.456 60.402C481.584 60.7153 483.37 60.872 485.814 60.872C485.939 60.872 486.002 61.06 486.002 61.436C486.002 61.812 485.939 62 485.814 62C483.871 62 482.336 61.9687 481.208 61.906L474.44 61.812L467.954 61.906C466.826 61.9687 465.259 62 463.254 62C463.129 62 463.066 61.812 463.066 61.436C463.066 61.06 463.129 60.872 463.254 60.872C465.635 60.872 467.39 60.7153 468.518 60.402C469.709 60.0887 470.492 59.4933 470.868 58.616C471.307 57.676 471.526 56.266 471.526 54.386V10.864C471.526 8.984 471.307 7.60533 470.868 6.728C470.492 5.85066 469.74 5.25533 468.612 4.942C467.484 4.566 465.729 4.378 463.348 4.378C463.223 4.378 463.16 4.19 463.16 3.814C463.16 3.438 463.223 3.25 463.348 3.25L468.142 3.344C470.774 3.46933 472.873 3.532 474.44 3.532C476.257 3.532 478.545 3.46933 481.302 3.344L485.814 3.25C485.939 3.25 486.002 3.438 486.002 3.814C486.002 4.19 485.939 4.378 485.814 4.378C483.433 4.378 481.647 4.566 480.456 4.942C479.328 5.318 478.545 5.976 478.106 6.916C477.73 7.79333 477.542 9.172 477.542 11.052V30.416H492.206C492.582 24.4627 494.368 19.3553 497.564 15.094C500.823 10.8327 504.833 7.63666 509.596 5.506C514.359 3.31266 519.215 2.216 524.166 2.216ZM523.978 61.154C527.989 61.154 531.592 60.12 534.788 58.052C538.047 55.984 540.616 52.9447 542.496 48.934C544.376 44.9233 545.316 40.1607 545.316 34.646C545.316 28.7553 544.251 23.5227 542.12 18.948C540.052 14.3733 537.107 10.8013 533.284 8.232C529.461 5.66266 525.012 4.378 519.936 4.378C513.356 4.378 508.217 6.60266 504.52 11.052C500.885 15.5013 499.068 21.6113 499.068 29.382C499.068 35.2727 500.102 40.662 502.17 45.55C504.301 50.3753 507.246 54.198 511.006 57.018C514.829 59.7753 519.153 61.154 523.978 61.154ZM569.531 4.942C565.583 4.942 562.606 5.94466 560.601 7.95C558.658 9.95533 557.248 13.3707 556.371 18.196C556.371 18.3213 556.183 18.384 555.807 18.384C555.493 18.384 555.337 18.3213 555.337 18.196C555.587 15.94 555.869 12.9947 556.183 9.36C556.496 5.72533 556.653 2.99933 556.653 1.182C556.653 0.868666 556.809 0.711999 557.123 0.711999C557.499 0.711999 557.687 0.868666 557.687 1.182C557.687 2.56067 559.379 3.25 562.763 3.25C568.089 3.438 574.387 3.532 581.657 3.532C585.354 3.532 589.271 3.46933 593.407 3.344L599.799 3.25C602.055 3.25 603.715 3.09333 604.781 2.77999C605.909 2.46666 606.629 1.84 606.943 0.899997C607.005 0.649329 607.193 0.523996 607.507 0.523996C607.82 0.523996 607.977 0.649329 607.977 0.899997C607.789 2.71733 607.601 5.47466 607.413 9.172C607.225 12.8693 607.131 15.8773 607.131 18.196C607.131 18.3213 606.943 18.384 606.567 18.384C606.191 18.384 606.003 18.3213 606.003 18.196C605.815 13.308 604.812 9.89266 602.995 7.95C601.177 5.94466 598.169 4.942 593.971 4.942C591.151 4.942 589.145 5.06733 587.955 5.318C586.764 5.56866 585.949 6.10133 585.511 6.916C585.072 7.73067 584.853 9.10933 584.853 11.052V54.386C584.853 56.3287 585.072 57.7387 585.511 58.616C585.949 59.4933 586.795 60.0887 588.049 60.402C589.302 60.7153 591.276 60.872 593.971 60.872C594.159 60.872 594.253 61.06 594.253 61.436C594.253 61.812 594.159 62 593.971 62C591.903 62 590.242 61.9687 588.989 61.906L581.657 61.812L574.607 61.906C573.353 61.9687 571.63 62 569.437 62C569.311 62 569.249 61.812 569.249 61.436C569.249 61.06 569.311 60.872 569.437 60.872C572.131 60.872 574.105 60.7153 575.359 60.402C576.612 60.0887 577.458 59.4933 577.897 58.616C578.398 57.676 578.649 56.266 578.649 54.386V10.864C578.649 8.92133 578.429 7.574 577.991 6.822C577.552 6.00733 576.737 5.506 575.547 5.318C574.356 5.06733 572.351 4.942 569.531 4.942ZM636.439 28.818C642.392 28.818 647.03 30.0087 650.351 32.39C653.672 34.7713 655.333 38.7193 655.333 44.234C655.333 47.806 654.518 50.9707 652.889 53.728C651.322 56.4853 649.098 58.616 646.215 60.12C643.332 61.624 640.042 62.376 636.345 62.376C634.716 62.376 632.773 62.282 630.517 62.094C629.64 62.0313 628.512 61.9687 627.133 61.906C625.817 61.8433 624.344 61.812 622.715 61.812L616.511 61.906C615.32 61.9687 613.691 62 611.623 62C611.498 62 611.435 61.812 611.435 61.436C611.435 61.06 611.498 60.872 611.623 60.872C614.004 60.8093 615.759 60.6213 616.887 60.308C618.015 59.9947 618.767 59.3993 619.143 58.522C619.582 57.6447 619.801 56.266 619.801 54.386V10.864C619.801 8.984 619.613 7.60533 619.237 6.728C618.861 5.85066 618.109 5.25533 616.981 4.942C615.916 4.62866 614.192 4.44066 611.811 4.378C611.623 4.378 611.529 4.19 611.529 3.814C611.529 3.438 611.623 3.25 611.811 3.25L616.323 3.344C618.83 3.46933 620.96 3.532 622.715 3.532C624.532 3.532 626.82 3.46933 629.577 3.344L634.183 3.25C634.308 3.25 634.371 3.438 634.371 3.814C634.371 4.19 634.308 4.378 634.183 4.378C631.739 4.44066 629.953 4.62866 628.825 4.942C627.697 5.25533 626.914 5.882 626.475 6.822C626.099 7.69933 625.911 9.10933 625.911 11.052V29.852C629.483 29.1627 632.992 28.818 636.439 28.818ZM634.465 60.684C639.541 60.684 643.176 59.556 645.369 57.3C647.625 54.9813 648.753 51.378 648.753 46.49C648.753 40.85 647.5 36.808 644.993 34.364C642.486 31.92 638.852 30.698 634.089 30.698C631.645 30.698 628.919 31.0113 625.911 31.638V54.386C625.911 56.5793 626.475 58.1773 627.603 59.18C628.731 60.1827 631.018 60.684 634.465 60.684Z" fill="url(#paint0_linear_155_841)"/>
<defs>
<linearGradient id="paint0_linear_155_841" x1="681.55" y1="6.85209" x2="-19.0019" y2="79.1939" gradientUnits="userSpaceOnUse">
<stop stop-color="#7B5A35"/>
<stop offset="0.239832" stop-color="#A68F3C"/>
<stop offset="0.369925" stop-color="#F4E5B4"/>
<stop offset="0.536334" stop-color="#947650"/>
<stop offset="1" stop-color="#947650"/>
</linearGradient>
</defs>
</svg>
