<svg width="261" height="39" viewBox="0 0 261 39" fill="none" xmlns="http://www.w3.org/2000/svg">
<path d="M0 38.3427H4.80385V24.868L10.7691 18.2402L24.8111 38.3427H30.3012L13.8309 14.8441L27.2394 0H24.5999L4.80385 21.5815V0H0V38.3427Z" fill="white"/>
<path d="M40.8397 0V38.3427H45.6435V0H40.8397Z" fill="white"/>
<path d="M64.5492 0H60.9595V38.3427H63.2823V7.06601H63.4934L79.8054 39H80.7556L97.4371 7.28511H97.6482V38.3427H102.452V0H98.8096L81.7058 32.9199H81.4946L64.5492 0Z" fill="white"/>
<path d="M115.669 38.3427H128.919C131.277 38.3427 133.265 38.0323 134.884 37.4115C136.503 36.7542 137.805 35.9143 138.791 34.8919C139.776 33.8694 140.48 32.7191 140.902 31.441C141.36 30.1264 141.588 28.8118 141.588 27.4972C141.588 25.4157 141.149 23.7542 140.269 22.5126C139.424 21.2711 138.404 20.3216 137.207 19.6643C136.01 19.007 134.779 18.5688 133.512 18.3497C132.245 18.1306 131.224 18.0028 130.45 17.9663V17.7472C131.682 17.7472 132.843 17.5098 133.934 17.0351C135.025 16.5239 135.975 15.8848 136.785 15.118C137.629 14.3146 138.298 13.4017 138.791 12.3792C139.283 11.3202 139.53 10.2065 139.53 9.03792C139.53 8.01545 139.319 6.97472 138.896 5.91573C138.474 4.85674 137.823 3.88905 136.943 3.01264C136.098 2.13624 134.99 1.42416 133.617 0.876406C132.28 0.292135 130.696 0 128.866 0H115.669V38.3427ZM120.473 35.9326V19.1713H126.28C128.004 19.1713 129.5 19.4087 130.767 19.8834C132.034 20.3581 133.072 20.9972 133.881 21.8006C134.726 22.6039 135.342 23.5351 135.729 24.5941C136.151 25.6531 136.362 26.7669 136.362 27.9354C136.362 29.2135 136.134 30.3455 135.676 31.3315C135.254 32.3174 134.673 33.1573 133.934 33.8511C133.195 34.5449 132.315 35.0744 131.295 35.4396C130.309 35.7683 129.253 35.9326 128.127 35.9326H120.473ZM120.473 16.7612V2.41011H126.913C128.286 2.41011 129.447 2.61096 130.397 3.01264C131.383 3.41433 132.174 3.94382 132.773 4.60112C133.406 5.25843 133.864 6.00702 134.145 6.84691C134.427 7.6868 134.567 8.52669 134.567 9.36657C134.567 10.4256 134.356 11.4115 133.934 12.3244C133.547 13.2374 132.984 14.0225 132.245 14.6798C131.541 15.3371 130.714 15.8483 129.764 16.2135C128.849 16.5787 127.863 16.7612 126.807 16.7612H120.473Z" fill="white"/>
<path d="M151.098 0V38.3427H174.958V35.3301H155.901V19.2809H172.266V16.7612H155.901V3.01264H174.958V0H151.098Z" fill="white"/>
<path d="M183.382 0V38.3427H188.186V21.4171H190.508C191.494 21.4171 192.303 21.5084 192.937 21.691C193.605 21.8736 194.204 22.184 194.731 22.6222C195.259 23.0604 195.752 23.6264 196.21 24.3202C196.667 25.014 197.213 25.8722 197.846 26.8947L202.016 33.3034C202.544 34.1433 203.055 34.9101 203.547 35.6039C204.075 36.2978 204.638 36.9003 205.237 37.4115C205.835 37.8862 206.503 38.2697 207.243 38.5618C208.017 38.8539 208.932 39 209.988 39C210.762 39 211.395 38.9635 211.888 38.8905C212.381 38.8174 212.873 38.6348 213.366 38.3427V36.316C213.19 36.3525 213.014 36.389 212.838 36.4256C212.662 36.4256 212.486 36.4256 212.31 36.4256C211.571 36.4256 210.92 36.316 210.357 36.0969C209.794 35.8778 209.266 35.5674 208.773 35.1657C208.281 34.7275 207.806 34.2163 207.348 33.632C206.891 33.0112 206.416 32.3174 205.923 31.5506C204.445 29.323 203.301 27.552 202.491 26.2374C201.682 24.8862 201.031 23.8455 200.538 23.1152C200.081 22.3848 199.694 21.8553 199.377 21.5267C199.095 21.198 198.743 20.9242 198.321 20.7051L197.793 20.4312V20.2121C199.482 20.1025 200.925 19.7191 202.122 19.0618C203.354 18.4045 204.357 17.5829 205.131 16.5969C205.905 15.611 206.468 14.552 206.82 13.4199C207.172 12.2514 207.348 11.1194 207.348 10.0239C207.348 9.03792 207.155 7.96068 206.767 6.79214C206.416 5.6236 205.782 4.54635 204.867 3.56039C203.987 2.53792 202.773 1.69803 201.225 1.04073C199.676 0.34691 197.723 0 195.365 0H183.382ZM188.186 2.41011H193.517C194.855 2.41011 196.051 2.61096 197.107 3.01264C198.198 3.41433 199.131 3.98034 199.905 4.71068C200.679 5.4045 201.26 6.24438 201.647 7.23034C202.069 8.21629 202.28 9.29354 202.28 10.4621C202.28 11.448 202.087 12.4522 201.7 13.4747C201.348 14.4607 200.802 15.3736 200.063 16.2135C199.324 17.0169 198.409 17.6742 197.318 18.1854C196.262 18.6966 195.031 18.9522 193.623 18.9522H188.186V2.41011Z" fill="white"/>
<path d="M221.8 38.3427V0H226.604V35.3301H245.661V38.3427H221.8Z" fill="white"/>
<path d="M256.196 0V38.3427H261V0H256.196Z" fill="white"/>
</svg>
