<svg width="1440" height="128" viewBox="0 0 1440 128" fill="none" xmlns="http://www.w3.org/2000/svg">
<path d="M169.5 93.848C169.692 93.848 169.788 94.04 169.788 94.424C169.788 94.808 169.692 95 169.5 95C167.516 95 165.948 94.968 164.796 94.904L158.172 94.808L151.068 94.904C149.98 94.968 148.476 95 146.556 95C146.364 95 146.268 94.808 146.268 94.424C146.268 94.04 146.364 93.848 146.556 93.848C149.052 93.848 150.876 93.688 152.028 93.368C153.18 93.048 153.948 92.44 154.332 91.544C154.78 90.584 155.004 89.144 155.004 87.224V64.76H118.14V87.224C118.14 89.144 118.332 90.584 118.716 91.544C119.164 92.44 119.964 93.048 121.116 93.368C122.268 93.688 124.092 93.848 126.588 93.848C126.716 93.848 126.78 94.04 126.78 94.424C126.78 94.808 126.716 95 126.588 95C124.604 95 123.036 94.968 121.884 94.904L114.972 94.808L108.348 94.904C107.196 94.968 105.596 95 103.548 95C103.42 95 103.356 94.808 103.356 94.424C103.356 94.04 103.42 93.848 103.548 93.848C105.98 93.848 107.772 93.688 108.924 93.368C110.14 93.048 110.94 92.44 111.324 91.544C111.772 90.584 111.996 89.144 111.996 87.224V42.776C111.996 40.856 111.772 39.448 111.324 38.552C110.94 37.656 110.172 37.048 109.02 36.728C107.868 36.344 106.076 36.152 103.644 36.152C103.516 36.152 103.452 35.96 103.452 35.576C103.452 35.192 103.516 35 103.644 35L108.54 35.096C111.228 35.224 113.372 35.288 114.972 35.288C116.828 35.288 119.164 35.224 121.98 35.096L126.588 35C126.716 35 126.78 35.192 126.78 35.576C126.78 35.96 126.716 36.152 126.588 36.152C124.156 36.152 122.332 36.344 121.116 36.728C119.964 37.112 119.164 37.784 118.716 38.744C118.332 39.64 118.14 41.048 118.14 42.968V62.744H155.004V42.968C155.004 41.048 154.78 39.64 154.332 38.744C153.948 37.784 153.18 37.112 152.028 36.728C150.876 36.344 149.052 36.152 146.556 36.152C146.364 36.152 146.268 35.96 146.268 35.576C146.268 35.192 146.364 35 146.556 35L151.068 35.096C153.884 35.224 156.252 35.288 158.172 35.288C159.9 35.288 162.108 35.224 164.796 35.096L169.5 35C169.692 35 169.788 35.192 169.788 35.576C169.788 35.96 169.692 36.152 169.5 36.152C167.068 36.152 165.276 36.344 164.124 36.728C162.972 37.048 162.172 37.656 161.724 38.552C161.34 39.448 161.148 40.856 161.148 42.776V87.224C161.148 89.144 161.34 90.584 161.724 91.544C162.172 92.44 162.972 93.048 164.124 93.368C165.276 93.688 167.068 93.848 169.5 93.848ZM236.296 93.848C236.552 93.848 236.68 94.04 236.68 94.424C236.68 94.808 236.552 95 236.296 95C235.08 95 233.192 94.936 230.632 94.808C228.072 94.68 226.216 94.616 225.064 94.616C223.656 94.616 221.864 94.68 219.688 94.808C217.64 94.936 216.072 95 214.984 95C214.728 95 214.6 94.808 214.6 94.424C214.6 94.04 214.728 93.848 214.984 93.848C217.352 93.848 219.08 93.624 220.168 93.176C221.256 92.728 221.8 91.96 221.8 90.872C221.8 89.976 221.384 88.6 220.552 86.744L212.008 68.6H189.16L183.112 82.808C182.216 84.984 181.768 86.744 181.768 88.088C181.768 90.072 182.536 91.544 184.072 92.504C185.672 93.4 188.04 93.848 191.176 93.848C191.496 93.848 191.656 94.04 191.656 94.424C191.656 94.808 191.496 95 191.176 95C190.024 95 188.36 94.936 186.184 94.808C183.752 94.68 181.64 94.616 179.848 94.616C178.184 94.616 176.264 94.68 174.088 94.808C172.168 94.936 170.568 95 169.288 95C168.968 95 168.808 94.808 168.808 94.424C168.808 94.04 168.968 93.848 169.288 93.848C171.08 93.848 172.584 93.528 173.8 92.888C175.08 92.184 176.264 91 177.352 89.336C178.504 87.608 179.752 85.144 181.096 81.944L201.352 34.136C201.48 33.944 201.704 33.848 202.024 33.848C202.344 33.848 202.536 33.944 202.6 34.136L225.256 81.848C227.432 86.584 229.288 89.784 230.824 91.448C232.36 93.048 234.184 93.848 236.296 93.848ZM189.928 66.68H211.144L199.912 42.968L189.928 66.68ZM236.118 95C235.99 95 235.926 94.808 235.926 94.424C235.926 94.04 235.99 93.848 236.118 93.848C238.55 93.848 240.342 93.688 241.494 93.368C242.71 93.048 243.51 92.44 243.894 91.544C244.342 90.584 244.566 89.144 244.566 87.224V42.776C244.566 40.856 244.342 39.448 243.894 38.552C243.51 37.656 242.71 37.048 241.494 36.728C240.342 36.344 238.55 36.152 236.118 36.152C235.99 36.152 235.926 35.96 235.926 35.576C235.926 35.192 235.99 35 236.118 35L240.918 35.096C243.606 35.224 245.782 35.288 247.446 35.288C249.174 35.288 251.318 35.224 253.878 35.096L258.102 35C258.294 35 258.39 35.192 258.39 35.576C258.39 35.96 258.294 36.152 258.102 36.152C255.926 36.152 254.326 36.344 253.302 36.728C252.278 37.048 251.574 37.656 251.19 38.552C250.87 39.448 250.71 40.856 250.71 42.776V87.032C250.71 89.208 250.806 90.648 250.998 91.352C251.254 92.056 251.83 92.504 252.726 92.696C253.622 92.888 255.446 92.984 258.198 92.984H271.062C273.878 92.984 275.766 92.888 276.726 92.696C277.75 92.504 278.39 92.056 278.646 91.352C278.902 90.584 279.03 89.144 279.03 87.032V42.776C279.03 40.856 278.838 39.448 278.454 38.552C278.134 37.656 277.462 37.048 276.438 36.728C275.414 36.344 273.814 36.152 271.638 36.152C271.446 36.152 271.35 35.96 271.35 35.576C271.35 35.192 271.446 35 271.638 35L276.246 35.096C278.806 35.224 280.79 35.288 282.198 35.288C283.798 35.288 285.814 35.224 288.246 35.096L292.758 35C292.95 35 293.046 35.192 293.046 35.576C293.046 35.96 292.95 36.152 292.758 36.152C290.582 36.152 288.95 36.344 287.862 36.728C286.838 37.048 286.134 37.656 285.75 38.552C285.43 39.448 285.27 40.856 285.27 42.776V87.224C285.27 89.08 285.494 90.424 285.942 91.256C286.454 92.024 287.254 92.504 288.342 92.696C289.494 92.888 291.35 92.984 293.91 92.984H305.526C308.406 92.984 310.326 92.888 311.286 92.696C312.246 92.504 312.854 92.056 313.11 91.352C313.366 90.648 313.494 89.208 313.494 87.032V42.776C313.494 40.856 313.302 39.448 312.918 38.552C312.598 37.656 311.926 37.048 310.902 36.728C309.878 36.344 308.278 36.152 306.102 36.152C305.91 36.152 305.814 35.96 305.814 35.576C305.814 35.192 305.91 35 306.102 35L310.518 35.096C313.078 35.224 315.158 35.288 316.758 35.288C318.422 35.288 320.598 35.224 323.286 35.096L328.086 35C328.278 35 328.374 35.192 328.374 35.576C328.374 35.96 328.278 36.152 328.086 36.152C325.654 36.152 323.83 36.344 322.614 36.728C321.462 37.048 320.662 37.656 320.214 38.552C319.83 39.448 319.638 40.856 319.638 42.776V87.224C319.638 89.144 319.83 90.584 320.214 91.544C320.662 92.44 321.462 93.048 322.614 93.368C323.83 93.688 325.654 93.848 328.086 93.848C328.278 93.848 328.374 94.04 328.374 94.424C328.374 94.808 328.278 95 328.086 95H236.118ZM373.424 80.696C373.424 80.568 373.552 80.504 373.808 80.504C374 80.504 374.16 80.536 374.288 80.6C374.48 80.664 374.576 80.76 374.576 80.888C374 84.92 373.712 89.144 373.712 93.56C373.712 94.072 373.584 94.456 373.328 94.712C373.136 94.904 372.752 95 372.176 95H331.952C331.824 95 331.76 94.808 331.76 94.424C331.76 94.04 331.824 93.848 331.952 93.848C334.384 93.848 336.144 93.688 337.232 93.368C338.384 93.048 339.152 92.44 339.536 91.544C339.984 90.584 340.208 89.144 340.208 87.224V42.776C340.208 40.856 339.984 39.448 339.536 38.552C339.152 37.656 338.384 37.048 337.232 36.728C336.144 36.344 334.384 36.152 331.952 36.152C331.824 36.152 331.76 35.96 331.76 35.576C331.76 35.192 331.824 35 331.952 35H370.544C371.12 35 371.408 35.288 371.408 35.864L371.6 47.672C371.6 47.864 371.44 47.992 371.12 48.056C370.8 48.056 370.608 47.96 370.544 47.768C370.352 44.376 369.328 41.752 367.472 39.896C365.616 37.976 363.152 37.016 360.08 37.016H354.224C351.984 37.016 350.32 37.208 349.232 37.592C348.208 37.912 347.472 38.52 347.024 39.416C346.64 40.248 346.448 41.528 346.448 43.256V62.744H358.16C361.232 62.744 363.408 62.232 364.688 61.208C366.032 60.184 366.704 58.456 366.704 56.024C366.704 55.896 366.896 55.832 367.28 55.832C367.664 55.832 367.856 55.896 367.856 56.024L367.76 63.8C367.76 65.656 367.792 67.064 367.856 68.024L367.952 72.632C367.952 72.76 367.76 72.824 367.376 72.824C366.992 72.824 366.8 72.76 366.8 72.632C366.8 69.816 366.096 67.8 364.688 66.584C363.344 65.368 361.072 64.76 357.872 64.76H346.448V86.84C346.448 88.632 346.64 89.944 347.024 90.776C347.408 91.608 348.112 92.184 349.136 92.504C350.16 92.824 351.76 92.984 353.936 92.984H361.616C364.688 92.984 367.248 91.896 369.296 89.72C371.344 87.544 372.72 84.536 373.424 80.696ZM472.159 93.848C472.351 93.848 472.447 94.04 472.447 94.424C472.447 94.808 472.351 95 472.159 95C470.175 95 468.607 94.968 467.455 94.904L460.831 94.808L454.687 94.904C453.663 94.968 452.223 95 450.367 95C450.239 95 450.175 94.808 450.175 94.424C450.175 94.04 450.239 93.848 450.367 93.848C452.543 93.848 454.143 93.688 455.167 93.368C456.255 92.984 456.959 92.344 457.279 91.448C457.663 90.552 457.791 89.144 457.663 87.224L455.935 43.544L434.047 94.328C433.919 94.584 433.663 94.712 433.279 94.712C432.959 94.712 432.671 94.584 432.415 94.328L408.799 44.12L407.935 84.536C407.871 87.928 408.447 90.328 409.663 91.736C410.879 93.144 413.023 93.848 416.095 93.848C416.223 93.848 416.287 94.04 416.287 94.424C416.287 94.808 416.223 95 416.095 95C414.303 95 412.927 94.968 411.967 94.904L406.783 94.808L401.791 94.904C400.895 94.968 399.615 95 397.951 95C397.823 95 397.759 94.808 397.759 94.424C397.759 94.04 397.823 93.848 397.951 93.848C400.639 93.848 402.559 93.144 403.711 91.736C404.927 90.264 405.567 87.864 405.631 84.536L406.495 39.992C404.575 37.432 401.951 36.152 398.623 36.152C398.495 36.152 398.431 35.96 398.431 35.576C398.431 35.192 398.495 35 398.623 35L402.175 35.096C402.815 35.16 403.711 35.192 404.863 35.192C406.015 35.192 406.975 35.16 407.743 35.096C408.575 35.032 409.215 35 409.663 35C410.495 35 411.167 35.32 411.679 35.96C412.255 36.536 413.055 37.88 414.079 39.992L435.487 85.112L456.415 37.4C457.119 35.8 458.079 35 459.295 35C459.615 35 460.063 35.032 460.639 35.096C461.279 35.16 462.111 35.192 463.135 35.192L467.647 35.096C468.351 35.032 469.407 35 470.815 35C471.007 35 471.103 35.192 471.103 35.576C471.103 35.96 471.007 36.152 470.815 36.152C467.615 36.152 465.311 36.632 463.903 37.592C462.559 38.488 461.919 40.216 461.983 42.776L463.903 87.224C463.967 89.208 464.191 90.648 464.575 91.544C465.023 92.44 465.791 93.048 466.879 93.368C467.967 93.688 469.727 93.848 472.159 93.848ZM516.217 80.696C516.217 80.568 516.345 80.504 516.601 80.504C516.793 80.504 516.953 80.536 517.081 80.6C517.273 80.664 517.369 80.76 517.369 80.888C516.793 84.92 516.505 89.144 516.505 93.56C516.505 94.072 516.377 94.456 516.121 94.712C515.929 94.904 515.545 95 514.969 95H474.745C474.617 95 474.553 94.808 474.553 94.424C474.553 94.04 474.617 93.848 474.745 93.848C477.177 93.848 478.937 93.688 480.025 93.368C481.177 93.048 481.945 92.44 482.329 91.544C482.777 90.584 483.001 89.144 483.001 87.224V42.776C483.001 40.856 482.777 39.448 482.329 38.552C481.945 37.656 481.177 37.048 480.025 36.728C478.937 36.344 477.177 36.152 474.745 36.152C474.617 36.152 474.553 35.96 474.553 35.576C474.553 35.192 474.617 35 474.745 35H513.337C513.913 35 514.201 35.288 514.201 35.864L514.393 47.672C514.393 47.864 514.233 47.992 513.913 48.056C513.593 48.056 513.401 47.96 513.337 47.768C513.145 44.376 512.121 41.752 510.265 39.896C508.409 37.976 505.945 37.016 502.873 37.016H497.017C494.777 37.016 493.113 37.208 492.025 37.592C491.001 37.912 490.265 38.52 489.817 39.416C489.433 40.248 489.241 41.528 489.241 43.256V62.744H500.953C504.025 62.744 506.201 62.232 507.481 61.208C508.825 60.184 509.497 58.456 509.497 56.024C509.497 55.896 509.689 55.832 510.073 55.832C510.457 55.832 510.649 55.896 510.649 56.024L510.553 63.8C510.553 65.656 510.585 67.064 510.649 68.024L510.745 72.632C510.745 72.76 510.553 72.824 510.169 72.824C509.785 72.824 509.593 72.76 509.593 72.632C509.593 69.816 508.889 67.8 507.481 66.584C506.137 65.368 503.865 64.76 500.665 64.76H489.241V86.84C489.241 88.632 489.433 89.944 489.817 90.776C490.201 91.608 490.905 92.184 491.929 92.504C492.953 92.824 494.553 92.984 496.729 92.984H504.409C507.481 92.984 510.041 91.896 512.089 89.72C514.137 87.544 515.513 84.536 516.217 80.696ZM587.651 93.848C587.843 93.848 587.939 94.04 587.939 94.424C587.939 94.808 587.843 95 587.651 95C585.667 95 584.099 94.968 582.947 94.904L576.323 94.808L569.219 94.904C568.131 94.968 566.627 95 564.707 95C564.515 95 564.419 94.808 564.419 94.424C564.419 94.04 564.515 93.848 564.707 93.848C567.203 93.848 569.027 93.688 570.179 93.368C571.331 93.048 572.099 92.44 572.483 91.544C572.931 90.584 573.155 89.144 573.155 87.224V64.76H536.291V87.224C536.291 89.144 536.483 90.584 536.867 91.544C537.315 92.44 538.115 93.048 539.267 93.368C540.419 93.688 542.243 93.848 544.739 93.848C544.867 93.848 544.931 94.04 544.931 94.424C544.931 94.808 544.867 95 544.739 95C542.755 95 541.187 94.968 540.035 94.904L533.123 94.808L526.499 94.904C525.347 94.968 523.747 95 521.699 95C521.571 95 521.507 94.808 521.507 94.424C521.507 94.04 521.571 93.848 521.699 93.848C524.131 93.848 525.923 93.688 527.075 93.368C528.291 93.048 529.091 92.44 529.475 91.544C529.923 90.584 530.147 89.144 530.147 87.224V42.776C530.147 40.856 529.923 39.448 529.475 38.552C529.091 37.656 528.323 37.048 527.171 36.728C526.019 36.344 524.227 36.152 521.795 36.152C521.667 36.152 521.603 35.96 521.603 35.576C521.603 35.192 521.667 35 521.795 35L526.691 35.096C529.379 35.224 531.523 35.288 533.123 35.288C534.979 35.288 537.315 35.224 540.131 35.096L544.739 35C544.867 35 544.931 35.192 544.931 35.576C544.931 35.96 544.867 36.152 544.739 36.152C542.307 36.152 540.483 36.344 539.267 36.728C538.115 37.112 537.315 37.784 536.867 38.744C536.483 39.64 536.291 41.048 536.291 42.968V62.744H573.155V42.968C573.155 41.048 572.931 39.64 572.483 38.744C572.099 37.784 571.331 37.112 570.179 36.728C569.027 36.344 567.203 36.152 564.707 36.152C564.515 36.152 564.419 35.96 564.419 35.576C564.419 35.192 564.515 35 564.707 35L569.219 35.096C572.035 35.224 574.403 35.288 576.323 35.288C578.051 35.288 580.259 35.224 582.947 35.096L587.651 35C587.843 35 587.939 35.192 587.939 35.576C587.939 35.96 587.843 36.152 587.651 36.152C585.219 36.152 583.427 36.344 582.275 36.728C581.123 37.048 580.323 37.656 579.875 38.552C579.491 39.448 579.299 40.856 579.299 42.776V87.224C579.299 89.144 579.491 90.584 579.875 91.544C580.323 92.44 581.123 93.048 582.275 93.368C583.427 93.688 585.219 93.848 587.651 93.848ZM652.911 33.944C658.735 33.944 663.855 35.384 668.271 38.264C672.687 41.08 676.079 44.824 678.447 49.496C680.879 54.168 682.095 59.128 682.095 64.376C682.095 70.2 680.591 75.544 677.583 80.408C674.639 85.272 670.671 89.112 665.679 91.928C660.687 94.744 655.279 96.152 649.455 96.152C643.695 96.152 638.575 94.776 634.095 92.024C629.679 89.208 626.255 85.432 623.823 80.696C621.391 75.896 620.175 70.68 620.175 65.048V64.76H605.295V87.224C605.295 89.144 605.487 90.584 605.871 91.544C606.319 92.44 607.119 93.048 608.271 93.368C609.423 93.688 611.247 93.848 613.743 93.848C613.871 93.848 613.935 94.04 613.935 94.424C613.935 94.808 613.871 95 613.743 95C611.759 95 610.191 94.968 609.039 94.904L602.127 94.808L595.503 94.904C594.351 94.968 592.751 95 590.703 95C590.575 95 590.511 94.808 590.511 94.424C590.511 94.04 590.575 93.848 590.703 93.848C593.135 93.848 594.927 93.688 596.079 93.368C597.295 93.048 598.095 92.44 598.479 91.544C598.927 90.584 599.151 89.144 599.151 87.224V42.776C599.151 40.856 598.927 39.448 598.479 38.552C598.095 37.656 597.327 37.048 596.175 36.728C595.023 36.344 593.231 36.152 590.799 36.152C590.671 36.152 590.607 35.96 590.607 35.576C590.607 35.192 590.671 35 590.799 35L595.695 35.096C598.383 35.224 600.527 35.288 602.127 35.288C603.983 35.288 606.319 35.224 609.135 35.096L613.743 35C613.871 35 613.935 35.192 613.935 35.576C613.935 35.96 613.871 36.152 613.743 36.152C611.311 36.152 609.487 36.344 608.271 36.728C607.119 37.112 606.319 37.784 605.871 38.744C605.487 39.64 605.295 41.048 605.295 42.968V62.744H620.271C620.655 56.664 622.479 51.448 625.743 47.096C629.071 42.744 633.167 39.48 638.031 37.304C642.895 35.064 647.855 33.944 652.911 33.944ZM652.719 94.136C656.815 94.136 660.495 93.08 663.759 90.968C667.087 88.856 669.711 85.752 671.631 81.656C673.551 77.56 674.511 72.696 674.511 67.064C674.511 61.048 673.423 55.704 671.247 51.032C669.135 46.36 666.127 42.712 662.223 40.088C658.319 37.464 653.775 36.152 648.591 36.152C641.871 36.152 636.623 38.424 632.847 42.968C629.135 47.512 627.279 53.752 627.279 61.688C627.279 67.704 628.335 73.208 630.447 78.2C632.623 83.128 635.631 87.032 639.471 89.912C643.375 92.728 647.791 94.136 652.719 94.136Z" fill="#A68F3C"/>
<path d="M916.5 93.848C916.692 93.848 916.788 94.04 916.788 94.424C916.788 94.808 916.692 95 916.5 95C914.516 95 912.948 94.968 911.796 94.904L905.172 94.808L898.068 94.904C896.98 94.968 895.476 95 893.556 95C893.364 95 893.268 94.808 893.268 94.424C893.268 94.04 893.364 93.848 893.556 93.848C896.052 93.848 897.876 93.688 899.028 93.368C900.18 93.048 900.948 92.44 901.332 91.544C901.78 90.584 902.004 89.144 902.004 87.224V64.76H865.14V87.224C865.14 89.144 865.332 90.584 865.716 91.544C866.164 92.44 866.964 93.048 868.116 93.368C869.268 93.688 871.092 93.848 873.588 93.848C873.716 93.848 873.78 94.04 873.78 94.424C873.78 94.808 873.716 95 873.588 95C871.604 95 870.036 94.968 868.884 94.904L861.972 94.808L855.348 94.904C854.196 94.968 852.596 95 850.548 95C850.42 95 850.356 94.808 850.356 94.424C850.356 94.04 850.42 93.848 850.548 93.848C852.98 93.848 854.772 93.688 855.924 93.368C857.14 93.048 857.94 92.44 858.324 91.544C858.772 90.584 858.996 89.144 858.996 87.224V42.776C858.996 40.856 858.772 39.448 858.324 38.552C857.94 37.656 857.172 37.048 856.02 36.728C854.868 36.344 853.076 36.152 850.644 36.152C850.516 36.152 850.452 35.96 850.452 35.576C850.452 35.192 850.516 35 850.644 35L855.54 35.096C858.228 35.224 860.372 35.288 861.972 35.288C863.828 35.288 866.164 35.224 868.98 35.096L873.588 35C873.716 35 873.78 35.192 873.78 35.576C873.78 35.96 873.716 36.152 873.588 36.152C871.156 36.152 869.332 36.344 868.116 36.728C866.964 37.112 866.164 37.784 865.716 38.744C865.332 39.64 865.14 41.048 865.14 42.968V62.744H902.004V42.968C902.004 41.048 901.78 39.64 901.332 38.744C900.948 37.784 900.18 37.112 899.028 36.728C897.876 36.344 896.052 36.152 893.556 36.152C893.364 36.152 893.268 35.96 893.268 35.576C893.268 35.192 893.364 35 893.556 35L898.068 35.096C900.884 35.224 903.252 35.288 905.172 35.288C906.9 35.288 909.108 35.224 911.796 35.096L916.5 35C916.692 35 916.788 35.192 916.788 35.576C916.788 35.96 916.692 36.152 916.5 36.152C914.068 36.152 912.276 36.344 911.124 36.728C909.972 37.048 909.172 37.656 908.724 38.552C908.34 39.448 908.148 40.856 908.148 42.776V87.224C908.148 89.144 908.34 90.584 908.724 91.544C909.172 92.44 909.972 93.048 911.124 93.368C912.276 93.688 914.068 93.848 916.5 93.848ZM983.296 93.848C983.552 93.848 983.68 94.04 983.68 94.424C983.68 94.808 983.552 95 983.296 95C982.08 95 980.192 94.936 977.632 94.808C975.072 94.68 973.216 94.616 972.064 94.616C970.656 94.616 968.864 94.68 966.688 94.808C964.64 94.936 963.072 95 961.984 95C961.728 95 961.6 94.808 961.6 94.424C961.6 94.04 961.728 93.848 961.984 93.848C964.352 93.848 966.08 93.624 967.168 93.176C968.256 92.728 968.8 91.96 968.8 90.872C968.8 89.976 968.384 88.6 967.552 86.744L959.008 68.6H936.16L930.112 82.808C929.216 84.984 928.768 86.744 928.768 88.088C928.768 90.072 929.536 91.544 931.072 92.504C932.672 93.4 935.04 93.848 938.176 93.848C938.496 93.848 938.656 94.04 938.656 94.424C938.656 94.808 938.496 95 938.176 95C937.024 95 935.36 94.936 933.184 94.808C930.752 94.68 928.64 94.616 926.848 94.616C925.184 94.616 923.264 94.68 921.088 94.808C919.168 94.936 917.568 95 916.288 95C915.968 95 915.808 94.808 915.808 94.424C915.808 94.04 915.968 93.848 916.288 93.848C918.08 93.848 919.584 93.528 920.8 92.888C922.08 92.184 923.264 91 924.352 89.336C925.504 87.608 926.752 85.144 928.096 81.944L948.352 34.136C948.48 33.944 948.704 33.848 949.024 33.848C949.344 33.848 949.536 33.944 949.6 34.136L972.256 81.848C974.432 86.584 976.288 89.784 977.824 91.448C979.36 93.048 981.184 93.848 983.296 93.848ZM936.928 66.68H958.144L946.912 42.968L936.928 66.68ZM983.118 95C982.99 95 982.926 94.808 982.926 94.424C982.926 94.04 982.99 93.848 983.118 93.848C985.55 93.848 987.342 93.688 988.494 93.368C989.71 93.048 990.51 92.44 990.894 91.544C991.342 90.584 991.566 89.144 991.566 87.224V42.776C991.566 40.856 991.342 39.448 990.894 38.552C990.51 37.656 989.71 37.048 988.494 36.728C987.342 36.344 985.55 36.152 983.118 36.152C982.99 36.152 982.926 35.96 982.926 35.576C982.926 35.192 982.99 35 983.118 35L987.918 35.096C990.606 35.224 992.782 35.288 994.446 35.288C996.174 35.288 998.318 35.224 1000.88 35.096L1005.1 35C1005.29 35 1005.39 35.192 1005.39 35.576C1005.39 35.96 1005.29 36.152 1005.1 36.152C1002.93 36.152 1001.33 36.344 1000.3 36.728C999.278 37.048 998.574 37.656 998.19 38.552C997.87 39.448 997.71 40.856 997.71 42.776V87.032C997.71 89.208 997.806 90.648 997.998 91.352C998.254 92.056 998.83 92.504 999.726 92.696C1000.62 92.888 1002.45 92.984 1005.2 92.984H1018.06C1020.88 92.984 1022.77 92.888 1023.73 92.696C1024.75 92.504 1025.39 92.056 1025.65 91.352C1025.9 90.584 1026.03 89.144 1026.03 87.032V42.776C1026.03 40.856 1025.84 39.448 1025.45 38.552C1025.13 37.656 1024.46 37.048 1023.44 36.728C1022.41 36.344 1020.81 36.152 1018.64 36.152C1018.45 36.152 1018.35 35.96 1018.35 35.576C1018.35 35.192 1018.45 35 1018.64 35L1023.25 35.096C1025.81 35.224 1027.79 35.288 1029.2 35.288C1030.8 35.288 1032.81 35.224 1035.25 35.096L1039.76 35C1039.95 35 1040.05 35.192 1040.05 35.576C1040.05 35.96 1039.95 36.152 1039.76 36.152C1037.58 36.152 1035.95 36.344 1034.86 36.728C1033.84 37.048 1033.13 37.656 1032.75 38.552C1032.43 39.448 1032.27 40.856 1032.27 42.776V87.224C1032.27 89.08 1032.49 90.424 1032.94 91.256C1033.45 92.024 1034.25 92.504 1035.34 92.696C1036.49 92.888 1038.35 92.984 1040.91 92.984H1052.53C1055.41 92.984 1057.33 92.888 1058.29 92.696C1059.25 92.504 1059.85 92.056 1060.11 91.352C1060.37 90.648 1060.49 89.208 1060.49 87.032V42.776C1060.49 40.856 1060.3 39.448 1059.92 38.552C1059.6 37.656 1058.93 37.048 1057.9 36.728C1056.88 36.344 1055.28 36.152 1053.1 36.152C1052.91 36.152 1052.81 35.96 1052.81 35.576C1052.81 35.192 1052.91 35 1053.1 35L1057.52 35.096C1060.08 35.224 1062.16 35.288 1063.76 35.288C1065.42 35.288 1067.6 35.224 1070.29 35.096L1075.09 35C1075.28 35 1075.37 35.192 1075.37 35.576C1075.37 35.96 1075.28 36.152 1075.09 36.152C1072.65 36.152 1070.83 36.344 1069.61 36.728C1068.46 37.048 1067.66 37.656 1067.21 38.552C1066.83 39.448 1066.64 40.856 1066.64 42.776V87.224C1066.64 89.144 1066.83 90.584 1067.21 91.544C1067.66 92.44 1068.46 93.048 1069.61 93.368C1070.83 93.688 1072.65 93.848 1075.09 93.848C1075.28 93.848 1075.37 94.04 1075.37 94.424C1075.37 94.808 1075.28 95 1075.09 95H983.118ZM1120.42 80.696C1120.42 80.568 1120.55 80.504 1120.81 80.504C1121 80.504 1121.16 80.536 1121.29 80.6C1121.48 80.664 1121.58 80.76 1121.58 80.888C1121 84.92 1120.71 89.144 1120.71 93.56C1120.71 94.072 1120.58 94.456 1120.33 94.712C1120.14 94.904 1119.75 95 1119.18 95H1078.95C1078.82 95 1078.76 94.808 1078.76 94.424C1078.76 94.04 1078.82 93.848 1078.95 93.848C1081.38 93.848 1083.14 93.688 1084.23 93.368C1085.38 93.048 1086.15 92.44 1086.54 91.544C1086.98 90.584 1087.21 89.144 1087.21 87.224V42.776C1087.21 40.856 1086.98 39.448 1086.54 38.552C1086.15 37.656 1085.38 37.048 1084.23 36.728C1083.14 36.344 1081.38 36.152 1078.95 36.152C1078.82 36.152 1078.76 35.96 1078.76 35.576C1078.76 35.192 1078.82 35 1078.95 35H1117.54C1118.12 35 1118.41 35.288 1118.41 35.864L1118.6 47.672C1118.6 47.864 1118.44 47.992 1118.12 48.056C1117.8 48.056 1117.61 47.96 1117.54 47.768C1117.35 44.376 1116.33 41.752 1114.47 39.896C1112.62 37.976 1110.15 37.016 1107.08 37.016H1101.22C1098.98 37.016 1097.32 37.208 1096.23 37.592C1095.21 37.912 1094.47 38.52 1094.02 39.416C1093.64 40.248 1093.45 41.528 1093.45 43.256V62.744H1105.16C1108.23 62.744 1110.41 62.232 1111.69 61.208C1113.03 60.184 1113.7 58.456 1113.7 56.024C1113.7 55.896 1113.9 55.832 1114.28 55.832C1114.66 55.832 1114.86 55.896 1114.86 56.024L1114.76 63.8C1114.76 65.656 1114.79 67.064 1114.86 68.024L1114.95 72.632C1114.95 72.76 1114.76 72.824 1114.38 72.824C1113.99 72.824 1113.8 72.76 1113.8 72.632C1113.8 69.816 1113.1 67.8 1111.69 66.584C1110.34 65.368 1108.07 64.76 1104.87 64.76H1093.45V86.84C1093.45 88.632 1093.64 89.944 1094.02 90.776C1094.41 91.608 1095.11 92.184 1096.14 92.504C1097.16 92.824 1098.76 92.984 1100.94 92.984H1108.62C1111.69 92.984 1114.25 91.896 1116.3 89.72C1118.34 87.544 1119.72 84.536 1120.42 80.696ZM1219.16 93.848C1219.35 93.848 1219.45 94.04 1219.45 94.424C1219.45 94.808 1219.35 95 1219.16 95C1217.17 95 1215.61 94.968 1214.45 94.904L1207.83 94.808L1201.69 94.904C1200.66 94.968 1199.22 95 1197.37 95C1197.24 95 1197.17 94.808 1197.17 94.424C1197.17 94.04 1197.24 93.848 1197.37 93.848C1199.54 93.848 1201.14 93.688 1202.17 93.368C1203.25 92.984 1203.96 92.344 1204.28 91.448C1204.66 90.552 1204.79 89.144 1204.66 87.224L1202.93 43.544L1181.05 94.328C1180.92 94.584 1180.66 94.712 1180.28 94.712C1179.96 94.712 1179.67 94.584 1179.41 94.328L1155.8 44.12L1154.93 84.536C1154.87 87.928 1155.45 90.328 1156.66 91.736C1157.88 93.144 1160.02 93.848 1163.09 93.848C1163.22 93.848 1163.29 94.04 1163.29 94.424C1163.29 94.808 1163.22 95 1163.09 95C1161.3 95 1159.93 94.968 1158.97 94.904L1153.78 94.808L1148.79 94.904C1147.89 94.968 1146.61 95 1144.95 95C1144.82 95 1144.76 94.808 1144.76 94.424C1144.76 94.04 1144.82 93.848 1144.95 93.848C1147.64 93.848 1149.56 93.144 1150.71 91.736C1151.93 90.264 1152.57 87.864 1152.63 84.536L1153.49 39.992C1151.57 37.432 1148.95 36.152 1145.62 36.152C1145.49 36.152 1145.43 35.96 1145.43 35.576C1145.43 35.192 1145.49 35 1145.62 35L1149.17 35.096C1149.81 35.16 1150.71 35.192 1151.86 35.192C1153.01 35.192 1153.97 35.16 1154.74 35.096C1155.57 35.032 1156.21 35 1156.66 35C1157.49 35 1158.17 35.32 1158.68 35.96C1159.25 36.536 1160.05 37.88 1161.08 39.992L1182.49 85.112L1203.41 37.4C1204.12 35.8 1205.08 35 1206.29 35C1206.61 35 1207.06 35.032 1207.64 35.096C1208.28 35.16 1209.11 35.192 1210.13 35.192L1214.65 35.096C1215.35 35.032 1216.41 35 1217.81 35C1218.01 35 1218.1 35.192 1218.1 35.576C1218.1 35.96 1218.01 36.152 1217.81 36.152C1214.61 36.152 1212.31 36.632 1210.9 37.592C1209.56 38.488 1208.92 40.216 1208.98 42.776L1210.9 87.224C1210.97 89.208 1211.19 90.648 1211.57 91.544C1212.02 92.44 1212.79 93.048 1213.88 93.368C1214.97 93.688 1216.73 93.848 1219.16 93.848ZM1263.22 80.696C1263.22 80.568 1263.34 80.504 1263.6 80.504C1263.79 80.504 1263.95 80.536 1264.08 80.6C1264.27 80.664 1264.37 80.76 1264.37 80.888C1263.79 84.92 1263.5 89.144 1263.5 93.56C1263.5 94.072 1263.38 94.456 1263.12 94.712C1262.93 94.904 1262.54 95 1261.97 95H1221.74C1221.62 95 1221.55 94.808 1221.55 94.424C1221.55 94.04 1221.62 93.848 1221.74 93.848C1224.18 93.848 1225.94 93.688 1227.02 93.368C1228.18 93.048 1228.94 92.44 1229.33 91.544C1229.78 90.584 1230 89.144 1230 87.224V42.776C1230 40.856 1229.78 39.448 1229.33 38.552C1228.94 37.656 1228.18 37.048 1227.02 36.728C1225.94 36.344 1224.18 36.152 1221.74 36.152C1221.62 36.152 1221.55 35.96 1221.55 35.576C1221.55 35.192 1221.62 35 1221.74 35H1260.34C1260.91 35 1261.2 35.288 1261.2 35.864L1261.39 47.672C1261.39 47.864 1261.23 47.992 1260.91 48.056C1260.59 48.056 1260.4 47.96 1260.34 47.768C1260.14 44.376 1259.12 41.752 1257.26 39.896C1255.41 37.976 1252.94 37.016 1249.87 37.016H1244.02C1241.78 37.016 1240.11 37.208 1239.02 37.592C1238 37.912 1237.26 38.52 1236.82 39.416C1236.43 40.248 1236.24 41.528 1236.24 43.256V62.744H1247.95C1251.02 62.744 1253.2 62.232 1254.48 61.208C1255.82 60.184 1256.5 58.456 1256.5 56.024C1256.5 55.896 1256.69 55.832 1257.07 55.832C1257.46 55.832 1257.65 55.896 1257.65 56.024L1257.55 63.8C1257.55 65.656 1257.58 67.064 1257.65 68.024L1257.74 72.632C1257.74 72.76 1257.55 72.824 1257.17 72.824C1256.78 72.824 1256.59 72.76 1256.59 72.632C1256.59 69.816 1255.89 67.8 1254.48 66.584C1253.14 65.368 1250.86 64.76 1247.66 64.76H1236.24V86.84C1236.24 88.632 1236.43 89.944 1236.82 90.776C1237.2 91.608 1237.9 92.184 1238.93 92.504C1239.95 92.824 1241.55 92.984 1243.73 92.984H1251.41C1254.48 92.984 1257.04 91.896 1259.09 89.72C1261.14 87.544 1262.51 84.536 1263.22 80.696ZM1334.65 93.848C1334.84 93.848 1334.94 94.04 1334.94 94.424C1334.94 94.808 1334.84 95 1334.65 95C1332.67 95 1331.1 94.968 1329.95 94.904L1323.32 94.808L1316.22 94.904C1315.13 94.968 1313.63 95 1311.71 95C1311.52 95 1311.42 94.808 1311.42 94.424C1311.42 94.04 1311.52 93.848 1311.71 93.848C1314.2 93.848 1316.03 93.688 1317.18 93.368C1318.33 93.048 1319.1 92.44 1319.48 91.544C1319.93 90.584 1320.16 89.144 1320.16 87.224V64.76H1283.29V87.224C1283.29 89.144 1283.48 90.584 1283.87 91.544C1284.32 92.44 1285.12 93.048 1286.27 93.368C1287.42 93.688 1289.24 93.848 1291.74 93.848C1291.87 93.848 1291.93 94.04 1291.93 94.424C1291.93 94.808 1291.87 95 1291.74 95C1289.76 95 1288.19 94.968 1287.04 94.904L1280.12 94.808L1273.5 94.904C1272.35 94.968 1270.75 95 1268.7 95C1268.57 95 1268.51 94.808 1268.51 94.424C1268.51 94.04 1268.57 93.848 1268.7 93.848C1271.13 93.848 1272.92 93.688 1274.08 93.368C1275.29 93.048 1276.09 92.44 1276.48 91.544C1276.92 90.584 1277.15 89.144 1277.15 87.224V42.776C1277.15 40.856 1276.92 39.448 1276.48 38.552C1276.09 37.656 1275.32 37.048 1274.17 36.728C1273.02 36.344 1271.23 36.152 1268.8 36.152C1268.67 36.152 1268.6 35.96 1268.6 35.576C1268.6 35.192 1268.67 35 1268.8 35L1273.69 35.096C1276.38 35.224 1278.52 35.288 1280.12 35.288C1281.98 35.288 1284.32 35.224 1287.13 35.096L1291.74 35C1291.87 35 1291.93 35.192 1291.93 35.576C1291.93 35.96 1291.87 36.152 1291.74 36.152C1289.31 36.152 1287.48 36.344 1286.27 36.728C1285.12 37.112 1284.32 37.784 1283.87 38.744C1283.48 39.64 1283.29 41.048 1283.29 42.968V62.744H1320.16V42.968C1320.16 41.048 1319.93 39.64 1319.48 38.744C1319.1 37.784 1318.33 37.112 1317.18 36.728C1316.03 36.344 1314.2 36.152 1311.71 36.152C1311.52 36.152 1311.42 35.96 1311.42 35.576C1311.42 35.192 1311.52 35 1311.71 35L1316.22 35.096C1319.04 35.224 1321.4 35.288 1323.32 35.288C1325.05 35.288 1327.26 35.224 1329.95 35.096L1334.65 35C1334.84 35 1334.94 35.192 1334.94 35.576C1334.94 35.96 1334.84 36.152 1334.65 36.152C1332.22 36.152 1330.43 36.344 1329.28 36.728C1328.12 37.048 1327.32 37.656 1326.88 38.552C1326.49 39.448 1326.3 40.856 1326.3 42.776V87.224C1326.3 89.144 1326.49 90.584 1326.88 91.544C1327.32 92.44 1328.12 93.048 1329.28 93.368C1330.43 93.688 1332.22 93.848 1334.65 93.848ZM1399.91 33.944C1405.74 33.944 1410.86 35.384 1415.27 38.264C1419.69 41.08 1423.08 44.824 1425.45 49.496C1427.88 54.168 1429.1 59.128 1429.1 64.376C1429.1 70.2 1427.59 75.544 1424.58 80.408C1421.64 85.272 1417.67 89.112 1412.68 91.928C1407.69 94.744 1402.28 96.152 1396.46 96.152C1390.7 96.152 1385.58 94.776 1381.1 92.024C1376.68 89.208 1373.26 85.432 1370.82 80.696C1368.39 75.896 1367.18 70.68 1367.18 65.048V64.76H1352.3V87.224C1352.3 89.144 1352.49 90.584 1352.87 91.544C1353.32 92.44 1354.12 93.048 1355.27 93.368C1356.42 93.688 1358.25 93.848 1360.74 93.848C1360.87 93.848 1360.94 94.04 1360.94 94.424C1360.94 94.808 1360.87 95 1360.74 95C1358.76 95 1357.19 94.968 1356.04 94.904L1349.13 94.808L1342.5 94.904C1341.35 94.968 1339.75 95 1337.7 95C1337.58 95 1337.51 94.808 1337.51 94.424C1337.51 94.04 1337.58 93.848 1337.7 93.848C1340.14 93.848 1341.93 93.688 1343.08 93.368C1344.3 93.048 1345.1 92.44 1345.48 91.544C1345.93 90.584 1346.15 89.144 1346.15 87.224V42.776C1346.15 40.856 1345.93 39.448 1345.48 38.552C1345.1 37.656 1344.33 37.048 1343.18 36.728C1342.02 36.344 1340.23 36.152 1337.8 36.152C1337.67 36.152 1337.61 35.96 1337.61 35.576C1337.61 35.192 1337.67 35 1337.8 35L1342.7 35.096C1345.38 35.224 1347.53 35.288 1349.13 35.288C1350.98 35.288 1353.32 35.224 1356.14 35.096L1360.74 35C1360.87 35 1360.94 35.192 1360.94 35.576C1360.94 35.96 1360.87 36.152 1360.74 36.152C1358.31 36.152 1356.49 36.344 1355.27 36.728C1354.12 37.112 1353.32 37.784 1352.87 38.744C1352.49 39.64 1352.3 41.048 1352.3 42.968V62.744H1367.27C1367.66 56.664 1369.48 51.448 1372.74 47.096C1376.07 42.744 1380.17 39.48 1385.03 37.304C1389.9 35.064 1394.86 33.944 1399.91 33.944ZM1399.72 94.136C1403.82 94.136 1407.5 93.08 1410.76 90.968C1414.09 88.856 1416.71 85.752 1418.63 81.656C1420.55 77.56 1421.51 72.696 1421.51 67.064C1421.51 61.048 1420.42 55.704 1418.25 51.032C1416.14 46.36 1413.13 42.712 1409.22 40.088C1405.32 37.464 1400.78 36.152 1395.59 36.152C1388.87 36.152 1383.62 38.424 1379.85 42.968C1376.14 47.512 1374.28 53.752 1374.28 61.688C1374.28 67.704 1375.34 73.208 1377.45 78.2C1379.62 83.128 1382.63 87.032 1386.47 89.912C1390.38 92.728 1394.79 94.136 1399.72 94.136Z" fill="#A68F3C"/>
<rect x="-1393.5" y="0.5" width="3574" height="127" stroke="#A68F3C"/>
</svg>
