<svg width="429" height="62" viewBox="0 0 429 62" fill="none" xmlns="http://www.w3.org/2000/svg">
<path d="M63.6575 58.872C63.8455 58.872 63.9395 59.06 63.9395 59.436C63.9395 59.812 63.8455 60 63.6575 60C61.6522 60 60.0855 59.9687 58.9575 59.906L52.5655 59.812L45.8915 59.906C44.7635 59.9687 43.2282 60 41.2855 60C41.0975 60 41.0035 59.812 41.0035 59.436C41.0035 59.06 41.0975 58.872 41.2855 58.872C43.6669 58.872 45.4215 58.7153 46.5495 58.402C47.6775 58.0887 48.4295 57.4933 48.8055 56.616C49.1815 55.676 49.3695 54.266 49.3695 52.386V9.24C49.3695 7.10933 49.2442 5.69933 48.9935 5.01C48.8055 4.32066 48.2729 3.882 47.3955 3.694C46.5182 3.506 44.7322 3.41199 42.0375 3.41199H22.7675C19.9475 3.41199 18.0675 3.506 17.1275 3.694C16.1875 3.882 15.5922 4.352 15.3415 5.104C15.0909 5.79333 14.9655 7.172 14.9655 9.24V52.386C14.9655 54.266 15.1535 55.676 15.5295 56.616C15.9682 57.4933 16.7202 58.0887 17.7855 58.402C18.9135 58.7153 20.6995 58.872 23.1435 58.872C23.2689 58.872 23.3315 59.06 23.3315 59.436C23.3315 59.812 23.2689 60 23.1435 60C21.2009 60 19.6655 59.9687 18.5375 59.906L11.7695 59.812L5.37754 59.906C4.24954 59.9687 2.68288 60 0.677543 60C0.552209 60 0.489543 59.812 0.489543 59.436C0.489543 59.06 0.552209 58.872 0.677543 58.872C3.05888 58.872 4.81354 58.7153 5.94154 58.402C7.13221 58.0887 7.91554 57.4933 8.29154 56.616C8.73021 55.676 8.94954 54.266 8.94954 52.386V9.992C8.94954 8.04933 8.73021 6.54533 8.29154 5.48C7.91554 4.41467 7.13221 3.63133 5.94154 3.13C4.75088 2.62866 3.02754 2.378 0.771543 2.378C0.64621 2.378 0.583543 2.19 0.583543 1.814C0.583543 1.438 0.64621 1.25 0.771543 1.25C2.90221 1.25 4.93888 1.28133 6.88154 1.344C15.0282 1.46933 23.5822 1.532 32.5435 1.532C40.6902 1.532 50.0275 1.438 60.5555 1.25H63.6575C63.8455 1.25 63.9395 1.438 63.9395 1.814C63.9395 2.19 63.8455 2.378 63.6575 2.378C60.3989 2.378 58.2055 2.942 57.0775 4.07C56.0122 5.198 55.4795 7.172 55.4795 9.992V52.386C55.4795 54.266 55.6675 55.676 56.0435 56.616C56.4822 57.4933 57.2655 58.0887 58.3935 58.402C59.5215 58.7153 61.2762 58.872 63.6575 58.872ZM107.951 45.994C107.951 45.8687 108.077 45.806 108.327 45.806C108.515 45.806 108.672 45.8373 108.797 45.9C108.985 45.9627 109.079 46.0567 109.079 46.182C108.515 50.13 108.233 54.266 108.233 58.59C108.233 59.0913 108.108 59.4673 107.857 59.718C107.669 59.906 107.293 60 106.729 60H67.3434C67.218 60 67.1554 59.812 67.1554 59.436C67.1554 59.06 67.218 58.872 67.3434 58.872C69.7247 58.872 71.448 58.7153 72.5134 58.402C73.6414 58.0887 74.3934 57.4933 74.7694 56.616C75.208 55.676 75.4274 54.266 75.4274 52.386V8.864C75.4274 6.984 75.208 5.60533 74.7694 4.728C74.3934 3.85066 73.6414 3.25533 72.5134 2.942C71.448 2.566 69.7247 2.378 67.3434 2.378C67.218 2.378 67.1554 2.19 67.1554 1.814C67.1554 1.438 67.218 1.25 67.3434 1.25H105.131C105.695 1.25 105.977 1.532 105.977 2.09599L106.165 13.658C106.165 13.846 106.009 13.9713 105.695 14.034C105.382 14.034 105.194 13.94 105.131 13.752C104.943 10.4307 103.941 7.86133 102.123 6.044C100.306 4.164 97.8934 3.224 94.8854 3.224H89.1514C86.958 3.224 85.3287 3.412 84.2634 3.788C83.2607 4.10133 82.54 4.69666 82.1014 5.57399C81.7254 6.38866 81.5374 7.642 81.5374 9.334V28.416H93.0054C96.0134 28.416 98.144 27.9147 99.3974 26.912C100.713 25.9093 101.371 24.2173 101.371 21.836C101.371 21.7107 101.559 21.648 101.935 21.648C102.311 21.648 102.499 21.7107 102.499 21.836L102.405 29.45C102.405 31.2673 102.437 32.646 102.499 33.586L102.593 38.098C102.593 38.2233 102.405 38.286 102.029 38.286C101.653 38.286 101.465 38.2233 101.465 38.098C101.465 35.3407 100.776 33.3667 99.3974 32.176C98.0814 30.9853 95.8567 30.39 92.7234 30.39H81.5374V52.01C81.5374 53.7647 81.7254 55.0493 82.1014 55.864C82.4774 56.6787 83.1667 57.2427 84.1694 57.556C85.172 57.8693 86.7387 58.026 88.8694 58.026H96.3894C99.3974 58.026 101.904 56.9607 103.909 54.83C105.915 52.6993 107.262 49.754 107.951 45.994ZM128.078 52.01C128.078 54.0153 128.328 55.488 128.83 56.428C129.394 57.3053 130.428 57.932 131.932 58.308C133.498 58.684 135.942 58.872 139.264 58.872C139.452 58.872 139.546 59.06 139.546 59.436C139.546 59.812 139.452 60 139.264 60C136.694 60 134.689 59.9687 133.248 59.906L125.07 59.812L118.772 59.906C117.581 59.9687 115.983 60 113.978 60C113.852 60 113.79 59.812 113.79 59.436C113.79 59.06 113.852 58.872 113.978 58.872C116.359 58.872 118.082 58.7153 119.148 58.402C120.276 58.0887 121.028 57.4933 121.404 56.616C121.78 55.676 121.968 54.266 121.968 52.386V8.864C121.968 6.984 121.78 5.60533 121.404 4.728C121.028 3.85066 120.276 3.25533 119.148 2.942C118.082 2.566 116.359 2.378 113.978 2.378C113.852 2.378 113.79 2.19 113.79 1.814C113.79 1.438 113.852 1.25 113.978 1.25L118.678 1.344C121.31 1.46933 123.409 1.532 124.976 1.532C126.542 1.532 128.297 1.438 130.24 1.25C130.992 1.25 132.182 1.21867 133.812 1.156C135.441 1.03066 136.851 0.967998 138.042 0.967998C143.807 0.967998 148.413 2.25266 151.86 4.822C155.369 7.39133 157.124 11.308 157.124 16.572C157.124 20.708 156.09 24.186 154.022 27.006C152.016 29.826 149.416 31.9253 146.22 33.304C143.086 34.6827 139.828 35.372 136.444 35.372C134.564 35.372 133.028 35.2153 131.838 34.902C131.65 34.902 131.556 34.7453 131.556 34.432C131.556 34.244 131.587 34.056 131.65 33.868C131.775 33.68 131.9 33.6173 132.026 33.68C133.028 33.9307 134.156 34.056 135.41 34.056C139.546 34.056 143.024 32.7087 145.844 30.014C148.726 27.3193 150.168 23.434 150.168 18.358C150.168 13.4073 148.82 9.522 146.126 6.702C143.431 3.81933 139.984 2.378 135.786 2.378C133.53 2.378 131.9 2.50333 130.898 2.754C129.895 3.00466 129.174 3.6 128.736 4.54C128.297 5.41733 128.078 6.92133 128.078 9.05199V52.01ZM201.959 45.994C201.959 45.8687 202.084 45.806 202.335 45.806C202.523 45.806 202.679 45.8373 202.805 45.9C202.993 45.9627 203.087 46.0567 203.087 46.182C202.523 50.13 202.241 54.266 202.241 58.59C202.241 59.0913 202.115 59.4673 201.865 59.718C201.677 59.906 201.301 60 200.737 60H161.351C161.225 60 161.163 59.812 161.163 59.436C161.163 59.06 161.225 58.872 161.351 58.872C163.732 58.872 165.455 58.7153 166.521 58.402C167.649 58.0887 168.401 57.4933 168.777 56.616C169.215 55.676 169.435 54.266 169.435 52.386V8.864C169.435 6.984 169.215 5.60533 168.777 4.728C168.401 3.85066 167.649 3.25533 166.521 2.942C165.455 2.566 163.732 2.378 161.351 2.378C161.225 2.378 161.163 2.19 161.163 1.814C161.163 1.438 161.225 1.25 161.351 1.25H199.139C199.703 1.25 199.985 1.532 199.985 2.09599L200.173 13.658C200.173 13.846 200.016 13.9713 199.703 14.034C199.389 14.034 199.201 13.94 199.139 13.752C198.951 10.4307 197.948 7.86133 196.131 6.044C194.313 4.164 191.901 3.224 188.893 3.224H183.159C180.965 3.224 179.336 3.412 178.271 3.788C177.268 4.10133 176.547 4.69666 176.109 5.57399C175.733 6.38866 175.545 7.642 175.545 9.334V28.416H187.013C190.021 28.416 192.151 27.9147 193.405 26.912C194.721 25.9093 195.379 24.2173 195.379 21.836C195.379 21.7107 195.567 21.648 195.943 21.648C196.319 21.648 196.507 21.7107 196.507 21.836L196.413 29.45C196.413 31.2673 196.444 32.646 196.507 33.586L196.601 38.098C196.601 38.2233 196.413 38.286 196.037 38.286C195.661 38.286 195.473 38.2233 195.473 38.098C195.473 35.3407 194.783 33.3667 193.405 32.176C192.089 30.9853 189.864 30.39 186.731 30.39H175.545V52.01C175.545 53.7647 175.733 55.0493 176.109 55.864C176.485 56.6787 177.174 57.2427 178.177 57.556C179.179 57.8693 180.746 58.026 182.877 58.026H190.397C193.405 58.026 195.911 56.9607 197.917 54.83C199.922 52.6993 201.269 49.754 201.959 45.994ZM235.245 26.912C240.196 27.288 244.175 28.9487 247.183 31.894C250.254 34.7767 251.789 38.38 251.789 42.704C251.789 46.0253 250.974 49.0333 249.345 51.728C247.716 54.4227 245.46 56.5533 242.577 58.12C239.757 59.624 236.592 60.376 233.083 60.376C231.015 60.376 228.759 60.282 226.315 60.094C225.438 60.0313 224.404 59.9687 223.213 59.906C222.022 59.8433 220.706 59.812 219.265 59.812L212.873 59.906C211.745 59.9687 210.147 60 208.079 60C207.954 60 207.891 59.812 207.891 59.436C207.891 59.06 207.954 58.872 208.079 58.872C210.398 58.872 212.121 58.7153 213.249 58.402C214.377 58.026 215.16 57.3993 215.599 56.522C216.038 55.6447 216.257 54.266 216.257 52.386V8.864C216.257 6.984 216.038 5.60533 215.599 4.728C215.223 3.85066 214.471 3.25533 213.343 2.942C212.278 2.566 210.586 2.378 208.267 2.378C208.079 2.378 207.985 2.19 207.985 1.814C207.985 1.438 208.079 1.25 208.267 1.25L212.873 1.344C215.505 1.46933 217.636 1.532 219.265 1.532C220.393 1.532 221.427 1.50066 222.367 1.438C223.37 1.37533 224.216 1.31267 224.905 1.25C226.848 1.062 228.665 0.967998 230.357 0.967998C235.621 0.967998 239.569 2.12733 242.201 4.446C244.833 6.702 246.149 9.67867 246.149 13.376C246.149 16.384 245.178 19.0787 243.235 21.46C241.292 23.7787 238.629 25.596 235.245 26.912ZM228.383 2.378C226.754 2.378 225.532 2.53466 224.717 2.848C223.902 3.09866 223.307 3.694 222.931 4.634C222.555 5.51133 222.367 6.984 222.367 9.05199V26.912L226.597 27.006C231.172 27.006 234.556 25.8467 236.749 23.528C238.942 21.1467 240.039 18.0133 240.039 14.128C240.039 10.6187 239.068 7.79866 237.125 5.668C235.245 3.47466 232.331 2.378 228.383 2.378ZM231.673 58.684C236.248 58.684 239.632 57.5247 241.825 55.206C244.081 52.8247 245.209 49.4407 245.209 45.054C245.209 40.2913 243.799 36.4373 240.979 33.492C238.222 30.5467 234.399 29.0427 229.511 28.98C227.506 28.9173 225.124 28.98 222.367 29.168V52.386C222.367 54.0153 222.586 55.2687 223.025 56.146C223.526 57.0233 224.435 57.6813 225.751 58.12C227.13 58.496 229.104 58.684 231.673 58.684ZM318.399 58.872C318.65 58.872 318.775 59.06 318.775 59.436C318.775 59.812 318.65 60 318.399 60C317.208 60 315.36 59.9373 312.853 59.812C310.346 59.6867 308.529 59.624 307.401 59.624C306.022 59.624 304.268 59.6867 302.137 59.812C300.132 59.9373 298.596 60 297.531 60C297.28 60 297.155 59.812 297.155 59.436C297.155 59.06 297.28 58.872 297.531 58.872C299.85 58.872 301.542 58.6527 302.607 58.214C303.672 57.7753 304.205 57.0233 304.205 55.958C304.205 55.0807 303.798 53.7333 302.983 51.916L294.617 34.15H272.245L266.323 48.062C265.446 50.1927 265.007 51.916 265.007 53.232C265.007 55.1747 265.759 56.616 267.263 57.556C268.83 58.4333 271.148 58.872 274.219 58.872C274.532 58.872 274.689 59.06 274.689 59.436C274.689 59.812 274.532 60 274.219 60C273.091 60 271.462 59.9373 269.331 59.812C266.95 59.6867 264.882 59.624 263.127 59.624C261.498 59.624 259.618 59.6867 257.487 59.812C255.607 59.9373 254.04 60 252.787 60C252.474 60 252.317 59.812 252.317 59.436C252.317 59.06 252.474 58.872 252.787 58.872C254.542 58.872 256.014 58.5587 257.205 57.932C258.458 57.2427 259.618 56.0833 260.683 54.454C261.811 52.762 263.033 50.3493 264.349 47.216L284.183 0.404C284.308 0.215998 284.528 0.121998 284.841 0.121998C285.154 0.121998 285.342 0.215998 285.405 0.404L307.589 47.122C309.72 51.7593 311.537 54.8927 313.041 56.522C314.545 58.0887 316.331 58.872 318.399 58.872ZM272.997 32.27H293.771L282.773 9.05199L272.997 32.27ZM318.883 60C318.758 60 318.695 59.812 318.695 59.436C318.695 59.06 318.758 58.872 318.883 58.872C321.264 58.872 323.019 58.7153 324.147 58.402C325.275 58.0887 326.027 57.4933 326.403 56.616C326.842 55.676 327.061 54.266 327.061 52.386V8.864C327.061 6.984 326.842 5.60533 326.403 4.728C326.027 3.85066 325.275 3.25533 324.147 2.942C323.082 2.566 321.358 2.378 318.977 2.378C318.852 2.378 318.789 2.19 318.789 1.814C318.789 1.438 318.852 1.25 318.977 1.25H358.739C359.366 1.25 359.679 1.532 359.679 2.09599L359.867 14.41C359.867 14.598 359.679 14.692 359.303 14.692C358.927 14.692 358.739 14.598 358.739 14.41C358.488 10.9007 357.423 8.17467 355.543 6.232C353.663 4.22666 351.219 3.224 348.211 3.224H340.785C338.654 3.224 337.056 3.38066 335.991 3.694C334.926 4.00733 334.174 4.57133 333.735 5.386C333.359 6.20066 333.171 7.39133 333.171 8.958V52.01C333.171 54.0153 333.422 55.488 333.923 56.428C334.487 57.3053 335.552 57.932 337.119 58.308C338.686 58.684 341.161 58.872 344.545 58.872C344.733 58.872 344.827 59.06 344.827 59.436C344.827 59.812 344.733 60 344.545 60C341.976 60 339.97 59.9687 338.529 59.906L330.069 59.812L323.677 59.906C322.549 59.9687 320.951 60 318.883 60ZM428.176 58.872C428.364 58.872 428.458 59.06 428.458 59.436C428.458 59.812 428.364 60 428.176 60C426.234 60 424.667 59.9687 423.476 59.906L416.99 59.812L410.128 59.906C409 59.9687 407.528 60 405.71 60C405.522 60 405.428 59.812 405.428 59.436C405.428 59.06 405.522 58.872 405.71 58.872C408.154 58.872 409.94 58.7153 411.068 58.402C412.196 58.0887 412.948 57.4933 413.324 56.616C413.7 55.7387 413.888 54.3287 413.888 52.386V9.05199L373.468 60.846C373.28 61.0967 372.904 61.222 372.34 61.222C371.4 61.222 370.93 61.0027 370.93 60.564V8.864C370.93 6.984 370.711 5.60533 370.272 4.728C369.896 3.85066 369.113 3.25533 367.922 2.942C366.794 2.566 365.04 2.378 362.658 2.378C362.533 2.378 362.47 2.19 362.47 1.814C362.47 1.438 362.533 1.25 362.658 1.25L367.546 1.344C370.178 1.46933 372.309 1.532 373.938 1.532C375.756 1.532 378.043 1.46933 380.8 1.344L385.218 1.25C385.406 1.25 385.5 1.438 385.5 1.814C385.5 2.19 385.406 2.378 385.218 2.378C382.774 2.378 380.988 2.566 379.86 2.942C378.732 3.25533 377.98 3.85066 377.604 4.728C377.228 5.60533 377.04 6.984 377.04 8.864V52.762L417.554 0.779995C417.742 0.591997 418.087 0.497998 418.588 0.497998C419.528 0.497998 419.998 0.717331 419.998 1.156V52.386C419.998 54.266 420.186 55.676 420.562 56.616C421.001 57.4933 421.784 58.0887 422.912 58.402C424.04 58.7153 425.795 58.872 428.176 58.872Z" fill="#1C356E"/>
<path d="M63.6575 58.872C63.8455 58.872 63.9395 59.06 63.9395 59.436C63.9395 59.812 63.8455 60 63.6575 60C61.6522 60 60.0855 59.9687 58.9575 59.906L52.5655 59.812L45.8915 59.906C44.7635 59.9687 43.2282 60 41.2855 60C41.0975 60 41.0035 59.812 41.0035 59.436C41.0035 59.06 41.0975 58.872 41.2855 58.872C43.6669 58.872 45.4215 58.7153 46.5495 58.402C47.6775 58.0887 48.4295 57.4933 48.8055 56.616C49.1815 55.676 49.3695 54.266 49.3695 52.386V9.24C49.3695 7.10933 49.2442 5.69933 48.9935 5.01C48.8055 4.32066 48.2729 3.882 47.3955 3.694C46.5182 3.506 44.7322 3.41199 42.0375 3.41199H22.7675C19.9475 3.41199 18.0675 3.506 17.1275 3.694C16.1875 3.882 15.5922 4.352 15.3415 5.104C15.0909 5.79333 14.9655 7.172 14.9655 9.24V52.386C14.9655 54.266 15.1535 55.676 15.5295 56.616C15.9682 57.4933 16.7202 58.0887 17.7855 58.402C18.9135 58.7153 20.6995 58.872 23.1435 58.872C23.2689 58.872 23.3315 59.06 23.3315 59.436C23.3315 59.812 23.2689 60 23.1435 60C21.2009 60 19.6655 59.9687 18.5375 59.906L11.7695 59.812L5.37754 59.906C4.24954 59.9687 2.68288 60 0.677543 60C0.552209 60 0.489543 59.812 0.489543 59.436C0.489543 59.06 0.552209 58.872 0.677543 58.872C3.05888 58.872 4.81354 58.7153 5.94154 58.402C7.13221 58.0887 7.91554 57.4933 8.29154 56.616C8.73021 55.676 8.94954 54.266 8.94954 52.386V9.992C8.94954 8.04933 8.73021 6.54533 8.29154 5.48C7.91554 4.41467 7.13221 3.63133 5.94154 3.13C4.75088 2.62866 3.02754 2.378 0.771543 2.378C0.64621 2.378 0.583543 2.19 0.583543 1.814C0.583543 1.438 0.64621 1.25 0.771543 1.25C2.90221 1.25 4.93888 1.28133 6.88154 1.344C15.0282 1.46933 23.5822 1.532 32.5435 1.532C40.6902 1.532 50.0275 1.438 60.5555 1.25H63.6575C63.8455 1.25 63.9395 1.438 63.9395 1.814C63.9395 2.19 63.8455 2.378 63.6575 2.378C60.3989 2.378 58.2055 2.942 57.0775 4.07C56.0122 5.198 55.4795 7.172 55.4795 9.992V52.386C55.4795 54.266 55.6675 55.676 56.0435 56.616C56.4822 57.4933 57.2655 58.0887 58.3935 58.402C59.5215 58.7153 61.2762 58.872 63.6575 58.872ZM107.951 45.994C107.951 45.8687 108.077 45.806 108.327 45.806C108.515 45.806 108.672 45.8373 108.797 45.9C108.985 45.9627 109.079 46.0567 109.079 46.182C108.515 50.13 108.233 54.266 108.233 58.59C108.233 59.0913 108.108 59.4673 107.857 59.718C107.669 59.906 107.293 60 106.729 60H67.3434C67.218 60 67.1554 59.812 67.1554 59.436C67.1554 59.06 67.218 58.872 67.3434 58.872C69.7247 58.872 71.448 58.7153 72.5134 58.402C73.6414 58.0887 74.3934 57.4933 74.7694 56.616C75.208 55.676 75.4274 54.266 75.4274 52.386V8.864C75.4274 6.984 75.208 5.60533 74.7694 4.728C74.3934 3.85066 73.6414 3.25533 72.5134 2.942C71.448 2.566 69.7247 2.378 67.3434 2.378C67.218 2.378 67.1554 2.19 67.1554 1.814C67.1554 1.438 67.218 1.25 67.3434 1.25H105.131C105.695 1.25 105.977 1.532 105.977 2.09599L106.165 13.658C106.165 13.846 106.009 13.9713 105.695 14.034C105.382 14.034 105.194 13.94 105.131 13.752C104.943 10.4307 103.941 7.86133 102.123 6.044C100.306 4.164 97.8934 3.224 94.8854 3.224H89.1514C86.958 3.224 85.3287 3.412 84.2634 3.788C83.2607 4.10133 82.54 4.69666 82.1014 5.57399C81.7254 6.38866 81.5374 7.642 81.5374 9.334V28.416H93.0054C96.0134 28.416 98.144 27.9147 99.3974 26.912C100.713 25.9093 101.371 24.2173 101.371 21.836C101.371 21.7107 101.559 21.648 101.935 21.648C102.311 21.648 102.499 21.7107 102.499 21.836L102.405 29.45C102.405 31.2673 102.437 32.646 102.499 33.586L102.593 38.098C102.593 38.2233 102.405 38.286 102.029 38.286C101.653 38.286 101.465 38.2233 101.465 38.098C101.465 35.3407 100.776 33.3667 99.3974 32.176C98.0814 30.9853 95.8567 30.39 92.7234 30.39H81.5374V52.01C81.5374 53.7647 81.7254 55.0493 82.1014 55.864C82.4774 56.6787 83.1667 57.2427 84.1694 57.556C85.172 57.8693 86.7387 58.026 88.8694 58.026H96.3894C99.3974 58.026 101.904 56.9607 103.909 54.83C105.915 52.6993 107.262 49.754 107.951 45.994ZM128.078 52.01C128.078 54.0153 128.328 55.488 128.83 56.428C129.394 57.3053 130.428 57.932 131.932 58.308C133.498 58.684 135.942 58.872 139.264 58.872C139.452 58.872 139.546 59.06 139.546 59.436C139.546 59.812 139.452 60 139.264 60C136.694 60 134.689 59.9687 133.248 59.906L125.07 59.812L118.772 59.906C117.581 59.9687 115.983 60 113.978 60C113.852 60 113.79 59.812 113.79 59.436C113.79 59.06 113.852 58.872 113.978 58.872C116.359 58.872 118.082 58.7153 119.148 58.402C120.276 58.0887 121.028 57.4933 121.404 56.616C121.78 55.676 121.968 54.266 121.968 52.386V8.864C121.968 6.984 121.78 5.60533 121.404 4.728C121.028 3.85066 120.276 3.25533 119.148 2.942C118.082 2.566 116.359 2.378 113.978 2.378C113.852 2.378 113.79 2.19 113.79 1.814C113.79 1.438 113.852 1.25 113.978 1.25L118.678 1.344C121.31 1.46933 123.409 1.532 124.976 1.532C126.542 1.532 128.297 1.438 130.24 1.25C130.992 1.25 132.182 1.21867 133.812 1.156C135.441 1.03066 136.851 0.967998 138.042 0.967998C143.807 0.967998 148.413 2.25266 151.86 4.822C155.369 7.39133 157.124 11.308 157.124 16.572C157.124 20.708 156.09 24.186 154.022 27.006C152.016 29.826 149.416 31.9253 146.22 33.304C143.086 34.6827 139.828 35.372 136.444 35.372C134.564 35.372 133.028 35.2153 131.838 34.902C131.65 34.902 131.556 34.7453 131.556 34.432C131.556 34.244 131.587 34.056 131.65 33.868C131.775 33.68 131.9 33.6173 132.026 33.68C133.028 33.9307 134.156 34.056 135.41 34.056C139.546 34.056 143.024 32.7087 145.844 30.014C148.726 27.3193 150.168 23.434 150.168 18.358C150.168 13.4073 148.82 9.522 146.126 6.702C143.431 3.81933 139.984 2.378 135.786 2.378C133.53 2.378 131.9 2.50333 130.898 2.754C129.895 3.00466 129.174 3.6 128.736 4.54C128.297 5.41733 128.078 6.92133 128.078 9.05199V52.01ZM201.959 45.994C201.959 45.8687 202.084 45.806 202.335 45.806C202.523 45.806 202.679 45.8373 202.805 45.9C202.993 45.9627 203.087 46.0567 203.087 46.182C202.523 50.13 202.241 54.266 202.241 58.59C202.241 59.0913 202.115 59.4673 201.865 59.718C201.677 59.906 201.301 60 200.737 60H161.351C161.225 60 161.163 59.812 161.163 59.436C161.163 59.06 161.225 58.872 161.351 58.872C163.732 58.872 165.455 58.7153 166.521 58.402C167.649 58.0887 168.401 57.4933 168.777 56.616C169.215 55.676 169.435 54.266 169.435 52.386V8.864C169.435 6.984 169.215 5.60533 168.777 4.728C168.401 3.85066 167.649 3.25533 166.521 2.942C165.455 2.566 163.732 2.378 161.351 2.378C161.225 2.378 161.163 2.19 161.163 1.814C161.163 1.438 161.225 1.25 161.351 1.25H199.139C199.703 1.25 199.985 1.532 199.985 2.09599L200.173 13.658C200.173 13.846 200.016 13.9713 199.703 14.034C199.389 14.034 199.201 13.94 199.139 13.752C198.951 10.4307 197.948 7.86133 196.131 6.044C194.313 4.164 191.901 3.224 188.893 3.224H183.159C180.965 3.224 179.336 3.412 178.271 3.788C177.268 4.10133 176.547 4.69666 176.109 5.57399C175.733 6.38866 175.545 7.642 175.545 9.334V28.416H187.013C190.021 28.416 192.151 27.9147 193.405 26.912C194.721 25.9093 195.379 24.2173 195.379 21.836C195.379 21.7107 195.567 21.648 195.943 21.648C196.319 21.648 196.507 21.7107 196.507 21.836L196.413 29.45C196.413 31.2673 196.444 32.646 196.507 33.586L196.601 38.098C196.601 38.2233 196.413 38.286 196.037 38.286C195.661 38.286 195.473 38.2233 195.473 38.098C195.473 35.3407 194.783 33.3667 193.405 32.176C192.089 30.9853 189.864 30.39 186.731 30.39H175.545V52.01C175.545 53.7647 175.733 55.0493 176.109 55.864C176.485 56.6787 177.174 57.2427 178.177 57.556C179.179 57.8693 180.746 58.026 182.877 58.026H190.397C193.405 58.026 195.911 56.9607 197.917 54.83C199.922 52.6993 201.269 49.754 201.959 45.994ZM235.245 26.912C240.196 27.288 244.175 28.9487 247.183 31.894C250.254 34.7767 251.789 38.38 251.789 42.704C251.789 46.0253 250.974 49.0333 249.345 51.728C247.716 54.4227 245.46 56.5533 242.577 58.12C239.757 59.624 236.592 60.376 233.083 60.376C231.015 60.376 228.759 60.282 226.315 60.094C225.438 60.0313 224.404 59.9687 223.213 59.906C222.022 59.8433 220.706 59.812 219.265 59.812L212.873 59.906C211.745 59.9687 210.147 60 208.079 60C207.954 60 207.891 59.812 207.891 59.436C207.891 59.06 207.954 58.872 208.079 58.872C210.398 58.872 212.121 58.7153 213.249 58.402C214.377 58.026 215.16 57.3993 215.599 56.522C216.038 55.6447 216.257 54.266 216.257 52.386V8.864C216.257 6.984 216.038 5.60533 215.599 4.728C215.223 3.85066 214.471 3.25533 213.343 2.942C212.278 2.566 210.586 2.378 208.267 2.378C208.079 2.378 207.985 2.19 207.985 1.814C207.985 1.438 208.079 1.25 208.267 1.25L212.873 1.344C215.505 1.46933 217.636 1.532 219.265 1.532C220.393 1.532 221.427 1.50066 222.367 1.438C223.37 1.37533 224.216 1.31267 224.905 1.25C226.848 1.062 228.665 0.967998 230.357 0.967998C235.621 0.967998 239.569 2.12733 242.201 4.446C244.833 6.702 246.149 9.67867 246.149 13.376C246.149 16.384 245.178 19.0787 243.235 21.46C241.292 23.7787 238.629 25.596 235.245 26.912ZM228.383 2.378C226.754 2.378 225.532 2.53466 224.717 2.848C223.902 3.09866 223.307 3.694 222.931 4.634C222.555 5.51133 222.367 6.984 222.367 9.05199V26.912L226.597 27.006C231.172 27.006 234.556 25.8467 236.749 23.528C238.942 21.1467 240.039 18.0133 240.039 14.128C240.039 10.6187 239.068 7.79866 237.125 5.668C235.245 3.47466 232.331 2.378 228.383 2.378ZM231.673 58.684C236.248 58.684 239.632 57.5247 241.825 55.206C244.081 52.8247 245.209 49.4407 245.209 45.054C245.209 40.2913 243.799 36.4373 240.979 33.492C238.222 30.5467 234.399 29.0427 229.511 28.98C227.506 28.9173 225.124 28.98 222.367 29.168V52.386C222.367 54.0153 222.586 55.2687 223.025 56.146C223.526 57.0233 224.435 57.6813 225.751 58.12C227.13 58.496 229.104 58.684 231.673 58.684ZM318.399 58.872C318.65 58.872 318.775 59.06 318.775 59.436C318.775 59.812 318.65 60 318.399 60C317.208 60 315.36 59.9373 312.853 59.812C310.346 59.6867 308.529 59.624 307.401 59.624C306.022 59.624 304.268 59.6867 302.137 59.812C300.132 59.9373 298.596 60 297.531 60C297.28 60 297.155 59.812 297.155 59.436C297.155 59.06 297.28 58.872 297.531 58.872C299.85 58.872 301.542 58.6527 302.607 58.214C303.672 57.7753 304.205 57.0233 304.205 55.958C304.205 55.0807 303.798 53.7333 302.983 51.916L294.617 34.15H272.245L266.323 48.062C265.446 50.1927 265.007 51.916 265.007 53.232C265.007 55.1747 265.759 56.616 267.263 57.556C268.83 58.4333 271.148 58.872 274.219 58.872C274.532 58.872 274.689 59.06 274.689 59.436C274.689 59.812 274.532 60 274.219 60C273.091 60 271.462 59.9373 269.331 59.812C266.95 59.6867 264.882 59.624 263.127 59.624C261.498 59.624 259.618 59.6867 257.487 59.812C255.607 59.9373 254.04 60 252.787 60C252.474 60 252.317 59.812 252.317 59.436C252.317 59.06 252.474 58.872 252.787 58.872C254.542 58.872 256.014 58.5587 257.205 57.932C258.458 57.2427 259.618 56.0833 260.683 54.454C261.811 52.762 263.033 50.3493 264.349 47.216L284.183 0.404C284.308 0.215998 284.528 0.121998 284.841 0.121998C285.154 0.121998 285.342 0.215998 285.405 0.404L307.589 47.122C309.72 51.7593 311.537 54.8927 313.041 56.522C314.545 58.0887 316.331 58.872 318.399 58.872ZM272.997 32.27H293.771L282.773 9.05199L272.997 32.27ZM318.883 60C318.758 60 318.695 59.812 318.695 59.436C318.695 59.06 318.758 58.872 318.883 58.872C321.264 58.872 323.019 58.7153 324.147 58.402C325.275 58.0887 326.027 57.4933 326.403 56.616C326.842 55.676 327.061 54.266 327.061 52.386V8.864C327.061 6.984 326.842 5.60533 326.403 4.728C326.027 3.85066 325.275 3.25533 324.147 2.942C323.082 2.566 321.358 2.378 318.977 2.378C318.852 2.378 318.789 2.19 318.789 1.814C318.789 1.438 318.852 1.25 318.977 1.25H358.739C359.366 1.25 359.679 1.532 359.679 2.09599L359.867 14.41C359.867 14.598 359.679 14.692 359.303 14.692C358.927 14.692 358.739 14.598 358.739 14.41C358.488 10.9007 357.423 8.17467 355.543 6.232C353.663 4.22666 351.219 3.224 348.211 3.224H340.785C338.654 3.224 337.056 3.38066 335.991 3.694C334.926 4.00733 334.174 4.57133 333.735 5.386C333.359 6.20066 333.171 7.39133 333.171 8.958V52.01C333.171 54.0153 333.422 55.488 333.923 56.428C334.487 57.3053 335.552 57.932 337.119 58.308C338.686 58.684 341.161 58.872 344.545 58.872C344.733 58.872 344.827 59.06 344.827 59.436C344.827 59.812 344.733 60 344.545 60C341.976 60 339.97 59.9687 338.529 59.906L330.069 59.812L323.677 59.906C322.549 59.9687 320.951 60 318.883 60ZM428.176 58.872C428.364 58.872 428.458 59.06 428.458 59.436C428.458 59.812 428.364 60 428.176 60C426.234 60 424.667 59.9687 423.476 59.906L416.99 59.812L410.128 59.906C409 59.9687 407.528 60 405.71 60C405.522 60 405.428 59.812 405.428 59.436C405.428 59.06 405.522 58.872 405.71 58.872C408.154 58.872 409.94 58.7153 411.068 58.402C412.196 58.0887 412.948 57.4933 413.324 56.616C413.7 55.7387 413.888 54.3287 413.888 52.386V9.05199L373.468 60.846C373.28 61.0967 372.904 61.222 372.34 61.222C371.4 61.222 370.93 61.0027 370.93 60.564V8.864C370.93 6.984 370.711 5.60533 370.272 4.728C369.896 3.85066 369.113 3.25533 367.922 2.942C366.794 2.566 365.04 2.378 362.658 2.378C362.533 2.378 362.47 2.19 362.47 1.814C362.47 1.438 362.533 1.25 362.658 1.25L367.546 1.344C370.178 1.46933 372.309 1.532 373.938 1.532C375.756 1.532 378.043 1.46933 380.8 1.344L385.218 1.25C385.406 1.25 385.5 1.438 385.5 1.814C385.5 2.19 385.406 2.378 385.218 2.378C382.774 2.378 380.988 2.566 379.86 2.942C378.732 3.25533 377.98 3.85066 377.604 4.728C377.228 5.60533 377.04 6.984 377.04 8.864V52.762L417.554 0.779995C417.742 0.591997 418.087 0.497998 418.588 0.497998C419.528 0.497998 419.998 0.717331 419.998 1.156V52.386C419.998 54.266 420.186 55.676 420.562 56.616C421.001 57.4933 421.784 58.0887 422.912 58.402C424.04 58.7153 425.795 58.872 428.176 58.872Z" fill="url(#paint0_linear_155_841)"/>
<defs>
<linearGradient id="paint0_linear_155_841" x1="446.84" y1="4.85209" x2="-16.9631" y2="36.371" gradientUnits="userSpaceOnUse">
<stop stop-color="#7B5A35"/>
<stop offset="0.239832" stop-color="#A68F3C"/>
<stop offset="0.369925" stop-color="#F4E5B4"/>
<stop offset="0.536334" stop-color="#947650"/>
<stop offset="1" stop-color="#947650"/>
</linearGradient>
</defs>
</svg>
