<svg width="16" height="16" viewBox="0 0 16 16" fill="none" xmlns="http://www.w3.org/2000/svg">
<path d="M6 4.75892C6 3.83964 6 3.38001 6.16321 3.00117C6.30717 2.66703 6.53954 2.37849 6.83531 2.16662C7.17065 1.9264 7.61972 1.82842 8.51787 1.63247L12.1179 0.847011C13.4459 0.557257 14.1099 0.412381 14.6308 0.58549C15.0875 0.737284 15.4742 1.04869 15.7198 1.46256C16 1.93454 16 2.61418 16 3.97346V12.8C16 13.9201 16 14.4802 15.782 14.908C15.5903 15.2843 15.2843 15.5903 14.908 15.782C14.4802 16 13.9201 16 12.8 16H6V4.75892Z" fill="url(#paint0_linear_349_18640)"/>
<path d="M0 10.8533C0 9.94442 0 9.48997 0.160379 9.11399C0.301855 8.78233 0.53036 8.49509 0.821714 8.28266C1.152 8.04185 1.59481 7.93966 2.48045 7.73528L6.08045 6.90451C7.41939 6.59552 8.08887 6.44103 8.61484 6.61095C9.07596 6.75993 9.46731 7.07125 9.71616 7.48707C10 7.96136 10 8.64843 10 10.0226V16H3.2C2.0799 16 1.51984 16 1.09202 15.782C0.715695 15.5903 0.409734 15.2843 0.217987 14.908C0 14.4802 0 13.9201 0 12.8V10.8533Z" fill="url(#paint1_linear_349_18640)"/>
<defs>
<linearGradient id="paint0_linear_349_18640" x1="11" y1="0" x2="11" y2="16" gradientUnits="userSpaceOnUse">
<stop stop-color="#4B6596" stop-opacity="0.5"/>
<stop offset="1" stop-color="#1F407C" stop-opacity="0.2"/>
</linearGradient>
<linearGradient id="paint1_linear_349_18640" x1="5" y1="6" x2="5" y2="16" gradientUnits="userSpaceOnUse">
<stop stop-color="#4B6596" stop-opacity="0.5"/>
<stop offset="1" stop-color="#1F407C" stop-opacity="0.2"/>
</linearGradient>
</defs>
</svg>
