<svg width="20" height="20" viewBox="0 0 20 20" fill="none" xmlns="http://www.w3.org/2000/svg">
<path fill-rule="evenodd" clip-rule="evenodd" d="M11.542 2.29163C10.8498 1.5994 9.71138 1.65562 9.09073 2.4127C8.9315 2.60693 8.81854 2.83485 8.7604 3.07919L8.72676 3.22057C8.62881 3.63228 8.41849 4.00873 8.11924 4.30798L5.49414 6.93308C5.19813 7.22908 4.82578 7.43711 4.41854 7.53401L4.32752 7.55566C4.04572 7.62271 3.7834 7.75447 3.56136 7.94051C2.72217 8.64363 2.6662 9.91494 3.44035 10.6891L6.83687 14.0856C7.69336 14.9421 9.11642 14.8137 9.8058 13.8178C9.87477 13.7182 9.93425 13.6123 9.98348 13.5016L10.0556 13.3393C10.2467 12.9095 10.5153 12.5186 10.8479 12.186L11.2731 11.7607L15.5061 15.9936C15.7794 16.267 16.2226 16.267 16.496 15.9936C16.7694 15.7203 16.7694 15.277 16.496 15.0037L12.2631 10.7707L13.3568 9.67707C13.7028 9.33103 14.1095 9.05162 14.5567 8.85279L14.7291 8.77614C14.8157 8.73763 14.899 8.69201 14.978 8.63975C15.8837 8.04117 16.0129 6.76252 15.2453 5.99485L11.542 2.29163ZM14.2553 6.9848L10.5521 3.28158C10.4452 3.17464 10.2693 3.18333 10.1734 3.30028C10.1488 3.33028 10.1314 3.36549 10.1224 3.40324L10.0887 3.54461C9.9308 4.20845 9.59169 4.81542 9.10919 5.29793L6.48409 7.92303C6.00483 8.40229 5.40195 8.73911 4.74259 8.89599L4.65157 8.91764C4.58129 8.93437 4.51586 8.96723 4.46048 9.01363C4.25119 9.18899 4.23722 9.50607 4.4303 9.69915L7.82682 13.0957C8.06564 13.3345 8.46245 13.2987 8.65468 13.021C8.67391 12.9932 8.69049 12.9637 8.70422 12.9328L8.77636 12.7706C9.03724 12.1838 9.40386 11.6501 9.85792 11.196L12.3668 8.68712C12.8343 8.21963 13.3838 7.84216 13.9879 7.57355L14.1603 7.4969C14.1762 7.48981 14.1916 7.48141 14.2061 7.47179C14.3729 7.36158 14.3967 7.12615 14.2553 6.9848Z" fill="#132341" fill-opacity="0.7"/>
<path d="M2.50005 16.7993C2.11345 16.7993 1.80005 17.1127 1.80005 17.4993C1.80005 17.8859 2.11345 18.1993 2.50005 18.1993H12.5C12.8866 18.1993 13.2 17.8859 13.2 17.4993C13.2 17.1127 12.8866 16.7993 12.5 16.7993H2.50005Z" fill="#132341" fill-opacity="0.7"/>
</svg>
