<svg width="200" height="200" viewBox="0 0 200 200" fill="none" xmlns="http://www.w3.org/2000/svg">
<path d="M175.382 171.879C171.307 176.184 167.45 178.966 164.411 181.143C128.605 206.903 86.2652 199.405 77.2474 197.567C63.9618 194.858 38.2586 189.633 19.6926 167.719C-8.42176 134.557 -4.03342 82.3113 17.7636 47.8435C21.7421 41.5305 42.8158 6.53062 85.6383 0.919028C111.534 -2.49147 141.746 4.35371 163.616 22.7365C209.525 61.3162 206.245 139.274 175.382 171.879Z" fill="#EAEBED"/>
<g opacity="0.3">
<path opacity="0.3" d="M32.2056 162.929C32.1333 163.34 31.7716 163.63 31.3617 163.606C30.4455 163.558 29.5051 163.461 28.5889 163.34C28.1308 163.268 27.8173 162.856 27.8896 162.421C27.8896 162.421 27.8896 162.421 27.8896 162.397C27.962 161.961 28.3719 161.647 28.8059 161.72C29.6739 161.84 30.566 161.937 31.4582 161.986C31.9163 162.01 32.2539 162.397 32.2298 162.856C32.2056 162.881 32.2056 162.905 32.2056 162.929ZM25.165 161.744C25.165 161.768 25.1409 161.816 25.1409 161.84C25.0203 162.276 24.5622 162.542 24.1282 162.397C23.2361 162.131 22.3439 161.84 21.4759 161.526C21.0419 161.357 20.849 160.897 20.9937 160.462C21.1625 160.026 21.6206 159.833 22.0546 159.978C22.8744 160.292 23.7183 160.583 24.5622 160.825C24.9721 160.921 25.2132 161.333 25.165 161.744ZM18.5584 159.01C18.5343 159.107 18.5102 159.18 18.4619 159.277C18.2449 159.664 17.7386 159.809 17.3528 159.591C16.533 159.131 15.7373 158.648 14.9657 158.14C14.5799 157.898 14.4835 157.366 14.7487 157.003C14.9898 156.616 15.5203 156.519 15.882 156.785C16.6053 157.269 17.3769 157.729 18.1485 158.164C18.4619 158.333 18.6066 158.696 18.5584 159.01ZM12.7233 154.899C12.6992 155.044 12.6269 155.189 12.5304 155.31C12.2411 155.648 11.7106 155.673 11.3731 155.382C10.6738 154.753 9.9987 154.1 9.37179 153.423C9.05834 153.084 9.08245 152.576 9.3959 152.262C9.73347 151.948 10.2398 151.972 10.5533 152.286C11.1561 152.939 11.8071 153.544 12.4581 154.149C12.6751 154.342 12.7716 154.632 12.7233 154.899ZM7.9492 149.553C7.92509 149.771 7.80453 149.964 7.61163 150.085C7.24996 150.351 6.7195 150.254 6.47838 149.892C5.94792 149.142 5.41746 148.344 4.95934 147.545C4.71822 147.158 4.86289 146.65 5.24868 146.409C5.63447 146.167 6.14081 146.312 6.38193 146.699C6.84005 147.473 7.32229 148.223 7.82864 148.924C7.9492 149.142 7.99742 149.359 7.9492 149.553ZM4.4771 143.313C4.42888 143.579 4.26009 143.82 3.99486 143.941C3.58496 144.111 3.10273 143.917 2.93395 143.506C2.57227 142.659 2.25882 141.765 1.96948 140.87C1.8248 140.434 2.06592 139.975 2.49993 139.829C2.93395 139.684 3.39207 139.926 3.53674 140.362C3.80197 141.208 4.11542 142.055 4.45299 142.853C4.50121 142.998 4.50121 143.167 4.4771 143.313ZM7.32229 113.271C7.29818 113.392 7.27407 113.489 7.20173 113.586C6.7195 114.311 6.26137 115.085 5.82736 115.859C5.61035 116.246 5.10401 116.416 4.71822 116.198C4.33243 115.98 4.16365 115.472 4.38065 115.085C4.81467 114.263 5.32101 113.465 5.82736 112.691C6.06848 112.304 6.57483 112.207 6.96061 112.449C7.24996 112.618 7.39463 112.957 7.32229 113.271ZM2.47582 136.443C2.4276 136.782 2.16237 137.072 1.80069 137.12C1.36668 137.193 0.932669 136.903 0.860334 136.443C0.691551 135.524 0.570992 134.581 0.498657 133.662C0.450433 133.202 0.787998 132.815 1.24612 132.767C1.70425 132.718 2.09003 133.057 2.13826 133.516C2.21059 134.387 2.33115 135.282 2.47582 136.153C2.49993 136.25 2.49993 136.346 2.47582 136.443ZM4.09131 119.633C4.09131 119.681 4.0672 119.729 4.04309 119.802C3.72964 120.624 3.46441 121.471 3.22329 122.342C3.10273 122.777 2.64461 123.043 2.21059 122.898C1.77658 122.777 1.51135 122.317 1.65602 121.882C1.89714 120.987 2.21059 120.092 2.52405 119.221C2.69283 118.786 3.15095 118.592 3.58496 118.738C3.92253 118.883 4.13954 119.246 4.09131 119.633ZM2.06592 129.284C1.99359 129.695 1.63191 129.985 1.22201 129.961C0.763887 129.937 0.426322 129.55 0.450433 129.09C0.498657 128.171 0.595104 127.228 0.715663 126.308C0.715663 126.308 0.715663 126.308 0.715663 126.284C0.787998 125.849 1.1979 125.534 1.63191 125.607C2.09003 125.68 2.40349 126.091 2.33115 126.526C2.21059 127.397 2.11415 128.292 2.06592 129.187C2.06592 129.235 2.06592 129.259 2.06592 129.284Z" fill="#FFCD00"/>
<path opacity="0.3" d="M10.9388 108.772C10.9147 108.941 10.8423 109.086 10.7218 109.207C10.4325 109.522 10.1431 109.836 9.85379 110.151C9.56446 110.489 9.03402 110.513 8.69647 110.223C8.35891 109.933 8.3348 109.401 8.62413 109.062C8.91347 108.724 9.22691 108.385 9.54035 108.071C9.85379 107.732 10.3842 107.732 10.6977 108.046C10.8906 108.24 10.987 108.506 10.9388 108.772Z" fill="#FFCD00"/>
</g>
<g opacity="0.3">
<path opacity="0.3" d="M33.9185 98.9521C33.8462 99.3391 33.5086 99.6535 33.0987 99.6535C32.6647 99.6535 32.2549 99.6535 31.8209 99.6777C31.3627 99.7019 30.977 99.339 30.977 98.8795C30.9529 98.42 31.3145 98.033 31.7726 98.033C32.2307 98.0088 32.6647 98.0088 33.1228 98.0088C33.581 98.0088 33.9426 98.3716 33.9426 98.8311C33.9426 98.8553 33.9185 98.9037 33.9185 98.9521Z" fill="#91B3FA"/>
<path opacity="0.3" d="M65.4305 136.033C65.3823 136.396 65.3099 136.783 65.2376 137.145C65.1412 137.581 64.7313 137.871 64.2731 137.799C63.8391 137.702 63.5498 137.266 63.6221 136.831C63.7909 135.96 63.9356 135.089 64.0079 134.243C64.0561 133.783 64.466 133.469 64.9242 133.517C65.3823 133.566 65.6957 133.977 65.6475 134.436C65.5752 134.944 65.5028 135.501 65.4305 136.033ZM64.1044 141.33C64.1044 141.378 64.0802 141.427 64.0802 141.475C63.7909 142.346 63.4533 143.217 63.0917 144.039C62.8988 144.45 62.4165 144.644 62.0066 144.45C61.5967 144.257 61.4038 143.773 61.5967 143.362C61.9343 142.564 62.2719 141.741 62.5371 140.919C62.6818 140.483 63.1399 140.266 63.5739 140.411C63.9356 140.556 64.1767 140.943 64.1044 141.33ZM65.8163 130.107C65.744 130.494 65.4305 130.784 65.0206 130.808C64.5625 130.808 64.2008 130.47 64.1767 130.01C64.1526 129.139 64.1044 128.268 64.0079 127.398C63.9597 126.938 64.2731 126.551 64.7313 126.479C65.1894 126.43 65.5752 126.745 65.6475 127.204C65.744 128.123 65.8163 129.042 65.8404 129.962C65.8404 129.986 65.8404 130.058 65.8163 130.107ZM61.1145 147.716C61.0904 147.812 61.0663 147.909 60.9939 148.006C60.5117 148.78 60.0054 149.554 59.4508 150.304C59.1856 150.666 58.6792 150.739 58.2934 150.473C57.9317 150.207 57.8594 149.699 58.1246 149.312C58.631 148.61 59.1373 147.885 59.5713 147.135C59.8125 146.748 60.3188 146.627 60.7046 146.869C61.0181 147.062 61.1627 147.401 61.1145 147.716ZM64.8518 123.116C64.8036 123.431 64.5625 123.697 64.249 123.794C63.815 123.915 63.3569 123.649 63.2604 123.189C63.0434 122.342 62.8023 121.496 62.513 120.673C62.3683 120.238 62.5853 119.779 63.0193 119.633C63.4533 119.488 63.9115 119.706 64.0561 120.141C64.3455 121.012 64.6107 121.907 64.8518 122.778C64.8759 122.899 64.8759 123.02 64.8518 123.116ZM62.3924 116.537C62.3442 116.779 62.1995 117.021 61.9584 117.142C61.5485 117.336 61.0663 117.19 60.8493 116.779C60.4635 116.005 60.0295 115.231 59.5713 114.481C59.3302 114.094 59.4508 113.586 59.8366 113.345C60.2224 113.103 60.7287 113.224 60.9698 113.611C61.4521 114.385 61.9102 115.207 62.3201 116.005C62.3924 116.199 62.4165 116.368 62.3924 116.537ZM58.5587 110.636C58.5345 110.829 58.4381 110.998 58.2693 111.143C57.9317 111.434 57.4013 111.385 57.1119 111.023C56.5574 110.345 55.9787 109.692 55.3759 109.063C55.0624 108.749 55.0624 108.217 55.4 107.902C55.7135 107.588 56.2439 107.588 56.5574 107.926C57.1843 108.58 57.8112 109.281 58.3899 109.982C58.5345 110.176 58.6069 110.394 58.5587 110.636ZM53.5193 105.701C53.4952 105.822 53.447 105.967 53.3505 106.064C53.0612 106.427 52.5548 106.475 52.1931 106.209C51.518 105.677 50.7947 105.169 50.0713 104.685C49.6855 104.443 49.5891 103.935 49.8302 103.548C50.0713 103.161 50.5777 103.065 50.9634 103.307C51.735 103.815 52.4825 104.347 53.2058 104.903C53.4711 105.121 53.5675 105.411 53.5193 105.701ZM47.5396 102.025C47.5396 102.097 47.5155 102.17 47.4672 102.242C47.2743 102.654 46.7921 102.823 46.3822 102.629C45.6106 102.267 44.7908 101.928 43.971 101.613C43.537 101.444 43.32 100.985 43.4888 100.549C43.6576 100.114 44.1157 99.8961 44.5497 100.065C45.4177 100.38 46.2616 100.743 47.0814 101.13C47.419 101.299 47.6119 101.662 47.5396 102.025ZM40.9088 99.7268C40.9088 99.751 40.9088 99.751 40.9088 99.7752C40.8124 100.211 40.3784 100.501 39.9203 100.404C39.2933 100.259 38.6664 100.138 38.0395 100.041C37.8225 99.9929 37.5814 99.9687 37.3644 99.9445C36.9063 99.8719 36.5928 99.4607 36.6652 99.0253C36.7134 98.5658 37.1474 98.2513 37.5814 98.3239C37.8225 98.3481 38.0636 98.3965 38.3048 98.4206C38.9558 98.5174 39.6309 98.6625 40.2819 98.8076C40.6918 98.9044 40.9812 99.3156 40.9088 99.7268Z" fill="#91B3FA"/>
<path opacity="0.3" d="M56.7997 153.278C56.7756 153.448 56.7032 153.593 56.5827 153.714C56.2692 154.028 55.9558 154.342 55.6182 154.657C55.2807 154.971 54.7744 154.947 54.4609 154.633C54.1475 154.294 54.1716 153.786 54.485 153.472C54.7985 153.182 55.1119 152.867 55.4012 152.577C55.7147 152.262 56.2451 152.238 56.5586 152.553C56.7515 152.77 56.8238 153.036 56.7997 153.278Z" fill="#91B3FA"/>
</g>
<path d="M47.5882 150.666C47.7328 150.593 47.8052 150.424 47.7811 150.255L46.8889 145.659C48.4803 144.159 49.8306 142.394 50.8915 140.41L55.545 140.072C55.7138 140.072 55.8344 139.951 55.8826 139.781L57.3293 134.363C57.3775 134.194 57.3052 134.049 57.1847 133.952L53.3268 131.34C53.3991 129.09 53.0857 126.889 52.4587 124.809L55.5209 121.278C55.6174 121.157 55.6415 120.987 55.5692 120.842L52.7722 115.98C52.6999 115.835 52.5311 115.763 52.3623 115.787L47.7811 116.682C46.2861 115.085 44.526 113.731 42.5488 112.667L42.2112 107.998C42.2112 107.829 42.0907 107.708 41.9219 107.66L36.5209 106.209C36.3521 106.16 36.2074 106.233 36.111 106.354L33.5069 110.224C31.2645 110.151 29.0703 110.466 26.9967 111.094L23.4764 108.023C23.3558 107.926 23.187 107.902 23.0424 107.974L18.1959 110.78C18.0512 110.853 17.9789 111.022 18.003 111.191L18.8951 115.787C17.3038 117.287 15.9535 119.052 14.8926 121.036L10.2149 121.423C10.0461 121.423 9.92556 121.544 9.87734 121.713L8.43063 127.131C8.38241 127.3 8.45474 127.445 8.5753 127.542L12.4332 130.155C12.3609 132.404 12.6743 134.605 13.3012 136.685L10.239 140.217C10.1426 140.338 10.1185 140.507 10.1908 140.652L12.9878 145.514C13.0601 145.659 13.2289 145.732 13.3977 145.707L17.9789 144.812C19.4738 146.409 21.234 147.763 23.2112 148.828L23.5487 153.496C23.5487 153.665 23.6693 153.786 23.8381 153.834L29.2391 155.286C29.4079 155.334 29.5526 155.262 29.649 155.141L32.2531 151.271C34.4955 151.343 36.6896 151.029 38.7633 150.4L42.2836 153.472C42.4041 153.568 42.5729 153.593 42.7176 153.52L47.5882 150.666Z" fill="#FFCD00"/>
<path d="M38.4272 131.679C37.9932 134.388 35.6304 136.444 32.8094 136.419C29.6991 136.371 27.2157 133.807 27.2639 130.711C27.288 129.212 27.8908 127.809 28.9516 126.745C30.0366 125.705 31.4351 125.124 32.954 125.148C36.0644 125.197 38.5478 127.761 38.4996 130.856C38.4754 131.123 38.4513 131.413 38.4272 131.679ZM28.6141 130.083C28.59 130.3 28.5659 130.494 28.5659 130.711C28.5418 133.106 30.4465 135.065 32.8094 135.089C35.1964 135.113 37.1493 133.203 37.1735 130.832C37.1976 128.438 35.2928 126.479 32.9299 126.455C31.7726 126.43 30.6876 126.866 29.8679 127.688C29.1927 128.341 28.7588 129.163 28.6141 130.083Z" fill="white"/>
<path d="M46.453 132.864C46.3806 133.324 46.2842 133.783 46.1637 134.267C46.1154 134.412 46.0913 134.557 46.0431 134.703C45.8261 135.404 45.5609 136.105 45.2474 136.758C45.2474 136.758 45.2474 136.783 45.2233 136.783C45.1992 136.807 45.1992 136.831 45.1751 136.855C45.151 136.904 45.1269 136.952 45.1028 137C45.0304 137.121 44.8858 137.194 44.7652 137.17C44.7411 137.17 44.6929 137.145 44.6688 137.145C44.5 137.073 44.4518 136.855 44.5241 136.71C44.9581 135.888 45.2957 134.993 45.5368 134.074C46.7423 129.55 45.4403 124.955 42.4988 121.738C40.8593 119.948 38.7134 118.593 36.2058 117.916C35.7718 117.795 35.3137 117.698 34.8797 117.626C31.89 117.142 28.8761 117.698 26.2239 119.246C23.186 121.012 21.016 123.866 20.0998 127.277C18.2191 134.315 22.4144 141.572 29.4307 143.434C29.8647 143.555 30.2987 143.652 30.7327 143.725C32.6374 144.039 34.5904 143.918 36.447 143.386C36.4952 143.362 36.5434 143.362 36.5916 143.386C36.7122 143.41 36.8086 143.483 36.8568 143.628C36.9051 143.797 36.8086 143.991 36.6398 144.039C34.6869 144.595 32.6374 144.716 30.6603 144.402C30.2022 144.329 29.7441 144.233 29.286 144.112C21.9322 142.152 17.544 134.533 19.497 127.156C20.4373 123.576 22.7278 120.577 25.9346 118.738C28.7074 117.118 31.89 116.537 35.0244 117.045C35.4825 117.118 35.9647 117.215 36.4228 117.336C39.9913 118.279 42.981 120.577 44.8134 123.794C46.3565 126.527 46.9593 129.72 46.453 132.864Z" fill="white"/>
<g opacity="0.3">
<path opacity="0.3" d="M49.0605 194.059C49.0364 194.277 48.8435 194.446 48.6266 194.47C48.1926 194.518 47.7586 194.567 47.3487 194.591C47.0593 194.615 46.8182 194.397 46.8182 194.107C46.7941 193.817 47.0111 193.575 47.3005 193.575C47.7103 193.551 48.1202 193.503 48.5301 193.454C48.7953 193.43 49.0605 193.623 49.0847 193.89C49.0847 193.962 49.0847 194.01 49.0605 194.059Z" fill="#91B3FA"/>
<path opacity="0.3" d="M45.1758 194.204C45.1276 194.47 44.9106 194.639 44.6453 194.639C43.8979 194.591 43.1505 194.518 42.4271 194.397C42.2825 194.373 42.1137 194.349 41.969 194.325C41.7038 194.277 41.535 193.986 41.5592 193.744C41.6074 193.478 41.8726 193.285 42.1378 193.333C42.2825 193.357 42.4271 193.382 42.5718 193.406C43.271 193.527 43.9702 193.599 44.6936 193.648C44.9829 193.672 45.1758 193.914 45.1758 194.18C45.1758 194.156 45.1758 194.18 45.1758 194.204ZM40.0161 193.236C40.0161 193.261 40.0161 193.285 39.9919 193.309C39.9196 193.575 39.6303 193.72 39.3651 193.648C38.4971 193.382 37.6532 193.067 36.8575 192.68C36.5923 192.559 36.4959 192.269 36.6164 192.003C36.737 191.737 37.0263 191.64 37.2915 191.761C38.0631 192.124 38.8828 192.414 39.7026 192.68C39.8955 192.753 40.0402 192.995 40.0161 193.236ZM35.218 191.06C35.218 191.132 35.1939 191.18 35.1457 191.253C35.001 191.495 34.6875 191.567 34.4464 191.422C33.6749 190.963 32.9516 190.431 32.2523 189.874C32.0353 189.705 31.9871 189.391 32.18 189.173C32.3488 188.955 32.6622 188.907 32.8792 189.1C33.5543 189.632 34.2535 190.14 34.9769 190.576C35.1698 190.673 35.2421 190.866 35.218 191.06ZM31.1191 187.77C31.095 187.867 31.0468 187.963 30.9745 188.06C30.7816 188.254 30.444 188.254 30.2511 188.06C29.6243 187.407 29.0215 186.73 28.491 186.004C28.3223 185.787 28.3705 185.472 28.5875 185.303C28.8045 185.133 29.1179 185.182 29.2867 185.4C29.793 186.077 30.3717 186.73 30.9745 187.359C31.095 187.456 31.1432 187.625 31.1191 187.77ZM27.9365 183.585C27.9124 183.731 27.8159 183.876 27.6954 183.948C27.4543 184.093 27.1408 183.997 26.9962 183.755C26.5381 182.981 26.1282 182.158 25.7906 181.336C25.6701 181.07 25.7906 180.78 26.0558 180.659C26.3211 180.538 26.6104 180.659 26.7309 180.925C27.0685 181.723 27.4543 182.497 27.8883 183.223C27.9365 183.344 27.9606 183.465 27.9365 183.585ZM25.863 178.748C25.8388 178.941 25.6942 179.087 25.5013 179.159C25.2361 179.232 24.9467 179.087 24.8744 178.82C24.6333 177.95 24.4163 177.079 24.2957 176.184C24.2475 175.918 24.4404 175.652 24.7056 175.603C24.9709 175.555 25.2361 175.749 25.2843 176.015C25.429 176.861 25.5977 177.708 25.8388 178.53C25.8871 178.603 25.8871 178.675 25.863 178.748ZM25.0432 173.547C24.995 173.789 24.8021 173.959 24.561 173.983C24.2716 173.983 24.0546 173.765 24.0305 173.499C24.0064 172.604 24.0305 171.685 24.1029 170.79C24.127 170.5 24.3681 170.306 24.6574 170.331C24.9467 170.355 25.1396 170.597 25.1155 170.887C25.0432 171.733 25.0191 172.604 25.0432 173.475C25.0432 173.475 25.0432 173.499 25.0432 173.547ZM26.2246 165.759C26.2246 165.783 26.2246 165.807 26.2005 165.856C25.9594 166.557 25.7424 167.283 25.5736 168.008C25.5495 168.129 25.5254 168.226 25.5013 168.347C25.4531 168.613 25.1637 168.807 24.8985 168.734C24.6333 168.686 24.4404 168.395 24.5127 168.129C24.5369 168.008 24.561 167.888 24.5851 167.791C24.7539 167.017 24.9709 166.267 25.2361 165.541C25.3325 165.275 25.6218 165.13 25.8871 165.227C26.1282 165.275 26.2728 165.517 26.2246 165.759Z" fill="#FFCD00"/>
</g>
<g opacity="0.3">
<path opacity="0.3" d="M67.5047 175.919C67.4565 176.185 67.2154 176.378 66.926 176.33C66.6608 176.282 66.4679 176.04 66.492 175.749C66.6126 174.903 66.6849 174.056 66.709 173.234C66.709 172.944 66.9501 172.726 67.2395 172.75C67.5288 172.75 67.7458 172.992 67.7217 173.282C67.7217 174.153 67.6494 175.048 67.5047 175.919ZM66.9742 178.458C66.9742 178.483 66.9742 178.483 66.9742 178.507C66.7331 179.353 66.4679 180.2 66.1304 181.022C66.0339 181.288 65.7205 181.409 65.4794 181.313C65.2142 181.216 65.0936 180.901 65.19 180.66C65.5035 179.886 65.7687 179.063 66.0098 178.265C66.0821 177.999 66.3715 177.83 66.6367 177.902C66.8537 177.975 67.0225 178.217 66.9742 178.458ZM67.6494 170.742C67.6252 170.96 67.4324 171.154 67.1912 171.178C66.9019 171.202 66.6608 171.009 66.6367 170.718C66.5644 169.872 66.4197 169.025 66.2509 168.203C66.2027 167.937 66.3715 167.646 66.6367 167.598C66.9019 167.526 67.1912 167.719 67.2395 167.985C67.4324 168.856 67.577 169.727 67.6494 170.622C67.6494 170.646 67.6494 170.694 67.6494 170.742ZM65.0213 183.272C65.0213 183.32 64.9972 183.393 64.973 183.441C64.539 184.215 64.0568 184.965 63.5505 185.691C63.3817 185.908 63.0683 185.957 62.8513 185.812C62.6343 185.642 62.5861 185.328 62.7307 185.11C63.2371 184.433 63.6952 183.707 64.1051 182.982C64.2497 182.74 64.539 182.643 64.8043 182.788C64.973 182.861 65.0695 183.054 65.0213 183.272ZM66.5161 165.687C66.492 165.857 66.3715 166.026 66.1786 166.074C65.9134 166.171 65.624 166.026 65.5276 165.76C65.2383 164.962 64.9248 164.188 64.5391 163.438C64.4185 163.196 64.5149 162.881 64.756 162.76C64.9972 162.64 65.3106 162.736 65.4311 162.978C65.8169 163.776 66.1786 164.599 66.4679 165.421C66.5403 165.518 66.5403 165.59 66.5161 165.687ZM64.2256 161.043C64.2015 161.188 64.1292 161.309 64.0086 161.382C63.7675 161.527 63.4541 161.479 63.3094 161.237C62.8513 160.535 62.345 159.858 61.7904 159.205C61.6216 158.987 61.6457 158.673 61.8386 158.479C62.0556 158.31 62.3691 158.334 62.562 158.528C63.1406 159.205 63.6711 159.906 64.1533 160.656C64.2256 160.801 64.2497 160.922 64.2256 161.043ZM60.8742 157.076C60.8501 157.173 60.826 157.27 60.7536 157.342C60.5608 157.56 60.2473 157.56 60.0303 157.367C59.4034 156.786 58.7524 156.254 58.0773 155.77C57.8603 155.601 57.788 155.286 57.9568 155.069C58.1256 154.851 58.439 154.778 58.656 154.948C59.3793 155.456 60.0544 156.036 60.7054 156.641C60.8501 156.738 60.8983 156.931 60.8742 157.076Z" fill="#FFCD00"/>
<path opacity="0.3" d="M61.9588 187.48C61.9347 187.577 61.9105 187.673 61.8382 187.746C61.5489 188.06 61.2354 188.375 60.922 188.665C60.7291 188.858 60.3916 188.858 60.1987 188.641C60.0058 188.447 60.0058 188.109 60.2228 187.915C60.5121 187.625 60.8014 187.335 61.0908 187.044C61.2837 186.851 61.5971 186.827 61.8141 187.02C61.9347 187.141 61.9829 187.311 61.9588 187.48Z" fill="#FFCD00"/>
</g>
<path d="M55.5701 186.005C55.6665 185.957 55.7148 185.836 55.6906 185.739L55.0879 182.668C56.1488 181.676 57.065 180.491 57.7643 179.16L60.8747 178.943C60.9952 178.943 61.0676 178.87 61.1158 178.749L62.0803 175.121C62.1044 175.024 62.0562 174.903 61.9838 174.831L59.4039 173.089C59.4521 171.589 59.2351 170.114 58.8252 168.711L60.8747 166.341C60.947 166.268 60.947 166.147 60.8988 166.05L59.0181 162.809C58.9699 162.712 58.8493 162.664 58.7528 162.688L55.6906 163.293C54.7021 162.229 53.5206 161.31 52.1944 160.608L51.9774 157.488C51.9774 157.367 51.9051 157.294 51.7845 157.246L48.1678 156.279C48.0713 156.254 47.9508 156.303 47.8784 156.375L46.1424 158.963C44.6474 158.915 43.1766 159.133 41.7781 159.544L39.4152 157.488C39.3429 157.415 39.2223 157.415 39.1259 157.464L35.8949 159.35C35.7984 159.399 35.7502 159.52 35.7743 159.616L36.3771 162.688C35.3162 163.68 34.3999 164.865 33.7007 166.196L30.5903 166.413C30.4697 166.413 30.3974 166.486 30.3492 166.607L29.3847 170.235C29.3606 170.332 29.4088 170.453 29.4811 170.525L32.0611 172.267C32.0129 173.766 32.2299 175.242 32.6398 176.645L30.5903 179.015C30.5179 179.088 30.5179 179.209 30.5662 179.305L32.4469 182.547C32.4951 182.643 32.6157 182.692 32.7121 182.668L35.7743 182.063C36.7629 183.127 37.9444 184.046 39.2705 184.748L39.4875 187.868C39.4875 187.989 39.5599 188.061 39.6804 188.11L43.2972 189.077C43.3936 189.102 43.5142 189.053 43.5865 188.981L45.3226 186.392C46.8175 186.441 48.2883 186.223 49.6868 185.812L52.0498 187.868C52.1221 187.94 52.2427 187.94 52.3391 187.892L55.5701 186.005Z" fill="#FFCD00"/>
<path d="M49.4943 173.307C49.3737 174.105 48.988 174.855 48.3852 175.435C47.6619 176.161 46.6974 176.548 45.6607 176.523C43.5389 176.499 41.8511 174.758 41.8753 172.629C41.8994 170.501 43.6354 168.808 45.7571 168.832C46.7698 168.856 47.7342 169.267 48.4575 169.993C49.1809 170.719 49.5666 171.686 49.5425 172.726C49.5425 172.944 49.5425 173.113 49.4943 173.307ZM42.9361 172.242C42.912 172.387 42.912 172.508 42.912 172.654C42.8879 174.201 44.1417 175.483 45.6848 175.508C46.4322 175.508 47.1555 175.242 47.686 174.709C48.2164 174.177 48.5299 173.476 48.5299 172.726C48.5299 171.976 48.2646 171.251 47.7342 170.719C47.2038 170.186 46.5046 169.872 45.7571 169.872C44.3587 169.848 43.1531 170.888 42.9361 172.242Z" fill="white"/>
<path d="M55.0856 174.129C55.0374 174.443 54.9651 174.757 54.8927 175.072C54.724 175.701 54.4829 176.305 54.1935 176.886C54.1694 176.91 54.1694 176.934 54.1453 176.958C54.0489 177.152 53.8319 177.273 53.6149 177.224C53.5666 177.224 53.5184 177.2 53.4702 177.176C53.2291 177.055 53.1326 176.741 53.2532 176.499C53.5184 175.967 53.7354 175.386 53.9042 174.806C53.9042 174.782 53.9283 174.733 53.9283 174.709C54.29 173.306 54.29 171.879 53.9283 170.525C53.7354 169.775 53.4461 169.074 53.0844 168.396C53.0844 168.396 53.0844 168.396 53.0844 168.372C53.0844 168.348 53.0603 168.348 53.0603 168.324C51.9271 166.34 50.0706 164.938 47.8765 164.357C47.5871 164.285 47.2978 164.212 47.0085 164.164C45.0796 163.849 43.1266 164.212 41.3906 165.204C39.4135 166.34 38.0151 168.203 37.4364 170.404C36.8578 172.605 37.1471 174.902 38.3044 176.886C39.4377 178.869 41.2942 180.272 43.4883 180.852C43.7776 180.925 44.0428 180.998 44.3322 181.022C45.5618 181.215 46.8156 181.143 48.0211 180.804C48.0935 180.78 48.1658 180.78 48.2381 180.78C48.431 180.804 48.5998 180.949 48.648 181.143C48.7203 181.409 48.5757 181.699 48.3105 181.772C46.9602 182.158 45.5618 182.231 44.1875 182.013C43.8741 181.965 43.5606 181.892 43.2472 181.82C40.7879 181.167 38.7384 179.571 37.4606 177.37C36.1827 175.169 35.8451 172.581 36.4961 170.114C37.1471 167.646 38.7384 165.591 40.9325 164.309C42.8614 163.196 45.0555 162.785 47.2014 163.148C47.5148 163.196 47.8524 163.269 48.1658 163.341C52.8915 164.647 55.8572 169.364 55.0856 174.129Z" fill="white"/>
<path d="M68.7117 9.9167C68.0607 40.8772 65.9388 147.667 66.9515 185.521C67.048 189.536 69.7967 192.753 73.2206 192.874C90.1229 193.527 152.066 195.172 179.698 193.817C185.461 193.527 190.042 188.061 190.163 181.312C190.741 148.804 191.995 57.4217 188.981 15.5525C188.62 10.5456 185.268 6.53039 181 6.04664C162.579 3.84554 100.37 -1.45161 76.4998 0.386669C72.1838 0.701112 68.8081 4.83724 68.7117 9.9167Z" fill="#040A2C"/>
<path d="M76.2341 19.3977C75.3178 44.3838 72.4485 127.518 73.3647 158.26C73.5094 162.759 76.5234 166.388 80.3331 166.654C96.0781 167.742 149.799 170.112 172.898 167.96C177.045 167.573 180.325 163.63 180.542 158.744C181.723 133.25 185.075 55.8488 184.207 25.4447C184.062 20.6071 180.855 16.6403 176.756 16.2049C159.733 14.3908 102.636 10.1095 83.0095 11.3673C79.3445 11.6092 76.4028 15.0681 76.2341 19.3977Z" fill="#91B3FA"/>
<path opacity="0.33" d="M80.6472 24.3322C79.8274 47.5768 77.1992 124.906 78.019 153.496C78.1396 157.68 80.9125 161.066 84.4087 161.308C98.8034 162.324 147.943 164.525 169.065 162.518C172.875 162.155 175.865 158.478 176.058 153.931C177.118 130.227 180.205 58.2195 179.409 29.9438C179.288 25.4449 176.347 21.7441 172.585 21.3571C157.009 19.6882 104.783 15.7214 86.844 16.8824C83.4924 17.0759 80.7919 20.2929 80.6472 24.3322Z" fill="white"/>
<path d="M110.473 5.77976C110.473 6.72304 111.1 7.5212 111.92 7.56958C115.922 7.81144 127.158 8.51286 132.173 8.85147C133.161 8.92403 133.933 7.88401 133.764 6.72304L133.74 6.52955C133.62 5.75557 133.065 5.15091 132.39 5.07835C128.99 4.71554 118.743 3.6997 111.968 3.98994C111.1 4.03832 110.473 4.83648 110.473 5.77976Z" fill="white"/>
<path opacity="0.54" d="M151.536 138.935H106.881C105.193 138.935 103.819 137.556 103.819 135.863V126.914C103.819 125.221 105.193 123.842 106.881 123.842H151.536C153.224 123.842 154.598 125.221 154.598 126.914V135.863C154.622 137.556 153.248 138.935 151.536 138.935Z" fill="white"/>
<path opacity="0.54" d="M151.776 150.351H107.121C105.433 150.351 104.059 148.973 104.059 147.28V145.901C104.059 144.208 105.433 142.829 107.121 142.829H151.776C153.464 142.829 154.839 144.208 154.839 145.901V147.28C154.839 148.973 153.464 150.351 151.776 150.351Z" fill="white"/>
<path d="M123.855 110.418C132.857 110.418 140.155 103.097 140.155 94.0668C140.155 85.0364 132.857 77.7158 123.855 77.7158C114.853 77.7158 107.556 85.0364 107.556 94.0668C107.556 103.097 114.853 110.418 123.855 110.418Z" fill="#FFCD00"/>
<path d="M123.856 109.886C132.565 109.886 139.625 102.803 139.625 94.0669C139.625 85.3304 132.565 78.248 123.856 78.248C115.147 78.248 108.087 85.3304 108.087 94.0669C108.087 102.803 115.147 109.886 123.856 109.886Z" fill="#FFCD00"/>
<path opacity="0.7" d="M110.739 88.3097C110.667 88.3097 110.57 88.2855 110.498 88.2613C110.233 88.1403 110.136 87.8259 110.257 87.5599C112.716 82.3839 117.828 79.0703 123.542 78.9494C124.458 78.9252 125.374 78.9978 126.267 79.1429C126.556 79.1913 126.749 79.4573 126.701 79.7476C126.652 80.0378 126.387 80.2313 126.098 80.1829C125.278 80.062 124.41 79.9894 123.566 80.0136C118.238 80.1346 113.512 83.1821 111.221 88.0194C111.125 88.2129 110.932 88.3097 110.739 88.3097Z" fill="white"/>
<path opacity="0.78" d="M132.423 104.936C138.226 100.387 139.255 91.9816 134.721 86.1607C130.187 80.3398 121.807 79.308 116.005 83.8562C110.202 88.4043 109.173 96.8101 113.707 102.631C118.241 108.452 126.621 109.484 132.423 104.936Z" fill="white"/>
<path d="M144.084 94.7195C155.576 94.7195 164.892 85.3738 164.892 73.8453C164.892 62.3169 155.576 52.9712 144.084 52.9712C132.592 52.9712 123.275 62.3169 123.275 73.8453C123.275 85.3738 132.592 94.7195 144.084 94.7195Z" fill="#FFCD00"/>
<path d="M144.084 94.0178C155.19 94.0178 164.193 84.9861 164.193 73.8451C164.193 62.704 155.19 53.6724 144.084 53.6724C132.978 53.6724 123.974 62.704 123.974 73.8451C123.974 84.9861 132.978 94.0178 144.084 94.0178Z" fill="#FFCD00"/>
<path opacity="0.7" d="M127.326 66.3222C127.253 66.3222 127.181 66.298 127.084 66.2738C126.819 66.1528 126.723 65.8384 126.843 65.5966C129.978 59.0419 136.415 54.8576 143.649 54.7125C144.806 54.6883 145.963 54.7609 147.096 54.9544C147.386 55.0027 147.555 55.2688 147.53 55.5348C147.482 55.8251 147.217 56.0186 146.952 55.9702C145.891 55.8009 144.782 55.7283 143.697 55.7525C136.849 55.8977 130.749 59.8401 127.784 66.0561C127.687 66.2254 127.518 66.3222 127.326 66.3222Z" fill="white"/>
<path opacity="0.78" d="M146.965 91.1763C156.27 89.8249 162.721 81.1626 161.373 71.8286C160.026 62.4946 151.391 56.0234 142.086 57.3748C132.782 58.7262 126.331 67.3885 127.678 76.7225C129.026 86.0566 137.661 92.5277 146.965 91.1763Z" fill="white"/>
<path d="M172.295 72.7078C187.596 72.7078 200 60.2649 200 44.9159C200 29.5669 187.596 17.124 172.295 17.124C156.995 17.124 144.591 29.5669 144.591 44.9159C144.591 60.2649 156.995 72.7078 172.295 72.7078Z" fill="#FFCD00"/>
<path d="M172.295 71.7889C187.089 71.7889 199.083 59.7576 199.083 44.9162C199.083 30.0748 187.089 18.0435 172.295 18.0435C157.5 18.0435 145.507 30.0748 145.507 44.9162C145.507 59.7576 157.5 71.7889 172.295 71.7889Z" fill="#FFCD00"/>
<path opacity="0.7" d="M149.991 34.7321C149.919 34.7321 149.847 34.7079 149.774 34.6837C149.533 34.5628 149.413 34.2726 149.533 34.0065C153.656 25.3235 162.191 19.8089 171.763 19.6154C173.282 19.5912 174.825 19.688 176.32 19.9298C176.586 19.9782 176.778 20.2201 176.73 20.5103C176.682 20.7764 176.441 20.9699 176.152 20.9215C174.705 20.6796 173.234 20.5829 171.763 20.6313C162.577 20.8248 154.379 26.1216 150.425 34.4661C150.353 34.6354 150.16 34.7321 149.991 34.7321Z" fill="white"/>
<path opacity="0.78" d="M195.181 49.6609C197.479 37.3173 189.367 25.4418 177.063 23.1363C164.758 20.8309 152.92 28.9684 150.622 41.312C148.323 53.6556 156.435 65.5311 168.74 67.8366C181.045 70.142 192.883 62.0045 195.181 49.6609Z" fill="white"/>
<path d="M105.022 49.5121H17.2073C14.4345 49.5121 12.168 47.2626 12.168 44.4568V5.10312C12.168 2.32151 14.4104 0.0478516 17.2073 0.0478516H105.022C107.795 0.0478516 110.062 2.29733 110.062 5.10312V44.4568C110.062 47.2384 107.819 49.5121 105.022 49.5121Z" fill="#7D97F4"/>
<path opacity="0.41" d="M102.033 48.6658H19.2811C16.5082 48.6658 14.2417 46.4164 14.2417 43.6106V11.2472C14.2417 8.46556 16.4841 6.19189 19.2811 6.19189H102.057C104.83 6.19189 107.096 8.44137 107.096 11.2472V43.6106C107.072 46.3922 104.806 48.6658 102.033 48.6658Z" fill="white"/>
<g opacity="0.67">
<path opacity="0.67" d="M22.8979 14.1494H17.28V46.6096H22.8979V14.1494Z" fill="white"/>
</g>
<g opacity="0.67">
<path opacity="0.67" d="M30.4223 14.1494H24.8044V46.6096H30.4223V14.1494Z" fill="white"/>
</g>
<g opacity="0.67">
<path opacity="0.67" d="M37.7995 14.1494H32.1816V46.6096H37.7995V14.1494Z" fill="white"/>
</g>
<g opacity="0.67">
<path opacity="0.67" d="M45.3466 14.1494H39.7288V46.6096H45.3466V14.1494Z" fill="white"/>
</g>
<g opacity="0.67">
<path opacity="0.67" d="M52.507 14.1494H46.8892V46.6096H52.507V14.1494Z" fill="white"/>
</g>
<g opacity="0.67">
<path opacity="0.67" d="M60.0307 14.1494H54.4128V46.6096H60.0307V14.1494Z" fill="white"/>
</g>
<g opacity="0.67">
<path opacity="0.67" d="M67.4098 14.1494H61.792V46.6096H67.4098V14.1494Z" fill="white"/>
</g>
<g opacity="0.67">
<path opacity="0.67" d="M74.9316 14.1494H69.3137V46.6096H74.9316V14.1494Z" fill="white"/>
</g>
<g opacity="0.67">
<path opacity="0.67" d="M82.4552 14.1494H76.8374V46.6096H82.4552V14.1494Z" fill="white"/>
</g>
<g opacity="0.67">
<path opacity="0.67" d="M89.9789 14.1494H84.3611V46.6096H89.9789V14.1494Z" fill="white"/>
</g>
<g opacity="0.67">
<path opacity="0.67" d="M97.3542 14.1494H91.7363V46.6096H97.3542V14.1494Z" fill="white"/>
</g>
<g opacity="0.67">
<path opacity="0.67" d="M104.903 14.1494H99.2856V46.6096H104.903V14.1494Z" fill="white"/>
</g>
<path d="M110.086 10.4003V3.0959C110.086 1.37864 108.688 0 106.976 0H15.2546C13.5426 0 12.1924 1.37864 12.1924 3.0959V10.4003H110.086Z" fill="#7D97F4"/>
<path d="M22.9208 30.9609H17.303V46.6339H22.9208V30.9609Z" fill="#7D97F4"/>
<path d="M30.4677 26.1465H24.8499V46.6084H30.4677V26.1465Z" fill="#7D97F4"/>
<path d="M37.8466 34.7822H32.2288V46.6337H37.8466V34.7822Z" fill="#7D97F4"/>
<path d="M45.37 21.8657H39.7522V46.6341H45.37V21.8657Z" fill="#7D97F4"/>
<path d="M52.5299 17.7046H46.9121V46.6333H52.5299V17.7046Z" fill="#7D97F4"/>
<path d="M60.0536 37.8296H54.4358V46.6336H60.0536V37.8296Z" fill="#7D97F4"/>
<path d="M67.4325 29.0254H61.8147V46.6333H67.4325V29.0254Z" fill="#7D97F4"/>
<path d="M74.9775 26.1465H69.3596V46.6084H74.9775V26.1465Z" fill="#7D97F4"/>
<path d="M82.4775 30.4043H76.8596V46.6336H82.4775V30.4043Z" fill="#7D97F4"/>
<path d="M90.0234 19.6392H84.4055V46.6328H90.0234V19.6392Z" fill="#7D97F4"/>
<path d="M97.4032 21.8657H91.7854V46.6341H97.4032V21.8657Z" fill="#7D97F4"/>
<path d="M104.927 24.9614H99.3088V46.6338H104.927V24.9614Z" fill="#7D97F4"/>
<path d="M63.5772 193.575C60.7803 193.817 55.934 194.204 52.1245 194.373C49.834 194.47 48.5079 194.252 47.7363 193.938C47.7363 194.035 47.7363 194.107 47.7363 194.18C47.7604 194.591 48.0739 194.906 48.4838 194.93C55.6929 195.341 61.4313 195.075 63.4808 194.954C63.9148 194.93 64.1559 194.47 63.9389 194.107C63.8424 193.938 63.7219 193.745 63.5772 193.575Z" fill="#323D50"/>
<path d="M52.1245 194.374C55.934 194.204 60.7803 193.817 63.5772 193.575C60.8286 190.189 52.1245 187.916 52.1245 187.916H49.6652C47.9774 190.359 47.7363 192.681 47.7363 193.938C48.5079 194.253 49.8099 194.47 52.1245 194.374Z" fill="#323D50"/>
<path d="M49.2266 183.901L49.4677 188.472C49.4918 188.956 49.8534 189.391 50.3598 189.464C50.842 189.536 51.5171 189.536 52.2163 189.319C52.6503 189.174 52.9638 188.811 53.0361 188.375L53.8317 183.925H49.2266V183.901Z" fill="#FDC7BF"/>
<path d="M20.6806 198.849C19.475 198.631 18.9205 197.808 18.7035 196.938V196.962C18.5347 197.881 18.9446 198.824 19.7644 199.284C20.7529 199.84 21.862 199.937 22.7059 199.889C23.6221 199.84 24.4419 199.356 24.9 198.582C23.9838 199.139 22.7059 199.211 20.6806 198.849Z" fill="#323D50"/>
<path d="M26.3943 185.304H24.3689C21.2827 185.231 19.3298 193.673 18.7029 196.938C18.944 197.808 19.4744 198.631 20.68 198.849C22.7053 199.211 23.9832 199.139 24.8994 198.558C26.563 195.704 27.4069 191.544 27.7927 189.101C28.2508 186.344 26.3943 185.304 26.3943 185.304Z" fill="#323D50"/>
<path d="M24.6354 181.071L23.5022 185.57C23.3575 186.126 23.6227 186.682 24.129 186.948C24.7559 187.263 25.648 187.625 26.4678 187.504C26.8536 187.456 27.167 187.19 27.2876 186.827L28.9512 182.087L24.6354 181.071Z" fill="#FDC7BF"/>
<path d="M64.2506 121.859C64.2506 121.859 54.1719 184.989 54.3407 185.328C54.3407 185.328 51.5679 186.585 48.5298 185.497C48.5298 185.497 49.446 151.755 51.5679 138.814C51.5679 138.814 34.3762 168.977 28.9269 183.997C28.9269 183.997 26.0817 183.659 23.7188 182.111C23.7188 182.111 42.2125 127.809 47.1554 120.577L64.2506 121.859Z" fill="#043C5E"/>
<path d="M51.9795 138.596C51.9071 138.596 51.8348 138.572 51.7625 138.523C51.5696 138.403 51.5213 138.161 51.6419 137.967L55.4032 131.945C55.4514 131.848 55.5479 131.775 55.6684 131.751L58.4412 131.195C58.6582 131.146 58.8752 131.292 58.9234 131.509C58.9716 131.727 58.827 131.945 58.61 131.993L56.006 132.525L52.3411 138.403C52.2447 138.523 52.1241 138.596 51.9795 138.596Z" fill="#043C5E"/>
<path d="M110.448 60.0347C110.448 60.0347 103.649 61.5343 99.5259 63.4452C98.7061 63.8322 98.0551 64.4852 97.6694 65.3076C96.4397 68.0167 92.7266 74.8377 85.5657 78.0788C86.6024 79.4575 88.2661 82.3117 88.9894 87.1251C93.3053 83.9081 97.0184 78.5384 98.8026 69.734C98.8026 69.734 100.153 70.4838 101.865 69.6373C102.757 69.2019 103.794 68.573 104.565 68.0892C105.337 67.6055 105.915 66.8557 106.132 65.9607C106.422 64.7997 106.253 63.7838 106.253 62.6712L109.749 61.5827C109.749 61.6311 110.81 61.2441 110.448 60.0347Z" fill="#FDC7BF"/>
<path d="M88.99 87.1473C88.2666 82.3339 86.6029 79.4797 85.5661 78.101C81.1054 80.1086 75.3186 80.7617 67.9404 78.1978C67.2653 77.9559 66.5419 77.835 65.8427 77.7866C61.9125 77.5447 48.9644 77.1335 38.2588 80.6891C36.0164 81.439 34.1839 83.1079 33.2436 85.2848C30.3501 91.9607 25.6483 107.151 38.6687 114.818C39.6573 112.327 40.8147 110.319 41.8032 108.844C39.7055 105.288 39.0786 100.451 42.8159 94.1376C45.5406 101.491 46.7944 112.206 47.0596 116.947C47.156 118.519 46.8667 120.067 46.2639 121.518L46.1916 121.688C46.071 122.002 46.2398 122.341 46.5774 122.413C53.9073 124.058 61.5267 123.623 63.8173 123.429C64.2272 123.405 64.5648 123.115 64.6612 122.704C68.2297 107.634 68.2297 97.3546 67.3617 90.8481C70.6891 91.5979 80.8884 93.1943 88.99 87.1473Z" fill="#040A2C"/>
<path d="M49.2773 69.0073C49.2773 69.0073 48.5299 76.868 47.8789 79.1899C47.7825 79.5527 47.9271 79.9155 48.2406 80.109C49.3497 80.7379 52.0019 81.7779 55.6426 79.9881C56.2213 79.6979 56.583 79.0932 56.5588 78.4401L56.2454 70.8455L49.2773 69.0073Z" fill="#FDC7BF"/>
<path d="M56.4156 58.9458C56.4156 58.9458 58.7785 64.412 58.9473 67.2902C59.116 70.1685 59.7188 72.0308 56.4156 72.5871C53.1124 73.1676 50.3155 71.5229 48.8207 68.6447C48.8207 68.6447 46.4578 64.2427 46.9882 62.4287C47.5187 60.6389 56.4156 58.9458 56.4156 58.9458Z" fill="#FDC7BF"/>
<path d="M49.9537 66.589L50.1466 66.5164C50.3877 66.4197 50.4841 66.1294 50.3636 65.8876C49.9055 64.9926 48.9893 62.9126 50.1707 62.4289C51.6897 61.8 57.6692 60.5907 58.9712 58.438C60.225 56.3822 59.1159 53.7458 57.4522 52.996C57.3316 52.9477 57.2111 52.996 57.1629 53.0928L57.0182 53.3588C56.9218 53.5281 56.6565 53.5039 56.6083 53.3105C56.5601 53.117 56.2949 53.0928 56.1984 53.2621C55.8127 53.8909 54.7277 54.931 51.8585 55.4631C47.7837 56.2129 45.0833 57.8817 45.011 60.7116C45.011 60.8809 44.8181 61.0018 44.6734 60.9051C44.3841 60.7116 43.9019 60.639 43.2509 61.1711C42.1418 62.1144 42.5999 64.5573 45.0351 66.589C45.1556 66.6857 45.1556 66.8792 45.0351 66.9518C44.6011 67.242 43.926 67.9434 45.6379 68.8625C47.4221 69.8058 48.7482 69.7332 49.2545 69.6607C49.375 69.6365 49.4715 69.5156 49.4474 69.3946L48.8928 66.9034C48.8687 66.7583 48.9652 66.6373 49.1098 66.6373H49.9537V66.589Z" fill="#18171C"/>
<path d="M50.0496 67.1208C50.0496 67.1208 49.1334 63.6379 47.5903 64.6053C46.0231 65.5728 48.4101 68.5236 49.6638 68.6445L50.0496 67.1208Z" fill="#FDC7BF"/>
<path d="M100.613 69.0554C100.516 69.0554 100.444 69.0312 100.347 68.9587C100.179 68.8135 100.154 68.5717 100.299 68.3782C100.564 68.0637 102.855 65.2581 103.747 64.7502C104.036 64.5808 104.205 64.4115 104.253 64.2664C104.253 64.2422 104.277 64.218 104.253 64.1455L101.698 64.6534L100.203 65.9353C100.034 66.0804 99.7687 66.0562 99.624 65.8869C99.4794 65.7176 99.5035 65.4516 99.6723 65.3064L101.239 63.952C101.288 63.9036 101.36 63.8794 101.432 63.8552L104.398 63.2506C104.567 63.2264 104.711 63.2748 104.808 63.4199C105.049 63.7585 105.121 64.0971 105.049 64.4357C104.953 64.8227 104.663 65.1371 104.157 65.4274C103.578 65.7418 101.89 67.7009 100.95 68.8619C100.854 68.9828 100.733 69.0554 100.613 69.0554Z" fill="#FDC7BF"/>
<path d="M49.9753 120.165L60.6806 119.923C60.6806 119.923 51.3496 117.287 50.771 117.988C50.771 117.988 44.9844 114.167 41.8258 108.821C40.8373 110.297 39.68 112.304 38.6914 114.795C41.5124 116.464 45.2496 119.367 49.9753 120.165Z" fill="url(#paint0_linear_248_1992)"/>
<path d="M49.6886 118.303C49.6886 118.303 49.4716 122.584 55.0654 121.955C58.1033 121.617 63.022 118.763 63.022 118.763C63.022 118.763 50.2191 118.738 49.6886 118.303Z" fill="url(#paint1_linear_248_1992)"/>
<path d="M51.8815 119.438C51.9056 119.438 51.9297 119.438 51.9538 119.438L78.5732 119.414C79.2242 119.414 79.7547 118.881 79.7547 118.228C79.7547 117.575 79.2242 117.043 78.5732 117.043L51.9538 117.067C51.3028 117.067 50.7724 117.6 50.7724 118.253C50.7482 118.906 51.2305 119.414 51.8815 119.438Z" fill="#040A2C"/>
<path d="M102.468 95.4688H80.3091C78.6695 95.4688 77.1746 96.4121 76.4995 97.8633L66.252 119.439H93.7876C94.8485 119.439 95.7889 118.81 96.1747 117.818L104.132 97.8633C104.566 96.7265 103.722 95.4688 102.468 95.4688Z" fill="#040A2C"/>
<path d="M86.8675 106.522C86.3853 107.998 86.747 109.449 87.6632 109.739C88.5794 110.03 89.7126 109.062 90.1948 107.587C90.6771 106.111 90.3154 104.66 89.3992 104.37C88.4589 104.08 87.3256 105.047 86.8675 106.522Z" fill="white"/>
<path d="M123.896 102.204C122.269 102.204 121.049 101.844 120.236 101.124C119.436 100.404 119.036 99.4106 119.036 98.1439C119.036 97.7439 119.083 97.3839 119.176 97.0639H118.196V95.5839H119.936C120.176 95.3039 120.463 95.0439 120.796 94.8039C121.129 94.5639 121.503 94.3439 121.916 94.1439H118.196V92.6639H124.876C125.223 92.3439 125.396 91.9239 125.396 91.4039C125.396 90.9772 125.236 90.6439 124.916 90.4039C124.609 90.1639 124.163 90.0439 123.576 90.0439C123.043 90.0439 122.503 90.1172 121.956 90.2639C121.423 90.4106 120.823 90.6172 120.156 90.8839L119.256 88.5239C119.949 88.2172 120.669 87.9772 121.416 87.8039C122.176 87.6172 122.976 87.5239 123.816 87.5239C125.203 87.5239 126.303 87.8639 127.116 88.5439C127.943 89.2106 128.356 90.1839 128.356 91.4639C128.356 91.8772 128.303 92.2772 128.196 92.6639H129.216V94.1439H127.356C127.063 94.4772 126.716 94.7572 126.316 94.9839C125.916 95.1972 125.503 95.3972 125.076 95.5839H129.216V97.0639H122.376C122.123 97.3572 121.996 97.7172 121.996 98.1439C121.996 98.6372 122.169 99.0239 122.516 99.3039C122.863 99.5706 123.383 99.7039 124.076 99.7039C124.796 99.7039 125.503 99.6239 126.196 99.4639C126.889 99.2906 127.583 99.0639 128.276 98.7839V101.304C127.703 101.584 127.043 101.804 126.296 101.964C125.549 102.124 124.749 102.204 123.896 102.204Z" fill="#FFCD00"/>
<path d="M145.078 83.2424C143.126 83.2424 141.662 82.8104 140.686 81.9464C139.726 81.0824 139.246 79.8904 139.246 78.3704C139.246 77.8904 139.302 77.4584 139.414 77.0744H138.238V75.2984H140.326C140.614 74.9624 140.958 74.6504 141.358 74.3624C141.758 74.0744 142.206 73.8104 142.702 73.5704H138.238V71.7944H146.254C146.67 71.4104 146.878 70.9064 146.878 70.2824C146.878 69.7704 146.686 69.3704 146.302 69.0824C145.934 68.7944 145.398 68.6504 144.694 68.6504C144.054 68.6504 143.406 68.7384 142.75 68.9144C142.11 69.0904 141.39 69.3384 140.59 69.6584L139.51 66.8264C140.342 66.4584 141.206 66.1704 142.102 65.9624C143.014 65.7384 143.974 65.6264 144.982 65.6264C146.646 65.6264 147.966 66.0344 148.942 66.8504C149.934 67.6504 150.43 68.8184 150.43 70.3544C150.43 70.8504 150.366 71.3304 150.238 71.7944H151.462V73.5704H149.23C148.878 73.9704 148.462 74.3064 147.982 74.5784C147.502 74.8344 147.006 75.0744 146.494 75.2984H151.462V77.0744H143.254C142.95 77.4264 142.798 77.8584 142.798 78.3704C142.798 78.9624 143.006 79.4264 143.422 79.7624C143.838 80.0824 144.462 80.2424 145.294 80.2424C146.158 80.2424 147.006 80.1464 147.838 79.9544C148.67 79.7464 149.502 79.4744 150.334 79.1384V82.1624C149.646 82.4984 148.854 82.7624 147.958 82.9544C147.062 83.1464 146.102 83.2424 145.078 83.2424Z" fill="#FFCD00"/>
<path d="M173.438 57.32C170.835 57.32 168.883 56.744 167.582 55.592C166.302 54.44 165.662 52.8507 165.662 50.824C165.662 50.184 165.737 49.608 165.886 49.096H164.318V46.728H167.102C167.486 46.28 167.945 45.864 168.478 45.48C169.011 45.096 169.609 44.744 170.27 44.424H164.318V42.056H175.006C175.561 41.544 175.838 40.872 175.838 40.04C175.838 39.3573 175.582 38.824 175.07 38.44C174.579 38.056 173.865 37.864 172.926 37.864C172.073 37.864 171.209 37.9813 170.334 38.216C169.481 38.4507 168.521 38.7813 167.454 39.208L166.014 35.432C167.123 34.9413 168.275 34.5573 169.47 34.28C170.686 33.9813 171.966 33.832 173.31 33.832C175.529 33.832 177.289 34.376 178.59 35.464C179.913 36.5307 180.574 38.088 180.574 40.136C180.574 40.7973 180.489 41.4373 180.318 42.056H181.95V44.424H178.974C178.505 44.9573 177.95 45.4053 177.31 45.768C176.67 46.1093 176.009 46.4293 175.326 46.728H181.95V49.096H171.006C170.601 49.5653 170.398 50.1413 170.398 50.824C170.398 51.6133 170.675 52.232 171.23 52.68C171.785 53.1067 172.617 53.32 173.726 53.32C174.878 53.32 176.009 53.192 177.118 52.936C178.227 52.6587 179.337 52.296 180.446 51.848V55.88C179.529 56.328 178.473 56.68 177.278 56.936C176.083 57.192 174.803 57.32 173.438 57.32Z" fill="#FFCD00"/>
<defs>
<linearGradient id="paint0_linear_248_1992" x1="58.9134" y1="11.9689" x2="61.8245" y2="-21.0426" gradientUnits="userSpaceOnUse">
<stop stop-color="#FEBBBA"/>
<stop offset="1" stop-color="#FF928E"/>
</linearGradient>
<linearGradient id="paint1_linear_248_1992" x1="47.0435" y1="12.4995" x2="44.1323" y2="-20.5122" gradientUnits="userSpaceOnUse">
<stop stop-color="#FEBBBA"/>
<stop offset="1" stop-color="#FF928E"/>
</linearGradient>
</defs>
</svg>
