<svg width="120" height="79" viewBox="0 0 120 79" fill="none" xmlns="http://www.w3.org/2000/svg">
<g clip-path="url(#clip0_248_1406)">
<path d="M77.4892 5.91956C77.4892 5.48643 77.1271 5.12549 76.6926 5.12549C76.2581 5.12549 75.896 5.48643 75.896 5.91956C75.896 7.5799 76.6202 9.02367 77.7065 10.1065C78.7928 11.1893 80.386 11.839 82.0517 11.839C83.7174 11.839 85.3106 11.1893 86.3969 10.1065C87.4832 9.02367 88.2074 7.5799 88.2074 5.91956C88.2074 5.48643 87.8453 5.12549 87.4108 5.12549C86.9762 5.12549 86.6141 5.48643 86.6141 5.91956C86.6141 7.14677 86.1072 8.2296 85.2382 9.02367C84.3691 9.81775 83.2104 10.3231 81.9068 10.3231C80.6033 10.3231 79.4446 9.81775 78.5755 9.02367C77.9962 8.2296 77.4892 7.07458 77.4892 5.91956Z" fill="#3F4349"/>
<path d="M80.3139 11.6222C81.9071 11.911 82.9934 11.7666 83.5004 11.6944C83.5728 11.6944 83.6452 11.6222 83.79 11.6222C84.297 11.55 85.2384 11.1169 85.6005 10.8281L84.8763 9.45654C84.8763 9.45654 83.6452 10.1784 82.6313 10.2506H82.5589C81.6899 10.3228 81.1105 10.1062 80.2415 9.88967L80.3139 11.6222Z" fill="#3F4349"/>
<path fill-rule="evenodd" clip-rule="evenodd" d="M82.4141 1.51611H84.8039V4.47585H82.4141V1.51611Z" fill="#3F4349"/>
<path fill-rule="evenodd" clip-rule="evenodd" d="M48.8833 37.9714H54.5321C55.3287 37.9714 55.9805 37.3217 55.9805 36.5277V36.4555V35.5892C55.9805 34.7951 56.6323 34.0732 57.5013 34.0732H78.0686C78.5755 36.7442 80.9654 38.6933 83.7898 38.6933C86.6141 38.6933 88.9316 36.672 89.5109 34.0732H110.078C110.875 34.0732 111.599 34.7229 111.599 35.5892V36.0223V36.5277C111.599 37.3217 112.251 37.9714 113.047 37.9714H118.624C119.348 37.9714 120 38.6211 120 39.343V56.0908H106.675H103.85H103.778V47.5725C103.778 47.0672 103.488 46.7062 103.126 46.7062H101.315C100.953 46.7062 100.664 47.0672 100.664 47.5725V56.0908H100.591H97.7668H97.6944V47.5725C97.6944 47.0672 97.4047 46.7062 97.0426 46.7062H95.2321C94.87 46.7062 94.5804 47.0672 94.5804 47.5725V56.0908H94.5079H91.6836V47.5725C91.6836 47.0672 91.3939 46.7062 91.0318 46.7062H89.2213C88.8592 46.7062 88.5695 47.0672 88.5695 47.5725V56.0908H88.4971H85.6727V47.5725C85.6727 47.0672 85.383 46.7062 85.0209 46.7062H83.2104C82.8483 46.7062 82.5586 47.0672 82.5586 47.5725V56.0908H82.4862H79.6618V47.5725C79.6618 47.0672 79.3721 46.7062 79.01 46.7062H76.6926C76.3305 46.7062 76.0408 47.0672 76.0408 47.5725V56.0908H75.896H73.0716V47.5725C73.0716 47.0672 72.7819 46.7062 72.4198 46.7062H70.6093C70.2472 46.7062 69.9575 47.0672 69.9575 47.5725V56.0908H69.8127H67.0607V47.5725C67.0607 47.0672 66.7711 46.7062 66.409 46.7062H64.5985C64.2364 46.7062 63.9467 47.0672 63.9467 47.5725V56.0908H63.657H58.0082H47.5073V39.343C47.5073 38.6211 48.1591 37.9714 48.8833 37.9714Z" fill="#3F4349"/>
<path fill-rule="evenodd" clip-rule="evenodd" d="M99.7947 29.7417C98.9981 26.2767 97.26 23.3891 94.5081 21.0069C91.8285 18.6968 88.7145 17.3975 85.0935 17.0365H84.8038V4.04256C84.4417 3.10411 83.3554 2.74316 82.4139 2.74316V17.1087H82.2691C78.6481 17.4696 75.4616 18.769 72.8545 21.0791C70.1749 23.3891 68.4369 26.3488 67.5678 29.8139C67.5678 29.8139 64.9607 29.3808 64.9607 32.2683H77.9239C78.286 29.453 80.7483 27.2151 83.6451 27.2151C86.6143 27.2151 89.0042 29.3808 89.4387 32.2683H102.619C102.619 29.6695 99.7947 29.7417 99.7947 29.7417Z" fill="#3F4349"/>
<path fill-rule="evenodd" clip-rule="evenodd" d="M83.7177 29.02C85.8903 29.02 87.6284 30.7525 87.6284 32.9182C87.6284 35.0839 85.8903 36.8164 83.7177 36.8164C81.5451 36.8164 79.807 35.0839 79.807 32.9182C79.7346 30.8247 81.5451 29.02 83.7177 29.02Z" fill="#3F4349"/>
<path fill-rule="evenodd" clip-rule="evenodd" d="M73.2893 0.938327L74.5929 1.29927C75.3895 1.51584 76.8379 1.87678 77.4173 2.02116C77.9966 2.16553 78.5036 2.23772 78.9381 2.30991C78.8657 2.3821 78.7933 2.3821 78.7208 2.45429C79.3726 2.59867 80.0968 2.81523 80.3141 2.95961C80.3865 2.95961 80.4589 3.0318 80.5313 3.17617C80.8934 3.75368 80.821 4.69214 80.821 6.56904C80.821 6.64123 80.821 7.21874 80.821 7.29093V10.4672C80.821 11.4779 80.8934 11.5501 80.0244 12.1998L70.1753 19.7796L55.1119 16.0979C54.5325 15.3761 54.6774 14.3654 55.4016 13.7879L70.827 2.02116L71.4788 1.51584C72.2754 1.01052 72.4927 0.866139 73.2893 0.938327ZM76.6207 4.18682C76.1137 4.11463 75.6068 4.259 75.0998 4.61995C74.2308 5.26964 74.0859 6.49685 74.7377 7.4353C75.3895 8.30157 76.6931 8.44594 77.5621 7.79625C78.1415 7.36312 78.4312 6.64123 78.2863 5.91934V5.84715C78.2139 5.63059 78.1415 5.41402 77.9966 5.12527C77.707 4.54776 76.8379 4.61995 76.8379 4.61995L76.6207 4.18682Z" fill="#3F4349"/>
<path fill-rule="evenodd" clip-rule="evenodd" d="M80.531 3.1038C80.4586 3.03161 80.3862 2.95942 80.3137 2.95942C80.0965 2.88723 79.2999 2.67067 78.6481 2.4541C78.5032 2.59848 78.3584 2.67067 78.2136 2.81504C77.7066 3.32036 77.2721 3.89787 76.9824 4.54757C77.2721 4.54757 77.779 4.69195 77.9963 5.05289C78.0687 5.19727 78.1411 5.41383 78.2136 5.55821C78.4308 4.90851 78.7929 4.40319 79.2999 3.89787C79.662 3.60912 80.0965 3.32037 80.531 3.1038Z" fill="#3F4349"/>
<path fill-rule="evenodd" clip-rule="evenodd" d="M64.8882 12.1275L65.9021 11.6943L73.3613 17.325L70.1749 19.7795L64.8882 12.1275Z" fill="#3F4349"/>
<path d="M77.4892 5.91947C77.4892 6.3526 77.1271 6.71354 76.6926 6.71354C76.2581 6.71354 75.896 6.3526 75.896 5.91947C75.896 4.25913 76.6202 2.81536 77.7065 1.73253C78.7928 0.649698 80.386 0 82.0517 0C83.7174 0 85.3106 0.649698 86.3969 1.73253C87.4832 2.81536 88.2074 4.25913 88.2074 5.91947C88.2074 6.3526 87.8453 6.71354 87.4108 6.71354C86.9762 6.71354 86.6141 6.3526 86.6141 5.91947C86.6141 4.69226 86.1072 3.60943 85.2382 2.81536C84.3691 2.02128 83.2104 1.51596 81.9068 1.51596C80.6033 1.51596 79.4446 2.02128 78.5755 2.81536C77.9962 3.60943 77.4892 4.69226 77.4892 5.91947Z" fill="#3F4349"/>
<path fill-rule="evenodd" clip-rule="evenodd" d="M70.1029 19.7796L66.6992 12.4885C66.3371 11.6944 65.3232 11.3335 64.5266 11.6944L55.0396 16.0258L70.1029 19.7796Z" fill="#3F4349"/>
<path d="M14.2669 72.6218C14.9911 72.6218 15.5705 71.8999 16.005 70.5283C16.4395 69.0845 16.7292 67.0633 16.8741 64.3923L17.1637 58.9059H26.2887V72.6218H27.7371V78.9744H25.999V74.0655H14.5566V78.9744H12.9634V72.6218H14.2669ZM18.5397 64.3923C18.3949 66.4136 18.25 68.0739 17.9604 69.4455C17.6707 70.8171 17.3086 71.8999 16.8016 72.6218H24.5506V60.4941H18.757L18.5397 64.3923ZM36.2826 74.3543C34.3273 74.3543 32.734 73.6324 31.5029 72.2608C30.2718 70.8892 29.6924 69.0845 29.6924 66.9189V66.1248C29.6924 63.9591 30.3442 62.1544 31.5753 60.7107C32.8065 59.2669 34.3273 58.6172 36.2102 58.6172C38.0207 58.6172 39.4691 59.1947 40.483 60.4219C41.4969 61.5769 42.0038 63.1651 42.0038 65.1864V66.4857H31.3581V66.9189C31.3581 68.6514 31.7926 70.0952 32.6616 71.178C33.5307 72.333 34.7618 72.9105 36.2826 72.9105C37.2241 72.9105 38.0931 72.7662 38.8173 72.4774C39.614 72.1886 40.2657 71.7555 40.7727 71.2502L41.4969 72.4052C40.9899 72.9827 40.2657 73.4158 39.3967 73.7768C38.5277 74.1377 37.5138 74.3543 36.2826 74.3543ZM36.1378 60.061C34.8342 60.061 33.8204 60.4941 32.9513 61.4325C32.1547 62.371 31.6477 63.526 31.5029 64.9698L31.5753 65.042H40.2657V64.681C40.2657 63.3094 39.9036 62.2266 39.1794 61.3604C38.4552 60.4941 37.4414 60.061 36.1378 60.061ZM56.8499 66.9189C56.8499 69.1567 56.343 70.9614 55.3291 72.333C54.3152 73.7046 52.8668 74.3543 51.0563 74.3543C49.97 74.3543 49.101 74.1377 48.3044 73.7768C47.5077 73.3437 46.856 72.8383 46.349 72.0443V79.8406H44.6834V58.9059H45.9869L46.2766 61.2882C46.7835 60.4219 47.4353 59.7722 48.2319 59.3391C49.0286 58.9059 49.97 58.6172 51.0563 58.6172C52.8668 58.6172 54.3152 59.3391 55.3291 60.7828C56.343 62.2266 56.8499 64.1757 56.8499 66.5579V66.9189ZM55.1843 66.6301C55.1843 64.681 54.8222 63.1651 54.0255 61.9379C53.2289 60.7107 52.1426 60.1332 50.6942 60.1332C49.6079 60.1332 48.6665 60.4219 47.9423 60.9272C47.2181 61.4325 46.7111 62.1544 46.349 63.0207V70.3117C46.7111 71.1058 47.2905 71.7555 48.0147 72.2608C48.7389 72.694 49.6079 72.9827 50.6942 72.9827C52.1426 72.9827 53.3013 72.4052 54.0255 71.3224C54.8222 70.2396 55.1843 68.7958 55.1843 66.9189V66.6301ZM69.5234 67.0633H68.2199V74.0655H66.5542V67.0633H65.3231L59.6019 74.0655H57.5741L57.5017 73.9934L63.8747 66.2692L58.1535 58.9781H60.1812L65.2506 65.6195H66.5542V58.9059H68.2199V65.5473H69.5234L74.5928 58.9059H76.6206L70.827 66.197L77.2 73.9212L77.1275 73.9934H75.2446L69.5234 67.0633ZM87.6284 74.0655C87.556 73.5602 87.4112 73.0549 87.4112 72.694C87.3388 72.333 87.3388 71.8999 87.3388 71.5389C86.8318 72.333 86.1076 73.0549 85.1662 73.5602C84.2247 74.0656 83.1384 74.3543 81.9072 74.3543C80.3864 74.3543 79.3001 73.9934 78.4311 73.1993C77.6345 72.4052 77.2 71.3224 77.2 70.023C77.2 68.6514 77.7793 67.5686 79.0105 66.7745C80.1692 65.9082 81.7624 65.5473 83.6453 65.5473H87.3388V63.6704C87.3388 62.5876 86.9767 61.7213 86.3249 61.1438C85.6007 60.4941 84.6592 60.2053 83.4281 60.2053C82.2693 60.2053 81.3279 60.4941 80.6761 61.0716C79.9519 61.6491 79.5898 62.371 79.5898 63.1651H78.069V63.0929C77.9966 61.9379 78.5035 60.9272 79.5174 60.061C80.5313 59.1947 81.9073 58.7616 83.5729 58.7616C85.2386 58.7616 86.5421 59.1947 87.556 60.061C88.5699 60.9272 89.0768 62.1544 89.0768 63.7426V71.178C89.0768 71.6833 89.0768 72.2608 89.1493 72.7662C89.2217 73.2715 89.2941 73.7768 89.4389 74.2821H87.6284V74.0655ZM82.0521 72.8383C83.3557 72.8383 84.442 72.5496 85.3834 71.8999C86.3249 71.3224 86.9767 70.5283 87.2663 69.5177V66.6301H83.5005C82.1245 66.6301 81.0382 66.9911 80.0967 67.5686C79.2277 68.2183 78.7932 69.0124 78.7932 69.8786C78.7932 70.7449 79.0829 71.3946 79.6622 71.9721C80.2416 72.6218 81.0382 72.8383 82.0521 72.8383ZM92.9151 74.0655V58.9059H98.4914C100.374 58.9059 101.823 59.2669 102.909 59.9166C103.923 60.5663 104.502 61.5769 104.502 62.9485C104.502 63.7426 104.285 64.3923 103.778 64.9698C103.344 65.5473 102.619 65.9804 101.823 66.2692C102.837 66.4857 103.633 66.9189 104.213 67.5686C104.792 68.2183 105.154 69.0124 105.154 69.8786C105.154 71.2502 104.647 72.2608 103.633 72.9827C102.619 73.7046 101.243 74.0655 99.5053 74.0655H92.9151ZM94.5808 67.0633V72.6218H99.4329C100.664 72.6218 101.678 72.4052 102.33 71.8999C102.981 71.3946 103.344 70.7449 103.344 69.8064C103.344 68.9402 102.981 68.2905 102.33 67.7851C101.606 67.2798 100.664 67.0633 99.4329 67.0633H94.5808ZM94.5808 65.6917H98.6363C100.012 65.6917 101.026 65.4751 101.75 65.042C102.475 64.6088 102.837 63.887 102.837 63.0207C102.837 62.0822 102.475 61.4325 101.75 60.9994C101.026 60.5663 99.9398 60.3497 98.5639 60.3497H94.6532V65.6917H94.5808ZM118.045 58.9059H119.711V74.0655H118.045V61.7213H117.972L109.861 74.0655H108.196V58.9059H109.861V71.2502H109.934L118.045 58.9059Z" fill="#3F4349"/>
<path d="M0 42.5914H3.69342V53.3475H8.18346V42.5914H11.8769V53.3475H13.8322V60.6386H10.2112V56.1629H0.07242L0 42.5914ZM18.5395 56.0907H14.8461V42.5914H18.5395V56.0907ZM18.5395 40.8589H14.8461V38.1157H18.5395V40.8589ZM32.0097 56.0907H28.3162V50.8209H23.8262V56.0907H20.2052V42.5914H23.8986V48.0778H28.3887V42.5914H32.0821L32.0097 56.0907ZM41.4967 56.0907C41.3518 55.8019 41.2794 55.441 41.1346 55.0801C41.0622 54.7191 40.9897 54.3582 40.9173 53.9972C40.5552 54.6469 40.0483 55.2244 39.3965 55.6576C38.7447 56.0907 38.0205 56.3073 37.1515 56.3073C35.7031 56.3073 34.6168 55.9463 33.8926 55.2244C33.096 54.5025 32.7339 53.4919 32.7339 52.2647C32.7339 50.9653 33.2408 49.8825 34.2547 49.1606C35.2686 48.4387 36.7894 48.0778 38.7447 48.0778H40.7725V46.9949C40.7725 46.3452 40.6276 45.8399 40.2655 45.479C39.9034 45.118 39.3965 44.9736 38.7447 44.9736C38.1654 44.9736 37.6584 45.118 37.3687 45.4068C37.0791 45.6955 36.8618 46.0565 36.8618 46.5618H33.3132V46.4896C33.2408 45.3346 33.7477 44.3239 34.834 43.5299C35.9203 42.7358 37.2963 42.3027 38.962 42.3027C40.6276 42.3027 41.9312 42.7358 42.9451 43.5299C43.959 44.3239 44.4659 45.5512 44.4659 47.0671V52.6256C44.4659 53.2753 44.5383 53.8528 44.6107 54.4304C44.6832 55.0079 44.828 55.5132 45.0453 56.0907H41.4967ZM38.1654 53.6363C38.8171 53.6363 39.3965 53.4919 39.9034 53.131C40.4104 52.8422 40.7725 52.4813 40.9173 52.0481V50.099H38.8896C38.0929 50.099 37.5136 50.3156 37.1515 50.6765C36.7894 51.0375 36.5721 51.5428 36.5721 52.1203C36.5721 52.5534 36.717 52.9144 37.0066 53.2031C37.2239 53.5641 37.6584 53.6363 38.1654 53.6363Z" fill="#3F4349"/>
<path fill-rule="evenodd" clip-rule="evenodd" d="M84.8037 17.1084C89.9455 17.9025 94.1459 23.1001 94.8701 29.6692H99.7222C98.8532 22.6669 91.0318 17.1084 84.8037 17.1084Z" fill="#3F4349"/>
</g>
<defs>
<clipPath id="clip0_248_1406">
<rect width="120" height="78.9744" fill="white"/>
</clipPath>
</defs>
</svg>
