<svg width="200" height="200" viewBox="0 0 200 200" fill="none" xmlns="http://www.w3.org/2000/svg">
<g clip-path="url(#clip0_248_2301)">
<path d="M174.964 171.869C169.827 177.216 165.218 180.371 161.69 182.756C127.34 205.949 88.0701 199.254 75.9241 196.966C56.337 193.281 39.7984 190.68 25.5881 177.698C-6.67308 148.242 -5.11283 86.7537 19.5631 48.6516C22.4916 44.1477 47.1195 7.22574 86.4618 2.02342C87.422 1.903 88.1421 1.83074 88.7662 1.75849C94.8632 1.1082 132.573 -2.33592 163.346 23.7238C167.739 27.457 174.844 34.1766 181.397 44.4367C205.449 81.9367 205.521 140.029 174.964 171.869Z" fill="#EAEBED"/>
<path opacity="0.3" d="M2.95209 64.1866C2.85608 64.1866 2.76006 64.1384 2.73606 64.0421C2.61604 63.7531 2.49602 63.44 2.376 63.1509C2.32799 63.0305 2.4 62.886 2.52002 62.8378C2.64004 62.7897 2.78407 62.8619 2.83207 62.9824C2.95209 63.2714 3.07211 63.5845 3.19213 63.8735C3.24014 63.9939 3.19213 64.1384 3.07211 64.1866C3.0241 64.1866 3.0001 64.1866 2.95209 64.1866Z" fill="#FFCD00"/>
<path opacity="0.3" d="M1.60826 60.3814C1.51224 60.3814 1.41623 60.3091 1.36822 60.2128C1.20019 59.6107 1.03217 58.9845 0.888142 58.3824C0.864138 58.2619 0.93615 58.1174 1.05617 58.0933C1.17619 58.0693 1.32021 58.1415 1.34422 58.2619C1.48824 58.8641 1.65626 59.4662 1.82429 60.0683C1.8723 60.1887 1.80029 60.3332 1.65626 60.3573C1.65626 60.3814 1.63226 60.3814 1.60826 60.3814ZM0.576092 55.5404C0.456073 55.5404 0.360058 55.444 0.336054 55.3236C0.240038 54.6974 0.168027 54.0712 0.120019 53.445C0.120019 53.3246 0.216035 53.2041 0.336054 53.1801C0.456073 53.156 0.576092 53.2764 0.600096 53.3968C0.648104 54.023 0.720115 54.6492 0.816131 55.2513C0.840134 55.3718 0.744119 55.5163 0.600096 55.5163C0.600096 55.5404 0.576092 55.5404 0.576092 55.5404ZM0.240038 50.603C0.0960153 50.603 0 50.4826 0 50.3621C0 49.7359 0.0240038 49.0856 0.0480077 48.4594C0.0480077 48.3149 0.168027 48.2186 0.31205 48.2427C0.456073 48.2427 0.552088 48.3631 0.528084 48.5076C0.480077 49.1338 0.480077 49.76 0.480077 50.3862C0.480077 50.5066 0.384061 50.603 0.240038 50.603ZM0.6241 45.6656H0.600096C0.480077 45.6415 0.384061 45.5211 0.408065 45.4007C0.504081 44.7745 0.6241 44.1483 0.744119 43.5221C0.768123 43.4016 0.888142 43.3053 1.03217 43.3294C1.15218 43.3535 1.2482 43.4739 1.2242 43.6184C1.10418 44.2205 0.984157 44.8467 0.888142 45.4729C0.840134 45.5934 0.720115 45.6656 0.6241 45.6656ZM1.70427 40.8487C1.68027 40.8487 1.65627 40.8487 1.63226 40.8487C1.51224 40.8005 1.44023 40.6801 1.46423 40.5596C1.65626 39.9575 1.8483 39.3554 2.06433 38.7533C2.11234 38.6329 2.25636 38.5606 2.37638 38.6088C2.4964 38.6569 2.56841 38.8015 2.5204 38.9219C2.30437 39.4999 2.11234 40.102 1.92031 40.7041C1.8963 40.7764 1.80029 40.8487 1.70427 40.8487ZM3.45655 36.2003C3.43255 36.2003 3.38454 36.2003 3.36054 36.1762C3.24052 36.128 3.19251 35.9835 3.24052 35.8631C3.50456 35.2851 3.79261 34.707 4.10466 34.1531C4.17667 34.0327 4.32069 33.9845 4.44071 34.0568C4.56073 34.129 4.60874 34.2735 4.53673 34.3939C4.24868 34.9479 3.96063 35.5018 3.69659 36.0799C3.64858 36.1521 3.55257 36.2003 3.45655 36.2003ZM5.88094 31.8891C5.83293 31.8891 5.78493 31.865 5.73692 31.841C5.6169 31.7687 5.59289 31.6242 5.66491 31.5038C6.00096 30.9739 6.38502 30.444 6.74508 29.9383C6.81709 29.8419 6.98512 29.8178 7.08113 29.8901C7.17715 29.9623 7.20115 30.1309 7.12914 30.2273C6.76908 30.7331 6.40903 31.2388 6.04897 31.7687C6.04897 31.865 5.97696 31.8891 5.88094 31.8891ZM8.90542 27.9633C8.85742 27.9633 8.78541 27.9392 8.7374 27.8911C8.64138 27.7947 8.64138 27.6502 8.71339 27.5539C9.12146 27.0722 9.57753 26.6146 10.0096 26.181C10.1056 26.0847 10.2496 26.0847 10.3457 26.181C10.4417 26.2774 10.4417 26.4219 10.3457 26.5182C9.91359 26.9517 9.48152 27.4094 9.07345 27.8911C9.02544 27.9392 8.97744 27.9633 8.90542 27.9633ZM12.434 24.5192C12.362 24.5192 12.29 24.4951 12.242 24.4228C12.1459 24.3265 12.1699 24.1579 12.266 24.0857C12.746 23.6762 13.2501 23.2909 13.7542 22.9055C13.8502 22.8332 14.0182 22.8573 14.0903 22.9537C14.1623 23.05 14.1383 23.2186 14.0422 23.2909C13.5382 23.6521 13.0581 24.0616 12.578 24.4469C12.554 24.4951 12.506 24.5192 12.434 24.5192ZM16.4426 21.629C16.3706 21.629 16.2746 21.5808 16.2266 21.5086C16.1546 21.3882 16.2026 21.2437 16.2986 21.1714C16.8267 20.8342 17.3788 20.5211 17.9309 20.208C18.0509 20.1358 18.1949 20.1839 18.2669 20.3044C18.3389 20.4248 18.2909 20.5693 18.1709 20.6415C17.6188 20.9306 17.0907 21.2437 16.5626 21.5808C16.5386 21.6049 16.4906 21.629 16.4426 21.629ZM20.8113 19.341C20.7153 19.341 20.6193 19.2928 20.5953 19.1964C20.5473 19.076 20.5953 18.9315 20.7153 18.8833C21.2914 18.6425 21.8915 18.4017 22.4676 18.1849C22.5876 18.1367 22.7316 18.209 22.7796 18.3294C22.8277 18.4498 22.7556 18.5943 22.6356 18.6425C22.0595 18.8593 21.4594 19.1001 20.9073 19.341C20.8833 19.3169 20.8353 19.341 20.8113 19.341ZM46.7355 18.8593C46.7115 18.8593 46.6875 18.8593 46.6395 18.8352C46.0634 18.6184 45.4633 18.4017 44.8872 18.209C44.7672 18.1608 44.6951 18.0404 44.7432 17.8959C44.7912 17.7754 44.9112 17.7032 45.0552 17.7514C45.6553 17.944 46.2554 18.1608 46.8315 18.4017C46.9515 18.4498 47.0235 18.5943 46.9755 18.7148C46.9035 18.787 46.8315 18.8593 46.7355 18.8593ZM25.4681 17.7032C25.3721 17.7032 25.276 17.6309 25.228 17.5346C25.204 17.4142 25.276 17.2697 25.3961 17.2456C25.9962 17.077 26.6203 16.9325 27.2444 16.8121C27.3644 16.788 27.5084 16.8602 27.5324 17.0047C27.5564 17.1252 27.4844 17.2697 27.3404 17.2938C26.7403 17.4142 26.1162 17.5587 25.5161 17.7273C25.5161 17.7032 25.4921 17.7032 25.4681 17.7032ZM42.0067 17.3901C41.9827 17.3901 41.9827 17.3901 41.9587 17.3901C41.3586 17.2456 40.7345 17.1252 40.1344 17.0288C40.0144 17.0047 39.9184 16.8843 39.9424 16.7398C39.9664 16.6194 40.0864 16.523 40.2304 16.5471C40.8545 16.6435 41.4786 16.788 42.0787 16.9325C42.1987 16.9566 42.2948 17.1011 42.2708 17.2215C42.2228 17.3178 42.1267 17.3901 42.0067 17.3901ZM30.3169 16.7639C30.1968 16.7639 30.1008 16.6675 30.0768 16.5471C30.0528 16.4267 30.1488 16.3063 30.2928 16.2822C30.9169 16.2099 31.541 16.1618 32.1892 16.1136C32.3092 16.1136 32.4292 16.2099 32.4532 16.3304C32.4532 16.4749 32.3572 16.5712 32.2372 16.5953C31.6131 16.6435 30.989 16.6916 30.3649 16.7639C30.3409 16.7639 30.3409 16.7639 30.3169 16.7639ZM37.1339 16.6435C37.1339 16.6435 37.1099 16.6435 37.1339 16.6435C36.5098 16.5953 35.8617 16.5712 35.2376 16.5471C35.0936 16.5471 34.9976 16.4267 34.9976 16.3063C34.9976 16.1618 35.1176 16.0654 35.2376 16.0654C35.8617 16.0895 36.5098 16.1136 37.1339 16.1618C37.278 16.1618 37.374 16.2822 37.35 16.4267C37.35 16.5471 37.254 16.6435 37.1339 16.6435Z" fill="#FFCD00"/>
<path opacity="0.3" d="M50.4081 20.545C50.3601 20.545 50.3361 20.545 50.2881 20.521C50.0001 20.3764 49.736 20.2319 49.448 20.0874C49.3279 20.0393 49.2799 19.8948 49.352 19.7743C49.4 19.6539 49.544 19.6057 49.664 19.678C49.952 19.8225 50.2401 19.967 50.5281 20.1115C50.6482 20.1838 50.6962 20.3283 50.6242 20.4487C50.5761 20.4969 50.4801 20.545 50.4081 20.545Z" fill="#FFCD00"/>
<path opacity="0.3" d="M35.79 84.972C35.6699 84.972 35.5499 84.8757 35.5499 84.7312C35.5499 84.5867 35.6459 84.4904 35.79 84.4904H36.006C36.5821 84.4663 37.1582 84.4181 37.7343 84.3699C37.8783 84.3699 37.9743 84.4422 37.9983 84.5867C38.0223 84.7071 37.9263 84.8275 37.7823 84.8516C37.2062 84.8998 36.6061 84.948 36.03 84.972H35.79ZM32.5734 84.948C31.9013 84.9239 31.2292 84.8516 30.5811 84.7794C30.4611 84.7553 30.3651 84.6349 30.3651 84.5144C30.3891 84.394 30.5091 84.2736 30.6291 84.2977C31.2772 84.3699 31.9253 84.4181 32.5734 84.4663C32.7175 84.4663 32.8135 84.5867 32.7895 84.7071C32.8135 84.8516 32.7175 84.948 32.5734 84.948ZM40.9028 84.3699C40.7828 84.3699 40.6867 84.2977 40.6627 84.1772C40.6387 84.0568 40.7107 83.9123 40.8548 83.8882C41.5029 83.7678 42.127 83.6233 42.7751 83.4547C42.8951 83.4306 43.0391 83.5029 43.0631 83.6233C43.0871 83.7437 43.0151 83.8882 42.8951 83.9123C42.247 84.0809 41.5989 84.2254 40.9508 84.3458C40.9508 84.3699 40.9268 84.3699 40.9028 84.3699ZM27.4606 84.2977C27.4366 84.2977 27.4366 84.2977 27.4126 84.2977C26.7645 84.1532 26.1164 84.0087 25.4923 83.8401C25.3723 83.816 25.3003 83.6715 25.3243 83.551C25.3483 83.4306 25.4923 83.3584 25.6123 83.3825C26.2364 83.5511 26.8845 83.6956 27.5086 83.8401C27.6287 83.8642 27.7247 83.9846 27.7007 84.1291C27.6527 84.2254 27.5566 84.2977 27.4606 84.2977ZM45.8956 82.9971C45.7996 82.9971 45.7035 82.9248 45.6795 82.8285C45.6315 82.7081 45.7035 82.5636 45.8236 82.5154C46.4237 82.2986 47.0478 82.0578 47.6479 81.7929C47.7679 81.7447 47.9119 81.7929 47.9599 81.9133C48.0079 82.0337 47.9599 82.1782 47.8399 82.2264C47.2398 82.4913 46.6157 82.7322 45.9916 82.9489C45.9436 82.973 45.9196 82.9971 45.8956 82.9971ZM22.4918 82.8526C22.4678 82.8526 22.4438 82.8526 22.4198 82.8285C21.7957 82.5877 21.1716 82.3468 20.5715 82.0819C20.4515 82.0337 20.4035 81.8892 20.4515 81.7688C20.4995 81.6483 20.6435 81.6002 20.7636 81.6483C21.3636 81.9133 21.9637 82.1541 22.5878 82.395C22.7079 82.4431 22.7799 82.5877 22.7319 82.7081C22.6839 82.8044 22.5878 82.8526 22.4918 82.8526ZM50.6003 80.8776C50.5043 80.8776 50.4323 80.8295 50.3843 80.7572C50.3123 80.6368 50.3603 80.4923 50.4803 80.42C51.0564 80.1069 51.6085 79.7697 52.1606 79.4325C52.2806 79.3603 52.4246 79.4085 52.4966 79.5048C52.5686 79.6252 52.5206 79.7697 52.4246 79.842C51.8725 80.1792 51.2964 80.5164 50.7203 80.8295C50.6963 80.8536 50.6483 80.8776 50.6003 80.8776ZM54.945 78.0597C54.873 78.0597 54.801 78.0356 54.753 77.9634C54.681 77.867 54.705 77.6984 54.801 77.6262C55.3291 77.2408 55.8332 76.8073 56.3132 76.3979C56.4093 76.3015 56.5773 76.3256 56.6493 76.422C56.7453 76.5183 56.7213 76.6869 56.6253 76.7591C56.1212 77.1927 55.5931 77.6021 55.089 78.0115C55.041 78.0356 54.993 78.0597 54.945 78.0597ZM58.8096 74.6156C58.7376 74.6156 58.6896 74.5915 58.6416 74.5433C58.5456 74.447 58.5456 74.3025 58.6416 74.2062C59.0977 73.7485 59.5298 73.2428 59.9618 72.7611C60.0578 72.6647 60.2019 72.6406 60.2979 72.737C60.3939 72.8333 60.4179 72.9778 60.3219 73.0742C59.8898 73.58 59.4337 74.0616 58.9777 74.5433C58.9537 74.5915 58.8817 74.6156 58.8096 74.6156ZM62.1222 70.6416C62.0742 70.6416 62.0262 70.6175 61.9781 70.5934C61.8821 70.5212 61.8341 70.3767 61.9301 70.2563C62.3142 69.7264 62.6743 69.1724 63.0103 68.6185C63.0823 68.4981 63.2263 68.474 63.3464 68.5462C63.4664 68.6185 63.4904 68.763 63.4184 68.8834C63.0583 69.4374 62.6983 69.9913 62.3142 70.5453C62.2902 70.6175 62.1942 70.6416 62.1222 70.6416ZM64.8106 66.21C64.7626 66.21 64.7386 66.21 64.6906 66.1859C64.5706 66.1378 64.5226 65.9692 64.5946 65.8728C64.8826 65.2948 65.1707 64.6927 65.4347 64.0906C65.4827 63.9701 65.6267 63.922 65.7467 63.9701C65.8668 64.0183 65.9148 64.1628 65.8668 64.2832C65.6027 64.8853 65.3147 65.4875 65.0266 66.0896C64.9786 66.1618 64.9066 66.21 64.8106 66.21ZM66.7789 61.4171C66.7549 61.4171 66.7309 61.4171 66.7069 61.4171C66.5869 61.369 66.5149 61.2485 66.5629 61.104C66.7549 60.4778 66.9469 59.8516 67.115 59.2254C67.139 59.105 67.283 59.0087 67.403 59.0568C67.523 59.0809 67.619 59.2254 67.571 59.3458C67.403 59.9961 67.211 60.6223 67.019 61.2485C66.995 61.3449 66.8989 61.4171 66.7789 61.4171ZM68.0271 56.3834C68.0031 56.3834 68.0031 56.3834 67.9791 56.3834C67.8591 56.3593 67.7631 56.2389 67.7871 56.1185C67.8831 55.4682 67.9791 54.8179 68.0511 54.1676C68.0751 54.0472 68.1711 53.9509 68.3152 53.9509C68.4352 53.9749 68.5312 54.0954 68.5312 54.2158C68.4592 54.8661 68.3632 55.5405 68.2672 56.1907C68.2431 56.2871 68.1231 56.3834 68.0271 56.3834ZM68.4832 51.2052C68.4832 51.2052 68.4592 51.2052 68.4832 51.2052C68.3392 51.2052 68.2431 51.0848 68.2431 50.9643C68.2431 50.8198 68.2431 50.6753 68.2431 50.5549C68.2431 50.0491 68.2432 49.5193 68.2191 49.0135C68.2191 48.869 68.3152 48.7726 68.4592 48.7726C68.6032 48.7726 68.6992 48.869 68.6992 49.0135C68.7232 49.5433 68.7232 50.0491 68.7232 50.579C68.7232 50.7235 68.7232 50.868 68.7232 51.0125C68.6992 51.1089 68.6032 51.2052 68.4832 51.2052ZM68.1471 46.027C68.0271 46.027 67.9311 45.9306 67.9071 45.8102C67.8111 45.1599 67.7151 44.5096 67.595 43.8834C67.571 43.763 67.6431 43.6185 67.7871 43.5944C67.9071 43.5703 68.0511 43.6426 68.0751 43.7871C68.1951 44.4374 68.3152 45.0877 68.4112 45.762C68.4352 45.8825 68.3392 46.027 68.1951 46.027C68.1711 46.027 68.1711 46.027 68.1471 46.027Z" fill="#FFCD00"/>
<path opacity="0.3" d="M17.7629 80.6853C17.7149 80.6853 17.6908 80.6853 17.6428 80.6613C17.3548 80.4927 17.0908 80.3482 16.8027 80.1796C16.6827 80.1073 16.6587 79.9628 16.7307 79.8424C16.8027 79.722 16.9467 79.6979 17.0667 79.7701C17.3308 79.9387 17.6188 80.0832 17.8829 80.2518C18.0029 80.3241 18.0509 80.4686 17.9789 80.589C17.9309 80.6372 17.8589 80.6853 17.7629 80.6853Z" fill="#FFCD00"/>
<path d="M18.2432 71.2678C18.3632 71.3883 18.5552 71.4123 18.7233 71.3401L23.164 69.0761C25.1563 70.2804 27.3646 71.1715 29.693 71.6773L31.3973 76.3738C31.4453 76.5424 31.6133 76.6387 31.7813 76.6387L37.7583 76.5424C37.9263 76.5424 38.0944 76.422 38.1424 76.2534L39.6786 71.5087C42.007 70.9306 44.1673 69.9673 46.1356 68.6908L50.6484 70.8102C50.8164 70.8825 50.9844 70.8584 51.1044 70.7139L55.2571 66.4027C55.3771 66.2823 55.4011 66.0896 55.3291 65.921L53.0728 61.4653C54.2729 59.4663 55.1611 57.2505 55.6652 54.9143L60.3459 53.2042C60.5139 53.1561 60.61 52.9875 60.61 52.8189L60.5139 46.8218C60.5139 46.6532 60.3939 46.4846 60.2259 46.4364L55.4971 44.895C54.9211 42.5588 53.9609 40.3911 52.6887 38.4162L54.801 33.8883C54.873 33.7197 54.849 33.5511 54.705 33.4306L50.4083 29.264C50.2883 29.1435 50.0963 29.1195 49.9282 29.1917L45.4875 31.4557C43.4952 30.2515 41.2869 29.3603 38.9585 28.8545L37.2542 24.158C37.2062 23.9894 37.0382 23.8931 36.8702 23.8931L30.8932 23.9894C30.7252 23.9894 30.5571 24.1098 30.5091 24.2784L28.9729 29.0231C26.6445 29.6012 24.4842 30.5646 22.5159 31.841L18.0031 29.7216C17.8351 29.6493 17.6671 29.6734 17.5471 29.8179L13.3944 34.1291C13.2744 34.2495 13.2504 34.4422 13.3224 34.6108L15.6028 39.0183C14.4026 41.0173 13.5144 43.2331 13.0103 45.5694L8.32959 47.2794C8.16157 47.3276 8.06555 47.4962 8.06555 47.6647L8.16157 53.6619C8.16157 53.8305 8.28159 53.999 8.44961 54.0472L13.1784 55.5886C13.7545 57.9249 14.7146 60.0925 15.9868 62.0675L13.8745 66.5954C13.8025 66.764 13.8265 66.9326 13.9705 67.053L18.2432 71.2678Z" fill="#FFCD00"/>
<path d="M34.3496 55.9256C31.8532 55.9256 29.5488 54.2637 28.8767 51.7107C28.0606 48.6761 29.8609 45.545 32.8614 44.7261C35.8858 43.9073 39.0063 45.7136 39.8225 48.7242C40.6386 51.7589 38.8383 54.8899 35.8378 55.7088C35.3338 55.8774 34.8297 55.9256 34.3496 55.9256ZM34.3496 45.2801C33.9175 45.2801 33.4855 45.3283 33.0534 45.4487C30.413 46.1712 28.8527 48.8928 29.5728 51.5421C30.293 54.1915 33.0054 55.757 35.6458 55.0344C38.2862 54.3119 39.8465 51.5903 39.1264 48.941C38.5263 46.7493 36.5339 45.2801 34.3496 45.2801Z" fill="white"/>
<path d="M34.4212 64.9816C33.437 64.9816 32.4769 64.8852 31.5407 64.6925L31.6847 63.9941C32.6689 64.1868 33.6771 64.2831 34.6612 64.259C35.3813 64.259 36.0774 64.1868 36.7736 64.0663C39.726 63.5846 42.4145 62.1636 44.5268 59.9719C47.0952 57.3226 48.4874 53.8544 48.4874 50.1694C48.4874 50.0972 48.4874 50.0008 48.4874 49.9286C48.3674 42.2214 42.0784 36.0557 34.4212 36.0557C34.3492 36.0557 34.2772 36.0557 34.1811 36.0557C26.4999 36.1762 20.3549 42.4864 20.3549 50.1694C20.3549 50.2417 20.3549 50.3139 20.3549 50.4103C20.4029 52.9633 21.123 55.4681 22.4673 57.6116L21.8672 57.997C20.4509 55.733 19.6828 53.1078 19.6588 50.4103C19.6588 50.338 19.6588 50.2417 19.6588 50.1694C19.6588 42.101 26.1399 35.4777 34.2051 35.3332C42.3665 35.2128 49.0875 41.7397 49.2316 49.9286C49.2316 50.0008 49.2316 50.0972 49.2316 50.1694C49.2316 54.0471 47.7673 57.6839 45.0789 60.4777C42.3424 63.3197 38.6459 64.9334 34.6852 65.0056C34.5892 64.9816 34.5172 64.9816 34.4212 64.9816Z" fill="white"/>
<path d="M59.0258 31.4798L61.4022 30.0106C62.5784 30.5886 63.8506 30.9981 65.1708 31.1667L66.323 33.7197C66.371 33.816 66.467 33.8642 66.563 33.8642L69.8995 33.5511C69.9956 33.5511 70.0676 33.4788 70.0916 33.3825L70.7397 30.6609C72.0119 30.2274 73.1881 29.6012 74.2202 28.8064L76.8366 29.7938C76.9327 29.8179 77.0287 29.7938 77.1007 29.7216L79.237 27.1204C79.309 27.0482 79.309 26.9278 79.261 26.8555L77.7968 24.4711C78.3729 23.291 78.781 22.0145 78.949 20.6898L81.4934 19.5337C81.5894 19.4856 81.6374 19.3892 81.6374 19.2929L81.3254 15.9451C81.3254 15.8488 81.2534 15.7765 81.1573 15.7524L78.4449 15.1021C78.0128 13.8256 77.3887 12.6455 76.5966 11.6098L77.5808 8.98459C77.6048 8.88826 77.5808 8.79192 77.5088 8.71966L74.8923 6.55203C74.8203 6.47978 74.7003 6.47978 74.6283 6.52795L72.2519 7.99712C71.0757 7.41908 69.8035 7.00964 68.4833 6.84105L67.3311 4.28806C67.2831 4.19172 67.1871 4.14355 67.0911 4.14355L63.7546 4.45666C63.6585 4.45666 63.5865 4.52891 63.5625 4.62525L62.8904 7.37091C61.6182 7.80444 60.442 8.43064 59.4099 9.22544L56.7934 8.23797C56.6974 8.21388 56.6014 8.23797 56.5294 8.31022L54.3931 10.9114C54.321 10.9836 54.321 11.1041 54.3691 11.1763L55.8333 13.5607C55.2572 14.7409 54.8491 16.0173 54.6811 17.342L52.1367 18.4981C52.0407 18.5463 51.9927 18.6426 51.9927 18.7389L52.3047 22.0867C52.3047 22.1831 52.3767 22.2553 52.4728 22.2794L55.1852 22.9297C55.6173 24.2062 56.2414 25.3863 57.0335 26.422L56.0493 29.0472C56.0253 29.1436 56.0493 29.2399 56.1213 29.3121L58.7137 31.4557C58.8338 31.5279 58.9298 31.5279 59.0258 31.4798Z" fill="#FFCD00"/>
<path d="M66.8264 22.3507C65.4582 22.3507 64.1619 21.5077 63.6819 20.1349C63.3938 19.2919 63.4178 18.3767 63.8019 17.5819C64.1859 16.763 64.8581 16.1609 65.6982 15.8719C66.5383 15.5828 67.4505 15.6069 68.2426 15.9923C69.0587 16.3776 69.6588 17.052 69.9469 17.895C70.571 19.6291 69.6588 21.5559 67.9305 22.1821C67.5705 22.2784 67.1864 22.3507 66.8264 22.3507ZM66.8264 16.3776C66.5383 16.3776 66.2263 16.4258 65.9382 16.5221C65.2901 16.763 64.762 17.2447 64.45 17.8709C64.1619 18.4971 64.1139 19.2196 64.354 19.8699C64.8341 21.2428 66.3463 21.9412 67.6905 21.4595C69.0587 20.9778 69.7548 19.4605 69.2748 18.1117C69.0347 17.4615 68.5546 16.9316 67.9305 16.6185C67.5945 16.474 67.2104 16.3776 66.8264 16.3776Z" fill="white"/>
<path opacity="0.3" d="M53.0486 30.8044C52.9766 30.8044 52.9046 30.7803 52.8566 30.708C52.6405 30.4672 52.4485 30.2022 52.2565 29.9373C52.1845 29.841 52.2085 29.6724 52.3045 29.6001C52.4005 29.5279 52.5685 29.5519 52.6405 29.6483C52.8326 29.8891 53.0246 30.1541 53.2406 30.3949C53.3367 30.4913 53.3126 30.6598 53.2166 30.7321C53.1686 30.8044 53.1206 30.8044 53.0486 30.8044Z" fill="#FFCD00"/>
<path opacity="0.3" d="M50.8635 27.4812C50.7675 27.4812 50.6955 27.433 50.6475 27.3608C50.3595 26.8068 50.0954 26.2288 49.8794 25.6266C49.8314 25.5062 49.9034 25.3617 50.0234 25.3135C50.1434 25.2654 50.2875 25.3376 50.3355 25.4581C50.5515 26.0361 50.8155 26.6141 51.0796 27.144C51.1516 27.2644 51.1036 27.4089 50.9836 27.4571C50.9356 27.4571 50.8876 27.4812 50.8635 27.4812ZM49.2313 22.8569C49.1113 22.8569 49.0153 22.7846 48.9913 22.6642C48.8712 22.038 48.7752 21.4118 48.7032 20.7856C48.6792 20.6652 48.7752 20.5448 48.9192 20.5207C49.0633 20.5207 49.1593 20.5929 49.1833 20.7374C49.2313 21.3396 49.3273 21.9658 49.4713 22.5679C49.4953 22.6883 49.4233 22.8328 49.2793 22.8569C49.2553 22.8328 49.2553 22.8569 49.2313 22.8569ZM48.9192 17.9436C48.8952 17.9436 48.8952 17.9436 48.9192 17.9436C48.7752 17.9436 48.6792 17.8232 48.6792 17.6787C48.7272 17.0525 48.7992 16.4263 48.9192 15.8001C48.9432 15.6796 49.0633 15.5833 49.2073 15.6074C49.3273 15.6315 49.4233 15.7519 49.3993 15.8964C49.3033 16.4985 49.2073 17.1247 49.1593 17.7268C49.1353 17.8473 49.0393 17.9436 48.9192 17.9436ZM49.9274 13.1507C49.9034 13.1507 49.8794 13.1507 49.8554 13.1266C49.7354 13.0785 49.6634 12.934 49.7114 12.8135C49.9274 12.2114 50.1674 11.6334 50.4555 11.0554C50.5035 10.9349 50.6475 10.8868 50.7675 10.9349C50.8876 10.9831 50.9356 11.1276 50.8876 11.248C50.6235 11.802 50.3835 12.38 50.1674 12.9581C50.1194 13.0785 50.0234 13.1507 49.9274 13.1507ZM52.1838 8.79139C52.1358 8.79139 52.0877 8.7673 52.0397 8.74322C51.9197 8.67096 51.8957 8.52645 51.9917 8.40603C52.3518 7.90025 52.7599 7.39447 53.1679 6.91277C53.2639 6.81643 53.408 6.79235 53.504 6.88869C53.6 6.98503 53.624 7.12954 53.528 7.22588C53.1199 7.68349 52.7358 8.16518 52.3758 8.67096C52.3278 8.7673 52.2558 8.79139 52.1838 8.79139ZM55.5443 5.22684C55.4723 5.22684 55.4003 5.20275 55.3523 5.1305C55.2803 5.03416 55.2803 4.86557 55.4003 4.79331C55.8804 4.40796 56.4084 4.0226 56.9365 3.68541C57.0565 3.61316 57.2006 3.63724 57.2726 3.75767C57.3446 3.87809 57.3206 4.0226 57.2006 4.09485C56.6965 4.43204 56.1924 4.79331 55.7123 5.17867C55.6403 5.20275 55.5923 5.22684 55.5443 5.22684ZM59.721 2.69794C59.625 2.69794 59.5289 2.64977 59.5049 2.55343C59.4569 2.433 59.5049 2.2885 59.625 2.24033C59.985 2.09582 60.3211 1.95131 60.6811 1.83089C60.9212 1.73455 61.1612 1.66229 61.4012 1.59004C61.5213 1.54187 61.6653 1.61412 61.7133 1.75863C61.7613 1.87905 61.6893 2.02356 61.5453 2.07173C61.3052 2.14399 61.0892 2.21624 60.8492 2.31258C60.4891 2.433 60.153 2.57751 59.817 2.72202C59.793 2.67385 59.769 2.69794 59.721 2.69794ZM64.4497 1.37327C64.3297 1.37327 64.2337 1.27694 64.2097 1.15651C64.1857 1.03609 64.2817 0.891579 64.4257 0.891579C65.0498 0.819325 65.6739 0.74707 66.322 0.74707C66.4661 0.74707 66.5621 0.843409 66.5621 0.987918C66.5621 1.13243 66.4661 1.22877 66.322 1.22877C65.7219 1.25285 65.0978 1.30102 64.4737 1.37327H64.4497Z" fill="#FFCD00"/>
<path opacity="0.3" d="M70.306 1.56547C70.282 1.56547 70.282 1.56547 70.258 1.56547C69.9459 1.49321 69.6339 1.44504 69.3218 1.39687C69.2018 1.37279 69.1058 1.25236 69.1298 1.13194C69.1538 1.01152 69.2738 0.915177 69.3938 0.939262C69.7059 0.987432 70.0419 1.0356 70.354 1.10786C70.474 1.13194 70.57 1.25236 70.546 1.39687C70.498 1.49321 70.402 1.56547 70.306 1.56547Z" fill="#FFCD00"/>
<path opacity="0.3" d="M82.0456 9.6826C81.9735 9.6826 81.8775 9.63443 81.8535 9.56218C81.6855 9.29725 81.5175 9.03231 81.3254 8.76738C81.2534 8.64696 81.2774 8.50245 81.3734 8.4302C81.4935 8.35794 81.6375 8.38203 81.7095 8.47837C81.9015 8.7433 82.0696 9.00823 82.2376 9.29725C82.3096 9.41767 82.2856 9.56218 82.1656 9.63443C82.1416 9.65852 82.0936 9.6826 82.0456 9.6826Z" fill="#FFCD00"/>
<path opacity="0.3" d="M66.8261 37.2596C66.7061 37.2596 66.5861 37.2596 66.4421 37.2596C66.298 37.2596 66.202 37.1392 66.202 37.0188C66.202 36.8743 66.322 36.7779 66.4421 36.7779C67.0422 36.802 67.6663 36.7779 68.2664 36.7297C68.3864 36.7297 68.5064 36.8261 68.5304 36.9465C68.5304 37.0669 68.4344 37.1874 68.3144 37.2114C67.8103 37.2355 67.3062 37.2596 66.8261 37.2596ZM71.2428 36.7057C71.1468 36.7057 71.0268 36.6334 71.0028 36.513C70.9788 36.3926 71.0508 36.248 71.1708 36.224C71.6989 36.0795 72.251 35.9109 72.7791 35.7423L72.8991 35.6941C73.0191 35.6459 73.1631 35.7182 73.2112 35.8386C73.2592 35.959 73.1871 36.1035 73.0671 36.1517L72.9471 36.1999C72.395 36.3926 71.8429 36.5611 71.2908 36.7057C71.2668 36.7057 71.2428 36.7057 71.2428 36.7057ZM75.7076 34.8993C75.6355 34.8993 75.5395 34.8511 75.4915 34.7789C75.4195 34.6585 75.4675 34.5139 75.5875 34.4417C76.1156 34.1527 76.6197 33.8155 77.1238 33.4542C77.2438 33.382 77.3878 33.406 77.4598 33.5024C77.5318 33.5987 77.5078 33.7673 77.4118 33.8396C76.9077 34.2008 76.3797 34.538 75.8516 34.8511C75.7796 34.8993 75.7316 34.8993 75.7076 34.8993ZM79.5242 31.985C79.4522 31.985 79.4041 31.961 79.3561 31.9128C79.2601 31.8165 79.2601 31.6719 79.3561 31.5756C79.7882 31.1421 80.1963 30.6845 80.5803 30.2269C80.6523 30.1305 80.8204 30.1064 80.9164 30.2028C81.0124 30.275 81.0364 30.4436 80.9404 30.54C80.5563 31.0217 80.1243 31.4793 79.6922 31.9369C79.6442 31.961 79.5962 31.985 79.5242 31.985ZM82.4286 28.1315C82.3806 28.1315 82.3566 28.1315 82.3086 28.1074C82.1886 28.0351 82.1646 27.8906 82.2126 27.7702C82.5006 27.2403 82.7887 26.6864 83.0287 26.1324C83.0767 26.012 83.2208 25.9639 83.3408 26.012C83.4608 26.0602 83.5088 26.2047 83.4608 26.3251C83.2208 26.9032 82.9327 27.4571 82.6207 27.987C82.5967 28.0833 82.5246 28.1315 82.4286 28.1315ZM84.2289 23.6517C84.2049 23.6517 84.1809 23.6517 84.1809 23.6517C84.0609 23.6276 83.9649 23.4831 84.0129 23.3627C84.1569 22.7847 84.2769 22.1825 84.3729 21.5804C84.3969 21.46 84.517 21.3637 84.637 21.3877C84.757 21.4118 84.853 21.5323 84.829 21.6527C84.733 22.2548 84.613 22.881 84.469 23.4831C84.445 23.5795 84.3489 23.6517 84.2289 23.6517ZM84.781 18.8588C84.661 18.8588 84.541 18.7625 84.541 18.618C84.517 18.0159 84.493 17.4138 84.3969 16.8116C84.3729 16.6912 84.469 16.5708 84.613 16.5467C84.757 16.5226 84.853 16.619 84.877 16.7635C84.949 17.3897 84.997 18.0159 85.021 18.618C85.021 18.7384 84.925 18.8348 84.781 18.8588ZM84.0369 14.0901C83.9409 14.0901 83.8449 14.0178 83.7969 13.9215C83.7008 13.6324 83.6048 13.3193 83.5088 13.0303C83.4128 12.7413 83.2928 12.4764 83.1968 12.2114C83.1487 12.091 83.1968 11.9465 83.3168 11.8983C83.4368 11.8502 83.5808 11.8983 83.6288 12.0188C83.7488 12.3078 83.8449 12.5727 83.9649 12.8617C84.0609 13.1507 84.1809 13.4639 84.2529 13.777C84.3009 13.8974 84.2289 14.0419 84.0849 14.066C84.0609 14.066 84.0369 14.0901 84.0369 14.0901Z" fill="#FFCD00"/>
<path d="M63.4663 36.9468C63.4423 36.9468 63.4423 36.9468 63.4183 36.9468C63.1062 36.8745 62.7942 36.8264 62.4581 36.73C62.3381 36.706 62.2421 36.5614 62.2901 36.441C62.3141 36.3206 62.4581 36.2243 62.5781 36.2724C62.8902 36.3447 63.2022 36.4169 63.5143 36.4651C63.6343 36.4892 63.7303 36.6096 63.7063 36.7541C63.6823 36.8505 63.5863 36.9468 63.4663 36.9468Z" fill="#FFCD00" fill-opacity="0.3"/>
<path d="M66.8513 27.4092C66.7313 27.4092 66.6113 27.4092 66.4672 27.4092C66.2752 27.4092 66.0592 27.3851 65.8671 27.361L65.9391 26.6385C66.4912 26.7107 67.0433 26.7107 67.5954 26.6626C67.6194 26.6626 67.6434 26.6626 67.6434 26.6626C69.5637 26.4699 71.292 25.5788 72.5642 24.1578C72.6362 24.0614 72.7322 23.9651 72.8042 23.8928C73.9564 22.4959 74.5805 20.7618 74.5805 18.9795C74.5805 18.7387 74.5805 18.4737 74.5325 18.2329C74.1245 13.9699 70.3559 10.863 66.1072 11.2724C62.1225 11.6578 59.1221 15.0296 59.1221 18.9795C59.1221 19.2204 59.122 19.4853 59.1461 19.7262C59.2901 21.1231 59.7942 22.4477 60.6103 23.5797L60.0342 24.0132C59.1221 22.7849 58.57 21.3157 58.4259 19.7984C58.4019 19.5335 58.3779 19.2445 58.3779 18.9795C58.3779 14.6684 61.6425 10.9834 66.0112 10.5499C70.6439 10.0922 74.7726 13.5123 75.2286 18.1606C75.2526 18.4256 75.2766 18.7146 75.2766 18.9795C75.2766 20.9304 74.6045 22.8331 73.3563 24.3504C71.9161 26.0845 69.8998 27.1684 67.6434 27.3851C67.4034 27.4092 67.1153 27.4092 66.8513 27.4092Z" fill="white"/>
<path d="M37.3267 146.364C36.7266 146.99 36.8706 148.026 37.6387 148.435C41.1433 150.362 49.9287 153.854 57.3459 145.641C66.8274 135.116 89.9671 86.0073 92.7995 73.411C95.656 60.8146 106.434 41.3782 112.363 39.0902C118.292 36.8021 99.8086 38.1027 94.6478 38.199C89.511 38.2954 85.7904 35.7183 88.8629 34.5622C88.8629 34.5622 73.2124 28.4447 61.4745 46.6769C54.3934 57.6836 31.5417 108.599 12.6267 114.162C11.9306 114.379 15.8912 117.077 16.2033 117.727C18.0276 121.677 24.7246 133.31 42.2955 139.403C42.2715 139.427 39.9911 143.618 37.3267 146.364Z" fill="#0049CC"/>
<path d="M107.178 191.378C103.385 191.715 96.7844 192.245 91.5996 192.462C88.4791 192.606 86.6788 192.293 85.6466 191.884C85.6466 192.004 85.6466 192.1 85.6466 192.221C85.6706 192.775 86.1267 193.208 86.6788 193.232C96.4964 193.786 104.322 193.425 107.082 193.257C107.658 193.232 107.994 192.606 107.706 192.1C107.562 191.86 107.37 191.619 107.178 191.378Z" fill="#323D50"/>
<path d="M91.5989 192.485C96.8077 192.244 103.385 191.715 107.177 191.401C103.433 186.801 91.5989 183.694 91.5989 183.694H88.2623C85.958 187.018 85.6219 190.197 85.6459 191.907C86.6781 192.317 88.4544 192.606 91.5989 192.485Z" fill="#323D50"/>
<path d="M87.6869 178.203L87.9989 184.417C88.0229 185.092 88.527 185.645 89.1991 185.742C89.8712 185.838 90.7594 185.838 91.7195 185.525C92.2956 185.332 92.7277 184.827 92.8477 184.224L93.9279 178.179H87.6869V178.203Z" fill="#FEBBBA"/>
<path d="M48.824 198.555C47.1678 198.266 46.4237 197.158 46.1116 195.954V195.978C45.8716 197.231 46.4237 198.531 47.5518 199.133C48.9201 199.88 50.3843 200 51.5365 199.952C52.7847 199.88 53.9129 199.23 54.537 198.17V198.146C53.3128 198.965 51.5605 199.061 48.824 198.555Z" fill="#323D50"/>
<path d="M56.5773 180.131H53.8168C49.6161 180.01 46.9757 191.523 46.1116 195.978C46.4236 197.159 47.1677 198.266 48.824 198.58C51.5604 199.085 53.3127 198.989 54.5609 198.194C56.8413 194.317 57.9695 188.633 58.4976 185.333C59.0977 181.527 56.5773 180.131 56.5773 180.131Z" fill="#323D50"/>
<path d="M54.1769 174.35L52.6406 180.468C52.4486 181.214 52.8087 181.985 53.5048 182.346C54.3689 182.78 55.5691 183.261 56.6733 183.117C57.2014 183.045 57.6335 182.683 57.8015 182.202L60.0578 175.771L54.1769 174.35Z" fill="#FEBBBA"/>
<path d="M108.114 93.7621C108.114 93.7621 94.4083 179.697 94.6483 180.154C94.6483 180.154 90.8557 181.888 86.751 180.371C86.751 180.371 87.9992 134.441 90.9037 116.811C90.9037 116.811 67.524 157.876 60.1068 178.324C60.1068 178.324 56.2421 177.866 53.0256 175.747C53.0256 175.747 78.2057 101.855 84.9267 92.0039L108.114 93.7621Z" fill="#424973"/>
<path d="M91.4318 116.33C91.3598 116.33 91.3118 116.306 91.2398 116.282C91.0717 116.185 91.0237 115.969 91.1197 115.8L96.2326 107.587C96.2806 107.515 96.3526 107.442 96.4486 107.442L100.217 106.672C100.409 106.624 100.577 106.744 100.625 106.937C100.673 107.129 100.553 107.298 100.361 107.346L96.7366 108.069L91.6958 116.137C91.6478 116.282 91.5278 116.33 91.4318 116.33Z" fill="#424973"/>
<path d="M135.767 57.6833C134.783 51.1322 137.639 49.0368 136.223 47.1823C130.15 49.928 123.189 37.8374 113.155 34.3451C112.219 34.032 111.259 33.8393 110.275 33.7671C104.922 33.454 87.3033 32.876 72.733 37.717C69.6605 38.7286 67.1881 41.0166 65.8919 43.9549C61.9552 53.0349 55.5702 73.6996 73.2851 84.1524C74.6533 80.7565 76.2135 78.0349 77.5577 76.0359C74.7013 71.1948 73.8611 64.6197 78.926 56.0214C82.6225 66.0166 84.3508 80.6361 84.7109 87.0908C84.8309 89.2102 84.4468 91.3297 83.6307 93.3046L83.5347 93.5214C83.3667 93.9308 83.6067 94.4366 84.0388 94.533C94.0244 96.7729 104.394 96.1707 107.491 95.9058C108.043 95.8576 108.499 95.4723 108.619 94.9183C113.467 74.3981 113.491 60.4289 112.291 51.5657C116.876 52.5773 124.725 65.9203 135.767 57.6833Z" fill="#040A2C"/>
<path d="M87.7347 21.8213C87.7347 21.8213 86.7265 32.539 85.8384 35.6941C85.6944 36.1758 85.9104 36.6816 86.3425 36.9224C87.8547 37.7895 91.4793 39.1864 96.4241 36.7538C97.2162 36.3685 97.6963 35.5255 97.6723 34.6344L97.2402 24.2779L87.7347 21.8213Z" fill="#FDC7BF"/>
<path d="M97.4553 8.11621C97.4553 8.11621 100.672 15.5584 100.912 19.4601C101.128 23.3619 101.968 25.8908 97.4553 26.6856C92.9666 27.4804 89.174 25.2164 87.1097 21.3388C87.1097 21.3388 83.8932 15.3416 84.6133 12.885C85.3334 10.4284 97.4553 8.11621 97.4553 8.11621Z" fill="#FDC7BF"/>
<path d="M88.6465 18.5454L88.9105 18.425C89.2466 18.2805 89.3666 17.8951 89.2226 17.582C88.5985 16.3537 87.3503 13.5358 88.9585 12.8855C90.9748 12.0184 99.1361 10.3566 100.912 7.44233C102.593 4.64849 101.104 1.03577 98.8481 0.0242137C98.7041 -0.0480407 98.512 0.000128898 98.44 0.168722L98.248 0.529994C98.128 0.770842 97.7679 0.746757 97.6719 0.481825C97.5999 0.216892 97.2638 0.168722 97.1198 0.40957C96.5677 1.27662 95.1275 2.69762 91.2149 3.42017C85.67 4.45581 81.9974 6.6957 81.9014 10.5493C81.9014 10.7901 81.6374 10.9346 81.4213 10.8142C81.0133 10.5733 80.3651 10.4529 79.477 11.1755C77.9408 12.452 78.5649 15.7997 81.9254 18.5454C82.0934 18.6658 82.0934 18.9308 81.9014 19.0271C81.3013 19.4125 80.3892 20.3759 82.7415 21.6283C85.1659 22.9288 86.9662 22.8084 87.6623 22.7121C87.8303 22.688 87.9504 22.5194 87.9024 22.3508L87.1582 18.9789C87.1102 18.7863 87.2542 18.6177 87.4463 18.6177H88.6465V18.5454Z" fill="#18171C"/>
<path d="M88.7902 19.2682C88.7902 19.2682 87.566 14.5235 85.4297 15.8482C83.3173 17.1729 86.5338 21.1709 88.2381 21.3395L88.7902 19.2682Z" fill="#FDC7BF"/>
<path d="M88.6953 91.4501L103.266 91.137C103.266 91.137 90.5676 87.5242 89.7755 88.5117C89.7755 88.5117 81.9022 83.3094 77.5815 76.0117C76.2373 78.0108 74.6771 80.7323 73.3088 84.1283C77.1735 86.4163 82.2383 90.3903 88.6953 91.4501Z" fill="#FDC7BF"/>
<path d="M88.2873 88.9209C88.2873 88.9209 87.9753 94.7494 95.6085 93.9065C99.7371 93.4489 106.434 89.5712 106.434 89.5712C106.434 89.5712 89.0074 89.523 88.2873 88.9209Z" fill="#FDC7BF"/>
<path d="M119.252 157.635H190.399C192.68 157.635 194.504 154.889 194.504 151.469V48.4826C194.504 45.0866 192.68 42.3409 190.399 42.3168L118.7 42.0278C116.419 42.0278 114.571 44.7976 114.571 48.2176L115.147 151.517C115.171 154.913 116.996 157.635 119.252 157.635Z" fill="#040A2C"/>
<path d="M122.757 49.9033L186.367 50.4814C188.671 50.5054 190.52 53.3234 190.52 56.7675L190.088 143.4C190.088 146.796 188.263 149.566 186.007 149.614L124.197 151.3C121.893 151.373 119.996 148.603 119.948 145.135L118.58 56.2135C118.508 52.7453 120.404 49.9033 122.757 49.9033Z" fill="white"/>
<path d="M128.638 95.1589V95.8092C128.638 96.8448 129.19 97.6878 129.886 97.6878H178.902C179.598 97.6878 180.15 96.8448 180.15 95.8092V95.1589C180.15 94.1232 179.598 93.2803 178.902 93.2803H129.886C129.19 93.3044 128.638 94.1232 128.638 95.1589Z" fill="#EAEBED"/>
<path d="M134.11 103.444C134.134 104.432 134.686 105.202 135.334 105.202L178.205 106.382C178.901 106.407 179.477 105.564 179.477 104.504V104.359C179.477 103.348 178.925 102.505 178.253 102.481L135.382 101.469C134.638 101.445 134.062 102.36 134.11 103.444Z" fill="#EAEBED"/>
<path d="M126.429 146.026C125.733 146.026 125.061 145.737 124.485 145.183C123.573 144.292 122.997 142.798 122.997 141.185L121.604 80.6838C121.58 77.9381 123.045 75.7223 124.965 75.6741L182.838 73.9882C183.558 73.9641 184.254 74.2531 184.83 74.8312C185.767 75.7223 186.319 77.2156 186.343 78.8292L187.831 139.98C187.855 142.726 186.343 144.966 184.446 144.99L126.477 146.026C126.453 146.026 126.429 146.026 126.429 146.026ZM122.564 80.6597L123.957 141.161C123.981 142.509 124.413 143.762 125.157 144.484C125.421 144.749 125.877 145.062 126.429 145.062H126.453L184.422 144.027C185.791 144.003 186.895 142.148 186.871 139.98L185.383 78.8292C185.359 77.4564 184.902 76.2281 184.158 75.5055C183.87 75.2406 183.414 74.9275 182.838 74.9516L124.965 76.6375C123.645 76.6616 122.516 78.5161 122.564 80.6597Z" fill="#EAEBED"/>
<path d="M185.958 86.7295H122.828C122.564 86.7295 122.348 86.5127 122.348 86.2478C122.348 85.9829 122.564 85.7661 122.828 85.7661H185.958C186.222 85.7661 186.438 85.9829 186.438 86.2478C186.438 86.5127 186.222 86.7295 185.958 86.7295Z" fill="#EAEBED"/>
<path d="M127.486 53.9259C127.486 52.7698 128.35 51.8305 129.478 51.7101C130.03 51.6619 130.606 51.6138 131.182 51.6138C132.886 51.6138 133.799 51.8305 134.639 52.4567C135.551 53.107 136.295 54.5762 136.295 56.7197C136.295 58.4057 135.767 60.0193 134.447 60.8864V60.9346C135.815 61.5849 136.655 63.3671 136.655 65.8719C136.655 67.8469 136.079 69.3883 135.287 70.3999C134.423 71.4596 132.983 72.0858 130.558 72.0858C130.174 72.0858 129.838 72.0858 129.502 72.0617C128.326 71.9895 127.438 71.002 127.438 69.8459V53.9259H127.486ZM130.51 59.3931H131.158C132.574 59.3931 133.223 58.6706 133.223 57.4182C133.223 56.2862 132.694 55.6359 131.614 55.6359C131.038 55.6359 130.726 55.6841 130.51 55.7563V59.3931ZM130.51 67.9673C130.75 68.0155 131.038 68.0155 131.494 68.0155C132.55 68.0155 133.463 67.3411 133.463 65.5829C133.463 63.897 132.55 63.319 131.302 63.319H130.51V67.9673Z" fill="#0049CC"/>
<path d="M138.335 53.3C138.335 52.5534 138.887 51.9031 139.631 51.8068C140.351 51.7104 141.215 51.6382 142.176 51.6382C144 51.6382 145.224 52.1199 146.064 53.2278C146.76 54.143 147.192 55.6122 147.192 57.6353C147.192 60.3087 146.016 62.0187 145.248 62.4522V62.5727C145.968 63.1266 146.376 64.4513 146.688 66.1131C146.904 67.3655 147.144 68.931 147.336 70.1353C147.48 71.0505 146.76 71.8935 145.848 71.8935H145.752C145.032 71.8935 144.408 71.3877 144.264 70.6651C144.12 69.8944 143.928 68.7865 143.712 67.2933C143.376 64.8848 142.944 64.4031 141.912 64.4031H141.359V70.352C141.359 71.195 140.687 71.8694 139.847 71.8694C139.007 71.8694 138.335 71.195 138.335 70.352V53.3ZM141.359 60.4291H142.272C143.472 60.4291 144.192 59.538 144.192 58.0206C144.192 56.5033 143.568 55.7326 142.536 55.7326C141.864 55.7326 141.527 55.7808 141.359 55.853V60.4291Z" fill="#0049CC"/>
<path d="M153.41 67.8219L152.93 71.0493C152.858 71.531 152.449 71.8681 151.969 71.8681H150.745C150.145 71.8681 149.689 71.3142 149.785 70.7362L152.93 52.6244C153.002 52.1668 153.41 51.8296 153.89 51.8296H156.434C156.914 51.8296 157.298 52.1668 157.394 52.6244L160.683 70.7362C160.803 71.3383 160.323 71.8922 159.723 71.8922H158.306C157.826 71.8922 157.418 71.555 157.346 71.0733L156.818 67.8219C156.746 67.3402 156.338 67.003 155.858 67.003H154.346C153.89 66.9789 153.482 67.3402 153.41 67.8219ZM155.09 62.8845C155.69 62.8845 156.146 62.3546 156.05 61.7525L155.642 59.344C155.498 58.4529 155.306 57.3691 155.162 56.3816C155.138 56.2371 154.946 56.2371 154.922 56.3816C154.802 57.2487 154.61 58.6215 154.49 59.3681L154.13 61.7766C154.058 62.3546 154.514 62.8845 155.09 62.8845Z" fill="#0049CC"/>
<path d="M161.307 70.9047L161.331 52.793C161.331 52.2631 161.763 51.8296 162.292 51.8296H164.452C164.884 51.8296 165.244 52.1186 165.388 52.504L166.972 57.634C167.548 59.4886 168.124 61.7044 168.605 63.8961C168.629 64.0406 168.869 64.0165 168.845 63.872C168.797 62.0897 168.725 58.9587 168.725 57.0801V52.8171C168.725 52.2872 169.157 51.8537 169.685 51.8537H170.573C171.101 51.8537 171.533 52.2872 171.533 52.8171L171.509 70.9288C171.509 71.4587 171.077 71.8922 170.549 71.8922H168.893C168.461 71.8922 168.076 71.6032 167.956 71.1938L166.204 65.2448C165.604 63.2217 164.932 60.9096 164.356 58.5492C164.332 58.4047 164.116 58.4288 164.116 58.5733C164.116 60.4519 164.14 64.2333 164.14 66.4491L164.116 70.9047C164.116 71.4346 163.684 71.8681 163.156 71.8681H162.268C161.739 71.8681 161.307 71.4346 161.307 70.9047Z" fill="#0049CC"/>
<path d="M172.973 52.8421C172.973 52.3845 173.309 51.975 173.765 51.8787C174.677 51.7101 175.734 51.6138 176.814 51.6138C179.118 51.6138 180.51 52.24 181.711 53.6369C182.983 55.1301 183.871 57.5627 183.871 61.2236C183.871 65.3902 182.935 67.9191 181.855 69.4124C180.51 71.291 178.494 72.0858 176.19 72.0858C175.158 72.0858 174.365 72.0135 173.765 71.9172C173.285 71.845 172.949 71.4355 172.949 70.9538V52.8421H172.973ZM176.046 67.7265C176.214 67.7746 176.526 67.7746 176.766 67.7746C178.998 67.8228 180.63 65.896 180.63 61.5126C180.63 57.5145 179.094 55.8527 177.126 55.8527C176.55 55.8527 176.214 55.949 176.07 55.9972V67.7265H176.046Z" fill="#0049CC"/>
<path d="M151.224 44.4849C149.904 45.2797 148.248 45.6891 146.808 45.1593C145.968 44.8703 142.679 42.7267 143.759 41.5947C143.927 41.4021 144.191 41.3057 144.455 41.2335C146.88 40.4146 149.232 40.7758 151.753 40.8481C152.473 40.8722 153.577 40.7999 153.745 41.7392C153.961 42.9676 152.089 43.9791 151.224 44.4849Z" fill="#FDC7BF"/>
<path d="M127.868 11.1512C127.772 11.1271 127.676 11.1271 127.58 11.1271C125.828 11.368 124.075 11.6088 122.323 11.9219C121.939 11.9942 121.555 11.9701 121.171 11.8738C120.787 11.7774 120.451 11.6088 120.163 11.368C118.818 10.2601 117.474 9.17626 116.058 8.09245C115.986 8.02019 115.89 7.99611 115.794 7.97202C115.626 7.92385 115.434 7.97202 115.29 8.06836C115.194 8.14062 115.074 8.26104 115.074 8.45372C115.002 10.0433 114.93 11.657 114.858 13.2466C114.81 13.945 114.402 14.5712 113.754 14.9566C112.289 15.7755 110.825 16.6425 109.409 17.5096C109.145 17.6782 109.145 17.919 109.169 18.0154C109.193 18.1117 109.241 18.3526 109.529 18.4489C111.113 18.9788 112.697 19.5327 114.258 20.1348C114.954 20.3998 115.434 20.9537 115.578 21.6522C115.914 23.2177 116.226 24.7832 116.514 26.3246C116.562 26.6136 116.802 26.71 116.898 26.7341C116.994 26.7581 117.234 26.8063 117.426 26.5655C118.506 25.3612 119.611 24.1811 120.739 23.025C121.243 22.5192 121.963 22.2543 122.683 22.3747C124.315 22.6396 125.972 22.9287 127.604 23.2418C127.916 23.2899 128.084 23.1213 128.156 23.0491C128.228 22.9768 128.348 22.7601 128.204 22.4951C127.46 21.0501 126.692 19.605 125.876 18.1599C125.515 17.5337 125.491 16.787 125.852 16.1608C126.644 14.7398 127.412 13.3429 128.228 11.946C128.324 11.7774 128.3 11.6088 128.252 11.5125C128.156 11.3198 128.036 11.1994 127.868 11.1512Z" fill="#FFCD00"/>
<path d="M151.872 4.07031C151.776 4.04623 151.656 4.02214 151.536 4.04623C149.447 4.35933 147.383 4.7206 145.319 5.13004C144.887 5.22638 144.407 5.2023 143.975 5.10596C143.518 4.98553 143.11 4.79285 142.774 4.50384C141.166 3.20326 139.51 1.90268 137.806 0.650272C137.71 0.578018 137.614 0.529848 137.494 0.505763C137.301 0.457594 137.061 0.505763 136.893 0.626187C136.773 0.698442 136.653 0.84295 136.653 1.10788C136.629 3.03467 136.581 4.98553 136.533 6.91231C136.509 7.75528 136.029 8.55008 135.285 8.98361C133.557 10.0193 131.877 11.079 130.22 12.1869C129.908 12.3796 129.932 12.6927 129.932 12.8131C129.956 12.9335 130.028 13.2225 130.388 13.3189C132.285 13.921 134.157 14.5472 136.029 15.2216C136.845 15.5106 137.446 16.185 137.662 17.0279C138.118 18.9065 138.55 20.7851 138.934 22.6638C139.006 23.0009 139.27 23.1214 139.39 23.1455C139.51 23.1695 139.798 23.2177 140.014 22.9287C141.262 21.4595 142.534 19.9903 143.831 18.5453C144.407 17.9191 145.271 17.606 146.111 17.7264C148.079 17.9913 150.024 18.3044 151.968 18.6657C152.328 18.7379 152.544 18.5212 152.616 18.4248C152.688 18.3285 152.832 18.0636 152.664 17.7505C151.728 16.0164 150.768 14.2823 149.735 12.5722C149.279 11.8256 149.255 10.9104 149.639 10.1638C150.528 8.42966 151.416 6.71964 152.328 4.98553C152.448 4.76877 152.4 4.57609 152.328 4.45567C152.256 4.26299 152.088 4.11848 151.872 4.07031Z" fill="#FFCD00"/>
<path d="M171.17 2.67304C171.05 2.72121 170.954 2.79346 170.858 2.8898C169.25 4.57574 167.69 6.26167 166.178 7.99577C165.842 8.35705 165.434 8.67015 164.977 8.86283C164.521 9.0555 164.017 9.15184 163.513 9.15184C161.209 9.10367 158.88 9.07959 156.552 9.12776C156.408 9.12776 156.288 9.15184 156.192 9.2241C156 9.32044 155.832 9.51312 155.76 9.72988C155.712 9.87439 155.688 10.0911 155.856 10.3079C157.152 12.0179 158.448 13.728 159.721 15.438C160.273 16.1846 160.393 17.1721 160.057 18.0873C159.265 20.1345 158.52 22.2058 157.824 24.253C157.704 24.6384 157.896 24.8792 157.992 24.9755C158.088 25.0719 158.352 25.2646 158.736 25.1201C160.801 24.3734 162.865 23.675 164.953 23.0247C165.866 22.7357 166.85 22.9283 167.594 23.5064C169.274 24.831 170.93 26.1798 172.563 27.5526C172.875 27.8175 173.163 27.7212 173.283 27.673C173.403 27.6249 173.667 27.4563 173.691 27.0709C173.763 24.9515 173.883 22.832 174.027 20.7125C174.099 19.7732 174.627 18.9303 175.467 18.4486C177.363 17.3648 179.284 16.3291 181.228 15.3175C181.588 15.1249 181.612 14.8118 181.612 14.6673C181.612 14.5468 181.564 14.2096 181.204 14.0411C179.212 13.1499 177.171 12.3069 175.107 11.5122C174.195 11.1509 173.547 10.4043 173.355 9.48903C172.947 7.39365 172.539 5.29828 172.155 3.2029C172.107 2.93797 171.939 2.79346 171.795 2.74529C171.627 2.60078 171.386 2.5767 171.17 2.67304Z" fill="#FFCD00"/>
<path d="M199.495 33.0922C199.351 32.9959 199.207 32.9477 199.039 32.9236C196.038 32.466 193.062 32.0806 190.085 31.7434C189.437 31.6712 188.813 31.4544 188.237 31.1172C187.661 30.7801 187.181 30.2984 186.797 29.7685C185.092 27.2637 183.316 24.7589 181.492 22.3022C181.396 22.1577 181.252 22.0614 181.132 21.965C180.868 21.8205 180.556 21.7964 180.268 21.8928C180.076 21.965 179.836 22.1095 179.74 22.4467C178.972 25.1201 178.179 27.7935 177.363 30.4429C177.003 31.623 176.067 32.4901 174.867 32.8032C172.13 33.5016 169.418 34.2723 166.73 35.0912C166.225 35.2357 166.129 35.6452 166.105 35.8379C166.081 36.0065 166.081 36.44 166.514 36.7531C168.866 38.3908 171.194 40.0768 173.475 41.8109C174.483 42.5816 175.059 43.7617 175.011 45.0142C174.915 47.808 174.771 50.6018 174.603 53.3957C174.579 53.9014 174.891 54.1664 175.035 54.2627C175.179 54.3591 175.563 54.5277 175.971 54.2386C178.251 52.7213 180.556 51.2521 182.884 49.807C183.916 49.1808 185.213 49.1086 186.341 49.6384C188.933 50.8668 191.502 52.1433 194.07 53.492C194.55 53.7329 194.91 53.5402 195.054 53.4198C195.198 53.3234 195.486 53.0344 195.366 52.5045C194.742 49.6866 194.046 46.8687 193.302 44.0267C192.966 42.7743 193.254 41.5219 194.07 40.6307C195.942 38.6076 197.815 36.6086 199.711 34.6095C199.951 34.3446 199.951 34.0556 199.927 33.8629C199.927 33.5257 199.759 33.2608 199.495 33.0922Z" fill="#FFCD00"/>
</g>
<defs>
<clipPath id="clip0_248_2301">
<rect width="200" height="200" fill="white"/>
</clipPath>
</defs>
</svg>
