<svg width="200" height="200" viewBox="0 0 200 200" fill="none" xmlns="http://www.w3.org/2000/svg">
<path d="M177.022 168.784C172.956 173.008 169.108 175.737 166.053 177.897C130.308 203.218 87.9961 195.837 78.9998 194.034C65.7217 191.376 40.0556 186.226 21.5096 164.703C-6.56194 132.12 -2.18403 80.8144 19.5853 46.9506C23.5783 40.7568 44.6019 6.37094 87.3707 0.841673C113.253 -2.50437 143.418 4.23517 165.259 22.2943C211.131 60.1923 207.86 136.772 177.022 168.784Z" fill="#EAEBED"/>
<path d="M44.3132 18.8772C43.5675 48.7068 41.138 151.603 42.2926 188.054C42.4129 191.922 45.564 195.007 49.4609 195.149C68.8247 195.766 124.535 197.356 156.215 196.051C162.806 195.766 168.049 190.498 168.194 183.996C168.843 152.695 170.311 64.6301 166.847 24.2878C166.438 19.4468 162.589 15.6024 157.706 15.1278C136.61 13.0394 80.6114 7.96106 53.2374 9.69341C48.3063 10.0256 44.4335 14.0124 44.3132 18.8772Z" fill="#040A2C"/>
<path d="M52.179 28.1557C51.1206 52.5746 47.777 133.853 48.8354 163.919C48.9797 168.31 52.4917 171.869 56.9418 172.13C75.2472 173.198 122.226 175.524 149.094 173.388C153.929 173.008 157.73 169.14 157.995 164.37C159.366 139.453 163.263 63.7756 162.252 34.0646C162.084 29.3185 158.379 25.4504 153.569 25.0232C133.748 23.2671 82.8725 19.0905 60.0448 20.3245C55.7631 20.5381 52.3714 23.9316 52.179 28.1557Z" fill="#91B3FA"/>
<path d="M92.1575 14.9139C92.1575 15.8394 92.8791 16.5751 93.8172 16.6225C98.3876 16.8598 111.281 17.5243 117.03 17.8565C118.16 17.9277 119.05 16.9073 118.834 15.8157L118.786 15.6258C118.641 14.8665 118.016 14.2969 117.222 14.2495C113.325 13.8935 101.587 12.9205 93.7932 13.2053C92.9032 13.229 92.1575 13.9884 92.1575 14.9139Z" fill="white"/>
<path d="M47.4789 4.13443L6.7019 81.6987L43.3653 100.458L84.1422 22.8938L47.4789 4.13443Z" fill="#7D97F4"/>
<path opacity="0.5" d="M52.9509 12.3755L73.9263 23.1018C73.0604 24.7629 73.8542 26.9462 75.7304 27.9191C75.7785 27.9429 75.9229 28.0141 75.9229 28.0141L43.0164 90.6158C43.0164 90.6158 42.872 90.5446 42.8239 90.4972C40.9477 89.5479 38.7106 90.1175 37.8206 91.8024C37.7965 91.8261 37.7725 91.8498 37.7725 91.8498L17.2781 81.3608C18.7695 78.5131 16.9894 77.2554 15.1372 76.3062C15.0891 76.2824 15.0651 76.3062 15.041 76.3062L47.9475 13.7044C47.9475 13.7044 47.9475 13.7044 48.0197 13.7519C49.8959 14.7011 52.0849 14.0366 52.9509 12.3755Z" fill="white"/>
<path d="M45.3482 65.034C52.522 65.034 58.3376 59.2967 58.3376 52.2194C58.3376 45.1421 52.522 39.4048 45.3482 39.4048C38.1743 39.4048 32.3588 45.1421 32.3588 52.2194C32.3588 59.2967 38.1743 65.034 45.3482 65.034Z" fill="url(#paint0_linear_248_2127)"/>
<path d="M52.5159 57.346L51.2891 56.729C50.5675 57.963 49.6293 59.0546 48.7634 59.719C48.4507 59.9563 48.0177 59.9326 47.729 59.6716L46.7428 58.7935C46.382 58.4613 46.406 57.9155 46.7668 57.607C47.6088 56.9188 48.4507 55.9933 49.0761 54.8305C49.7015 53.6202 49.7737 52.5049 48.9077 52.0777C48.1379 51.6743 47.3201 52.1489 45.9731 53.5965C44.0487 55.6611 42.0762 56.8239 39.9594 55.7323C38.0351 54.7356 37.2894 52.5998 38.1554 49.9894L36.9286 49.3724C36.5437 49.1826 36.3753 48.6842 36.5918 48.3045L36.9526 47.5926C37.1451 47.2129 37.6502 47.0468 38.0351 47.2604L39.1416 47.8299C39.7911 46.6908 40.4405 45.9552 41.0419 45.4094C41.3546 45.1246 41.8116 45.1246 42.1243 45.4094L43.0384 46.2162C43.3752 46.5247 43.3752 47.0705 43.0384 47.379C42.4852 47.8774 41.7635 48.613 41.1862 49.7521C40.4405 51.176 40.8254 51.9116 41.3546 52.1726C42.0281 52.5049 42.9181 51.8879 44.4817 50.3216C46.6947 48.0672 48.4025 47.5451 50.3991 48.5656C52.2513 49.5148 53.1894 51.7218 52.2272 54.5457L53.5983 55.2339C53.9832 55.4238 54.1516 55.9221 53.9351 56.3018L53.5743 57.0137C53.3818 57.3934 52.9007 57.5358 52.5159 57.346Z" fill="white"/>
<path opacity="0.7" d="M16.9167 84.5413C16.8926 84.5413 16.8686 84.5413 16.8445 84.5176L9.96494 81.0054C9.91683 80.9817 9.89278 80.958 9.86872 80.9105C9.84467 80.863 9.86872 80.8156 9.86872 80.7681L19.9475 61.6174C19.9957 61.5225 20.0919 61.4987 20.1881 61.5462C20.2843 61.5937 20.3084 61.6886 20.2602 61.7835L10.2776 80.7918L16.9888 84.2328C17.0851 84.2803 17.1091 84.3752 17.061 84.4701C17.061 84.5176 16.9888 84.5413 16.9167 84.5413Z" fill="white"/>
<path d="M70.9425 43.2022C70.9185 43.2022 70.8944 43.2022 70.8704 43.1785C70.7742 43.1311 70.7501 43.0361 70.7982 42.9412L80.6606 24.1702L73.4683 20.4919C73.372 20.4444 73.348 20.3495 73.3961 20.2546C73.4442 20.1597 73.5404 20.1359 73.6366 20.1834L80.9973 23.9566C81.0454 23.9803 81.0695 24.0041 81.0935 24.0515C81.1176 24.099 81.0935 24.1464 81.0935 24.1939L71.159 43.1073C71.0628 43.1785 70.9907 43.2022 70.9425 43.2022Z" fill="white"/>
<path d="M60.0397 1.60208L2.09814 67.6851L33.5346 94.5117L91.4761 28.4287L60.0397 1.60208Z" fill="#91B3FA"/>
<path opacity="0.5" d="M63.5093 10.9038L81.3818 26.1627C80.1309 27.5865 80.4917 29.9596 82.0793 31.3123C82.1274 31.3597 82.1274 31.336 82.3439 31.5021L35.558 84.8489C35.3656 84.6828 35.3656 84.6828 35.3175 84.6353C33.7299 83.2826 31.3725 83.2826 30.0976 84.7302C30.0736 84.754 30.0014 84.754 30.0014 84.754L12.5379 69.851C14.6787 67.4068 13.2114 65.7693 11.6238 64.393C11.5757 64.3455 11.5276 64.3218 11.5276 64.3218L58.2895 10.9987C58.2895 10.9987 58.3135 11.0462 58.3616 11.0937C59.9492 12.4463 62.2584 12.3277 63.5093 10.9038Z" fill="white"/>
<path d="M46.7184 60.7152C53.8923 60.7152 59.7078 54.9779 59.7078 47.9006C59.7078 40.8232 53.8923 35.0859 46.7184 35.0859C39.5446 35.0859 33.729 40.8232 33.729 47.9006C33.729 54.9779 39.5446 60.7152 46.7184 60.7152Z" fill="url(#paint1_linear_248_2127)"/>
<path d="M52.4929 54.5216L51.4586 53.6435C50.4723 54.664 49.2937 55.5183 48.3074 55.9692C47.9466 56.1353 47.5377 56.0166 47.3212 55.6844L46.5755 54.5928C46.3109 54.1894 46.4552 53.6673 46.8882 53.4537C47.8504 52.9791 48.9088 52.2672 49.7748 51.2705C50.6888 50.25 51.0015 49.1822 50.2799 48.5652C49.6304 47.9956 48.7164 48.2567 47.0807 49.372C44.7233 50.9382 42.5344 51.6264 40.7062 50.0602C39.0705 48.6601 38.854 46.4057 40.3214 44.0563L39.287 43.1783C38.9503 42.8935 38.9262 42.3952 39.2149 42.0629L39.7441 41.4697C40.0327 41.1374 40.5378 41.1137 40.8746 41.3985L41.8127 42.2053C42.7268 41.2561 43.5206 40.6865 44.2182 40.2831C44.579 40.0695 45.036 40.1882 45.2766 40.5442L45.9501 41.5409C46.2147 41.9205 46.0944 42.4426 45.6614 42.6799C44.9879 43.0359 44.146 43.6054 43.2801 44.5547C42.1976 45.7649 42.4141 46.5718 42.8711 46.9515C43.4484 47.4261 44.4587 47.0227 46.359 45.8599C49.0291 44.175 50.8091 44.0563 52.541 45.5276C54.1046 46.8803 54.5135 49.2296 52.9259 51.7688L54.0805 52.7655C54.4173 53.0503 54.4413 53.5486 54.1527 53.8809L53.6235 54.4741C53.3348 54.7826 52.8297 54.8064 52.4929 54.5216Z" fill="white"/>
<path opacity="0.7" d="M11.7443 72.7464C11.7203 72.7464 11.6962 72.7227 11.6962 72.7227L5.63449 67.5494C5.56232 67.4782 5.56232 67.3833 5.61043 67.3121L19.7545 51.1989C19.8266 51.1277 19.9228 51.1277 19.995 51.1752C20.0672 51.2464 20.0672 51.3413 20.0191 51.4125L5.9953 67.407L11.9127 72.4617C11.9849 72.5329 11.9849 72.6278 11.9368 72.699C11.8886 72.7702 11.8165 72.7702 11.7443 72.7464Z" fill="white"/>
<path d="M73.661 44.9579C73.6369 44.9579 73.6129 44.9341 73.6129 44.9341C73.5407 44.8629 73.5407 44.768 73.5888 44.6968L87.6126 28.7023L81.6952 23.6476C81.623 23.5764 81.623 23.4815 81.6711 23.4103C81.7433 23.3391 81.8395 23.3391 81.9117 23.3866L87.9734 28.5599C87.9975 28.5836 88.0215 28.6311 88.0456 28.6786C88.0456 28.726 88.0456 28.7735 87.9975 28.7972L73.8775 44.9104C73.8053 44.9579 73.7332 44.9816 73.661 44.9579Z" fill="white"/>
<path d="M76.4329 2.89475L0.990234 48.6714L22.7667 83.6009L98.2094 37.8243L76.4329 2.89475Z" fill="#7D97F4"/>
<path d="M76.8839 12.8495L89.2719 32.7122C87.6603 33.6851 87.2273 36.0582 88.3338 37.8143C88.3579 37.8618 88.3338 37.838 88.4781 38.0753L27.5963 75.0241C27.452 74.7868 27.476 74.8343 27.452 74.7631C26.3455 72.9833 24.1325 72.3188 22.4727 73.3155C22.4487 73.3393 22.4005 73.2918 22.4005 73.2918L10.3011 53.88C13.0674 52.1951 12.1533 50.178 11.0709 48.3982C11.0468 48.3508 10.9747 48.3033 10.9506 48.3033L71.8325 11.3545C71.8325 11.3545 71.8806 11.4257 71.9046 11.4731C73.0111 13.253 75.2722 13.8462 76.8839 12.8495Z" fill="#BDD0FB"/>
<path d="M61.5054 48.1356C64.3032 41.6189 61.2163 34.0984 54.6106 31.3383C48.0049 28.5781 40.3819 31.6235 37.5841 38.1402C34.7863 44.657 37.8732 52.1775 44.4788 54.9376C51.0845 57.6978 58.7076 54.6524 61.5054 48.1356Z" fill="#7D97F4"/>
<path opacity="0.7" d="M8.44894 56.5617C8.40084 56.538 8.37678 56.5143 8.35273 56.4905L4.1432 49.751C4.11914 49.7035 4.11914 49.6561 4.11914 49.6086C4.11914 49.5612 4.16725 49.5137 4.1913 49.49L22.8095 38.1941C22.8816 38.1467 23.0019 38.1704 23.05 38.2416C23.0981 38.3128 23.0741 38.4314 23.0019 38.4789L4.52807 49.6798L8.64138 56.277C8.68949 56.3482 8.66543 56.4668 8.59327 56.5143C8.54516 56.5617 8.49705 56.5617 8.44894 56.5617Z" fill="white"/>
<path d="M76.2106 48.3276C76.1625 48.3038 76.1384 48.2801 76.1144 48.2564C76.0663 48.1852 76.0903 48.0665 76.1625 48.0191L94.4198 36.9368L90.3065 30.3396C90.2584 30.2684 90.2825 30.1498 90.3546 30.1023C90.4268 30.0549 90.5471 30.0786 90.5952 30.1498L94.8047 36.8893C94.8287 36.9368 94.8288 36.9842 94.8288 37.0317C94.8288 37.0792 94.7806 37.1266 94.7566 37.1504L76.3549 48.3038C76.3068 48.3513 76.2587 48.3513 76.2106 48.3276Z" fill="white"/>
<path d="M30.723 55.969C31.7814 57.6776 31.2522 59.9083 29.5203 60.9525C27.7883 61.9966 25.5272 61.4745 24.4688 59.7659C23.4104 58.0573 23.9396 55.8266 25.6716 54.7825C27.3794 53.7146 29.6646 54.2604 30.723 55.969Z" fill="#7D97F4"/>
<path d="M74.7426 32.8788C76.7752 32.8788 78.4229 31.2532 78.4229 29.248C78.4229 27.2428 76.7752 25.6172 74.7426 25.6172C72.71 25.6172 71.0623 27.2428 71.0623 29.248C71.0623 31.2532 72.71 32.8788 74.7426 32.8788Z" fill="url(#paint2_linear_248_2127)"/>
<path d="M127.447 56.5134C138.3 56.5134 147.099 47.8331 147.099 37.1253C147.099 26.4176 138.3 17.7373 127.447 17.7373C116.593 17.7373 107.794 26.4176 107.794 37.1253C107.794 47.8331 116.593 56.5134 127.447 56.5134Z" fill="#FFCD00"/>
<g opacity="0.7">
<path opacity="0.7" d="M111.787 29.5317C111.763 29.5317 111.739 29.5317 111.715 29.5079C111.619 29.4605 111.595 29.3656 111.643 29.2706C114.674 23.3379 120.735 19.6597 127.471 19.6597C128.553 19.6597 129.611 19.7546 130.67 19.9444C130.766 19.9682 130.838 20.0631 130.814 20.158C130.79 20.2529 130.694 20.3241 130.598 20.3004C129.563 20.1106 128.529 20.0156 127.471 20.0156C120.88 20.0156 114.938 23.6227 111.955 29.4367C111.907 29.4842 111.835 29.5317 111.787 29.5317Z" fill="white"/>
</g>
<path opacity="0.78" d="M127.857 53.4051C136.744 53.4051 143.949 46.2972 143.949 37.5292C143.949 28.7612 136.744 21.6533 127.857 21.6533C118.969 21.6533 111.764 28.7612 111.764 37.5292C111.764 46.2972 118.969 53.4051 127.857 53.4051Z" fill="white"/>
<path d="M120.64 42.2749C123.244 42.2749 125.355 39.1619 125.355 35.3218C125.355 31.4817 123.244 28.3687 120.64 28.3687C118.036 28.3687 115.925 31.4817 115.925 35.3218C115.925 39.1619 118.036 42.2749 120.64 42.2749Z" fill="#FFCD00"/>
<path d="M121.747 41.0176C121.025 41.0176 120.279 41.0176 119.558 41.0176C119.365 48.825 119.173 56.6087 118.98 64.511C118.98 64.9856 119.149 65.3179 119.485 65.6501C119.822 65.9823 120.279 66.1247 120.736 66.1247C121.169 66.1247 121.578 65.9349 121.867 65.6264C122.156 65.3179 122.324 65.1518 122.324 64.7246C122.131 56.7511 121.939 48.825 121.747 41.0176Z" fill="#FFCD00"/>
<path d="M138.706 28.6772H137.551V37.1254H136.805V28.701H135.578V37.1254H134.087V28.701H132.86V37.1254H131.609V28.6772H130.864C130.864 28.6772 129.878 36.2711 130.046 39.7832C130.07 40.2104 130.335 40.6138 130.695 40.9223C131.369 41.4919 132.692 42.275 134.881 42.275C137.046 42.275 138.369 41.4919 139.018 40.9223C139.379 40.6138 139.572 40.2104 139.596 39.7832C139.788 36.2474 138.706 28.6772 138.706 28.6772Z" fill="#FFCD00"/>
<path d="M135.988 41.0171C135.266 41.0171 134.52 41.0171 133.799 41.0171C133.606 48.8245 133.414 56.6082 133.222 64.5105C133.222 64.9852 133.39 65.3174 133.727 65.6496C134.063 65.9819 134.52 66.1242 134.978 66.1242C135.411 66.1242 135.819 65.9344 136.108 65.6259C136.397 65.3174 136.565 65.1513 136.565 64.7241C136.373 56.7506 136.18 48.8245 135.988 41.0171Z" fill="#FFCD00"/>
<path d="M161.411 83.1397C172.251 83.1397 181.039 74.47 181.039 63.7754C181.039 53.0808 172.251 44.4111 161.411 44.4111C150.57 44.4111 141.782 53.0808 141.782 63.7754C141.782 74.47 150.57 83.1397 161.411 83.1397Z" fill="#FFCD00"/>
<path opacity="0.7" d="M145.75 56.1572C145.726 56.1572 145.702 56.1572 145.678 56.1334C145.582 56.086 145.558 55.991 145.606 55.8961C148.637 49.9634 154.698 46.2852 161.41 46.2852C162.492 46.2852 163.55 46.3801 164.609 46.5699C164.705 46.5937 164.777 46.6886 164.753 46.7835C164.729 46.8784 164.633 46.9496 164.537 46.9259C163.502 46.736 162.468 46.6411 161.41 46.6411C154.819 46.6411 148.877 50.2482 145.918 56.0622C145.894 56.1334 145.822 56.1572 145.75 56.1572Z" fill="white"/>
<path d="M161.819 80.0305C170.693 80.0305 177.887 72.9332 177.887 64.1783C177.887 55.4234 170.693 48.3262 161.819 48.3262C152.945 48.3262 145.751 55.4234 145.751 64.1783C145.751 72.9332 152.945 80.0305 161.819 80.0305Z" fill="white" fill-opacity="0.8"/>
<path d="M164.081 75.0238H158.621C157.562 75.0238 156.697 74.1695 156.697 73.1253V55.6358C156.697 54.5916 157.562 53.7373 158.621 53.7373H164.081C165.14 53.7373 166.006 54.5916 166.006 55.6358V73.1253C166.006 74.1695 165.14 75.0238 164.081 75.0238Z" fill="#FFCD00"/>
<path d="M150.563 67.5007V62.1138C150.563 61.0696 151.429 60.2153 152.487 60.2153H170.215C171.274 60.2153 172.139 61.0696 172.139 62.1138V67.5007C172.139 68.5448 171.274 69.3991 170.215 69.3991H152.487C151.429 69.3991 150.563 68.5448 150.563 67.5007Z" fill="#FFCD00"/>
<path d="M54.7506 50.7469C53.0601 51.7229 51.5763 52.0808 50.299 51.8206C49.0356 51.5523 48.0239 50.76 47.2639 49.4437C47.0239 49.028 46.8564 48.6258 46.7614 48.2373L45.743 48.8253L44.855 47.2872L46.6633 46.2432C46.7447 45.8082 46.8866 45.366 47.089 44.9166C47.2914 44.4672 47.5474 44.0146 47.8569 43.5587L43.991 45.7907L43.103 44.2527L50.0451 40.2447C50.2133 39.7041 50.1415 39.1636 49.8295 38.6232C49.5735 38.1798 49.2072 37.9294 48.7306 37.872C48.2679 37.8066 47.7317 37.9499 47.1221 38.3019C46.5678 38.6219 46.0506 39.0221 45.5705 39.5025C45.1042 39.9749 44.6047 40.5497 44.0719 41.2268L41.7206 39.3143C42.2571 38.5796 42.8614 37.8982 43.5333 37.27C44.2111 36.62 44.9865 36.043 45.8595 35.539C47.3005 34.707 48.6477 34.4004 49.9009 34.619C51.16 34.8159 52.1736 35.5794 52.9416 36.9096C53.1896 37.3392 53.3741 37.7868 53.4953 38.2527L54.5553 37.6407L55.4433 39.1787L53.5103 40.2947C53.4055 40.8171 53.2132 41.3161 52.9335 41.7917C52.6459 42.2534 52.3363 42.7092 52.0049 43.1592L56.3073 40.6752L57.1953 42.2133L50.087 46.3173C49.9997 46.7741 50.0841 47.2243 50.3401 47.6677C50.6361 48.1803 51.0482 48.4782 51.5765 48.5612C52.0967 48.6303 52.7171 48.4569 53.4377 48.0409C54.1859 47.6089 54.8723 47.1017 55.4968 46.5194C56.1134 45.9233 56.6979 45.2718 57.2504 44.5648L58.7624 47.1836C58.3346 47.8186 57.7807 48.4432 57.1008 49.0575C56.4208 49.6718 55.6374 50.2349 54.7506 50.7469Z" fill="white"/>
<path d="M53.8397 81.3355C63.9496 81.3355 72.1452 73.2502 72.1452 63.2764C72.1452 53.3026 63.9496 45.2173 53.8397 45.2173C43.7299 45.2173 35.5343 53.3026 35.5343 63.2764C35.5343 73.2502 43.7299 81.3355 53.8397 81.3355Z" fill="#FFCD00"/>
<path opacity="0.7" d="M39.2642 56.1809C39.2401 56.1809 39.216 56.1809 39.192 56.1571C39.1198 56.1097 39.0717 56.0148 39.1198 55.9436C41.9342 50.4143 47.587 46.9971 53.8652 46.9971C54.8755 46.9971 55.8617 47.092 56.848 47.2581C56.9442 47.2818 56.9923 47.353 56.9923 47.448C56.9682 47.5429 56.8961 47.5903 56.7999 47.5903C55.8377 47.4242 54.8514 47.3293 53.8893 47.3293C47.7554 47.3293 42.2229 50.6991 39.4566 56.1097C39.3844 56.1571 39.3123 56.1809 39.2642 56.1809Z" fill="white"/>
<path opacity="0.78" d="M54.2263 78.4406C62.5028 78.4406 69.2122 71.8215 69.2122 63.6563C69.2122 55.4912 62.5028 48.8721 54.2263 48.8721C45.9498 48.8721 39.2404 55.4912 39.2404 63.6563C39.2404 71.8215 45.9498 78.4406 54.2263 78.4406Z" fill="white"/>
<path d="M67.6715 60.31L54.2972 56.2758C53.9845 56.1809 53.6718 56.1809 53.3831 56.2758L40.0088 60.31C39.8886 60.3575 39.7924 60.4761 39.7924 60.5948C39.7924 60.7372 39.8886 60.8558 40.0088 60.8796L53.3831 64.9138C53.6958 65.0087 54.0085 65.0087 54.2972 64.9138L67.6715 60.8796C67.7918 60.8321 67.888 60.7134 67.888 60.5948C67.888 60.4761 67.7918 60.3575 67.6715 60.31Z" fill="#FFCD00"/>
<path d="M53.8169 66.6702L44.4838 63.8462V70.2535C44.4838 71.2977 45.2295 72.2232 46.2638 72.4367C51.2671 73.4809 56.1021 73.5283 60.7205 72.4605C61.7308 72.2232 62.4524 71.3214 62.4524 70.301V64.0598L53.8169 66.6702Z" fill="#FFCD00"/>
<path d="M42.414 69.3047C41.5962 69.6606 40.8986 69.6606 40.2972 69.3284C40.1289 69.2335 40.0326 69.0199 40.0807 68.8301L41.4037 62.3516L42.7027 68.7826C42.7508 68.9962 42.6305 69.2097 42.414 69.3047Z" fill="#FFCD00"/>
<path d="M53.8163 59.9541L41.1877 61.283V63.4425H41.5726L41.6207 61.5441L53.8163 59.9541Z" fill="#FFCD00"/>
<path d="M83.8117 56.1814C94.6787 56.1814 103.488 47.4905 103.488 36.7697C103.488 26.0489 94.6787 17.3579 83.8117 17.3579C72.9446 17.3579 64.1351 26.0489 64.1351 36.7697C64.1351 47.4905 72.9446 56.1814 83.8117 56.1814Z" fill="#FFCD00"/>
<path opacity="0.7" d="M68.1281 29.1521C68.104 29.1521 68.08 29.1521 68.0559 29.1283C67.9597 29.0809 67.9357 28.986 67.9838 28.891C71.0146 22.9583 77.1004 19.2563 83.8357 19.2563C84.9181 19.2563 85.9765 19.3513 87.0349 19.5411C87.1311 19.5648 87.2033 19.6598 87.1792 19.7547C87.1552 19.8496 87.059 19.9208 86.9627 19.8971C85.9284 19.7072 84.87 19.6123 83.8357 19.6123C77.2447 19.6123 71.2792 23.2194 68.3205 29.0334C68.2484 29.1046 68.1762 29.1521 68.1281 29.1521Z" fill="white"/>
<path opacity="0.78" d="M84.2212 53.0482C93.1088 53.0482 100.314 45.9403 100.314 37.1723C100.314 28.4043 93.1088 21.2964 84.2212 21.2964C75.3336 21.2964 68.1288 28.4043 68.1288 37.1723C68.1288 45.9403 75.3336 53.0482 84.2212 53.0482Z" fill="white"/>
<path d="M94.7086 32.7117L83.9563 24.5483L73.204 32.7117C72.6748 33.1151 72.9634 33.922 73.6129 33.922H75.1283C75.1043 34.0169 75.1043 34.0881 75.1043 34.183V46.3569C75.1043 47.0926 75.7056 47.7096 76.4754 47.7096H91.4372C92.1829 47.7096 92.8083 47.1163 92.8083 46.3569V34.183C92.8083 34.0881 92.8083 33.9932 92.7843 33.922H94.2997C94.9492 33.922 95.2378 33.0914 94.7086 32.7117ZM87.4683 42.9871H80.4684V36.0815H87.4683V42.9871Z" fill="#FFCD00"/>
<path d="M63.7497 84.5882C63.6294 84.5882 63.5332 84.5407 63.4611 84.4458L62.7635 83.4728C62.6432 83.3067 62.6913 83.0931 62.8356 82.9745C63.004 82.8558 63.2205 82.9033 63.3408 83.0457L64.0384 84.0186C64.1586 84.1847 64.1105 84.3983 63.9662 84.517C63.894 84.5644 63.8219 84.5882 63.7497 84.5882Z" fill="white"/>
<path d="M77.5794 103.55C77.4591 103.55 77.3629 103.503 77.2907 103.408L75.9196 101.509C75.7993 101.343 75.8474 101.13 75.9918 101.011C76.1601 100.892 76.3766 100.94 76.4969 101.082L77.868 102.981C77.9883 103.147 77.9402 103.36 77.7958 103.479C77.7237 103.526 77.6515 103.55 77.5794 103.55ZM74.8131 99.7533C74.6928 99.7533 74.5966 99.7058 74.5244 99.6109L73.1533 97.7124C73.0331 97.5463 73.0812 97.3327 73.2255 97.2141C73.3939 97.0954 73.6104 97.1429 73.7306 97.2853L75.1017 99.1837C75.222 99.3498 75.1739 99.5634 75.0296 99.6821C74.9574 99.7295 74.8853 99.7533 74.8131 99.7533ZM72.0468 95.9563C71.9266 95.9563 71.8303 95.9089 71.7582 95.814L70.3871 93.9155C70.2668 93.7494 70.3149 93.5358 70.4592 93.4171C70.6276 93.2985 70.8441 93.346 70.9644 93.4883L72.3355 95.3868C72.4558 95.5529 72.4076 95.7665 72.2633 95.8851C72.1912 95.9563 72.119 95.9563 72.0468 95.9563ZM69.2806 92.1831C69.1603 92.1831 69.0641 92.1357 68.9919 92.0408L67.6208 90.1423C67.5005 89.9762 67.5486 89.7626 67.693 89.644C67.8613 89.5253 68.0778 89.5728 68.1981 89.7151L69.5692 91.6136C69.6895 91.7797 69.6414 91.9933 69.4971 92.112C69.4249 92.1594 69.3527 92.1831 69.2806 92.1831ZM66.5143 88.3862C66.394 88.3862 66.2978 88.3388 66.2257 88.2438L64.8545 86.3454C64.7343 86.1793 64.7824 85.9657 64.9267 85.847C65.0951 85.7284 65.3116 85.7758 65.4319 85.9182L66.803 87.8167C66.9232 87.9828 66.8751 88.1964 66.7308 88.315C66.6586 88.3625 66.5865 88.3862 66.5143 88.3862Z" fill="white"/>
<path d="M79.6488 106.397C79.5285 106.397 79.4323 106.35 79.3601 106.255L78.6625 105.282C78.5423 105.116 78.5904 104.902 78.7347 104.784C78.9031 104.665 79.1196 104.712 79.2398 104.855L79.9374 105.828C80.0577 105.994 80.0096 106.207 79.8653 106.326C79.7931 106.397 79.7209 106.397 79.6488 106.397Z" fill="white"/>
<path d="M146.04 82.5946C145.968 82.5946 145.92 82.5709 145.872 82.5471C145.703 82.4522 145.631 82.2386 145.728 82.0725L146.329 81.0521C146.425 80.886 146.642 80.8148 146.81 80.9097C146.978 81.0046 147.051 81.2182 146.954 81.3843L146.353 82.4047C146.305 82.5471 146.185 82.5946 146.04 82.5946Z" fill="white"/>
<path d="M130.719 108.912C130.646 108.912 130.598 108.888 130.55 108.865C130.382 108.77 130.31 108.556 130.406 108.39L131.681 106.207C131.777 106.041 131.993 105.97 132.162 106.064C132.33 106.159 132.402 106.373 132.306 106.539L131.031 108.722C130.959 108.865 130.839 108.912 130.719 108.912ZM133.268 104.522C133.196 104.522 133.148 104.498 133.1 104.475C132.932 104.38 132.859 104.166 132.956 104L134.231 101.817C134.327 101.651 134.543 101.579 134.712 101.674C134.88 101.769 134.952 101.983 134.856 102.149L133.581 104.332C133.509 104.475 133.389 104.522 133.268 104.522ZM135.818 100.156C135.746 100.156 135.698 100.132 135.65 100.108C135.481 100.013 135.409 99.7995 135.505 99.6334L136.78 97.4502C136.877 97.2841 137.093 97.2129 137.261 97.3078C137.43 97.4027 137.502 97.6163 137.406 97.7824L136.131 99.9657C136.083 100.084 135.962 100.156 135.818 100.156ZM138.392 95.7653C138.32 95.7653 138.272 95.7416 138.224 95.7179C138.055 95.6229 137.983 95.4094 138.079 95.2432L139.354 93.06C139.45 92.8939 139.667 92.8227 139.835 92.9176C140.004 93.0125 140.076 93.2261 139.98 93.3922L138.705 95.5755C138.633 95.6941 138.512 95.7653 138.392 95.7653ZM140.942 91.3751C140.87 91.3751 140.821 91.3514 140.773 91.3277C140.605 91.2327 140.533 91.0192 140.629 90.853L141.904 88.6698C142 88.5037 142.217 88.4325 142.385 88.5274C142.553 88.6224 142.626 88.8359 142.529 89.002L141.254 91.1853C141.182 91.3039 141.062 91.3751 140.942 91.3751ZM143.492 86.9849C143.419 86.9849 143.371 86.9612 143.323 86.9375C143.155 86.8425 143.083 86.629 143.179 86.4629L144.454 84.2796C144.55 84.1135 144.766 84.0423 144.935 84.1372C145.103 84.2322 145.175 84.4457 145.079 84.6119L143.804 86.7951C143.732 86.9137 143.612 86.9849 143.492 86.9849Z" fill="white"/>
<path d="M128.841 112.14C128.769 112.14 128.721 112.116 128.673 112.092C128.505 111.997 128.432 111.784 128.529 111.617L129.13 110.597C129.226 110.431 129.443 110.36 129.611 110.455C129.779 110.55 129.852 110.763 129.755 110.929L129.154 111.95C129.082 112.068 128.962 112.14 128.841 112.14Z" fill="white"/>
<path d="M86.3611 61.4262C86.1927 61.4262 86.0484 61.3076 86.0003 61.1414L85.7357 59.9786C85.6876 59.7888 85.8079 59.5989 86.0003 59.5515C86.1927 59.504 86.3852 59.6227 86.4333 59.8125L86.6979 60.9753C86.746 61.1652 86.6257 61.355 86.4333 61.4025C86.4333 61.4262 86.4092 61.4262 86.3611 61.4262Z" fill="white"/>
<path d="M94.6591 97.0704C94.4907 97.0704 94.3464 96.9517 94.2983 96.7856L93.7691 94.5549C93.721 94.365 93.8412 94.1752 94.0337 94.1277C94.2261 94.0803 94.4185 94.1989 94.4666 94.3888L94.9958 96.6195C95.0439 96.8093 94.9237 96.9992 94.7312 97.0466C94.7072 97.0704 94.6831 97.0704 94.6591 97.0704ZM93.6247 92.6327C93.4564 92.6327 93.312 92.5141 93.2639 92.3479L92.7347 90.1173C92.6866 89.9274 92.8069 89.7376 92.9993 89.6901C93.1918 89.6426 93.3842 89.7613 93.4323 89.9511L93.9615 92.1818C94.0096 92.3717 93.8893 92.5615 93.6969 92.609C93.6728 92.609 93.6488 92.6327 93.6247 92.6327ZM92.5904 88.1713C92.422 88.1713 92.2777 88.0527 92.2296 87.8866L91.7004 85.6559C91.6523 85.466 91.7725 85.2762 91.965 85.2287C92.1574 85.1812 92.3499 85.2999 92.398 85.4897L92.9272 87.7204C92.9753 87.9103 92.855 88.1001 92.6626 88.1476C92.6385 88.1713 92.6144 88.1713 92.5904 88.1713ZM91.5561 83.7099C91.3877 83.7099 91.2433 83.5913 91.1952 83.4252L90.666 81.1945C90.6179 81.0046 90.7382 80.8148 90.9306 80.7673C91.1231 80.7199 91.3155 80.8385 91.3636 81.0284L91.8928 83.2591C91.9409 83.4489 91.8207 83.6388 91.6282 83.6862C91.6042 83.7099 91.5801 83.7099 91.5561 83.7099ZM90.5217 79.2486C90.3533 79.2486 90.209 79.1299 90.1609 78.9638L89.6317 76.7331C89.5836 76.5432 89.7039 76.3534 89.8963 76.3059C90.0887 76.2585 90.2812 76.3771 90.3293 76.567L90.8585 78.7977C90.9066 78.9875 90.7863 79.1774 90.5939 79.2248C90.5698 79.2486 90.5458 79.2486 90.5217 79.2486ZM89.4874 74.7872C89.319 74.7872 89.1747 74.6685 89.1266 74.5024L88.5974 72.2717C88.5493 72.0819 88.6695 71.892 88.862 71.8446C89.0544 71.7971 89.2468 71.9157 89.2949 72.1056L89.8241 74.3363C89.8722 74.5261 89.752 74.716 89.5595 74.7634C89.5355 74.7872 89.5114 74.7872 89.4874 74.7872ZM88.453 70.3258C88.2846 70.3258 88.1403 70.2071 88.0922 70.041L87.563 67.8103C87.5149 67.6205 87.6352 67.4306 87.8276 67.3832C88.02 67.3357 88.2125 67.4544 88.2606 67.6442L88.7898 69.8749C88.8379 70.0647 88.7176 70.2546 88.5252 70.3021C88.5011 70.3258 88.4771 70.3258 88.453 70.3258ZM87.4187 65.8881C87.2503 65.8881 87.106 65.7695 87.0579 65.6034L86.5287 63.3727C86.4806 63.1828 86.6008 62.993 86.7933 62.9455C86.9857 62.8981 87.1781 63.0167 87.2263 63.2066L87.7555 65.4373C87.8036 65.6271 87.6833 65.8169 87.4909 65.8644C87.4668 65.8881 87.4427 65.8881 87.4187 65.8881Z" fill="white"/>
<path d="M95.4544 100.464C95.286 100.464 95.1417 100.345 95.0936 100.179L94.829 99.0162C94.7809 98.8264 94.9011 98.6365 95.0936 98.5891C95.286 98.5416 95.4784 98.6603 95.5265 98.8501L95.7911 100.013C95.8393 100.203 95.719 100.393 95.5265 100.44C95.5025 100.464 95.4784 100.464 95.4544 100.464Z" fill="white"/>
<path d="M122.635 61.6644C122.611 61.6644 122.587 61.6644 122.587 61.6644C122.395 61.6407 122.251 61.4508 122.299 61.261L122.491 60.0982C122.515 59.9083 122.708 59.7659 122.9 59.8134C123.092 59.8371 123.237 60.027 123.189 60.2168L122.996 61.3796C122.972 61.5457 122.804 61.6644 122.635 61.6644Z" fill="white"/>
<path d="M117.175 95.0538C117.151 95.0538 117.127 95.0538 117.127 95.0538C116.934 95.0301 116.79 94.8403 116.838 94.6504L117.223 92.2536C117.247 92.0638 117.44 91.9214 117.632 91.9688C117.824 91.9926 117.969 92.1824 117.921 92.3723L117.536 94.7691C117.512 94.9352 117.343 95.0538 117.175 95.0538ZM117.969 90.2839C117.945 90.2839 117.921 90.2839 117.921 90.2839C117.728 90.2602 117.584 90.0704 117.632 89.8805L118.017 87.5075C118.041 87.3176 118.233 87.1752 118.426 87.2227C118.618 87.2464 118.763 87.4363 118.714 87.6261L118.33 89.9992C118.281 90.1653 118.137 90.2839 117.969 90.2839ZM118.738 85.5141C118.714 85.5141 118.69 85.5141 118.69 85.5141C118.498 85.4903 118.354 85.3005 118.402 85.1106L118.787 82.7138C118.811 82.524 119.003 82.3816 119.196 82.4291C119.388 82.4528 119.532 82.6426 119.484 82.8325L119.099 85.2056C119.075 85.3954 118.907 85.5141 118.738 85.5141ZM119.508 80.7442C119.484 80.7442 119.46 80.7442 119.46 80.7442C119.268 80.7205 119.123 80.5306 119.171 80.3408L119.556 77.9439C119.58 77.7541 119.773 77.6117 119.965 77.6592C120.158 77.6829 120.302 77.8728 120.254 78.0626L119.869 80.4594C119.845 80.6255 119.701 80.7442 119.508 80.7442ZM120.302 75.9743C120.278 75.9743 120.254 75.9743 120.254 75.9743C120.061 75.9506 119.917 75.7607 119.965 75.5709L120.35 73.1978C120.374 73.008 120.567 72.8656 120.759 72.913C120.951 72.9368 121.096 73.1266 121.048 73.3165L120.663 75.6895C120.615 75.8556 120.47 75.9743 120.302 75.9743ZM121.072 71.2044C121.048 71.2044 121.024 71.2044 121.024 71.2044C120.831 71.1807 120.687 70.9908 120.735 70.801L121.12 68.4042C121.144 68.2143 121.336 68.072 121.529 68.1194C121.721 68.1431 121.866 68.333 121.817 68.5228L121.433 70.9196C121.409 71.0858 121.24 71.2044 121.072 71.2044ZM121.866 66.4345C121.842 66.4345 121.817 66.4345 121.817 66.4345C121.625 66.4108 121.481 66.221 121.529 66.0311L121.914 63.6343C121.938 63.4445 122.13 63.3021 122.323 63.3495C122.515 63.3733 122.659 63.5631 122.611 63.753L122.226 66.1498C122.178 66.3159 122.034 66.4345 121.866 66.4345Z" fill="white"/>
<path d="M116.598 98.6126C116.574 98.6126 116.55 98.6126 116.55 98.6126C116.357 98.5889 116.213 98.3991 116.261 98.2092L116.453 97.0464C116.478 96.8566 116.67 96.7142 116.862 96.7616C117.055 96.7854 117.199 96.9752 117.151 97.1651L116.959 98.3279C116.935 98.494 116.766 98.6126 116.598 98.6126Z" fill="white"/>
<path d="M122.296 114.463C117.149 108.554 118.448 104.686 120.877 101.15L123.259 113.134L122.296 114.463Z" fill="#0049CC"/>
<path d="M122.296 114.463C119.987 110.026 119.506 105.588 120.877 101.15C115.777 102.859 112.602 105.849 112.289 110.785L122.296 114.463Z" fill="#7D97F4"/>
<path d="M117.918 166.647H119.77C121.358 166.647 122.657 165.366 122.657 163.8V157.345C122.657 155.779 121.358 154.497 119.77 154.497H117.918C116.33 154.497 115.031 155.779 115.031 157.345V163.8C115.031 165.366 116.33 166.647 117.918 166.647Z" fill="#0049CC"/>
<path d="M84.0736 167.692H85.9258C87.5134 167.692 88.8123 166.411 88.8123 164.845V158.39C88.8123 156.824 87.5134 155.542 85.9258 155.542H84.0736C82.486 155.542 81.187 156.824 81.187 158.39V164.845C81.187 166.411 82.486 167.692 84.0736 167.692Z" fill="#0049CC"/>
<path d="M100.143 107.083C119.002 107.083 134.637 117.383 137.476 130.814H140.218C142.118 130.814 143.633 132.333 143.633 134.184V141.493C143.633 143.368 142.094 144.863 140.218 144.863H135.623C130.307 155.613 116.428 163.278 100.143 163.278C79.2877 163.278 62.3534 150.701 62.3534 135.181C62.3534 119.661 79.2637 107.083 100.143 107.083Z" fill="white"/>
<path d="M82.8714 112.091C89.8953 109.836 93.9124 109.196 100.239 109.243C100.455 109.243 100.624 109.077 100.624 108.887C100.624 108.674 100.455 108.508 100.239 108.508C93.8161 108.436 89.7269 109.101 82.6308 111.379C82.4143 111.45 82.3181 111.687 82.3903 111.877C82.4865 112.043 82.703 112.138 82.8714 112.091Z" fill="#EAEBED"/>
<path d="M115.826 113.23C108.874 105.256 110.63 100.036 113.926 95.2656L117.125 111.45L115.826 113.23Z" fill="#0049CC"/>
<path d="M115.826 113.23C112.699 107.25 112.074 101.246 113.926 95.2656C107.046 97.5675 102.74 101.602 102.332 108.27L115.826 113.23Z" fill="#7D97F4"/>
<path d="M66.5143 130.933C66.5143 130.933 66.4902 130.815 66.4662 130.601C66.4662 130.553 66.4421 130.482 66.4421 130.411C66.418 130.316 66.394 130.198 66.3699 130.079C66.3459 129.96 66.3218 129.842 66.2978 129.699C66.2737 129.557 66.2256 129.462 66.1775 129.319C66.0091 128.797 65.7445 128.18 65.3115 127.563C64.8786 126.946 64.2772 126.306 63.5075 125.784C62.7377 125.262 61.7996 124.858 60.7412 124.716C60.4766 124.692 60.212 124.645 59.9474 124.645C59.8031 124.645 59.6828 124.645 59.5385 124.645H59.346C59.346 124.645 59.2017 124.645 59.2739 124.645H59.2498H59.2017H59.1295L58.9612 124.668C58.9131 124.668 58.8649 124.668 58.7687 124.692C58.6003 124.716 58.456 124.763 58.2876 124.787C57.999 124.858 57.7103 124.953 57.4457 125.072C56.8925 125.309 56.3873 125.617 55.9303 126.021C55.4973 126.424 55.1124 126.899 54.8238 127.421C54.5351 127.943 54.3187 128.536 54.2224 129.13C54.1743 129.438 54.1503 129.723 54.1503 130.031V130.245V130.316V130.34V130.387V130.482L54.1743 130.672L54.2224 130.933C54.2465 131.028 54.2465 131.099 54.2705 131.194L54.3427 131.408C54.3908 131.55 54.463 131.693 54.5111 131.835C54.5592 131.977 54.6554 132.12 54.7276 132.238C54.7997 132.381 54.896 132.499 54.9922 132.618C55.377 133.116 55.8581 133.52 56.3873 133.805C56.9165 134.089 57.5179 134.256 58.0952 134.303C58.2395 134.327 58.3839 134.327 58.5282 134.327H58.6485H58.6725H58.6966C58.6966 134.327 58.7928 134.327 58.7447 134.327H58.7928L58.9612 134.303C59.0093 134.303 59.1055 134.279 59.1777 134.256C59.2498 134.232 59.346 134.232 59.4182 134.208C59.5625 134.161 59.7069 134.137 59.8512 134.066C60.9577 133.615 61.7274 132.642 61.9199 131.621C61.9439 131.503 61.968 131.36 61.968 131.242C61.968 131.17 61.992 131.123 61.992 131.052V130.862V130.767V130.743V130.696V130.648L61.968 130.506C61.9439 130.387 61.9199 130.221 61.8718 130.103C61.7996 129.865 61.7034 129.628 61.559 129.414C61.4147 129.201 61.2704 129.011 61.102 128.869C60.4285 128.228 59.4904 128.014 58.7928 128.133C57.9749 128.275 57.4698 128.75 57.1811 129.225C57.0368 129.462 56.9646 129.675 56.9406 129.889C56.8925 130.103 56.8925 130.269 56.8925 130.411C56.8925 130.553 56.9165 130.672 56.9406 130.743C56.9646 130.815 56.9646 130.862 56.9646 130.862C57.0368 131.076 57.2773 131.218 57.5179 131.123C57.7344 131.052 57.8547 130.838 57.8065 130.648V130.625C57.8065 130.625 57.8065 130.601 57.8065 130.577C57.8065 130.53 57.7825 130.482 57.8065 130.411C57.8065 130.245 57.8547 130.008 58.023 129.747C58.1193 129.628 58.2395 129.509 58.3839 129.414C58.456 129.367 58.5522 129.319 58.6244 129.296C58.7206 129.272 58.8168 129.248 58.889 129.248C58.9131 129.248 58.9612 129.248 58.9852 129.248H59.0333H59.0574C59.0093 129.248 59.0574 129.248 59.0333 129.248C59.0814 129.248 59.1536 129.248 59.2017 129.272C59.322 129.296 59.4422 129.319 59.5385 129.367C59.755 129.462 59.9714 129.604 60.1398 129.794C60.236 129.889 60.2842 130.008 60.3563 130.103C60.4044 130.221 60.4525 130.34 60.4766 130.482C60.4766 130.506 60.4766 130.53 60.4766 130.553V130.601V130.625V130.648V130.791V130.838C60.4766 130.767 60.4766 130.815 60.4766 130.815V130.838V130.886V131.004C60.4766 131.052 60.4525 131.076 60.4525 131.123C60.4525 131.194 60.4285 131.265 60.4044 131.337C60.236 131.906 59.755 132.405 59.1536 132.594C59.0814 132.618 59.0093 132.642 58.9371 132.642C58.9131 132.642 58.8649 132.642 58.8409 132.642C58.8168 132.642 58.7928 132.642 58.7206 132.642H58.5522H58.5041C58.456 132.642 58.5522 132.642 58.5282 132.642H58.5041H58.432C58.3357 132.642 58.2636 132.642 58.1674 132.618C57.8306 132.571 57.4938 132.428 57.2292 132.238C56.9406 132.049 56.7 131.811 56.5317 131.526C56.4836 131.455 56.4354 131.384 56.4114 131.313C56.3873 131.242 56.3392 131.17 56.3152 131.076C56.2911 131.004 56.2671 130.909 56.243 130.838L56.219 130.72C56.219 130.672 56.219 130.648 56.219 130.625C56.219 130.601 56.219 130.553 56.1949 130.53V130.364V130.269V130.221V130.198C56.1949 130.174 56.1949 130.292 56.1949 130.245V130.103C56.1949 129.936 56.243 129.747 56.2671 129.581C56.3392 129.248 56.5076 128.916 56.7 128.655C56.8925 128.37 57.133 128.133 57.3976 127.919C57.6622 127.73 57.9509 127.587 58.2395 127.468C58.3839 127.421 58.5522 127.397 58.6725 127.35C58.7206 127.35 58.7928 127.35 58.8409 127.326C58.8649 127.326 58.9371 127.326 58.9852 127.326H59.1536H59.2258H59.2739H59.2979C59.3701 127.326 59.2258 127.326 59.2498 127.326H59.3701C59.4423 127.326 59.5385 127.35 59.6106 127.35C59.755 127.374 59.9233 127.397 60.0677 127.421C60.669 127.563 61.1742 127.848 61.5831 128.157C61.992 128.489 62.2807 128.869 62.4731 129.225C62.6656 129.581 62.7858 129.913 62.858 130.198C62.882 130.269 62.9061 130.34 62.9061 130.387C62.9061 130.435 62.9061 130.482 62.9301 130.53C62.9301 130.577 62.9542 130.601 62.9542 130.648C62.9542 130.72 62.9542 130.791 62.9542 130.838C62.9542 131.052 62.9783 131.17 62.9783 131.17C63.0023 132.096 63.7961 132.832 64.7342 132.784C65.6724 132.76 66.418 131.977 66.3699 131.052C66.5143 131.028 66.5143 130.981 66.5143 130.933Z" fill="#0049CC"/>
<path opacity="0.7" d="M73.1779 150.701C73.1298 150.701 73.0816 150.677 73.0335 150.654C69.7381 148.043 67.2124 145.029 65.5045 141.731C65.4323 141.612 65.4804 141.47 65.6007 141.422C65.721 141.351 65.8653 141.399 65.9134 141.517C67.5972 144.768 70.0748 147.735 73.3222 150.298C73.4184 150.369 73.4425 150.535 73.3703 150.63C73.3222 150.677 73.25 150.701 73.1779 150.701Z" fill="white"/>
<path opacity="0.7" d="M102.403 160.075C94.2007 160.075 85.7095 158.057 78.878 154.45C78.7578 154.379 78.7097 154.237 78.7818 154.118C78.854 154 78.9983 153.952 79.1186 154.023C86.2387 157.773 95.211 159.79 103.726 159.576C112.602 159.339 120.18 156.752 125.063 152.291C125.159 152.196 125.303 152.196 125.399 152.315C125.496 152.41 125.472 152.552 125.375 152.647C120.396 157.179 112.723 159.814 103.726 160.051C103.293 160.051 102.86 160.075 102.403 160.075Z" fill="white"/>
<path d="M98.315 154.806C108.465 154.806 116.693 146.688 116.693 136.675C116.693 126.662 108.465 118.545 98.315 118.545C88.1653 118.545 79.9374 126.662 79.9374 136.675C79.9374 146.688 88.1653 154.806 98.315 154.806Z" fill="#FFCD00"/>
<path d="M98.316 154.213C108.134 154.213 116.092 146.361 116.092 136.675C116.092 126.99 108.134 119.138 98.316 119.138C88.4985 119.138 80.5398 126.99 80.5398 136.675C80.5398 146.361 88.4985 154.213 98.316 154.213Z" fill="#FFCD00"/>
<path opacity="0.7" d="M83.9065 129.2C83.8584 129.2 83.8103 129.176 83.7622 129.152C83.5938 129.057 83.5457 128.868 83.6419 128.701C86.6969 123.196 92.5421 119.921 98.9165 120.135C99.9268 120.158 100.937 120.301 101.923 120.514C102.092 120.562 102.212 120.728 102.188 120.894C102.14 121.06 101.971 121.179 101.803 121.155C100.865 120.941 99.8787 120.823 98.9165 120.799C92.8067 120.585 87.202 123.742 84.2674 129.034C84.1471 129.152 84.0268 129.223 83.9065 129.2Z" fill="white"/>
<path opacity="0.78" d="M113.121 141.168C115.418 133.296 110.811 125.078 102.832 122.812C94.8529 120.547 86.5227 125.091 84.226 132.963C81.9294 140.835 86.5361 149.053 94.5153 151.319C102.495 153.585 110.825 149.04 113.121 141.168Z" fill="white"/>
<path d="M127.588 129.058C128.545 129.058 129.32 128.293 129.32 127.349C129.32 126.406 128.545 125.641 127.588 125.641C126.632 125.641 125.856 126.406 125.856 127.349C125.856 128.293 126.632 129.058 127.588 129.058Z" fill="#040A2C"/>
<path d="M73.5627 85.6315C73.3944 85.323 72.9373 85.3705 72.8411 85.7027C72.4803 86.9605 71.6384 89.1674 69.8343 89.9505C69.7381 89.998 69.6659 90.0217 69.5697 90.0692C69.4975 89.8319 69.4975 89.5471 69.69 89.2623C70.2432 88.408 69.2329 87.269 69.2329 87.269C69.2329 87.269 69.1608 88.2894 68.391 88.9301C67.7175 89.4759 67.4048 90.7099 67.8618 91.7066C68.8481 95.4323 70.2913 100.392 64.6145 103.999C58.9376 107.606 50.9034 97.1884 50.9034 97.1884L54.8724 109.623C54.8724 109.623 61.0063 114.085 68.1505 107.82C75.2947 101.531 70.5559 92.3948 70.5559 92.3948C70.5559 92.3948 75.9682 90.2116 73.5627 85.6315Z" fill="#FEBBBA"/>
<path d="M49.869 78.9161C49.869 78.9161 51.5288 71.6308 43.0375 73.553C43.0375 73.553 38.9242 72.8885 38.7077 76.7092C38.7077 76.7092 36.0617 78.4415 37.9861 81.7401C37.9861 81.7401 30.1203 78.75 26.6805 85.5607C23.2407 92.3715 26.3918 96.1209 29.7114 97.0939C29.7114 97.0939 27.0413 98.4228 28.2921 101.413C29.567 104.403 35.9896 106.515 39.7661 102.884C39.7661 102.884 50.5666 104.284 50.3501 96.7617C50.3501 96.7617 55.3775 93.558 50.0855 87.3405C44.8657 81.1231 49.869 78.9161 49.869 78.9161Z" fill="#8F724C"/>
<path d="M50.3268 95.8123C48.6189 95.3139 43.6637 94.3884 38.949 98.66C38.1552 99.3956 37.8184 100.487 38.1071 101.531C39.382 106.135 42.7015 119.709 39.7909 125.594C39.7909 125.594 44.9626 131.219 50.5914 126.686C50.5914 126.686 53.1171 115.817 56.4366 111.047C58.7218 107.749 52.8044 98.6837 51.2889 96.5005C51.0725 96.1682 50.7357 95.9309 50.3268 95.8123Z" fill="#FFD247"/>
<path d="M45.6354 86.6758C45.6354 86.6758 43.1097 93.7001 42.9413 96.8088C42.9413 96.8088 45.7316 98.0665 48.3535 95.9545C48.3535 95.9545 48.6181 88.9302 49.0271 87.6725L45.6354 86.6758Z" fill="#FEBBBA"/>
<path d="M49.1222 77.1129C49.1222 77.1129 55.7131 86.2018 51.7682 88.8359C47.8232 91.47 43.1567 85.0153 43.1567 85.0153C43.1567 85.0153 41.6412 80.0318 43.2288 78.3469C44.8164 76.662 49.1222 77.1129 49.1222 77.1129Z" fill="#FEBBBA"/>
<path d="M46.0925 74.9295C46.0925 74.9295 49.1233 75.6414 49.5322 76.9941C49.9652 78.3467 45.2506 79.6045 43.9276 79.6519L42.8692 85.11C42.8692 85.11 39.718 79.9842 40.9689 77.0178C42.2197 74.0515 46.0925 74.9295 46.0925 74.9295Z" fill="#8F724C"/>
<path d="M44.4326 84.351C44.4326 84.351 41.8587 81.4322 40.8484 83.3306C39.8381 85.2291 43.1577 86.6767 44.3123 85.7274L44.4326 84.351Z" fill="#FEBBBA"/>
<path d="M57.1569 149.492C57.1329 149.99 58.0229 153.906 58.504 155.97C58.6964 156.801 58.5521 157.679 58.1191 158.438L41.5696 185.895C41.3772 186.227 41.2329 186.583 41.1367 186.963C40.824 188.244 40.1985 191.4 40.5353 194.272L41.4013 196.028L37.6969 195.197L36.9031 185.397L37.9615 184.756C38.8755 184.21 39.5731 183.403 39.982 182.43C41.4734 178.847 45.2019 169.734 46.14 165.273C47.2224 160.218 52.9233 156.113 52.9233 156.113L51.9131 153.787L57.1569 149.492Z" fill="#FEBBBA"/>
<path d="M33.5837 191.851C33.5837 191.851 35.5803 188.719 35.8208 187.508C36.0614 186.298 36.7108 184.139 37.9376 184.779C37.9376 184.779 38.5149 190.688 38.3225 192.99C38.13 195.292 40.9685 195.221 40.9685 195.221C40.9685 195.221 41.7623 195.34 42.3155 195.885C42.7004 196.265 42.4358 196.953 41.8585 197.001C40.9204 197.048 39.453 197.072 37.8895 196.787C37.3362 196.692 36.9514 196.218 36.9033 195.672L36.4943 188.861L33.9686 191.994L33.5837 191.851Z" fill="#424973"/>
<path d="M47.2944 153.858C47.2944 153.858 46.7171 178.419 46.6209 181.908C46.5487 185.396 47.1741 193.132 50.7342 195.434L49.1947 196.55C49.1947 196.55 47.2703 194.936 45.3941 191.827C43.2773 188.339 42.6278 187.698 42.6278 187.698L43.3254 186.274C43.6381 185.657 43.7343 184.945 43.59 184.281C42.8203 180.626 40.2705 168.452 39.5729 165.842C38.755 162.757 38.6829 158.628 41.5454 155.163C44.4078 151.722 47.2944 153.858 47.2944 153.858Z" fill="#FEBBBA"/>
<path d="M44.0243 197.689C43.904 197.689 43.8318 197.618 43.8078 197.499C43.6875 196.668 43.2064 193.394 42.7975 192.539C42.3405 191.566 40.825 187.461 42.7975 187.129C42.7975 187.129 47.6806 194.177 48.6187 195.126C49.5568 196.075 50.7355 195.458 50.7355 195.458C50.7355 195.458 51.6495 195.719 52.3471 196.597C52.6839 197.001 52.3712 197.618 51.842 197.618L48.5465 197.641C47.5843 197.641 46.7424 197.072 46.3816 196.194C45.8043 194.77 44.8181 192.682 43.6394 191.756L44.2408 197.452C44.2408 197.57 44.1445 197.689 44.0243 197.689Z" fill="#424973"/>
<path d="M51.3848 124.028C51.3848 124.028 50.6391 126.354 51.7938 130.198L58.8658 154.546C58.986 154.926 58.7696 155.329 58.3847 155.471C56.2679 156.231 49.3162 158.343 39.8387 157.678C39.3576 157.655 38.9487 157.323 38.8525 156.848C38.227 154.071 36.0862 144.603 35.6532 142.657C33.9694 135.253 32.1172 127.256 40.3198 122.415C44.0963 124.028 47.6323 124.977 51.3848 124.028Z" fill="#FFD247"/>
<path d="M21.388 191.994C21.388 191.994 19.1028 192.492 19.1028 192.991C19.1028 193.489 20.6182 196.479 22.3982 196.977C24.1783 197.476 23.9137 196.218 23.168 195.482C22.3982 194.747 22.1336 191.757 21.388 191.994Z" fill="#424973"/>
<path d="M31.5624 166.958C31.5624 166.958 34.1362 174.029 34.3767 176.924C34.6173 179.82 24.7309 185.064 24.7309 185.064L24.0333 182.715C24.0333 182.715 29.9026 177.992 29.6621 176.687C29.4215 175.382 26.8477 167.764 26.8477 167.764L31.5624 166.958Z" fill="#FEBBBA"/>
<path d="M18.1642 169.331C18.1642 169.331 23.7929 178.254 22.8548 182.454C21.9167 186.654 20.4975 192.16 20.4975 192.16C20.4975 192.16 20.0885 192.611 21.3634 192.896C21.5559 192.943 21.7483 192.848 21.8445 192.682C22.7345 191.353 26.6795 185.159 27.3049 181.671C28.0025 177.732 24.4905 167.765 24.4905 167.765L18.1642 169.331Z" fill="#FEBBBA"/>
<path fill-rule="evenodd" clip-rule="evenodd" d="M1.75965 142.895C2.72183 139.098 5.43998 136.274 8.54301 135.491C9.48113 135.254 10.323 134.708 10.9485 133.949C12.1512 132.549 13.9793 131.837 15.7834 132.288C15.7834 132.288 15.7834 132.288 15.8075 132.288C16.6253 132.501 17.5153 132.311 18.1407 131.694C19.9929 129.915 22.5668 127.518 27.0168 128.467C31.082 129.321 33.1026 134.756 31.9239 139.431C30.7453 144.082 24.6836 147.546 20.6665 146.574C20.1132 146.431 19.584 146.218 19.0789 145.957C18.4294 145.601 17.6115 145.957 17.4432 146.692C17.4432 146.716 17.4432 146.716 17.4432 146.74C16.1442 151.913 11.5739 155.235 7.24407 154.167C2.93832 153.099 0.460711 148.069 1.75965 142.895Z" fill="#212B53"/>
<path fill-rule="evenodd" clip-rule="evenodd" d="M28.148 156.659C28.148 156.659 32.4537 164.704 33.8248 170.043C33.897 170.328 33.6805 170.589 33.3678 170.66C32.7424 170.779 31.6599 171.064 30.2407 171.681C27.9315 172.677 25.8868 172.725 23.9865 172.535C22.4952 172.369 18.887 172.559 17.3956 172.63C17.0348 172.653 16.7461 172.416 16.7702 172.108C16.8664 170.067 17.2753 162.758 18.9351 157.632L28.148 156.659Z" fill="#043C5E"/>
<path d="M38.1054 129.416C32.188 134.803 30.7447 144.366 26.6074 144.533C26.6795 144.651 26.7277 144.794 26.7036 144.983C26.6795 145.173 26.6555 145.339 26.6314 145.529C26.7517 145.695 26.8479 145.909 26.7998 146.17C26.6314 147.499 26.4871 148.828 26.3187 150.157C41.1363 149.35 39.5487 129.274 39.5487 129.274L38.1054 129.416Z" fill="#FFD247"/>
<path d="M23.8886 143.678C25.3078 143.63 26.4865 143.701 27.6171 143.915C29.5655 144.271 31.0568 145.861 31.2012 147.807L32.4761 162.971C32.4761 162.971 28.0981 170.066 15.8785 166.53C14.9885 166.269 14.4833 165.368 14.7239 164.489L18.4042 147.522C18.9334 145.576 21.8921 143.749 23.8886 143.678Z" fill="#FFD247"/>
<path fill-rule="evenodd" clip-rule="evenodd" d="M24.0827 139.027L22.6154 143.82C22.4951 144.2 22.6875 144.604 23.0484 144.77C23.8903 145.149 25.4538 145.671 26.873 145.458C27.2338 145.41 27.5225 145.102 27.5466 144.746L28.0517 139.62L24.0827 139.027Z" fill="#FEBBBA"/>
<path fill-rule="evenodd" clip-rule="evenodd" d="M20.4013 137.793C21.5319 140.997 24.6108 143.607 28.3393 142.183C30.9131 141.187 31.2258 138.529 30.0953 135.325C28.9647 132.122 26.1022 130.081 23.5043 130.982C20.9065 131.884 19.2708 134.59 20.4013 137.793Z" fill="#FEBBBA"/>
<path fill-rule="evenodd" clip-rule="evenodd" d="M21.5331 138.386C21.5331 138.386 20.5709 136.654 19.9214 137.627C19.2719 138.6 21.5571 140.166 22.1825 140.023C22.8079 139.881 21.5331 138.386 21.5331 138.386Z" fill="#FEBBBA"/>
<path d="M37.5045 129.415C37.5045 129.415 38.8275 125.073 40.7759 124.195C42.7243 123.293 43.7346 123.554 43.7346 123.554C43.7346 123.554 44.2398 124.337 43.4219 125.001C42.6041 125.666 40.0783 129.89 38.8756 130.365C37.697 130.839 37.5045 129.415 37.5045 129.415Z" fill="#FEBBBA"/>
<path d="M7.55701 159.863C14.3885 155.686 17.1788 150.608 18.4537 146.716C19.5121 145.292 21.2199 144.153 22.7354 145.743C23.6975 146.763 23.9381 148.234 23.4089 149.516C18.4296 161.808 8.63946 161.666 8.63946 161.666L7.55701 159.863Z" fill="#FFD247"/>
<path d="M7.94099 159.958C7.94099 159.958 5.05446 159.578 4.1885 160.954C3.32253 162.354 3.85173 162.592 3.85173 162.592C4.1885 162.948 4.74175 163.802 5.295 163.161C5.84825 162.544 8.32586 161.951 8.80695 161.097C9.28804 160.242 7.94099 159.958 7.94099 159.958Z" fill="#FEBBBA"/>
<path fill-rule="evenodd" clip-rule="evenodd" d="M19.7526 137.199C19.7526 137.199 23.3848 139.952 23.7938 132.904C23.7938 132.904 25.7422 134.66 26.1511 132.738C26.1511 132.738 29.4947 133.284 29.6149 131.907C29.7352 130.531 24.4913 127.754 21.2199 130.934C17.9485 134.114 19.7526 137.199 19.7526 137.199Z" fill="#212B53"/>
<path d="M38.2996 99.6098C38.2996 99.6098 30.2895 106.492 28.3651 115.984C26.4407 125.453 40.1999 126.568 40.1999 126.568C40.1999 126.568 42.0521 124.408 44.2651 125.192C46.4781 125.975 44.4094 121.418 41.8115 121.418C39.2137 121.418 40.4404 123.554 36.7601 121.798C33.176 120.089 30.9389 114.869 40.0075 107.061C40.5366 106.61 40.9456 106.017 41.2102 105.376C42.9421 100.725 41.4988 97.6876 38.2996 99.6098Z" fill="#FEBBBA"/>
<path d="M147.651 113.135C147.651 113.135 153.184 125.736 156.6 124.051C160.015 122.366 162.565 108.507 162.565 108.507C162.565 108.507 151.909 105.992 147.651 113.135Z" fill="#FEBBBA"/>
<path d="M166.942 191.376C166.942 191.376 167.399 193.962 167.64 196.525C167.736 197.522 166.942 198.4 165.932 198.447C162.468 198.59 155.083 198.875 152.437 198.756C152.028 198.732 151.788 198.329 151.932 197.973C152.052 197.664 152.293 197.427 152.606 197.285L164.801 191.755L166.942 191.376Z" fill="#424973"/>
<path d="M167.327 189.856L166.966 192.941C166.966 192.941 164.825 193.914 163.358 192.823L164.248 189.382L167.327 189.856Z" fill="#FEBBBA"/>
<path d="M167.039 131.692C167.207 132.499 167.905 171.987 163.623 189.69C163.551 189.975 163.695 190.283 163.984 190.378C164.634 190.639 165.932 191.019 167.472 191.067C167.953 191.09 168.386 190.782 168.506 190.331C169.733 186.225 175.602 165.651 176.348 146.002C177.214 124.051 176.348 145.242 176.348 145.242L175.843 131.668L167.039 131.692Z" fill="#043C5E"/>
<path d="M180.99 192.728C180.99 192.728 181.735 194.033 182.433 197.498C182.553 198.115 182.12 198.732 181.471 198.78C180.34 198.898 178.584 199.041 177.165 199.017C176.516 199.017 176.01 198.447 176.083 197.83C176.227 196.573 176.732 194.484 178.223 192.871L180.99 192.728Z" fill="#424973"/>
<path d="M181.616 188.742L180.75 193.417C180.75 193.417 179.884 194.057 178.2 193.583L178.609 188.552L181.616 188.742Z" fill="#FEBBBA"/>
<path d="M183.972 132.927C187.484 153.762 183.202 184.422 181.783 190.426C181.687 190.782 181.398 191.067 181.013 191.138C180.364 191.233 179.305 191.328 178.271 191.02C177.91 190.925 177.67 190.592 177.645 190.236C177.453 185.395 177.79 155.59 174.542 143.819C174.374 143.226 174.013 142.704 173.508 142.348L167.182 137.91L166.701 130.743L183.972 132.927Z" fill="#043C5E"/>
<path d="M161.288 94.2216C174.061 92.9639 183.731 96.1438 183.731 96.1438C186.858 114.132 184.284 134.896 184.284 134.896C176.154 137.008 167.013 133.615 167.013 133.615C165.666 126.092 159.364 104.924 159.364 104.924C154.24 104.307 158.065 94.5301 161.288 94.2216Z" fill="#040A2C"/>
<path d="M179.716 106.158L183.733 96.1436C183.733 96.1436 193.523 102.717 195.135 111.046C193.282 111.189 189.915 111.663 186.619 113.301C185.898 109.362 179.716 106.158 179.716 106.158Z" fill="#040A2C"/>
<path d="M170.31 115.603C170.31 115.603 181.616 121.821 185.344 116.6C186.114 115.509 186.763 114.132 186.595 113.088C189.891 111.451 193.258 111.047 195.11 110.905C195.591 113.42 194.942 116.292 193.451 118.997C186.956 130.72 168.891 118.285 168.891 118.285L170.31 115.603Z" fill="#FEBBBA"/>
<path d="M171.608 123.363L165.594 102.67C165.522 102.433 165.33 102.267 165.089 102.243C164.007 102.124 160.856 101.768 157.199 101.46C152.822 101.104 147.722 100.795 144.691 101.056C144.258 101.104 143.994 101.555 144.186 101.934C145.918 105.375 153.038 119.424 156.598 124.028C156.718 124.17 156.887 124.265 157.103 124.265L171.031 124.146C171.44 124.123 171.728 123.743 171.608 123.363Z" fill="#040A2C"/>
<path d="M156.598 99.656L152.244 98.9441C152.004 98.8967 151.811 99.134 151.907 99.3475L152.34 100.629C152.388 100.748 152.485 100.819 152.605 100.843L156.79 101.388C157.007 101.412 157.175 101.222 157.127 101.009L156.863 99.8933C156.814 99.7747 156.718 99.6798 156.598 99.656Z" fill="white"/>
<path d="M159.845 103.311L159.484 101.46C159.46 101.27 159.292 101.128 159.099 101.128L150.319 100.25C150.031 100.226 149.79 100.487 149.862 100.772L150.416 103.074C150.464 103.263 150.632 103.382 150.824 103.406L159.412 103.833C159.701 103.809 159.917 103.572 159.845 103.311Z" fill="white"/>
<path d="M170.164 118.356C170.164 118.356 171.006 114.963 170.67 113.753C170.333 112.542 169.683 111 167.494 111.356C165.305 111.688 162.756 112.614 162.756 112.614C162.756 112.614 162.876 114.18 164.536 113.681L163.501 114.465C163.501 114.465 163.646 115.722 165.041 115.058L164.079 116.102C164.079 116.102 164.68 117.122 165.714 116.482C166.749 115.793 167.254 118.76 170.164 118.356Z" fill="#FEBBBA"/>
<path d="M147.842 113.302C147.842 113.302 145.316 110.858 144.956 109.671C144.595 108.485 144.306 106.824 146.351 105.969C148.371 105.115 151.041 104.545 151.041 104.545C151.041 104.545 151.787 105.946 150.103 106.373L151.402 106.491C151.402 106.491 151.956 107.63 150.416 107.797L151.787 108.176C151.787 108.176 151.835 109.363 150.608 109.339C149.358 109.339 150.536 112.139 147.842 113.302Z" fill="#FEBBBA"/>
<path d="M171.032 85.8211L174.375 95.3371C174.423 95.5033 174.375 95.6694 174.207 95.7406C173.293 96.2389 170.021 97.6628 166.076 95.1948C165.667 94.9337 165.379 94.5066 165.331 94.0319L164.248 85.7974H171.032V85.8211Z" fill="#FEBBBA"/>
<path d="M163.767 76.9932C163.767 76.9932 160.111 83.8039 160.568 86.5567C161.049 89.3094 165.572 89.1196 169.541 86.8652L172.307 79.5086L163.767 76.9932Z" fill="#FEBBBA"/>
<path d="M169.372 83.2579C169.204 83.1867 169.156 82.9969 169.252 82.8545C169.54 82.4036 170.094 81.5018 170.262 80.7187C170.262 80.7187 170.911 80.2915 168.578 79.7457C166.245 79.1999 162.757 78.3456 162.035 76.376C161.314 74.4538 163.19 69.6602 166.197 73.4808C166.317 73.6232 166.534 73.6232 166.654 73.4808C167.135 72.8401 168.434 71.5349 170.214 72.3417C171.898 73.0774 172.066 74.2877 172.066 74.9047C172.066 75.0945 172.21 75.2132 172.403 75.1894C173.245 75.0233 175.289 74.9047 176.228 76.9455C176.997 78.6304 176.492 79.6034 176.035 80.078C175.891 80.2204 175.939 80.4814 176.155 80.5526C176.709 80.7187 177.43 81.1933 177.358 82.4748C177.262 84.2546 175.241 84.0885 174.664 84.0173C174.568 83.9935 174.472 84.041 174.423 84.1122C173.942 84.658 171.705 86.9362 169.324 87.1972C169.107 87.2209 168.963 87.0074 169.011 86.8175L170.046 83.8274C170.094 83.685 170.021 83.5427 169.901 83.4715L169.372 83.2579Z" fill="#18171C"/>
<path d="M168.939 83.6852C168.939 83.6852 171.537 81.9291 171.73 83.4004C171.922 84.8955 169.372 85.5599 168.122 84.9904L168.939 83.6852Z" fill="#FEBBBA"/>
<defs>
<linearGradient id="paint0_linear_248_2127" x1="37.5258" y1="47.4209" x2="134.38" y2="108.428" gradientUnits="userSpaceOnUse">
<stop stop-color="#50E7B7"/>
<stop offset="0.9964" stop-color="#323992"/>
</linearGradient>
<linearGradient id="paint1_linear_248_2127" x1="40.2503" y1="41.4475" x2="119.967" y2="123.103" gradientUnits="userSpaceOnUse">
<stop stop-color="#50E7B7"/>
<stop offset="0.9964" stop-color="#323992"/>
</linearGradient>
<linearGradient id="paint2_linear_248_2127" x1="81.0887" y1="40.2851" x2="69.6821" y2="19.901" gradientUnits="userSpaceOnUse">
<stop stop-color="#50E7B7"/>
<stop offset="0.9964" stop-color="#323992"/>
</linearGradient>
</defs>
</svg>
