<svg width="609" height="381" viewBox="0 0 609 381" fill="none" xmlns="http://www.w3.org/2000/svg">
<rect width="609" height="381" rx="40" fill="#0049CC"/>
<mask id="mask0_311_15" style="mask-type:alpha" maskUnits="userSpaceOnUse" x="0" y="0" width="609" height="381">
<rect width="609" height="381" rx="20" fill="#0049CC"/>
</mask>
<g mask="url(#mask0_311_15)">
<path d="M469.751 139.833C470.65 135.507 474.886 132.729 479.211 133.628L536.976 145.638C541.302 146.537 544.08 150.773 543.18 155.099L476.429 476.172L402.999 460.906L469.751 139.833Z" fill="#F5F7F9"/>
<path d="M436.776 99.9409C437.312 95.5553 441.301 92.4344 445.687 92.9703L504.251 100.126C508.637 100.662 511.758 104.652 511.222 109.038L471.447 434.555L397 425.458L436.776 99.9409Z" fill="#FFD576"/>
<path d="M150 67C150 62.5817 153.582 59 158 59H452C456.418 59 460 62.5817 460 67V381H150V67Z" fill="white"/>
<rect x="182" y="154" width="78" height="9" rx="4.5" fill="#F2F4F7"/>
<rect x="182" y="193" width="202" height="9" rx="4.5" fill="#F2F4F7"/>
<rect x="182" y="210" width="237" height="9" rx="4.5" fill="#F2F4F7"/>
<rect x="182" y="227" width="237" height="9" rx="4.5" fill="#F2F4F7"/>
<rect x="182" y="266" width="237" height="9" rx="4.5" fill="#F2F4F7"/>
<rect x="182" y="283" width="210" height="9" rx="4.5" fill="#F2F4F7"/>
<rect x="182" y="300" width="229" height="9" rx="4.5" fill="#F2F4F7"/>
<rect x="182" y="317" width="237" height="9" rx="4.5" fill="#F2F4F7"/>
<path d="M401.769 119.83V125.212L438.784 119.092V80.4337L406.231 85.8162V80.4337L369.216 86.554V125.212L401.769 119.83ZM400.553 126.646V121.263L368 126.646V85.5227L407.447 79.0004V84.3827L440 79.0004V120.123L400.553 126.646Z" fill="#FFCD00"/>
<path d="M387.378 98.7015C386.256 98.7015 385.696 99.4775 385.696 101.029V101.175C385.696 102.696 386.263 103.457 387.396 103.457C388.493 103.457 389.054 102.729 389.078 101.275V100.984C389.078 99.4622 388.511 98.7015 387.378 98.7015ZM387.951 96.3374C389.236 96.3374 390.256 96.7588 391.01 97.6013C391.765 98.444 392.142 99.5925 392.142 101.047V101.175C392.142 102.096 391.951 102.91 391.57 103.616C391.188 104.322 390.638 104.866 389.919 105.248C389.201 105.63 388.36 105.821 387.396 105.821C385.941 105.821 384.782 105.354 383.918 104.421C383.054 103.487 382.623 102.202 382.623 100.565V100.274C382.635 98.0317 383.004 96.2678 383.732 94.9826C384.459 93.6976 385.572 92.8884 387.069 92.5549C387.742 92.4035 388.183 92.2565 388.392 92.1139C388.601 91.9716 388.705 91.7488 388.705 91.4457H391.17C391.17 92.2034 391.053 92.7793 390.819 93.1733C390.586 93.5673 390.216 93.8931 389.71 94.1506C389.204 94.4084 388.493 94.6221 387.578 94.7916C386.857 94.9251 386.3 95.2086 385.909 95.6419C385.519 96.0753 385.253 96.68 385.114 97.4558C385.932 96.7102 386.878 96.3374 387.951 96.3374" fill="#0049CC"/>
<path d="M396.77 105.631H393.697V95.7927H396.77V105.631Z" fill="#0049CC"/>
<path d="M396.77 94.6235H393.697V92.512H396.77V94.6235Z" fill="#0049CC"/>
<path d="M407.443 95.7918V105.63H404.379V98.1558H402.542L402.379 101.165C402.263 102.657 401.927 103.772 401.369 104.511C400.811 105.251 399.984 105.624 398.887 105.63H397.923L397.887 103.266L398.205 103.23C398.611 103.181 398.913 102.911 399.11 102.418C399.307 101.925 399.432 101.18 399.487 100.182L399.678 95.7918H407.443Z" fill="#0049CC"/>
<path d="M412.738 103.63C413.12 103.63 413.437 103.548 413.689 103.384C413.94 103.221 414.12 103.036 414.23 102.83V101.257H413.339C412.272 101.257 411.738 101.736 411.738 102.693C411.738 102.972 411.832 103.198 412.02 103.371C412.208 103.543 412.447 103.63 412.738 103.63ZM414.657 105.63C414.548 105.43 414.451 105.136 414.366 104.748C413.802 105.457 413.014 105.812 412.002 105.812C411.075 105.812 410.286 105.532 409.638 104.971C408.989 104.41 408.665 103.706 408.665 102.857C408.665 101.79 409.059 100.984 409.847 100.438C410.635 99.8928 411.781 99.62 413.284 99.62H414.23V99.0992C414.23 98.1916 413.839 97.7379 413.057 97.7379C412.329 97.7379 411.966 98.0973 411.966 98.8161H408.902C408.902 97.8656 409.306 97.0936 410.115 96.5003C410.925 95.907 411.957 95.6102 413.211 95.6102C414.466 95.6102 415.457 95.9164 416.185 96.5286C416.912 97.1409 417.285 97.9803 417.303 99.0472V103.402C417.315 104.306 417.454 104.997 417.721 105.476V105.63H414.657Z" fill="#0049CC"/>
<path d="M406.657 106.909H407.265V111.884H410.222V106.909H410.831V111.884H411.389L411.343 114.024H410.785V112.396H406.657V106.909Z" fill="#0049CC"/>
<path d="M413.207 112.396H412.598V106.908H413.207V112.396Z" fill="#0049CC"/>
<path d="M419.07 112.397H418.461V109.881H415.505V112.397H414.896V106.909H415.505V109.369H418.461V106.909H419.07V112.397Z" fill="#0049CC"/>
<path d="M422.255 111.96C422.66 111.96 423.023 111.862 423.342 111.666C423.662 111.47 423.895 111.208 424.04 110.88V109.673H422.955C422.349 109.68 421.876 109.791 421.534 110.005C421.193 110.22 421.022 110.515 421.022 110.89C421.022 111.198 421.136 111.453 421.365 111.656C421.593 111.859 421.889 111.96 422.255 111.96ZM424.162 112.397C424.101 112.224 424.062 111.969 424.045 111.631C423.832 111.908 423.561 112.122 423.231 112.272C422.901 112.423 422.552 112.498 422.184 112.498C421.656 112.498 421.229 112.351 420.903 112.057C420.577 111.763 420.414 111.391 420.414 110.941C420.414 110.407 420.636 109.984 421.081 109.673C421.525 109.362 422.145 109.206 422.939 109.206H424.04V108.583C424.04 108.19 423.919 107.882 423.677 107.657C423.435 107.432 423.083 107.32 422.62 107.32C422.197 107.32 421.847 107.428 421.57 107.644C421.293 107.861 421.154 108.121 421.154 108.425L420.546 108.42C420.546 107.984 420.748 107.606 421.154 107.287C421.56 106.967 422.059 106.808 422.65 106.808C423.262 106.808 423.745 106.961 424.098 107.267C424.452 107.573 424.633 107.999 424.643 108.547V111.144C424.643 111.675 424.699 112.072 424.811 112.336V112.397H424.162Z" fill="#0049CC"/>
</g>
</svg>
