<svg width="140" height="140" viewBox="0 0 140 140" fill="none" xmlns="http://www.w3.org/2000/svg">
<path fill-rule="evenodd" clip-rule="evenodd" d="M28.6 58.4H5V58.5L5.1 58.8L5.4 59.2V59.6L5.6 60L5.7 60.2L5.8 60.5L6 61L6.4 61.5V61.7H27.4V61.8H27.6L28.3 62.6L28.8 63L28.9 63.3L29.5 63.7L29.8 64.3L30.1 64.5L30.8 65.5L31.1 66L31.2 66.3L31.8 67.1L32.2 68L32.5 68.3L32.7 68.9L32.9 69.3L33.2 70.3H11.5L10.8 69.7L10.5 69.4L8.8 68L8.6 67.6L8.3 67.3L7.9 66.9L7.6 66.5L7.4 66.2L7.1 65.7L6.8 65.4L6.2 64.6L5.8 64L4.1 60.6L3.9 60.3L3.7 59.3L3.5 58.9L3.3 58.5L3.6 58V57.8L3.8 57.4L4 56.7H28.4L29.2 56.3L29.9 55.6L30.9 54.8L32.3 53.4H5.7L5.9 52.9L6.1 52.7L6.5 52.2L6.8 51.6H33.7L33.9 51.5L34.1 51L34.3 50.7L35.3 49.1L35.8 48.2H9.8L10.9 47.2L11.5 46.7L11.7 46.4H36.6V46.2L36.9 45.9L37 45.6L37.1 45.3L37.4 44.7L37.6 44.2V43.4L37.8 43.2V43H10.8L10.4 43.4L9.4 44.1L8.9 44.4L8 45.2L7.1 46.2L6.8 46.6L6.4 46.9L5.9 47.5L5.1 48.2L4.8 48.8L4.1 49.7L3.8 50.2L3.5 50.7L3.1 51.3L2.8 51.7L2.5 52.3L1.5 54.3L1.2 54.9L0.9 55.5L0.8 56L0.3 57.3V57.8L0 58.4L0.2 58.9L0.3 59.6L0.8 60.7V61.3L1.2 61.8L1.5 62.3L1.7 63L2.5 64.5L2.8 65L3.1 65.5L3.8 66.5L4.1 67L4.5 67.5L5.1 68.5L5.6 68.9L5.9 69.3L6.8 70.3L7.1 70.7L7.6 71L8 71.4L9 72.2L9.5 72.6L9.9 73L10.9 73.7H37.7V73.2L37.6 73V72.3L37.4 71.7L37 70.3L36.8 69.9L36.2 68.2L35.9 67.6L35.6 67L35.4 66.4L34.9 65.7L34.6 65.2L33.2 63.2L32.7 62.5L31.4 61.2L30.8 60.5L30.1 59.7L29.3 59.1L28.6 58.4ZM63.3 58.4L58.3 73.4L58.1 74L58 74.6L57.8 75L57.7 75.6L57.4 76V76.6L57.1 77.5L57 76.9L56.8 76.3V76L56.5 75.1V74.8L56.3 74.5V74L56.1 73.8L56 73.4L55.9 73L55.7 72.3L55.1 70.4L54.6 69.2L54.2 67.6L53.6 65.9L53 63.7L52.3 61.4L51.4 58.6V58.5H43.8L54.1 89.3H60.1L70.7 58.5L63.3 58.4ZM109.5 76L109.7 76.1H109.9L110.1 76.2L110.4 76.4L110.9 76.8L111.1 76.9L111.4 77.2L111.7 77.9L111.9 78V78.3L112.2 78.8V79L112.3 79.3V80.5L112.2 80.6V80.8L112.1 80.9V81L111.9 81.5V81.6L111.4 82L111.3 82.3H111.1L111 82.6L110.9 82.7L110.6 82.8V82.9H110.2L110.1 83L109.9 83.2L109.6 83L109.3 83.2H105V76H109.4H109.5ZM108 64.5H108.4L108.6 64.6H109.1V64.7H109.5L109.6 64.9H109.9V65.1H110.3L110.5 65.4L110.7 65.5L111.2 66L111.3 66.2L111.4 66.3L111.7 67V67.2L111.9 67.4V67.5L111.7 67.8V68.2L111.5 68.3V68.5L111.2 68.8L111 69.2L110.6 69.5L110.4 69.9H110.3L110.1 70.1L110 70.2L109.7 70.3H109.3L109.2 70.4H104.9V64.6H107.9L108 64.5ZM98 89H112.1L114.3 88.4L114.8 88.2L115.2 88L116 87.7L116.3 87.5L117.7 86.4L118.2 85.7L118.7 85L118.9 84.6L119.1 84.3L119.3 83.8L120 81.1V79.1L119.9 78.8V78.6L119.7 78.1V77.9L119.6 77.7L119.2 76.7V76.4H119L118.8 75.9L118.7 75.8L118.6 75.6L118.4 75.4V75.2H118.2L118.1 74.9L118 74.8L117.8 74.7L117.7 74.4H117.5L117.3 74.2L117.1 74L116.5 73.5H116.3L116.1 73.2L115.8 73L115.5 72.9L115.2 72.8L115 72.7L115.7 72.3L116.2 71.9L116.4 71.7L116.7 71.5L117.9 70.3V70L118.2 69.8L118.3 69.5H118.4L118.6 69.2V69.1L118.8 68.9V68.7L119 68.4H119.1V68L119.2 67.8V67.5L119.3 67.3L119.4 67V65L119.2 64.7V64.1L119 64L118.8 63.4L118.7 63.3L118.6 63.1L118.4 63L118.2 62.5L118 62.3L117.9 62.1L117.8 62L117.7 61.7L116.7 60.8H116.5L116.3 60.5V60.3L115.2 59.6L113.4 58.7H113.2L112.3 58.3H112.1L111.9 58.2H111.6L111.4 58.1H110.3L109.7 57.9H98V88.9V89ZM71.5 58.4V64.3H78L78.6 64.4H80.1V89.1H87V64.4H94.6L96.5 58.4" fill="#3F4349"/>
</svg>
