<svg width="140" height="140" viewBox="0 0 140 140" fill="none" xmlns="http://www.w3.org/2000/svg">
<path d="M112.4 81.3C113 80 113.4 78.3 113.4 76.7C113.4 74.1 112.2 71.7 110.2 70.1L108.6 69H108.4L108.6 68.8C109.9 67.8 111.1 65.8 111.1 62.4C111.1 59.3 110.1 56.9 108.1 55.4C105.819 54.0166 103.16 53.3868 100.5 53.6H91C90.4 53.6 90 53.9 90 54.5V85.7C90 86.2 90.4 86.7 91 86.7H101.8C105.3 86.7 108 85.9 109.8 84.4C110.898 83.5854 111.789 82.5233 112.4 81.3ZM92.8 56.5H100.1C102.7 56.5 104.7 56.9 106 57.8C106.7 58.3 107.8 59.4 107.8 62.2C107.8 67.2 104 67.5 102.7 67.5H92.7V56.5H92.8ZM101.6 83.5H92.8V70.6H102.7C107.1 70.6 110 73 110 76.6C110.2 78.3 110.2 83.5 101.6 83.5ZM81.2 86.8H81.6C82 86.6 82.3 86.2 82.3 85.8V40H79.3V79.6L58.7 53.6L57.9 53.2H57.6C57.2 53.4 56.8 53.8 56.8 54.2V100H60V60.4L80.4 86.4C80.8 86.6 81.1 86.8 81.4 86.8H81.2ZM47.1 81.7C50.2 77.8 50.8 72.8 50.8 70.3C50.8 68.1 50.4 62.6 47.1 58.3C45.7255 56.6825 44.0059 55.3937 42.0677 54.5284C40.1294 53.6631 38.0219 53.2433 35.9 53.3H26.9C26.4 53.3 26 53.9 26 54.5V85.7C26 86.2 26.4 86.7 27 86.7H36C38 86.7 40 86.2 41.8 85.5C44 84.8 45.6 83.3 47.1 81.7ZM36.1 83.5H29.1V56.5H36.1C38.7 56.5 42.1 57.2 44.7 60.4C47.5 63.7 47.7 68.8 47.7 70.3C47.7 72.5 47.3 76.7 44.7 79.8C42.1 82.9 38.7 83.5 36.1 83.5Z" fill="#3F4349"/>
</svg>
