<svg width="141" height="140" viewBox="0 0 141 140" fill="none" xmlns="http://www.w3.org/2000/svg">
<path d="M95.9 76.6C96.3 76.3 96.5 75.8 96.5 75.4V70.4C95.5 70.2 94.6 70.2 93.7 70.2L90.7 70.3V75.3C90.7 75.8 90.8 76.3 91.3 76.6H87.3C87.8 76.3 88 75.8 88 75.4V64.2C88 63.7 87.7 63.2 87.4 62.9H91.3C91 63.3 90.7 63.7 90.7 64.2V68.9L93.7 69.1L96.5 68.9V64.2C96.5 63.7 96.2 63.2 95.9 62.9H99.8C99.3 63.3 99.2 63.7 99.2 64.2V75.4C99.2 75.8 99.3 76.4 99.8 76.6H95.8H95.9ZM82.9 73.5C82.9 71 76.7 70.3 76.7 66.2C76.7 63.7 79 62.8 81.2 62.8C82.3 62.8 83.4 62.9 84.5 63.3L84.7 65.9C84.1 64.7 83 64 81.6 63.9C80.6 63.9 79.6 64.4 79.6 65.5C79.6 68.1 85.8 68.9 85.8 72.7C85.8 75.5 83.3 76.7 80.8 76.7C79.4 76.7 77.8 76.3 76.5 75.7L76.4 74.3C76.4 73.6 76.5 73 76.7 72.5C76.9457 73.3615 77.4735 74.1156 78.1987 74.6414C78.924 75.1672 79.8048 75.4344 80.7 75.4C81.7 75.5 82.8 74.7 83 73.6L82.8 73.5H82.9ZM70.4 76.6C70.9 76.5 71.2 75.8 71.2 75.4V64.2C71.2 63.7 70.9 63.2 70.4 62.9H74.6C74.2 63.3 73.8 63.7 73.8 64.2V75.4C73.8 75.8 74.2 76.4 74.6 76.6H70.4ZM61.1 76.6C61.6 76.3 61.7 75.8 61.7 75.4V64.5H58.7L56.5 64.8L57.5 62.8H67.4C68.2 62.8 69 62.8 69.8 62.6C69.4 63.6 68.5 64.2 67.6 64.4H64.3V75.2C64.3 75.7 64.6 76.2 65 76.5H61.1V76.6ZM52 76.6C52.5 76.5 52.8 75.8 52.8 75.4V64.2C52.8 63.7 52.5 63.2 52 62.9H56.2C55.8 63.3 55.4 63.7 55.4 64.2V75.4C55.4 75.8 55.8 76.4 56.2 76.6H52ZM49.2 76.8C48.5 76.8 48.1 76.8 47.6 76.5C46.6 76.2 45.4 74.3 44.9 73.3C43.9 72.1 43.3 70.2 41.6 70.2V75.4C41.6 75.8 41.8 76.4 42.2 76.6H38.2C38.6 76.3 38.8 75.8 38.8 75.4V64.2C38.8 63.7 38.6 63.2 38.1 62.9H43.1C45.4 62.9 47.9 63.9 47.9 66.4C47.9 68.6 46.2 69.7 44.1 69.7C47 69.7 48.7 76.3 51.7 76.3C50.9078 76.6301 50.0582 76.8 49.2 76.8ZM42.2 64.2H41.6V68.9H42.2C43.5 69.1 44.7 68.1 44.9 66.7V66.4C44.9 64.8 43.9 64.2 42.2 64.2ZM30.6 70.2H29.3V75.2C30 75.4 30.6 75.4 31.3 75.4C32.6 75.4 34.1 74.9 34.1 72.7C34.1 70.5 32.3 70.2 30.6 70.2ZM30.1 64.2H29.3V68.9H30C31.5 68.9 33.1 68.4 33.1 66.6C33 64.6 31.9 64.2 30.1 64.2ZM26 76.6C26.4 76.3 26.6 75.8 26.6 75.4V64.2C26.6 63.7 26.4 63.2 26 62.9H31C33.3 62.9 35.7 63.9 35.7 66.7C35.6246 67.4105 35.3206 68.0774 34.8337 68.6003C34.3468 69.1233 33.7033 69.4741 33 69.6C35 69.6 36.8 70.6 36.8 72.9C36.8 76 33.6 76.8 31.4 76.8L25.8 76.6H26ZM98.6 91.1C98.6 88.6 92.6 88 92.6 83.9C92.6 81.3 95 80.4 97.2 80.4C98.3 80.4 99.4 80.6 100.5 80.9L100.7 83.5C100.1 82.3 99 81.7 97.5 81.5C96.5 81.5 95.5 82 95.5 83.1C95.5 85.8 101.6 86.5 101.6 90.3C101.6 93.1 99.3 94.3 96.7 94.3C95.3 94.3 93.7 93.9 92.5 93.3L92.3 91.9L92.5 90.3C92.8463 91.0883 93.4025 91.7664 94.1079 92.2602C94.8133 92.754 95.6408 93.0445 96.5 93.1C97.7 93.3 98.6 92.7 98.6 91.1ZM91.1 82.1L87.9 87.8V93C87.9 93.5 88.1 94 88.4 94.2H84.4C84.8 93.9 85.1 93.5 85 93V87.8L82.4 83.2C82 83 81 81 79.5 81L81.9 80.7C83.3 80.7 83.9 80.8 84.7 82.1L87.4 86.1C87.7 85.9 89.6 82.2 89.6 82.2C89.7 81.9 89.9 81.6 89.9 81.2C89.9 81.2 89.9 81 89.6 81H92.4C91.9 81.1 91.4 81.6 91 82.2L91.1 82.1ZM78.7 94.2C79 94.1 79 93.9 79 93.8L78.9 93.3C78.9 93.3 77.9 90.3 77.6 89.8H72.7L71.3 93.3L71 93.9C71 94.1 71.3 94.2 71.3 94.2H68.5C68.8 94.1 69.1 93.6 69.5 93.3L74 81.7L74.2 81.5C74.1988 81.3334 74.1515 81.1705 74.0632 81.0292C73.9749 80.888 73.8492 80.774 73.7 80.7H77L81.6 93.3C81.8 93.8 82.2 94.1 82.6 94.3H78.6L78.7 94.2ZM75.3 83.2L73.3 88.4C73.8 88.6 74.5 88.6 75.1 88.6C75.7 88.6 76.5 88.6 77.1 88.4L75.3 83.2ZM70.3 82L66.3 94.2C66 94.2 65.7 94.2 65.3 93.9C64.8122 93.0766 64.4101 92.2054 64.1 91.3L62.2 86.5L59.4 94.1H58L53.3 81.8C53.1098 81.2997 52.7578 80.8773 52.3 80.6H56.4L56.1 81C56.1 81.2 56.1 81.3 56.3 81.5L59.3 89.7L62.4 80.6L65.9 89.4L68.7 81.4L68.9 81C68.9 80.9204 68.8684 80.8441 68.8121 80.7879C68.7559 80.7316 68.6796 80.7 68.6 80.7H71.2C70.7243 81.0025 70.3703 81.4627 70.2 82H70.3ZM53.5 94.4C53 94.4 52.4 94.4 51.9 94.2C50.9 93.9 49.7 91.9 49.1 90.9C48.3 89.7 47.4 87.8 45.6 87.8V93C45.6 93.5 45.8 94 46.3 94.2H42C42.4 93.9 42.6 93.5 42.6 93V81.8C42.6 81.5 42.4 80.8 42 80.8H47C49.2 80.8 51.7 81.5 51.7 84.2C51.7 86.1 50.2 87.5 48.3 87.5C51.1 87.6 53 94.1 55.8 94.1C55 94.4 54.2 94.4 53.3 94.4H53.5ZM46.3 81.8H45.6V86.5H46.3C47.5 86.7 48.8 85.8 48.9 84.5V84C48.9 82.4 47.9 81.8 46.3 81.8ZM35.6 94.2C36.1 94.1 36.4 93.5 36.4 93V81.8C36.4 81.3 36.1 80.8 35.6 80.8H40C39.5 80.8 39.2 81.3 39.2 81.8V93C39.2 93.5 39.5 94 40 94.2H35.7H35.6ZM27.4 83.2L25.4 88.4C26 88.6 26.7 88.6 27.3 88.6C28.1 88.6 28.7 88.6 29.5 88.4L27.5 83.2H27.4ZM31.2 94.2C31.4 94.1 31.5 93.9 31.5 93.8L31.4 93.3L30.1 89.8H25L23.6 93.3L23.3 93.9C23.3 94.1 23.6 94.2 23.6 94.2H21C21.5 93.9 21.8 93.6 22 93.3L26.3 81.7C26.3 81.7 26.5 81.7 26.5 81.5C26.4988 81.3334 26.4515 81.1705 26.3632 81.0292C26.2749 80.888 26.1492 80.774 26 80.7H29.5L34 93.3C34.1 93.8 34.6 94.1 34.9 94.3H31.1L31.2 94.2ZM134.4 54.8C131.415 57.0186 128.111 58.7719 124.6 60C122.379 60.8027 120.146 61.5695 117.9 62.3L111.4 64.3C116.4 65.9 121.4 67 126.5 67.8C129.2 66.8 131.7 65.8 134.1 64.4C135.723 63.6394 137.237 62.664 138.6 61.5C139.4 61.1 139.9 60.1 140.1 59.3L140.2 58.9V58.4L140.1 58.1C140.1 58 140.1 57.8 139.9 57.6C139.7 57.1 139.6 56.8 139.1 56.5C138.282 55.7866 137.33 55.2427 136.3 54.9L134.6 54.5L134.4 54.8Z" fill="#3F4349"/>
<path d="M141 57.3C141 57.1 141 57 140.8 57C140.8 56.7 140.7 56.7 140.5 56.3L139.9 55.6L139.1 54.9C137.827 54.2774 136.484 53.8075 135.1 53.5L130.1 53.2C129.4 53.2 124.3 53.2 123.1 53.4L108.3 53.5C95.9238 54.0562 83.5233 53.3189 71.3001 51.3C67.3001 50.5 63.1001 49.6 59.1001 48.3L114.3 46.1C119.439 45.9589 124.581 46.1259 129.7 46.6C130.9 46.7 132.2 47.1 133.3 47.6C134.7 48 136.1 48.8 137.1 50L137.5 50.5L138.3 51.6C139 52.6 139.4 53.6 139.9 54.5L140.4 55.5L140.7 56.2C140.8 56.5 140.8 57 141 57.2V57.3Z" fill="#3F4349"/>
</svg>
