<svg width="140" height="140" viewBox="0 0 140 140" fill="none" xmlns="http://www.w3.org/2000/svg">
<path fill-rule="evenodd" clip-rule="evenodd" d="M28.7 60.8V56H33.5V60.8H28.7ZM28.7 82.9V62.7H33.5V82.9H28.7ZM40.4 82.9H35.5V62.7H40.2V66.4C41.7 64.2 43.8 62.2 46.8 62.2L47.9 62.3V67H46.5C44.3 67 40.5 69 40.5 73V83L40.4 82.9ZM49.2 82.9V56H58C60.2 56 68 56 68 62.6C68 67.1 64.4 68.3 62.6 68.9C64.7 69.5 68.6 70.5 68.6 75.5C68.6 79.6 65.5 82.8 58.6 82.8H49.3V82.9H49.2ZM58 67C62.6 67 63 64.3 63 63.4C63 60 59.5 60 58.4 60H54.4V67H58ZM54.4 79H57.6C61 79 63.4 78 63.4 75C63.4 73.1 62.4 71 57.9 71H54.4V79ZM82.2 83L81.7 80.9C80.0733 82.5013 77.8825 83.3991 75.6 83.4C71.9 83.4 69.4 81.1 69.4 77.8C69.4 75.8 70.1 73.3 74.5 71.8L80.4 69.8C81.2 69.5 81.3 69.5 81.3 68.8V68C81.3 66.3 79.7 65.8 77.9 65.8C75.2604 65.9919 72.7292 66.9281 70.6 68.5V64.3C71.9 63.5 74.4 62.3 78.6 62.3C84.8 62.3 86.1 65.3 86.1 69.3V82.9H82V83H82.2ZM77 74.3C75 75 74.3 76 74.3 77.3C74.3 79.3 76.1 79.8 76.9 79.8C77.7 79.8 79.4 79.5 81.4 77.6V72.6L80.1 73.3L77.1 74.3H77ZM23 82.9L22.4 80.8C20.7733 82.4013 18.5825 83.2991 16.3 83.3C12.7 83.3 10.1 81 10.1 77.7C10.1 75.7 10.9 73.2 15.3 71.7L21.1 69.7C21.9 69.4 22.1 69.4 22.1 68.7V68C22.1 66.3 20.5 65.8 18.6 65.8C15.9604 65.9919 13.4292 66.9281 11.3 68.5V64.3C12.7 63.5 15.1 62.3 19.3 62.3C25.6 62.3 26.8 65.3 26.8 69.3V82.9H22.9V83L23 82.9ZM17.8 74.3C15.8 75 15.1 76 15.1 77.3C15.1 79.3 16.8 79.8 17.7 79.8C18.5 79.8 20.2 79.5 22.1 77.6V72.6C21.8 72.9 21.7 72.9 20.9 73.3L17.8 74.3ZM88 82.9H92.8V56H88V83V82.9ZM96.8 66.3H93.8V62.7H96.8V56H101.6V62.7H105.2V66.3H101.6V76.5C101.6 78 101.8 79.4 104 79.4L105.4 79.2V82.8L103.2 83C97.8 83 96.7 80.3 96.7 76.7V66.3H96.8ZM107.2 60.8V56H112V60.8H107.2ZM107.2 82.9V62.7H112V82.9H107.2ZM129.5 68.1C128.5 67.3 127 66.1 124.3 66.1C120.2 66.1 118.5 69.5 118.5 72.9C118.5 74.3 118.9 79.7 124.2 79.7C127 79.7 128.8 78.4 130 77.5V81.8C129 82.3 126.8 83.4 123.4 83.4C116.5 83.4 113.7 78.2 113.7 72.9C113.7 67.2 116.8 62.3 123.7 62.3C127 62.3 128.7 63.3 129.7 63.8V68.1H129.5Z" fill="#3F4349"/>
</svg>
