<svg width="80" height="86" viewBox="0 0 80 86" fill="none" xmlns="http://www.w3.org/2000/svg">
<path d="M33.933 14.9991C33.692 15.0002 33.456 14.9297 33.2551 14.7966C33.0542 14.6634 32.8975 14.4735 32.8047 14.2511C32.7119 14.0286 32.6873 13.7836 32.734 13.5471C32.7807 13.3107 32.8966 13.0934 33.067 12.923L38.2737 7.71636L33.067 2.50852C32.8455 2.27914 32.7229 1.97192 32.7257 1.65304C32.7285 1.33415 32.8564 1.02911 33.0819 0.803609C33.3074 0.578113 33.6124 0.450205 33.9313 0.447434C34.2502 0.444663 34.5574 0.56725 34.7868 0.788794L40.8533 6.8565C41.0813 7.08457 41.2094 7.39386 41.2094 7.71636C41.2094 8.03886 41.0813 8.34815 40.8533 8.57623L34.7868 14.6427C34.5602 14.8693 34.2534 14.9974 33.933 14.9991Z" fill="black"/>
<path d="M39.9997 85.5676C34.7896 85.5965 29.6252 84.5952 24.8034 82.6214C19.9815 80.6476 15.5974 77.7402 11.9031 74.0663C8.20871 70.3923 5.277 66.0244 3.27648 61.2136C1.27596 56.4028 0.246094 51.244 0.246094 46.0338C0.246094 40.8237 1.27596 35.6649 3.27648 30.8541C5.277 26.0433 8.20871 21.6753 11.9031 18.0014C15.5974 14.3275 19.9815 11.4201 24.8034 9.44626C29.6252 7.47246 34.7896 6.47122 39.9997 6.50012C40.3223 6.50012 40.6316 6.62826 40.8597 6.85634C41.0878 7.08443 41.2159 7.39378 41.2159 7.71634C41.2159 8.0389 41.0878 8.34825 40.8597 8.57633C40.6316 8.80442 40.3223 8.93255 39.9997 8.93255C31.1916 8.93255 22.6709 12.0668 15.9623 17.7745C9.25366 23.4822 4.79499 31.3909 3.38408 40.0853C1.97318 48.7797 3.70212 57.6924 8.26151 65.2286C12.8209 72.7649 19.9132 78.4328 28.2694 81.2182C36.6255 84.0036 45.7001 83.7246 53.8693 80.4313C62.0386 77.1379 68.7694 71.0451 72.8573 63.243C76.9452 55.4409 78.1235 46.4388 76.1812 37.8475C74.239 29.2562 69.3029 21.6363 62.2564 16.3515C61.9984 16.1579 61.8278 15.8698 61.7822 15.5505C61.7366 15.2312 61.8197 14.9068 62.0132 14.6488C62.2067 14.3907 62.4949 14.2201 62.8142 14.1745C63.1335 14.1289 63.4579 14.212 63.7159 14.4055C70.353 19.3842 75.2556 26.3248 77.7293 34.2443C80.2031 42.1638 80.1227 50.6609 77.4994 58.5321C74.8761 66.4034 69.843 73.2499 63.1129 78.102C56.3827 82.9541 48.2966 85.5659 39.9997 85.5676Z" fill="black"/>
<path d="M39.9996 71.1579C35.0304 71.1579 30.1728 69.6844 26.0411 66.9236C21.9094 64.1629 18.6891 60.239 16.7875 55.6481C14.8859 51.0572 14.3883 46.0054 15.3578 41.1317C16.3272 36.258 18.7201 31.7813 22.2338 28.2675C25.7476 24.7538 30.2243 22.3609 35.098 21.3915C39.9717 20.422 45.0235 20.9196 49.6144 22.8212C54.2053 24.7228 58.1292 27.9431 60.8899 32.0748C63.6507 36.2065 65.1242 41.0641 65.1242 46.0333C65.1165 52.6944 62.4669 59.0804 57.7568 63.7905C53.0467 68.5006 46.6607 71.1502 39.9996 71.1579ZM39.9996 23.3411C35.5115 23.3411 31.1242 24.672 27.3925 27.1655C23.6608 29.6589 20.7523 33.2029 19.0348 37.3494C17.3173 41.4958 16.8679 46.0585 17.7435 50.4603C18.619 54.8622 20.7803 58.9055 23.9538 62.0791C27.1274 65.2526 31.1707 67.4139 35.5726 68.2894C39.9744 69.165 44.5371 68.7156 48.6835 66.9981C52.83 65.2806 56.374 62.3721 58.8675 58.6404C61.3609 54.9087 62.6918 50.5214 62.6918 46.0333C62.685 40.017 60.2921 34.2491 56.0379 29.995C51.7838 25.7408 46.0159 23.3479 39.9996 23.3411Z" fill="black"/>
<path d="M39.9995 47.2495C38.5591 47.2495 37.1511 46.8224 35.9534 46.0221C34.7558 45.2219 33.8224 44.0845 33.2712 42.7538C32.72 41.423 32.5757 39.9587 32.8567 38.546C33.1377 37.1333 33.8314 35.8356 34.8499 34.8171C35.8684 33.7986 37.166 33.105 38.5787 32.824C39.9914 32.543 41.4557 32.6872 42.7865 33.2384C44.1172 33.7897 45.2546 34.7231 46.0549 35.9207C46.8551 37.1184 47.2822 38.5264 47.2822 39.9668C47.2822 40.2894 47.1541 40.5987 46.926 40.8268C46.6979 41.0549 46.3886 41.183 46.066 41.183C45.7434 41.183 45.4341 41.0549 45.206 40.8268C44.9779 40.5987 44.8498 40.2894 44.8498 39.9668C44.8498 39.0075 44.5653 38.0697 44.0324 37.2721C43.4994 36.4745 42.7419 35.8528 41.8556 35.4857C40.9694 35.1186 39.9941 35.0226 39.0533 35.2097C38.1124 35.3969 37.2482 35.8588 36.5698 36.5371C35.8915 37.2155 35.4296 38.0797 35.2424 39.0206C35.0553 39.9614 35.1513 40.9366 35.5184 41.8229C35.8855 42.7092 36.5072 43.4667 37.3048 43.9996C38.1025 44.5326 39.0402 44.8171 39.9995 44.8171C40.3221 44.8171 40.6314 44.9452 40.8595 45.1733C41.0876 45.4014 41.2157 45.7107 41.2157 46.0333C41.2157 46.3558 41.0876 46.6652 40.8595 46.8933C40.6314 47.1214 40.3221 47.2495 39.9995 47.2495Z" fill="black"/>
<path d="M39.9995 59.3836C38.0692 59.3798 36.219 58.6113 34.8541 57.2463C33.4892 55.8814 32.7207 54.0312 32.7168 52.1009C32.7168 51.7784 32.8449 51.469 33.073 51.2409C33.3011 51.0129 33.6105 50.8847 33.933 50.8847C34.2556 50.8847 34.5649 51.0129 34.793 51.2409C35.0211 51.469 35.1492 51.7784 35.1492 52.1009C35.1495 53.0602 35.4341 53.9978 35.9672 54.7953C36.5003 55.5927 37.2579 56.2142 38.1442 56.5811C39.0305 56.9481 40.0057 57.0439 40.9465 56.8566C41.8873 56.6694 42.7514 56.2073 43.4296 55.529C44.1078 54.8506 44.5696 53.9863 44.7567 53.0455C44.9437 52.1047 44.8476 51.1295 44.4805 50.2433C44.1133 49.3571 43.4916 48.5997 42.694 48.0668C41.8964 47.5339 40.9587 47.2494 39.9995 47.2494C39.6769 47.2494 39.3676 47.1213 39.1395 46.8932C38.9114 46.6651 38.7833 46.3558 38.7833 46.0332C38.7833 45.7107 38.9114 45.4013 39.1395 45.1732C39.3676 44.9452 39.6769 44.817 39.9995 44.817C41.9149 44.8418 43.7434 45.62 45.0891 46.9832C46.4348 48.3464 47.1893 50.1848 47.1893 52.1003C47.1893 54.0158 46.4348 55.8543 45.0891 57.2175C43.7434 58.5807 41.9149 59.3589 39.9995 59.3836Z" fill="black"/>
<path d="M39.9994 62.0435C39.6769 62.0435 39.3675 61.9154 39.1394 61.6873C38.9113 61.4592 38.7832 61.1498 38.7832 60.8273V31.2392C38.7832 30.9166 38.9113 30.6073 39.1394 30.3792C39.3675 30.1511 39.6769 30.0229 39.9994 30.0229C40.322 30.0229 40.6313 30.1511 40.8594 30.3792C41.0875 30.6073 41.2156 30.9166 41.2156 31.2392V60.8273C41.2156 61.1498 41.0875 61.4592 40.8594 61.6873C40.6313 61.9154 40.322 62.0435 39.9994 62.0435Z" fill="black"/>
</svg>
