<svg width="90" height="66" viewBox="0 0 90 66" fill="none" xmlns="http://www.w3.org/2000/svg">
<path d="M72.8613 21.1393H67.1951L68.9023 1.53804C68.9055 1.50253 68.906 1.46755 68.9062 1.43257C68.9062 1.42958 68.9065 1.42677 68.9065 1.42378C68.9065 1.42325 68.9065 1.4229 68.9065 1.42237C68.9065 0.888876 68.5847 0.418659 68.1116 0.214225C68.1076 0.212467 68.1037 0.210358 68.0997 0.2086C68.0703 0.196295 68.0399 0.185748 68.0093 0.175552C67.9979 0.171861 67.987 0.167291 67.9756 0.163775C67.9506 0.156216 67.9249 0.15024 67.8995 0.144087C67.8815 0.139869 67.8643 0.134771 67.8462 0.131256C67.8239 0.126861 67.8007 0.124049 67.7778 0.120709C67.7564 0.117545 67.7353 0.113853 67.7137 0.11192C67.71 0.111568 67.7066 0.110864 67.7029 0.110513C67.6797 0.108403 67.6569 0.108755 67.6339 0.107876C67.6184 0.107349 67.6033 0.105591 67.5878 0.105591H67.5713C67.5699 0.105591 67.5685 0.105591 67.5672 0.105591H40.6074C39.8796 0.105591 39.289 0.696218 39.289 1.42396C39.289 2.14993 39.8796 2.74232 40.6074 2.74232H66.1508L63.5271 32.8669C63.5267 32.8692 63.5267 32.8715 63.5264 32.8738L62.8644 40.4748H17.054L17.8202 32.565H26.5427C27.271 32.565 27.8611 31.9747 27.8611 31.2466C27.8611 30.5185 27.271 29.9282 26.5427 29.9282H18.0758L19.6937 13.2298H33.5761C34.3044 13.2298 34.8945 12.6395 34.8945 11.9115C34.8945 11.1834 34.3044 10.5931 33.5761 10.5931H19.9493L20.7101 2.74232H35.3339C36.0599 2.74232 36.6523 2.14993 36.6523 1.42396C36.6523 0.696218 36.0599 0.105591 35.3339 0.105591H19.5136C19.5128 0.105591 19.5123 0.105767 19.5116 0.105767C18.8923 0.105591 18.3552 0.541531 18.2252 1.14587C18.2244 1.15026 18.2228 1.15448 18.2219 1.15888C18.2152 1.19175 18.2108 1.22532 18.2064 1.25907C18.2052 1.2698 18.2029 1.27999 18.2019 1.29071C18.2017 1.29282 18.2012 1.29476 18.201 1.29687L17.3003 10.5931H1.31836C0.5901 10.5931 0 11.1834 0 11.9115C0 12.6395 0.5901 13.2298 1.31836 13.2298H17.0447L15.4268 29.9282H10.723C9.99479 29.9282 9.40469 30.5185 9.40469 31.2466C9.40469 31.9747 9.99479 32.565 10.723 32.565H15.1714L14.2904 41.6566C14.2902 41.658 14.2902 41.6594 14.29 41.6606L12.9279 55.7195C12.9277 55.7211 12.9275 55.7228 12.9274 55.7242L12.9268 55.7293C12.9251 55.7476 12.9252 55.7655 12.9242 55.7838C12.923 55.8081 12.9205 55.8318 12.9205 55.8564C12.9205 55.8575 12.9207 55.8585 12.9207 55.8598C12.9207 55.8937 12.9231 55.9271 12.9256 55.9605C12.9267 55.9712 12.9263 55.9821 12.9275 55.9926C12.931 56.0267 12.9368 56.0603 12.943 56.0937C12.9448 56.1036 12.9456 56.1136 12.9476 56.1233C12.9527 56.1486 12.9599 56.173 12.9666 56.1978C12.9711 56.2152 12.9748 56.2329 12.9801 56.25C12.9817 56.2547 12.9838 56.2593 12.9852 56.2642C13.049 56.4604 13.1573 56.6365 13.2986 56.7803C13.3012 56.783 13.3034 56.7859 13.306 56.7884C13.3201 56.8025 13.3353 56.8151 13.3501 56.8285C13.441 56.9118 13.5436 56.9825 13.656 57.0378C13.6793 57.0494 13.7024 57.0616 13.7263 57.0716C13.7335 57.0748 13.7412 57.0769 13.7486 57.0797C13.7817 57.0929 13.8149 57.1055 13.8492 57.1162C13.8523 57.1171 13.8553 57.1176 13.8585 57.1187C13.8975 57.1303 13.9369 57.1405 13.9771 57.1488C13.9824 57.1498 13.9878 57.1502 13.9929 57.1512C14.0313 57.1584 14.0698 57.1646 14.109 57.1684C14.1098 57.1684 14.1105 57.1686 14.1114 57.1688C14.1547 57.173 14.1976 57.1751 14.2401 57.1751C14.2406 57.1751 14.2413 57.175 14.242 57.175H20.111C20.7591 62.0886 24.9718 65.8943 30.0598 65.8943C35.1474 65.8943 39.36 62.0886 40.0081 57.175H61.1545C61.8028 62.0886 66.0153 65.8943 71.1031 65.8943C76.1908 65.8943 80.4037 62.0886 81.052 57.175H86.9224C86.9233 57.175 86.9243 57.1751 86.9252 57.1751C86.9692 57.1751 87.0124 57.1725 87.0553 57.1683C87.063 57.1676 87.0704 57.166 87.0782 57.1651C87.1124 57.1611 87.1465 57.1563 87.1799 57.1496C87.1943 57.1468 87.2082 57.143 87.2225 57.1396C87.2483 57.1336 87.2743 57.1273 87.2996 57.1198C87.3169 57.1147 87.3336 57.1087 87.3504 57.1029C87.3721 57.0955 87.3937 57.0878 87.4149 57.0792C87.4332 57.0719 87.4506 57.064 87.4684 57.0561C87.4877 57.0472 87.5071 57.038 87.5259 57.0284C87.5438 57.0192 87.561 57.0097 87.5783 56.9999C87.5964 56.9893 87.6143 56.9784 87.632 56.9672C87.6486 56.9566 87.6651 56.9459 87.6809 56.9347C87.6988 56.9222 87.7159 56.909 87.7333 56.8956C87.7477 56.8842 87.7623 56.873 87.7764 56.861C87.7945 56.8457 87.8115 56.8297 87.8287 56.8134C87.8407 56.8019 87.8532 56.7907 87.8648 56.7787C87.8831 56.7601 87.9005 56.7404 87.9179 56.7206C87.9272 56.7098 87.9369 56.6995 87.9458 56.6886C87.9651 56.6647 87.9827 56.64 88.0003 56.6153C88.0063 56.6066 88.013 56.5986 88.0188 56.5898C88.0402 56.5576 88.0604 56.5246 88.0791 56.4905C88.0805 56.4883 88.0819 56.4864 88.0827 56.4841C88.1026 56.4476 88.1209 56.4101 88.1372 56.3715C88.1418 56.3604 88.1453 56.349 88.1497 56.3379C88.1604 56.3106 88.171 56.2834 88.18 56.2551C88.1858 56.2368 88.19 56.218 88.1951 56.1995C88.2009 56.1776 88.207 56.1558 88.2119 56.1334C88.2163 56.1136 88.2191 56.0932 88.2225 56.073C88.2255 56.0552 88.2293 56.0378 88.2316 56.0197C88.2875 55.5718 89.3199 47.2892 89.781 41.9334C89.7815 41.9283 89.7817 41.9231 89.7822 41.918C89.9149 40.3741 90 39.074 90 38.278C90 28.8278 82.3116 21.1393 72.8613 21.1393ZM66.9654 23.7764H72.3589L71.67 31.6859H66.2765L66.9654 23.7764ZM30.0601 63.2574C25.979 63.2574 22.6588 59.9372 22.6588 55.8562C22.6588 51.7753 25.9792 48.4551 30.0601 48.4551C34.1411 48.4551 37.4612 51.7753 37.4612 55.8562C37.4612 59.9372 34.1411 63.2574 30.0601 63.2574ZM71.1031 63.2574C67.0221 63.2574 63.7021 59.9372 63.7021 55.8562C63.7021 51.7753 67.0223 48.4551 71.1031 48.4551C75.1842 48.4551 78.5044 51.7753 78.5044 55.8562C78.5044 59.9372 75.1842 63.2574 71.1031 63.2574ZM85.7575 54.5373H81.0523C80.4044 49.6234 76.1916 45.8175 71.1034 45.8175C66.0156 45.8175 61.8028 49.6235 61.1549 54.5373H40.0087C39.3607 49.6234 35.1481 45.8175 30.0601 45.8175C24.9721 45.8175 20.7591 49.6235 20.1112 54.5373H15.6913L16.7986 43.1108H64.0725V43.1115C64.0732 43.1115 64.0737 43.1115 64.0744 43.1115C64.1186 43.1115 64.1623 43.1091 64.2056 43.1047C64.2137 43.104 64.2216 43.1022 64.2297 43.1012C64.2641 43.0971 64.2984 43.0922 64.3321 43.0855C64.3467 43.0825 64.361 43.0785 64.3754 43.075C64.4018 43.0686 64.4281 43.0625 64.4538 43.0547C64.4714 43.0495 64.4881 43.0431 64.5051 43.0372C64.5273 43.0294 64.5494 43.0219 64.5709 43.0131C64.5893 43.0055 64.6071 42.9971 64.625 42.9886C64.6445 42.9797 64.664 42.9707 64.6828 42.9609C64.7008 42.9514 64.7183 42.9412 64.7361 42.931C64.7542 42.9204 64.7721 42.9097 64.7897 42.8985C64.8068 42.8874 64.8229 42.8758 64.8393 42.8642C64.8567 42.8519 64.8736 42.8392 64.8904 42.826C64.9055 42.8139 64.9205 42.8014 64.9352 42.7886C64.952 42.7742 64.9683 42.7594 64.9841 42.7441C64.9975 42.7313 65.0108 42.7181 65.0238 42.7046C65.0397 42.6881 65.055 42.671 65.0701 42.6536C65.0819 42.6399 65.0935 42.6262 65.1047 42.6121C65.1193 42.5937 65.1332 42.5747 65.1469 42.5555C65.1573 42.5411 65.1673 42.5267 65.1771 42.5119C65.19 42.4921 65.2023 42.4717 65.214 42.4509C65.223 42.4355 65.2321 42.42 65.2402 42.4042C65.2513 42.3834 65.2608 42.3623 65.2708 42.3411C65.2785 42.324 65.2865 42.3073 65.2935 42.2897C65.3021 42.269 65.3093 42.2477 65.3169 42.2265C65.3234 42.2076 65.3302 42.1888 65.336 42.1695C65.3418 42.1491 65.3466 42.1282 65.3519 42.1075C65.357 42.0865 65.3626 42.0658 65.3666 42.0445C65.3707 42.0238 65.3731 42.0027 65.3763 41.9816C65.3795 41.9598 65.3831 41.9383 65.3853 41.9162C65.3856 41.913 65.3863 41.91 65.3865 41.9069L66.0472 34.3219H72.8609C76.9002 34.3219 78.722 36.4148 80.6505 38.6307C82.2419 40.459 84.0185 42.4989 87.0384 42.9966C86.6549 47.0518 86.0349 52.2578 85.7575 54.5373ZM87.2638 40.3546C85.3047 39.9552 84.0993 38.5779 82.6391 36.9003C80.8129 34.8023 78.5835 32.242 74.3097 31.765L74.9917 23.9342C81.9815 24.968 87.3633 31.0058 87.3633 38.2784C87.3633 38.7725 87.3264 39.4904 87.2638 40.3546Z" fill="black"/>
</svg>
