<svg width="16" height="16" viewBox="0 0 16 16" fill="none" xmlns="http://www.w3.org/2000/svg">
<path d="M1.92 4.74689C1.8424 4.8243 1.78082 4.91626 1.73881 5.0175C1.6968 5.11874 1.67518 5.22727 1.67518 5.33689C1.67518 5.4465 1.6968 5.55503 1.73881 5.65628C1.78082 5.75752 1.8424 5.84948 1.92 5.92689L7.52667 11.5336C7.58834 11.5954 7.6616 11.6444 7.74225 11.6778C7.8229 11.7113 7.90936 11.7285 7.99667 11.7285C8.08398 11.7285 8.17043 11.7113 8.25108 11.6778C8.33173 11.6444 8.40499 11.5954 8.46667 11.5336L14.0733 5.92689C14.4 5.60022 14.4 5.07355 14.0733 4.74689C13.7467 4.42022 13.22 4.42022 12.8933 4.74689L8 9.64022L3.1 4.74022C2.77333 4.42022 2.24667 4.42022 1.92 4.74689Z" fill="white"/>
</svg>
