<svg width="10" height="6" viewBox="0 0 10 6" fill="none" xmlns="http://www.w3.org/2000/svg">
<path d="M0.439476 0.560043C0.381272 0.618101 0.335094 0.687069 0.303586 0.763C0.272078 0.838932 0.255859 0.920333 0.255859 1.00254C0.255859 1.08475 0.272078 1.16615 0.303586 1.24208C0.335094 1.31802 0.381272 1.38699 0.439476 1.44504L4.64448 5.65004C4.69073 5.69639 4.74568 5.73317 4.80616 5.75826C4.86665 5.78335 4.93149 5.79626 4.99698 5.79626C5.06246 5.79626 5.1273 5.78335 5.18779 5.75826C5.24828 5.73317 5.30322 5.69639 5.34948 5.65004L9.55448 1.44504C9.79948 1.20004 9.79948 0.805043 9.55448 0.560043C9.30948 0.315043 8.91448 0.315043 8.66948 0.560043L4.99948 4.23004L1.32448 0.555043C1.07948 0.315043 0.684476 0.315043 0.439476 0.560043Z" fill="#292929"/>
</svg>
