<svg width="20" height="21" viewBox="0 0 20 21" fill="none" xmlns="http://www.w3.org/2000/svg">
<g clip-path="url(#clip0_199_40)">
<path d="M9.49967 0.535645C7.89384 0.558978 4.44384 0.822311 2.51634 2.59148C1.08467 4.02481 0.579671 6.11898 0.527171 8.71648C0.474671 11.3131 0.406337 16.1823 5.09967 17.5023H5.10217L5.09884 19.5156C5.09884 19.5156 5.068 20.3298 5.60717 20.4965C6.25467 20.6981 6.6355 20.0798 7.25717 19.4115C7.59634 19.0448 8.06717 18.5081 8.42134 18.0948C11.6297 18.3665 14.098 17.7481 14.3797 17.6573C15.0263 17.4473 18.693 16.9773 19.2897 12.1098C19.9063 7.09314 18.9897 3.91814 17.3397 2.48814C16.843 2.02981 14.8347 0.571478 10.3605 0.552311C10.3605 0.552311 10.0313 0.531478 9.49634 0.538145L9.49967 0.535645ZM9.548 1.94648C10.0022 1.94314 10.2813 1.96064 10.2813 1.96064C14.0663 1.97731 15.8788 3.11731 16.2997 3.49898C17.6955 4.69481 18.408 7.55564 17.888 11.7465V11.7481C17.3847 15.8131 14.4097 16.0681 13.8613 16.244C13.628 16.319 11.4597 16.8581 8.73384 16.6806C8.73384 16.6806 6.70384 19.1306 6.06967 19.7673C5.96967 19.8673 5.853 19.9065 5.77634 19.8873C5.668 19.8598 5.638 19.7306 5.63884 19.5423L5.6555 16.194C1.68717 15.094 1.918 10.9506 1.96384 8.78148C2.00884 6.61148 2.41634 4.83314 3.62717 3.63731C5.2605 2.15981 8.18884 1.95564 9.55217 1.94564L9.548 1.94648ZM9.86467 4.11481C9.80006 4.11807 9.73915 4.14592 9.69442 4.19266C9.64969 4.23939 9.62453 4.30146 9.6241 4.36615C9.62368 4.43084 9.64801 4.49324 9.69212 4.54056C9.73624 4.58788 9.79678 4.61653 9.86134 4.62064C11.2147 4.62898 12.3163 5.06814 13.218 5.94731C14.1122 6.81898 14.568 8.00398 14.5788 9.55898C14.5805 9.69814 14.6955 9.80898 14.8347 9.80898C14.9013 9.8081 14.9649 9.78102 15.0117 9.73361C15.0584 9.6862 15.0847 9.62226 15.0847 9.55564C15.073 7.90231 14.5697 6.55898 13.5713 5.58564C12.5797 4.61898 11.328 4.12481 9.8655 4.11481H9.86467ZM6.56467 4.69398C6.3875 4.66945 6.20718 4.7037 6.05134 4.79148L6.043 4.79314C5.68467 4.99898 5.363 5.26148 5.088 5.56981C5.08634 5.57314 5.083 5.57314 5.08134 5.57648C4.85884 5.84564 4.73134 6.10814 4.698 6.36648C4.69148 6.405 4.68952 6.44416 4.69217 6.48314C4.69217 6.59648 4.7105 6.70815 4.74634 6.81648L4.75717 6.82481C4.86967 7.22481 5.15134 7.88814 5.76134 8.99481C6.11134 9.63481 6.51384 10.2448 6.96634 10.8165C7.19134 11.1031 7.433 11.3773 7.69134 11.6365L7.80134 11.7465C8.05967 12.0031 8.33467 12.2465 8.62134 12.4715C9.19347 12.9241 9.80287 13.3274 10.443 13.6773C11.5497 14.2881 12.2147 14.569 12.613 14.6823L12.6213 14.694C12.7663 14.7414 12.9198 14.757 13.0713 14.7398C13.3297 14.7098 13.5938 14.5815 13.8613 14.3565C13.8647 14.3565 13.8638 14.3548 13.868 14.3523C14.1763 14.0773 14.4372 13.7523 14.643 13.3956L14.6455 13.3873C14.833 13.0273 14.7705 12.6856 14.4955 12.454C14.4922 12.454 13.9138 11.9706 13.6313 11.7623C13.3313 11.5498 13.023 11.3523 12.7038 11.1706C12.2788 10.9331 11.8438 11.0823 11.6638 11.3156L11.2913 11.7856C11.0997 12.0215 10.7438 11.9906 10.7438 11.9906C8.14384 11.3273 7.448 8.69481 7.448 8.69481C7.448 8.69481 7.41717 8.33981 7.65467 8.14815L8.12384 7.77481C8.35467 7.59564 8.50384 7.16065 8.2655 6.73481C8.08451 6.41505 7.88702 6.10491 7.67384 5.80564C7.45004 5.51279 7.21942 5.22521 6.98217 4.94314C6.87767 4.81228 6.72885 4.72423 6.56384 4.69564L6.56467 4.69398ZM10.3063 5.42731C10.2394 5.42532 10.1744 5.45002 10.1256 5.49596C10.0768 5.54191 10.0483 5.60534 10.0463 5.67231C10.0443 5.73928 10.069 5.80429 10.115 5.85305C10.1609 5.90181 10.2244 5.93032 10.2913 5.93231C11.258 6.00314 11.9722 6.32064 12.4955 6.89064C13.0205 7.46398 13.2705 8.16065 13.2505 9.03231C13.2541 9.0964 13.2818 9.15676 13.328 9.20133C13.3742 9.24591 13.4355 9.27143 13.4997 9.2728C13.5638 9.27417 13.6262 9.25128 13.6742 9.20871C13.7223 9.16614 13.7525 9.10702 13.7588 9.04314C13.7797 8.06398 13.4805 7.21564 12.8697 6.54814C12.253 5.87315 11.3888 5.50398 10.328 5.42648H10.308L10.3063 5.42731ZM10.6922 6.78565C10.628 6.78659 10.5666 6.81176 10.5202 6.85613C10.4738 6.90049 10.446 6.96075 10.4422 7.02481C10.4355 7.16398 10.5422 7.28314 10.6822 7.29148C11.118 7.31481 11.4113 7.43731 11.6097 7.64315C11.8097 7.84731 11.933 8.15981 11.9563 8.61314C11.9649 8.67597 11.9967 8.7333 12.0455 8.7738C12.0943 8.8143 12.1566 8.83503 12.2199 8.83189C12.2832 8.82875 12.3431 8.80197 12.3876 8.75684C12.4322 8.71171 12.4582 8.65152 12.4605 8.58815C12.4355 8.05148 12.2813 7.60648 11.9772 7.29064C11.6713 6.97564 11.233 6.81231 10.7105 6.78481H10.6955L10.6922 6.78565Z" fill="#292929"/>
</g>
<defs>
<clipPath id="clip0_199_40">
<rect width="20" height="20" fill="white" transform="translate(0 0.535645)"/>
</clipPath>
</defs>
</svg>
