<svg width="20" height="21" viewBox="0 0 20 21" fill="none" xmlns="http://www.w3.org/2000/svg">
<path d="M15.8757 4.6273C15.1117 3.85558 14.2016 3.24369 13.1987 2.82735C12.1957 2.411 11.1199 2.19852 10.034 2.2023C5.48398 2.2023 1.77565 5.91064 1.77565 10.4606C1.77565 11.919 2.15898 13.3356 2.87565 14.5856L1.70898 18.869L6.08398 17.719C7.29232 18.3773 8.65065 18.7273 10.034 18.7273C14.584 18.7273 18.2923 15.019 18.2923 10.469C18.2923 8.26064 17.434 6.18564 15.8757 4.6273V4.6273ZM10.034 17.3273C8.80065 17.3273 7.59232 16.994 6.53398 16.369L6.28398 16.219L3.68398 16.9023L4.37565 14.369L4.20898 14.1106C3.52377 13.0164 3.15993 11.7517 3.15898 10.4606C3.15898 6.6773 6.24232 3.59397 10.0257 3.59397C11.859 3.59397 13.584 4.31064 14.8757 5.61064C15.5152 6.24727 16.0221 7.00452 16.3668 7.83849C16.7116 8.67246 16.8873 9.56656 16.884 10.469C16.9007 14.2523 13.8173 17.3273 10.034 17.3273V17.3273ZM13.8007 12.194C13.5923 12.094 12.5757 11.594 12.3923 11.519C12.2007 11.4523 12.0673 11.419 11.9257 11.619C11.784 11.8273 11.3923 12.294 11.2757 12.4273C11.159 12.569 11.034 12.5856 10.8257 12.4773C10.6173 12.3773 9.95065 12.1523 9.16732 11.4523C8.55065 10.9023 8.14232 10.2273 8.01732 10.019C7.90065 9.81064 8.00065 9.7023 8.10898 9.59397C8.20065 9.5023 8.31732 9.3523 8.41732 9.23564C8.51732 9.11897 8.55898 9.0273 8.62565 8.89397C8.69232 8.7523 8.65898 8.63564 8.60898 8.53564C8.55898 8.43564 8.14232 7.41897 7.97565 7.0023C7.80898 6.60231 7.63398 6.6523 7.50898 6.64397H7.10898C6.96732 6.64397 6.75065 6.69397 6.55898 6.9023C6.37565 7.11064 5.84232 7.61064 5.84232 8.6273C5.84232 9.64397 6.58398 10.6273 6.68398 10.7606C6.78398 10.9023 8.14232 12.9856 10.209 13.8773C10.7007 14.094 11.084 14.219 11.384 14.3106C11.8757 14.469 12.3257 14.444 12.684 14.394C13.084 14.3356 13.909 13.894 14.0757 13.4106C14.2507 12.9273 14.2507 12.519 14.1923 12.4273C14.134 12.3356 14.009 12.294 13.8007 12.194V12.194Z" fill="#292929"/>
</svg>
