<svg width="357" height="64" viewBox="0 0 357 64" fill="none" xmlns="http://www.w3.org/2000/svg">
<path d="M14.8937 4.942C10.9457 4.942 7.96899 5.94466 5.96366 7.95C4.02099 9.95533 2.61099 13.3707 1.73366 18.196C1.73366 18.3213 1.54566 18.384 1.16966 18.384C0.856322 18.384 0.699655 18.3213 0.699655 18.196C0.950322 15.94 1.23232 12.9947 1.54566 9.36C1.85899 5.72533 2.01566 2.99933 2.01566 1.182C2.01566 0.868666 2.17232 0.711999 2.48566 0.711999C2.86166 0.711999 3.04966 0.868666 3.04966 1.182C3.04966 2.56067 4.74166 3.25 8.12566 3.25C13.4523 3.438 19.7503 3.532 27.0197 3.532C30.717 3.532 34.6337 3.46933 38.7697 3.344L45.1617 3.25C47.4177 3.25 49.0783 3.09333 50.1437 2.77999C51.2717 2.46666 51.9923 1.84 52.3057 0.899997C52.3683 0.649329 52.5563 0.523996 52.8697 0.523996C53.183 0.523996 53.3397 0.649329 53.3397 0.899997C53.1517 2.71733 52.9637 5.47466 52.7757 9.172C52.5877 12.8693 52.4937 15.8773 52.4937 18.196C52.4937 18.3213 52.3057 18.384 51.9297 18.384C51.5537 18.384 51.3657 18.3213 51.3657 18.196C51.1777 13.308 50.175 9.89266 48.3577 7.95C46.5403 5.94466 43.5323 4.942 39.3337 4.942C36.5137 4.942 34.5083 5.06733 33.3177 5.318C32.127 5.56866 31.3123 6.10133 30.8737 6.916C30.435 7.73067 30.2157 9.10933 30.2157 11.052V54.386C30.2157 56.3287 30.435 57.7387 30.8737 58.616C31.3123 59.4933 32.1583 60.0887 33.4117 60.402C34.665 60.7153 36.639 60.872 39.3337 60.872C39.5217 60.872 39.6157 61.06 39.6157 61.436C39.6157 61.812 39.5217 62 39.3337 62C37.2657 62 35.605 61.9687 34.3517 61.906L27.0197 61.812L19.9697 61.906C18.7163 61.9687 16.993 62 14.7997 62C14.6743 62 14.6117 61.812 14.6117 61.436C14.6117 61.06 14.6743 60.872 14.7997 60.872C17.4943 60.872 19.4683 60.7153 20.7217 60.402C21.975 60.0887 22.821 59.4933 23.2597 58.616C23.761 57.676 24.0117 56.266 24.0117 54.386V10.864C24.0117 8.92133 23.7923 7.574 23.3537 6.822C22.915 6.00733 22.1003 5.506 20.9097 5.318C19.719 5.06733 17.7137 4.942 14.8937 4.942ZM97.5938 47.994C97.5938 47.8687 97.7192 47.806 97.9698 47.806C98.1578 47.806 98.3145 47.8373 98.4398 47.9C98.6278 47.9627 98.7218 48.0567 98.7218 48.182C98.1578 52.13 97.8758 56.266 97.8758 60.59C97.8758 61.0913 97.7505 61.4673 97.4998 61.718C97.3118 61.906 96.9358 62 96.3718 62H56.9858C56.8605 62 56.7978 61.812 56.7978 61.436C56.7978 61.06 56.8605 60.872 56.9858 60.872C59.3672 60.872 61.0905 60.7153 62.1558 60.402C63.2838 60.0887 64.0358 59.4933 64.4118 58.616C64.8505 57.676 65.0698 56.266 65.0698 54.386V10.864C65.0698 8.984 64.8505 7.60533 64.4118 6.728C64.0358 5.85066 63.2838 5.25533 62.1558 4.942C61.0905 4.566 59.3672 4.378 56.9858 4.378C56.8605 4.378 56.7978 4.19 56.7978 3.814C56.7978 3.438 56.8605 3.25 56.9858 3.25H94.7738C95.3378 3.25 95.6198 3.532 95.6198 4.09599L95.8078 15.658C95.8078 15.846 95.6512 15.9713 95.3378 16.034C95.0245 16.034 94.8365 15.94 94.7738 15.752C94.5858 12.4307 93.5832 9.86133 91.7658 8.044C89.9485 6.164 87.5358 5.224 84.5278 5.224H78.7938C76.6005 5.224 74.9712 5.412 73.9058 5.788C72.9032 6.10133 72.1825 6.69666 71.7438 7.57399C71.3678 8.38866 71.1798 9.642 71.1798 11.334V30.416H82.6478C85.6558 30.416 87.7865 29.9147 89.0398 28.912C90.3558 27.9093 91.0138 26.2173 91.0138 23.836C91.0138 23.7107 91.2018 23.648 91.5778 23.648C91.9538 23.648 92.1418 23.7107 92.1418 23.836L92.0478 31.45C92.0478 33.2673 92.0792 34.646 92.1418 35.586L92.2358 40.098C92.2358 40.2233 92.0478 40.286 91.6718 40.286C91.2958 40.286 91.1078 40.2233 91.1078 40.098C91.1078 37.3407 90.4185 35.3667 89.0398 34.176C87.7238 32.9853 85.4992 32.39 82.3658 32.39H71.1798V54.01C71.1798 55.7647 71.3678 57.0493 71.7438 57.864C72.1198 58.6787 72.8092 59.2427 73.8118 59.556C74.8145 59.8693 76.3812 60.026 78.5118 60.026H86.0318C89.0398 60.026 91.5465 58.9607 93.5518 56.83C95.5572 54.6993 96.9045 51.754 97.5938 47.994ZM165.942 60.872C166.13 60.872 166.224 61.06 166.224 61.436C166.224 61.812 166.13 62 165.942 62C163.937 62 162.37 61.9687 161.242 61.906L154.85 61.812L148.176 61.906C147.048 61.9687 145.513 62 143.57 62C143.382 62 143.288 61.812 143.288 61.436C143.288 61.06 143.382 60.872 143.57 60.872C145.951 60.872 147.706 60.7153 148.834 60.402C149.962 60.0887 150.714 59.4933 151.09 58.616C151.466 57.676 151.654 56.266 151.654 54.386V11.24C151.654 9.10933 151.529 7.69933 151.278 7.01C151.09 6.32066 150.557 5.882 149.68 5.694C148.803 5.506 147.017 5.41199 144.322 5.41199H125.052C122.232 5.41199 120.352 5.506 119.412 5.694C118.472 5.882 117.877 6.352 117.626 7.104C117.375 7.79333 117.25 9.172 117.25 11.24V54.386C117.25 56.266 117.438 57.676 117.814 58.616C118.253 59.4933 119.005 60.0887 120.07 60.402C121.198 60.7153 122.984 60.872 125.428 60.872C125.553 60.872 125.616 61.06 125.616 61.436C125.616 61.812 125.553 62 125.428 62C123.485 62 121.95 61.9687 120.822 61.906L114.054 61.812L107.662 61.906C106.534 61.9687 104.967 62 102.962 62C102.837 62 102.774 61.812 102.774 61.436C102.774 61.06 102.837 60.872 102.962 60.872C105.343 60.872 107.098 60.7153 108.226 60.402C109.417 60.0887 110.2 59.4933 110.576 58.616C111.015 57.676 111.234 56.266 111.234 54.386V11.992C111.234 10.0493 111.015 8.54533 110.576 7.48C110.2 6.41467 109.417 5.63133 108.226 5.13C107.035 4.62866 105.312 4.378 103.056 4.378C102.931 4.378 102.868 4.19 102.868 3.814C102.868 3.438 102.931 3.25 103.056 3.25C105.187 3.25 107.223 3.28133 109.166 3.344C117.313 3.46933 125.867 3.532 134.828 3.532C142.975 3.532 152.312 3.438 162.84 3.25H165.942C166.13 3.25 166.224 3.438 166.224 3.814C166.224 4.19 166.13 4.378 165.942 4.378C162.683 4.378 160.49 4.942 159.362 6.07C158.297 7.198 157.764 9.172 157.764 11.992V54.386C157.764 56.266 157.952 57.676 158.328 58.616C158.767 59.4933 159.55 60.0887 160.678 60.402C161.806 60.7153 163.561 60.872 165.942 60.872ZM231.292 60.872C231.543 60.872 231.668 61.06 231.668 61.436C231.668 61.812 231.543 62 231.292 62C230.101 62 228.253 61.9373 225.746 61.812C223.239 61.6867 221.422 61.624 220.294 61.624C218.915 61.624 217.161 61.6867 215.03 61.812C213.025 61.9373 211.489 62 210.424 62C210.173 62 210.048 61.812 210.048 61.436C210.048 61.06 210.173 60.872 210.424 60.872C212.743 60.872 214.435 60.6527 215.5 60.214C216.565 59.7753 217.098 59.0233 217.098 57.958C217.098 57.0807 216.691 55.7333 215.876 53.916L195.666 11.052L179.216 50.062C178.339 52.1927 177.9 53.916 177.9 55.232C177.9 57.1747 178.652 58.616 180.156 59.556C181.723 60.4333 184.041 60.872 187.112 60.872C187.425 60.872 187.582 61.06 187.582 61.436C187.582 61.812 187.425 62 187.112 62C185.984 62 184.355 61.9373 182.224 61.812C179.843 61.6867 177.775 61.624 176.02 61.624C174.391 61.624 172.511 61.6867 170.38 61.812C168.5 61.9373 166.933 62 165.68 62C165.367 62 165.21 61.812 165.21 61.436C165.21 61.06 165.367 60.872 165.68 60.872C167.435 60.872 168.907 60.5587 170.098 59.932C171.351 59.2427 172.511 58.0833 173.576 56.454C174.704 54.762 175.926 52.3493 177.242 49.216L197.076 2.404C197.201 2.216 197.421 2.122 197.734 2.122C198.047 2.122 198.235 2.216 198.298 2.404L220.482 49.122C222.613 53.7593 224.43 56.8927 225.934 58.522C227.438 60.0887 229.224 60.872 231.292 60.872ZM296.636 60.872C296.824 60.872 296.918 61.06 296.918 61.436C296.918 61.812 296.824 62 296.636 62C294.693 62 293.127 61.9687 291.936 61.906L285.45 61.812L278.588 61.906C277.46 61.9687 275.987 62 274.17 62C273.982 62 273.888 61.812 273.888 61.436C273.888 61.06 273.982 60.872 274.17 60.872C276.614 60.872 278.4 60.7153 279.528 60.402C280.656 60.0887 281.408 59.4933 281.784 58.616C282.16 57.7387 282.348 56.3287 282.348 54.386V11.052L241.928 62.846C241.74 63.0967 241.364 63.222 240.8 63.222C239.86 63.222 239.39 63.0027 239.39 62.564V10.864C239.39 8.984 239.171 7.60533 238.732 6.728C238.356 5.85066 237.573 5.25533 236.382 4.942C235.254 4.566 233.499 4.378 231.118 4.378C230.993 4.378 230.93 4.19 230.93 3.814C230.93 3.438 230.993 3.25 231.118 3.25L236.006 3.344C238.638 3.46933 240.769 3.532 242.398 3.532C244.215 3.532 246.503 3.46933 249.26 3.344L253.678 3.25C253.866 3.25 253.96 3.438 253.96 3.814C253.96 4.19 253.866 4.378 253.678 4.378C251.234 4.378 249.448 4.566 248.32 4.942C247.192 5.25533 246.44 5.85066 246.064 6.728C245.688 7.60533 245.5 8.984 245.5 10.864V54.762L286.014 2.77999C286.202 2.592 286.547 2.498 287.048 2.498C287.988 2.498 288.458 2.71733 288.458 3.156V54.386C288.458 56.266 288.646 57.676 289.022 58.616C289.461 59.4933 290.244 60.0887 291.372 60.402C292.5 60.7153 294.255 60.872 296.636 60.872ZM356.002 60.872C356.127 60.872 356.19 61.06 356.19 61.436C356.19 61.812 356.127 62 356.002 62C354.373 62 353.088 61.9687 352.148 61.906L346.978 61.812L339.74 61.906C338.612 61.9687 337.077 62 335.134 62C335.009 62 334.946 61.812 334.946 61.436C334.946 61.06 335.009 60.872 335.134 60.872C336.826 60.872 338.048 60.7467 338.8 60.496C339.552 60.2453 339.928 59.838 339.928 59.274C339.928 58.71 339.646 58.0207 339.082 57.206L324.794 35.586L312.856 52.412C311.352 54.5427 310.6 56.266 310.6 57.582C310.6 59.7753 312.449 60.872 316.146 60.872C316.334 60.872 316.428 61.06 316.428 61.436C316.428 61.812 316.334 62 316.146 62C314.266 62 312.825 61.9687 311.822 61.906L305.336 61.812L301.388 61.906C300.699 61.9687 299.539 62 297.91 62C297.722 62 297.628 61.812 297.628 61.436C297.628 61.06 297.722 60.872 297.91 60.872C299.978 60.872 302.109 60.1513 304.302 58.71C306.495 57.2687 308.626 55.138 310.694 52.318L323.948 34.176L308.814 11.24C307.122 8.73333 305.461 6.97866 303.832 5.976C302.265 4.91066 300.417 4.378 298.286 4.378C298.161 4.378 298.098 4.19 298.098 3.814C298.098 3.438 298.161 3.25 298.286 3.25L301.858 3.344C303.487 3.46933 304.678 3.532 305.43 3.532C307.561 3.532 310.13 3.46933 313.138 3.344L318.026 3.25C318.214 3.25 318.308 3.438 318.308 3.814C318.308 4.19 318.214 4.378 318.026 4.378C316.397 4.378 315.175 4.50333 314.36 4.754C313.608 5.00466 313.232 5.44333 313.232 6.07C313.232 6.57133 313.514 7.26067 314.078 8.138L327.99 29.1L338.988 13.496C340.68 11.1147 341.526 9.172 341.526 7.668C341.526 5.47466 339.771 4.378 336.262 4.378C336.074 4.378 335.98 4.19 335.98 3.814C335.98 3.438 336.074 3.25 336.262 3.25L340.492 3.344C342.873 3.46933 345.035 3.532 346.978 3.532C348.106 3.532 349.422 3.46933 350.926 3.344L354.404 3.25C354.592 3.25 354.686 3.438 354.686 3.814C354.686 4.19 354.592 4.378 354.404 4.378C352.336 4.378 350.174 5.16133 347.918 6.728C345.662 8.29467 343.406 10.6133 341.15 13.684L328.836 30.51L344.534 54.198C346.163 56.642 347.824 58.3653 349.516 59.368C351.271 60.3707 353.433 60.872 356.002 60.872Z" fill="#1C356E"/>
<path d="M14.8937 4.942C10.9457 4.942 7.96899 5.94466 5.96366 7.95C4.02099 9.95533 2.61099 13.3707 1.73366 18.196C1.73366 18.3213 1.54566 18.384 1.16966 18.384C0.856322 18.384 0.699655 18.3213 0.699655 18.196C0.950322 15.94 1.23232 12.9947 1.54566 9.36C1.85899 5.72533 2.01566 2.99933 2.01566 1.182C2.01566 0.868666 2.17232 0.711999 2.48566 0.711999C2.86166 0.711999 3.04966 0.868666 3.04966 1.182C3.04966 2.56067 4.74166 3.25 8.12566 3.25C13.4523 3.438 19.7503 3.532 27.0197 3.532C30.717 3.532 34.6337 3.46933 38.7697 3.344L45.1617 3.25C47.4177 3.25 49.0783 3.09333 50.1437 2.77999C51.2717 2.46666 51.9923 1.84 52.3057 0.899997C52.3683 0.649329 52.5563 0.523996 52.8697 0.523996C53.183 0.523996 53.3397 0.649329 53.3397 0.899997C53.1517 2.71733 52.9637 5.47466 52.7757 9.172C52.5877 12.8693 52.4937 15.8773 52.4937 18.196C52.4937 18.3213 52.3057 18.384 51.9297 18.384C51.5537 18.384 51.3657 18.3213 51.3657 18.196C51.1777 13.308 50.175 9.89266 48.3577 7.95C46.5403 5.94466 43.5323 4.942 39.3337 4.942C36.5137 4.942 34.5083 5.06733 33.3177 5.318C32.127 5.56866 31.3123 6.10133 30.8737 6.916C30.435 7.73067 30.2157 9.10933 30.2157 11.052V54.386C30.2157 56.3287 30.435 57.7387 30.8737 58.616C31.3123 59.4933 32.1583 60.0887 33.4117 60.402C34.665 60.7153 36.639 60.872 39.3337 60.872C39.5217 60.872 39.6157 61.06 39.6157 61.436C39.6157 61.812 39.5217 62 39.3337 62C37.2657 62 35.605 61.9687 34.3517 61.906L27.0197 61.812L19.9697 61.906C18.7163 61.9687 16.993 62 14.7997 62C14.6743 62 14.6117 61.812 14.6117 61.436C14.6117 61.06 14.6743 60.872 14.7997 60.872C17.4943 60.872 19.4683 60.7153 20.7217 60.402C21.975 60.0887 22.821 59.4933 23.2597 58.616C23.761 57.676 24.0117 56.266 24.0117 54.386V10.864C24.0117 8.92133 23.7923 7.574 23.3537 6.822C22.915 6.00733 22.1003 5.506 20.9097 5.318C19.719 5.06733 17.7137 4.942 14.8937 4.942ZM97.5938 47.994C97.5938 47.8687 97.7192 47.806 97.9698 47.806C98.1578 47.806 98.3145 47.8373 98.4398 47.9C98.6278 47.9627 98.7218 48.0567 98.7218 48.182C98.1578 52.13 97.8758 56.266 97.8758 60.59C97.8758 61.0913 97.7505 61.4673 97.4998 61.718C97.3118 61.906 96.9358 62 96.3718 62H56.9858C56.8605 62 56.7978 61.812 56.7978 61.436C56.7978 61.06 56.8605 60.872 56.9858 60.872C59.3672 60.872 61.0905 60.7153 62.1558 60.402C63.2838 60.0887 64.0358 59.4933 64.4118 58.616C64.8505 57.676 65.0698 56.266 65.0698 54.386V10.864C65.0698 8.984 64.8505 7.60533 64.4118 6.728C64.0358 5.85066 63.2838 5.25533 62.1558 4.942C61.0905 4.566 59.3672 4.378 56.9858 4.378C56.8605 4.378 56.7978 4.19 56.7978 3.814C56.7978 3.438 56.8605 3.25 56.9858 3.25H94.7738C95.3378 3.25 95.6198 3.532 95.6198 4.09599L95.8078 15.658C95.8078 15.846 95.6512 15.9713 95.3378 16.034C95.0245 16.034 94.8365 15.94 94.7738 15.752C94.5858 12.4307 93.5832 9.86133 91.7658 8.044C89.9485 6.164 87.5358 5.224 84.5278 5.224H78.7938C76.6005 5.224 74.9712 5.412 73.9058 5.788C72.9032 6.10133 72.1825 6.69666 71.7438 7.57399C71.3678 8.38866 71.1798 9.642 71.1798 11.334V30.416H82.6478C85.6558 30.416 87.7865 29.9147 89.0398 28.912C90.3558 27.9093 91.0138 26.2173 91.0138 23.836C91.0138 23.7107 91.2018 23.648 91.5778 23.648C91.9538 23.648 92.1418 23.7107 92.1418 23.836L92.0478 31.45C92.0478 33.2673 92.0792 34.646 92.1418 35.586L92.2358 40.098C92.2358 40.2233 92.0478 40.286 91.6718 40.286C91.2958 40.286 91.1078 40.2233 91.1078 40.098C91.1078 37.3407 90.4185 35.3667 89.0398 34.176C87.7238 32.9853 85.4992 32.39 82.3658 32.39H71.1798V54.01C71.1798 55.7647 71.3678 57.0493 71.7438 57.864C72.1198 58.6787 72.8092 59.2427 73.8118 59.556C74.8145 59.8693 76.3812 60.026 78.5118 60.026H86.0318C89.0398 60.026 91.5465 58.9607 93.5518 56.83C95.5572 54.6993 96.9045 51.754 97.5938 47.994ZM165.942 60.872C166.13 60.872 166.224 61.06 166.224 61.436C166.224 61.812 166.13 62 165.942 62C163.937 62 162.37 61.9687 161.242 61.906L154.85 61.812L148.176 61.906C147.048 61.9687 145.513 62 143.57 62C143.382 62 143.288 61.812 143.288 61.436C143.288 61.06 143.382 60.872 143.57 60.872C145.951 60.872 147.706 60.7153 148.834 60.402C149.962 60.0887 150.714 59.4933 151.09 58.616C151.466 57.676 151.654 56.266 151.654 54.386V11.24C151.654 9.10933 151.529 7.69933 151.278 7.01C151.09 6.32066 150.557 5.882 149.68 5.694C148.803 5.506 147.017 5.41199 144.322 5.41199H125.052C122.232 5.41199 120.352 5.506 119.412 5.694C118.472 5.882 117.877 6.352 117.626 7.104C117.375 7.79333 117.25 9.172 117.25 11.24V54.386C117.25 56.266 117.438 57.676 117.814 58.616C118.253 59.4933 119.005 60.0887 120.07 60.402C121.198 60.7153 122.984 60.872 125.428 60.872C125.553 60.872 125.616 61.06 125.616 61.436C125.616 61.812 125.553 62 125.428 62C123.485 62 121.95 61.9687 120.822 61.906L114.054 61.812L107.662 61.906C106.534 61.9687 104.967 62 102.962 62C102.837 62 102.774 61.812 102.774 61.436C102.774 61.06 102.837 60.872 102.962 60.872C105.343 60.872 107.098 60.7153 108.226 60.402C109.417 60.0887 110.2 59.4933 110.576 58.616C111.015 57.676 111.234 56.266 111.234 54.386V11.992C111.234 10.0493 111.015 8.54533 110.576 7.48C110.2 6.41467 109.417 5.63133 108.226 5.13C107.035 4.62866 105.312 4.378 103.056 4.378C102.931 4.378 102.868 4.19 102.868 3.814C102.868 3.438 102.931 3.25 103.056 3.25C105.187 3.25 107.223 3.28133 109.166 3.344C117.313 3.46933 125.867 3.532 134.828 3.532C142.975 3.532 152.312 3.438 162.84 3.25H165.942C166.13 3.25 166.224 3.438 166.224 3.814C166.224 4.19 166.13 4.378 165.942 4.378C162.683 4.378 160.49 4.942 159.362 6.07C158.297 7.198 157.764 9.172 157.764 11.992V54.386C157.764 56.266 157.952 57.676 158.328 58.616C158.767 59.4933 159.55 60.0887 160.678 60.402C161.806 60.7153 163.561 60.872 165.942 60.872ZM231.292 60.872C231.543 60.872 231.668 61.06 231.668 61.436C231.668 61.812 231.543 62 231.292 62C230.101 62 228.253 61.9373 225.746 61.812C223.239 61.6867 221.422 61.624 220.294 61.624C218.915 61.624 217.161 61.6867 215.03 61.812C213.025 61.9373 211.489 62 210.424 62C210.173 62 210.048 61.812 210.048 61.436C210.048 61.06 210.173 60.872 210.424 60.872C212.743 60.872 214.435 60.6527 215.5 60.214C216.565 59.7753 217.098 59.0233 217.098 57.958C217.098 57.0807 216.691 55.7333 215.876 53.916L195.666 11.052L179.216 50.062C178.339 52.1927 177.9 53.916 177.9 55.232C177.9 57.1747 178.652 58.616 180.156 59.556C181.723 60.4333 184.041 60.872 187.112 60.872C187.425 60.872 187.582 61.06 187.582 61.436C187.582 61.812 187.425 62 187.112 62C185.984 62 184.355 61.9373 182.224 61.812C179.843 61.6867 177.775 61.624 176.02 61.624C174.391 61.624 172.511 61.6867 170.38 61.812C168.5 61.9373 166.933 62 165.68 62C165.367 62 165.21 61.812 165.21 61.436C165.21 61.06 165.367 60.872 165.68 60.872C167.435 60.872 168.907 60.5587 170.098 59.932C171.351 59.2427 172.511 58.0833 173.576 56.454C174.704 54.762 175.926 52.3493 177.242 49.216L197.076 2.404C197.201 2.216 197.421 2.122 197.734 2.122C198.047 2.122 198.235 2.216 198.298 2.404L220.482 49.122C222.613 53.7593 224.43 56.8927 225.934 58.522C227.438 60.0887 229.224 60.872 231.292 60.872ZM296.636 60.872C296.824 60.872 296.918 61.06 296.918 61.436C296.918 61.812 296.824 62 296.636 62C294.693 62 293.127 61.9687 291.936 61.906L285.45 61.812L278.588 61.906C277.46 61.9687 275.987 62 274.17 62C273.982 62 273.888 61.812 273.888 61.436C273.888 61.06 273.982 60.872 274.17 60.872C276.614 60.872 278.4 60.7153 279.528 60.402C280.656 60.0887 281.408 59.4933 281.784 58.616C282.16 57.7387 282.348 56.3287 282.348 54.386V11.052L241.928 62.846C241.74 63.0967 241.364 63.222 240.8 63.222C239.86 63.222 239.39 63.0027 239.39 62.564V10.864C239.39 8.984 239.171 7.60533 238.732 6.728C238.356 5.85066 237.573 5.25533 236.382 4.942C235.254 4.566 233.499 4.378 231.118 4.378C230.993 4.378 230.93 4.19 230.93 3.814C230.93 3.438 230.993 3.25 231.118 3.25L236.006 3.344C238.638 3.46933 240.769 3.532 242.398 3.532C244.215 3.532 246.503 3.46933 249.26 3.344L253.678 3.25C253.866 3.25 253.96 3.438 253.96 3.814C253.96 4.19 253.866 4.378 253.678 4.378C251.234 4.378 249.448 4.566 248.32 4.942C247.192 5.25533 246.44 5.85066 246.064 6.728C245.688 7.60533 245.5 8.984 245.5 10.864V54.762L286.014 2.77999C286.202 2.592 286.547 2.498 287.048 2.498C287.988 2.498 288.458 2.71733 288.458 3.156V54.386C288.458 56.266 288.646 57.676 289.022 58.616C289.461 59.4933 290.244 60.0887 291.372 60.402C292.5 60.7153 294.255 60.872 296.636 60.872ZM356.002 60.872C356.127 60.872 356.19 61.06 356.19 61.436C356.19 61.812 356.127 62 356.002 62C354.373 62 353.088 61.9687 352.148 61.906L346.978 61.812L339.74 61.906C338.612 61.9687 337.077 62 335.134 62C335.009 62 334.946 61.812 334.946 61.436C334.946 61.06 335.009 60.872 335.134 60.872C336.826 60.872 338.048 60.7467 338.8 60.496C339.552 60.2453 339.928 59.838 339.928 59.274C339.928 58.71 339.646 58.0207 339.082 57.206L324.794 35.586L312.856 52.412C311.352 54.5427 310.6 56.266 310.6 57.582C310.6 59.7753 312.449 60.872 316.146 60.872C316.334 60.872 316.428 61.06 316.428 61.436C316.428 61.812 316.334 62 316.146 62C314.266 62 312.825 61.9687 311.822 61.906L305.336 61.812L301.388 61.906C300.699 61.9687 299.539 62 297.91 62C297.722 62 297.628 61.812 297.628 61.436C297.628 61.06 297.722 60.872 297.91 60.872C299.978 60.872 302.109 60.1513 304.302 58.71C306.495 57.2687 308.626 55.138 310.694 52.318L323.948 34.176L308.814 11.24C307.122 8.73333 305.461 6.97866 303.832 5.976C302.265 4.91066 300.417 4.378 298.286 4.378C298.161 4.378 298.098 4.19 298.098 3.814C298.098 3.438 298.161 3.25 298.286 3.25L301.858 3.344C303.487 3.46933 304.678 3.532 305.43 3.532C307.561 3.532 310.13 3.46933 313.138 3.344L318.026 3.25C318.214 3.25 318.308 3.438 318.308 3.814C318.308 4.19 318.214 4.378 318.026 4.378C316.397 4.378 315.175 4.50333 314.36 4.754C313.608 5.00466 313.232 5.44333 313.232 6.07C313.232 6.57133 313.514 7.26067 314.078 8.138L327.99 29.1L338.988 13.496C340.68 11.1147 341.526 9.172 341.526 7.668C341.526 5.47466 339.771 4.378 336.262 4.378C336.074 4.378 335.98 4.19 335.98 3.814C335.98 3.438 336.074 3.25 336.262 3.25L340.492 3.344C342.873 3.46933 345.035 3.532 346.978 3.532C348.106 3.532 349.422 3.46933 350.926 3.344L354.404 3.25C354.592 3.25 354.686 3.438 354.686 3.814C354.686 4.19 354.592 4.378 354.404 4.378C352.336 4.378 350.174 5.16133 347.918 6.728C345.662 8.29467 343.406 10.6133 341.15 13.684L328.836 30.51L344.534 54.198C346.163 56.642 347.824 58.3653 349.516 59.368C351.271 60.3707 353.433 60.872 356.002 60.872Z" fill="url(#paint0_linear_157_247)"/>
<defs>
<linearGradient id="paint0_linear_157_247" x1="366.179" y1="6.85209" x2="-15.0314" y2="28.1129" gradientUnits="userSpaceOnUse">
<stop stop-color="#7B5A35"/>
<stop offset="0.239832" stop-color="#A68F3C"/>
<stop offset="0.369925" stop-color="#F4E5B4"/>
<stop offset="0.536334" stop-color="#947650"/>
<stop offset="1" stop-color="#947650"/>
</linearGradient>
</defs>
</svg>
