<svg width="16" height="18" viewBox="0 0 16 18" fill="none" xmlns="http://www.w3.org/2000/svg">
<path d="M8 4.625C8.38281 4.625 8.73828 4.84375 8.92969 5.17188L14.8359 15.2344C15.0273 15.5898 15.0273 16 14.8359 16.3281C14.6445 16.6836 14.2891 16.875 13.9062 16.875H2.09375C1.68359 16.875 1.32812 16.6836 1.13672 16.3281C0.945312 16 0.945312 15.5898 1.13672 15.2344L7.04297 5.17188C7.23438 4.84375 7.58984 4.625 8 4.625ZM8 8.125C7.61719 8.125 7.34375 8.42578 7.34375 8.78125V11.8438C7.34375 12.2266 7.61719 12.5 8 12.5C8.35547 12.5 8.65625 12.2266 8.65625 11.8438V8.78125C8.65625 8.42578 8.35547 8.125 8 8.125ZM8.875 14.25C8.875 13.7852 8.46484 13.375 8 13.375C7.50781 13.375 7.125 13.7852 7.125 14.25C7.125 14.7422 7.50781 15.125 8 15.125C8.46484 15.125 8.875 14.7422 8.875 14.25Z" fill="#FBBF24"/>
</svg>
