<svg width="193" height="130" viewBox="0 0 193 130" fill="none" xmlns="http://www.w3.org/2000/svg">
<path d="M27.8672 17.4922L23.7891 29.5H70.2344L66.1562 17.4922C65.7031 16.1328 64.3438 15 62.7578 15H31.2656C29.6797 15 28.3203 16.1328 27.8672 17.4922ZM8.15625 31.0859L14.0469 12.9609C16.5391 5.48438 23.5625 0.5 31.2656 0.5H62.7578C70.4609 0.5 77.4844 5.48438 79.9766 12.9609L85.4141 29.5H82.0156C71.1406 29.5 61.3984 36.5234 58 46.9453L52.7891 62.3516C51.4297 63.4844 50.0703 64.6172 48.9375 65.75H18.125V73C18.125 77.0781 14.7266 80.25 10.875 80.25H7.25C3.17188 80.25 0 77.0781 0 73V65.75V44C0 38.3359 3.17188 33.3516 8.15625 31.0859ZM12.6875 47.625C12.6875 50.7969 14.9531 53.0625 18.125 53.0625C21.0703 53.0625 23.5625 50.7969 23.5625 47.625C23.5625 44.6797 21.0703 42.1875 18.125 42.1875C14.9531 42.1875 12.6875 44.6797 12.6875 47.625ZM82.0156 51.25C80.4297 51.25 79.0703 52.3828 78.6172 53.7422L74.5391 65.75H120.984L116.906 53.7422C116.453 52.3828 115.094 51.25 113.508 51.25H82.0156ZM64.7969 49.2109C67.2891 41.7344 74.3125 36.75 82.0156 36.75H113.508C121.211 36.75 128.234 41.7344 130.727 49.2109L136.617 67.3359C141.602 69.6016 145 74.5859 145 80.25V102V109.25C145 113.328 141.602 116.5 137.75 116.5H134.125C130.047 116.5 126.875 113.328 126.875 109.25V102H68.875V109.25C68.875 113.328 65.4766 116.5 61.625 116.5H58C53.9219 116.5 50.75 113.328 50.75 109.25V102V80.25C50.75 74.5859 53.9219 69.6016 58.9062 67.3359L64.7969 49.2109ZM68.875 78.4375C65.7031 78.4375 63.4375 80.9297 63.4375 83.875C63.4375 87.0469 65.7031 89.3125 68.875 89.3125C71.8203 89.3125 74.3125 87.0469 74.3125 83.875C74.3125 80.9297 71.8203 78.4375 68.875 78.4375ZM121.438 83.875C121.438 87.0469 123.703 89.3125 126.875 89.3125C129.82 89.3125 132.312 87.0469 132.312 83.875C132.312 80.9297 129.82 78.4375 126.875 78.4375C123.703 78.4375 121.438 80.9297 121.438 83.875Z" fill="#F6F7FA"/>
<rect x="138" y="75" width="50" height="50" rx="25" fill="#ECEFF3"/>
<rect x="138" y="75" width="50" height="50" rx="25" stroke="white" stroke-width="10"/>
<path d="M169.25 98.625C169.25 100.422 168.664 102.102 167.688 103.43L172.609 108.391C173.117 108.859 173.117 109.68 172.609 110.148C172.141 110.656 171.32 110.656 170.852 110.148L165.891 105.188C164.562 106.203 162.883 106.75 161.125 106.75C156.633 106.75 153 103.117 153 98.625C153 94.1719 156.633 90.5 161.125 90.5C165.578 90.5 169.25 94.1719 169.25 98.625ZM161.125 104.25C163.117 104.25 164.953 103.195 165.969 101.438C166.984 99.7188 166.984 97.5703 165.969 95.8125C164.953 94.0938 163.117 93 161.125 93C159.094 93 157.258 94.0938 156.242 95.8125C155.227 97.5703 155.227 99.7188 156.242 101.438C157.258 103.195 159.094 104.25 161.125 104.25Z" fill="white"/>
</svg>
