<svg width="20" height="17" viewBox="0 0 20 17" fill="none" xmlns="http://www.w3.org/2000/svg">
<path d="M3 4.5C3 3.09375 3.75 1.78125 5 1.0625C6.21875 0.34375 7.75 0.34375 9 1.0625C10.2188 1.78125 11 3.09375 11 4.5C11 5.9375 10.2188 7.25 9 7.96875C7.75 8.6875 6.21875 8.6875 5 7.96875C3.75 7.25 3 5.9375 3 4.5ZM0 15.5938C0 12.5 2.46875 10 5.5625 10H8.40625C11.5 10 14 12.5 14 15.5938C14 16.0938 13.5625 16.5 13.0625 16.5H0.90625C0.40625 16.5 0 16.0938 0 15.5938ZM15.75 10.25V8.25H13.75C13.3125 8.25 13 7.9375 13 7.5C13 7.09375 13.3125 6.75 13.75 6.75H15.75V4.75C15.75 4.34375 16.0625 4 16.5 4C16.9062 4 17.25 4.34375 17.25 4.75V6.75H19.25C19.6562 6.75 20 7.09375 20 7.5C20 7.9375 19.6562 8.25 19.25 8.25H17.25V10.25C17.25 10.6875 16.9062 11 16.5 11C16.0625 11 15.75 10.6875 15.75 10.25Z" fill="#4338CA"/>
</svg>
