<svg width="54" height="48" viewBox="0 0 54 48" fill="none" xmlns="http://www.w3.org/2000/svg">
<path d="M47.25 5.1875H6.75C5.80078 5.1875 5.0625 6.03125 5.0625 6.875V40.625V40.7305L5.48438 40.0977L13.9219 28.2852C14.4492 27.5469 15.1875 27.125 16.0312 27.125C16.7695 27.125 17.6133 27.5469 18.0352 28.1797L21.3047 32.7148L30.0586 21.4297C30.4805 20.7969 31.2188 20.375 32.0625 20.375C32.8008 20.375 33.5391 20.7969 34.0664 21.4297L48.4102 39.9922L48.9375 40.625V6.875C48.9375 6.03125 48.0938 5.1875 47.25 5.1875ZM6.75 0.125H47.25C50.9414 0.125 54 3.18359 54 6.875V40.625C54 44.4219 50.9414 47.375 47.25 47.375H6.75C2.95312 47.375 0 44.4219 0 40.625V6.875C0 3.18359 2.95312 0.125 6.75 0.125ZM15.1875 20.375C13.2891 20.375 11.707 19.4258 10.7578 17.8438C9.80859 16.3672 9.80859 14.3633 10.7578 12.7812C11.707 11.3047 13.2891 10.25 15.1875 10.25C16.9805 10.25 18.5625 11.3047 19.5117 12.7812C20.4609 14.3633 20.4609 16.3672 19.5117 17.8438C18.5625 19.4258 16.9805 20.375 15.1875 20.375Z" fill="#F6F7FA"/>
</svg>
