<svg width="11" height="13" viewBox="0 0 11 13" fill="none" xmlns="http://www.w3.org/2000/svg">
<path d="M3.98438 1.71875L3.53906 2.375H6.9375L6.49219 1.71875C6.46875 1.67188 6.39844 1.625 6.32812 1.625H4.14844C4.07812 1.625 4.00781 1.67188 3.98438 1.71875ZM7.42969 1.08594L8.29688 2.375H8.625H9.75H9.9375C10.2422 2.375 10.5 2.63281 10.5 2.9375C10.5 3.26562 10.2422 3.5 9.9375 3.5H9.75V10.625C9.75 11.6797 8.90625 12.5 7.875 12.5H2.625C1.57031 12.5 0.75 11.6797 0.75 10.625V3.5H0.5625C0.234375 3.5 0 3.26562 0 2.9375C0 2.63281 0.234375 2.375 0.5625 2.375H0.75H1.875H2.17969L3.04688 1.08594C3.28125 0.734375 3.70312 0.5 4.14844 0.5H6.32812C6.77344 0.5 7.19531 0.734375 7.42969 1.08594ZM1.875 3.5V10.625C1.875 11.0469 2.20312 11.375 2.625 11.375H7.875C8.27344 11.375 8.625 11.0469 8.625 10.625V3.5H1.875ZM3.75 5V9.875C3.75 10.0859 3.5625 10.25 3.375 10.25C3.16406 10.25 3 10.0859 3 9.875V5C3 4.8125 3.16406 4.625 3.375 4.625C3.5625 4.625 3.75 4.8125 3.75 5ZM5.625 5V9.875C5.625 10.0859 5.4375 10.25 5.25 10.25C5.03906 10.25 4.875 10.0859 4.875 9.875V5C4.875 4.8125 5.03906 4.625 5.25 4.625C5.4375 4.625 5.625 4.8125 5.625 5ZM7.5 5V9.875C7.5 10.0859 7.3125 10.25 7.125 10.25C6.91406 10.25 6.75 10.0859 6.75 9.875V5C6.75 4.8125 6.91406 4.625 7.125 4.625C7.3125 4.625 7.5 4.8125 7.5 5Z" fill="#1D1F24"/>
</svg>
