<svg width="596" height="130" viewBox="0 0 596 130" fill="none" xmlns="http://www.w3.org/2000/svg">
<path d="M261.75 0.5H327C334.93 0.5 341.5 7.07031 341.5 15V102C341.5 110.156 334.93 116.5 327 116.5H261.75C253.594 116.5 247.25 110.156 247.25 102V15C247.25 7.07031 253.594 0.5 261.75 0.5ZM287.125 65.75C276.93 65.75 269 73.9062 269 83.875C269 85.9141 270.586 87.5 272.625 87.5H316.125C317.938 87.5 319.75 85.9141 319.75 83.875C319.75 73.9062 311.594 65.75 301.625 65.75H287.125ZM279.875 44C279.875 49.2109 282.594 53.9688 287.125 56.6875C291.43 59.1797 297.094 59.1797 301.625 56.6875C305.93 53.9688 308.875 49.2109 308.875 44C308.875 39.0156 305.93 34.2578 301.625 31.5391C297.094 29.0469 291.43 29.0469 287.125 31.5391C282.594 34.2578 279.875 39.0156 279.875 44ZM356 18.625V33.125C356 35.1641 354.188 36.75 352.375 36.75C350.336 36.75 348.75 35.1641 348.75 33.125V18.625C348.75 16.8125 350.336 15 352.375 15C354.188 15 356 16.8125 356 18.625ZM352.375 44C354.188 44 356 45.8125 356 47.625V62.125C356 64.1641 354.188 65.75 352.375 65.75C350.336 65.75 348.75 64.1641 348.75 62.125V47.625C348.75 45.8125 350.336 44 352.375 44ZM356 76.625V91.125C356 93.1641 354.188 94.75 352.375 94.75C350.336 94.75 348.75 93.1641 348.75 91.125V76.625C348.75 74.8125 350.336 73 352.375 73C354.188 73 356 74.8125 356 76.625Z" fill="#F6F7FA"/>
<rect x="328" y="75" width="50" height="50" rx="25" fill="#ECEFF3"/>
<rect x="328" y="75" width="50" height="50" rx="25" stroke="white" stroke-width="10"/>
<path d="M359.25 98.625C359.25 100.422 358.664 102.102 357.688 103.43L362.609 108.391C363.117 108.859 363.117 109.68 362.609 110.148C362.141 110.656 361.32 110.656 360.852 110.148L355.891 105.188C354.562 106.203 352.883 106.75 351.125 106.75C346.633 106.75 343 103.117 343 98.625C343 94.1719 346.633 90.5 351.125 90.5C355.578 90.5 359.25 94.1719 359.25 98.625ZM351.125 104.25C353.117 104.25 354.953 103.195 355.969 101.438C356.984 99.7188 356.984 97.5703 355.969 95.8125C354.953 94.0938 353.117 93 351.125 93C349.094 93 347.258 94.0938 346.242 95.8125C345.227 97.5703 345.227 99.7188 346.242 101.438C347.258 103.195 349.094 104.25 351.125 104.25Z" fill="white"/>
</svg>
