<svg width="612" height="130" viewBox="0 0 612 130" fill="none" xmlns="http://www.w3.org/2000/svg">
<path d="M240.5 22.25C240.5 14.3203 246.844 7.75 255 7.75H356.5C364.43 7.75 371 14.3203 371 22.25V94.75C371 102.906 364.43 109.25 356.5 109.25H255C246.844 109.25 240.5 102.906 240.5 94.75V22.25ZM269.5 65.75C273.352 65.75 276.75 62.5781 276.75 58.5C276.75 54.6484 273.352 51.25 269.5 51.25C265.422 51.25 262.25 54.6484 262.25 58.5C262.25 62.5781 265.422 65.75 269.5 65.75ZM276.75 36.75C276.75 32.8984 273.352 29.5 269.5 29.5C265.422 29.5 262.25 32.8984 262.25 36.75C262.25 40.8281 265.422 44 269.5 44C273.352 44 276.75 40.8281 276.75 36.75ZM269.5 87.5C273.352 87.5 276.75 84.3281 276.75 80.25C276.75 76.3984 273.352 73 269.5 73C265.422 73 262.25 76.3984 262.25 80.25C262.25 84.3281 265.422 87.5 269.5 87.5ZM291.25 31.3125C288.078 31.3125 285.812 33.8047 285.812 36.75C285.812 39.9219 288.078 42.1875 291.25 42.1875H342C344.945 42.1875 347.438 39.9219 347.438 36.75C347.438 33.8047 344.945 31.3125 342 31.3125H291.25ZM291.25 53.0625C288.078 53.0625 285.812 55.5547 285.812 58.5C285.812 61.6719 288.078 63.9375 291.25 63.9375H342C344.945 63.9375 347.438 61.6719 347.438 58.5C347.438 55.5547 344.945 53.0625 342 53.0625H291.25ZM291.25 74.8125C288.078 74.8125 285.812 77.3047 285.812 80.25C285.812 83.4219 288.078 85.6875 291.25 85.6875H342C344.945 85.6875 347.438 83.4219 347.438 80.25C347.438 77.3047 344.945 74.8125 342 74.8125H291.25Z" fill="#F6F7FA"/>
<rect x="328.5" y="75" width="50" height="50" rx="25" fill="#ECEFF3"/>
<rect x="328.5" y="75" width="50" height="50" rx="25" stroke="white" stroke-width="10"/>
<path d="M359.75 98.625C359.75 100.422 359.164 102.102 358.188 103.43L363.109 108.391C363.617 108.859 363.617 109.68 363.109 110.148C362.641 110.656 361.82 110.656 361.352 110.148L356.391 105.188C355.062 106.203 353.383 106.75 351.625 106.75C347.133 106.75 343.5 103.117 343.5 98.625C343.5 94.1719 347.133 90.5 351.625 90.5C356.078 90.5 359.75 94.1719 359.75 98.625ZM351.625 104.25C353.617 104.25 355.453 103.195 356.469 101.438C357.484 99.7188 357.484 97.5703 356.469 95.8125C355.453 94.0938 353.617 93 351.625 93C349.594 93 347.758 94.0938 346.742 95.8125C345.727 97.5703 345.727 99.7188 346.742 101.438C347.758 103.195 349.594 104.25 351.625 104.25Z" fill="white"/>
</svg>
