<svg width="131" height="117" viewBox="0 0 131 117" fill="none" xmlns="http://www.w3.org/2000/svg">
<path d="M130.773 58.5C130.773 62.5781 127.375 65.75 123.523 65.75H116.273L116.5 102C116.5 110.156 110.156 116.727 102 116.727H29.5C21.3438 116.727 15 110.156 15 102.227V65.75H7.75C3.67188 65.75 0.5 62.5781 0.5 58.5C0.5 56.4609 1.17969 54.6484 2.76562 53.0625L60.7656 2.3125C62.3516 0.726562 64.1641 0.5 65.75 0.5C67.3359 0.5 69.1484 0.953125 70.5078 2.08594L128.281 53.0625C130.094 54.6484 131 56.4609 130.773 58.5ZM80.25 51.25C80.25 46.2656 77.3047 41.5078 73 38.7891C68.4688 36.2969 62.8047 36.2969 58.5 38.7891C53.9688 41.5078 51.25 46.2656 51.25 51.25C51.25 56.4609 53.9688 61.2188 58.5 63.9375C62.8047 66.4297 68.4688 66.4297 73 63.9375C77.3047 61.2188 80.25 56.4609 80.25 51.25ZM58.5 73C48.3047 73 40.375 81.1562 40.375 91.125C40.375 93.1641 41.9609 94.75 44 94.75H87.5C89.3125 94.75 91.125 93.1641 91.125 91.125C91.125 81.1562 82.9688 73 73 73H58.5Z" fill="#F6F7FA"/>
</svg>
