<svg width="20" height="17" viewBox="0 0 20 17" fill="none" xmlns="http://www.w3.org/2000/svg">
<path d="M7 8.5C5.5625 8.5 4.25 7.75 3.53125 6.5C2.8125 5.28125 2.8125 3.75 3.53125 2.5C4.25 1.28125 5.5625 0.5 7 0.5C8.40625 0.5 9.71875 1.28125 10.4375 2.5C11.1562 3.75 11.1562 5.28125 10.4375 6.5C9.71875 7.75 8.40625 8.5 7 8.5ZM5.5625 10H8.40625C8.96875 10 9.5 10.0938 10 10.25V11.2812C10 11.9375 10.25 12.5625 10.7188 13.0312L13.8125 16.125C13.6562 16.375 13.375 16.5 13.0625 16.5H0.90625C0.40625 16.5 0 16.0938 0 15.5938C0 12.5 2.46875 10 5.5625 10ZM12 7.5H14.5625C15.0938 7.5 15.625 7.71875 16 8.09375L19.3438 11.4375C19.9375 12.0312 19.9375 13 19.3438 13.5625L17.0625 15.875C16.4688 16.4375 15.5 16.4375 14.9375 15.875L11.5625 12.5C11.1875 12.125 11 11.625 11 11.0938V8.5C11 7.96875 11.4375 7.5 12 7.5ZM12.75 10C12.75 10.4375 13.0625 10.75 13.5 10.75C13.9062 10.75 14.25 10.4375 14.25 10C14.25 9.59375 13.9062 9.25 13.5 9.25C13.0625 9.25 12.75 9.59375 12.75 10Z" fill="#5D923D"/>
</svg>
