<svg width="85" height="32" viewBox="0 0 85 32" fill="none" xmlns="http://www.w3.org/2000/svg">
<rect width="32" height="32" rx="8" fill="#4338CA"/>
<rect x="8" y="8" width="16" height="16" rx="8" fill="white"/>
<path d="M40.462 8.072C40.462 7.10133 40.672 6.238 41.092 5.482C41.512 4.71667 42.0953 4.124 42.842 3.704C43.598 3.27467 44.452 3.06 45.404 3.06C46.5707 3.06 47.5693 3.368 48.4 3.984C49.2307 4.6 49.786 5.44 50.066 6.504H47.434C47.238 6.09333 46.958 5.78067 46.594 5.566C46.2393 5.35133 45.8333 5.244 45.376 5.244C44.6387 5.244 44.0413 5.50067 43.584 6.014C43.1267 6.52733 42.898 7.21333 42.898 8.072C42.898 8.93067 43.1267 9.61667 43.584 10.13C44.0413 10.6433 44.6387 10.9 45.376 10.9C45.8333 10.9 46.2393 10.7927 46.594 10.578C46.958 10.3633 47.238 10.0507 47.434 9.64H50.066C49.786 10.704 49.2307 11.544 48.4 12.16C47.5693 12.7667 46.5707 13.07 45.404 13.07C44.452 13.07 43.598 12.86 42.842 12.44C42.0953 12.0107 41.512 11.418 41.092 10.662C40.672 9.906 40.462 9.04267 40.462 8.072ZM54.0661 5.09V7.078H57.2721V8.926H54.0661V11.082H57.6921V13H51.6721V3.172H57.6921V5.09H54.0661ZM64.3983 13L62.3543 9.29H61.7803V13H59.3863V3.172H63.4043C64.1789 3.172 64.8369 3.30733 65.3783 3.578C65.9289 3.84867 66.3396 4.222 66.6103 4.698C66.8809 5.16467 67.0163 5.68733 67.0163 6.266C67.0163 6.91933 66.8296 7.50267 66.4563 8.016C66.0923 8.52933 65.5509 8.89333 64.8323 9.108L67.1003 13H64.3983ZM61.7803 7.596H63.2643C63.7029 7.596 64.0296 7.48867 64.2443 7.274C64.4683 7.05933 64.5803 6.756 64.5803 6.364C64.5803 5.99067 64.4683 5.69667 64.2443 5.482C64.0296 5.26733 63.7029 5.16 63.2643 5.16H61.7803V7.596ZM75.7291 3.172V5.09H73.1251V13H70.7311V5.09H68.1271V3.172H75.7291ZM79.4646 3.172V13H77.0706V3.172H79.4646ZM82.4595 13.112C82.0395 13.112 81.6942 12.9907 81.4235 12.748C81.1622 12.496 81.0315 12.188 81.0315 11.824C81.0315 11.4507 81.1622 11.138 81.4235 10.886C81.6942 10.634 82.0395 10.508 82.4595 10.508C82.8702 10.508 83.2062 10.634 83.4675 10.886C83.7382 11.138 83.8735 11.4507 83.8735 11.824C83.8735 12.188 83.7382 12.496 83.4675 12.748C83.2062 12.9907 82.8702 13.112 82.4595 13.112ZM40.462 24.072C40.462 23.1013 40.672 22.238 41.092 21.482C41.512 20.7167 42.0953 20.124 42.842 19.704C43.598 19.2747 44.452 19.06 45.404 19.06C46.5707 19.06 47.5693 19.368 48.4 19.984C49.2307 20.6 49.786 21.44 50.066 22.504H47.434C47.238 22.0933 46.958 21.7807 46.594 21.566C46.2393 21.3513 45.8333 21.244 45.376 21.244C44.6387 21.244 44.0413 21.5007 43.584 22.014C43.1267 22.5273 42.898 23.2133 42.898 24.072C42.898 24.9307 43.1267 25.6167 43.584 26.13C44.0413 26.6433 44.6387 26.9 45.376 26.9C45.8333 26.9 46.2393 26.7927 46.594 26.578C46.958 26.3633 47.238 26.0507 47.434 25.64H50.066C49.786 26.704 49.2307 27.544 48.4 28.16C47.5693 28.7667 46.5707 29.07 45.404 29.07C44.452 29.07 43.598 28.86 42.842 28.44C42.0953 28.0107 41.512 27.418 41.092 26.662C40.672 25.906 40.462 25.0427 40.462 24.072ZM57.7901 27.264H54.1221L53.5341 29H51.0281L54.5841 19.172H57.3561L60.9121 29H58.3781L57.7901 27.264ZM57.1741 25.416L55.9561 21.818L54.7521 25.416H57.1741ZM67.1463 29L65.1023 25.29H64.5283V29H62.1343V19.172H66.1523C66.927 19.172 67.585 19.3073 68.1263 19.578C68.677 19.8487 69.0877 20.222 69.3583 20.698C69.629 21.1647 69.7643 21.6873 69.7643 22.266C69.7643 22.9193 69.5777 23.5027 69.2043 24.016C68.8403 24.5293 68.299 24.8933 67.5803 25.108L69.8483 29H67.1463ZM64.5283 23.596H66.0123C66.451 23.596 66.7777 23.4887 66.9923 23.274C67.2163 23.0593 67.3283 22.756 67.3283 22.364C67.3283 21.9907 67.2163 21.6967 66.9923 21.482C66.7777 21.2673 66.451 21.16 66.0123 21.16H64.5283V23.596Z" fill="#1D1F24"/>
</svg>
