<svg width="14" height="14" viewBox="0 0 14 14" fill="none" xmlns="http://www.w3.org/2000/svg">
<rect width="14" height="14" rx="7" fill="#D0DBFF"/>
<path d="M9.92969 5.19922L7.87891 7.25L9.92969 9.32031C10.1836 9.55469 10.1836 9.96484 9.92969 10.1992C9.69531 10.4531 9.28516 10.4531 9.05078 10.1992L7 8.14844L4.92969 10.1992C4.69531 10.4531 4.28516 10.4531 4.05078 10.1992C3.79688 9.96484 3.79688 9.55469 4.05078 9.32031L6.10156 7.25L4.05078 5.19922C3.79688 4.96484 3.79688 4.55469 4.05078 4.32031C4.28516 4.06641 4.69531 4.06641 4.92969 4.32031L7 6.37109L9.05078 4.32031C9.28516 4.06641 9.69531 4.06641 9.92969 4.32031C10.1836 4.55469 10.1836 4.96484 9.92969 5.19922Z" fill="#4338CA"/>
</svg>
