<svg width="24" height="24" viewBox="0 0 24 24" fill="none" xmlns="http://www.w3.org/2000/svg">
<mask id="path-1-inside-1_2022_14288" fill="white">
<path d="M2.775 11.5492C2.8144 11.5787 2.85923 11.6002 2.90693 11.6125C2.95464 11.6247 3.00428 11.6274 3.05303 11.6204C3.10179 11.6135 3.14869 11.597 3.19106 11.5719C3.23344 11.5468 3.27045 11.5136 3.3 11.4742C3.78902 10.8222 4.42314 10.2929 5.15213 9.92844C5.88112 9.56395 6.68497 9.37419 7.5 9.37419C8.31504 9.37419 9.11888 9.56395 9.84787 9.92844C10.5769 10.2929 11.211 10.8222 11.7 11.4742C11.7341 11.5216 11.779 11.5602 11.831 11.5869C11.883 11.6135 11.9406 11.6274 11.9991 11.6274C12.0575 11.6274 12.1151 11.6135 12.1671 11.5869C12.2191 11.5602 12.264 11.5216 12.2981 11.4742C12.7871 10.8222 13.4213 10.2929 14.1503 9.92844C14.8792 9.56395 15.6831 9.37419 16.4981 9.37419C17.3132 9.37419 18.117 9.56395 18.846 9.92844C19.575 10.2929 20.2091 10.8222 20.6981 11.4742C20.7277 11.5136 20.7647 11.5468 20.8071 11.5719C20.8494 11.597 20.8963 11.6135 20.9451 11.6204C20.9938 11.6274 21.0435 11.6247 21.0912 11.6125C21.1389 11.6002 21.1837 11.5787 21.2231 11.5492C21.2625 11.5196 21.2957 11.4826 21.3208 11.4402C21.3459 11.3979 21.3624 11.351 21.3694 11.3022C21.3763 11.2535 21.3736 11.2038 21.3614 11.1561C21.3492 11.1084 21.3277 11.0636 21.2981 11.0242C20.5375 10.0029 19.4697 9.25209 18.2513 8.882C18.8805 8.49947 19.3674 7.92161 19.6377 7.23656C19.9079 6.55152 19.9467 5.79688 19.748 5.08775C19.5494 4.37862 19.1243 3.75391 18.5375 3.30891C17.9508 2.86391 17.2346 2.62305 16.4981 2.62305C15.7617 2.62305 15.0455 2.86391 14.4587 3.30891C13.872 3.75391 13.4468 4.37862 13.2482 5.08775C13.0496 5.79688 13.0883 6.55152 13.3586 7.23656C13.6288 7.92161 14.1157 8.49947 14.745 8.882C13.6807 9.20686 12.7289 9.82403 11.9981 10.6632C11.2675 9.82384 10.3157 9.20663 9.25125 8.882C9.88053 8.49947 10.3674 7.92161 10.6377 7.23656C10.9079 6.55152 10.9467 5.79688 10.748 5.08775C10.5494 4.37862 10.1243 3.75391 9.53753 3.30891C8.95077 2.86391 8.23455 2.62305 7.49813 2.62305C6.7617 2.62305 6.04549 2.86391 5.45872 3.30891C4.87195 3.75391 4.44683 4.37862 4.24821 5.08775C4.04958 5.79688 4.08834 6.55152 4.35859 7.23656C4.62883 7.92161 5.11572 8.49947 5.745 8.882C4.5274 9.25281 3.46038 10.0035 2.7 11.0242C2.64033 11.1038 2.61471 11.2038 2.62877 11.3022C2.64284 11.4007 2.69544 11.4895 2.775 11.5492ZM13.875 5.99919C13.875 5.48001 14.029 4.97249 14.3174 4.54081C14.6058 4.10914 15.0158 3.77268 15.4955 3.574C15.9751 3.37532 16.5029 3.32334 17.0121 3.42462C17.5213 3.52591 17.989 3.77592 18.3562 4.14303C18.7233 4.51014 18.9733 4.97787 19.0746 5.48707C19.1758 5.99627 19.1239 6.52407 18.9252 7.00373C18.7265 7.48339 18.3901 7.89336 17.9584 8.18179C17.5267 8.47023 17.0192 8.62419 16.5 8.62419C15.8038 8.62419 15.1361 8.34762 14.6438 7.85534C14.1516 7.36306 13.875 6.69538 13.875 5.99919ZM4.875 5.99919C4.875 5.48001 5.02896 4.97249 5.31739 4.54081C5.60583 4.10914 6.0158 3.77268 6.49546 3.574C6.97511 3.37532 7.50291 3.32334 8.01211 3.42462C8.52131 3.52591 8.98904 3.77592 9.35616 4.14303C9.72327 4.51014 9.97328 4.97787 10.0746 5.48707C10.1758 5.99627 10.1239 6.52407 9.92519 7.00373C9.72651 7.48339 9.39005 7.89336 8.95837 8.18179C8.52669 8.47023 8.01918 8.62419 7.5 8.62419C6.80381 8.62419 6.13613 8.34762 5.64385 7.85534C5.15156 7.36306 4.875 6.69538 4.875 5.99919ZM18.2531 18.632C18.8824 18.2495 19.3693 17.6716 19.6395 16.9866C19.9098 16.3015 19.9485 15.5469 19.7499 14.8377C19.5513 14.1286 19.1262 13.5039 18.5394 13.0589C17.9526 12.6139 17.2364 12.373 16.5 12.373C15.7636 12.373 15.0474 12.6139 14.4606 13.0589C13.8738 13.5039 13.4487 14.1286 13.2501 14.8377C13.0515 15.5469 13.0902 16.3015 13.3605 16.9866C13.6307 17.6716 14.1176 18.2495 14.7469 18.632C13.6831 18.9556 12.7314 19.5711 12 20.4086C11.2688 19.5709 10.317 18.9553 9.25313 18.632C9.8824 18.2495 10.3693 17.6716 10.6395 16.9866C10.9098 16.3015 10.9485 15.5469 10.7499 14.8377C10.5513 14.1286 10.1262 13.5039 9.53941 13.0589C8.95264 12.6139 8.23643 12.373 7.5 12.373C6.76358 12.373 6.04736 12.6139 5.46059 13.0589C4.87383 13.5039 4.44871 14.1286 4.25008 14.8377C4.05145 15.5469 4.09022 16.3015 4.36046 16.9866C4.63071 17.6716 5.1176 18.2495 5.74688 18.632C4.52859 19.0024 3.46087 19.7531 2.7 20.7742C2.64033 20.8538 2.61471 20.9538 2.62877 21.0522C2.64284 21.1507 2.69544 21.2395 2.775 21.2992C2.85457 21.3589 2.95458 21.3845 3.05303 21.3704C3.15149 21.3564 3.24033 21.3037 3.3 21.2242C3.78902 20.5722 4.42314 20.0429 5.15213 19.6784C5.88112 19.3139 6.68497 19.1242 7.5 19.1242C8.31504 19.1242 9.11888 19.3139 9.84787 19.6784C10.5769 20.0429 11.211 20.5722 11.7 21.2242C11.7341 21.2716 11.779 21.3102 11.831 21.3369C11.883 21.3635 11.9406 21.3774 11.9991 21.3774C12.0575 21.3774 12.1151 21.3635 12.1671 21.3369C12.2191 21.3102 12.264 21.2716 12.2981 21.2242C12.7871 20.5722 13.4213 20.0429 14.1503 19.6784C14.8792 19.3139 15.6831 19.1242 16.4981 19.1242C17.3132 19.1242 18.117 19.3139 18.846 19.6784C19.575 20.0429 20.2091 20.5722 20.6981 21.2242C20.7578 21.3037 20.8466 21.3564 20.9451 21.3704C21.0436 21.3845 21.1436 21.3589 21.2231 21.2992C21.3027 21.2395 21.3553 21.1507 21.3694 21.0522C21.3834 20.9538 21.3578 20.8538 21.2981 20.7742C20.538 19.7532 19.4709 19.0024 18.2531 18.632ZM4.875 15.7492C4.875 15.23 5.02896 14.7225 5.31739 14.2908C5.60583 13.8591 6.0158 13.5227 6.49546 13.324C6.97511 13.1253 7.50291 13.0733 8.01211 13.1746C8.52131 13.2759 8.98904 13.5259 9.35616 13.893C9.72327 14.2601 9.97328 14.7279 10.0746 15.2371C10.1758 15.7463 10.1239 16.2741 9.92519 16.7537C9.72651 17.2334 9.39005 17.6434 8.95837 17.9318C8.52669 18.2202 8.01918 18.3742 7.5 18.3742C6.80381 18.3742 6.13613 18.0976 5.64385 17.6053C5.15156 17.1131 4.875 16.4454 4.875 15.7492ZM13.875 15.7492C13.875 15.23 14.029 14.7225 14.3174 14.2908C14.6058 13.8591 15.0158 13.5227 15.4955 13.324C15.9751 13.1253 16.5029 13.0733 17.0121 13.1746C17.5213 13.2759 17.989 13.5259 18.3562 13.893C18.7233 14.2601 18.9733 14.7279 19.0746 15.2371C19.1758 15.7463 19.1239 16.2741 18.9252 16.7537C18.7265 17.2334 18.3901 17.6434 17.9584 17.9318C17.5267 18.2202 17.0192 18.3742 16.5 18.3742C15.8038 18.3742 15.1361 18.0976 14.6438 17.6053C14.1516 17.1131 13.875 16.4454 13.875 15.7492Z"/>
</mask>
<path d="M2.775 11.5492C2.8144 11.5787 2.85923 11.6002 2.90693 11.6125C2.95464 11.6247 3.00428 11.6274 3.05303 11.6204C3.10179 11.6135 3.14869 11.597 3.19106 11.5719C3.23344 11.5468 3.27045 11.5136 3.3 11.4742C3.78902 10.8222 4.42314 10.2929 5.15213 9.92844C5.88112 9.56395 6.68497 9.37419 7.5 9.37419C8.31504 9.37419 9.11888 9.56395 9.84787 9.92844C10.5769 10.2929 11.211 10.8222 11.7 11.4742C11.7341 11.5216 11.779 11.5602 11.831 11.5869C11.883 11.6135 11.9406 11.6274 11.9991 11.6274C12.0575 11.6274 12.1151 11.6135 12.1671 11.5869C12.2191 11.5602 12.264 11.5216 12.2981 11.4742C12.7871 10.8222 13.4213 10.2929 14.1503 9.92844C14.8792 9.56395 15.6831 9.37419 16.4981 9.37419C17.3132 9.37419 18.117 9.56395 18.846 9.92844C19.575 10.2929 20.2091 10.8222 20.6981 11.4742C20.7277 11.5136 20.7647 11.5468 20.8071 11.5719C20.8494 11.597 20.8963 11.6135 20.9451 11.6204C20.9938 11.6274 21.0435 11.6247 21.0912 11.6125C21.1389 11.6002 21.1837 11.5787 21.2231 11.5492C21.2625 11.5196 21.2957 11.4826 21.3208 11.4402C21.3459 11.3979 21.3624 11.351 21.3694 11.3022C21.3763 11.2535 21.3736 11.2038 21.3614 11.1561C21.3492 11.1084 21.3277 11.0636 21.2981 11.0242C20.5375 10.0029 19.4697 9.25209 18.2513 8.882C18.8805 8.49947 19.3674 7.92161 19.6377 7.23656C19.9079 6.55152 19.9467 5.79688 19.748 5.08775C19.5494 4.37862 19.1243 3.75391 18.5375 3.30891C17.9508 2.86391 17.2346 2.62305 16.4981 2.62305C15.7617 2.62305 15.0455 2.86391 14.4587 3.30891C13.872 3.75391 13.4468 4.37862 13.2482 5.08775C13.0496 5.79688 13.0883 6.55152 13.3586 7.23656C13.6288 7.92161 14.1157 8.49947 14.745 8.882C13.6807 9.20686 12.7289 9.82403 11.9981 10.6632C11.2675 9.82384 10.3157 9.20663 9.25125 8.882C9.88053 8.49947 10.3674 7.92161 10.6377 7.23656C10.9079 6.55152 10.9467 5.79688 10.748 5.08775C10.5494 4.37862 10.1243 3.75391 9.53753 3.30891C8.95077 2.86391 8.23455 2.62305 7.49813 2.62305C6.7617 2.62305 6.04549 2.86391 5.45872 3.30891C4.87195 3.75391 4.44683 4.37862 4.24821 5.08775C4.04958 5.79688 4.08834 6.55152 4.35859 7.23656C4.62883 7.92161 5.11572 8.49947 5.745 8.882C4.5274 9.25281 3.46038 10.0035 2.7 11.0242C2.64033 11.1038 2.61471 11.2038 2.62877 11.3022C2.64284 11.4007 2.69544 11.4895 2.775 11.5492ZM13.875 5.99919C13.875 5.48001 14.029 4.97249 14.3174 4.54081C14.6058 4.10914 15.0158 3.77268 15.4955 3.574C15.9751 3.37532 16.5029 3.32334 17.0121 3.42462C17.5213 3.52591 17.989 3.77592 18.3562 4.14303C18.7233 4.51014 18.9733 4.97787 19.0746 5.48707C19.1758 5.99627 19.1239 6.52407 18.9252 7.00373C18.7265 7.48339 18.3901 7.89336 17.9584 8.18179C17.5267 8.47023 17.0192 8.62419 16.5 8.62419C15.8038 8.62419 15.1361 8.34762 14.6438 7.85534C14.1516 7.36306 13.875 6.69538 13.875 5.99919ZM4.875 5.99919C4.875 5.48001 5.02896 4.97249 5.31739 4.54081C5.60583 4.10914 6.0158 3.77268 6.49546 3.574C6.97511 3.37532 7.50291 3.32334 8.01211 3.42462C8.52131 3.52591 8.98904 3.77592 9.35616 4.14303C9.72327 4.51014 9.97328 4.97787 10.0746 5.48707C10.1758 5.99627 10.1239 6.52407 9.92519 7.00373C9.72651 7.48339 9.39005 7.89336 8.95837 8.18179C8.52669 8.47023 8.01918 8.62419 7.5 8.62419C6.80381 8.62419 6.13613 8.34762 5.64385 7.85534C5.15156 7.36306 4.875 6.69538 4.875 5.99919ZM18.2531 18.632C18.8824 18.2495 19.3693 17.6716 19.6395 16.9866C19.9098 16.3015 19.9485 15.5469 19.7499 14.8377C19.5513 14.1286 19.1262 13.5039 18.5394 13.0589C17.9526 12.6139 17.2364 12.373 16.5 12.373C15.7636 12.373 15.0474 12.6139 14.4606 13.0589C13.8738 13.5039 13.4487 14.1286 13.2501 14.8377C13.0515 15.5469 13.0902 16.3015 13.3605 16.9866C13.6307 17.6716 14.1176 18.2495 14.7469 18.632C13.6831 18.9556 12.7314 19.5711 12 20.4086C11.2688 19.5709 10.317 18.9553 9.25313 18.632C9.8824 18.2495 10.3693 17.6716 10.6395 16.9866C10.9098 16.3015 10.9485 15.5469 10.7499 14.8377C10.5513 14.1286 10.1262 13.5039 9.53941 13.0589C8.95264 12.6139 8.23643 12.373 7.5 12.373C6.76358 12.373 6.04736 12.6139 5.46059 13.0589C4.87383 13.5039 4.44871 14.1286 4.25008 14.8377C4.05145 15.5469 4.09022 16.3015 4.36046 16.9866C4.63071 17.6716 5.1176 18.2495 5.74688 18.632C4.52859 19.0024 3.46087 19.7531 2.7 20.7742C2.64033 20.8538 2.61471 20.9538 2.62877 21.0522C2.64284 21.1507 2.69544 21.2395 2.775 21.2992C2.85457 21.3589 2.95458 21.3845 3.05303 21.3704C3.15149 21.3564 3.24033 21.3037 3.3 21.2242C3.78902 20.5722 4.42314 20.0429 5.15213 19.6784C5.88112 19.3139 6.68497 19.1242 7.5 19.1242C8.31504 19.1242 9.11888 19.3139 9.84787 19.6784C10.5769 20.0429 11.211 20.5722 11.7 21.2242C11.7341 21.2716 11.779 21.3102 11.831 21.3369C11.883 21.3635 11.9406 21.3774 11.9991 21.3774C12.0575 21.3774 12.1151 21.3635 12.1671 21.3369C12.2191 21.3102 12.264 21.2716 12.2981 21.2242C12.7871 20.5722 13.4213 20.0429 14.1503 19.6784C14.8792 19.3139 15.6831 19.1242 16.4981 19.1242C17.3132 19.1242 18.117 19.3139 18.846 19.6784C19.575 20.0429 20.2091 20.5722 20.6981 21.2242C20.7578 21.3037 20.8466 21.3564 20.9451 21.3704C21.0436 21.3845 21.1436 21.3589 21.2231 21.2992C21.3027 21.2395 21.3553 21.1507 21.3694 21.0522C21.3834 20.9538 21.3578 20.8538 21.2981 20.7742C20.538 19.7532 19.4709 19.0024 18.2531 18.632ZM4.875 15.7492C4.875 15.23 5.02896 14.7225 5.31739 14.2908C5.60583 13.8591 6.0158 13.5227 6.49546 13.324C6.97511 13.1253 7.50291 13.0733 8.01211 13.1746C8.52131 13.2759 8.98904 13.5259 9.35616 13.893C9.72327 14.2601 9.97328 14.7279 10.0746 15.2371C10.1758 15.7463 10.1239 16.2741 9.92519 16.7537C9.72651 17.2334 9.39005 17.6434 8.95837 17.9318C8.52669 18.2202 8.01918 18.3742 7.5 18.3742C6.80381 18.3742 6.13613 18.0976 5.64385 17.6053C5.15156 17.1131 4.875 16.4454 4.875 15.7492ZM13.875 15.7492C13.875 15.23 14.029 14.7225 14.3174 14.2908C14.6058 13.8591 15.0158 13.5227 15.4955 13.324C15.9751 13.1253 16.5029 13.0733 17.0121 13.1746C17.5213 13.2759 17.989 13.5259 18.3562 13.893C18.7233 14.2601 18.9733 14.7279 19.0746 15.2371C19.1758 15.7463 19.1239 16.2741 18.9252 16.7537C18.7265 17.2334 18.3901 17.6434 17.9584 17.9318C17.5267 18.2202 17.0192 18.3742 16.5 18.3742C15.8038 18.3742 15.1361 18.0976 14.6438 17.6053C14.1516 17.1131 13.875 16.4454 13.875 15.7492Z" fill="#4338CA" stroke="#4338CA" stroke-width="0.1875" mask="url(#path-1-inside-1_2022_14288)"/>
</svg>
