<svg width="24" height="24" viewBox="0 0 24 24" fill="none" xmlns="http://www.w3.org/2000/svg">
<mask id="mask0_2022_14295" style="mask-type:alpha" maskUnits="userSpaceOnUse" x="0" y="0" width="24" height="24">
<rect width="24" height="24" fill="#D9D9D9"/>
</mask>
<g mask="url(#mask0_2022_14295)">
<path d="M5.23078 17V18.5C5.23078 18.6417 5.18286 18.7604 5.08703 18.8562C4.99119 18.9521 4.87244 19 4.73078 19H4.5C4.35833 19 4.23958 18.9521 4.14375 18.8562C4.04792 18.7604 4 18.6417 4 18.5V11.1539L5.9846 5.5C6.03332 5.34102 6.12723 5.21794 6.26635 5.13078C6.40545 5.04359 6.56026 5 6.73077 5H17.3462C17.4975 5 17.635 5.04583 17.7585 5.1375C17.8819 5.22917 17.9676 5.35 18.0154 5.5L20 11.1539V18.5C20 18.6417 19.9521 18.7604 19.8562 18.8562C19.7604 18.9521 19.6417 19 19.5 19H19.2692C19.1276 19 19.0088 18.9521 18.913 18.8562C18.8171 18.7604 18.7692 18.6417 18.7692 18.5V17H5.23078ZM5.41538 10.1539H18.5846L17.1115 6H6.88845L5.41538 10.1539ZM7.4276 14.6923C7.73868 14.6923 8.0016 14.5834 8.21635 14.3657C8.4311 14.1479 8.53848 13.8835 8.53848 13.5724C8.53848 13.2613 8.42959 12.9984 8.21182 12.7837C7.99406 12.5689 7.72963 12.4615 7.41855 12.4615C7.10747 12.4615 6.84455 12.5704 6.6298 12.7882C6.41507 13.0059 6.3077 13.2704 6.3077 13.5815C6.3077 13.8925 6.41657 14.1554 6.63432 14.3702C6.85209 14.5849 7.11652 14.6923 7.4276 14.6923ZM16.5815 14.6923C16.8925 14.6923 17.1554 14.5834 17.3702 14.3657C17.5849 14.1479 17.6923 13.8835 17.6923 13.5724C17.6923 13.2613 17.5834 12.9984 17.3657 12.7837C17.1479 12.5689 16.8835 12.4615 16.5724 12.4615C16.2613 12.4615 15.9984 12.5704 15.7837 12.7882C15.5689 13.0059 15.4615 13.2704 15.4615 13.5815C15.4615 13.8925 15.5704 14.1554 15.7882 14.3702C16.0059 14.5849 16.2704 14.6923 16.5815 14.6923ZM5 16H19V11.1539H5V16Z" fill="#393D44"/>
</g>
</svg>
