<svg width="24" height="24" viewBox="0 0 24 24" fill="none" xmlns="http://www.w3.org/2000/svg">
<mask id="mask0_2022_14280" style="mask-type:alpha" maskUnits="userSpaceOnUse" x="0" y="0" width="24" height="24">
<rect width="24" height="24" fill="#D9D9D9"/>
</mask>
<g mask="url(#mask0_2022_14280)">
<path d="M6.95193 20C6.40972 20 5.94884 19.8105 5.5693 19.4316C5.18977 19.0527 5 18.5926 5 18.0513V5.98291C5 5.4321 5.18977 4.9639 5.5693 4.57833C5.94884 4.19278 6.40972 4 6.95193 4H16.0385V16.9914H6.95193C6.65914 16.9914 6.40645 17.0927 6.19387 17.2953C5.98129 17.4979 5.875 17.7489 5.875 18.0483C5.875 18.3477 5.98129 18.5997 6.19387 18.8043C6.40645 19.0088 6.65914 19.1111 6.95193 19.1111H18.125V5.77778H19V20H6.95193ZM8.83655 16.1026H15.1635V4.88889H8.83655V16.1026ZM7.96155 16.1026V4.88889H6.95193C6.6468 4.88889 6.39103 4.99687 6.18462 5.21282C5.97821 5.42878 5.875 5.68547 5.875 5.98291V16.4632C6.03205 16.3618 6.19938 16.2764 6.37701 16.2068C6.55462 16.1373 6.74626 16.1026 6.95193 16.1026H7.96155Z" fill="#393D44"/>
</g>
</svg>
