<svg width="24" height="24" viewBox="0 0 24 24" fill="none" xmlns="http://www.w3.org/2000/svg">
<path d="M16 19V17.6667C16 16.9594 15.6576 16.2811 15.0481 15.781C14.4386 15.281 13.612 15 12.75 15H6.25C5.38805 15 4.5614 15.281 3.9519 15.781C3.34241 16.2811 3 16.9594 3 17.6667V19" stroke="#393D44" stroke-linecap="round" stroke-linejoin="round"/>
<path d="M10 11C11.6569 11 13 9.65685 13 8C13 6.34315 11.6569 5 10 5C8.34315 5 7 6.34315 7 8C7 9.65685 8.34315 11 10 11Z" stroke="#393D44" stroke-linecap="round" stroke-linejoin="round"/>
<path d="M21 19V17.6371C20.9993 17.0332 20.7044 16.4465 20.1614 15.9692C19.6184 15.4919 18.8581 15.151 18 15" stroke="#393D44" stroke-linecap="round" stroke-linejoin="round"/>
<path d="M15 5C15.5721 5.17056 16.0792 5.55796 16.4413 6.10114C16.8034 6.64432 17 7.31238 17 8C17 8.68762 16.8034 9.35567 16.4413 9.89886C16.0792 10.442 15.5721 10.8294 15 11" stroke="#393D44" stroke-linecap="round" stroke-linejoin="round"/>
</svg>
