<svg width="8" height="7" viewBox="0 0 8 7" fill="none" xmlns="http://www.w3.org/2000/svg">
<path d="M6.92969 1.19922L4.87891 3.25L6.92969 5.32031C7.18359 5.55469 7.18359 5.96484 6.92969 6.19922C6.69531 6.45312 6.28516 6.45312 6.05078 6.19922L4 4.14844L1.92969 6.19922C1.69531 6.45312 1.28516 6.45312 1.05078 6.19922C0.796875 5.96484 0.796875 5.55469 1.05078 5.32031L3.10156 3.25L1.05078 1.19922C0.796875 0.964844 0.796875 0.554688 1.05078 0.320312C1.28516 0.0664062 1.69531 0.0664062 1.92969 0.320312L4 2.37109L6.05078 0.320312C6.28516 0.0664062 6.69531 0.0664062 6.92969 0.320312C7.18359 0.554688 7.18359 0.964844 6.92969 1.19922Z" fill="#4338CA"/>
</svg>
