<svg width="24" height="24" viewBox="0 0 24 24" fill="none" xmlns="http://www.w3.org/2000/svg">
<path d="M6.75 17.4375H13.75C13.9688 17.4375 14.1875 17.2461 14.1875 17V9.125H12C11.5078 9.125 11.125 8.74219 11.125 8.25V6.0625H6.75C6.50391 6.0625 6.3125 6.28125 6.3125 6.5V17C6.3125 17.2461 6.50391 17.4375 6.75 17.4375ZM6.75 4.75H11.2617C11.7266 4.75 12.1641 4.94141 12.4922 5.26953L14.9805 7.75781C15.3086 8.08594 15.5 8.52344 15.5 8.98828V17C15.5 17.9844 14.707 18.75 13.75 18.75H6.75C5.76562 18.75 5 17.9844 5 17V6.5C5 5.54297 5.76562 4.75 6.75 4.75ZM8.28125 11.75H12.2188C12.5742 11.75 12.875 12.0508 12.875 12.4062C12.875 12.7891 12.5742 13.0625 12.2188 13.0625H8.28125C7.89844 13.0625 7.625 12.7891 7.625 12.4062C7.625 12.0508 7.89844 11.75 8.28125 11.75ZM8.28125 14.375H12.2188C12.5742 14.375 12.875 14.6758 12.875 15.0312C12.875 15.4141 12.5742 15.6875 12.2188 15.6875H8.28125C7.89844 15.6875 7.625 15.4141 7.625 15.0312C7.625 14.6758 7.89844 14.375 8.28125 14.375Z" fill="#6B6E75"/>
</svg>
