<svg width="24" height="24" viewBox="0 0 24 24" fill="none" xmlns="http://www.w3.org/2000/svg">
<path d="M12 4.75C12.4648 4.75 12.9023 4.80469 13.3398 4.88672C13.5586 4.94141 13.9414 5.05078 14.1602 5.43359C14.2148 5.54297 14.2422 5.65234 14.2695 5.76172L14.543 6.82812C14.5703 6.96484 14.8438 7.12891 15.0078 7.07422L16.0469 6.77344C16.1562 6.74609 16.2656 6.71875 16.375 6.71875C16.8125 6.71875 17.1133 6.99219 17.25 7.15625C17.8516 7.83984 18.3164 8.63281 18.6172 9.50781C18.6992 9.72656 18.7812 10.1094 18.5352 10.4648C18.4805 10.5742 18.3984 10.6562 18.3164 10.7383L17.5508 11.5039C17.4141 11.6133 17.4141 11.9141 17.5508 12.0234L18.3164 12.7891C18.3984 12.8711 18.4805 12.9531 18.5352 13.0625C18.7539 13.418 18.6719 13.8008 18.6172 14.0195C18.3164 14.8945 17.8516 15.6875 17.25 16.3711C17.1133 16.5352 16.8125 16.8086 16.375 16.8086C16.2656 16.8086 16.1562 16.7812 16.0469 16.7539L15.0078 16.4258C14.8438 16.3984 14.5703 16.5352 14.543 16.6992L14.2695 17.7656C14.2422 17.875 14.2148 17.9844 14.1602 18.0938C13.9414 18.4766 13.5586 18.5859 13.3398 18.6406C12.9023 18.7227 12.4648 18.75 12 18.75C11.5352 18.75 11.0703 18.7227 10.6328 18.6406C10.4141 18.5859 10.0312 18.4766 9.8125 18.0938C9.75781 17.9844 9.73047 17.875 9.70312 17.7656L9.42969 16.6992C9.40234 16.5352 9.12891 16.3984 8.99219 16.4258L7.95312 16.7539C7.84375 16.7812 7.70703 16.7812 7.59766 16.8086C7.16016 16.8086 6.85938 16.5352 6.72266 16.3711C6.12109 15.6875 5.65625 14.8945 5.35547 14.0195C5.30078 13.8008 5.21875 13.418 5.4375 13.0352C5.49219 12.9531 5.57422 12.8438 5.65625 12.7617L6.44922 12.0234C6.55859 11.9141 6.55859 11.6133 6.44922 11.5039L5.65625 10.7383C5.57422 10.6562 5.49219 10.5742 5.4375 10.4648C5.21875 10.1094 5.30078 9.72656 5.35547 9.50781C5.65625 8.63281 6.12109 7.83984 6.72266 7.15625C6.85938 6.99219 7.16016 6.71875 7.59766 6.71875C7.70703 6.71875 7.84375 6.74609 7.95312 6.77344L8.99219 7.07422C9.12891 7.12891 9.40234 6.96484 9.42969 6.82812L9.70312 5.76172C9.73047 5.65234 9.75781 5.54297 9.8125 5.43359C10.0312 5.05078 10.4141 4.94141 10.6328 4.88672C11.0703 4.80469 11.5352 4.75 12 4.75ZM10.9609 6.17188L10.7148 7.12891C10.4961 8.00391 9.48438 8.60547 8.60938 8.35938L7.65234 8.05859C7.21484 8.60547 6.85938 9.20703 6.61328 9.86328L7.35156 10.5469C8.00781 11.1758 8.00781 12.3516 7.35156 12.9805L6.61328 13.6641C6.85938 14.3203 7.21484 14.9219 7.65234 15.4688L8.60938 15.168C9.48438 14.9219 10.4961 15.5234 10.7148 16.3984L10.9609 17.3555C11.6172 17.4922 12.3555 17.4922 13.0391 17.3555L13.2578 16.3984C13.4766 15.5234 14.4883 14.9219 15.3633 15.168L16.3203 15.4688C16.7578 14.9219 17.1133 14.3203 17.3594 13.6641L16.6484 12.9805C15.9922 12.3516 15.9922 11.1758 16.6484 10.5469L17.3594 9.86328C17.1133 9.20703 16.7578 8.60547 16.3203 8.05859L15.3633 8.35938C14.5156 8.60547 13.4766 8.00391 13.2578 7.12891L13.0391 6.17188C12.3555 6.03516 11.6172 6.03516 10.9609 6.17188ZM10.6875 11.75C10.6875 12.2422 10.9336 12.6523 11.3438 12.8984C11.7266 13.1445 12.2461 13.1445 12.6562 12.8984C13.0391 12.6523 13.3125 12.2422 13.3125 11.75C13.3125 11.2852 13.0391 10.875 12.6562 10.6289C12.2461 10.3828 11.7266 10.3828 11.3438 10.6289C10.9336 10.875 10.6875 11.2852 10.6875 11.75ZM12 14.375C11.043 14.375 10.1953 13.8828 9.70312 13.0625C9.23828 12.2695 9.23828 11.2578 9.70312 10.4375C10.1953 9.64453 11.043 9.125 12 9.125C12.9297 9.125 13.7773 9.64453 14.2695 10.4375C14.7344 11.2578 14.7344 12.2695 14.2695 13.0625C13.7773 13.8828 12.9297 14.375 12 14.375Z" fill="#111827"/>
</svg>
