<svg width="24" height="24" viewBox="0 0 24 24" fill="none" xmlns="http://www.w3.org/2000/svg">
<path d="M13.3125 8.25C13.3125 7.48438 12.875 6.77344 12.2188 6.36328C11.5352 5.98047 10.6875 5.98047 10.0312 6.36328C9.34766 6.77344 8.9375 7.48438 8.9375 8.25C8.9375 9.04297 9.34766 9.75391 10.0312 10.1641C10.6875 10.5469 11.5352 10.5469 12.2188 10.1641C12.875 9.75391 13.3125 9.04297 13.3125 8.25ZM7.625 8.25C7.625 7.01953 8.28125 5.87109 9.375 5.24219C10.4414 4.61328 11.7812 4.61328 12.875 5.24219C13.9414 5.87109 14.625 7.01953 14.625 8.25C14.625 9.50781 13.9414 10.6562 12.875 11.2852C11.7812 11.9141 10.4414 11.9141 9.375 11.2852C8.28125 10.6562 7.625 9.50781 7.625 8.25ZM6.33984 17.4375H15.8828C15.6367 15.7148 14.1602 14.375 12.3555 14.375H9.86719C8.0625 14.375 6.58594 15.7148 6.33984 17.4375ZM5 17.957C5 15.25 7.16016 13.0625 9.86719 13.0625H12.3555C15.0625 13.0625 17.25 15.25 17.25 17.957C17.25 18.3945 16.8672 18.75 16.4297 18.75H5.79297C5.35547 18.75 5 18.3945 5 17.957Z" fill="#1D1F24"/>
</svg>
