<svg width="24" height="24" viewBox="0 0 24 24" fill="none" xmlns="http://www.w3.org/2000/svg">
<path d="M10.9609 8.90625L10.5781 9.15234C9.10156 10.1094 6.3125 12.3242 6.3125 16.125C6.3125 16.8633 6.88672 17.4375 7.625 17.4375H16.375C17.0859 17.4375 17.6875 16.8633 17.6875 16.125C17.6875 12.3242 14.8711 10.1094 13.3945 9.15234L13.0117 8.90625H10.9609ZM12.8203 7.59375L13.0117 7.32031L13.8594 6.0625H10.1133L10.9609 7.32031L11.1797 7.59375H12.8203ZM9.10156 8.57812C9.40234 8.38672 9.64844 8.19531 9.89453 8.05859L9.12891 6.96484L8.30859 5.78906C8.03516 5.35156 8.33594 4.75 8.85547 4.75H15.1172C15.6367 4.75 15.9648 5.35156 15.6641 5.78906L14.8438 6.96484L14.1055 8.05859C14.3242 8.19531 14.5703 8.38672 14.8711 8.57812C16.5391 9.83594 19 12.2695 19 16.125C19 17.5742 17.8242 18.75 16.375 18.75H7.625C6.17578 18.75 5 17.5742 5 16.125C5 12.2695 7.43359 9.83594 9.10156 8.57812ZM12.5469 10.6562V11.0391C12.7383 11.0664 12.9297 11.1211 13.1211 11.1758C13.3945 11.2578 13.5859 11.5586 13.5039 11.832C13.4219 12.1328 13.1211 12.2969 12.8203 12.2422C12.5195 12.1602 12.2461 12.0781 11.9727 12.0781C11.7539 12.0781 11.5352 12.1328 11.3984 12.2148C11.2617 12.2969 11.207 12.3789 11.207 12.4883C11.207 12.5156 11.2344 12.5703 11.3711 12.6523C11.5352 12.7617 11.7812 12.8438 12.1367 12.9531H12.1641C12.4648 13.0352 12.8477 13.1719 13.1758 13.3633C13.5312 13.582 13.832 13.9375 13.832 14.5117C13.8594 15.0859 13.5586 15.4961 13.1758 15.7422C12.957 15.8516 12.7383 15.9336 12.5195 15.9883V16.3438C12.5195 16.6445 12.2734 16.8906 11.9727 16.8906C11.6719 16.8906 11.4258 16.6445 11.4258 16.3438V15.9609C11.1523 15.8789 10.9062 15.7969 10.6602 15.7148C10.6055 15.6875 10.5508 15.6875 10.4961 15.6602C10.2227 15.5781 10.0586 15.25 10.168 14.9766C10.25 14.6758 10.5508 14.5391 10.8516 14.6211C10.9062 14.6484 10.9883 14.6758 11.043 14.7031C11.4258 14.8125 11.6992 14.9219 12 14.9219C12.2461 14.9219 12.4648 14.8945 12.6016 14.7852C12.7109 14.7305 12.7656 14.6484 12.7383 14.5117C12.7383 14.4297 12.7383 14.375 12.6016 14.293C12.4102 14.1836 12.1641 14.1016 11.8359 13.9922H11.7812C11.4805 13.8828 11.0977 13.7734 10.7969 13.6094C10.4688 13.3906 10.1406 13.0352 10.1406 12.4883C10.1133 11.9141 10.4414 11.5039 10.8242 11.2852C11.0156 11.1758 11.2344 11.0938 11.4531 11.0391V10.6562C11.4531 10.3555 11.6992 10.1094 12 10.1094C12.3008 10.1094 12.5469 10.3555 12.5469 10.6562Z" fill="#6B6E75"/>
</svg>
