<svg width="22" height="26" viewBox="0 0 22 26" fill="none" xmlns="http://www.w3.org/2000/svg">
<path d="M9.6875 18.125V18.5625L11.6562 17.0859C11.875 16.9219 12.1484 16.8125 12.4492 16.8125H16.25C16.4688 16.8125 16.6875 16.6211 16.6875 16.375V8.5C16.6875 8.28125 16.4688 8.0625 16.25 8.0625H5.75C5.50391 8.0625 5.3125 8.28125 5.3125 8.5V16.375C5.3125 16.6211 5.50391 16.8125 5.75 16.8125H8.375C9.08594 16.8125 9.6875 17.4141 9.6875 18.125ZM9.66016 20.2305L9.52344 20.3125L9.05859 20.668C8.92188 20.7773 8.75781 20.7773 8.59375 20.7227C8.45703 20.6406 8.375 20.5039 8.375 20.3125V19.7383V19.5742V19.5469V19.4375V18.125H7.0625H5.75C4.76562 18.125 4 17.3594 4 16.375V8.5C4 7.54297 4.76562 6.75 5.75 6.75H16.25C17.207 6.75 18 7.54297 18 8.5V16.375C18 17.3594 17.207 18.125 16.25 18.125H12.4492L9.6875 20.2031L9.66016 20.2305ZM11.5469 9.59375V9.97656C11.7383 10.0039 11.9297 10.0586 12.1211 10.1133C12.3945 10.1953 12.5859 10.4961 12.5039 10.7695C12.4219 11.0703 12.1211 11.2344 11.8203 11.1797C11.5195 11.0977 11.2461 11.0156 10.9727 11.0156C10.7539 11.0156 10.5352 11.0703 10.3984 11.1523C10.2617 11.2344 10.207 11.3164 10.207 11.4258C10.207 11.4531 10.2344 11.5078 10.3711 11.5898C10.5352 11.6992 10.7812 11.7812 11.1367 11.8906H11.1641C11.4648 11.9727 11.8477 12.1094 12.1758 12.3008C12.5312 12.5195 12.832 12.875 12.832 13.4492C12.8594 14.0234 12.5586 14.4336 12.1758 14.6797C11.957 14.7891 11.7383 14.8711 11.5195 14.9258V15.2812C11.5195 15.582 11.2734 15.8281 10.9727 15.8281C10.6719 15.8281 10.4258 15.582 10.4258 15.2812V14.8984C10.1523 14.8164 9.90625 14.7344 9.66016 14.6523C9.60547 14.625 9.55078 14.625 9.49609 14.5977C9.22266 14.5156 9.05859 14.1875 9.16797 13.9141C9.25 13.6133 9.55078 13.4766 9.85156 13.5586C9.90625 13.5859 9.98828 13.6133 10.043 13.6406C10.4258 13.75 10.6992 13.8594 11 13.8594C11.2461 13.8594 11.4648 13.832 11.6016 13.7227C11.7109 13.668 11.7656 13.5859 11.7383 13.4492C11.7383 13.3672 11.7383 13.3125 11.6016 13.2305C11.4102 13.1211 11.1641 13.0391 10.8359 12.9297H10.7812C10.4805 12.8203 10.0977 12.7109 9.79688 12.5469C9.46875 12.3281 9.14062 11.9727 9.14062 11.4258C9.11328 10.8516 9.44141 10.4414 9.82422 10.2227C10.0156 10.1133 10.2344 10.0312 10.4531 9.97656V9.59375C10.4531 9.29297 10.6992 9.04688 11 9.04688C11.3008 9.04688 11.5469 9.29297 11.5469 9.59375Z" fill="#4338CA"/>
</svg>
