<svg width="24" height="24" viewBox="0 0 24 24" fill="none" xmlns="http://www.w3.org/2000/svg">
<path d="M8.47266 7.67578L7.81641 9.5625H16.1562L15.5 7.67578C15.3359 7.23828 14.9258 6.9375 14.4609 6.9375H9.51172C9.04688 6.9375 8.63672 7.23828 8.47266 7.67578ZM6.3125 9.91797L7.24219 7.23828C7.57031 6.28125 8.5 5.625 9.51172 5.625H14.4609C15.5 5.625 16.4023 6.28125 16.7305 7.23828L17.6875 9.91797C18.4531 10.3828 19 11.2305 19 12.1875V14.375V15.6875V17.2188C19 17.6016 18.6992 17.875 18.3438 17.875C17.9609 17.875 17.6875 17.6016 17.6875 17.2188V15.6875H6.3125V17.2188C6.3125 17.6016 6.01172 17.875 5.65625 17.875C5.27344 17.875 5 17.6016 5 17.2188V15.6875V14.375V12.1875C5 11.2305 5.51953 10.3828 6.3125 9.91797ZM16.375 10.875H7.625C6.88672 10.875 6.3125 11.4766 6.3125 12.1875V14.375H17.6875V12.1875C17.6875 11.4766 17.0859 10.875 16.375 10.875ZM8.0625 11.75C8.52734 11.75 8.9375 12.1602 8.9375 12.625C8.9375 13.1172 8.52734 13.5 8.0625 13.5C7.57031 13.5 7.1875 13.1172 7.1875 12.625C7.1875 12.1602 7.57031 11.75 8.0625 11.75ZM15.0625 12.625C15.0625 12.1602 15.4453 11.75 15.9375 11.75C16.4023 11.75 16.8125 12.1602 16.8125 12.625C16.8125 13.1172 16.4023 13.5 15.9375 13.5C15.4453 13.5 15.0625 13.1172 15.0625 12.625Z" fill="#1D1F24"/>
</svg>
