<svg width="24" height="24" viewBox="0 0 24 24" fill="none" xmlns="http://www.w3.org/2000/svg">
<path d="M6.75 17.4375H13.75C13.9688 17.4375 14.1875 17.2461 14.1875 17V9.125H12C11.5078 9.125 11.125 8.74219 11.125 8.25V6.0625H6.75C6.50391 6.0625 6.3125 6.28125 6.3125 6.5V17C6.3125 17.2461 6.50391 17.4375 6.75 17.4375ZM6.75 4.75H11.2617C11.7266 4.75 12.1641 4.94141 12.4922 5.26953L14.9805 7.75781C15.3086 8.08594 15.5 8.52344 15.5 8.98828V17C15.5 17.9844 14.707 18.75 13.75 18.75H6.75C5.76562 18.75 5 17.9844 5 17V6.5C5 5.54297 5.76562 4.75 6.75 4.75ZM12.9023 12.0781L9.97656 15.0039C9.83984 15.1133 9.67578 15.1953 9.51172 15.1953C9.34766 15.1953 9.15625 15.1133 9.04688 15.0039L7.59766 13.5273C7.32422 13.2812 7.32422 12.8711 7.59766 12.5977C7.84375 12.3516 8.25391 12.3516 8.52734 12.5977L9.51172 13.6094L11.9727 11.1484C12.2188 10.9023 12.6289 10.9023 12.9023 11.1484C13.1484 11.3945 13.1484 11.832 12.9023 12.0781Z" fill="#4338CA"/>
</svg>
