<svg width="24" height="24" viewBox="0 0 24 24" fill="none" xmlns="http://www.w3.org/2000/svg">
<path d="M10.4414 5.625H13.5312C14.2148 5.625 14.7891 6.0625 15.0078 6.69141L15.2266 7.375H17.25C18.207 7.375 19 8.16797 19 9.125V16.125C19 17.1094 18.207 17.875 17.25 17.875H6.75C5.76562 17.875 5 17.1094 5 16.125V9.125C5 8.16797 5.76562 7.375 6.75 7.375H8.74609L8.99219 6.69141L9.59375 6.88281L8.99219 6.69141C9.18359 6.0625 9.78516 5.625 10.4414 5.625ZM10.2227 7.10156L9.83984 8.25C9.75781 8.52344 9.51172 8.6875 9.21094 8.6875H6.75C6.50391 8.6875 6.3125 8.90625 6.3125 9.125V16.125C6.3125 16.3711 6.50391 16.5625 6.75 16.5625H17.25C17.4688 16.5625 17.6875 16.3711 17.6875 16.125V9.125C17.6875 8.90625 17.4688 8.6875 17.25 8.6875H14.7617C14.4609 8.6875 14.2148 8.52344 14.1328 8.25L13.75 7.10156C13.7227 7.01953 13.6406 6.9375 13.5312 6.9375H10.4414C10.332 6.9375 10.25 7.01953 10.2227 7.10156ZM12 15.6875C10.8789 15.6875 9.89453 15.1133 9.34766 14.1562C8.77344 13.2266 8.77344 12.0508 9.34766 11.0938C9.89453 10.1641 10.8789 9.5625 12 9.5625C13.0938 9.5625 14.0781 10.1641 14.625 11.0938C15.1992 12.0508 15.1992 13.2266 14.625 14.1562C14.0781 15.1133 13.0938 15.6875 12 15.6875ZM10.25 12.625C10.25 13.2539 10.5781 13.8281 11.125 14.1562C11.6445 14.457 12.3281 14.457 12.875 14.1562C13.3945 13.8281 13.75 13.2539 13.75 12.625C13.75 12.0234 13.3945 11.4492 12.875 11.1211C12.3281 10.8203 11.6445 10.8203 11.125 11.1211C10.5781 11.4492 10.25 12.0234 10.25 12.625Z" fill="#6B6E75"/>
</svg>
