<svg width="24" height="24" viewBox="0 0 24 24" fill="none" xmlns="http://www.w3.org/2000/svg">
<path d="M10.6875 9.5625C10.6875 9.86328 10.7148 10.1367 10.7695 10.4102C10.8242 10.6289 10.7695 10.8477 10.6055 11.0117L6.3125 15.3047V17.4375H8.0625V16.3438C8.0625 15.9883 8.33594 15.6875 8.71875 15.6875H9.8125V14.5938C9.8125 14.2383 10.0859 13.9375 10.4688 13.9375H11.9453L12.7383 13.1445C12.9023 12.9805 13.1211 12.9258 13.3398 12.9805C13.6133 13.0352 13.8867 13.0625 14.1875 13.0625C16.1016 13.0625 17.6875 11.5039 17.6875 9.5625C17.6875 7.64844 16.1016 6.0625 14.1875 6.0625C12.2461 6.0625 10.6875 7.64844 10.6875 9.5625ZM14.1875 4.75C16.8398 4.75 19 6.91016 19 9.5625C19 12.2422 16.8398 14.375 14.1875 14.375C13.9141 14.375 13.668 14.375 13.4219 14.3203L12.6836 15.0586C12.5469 15.1953 12.3828 15.25 12.2188 15.25H11.125V16.3438C11.125 16.7266 10.8242 17 10.4688 17H9.375V18.0938C9.375 18.4766 9.07422 18.75 8.71875 18.75H5.65625C5.27344 18.75 5 18.4766 5 18.0938V15.0312C5 14.8672 5.05469 14.7031 5.19141 14.5664L9.42969 10.3281C9.375 10.082 9.375 9.83594 9.375 9.5625C9.375 6.91016 11.5078 4.75 14.1875 4.75ZM15.0625 9.5625C14.5703 9.5625 14.1875 9.17969 14.1875 8.6875C14.1875 8.22266 14.5703 7.8125 15.0625 7.8125C15.5273 7.8125 15.9375 8.22266 15.9375 8.6875C15.9375 9.17969 15.5273 9.5625 15.0625 9.5625Z" fill="#111827"/>
</svg>
