<svg width="84" height="84" viewBox="0 0 84 84" fill="none" xmlns="http://www.w3.org/2000/svg">
<path d="M41.9999 0.400391C53.0329 0.400391 63.614 4.78324 71.4156 12.5848C79.2171 20.3863 83.5999 30.9674 83.5999 42.0004C83.5999 53.0334 79.2171 63.6145 71.4156 71.416C63.614 79.2176 53.0329 83.6004 41.9999 83.6004C30.9669 83.6004 20.3858 79.2176 12.5843 71.416C4.78275 63.6145 0.399902 53.0334 0.399902 42.0004C0.399902 30.9674 4.78275 20.3863 12.5843 12.5848C20.3858 4.78324 30.9669 0.400391 41.9999 0.400391ZM59.4615 29.7596C59.031 29.331 58.464 29.0667 57.8589 29.0125C57.2538 28.9584 56.6489 29.1178 56.1491 29.4632L55.7851 29.7596L36.7999 48.75L28.2407 40.1856L27.8767 39.884C27.3759 39.539 26.7699 39.3804 26.1643 39.436C25.5586 39.4915 24.9916 39.7576 24.5619 40.1879C24.1321 40.6183 23.8669 41.1857 23.8122 41.7914C23.7575 42.3971 23.917 43.0028 24.2627 43.5032L24.5591 43.8672L34.9591 54.2672L35.3231 54.5636C35.7573 54.8632 36.2724 55.0237 36.7999 55.0237C37.3274 55.0237 37.8425 54.8632 38.2767 54.5636L38.6407 54.262L59.4615 33.4412L59.7631 33.0772C60.1092 32.5764 60.2685 31.97 60.2134 31.3637C60.1583 30.7575 59.8922 30.1898 59.4615 29.7596Z" fill="#5D923D"/>
</svg>
