<svg width="13" height="13" viewBox="0 0 13 13" fill="none" xmlns="http://www.w3.org/2000/svg">
<path d="M0.540039 6.61719L11.04 0.617188C11.2744 0.476562 11.6025 0.476562 11.8369 0.640625C12.0713 0.804688 12.1885 1.08594 12.1416 1.36719L10.6416 11.1172C10.5713 11.5859 10.0557 11.8906 9.61035 11.7031L6.7041 10.4844L5.25098 12.2422C5.11035 12.4062 4.89941 12.5 4.66504 12.5C4.24316 12.5 3.91504 12.1719 3.91504 11.75V9.3125L0.610352 7.95312C0.0478516 7.71875 0.000976562 6.92188 0.540039 6.61719ZM1.75879 7.20312L4.6416 8.39844L4.61816 8.375L9.75098 2.63281L1.75879 7.20312ZM9.61035 10.4844L10.7119 3.24219L5.69629 8.84375L9.61035 10.4844Z" fill="#1D1F24"/>
</svg>
