<svg width="57" height="65" viewBox="0 0 57 65" fill="none" xmlns="http://www.w3.org/2000/svg">
<path d="M40.5 17C40.5 12.75 38.125 8.875 34.5 6.625C30.75 4.5 26.125 4.5 22.5 6.625C18.75 8.875 16.5 12.75 16.5 17C16.5 21.375 18.75 25.25 22.5 27.5C26.125 29.625 30.75 29.625 34.5 27.5C38.125 25.25 40.5 21.375 40.5 17ZM12.5 17C12.5 11.375 15.5 6.125 20.5 3.25C25.375 0.375 31.5 0.375 36.5 3.25C41.375 6.125 44.5 11.375 44.5 17C44.5 22.75 41.375 28 36.5 30.875C31.5 33.75 25.375 33.75 20.5 30.875C15.5 28 12.5 22.75 12.5 17ZM4.5 61H52.5C52.25 51.125 44.125 43 34.125 43H22.75C12.75 43 4.625 51.125 4.5 61ZM0.5 61.375C0.5 49 10.375 39 22.75 39H34.125C46.5 39 56.5 49 56.5 61.375C56.5 63.375 54.75 65 52.75 65H4.125C2.125 65 0.5 63.375 0.5 61.375Z" fill="#DADADA"/>
</svg>
