<svg width="140" height="140" viewBox="0 0 140 140" fill="none" xmlns="http://www.w3.org/2000/svg">
<path d="M52.8004 110.1V90H56.7004C61.8004 90 64.3004 91.8 64.3004 95.7C64.3004 96.9 63.6004 98.6 62.6004 99.4C64.6004 100 66.1004 102.3 66.1004 104.5C66.1004 108.8 62.4004 110.2 58.9004 110.2H52.8004V110.1ZM58.8004 107.5C61.6004 107.5 63.0004 106.5 63.0004 104.2C63.0004 101.5 60.2004 101.2 58.3004 101.2H56.0004V107.2H58.8004V107.5ZM57.5004 98.7C60.0004 98.7 61.4004 98.3 61.4004 95.6C61.4004 93.1 60.0004 92.7 57.5004 92.7H55.9004V98.7H57.5004ZM102.2 89.9H105.5L111.2 104L116.7 89.9H120L111.2 111.8L102.2 89.8V89.9ZM81.0004 110V90H84.0004V107.4H93.3004L93.1004 108L92.1004 110.2H81.0004V110ZM36.3004 110H39.6004L29.7004 88.5L19.9004 110H23.2004L25.4004 105.1H32.6004L33.4004 103.5L36.3004 110ZM26.7004 102.3L29.7004 95.3L32.8004 102.3H26.7004ZM70.3004 55.7L71.3004 63.7H90.0004L70.4004 53.4L51.0004 63.8H69.5004L68.5004 72.4L50.5004 64L70.5004 75.5L90.2004 64L70.3004 73.3V55.8V55.7ZM73.3004 50.2L79.9004 45.2L70.7004 29.3L71.3004 51.4L90.0004 63.1L81.0004 47.1L88.8004 43.9L90.4004 63.3V40.3L70.6004 29L88.6004 41.5L73.5004 50.3L73.3004 50.2ZM67.0004 50.2L59.7004 47.2L50.4004 63.2L69.3004 51.4L69.9004 29.4L60.7004 45.3L53.7004 40.2L70.0004 29L50.1004 40.5V63.5L52.0004 41.5L67.0004 50.3V50.2Z" fill="#2A3232"/>
</svg>
