<svg width="140" height="140" viewBox="0 0 140 140" fill="none" xmlns="http://www.w3.org/2000/svg">
<path fill-rule="evenodd" clip-rule="evenodd" d="M47.2 59.2C47.2 59.2 42.2 54.5 34 54.5C26.1 54.5 21.8 59.4 21.8 64.1C21.8 67.5 23.7 71.3 30.2 73.1L37.4 74.7C39.6 75.2 40.7 76.2 40.5 77.3C40 79.1 37.5 79.6 34.9 79.6C32.6 79.6 29.9 79.1 25.8 75.6L20 79.7C21.6 81.6 27 85.7 35 85.7C43 85.7 49.1 82.3 49.1 75.7C49.1 70.7 45.8 68.7 40.9 67.2L33.2 65.1C31.1 64.7 29.8 63.7 30.2 62.3C30.5 61.1 32.2 60.5 34.2 60.5C36.2 60.5 39.3 61.1 41.9 63.2L47.2 59.2ZM81.6 55V62H66V66.7H77V73.4H66V78.3H82V85H57.5V55H81.5H81.6Z" fill="#2A3232"/>
<path d="M53.2002 48H51.2002V92H53.2002V48ZM87.2002 48H85.2002V92H87.2002V48Z" fill="#2A3232"/>
<path fill-rule="evenodd" clip-rule="evenodd" d="M91.4004 55H109.1C114.1 55 118.2 58 118.2 62.6C118.229 64.0046 117.834 65.3852 117.067 66.5622C116.3 67.7393 115.197 68.6584 113.9 69.2L113.5 69.4H113.9C117.4 70.6 120 73.1 120 77.1C120 82.1 115.8 85.1 110.7 85.1H91.4004V55.1V55ZM99.8004 61.3V66.6H106.7C108.2 66.6 109.5 65.4 109.5 64C109.5 62.6 108.2 61.3 106.7 61.3H99.8004ZM108.1 78.3C109.5 78.3 110.7 77.1 110.7 75.7C110.7 74.3 109.5 73.1 108.1 73.1H99.8004V78.5H108.1V78.4V78.3Z" fill="#2A3232"/>
</svg>
