<svg width="140" height="140" viewBox="0 0 140 140" fill="none" xmlns="http://www.w3.org/2000/svg">
<path fill-rule="evenodd" clip-rule="evenodd" d="M28.6996 60.8V56H33.4996V60.8H28.6996ZM28.6996 82.9V62.7H33.4996V82.9H28.6996ZM40.3996 82.9H35.4996V62.7H40.1996V66.4C41.6996 64.2 43.7996 62.2 46.7996 62.2L47.8996 62.3V67H46.4996C44.2996 67 40.4996 69 40.4996 73V83L40.3996 82.9ZM49.1996 82.9V56H57.9996C60.1996 56 67.9996 56 67.9996 62.6C67.9996 67.1 64.3996 68.3 62.5996 68.9C64.6996 69.5 68.5996 70.5 68.5996 75.5C68.5996 79.6 65.4996 82.8 58.5996 82.8H49.2996V82.9H49.1996ZM57.9996 67C62.5996 67 62.9996 64.3 62.9996 63.4C62.9996 60 59.4996 60 58.3996 60H54.3996V67H57.9996ZM54.3996 79H57.5996C60.9996 79 63.3996 78 63.3996 75C63.3996 73.1 62.3996 71 57.8996 71H54.3996V79ZM82.1996 83L81.6996 80.9C80.073 82.5013 77.8822 83.3991 75.5996 83.4C71.8996 83.4 69.3996 81.1 69.3996 77.8C69.3996 75.8 70.0996 73.3 74.4996 71.8L80.3996 69.8C81.1996 69.5 81.2996 69.5 81.2996 68.8V68C81.2996 66.3 79.6996 65.8 77.8996 65.8C75.26 65.9919 72.7288 66.9281 70.5996 68.5V64.3C71.8996 63.5 74.3996 62.3 78.5996 62.3C84.7996 62.3 86.0996 65.3 86.0996 69.3V82.9H81.9996V83H82.1996ZM76.9996 74.3C74.9996 75 74.2996 76 74.2996 77.3C74.2996 79.3 76.0996 79.8 76.8996 79.8C77.6996 79.8 79.3996 79.5 81.3996 77.6V72.6L80.0996 73.3L77.0996 74.3H76.9996ZM22.9996 82.9L22.3996 80.8C20.773 82.4013 18.5822 83.2991 16.2996 83.3C12.6996 83.3 10.0996 81 10.0996 77.7C10.0996 75.7 10.8996 73.2 15.2996 71.7L21.0996 69.7C21.8996 69.4 22.0996 69.4 22.0996 68.7V68C22.0996 66.3 20.4996 65.8 18.5996 65.8C15.96 65.9919 13.4288 66.9281 11.2996 68.5V64.3C12.6996 63.5 15.0996 62.3 19.2996 62.3C25.5996 62.3 26.7996 65.3 26.7996 69.3V82.9H22.8996V83L22.9996 82.9ZM17.7996 74.3C15.7996 75 15.0996 76 15.0996 77.3C15.0996 79.3 16.7996 79.8 17.6996 79.8C18.4996 79.8 20.1996 79.5 22.0996 77.6V72.6C21.7996 72.9 21.6996 72.9 20.8996 73.3L17.7996 74.3ZM87.9996 82.9H92.7996V56H87.9996V83V82.9ZM96.7996 66.3H93.7996V62.7H96.7996V56H101.6V62.7H105.2V66.3H101.6V76.5C101.6 78 101.8 79.4 104 79.4L105.4 79.2V82.8L103.2 83C97.7996 83 96.6996 80.3 96.6996 76.7V66.3H96.7996ZM107.2 60.8V56H112V60.8H107.2ZM107.2 82.9V62.7H112V82.9H107.2ZM129.5 68.1C128.5 67.3 127 66.1 124.3 66.1C120.2 66.1 118.5 69.5 118.5 72.9C118.5 74.3 118.9 79.7 124.2 79.7C127 79.7 128.8 78.4 130 77.5V81.8C129 82.3 126.8 83.4 123.4 83.4C116.5 83.4 113.7 78.2 113.7 72.9C113.7 67.2 116.8 62.3 123.7 62.3C127 62.3 128.7 63.3 129.7 63.8V68.1H129.5Z" fill="#2A3232"/>
</svg>
