<svg width="140" height="140" viewBox="0 0 140 140" fill="none" xmlns="http://www.w3.org/2000/svg">
<path d="M70 110C59.3913 110 49.2172 105.786 41.7157 98.2843C34.2143 90.7828 30 80.6087 30 70C30 59.3913 34.2143 49.2172 41.7157 41.7157C49.2172 34.2143 59.3913 30 70 30C80.6087 30 90.7828 34.2143 98.2843 41.7157C105.786 49.2172 110 59.3913 110 70C110 80.6087 105.786 90.7828 98.2843 98.2843C90.7828 105.786 80.6087 110 70 110ZM70 32C59.9218 32 50.2563 36.0036 43.1299 43.1299C36.0036 50.2563 32 59.9218 32 70C32 80.0782 36.0036 89.7437 43.1299 96.8701C50.2563 103.996 59.9218 108 70 108C80.0782 108 89.7437 103.996 96.8701 96.8701C103.996 89.7437 108 80.0782 108 70C108 59.9218 103.996 50.2563 96.8701 43.1299C89.7437 36.0036 80.0782 32 70 32ZM103.8 81.4H103.6C103.6 81.4 103.4 81.4 103.4 81.2C103.4 81.2 104.8 77.2 104.8 72.7C104.8 67.9 102.8 64.7 100.3 64.7C99.9327 64.6847 99.5664 64.7475 99.2252 64.8842C98.884 65.0209 98.5757 65.2284 98.3205 65.493C98.0654 65.7576 97.8692 66.0733 97.745 66.4192C97.6208 66.7652 97.5714 67.1335 97.6 67.5C97.6 70.5 101.3 70.8 101.3 77.3C101.3 80 100.7 82.6 99.9 85.3C95.9 99.2 82.9 105.6 70 105.6C66.1543 105.706 62.3223 105.096 58.7 103.8V103.6L58.9 103.4C59.5 103.6 63 104.8 67.5 104.8C72.3 104.8 75.2 102.8 75.2 100.3C75.2 98.8 74.1 97.6 72.5 97.6C69.6 97.6 69.2 101.3 62.8 101.3C60.1 101.3 57.6 100.7 54.7 100C40.9 95.9 34.3 83 34.3 70C34.3 63.8 36 58.8 36 58.6H36.2L36.4 58.8C36.2 59.4 35 62.8 35 67.3C35 72.1 37 75 39.5 75C40.9 75 42.2 73.9 42.2 72.3C42.2 69.3 38.5 69 38.5 62.5C38.5 59.8 39.1 57.2 39.9 54.3C44.4 40.8 57.2 34.4 70 34.3C75.8 34.3 81 36 81.3 36.2V36.4C81.3 36.6 81.1 36.6 81.1 36.6C81.1 36.6 77.6 35.2 72.5 35.2C67.7 35.2 64.8 37.2 64.8 39.9C64.8 41.2 65.9 42.6 67.5 42.6C70.4 42.6 70.8 38.9 77.2 38.9C79.9 38.9 82.4 39.5 85.3 40.2C99.1 44.5 105.5 57.6 105.5 70.2C105.7 76.6 103.8 81.4 103.8 81.4ZM84.8 71.9C81.1 71.9 78.2 74.6 78.2 78.1C78.2 80.8 79.9 83.1 82 83.1C82.8 83.1 83.6 82.8 83.6 81.8C83.6 80.4 81.6 80 81.8 77.9C81.8 76.6 83.2 75.6 84.6 75.6C87.3 75.6 88.4 78.1 88.4 80.8C88.3 84.8 85.4 87.8 81.8 87.8C77.2 87.8 74.3 83.3 74.3 78.5C74.3 71.4 78.9 68.6 81.3 67.9C81.3 67.9 87.7 69 87.5 66.1C87.5 65 85.5 64.4 84.2 64.4C82.6 64.4 81.2 64.8 81.2 64.8C80.8095 64.5836 80.4722 64.2828 80.2127 63.9195C79.9532 63.5562 79.778 63.1396 79.7 62.7C84.2 59.2 87.5 55.9 87.5 52C87.5 50.1 86.1 48.2 83.5 48.2C79.1 48.2 75.6 54 75.6 59.2C75.6 60.2 75.6 60.9 75.8 61.7C72.9 63.8 70.8 65.2 66.8 67.5L67.3 64.2C68.6 62.9 70.3 60.5 70.3 59C70.3 58.2 70 57.6 69 57.6C66.9 57.6 65.1 60.9 64.8 63.2C63.8 64.4 61.8 65.9 60.1 65.9C58.7 65.9 58.3 64.8 58.1 64.2C62.4 62.9 67.5 57.1 67.5 51.8C67.5 50.7 67.1 48.4 63.8 48.4C58.8 48.4 54.7 55.7 54.7 61.5C52.9 61.5 52.1 59.5 52.1 58.2C52.1 56.9 52.7 55.3 52.7 54.9C52.7 54.5 52.5 53.9 51.7 53.9C50 53.9 49 56.1 49 58.8C49.2 62.3 51.6 64.6 54.7 64.8C55 66.9 57 68.8 59.3 68.8C60.7 68.8 62.6 68.5 63.8 67.3L63.4 69.4C58.5 71.9 55 73.7 51.7 76.6C49.2 78.9 47.7 82 47.7 84.5C47.7 87.8 49.8 90.9 54.1 90.9C59.1 90.9 63.1 86.9 65 81C66 78.3 66.1 74.4 66.5 71C71.5 68 74.1 66.3 76.6 64.6C77 65.2 77.2 65.6 77.8 65.9C75.4 67.1 69.8 70.6 69.8 78.7C69.8 84.5 73.7 90.9 81.3 90.9C87.7 90.9 91.9 85.7 91.9 80.6C92.3 76.2 89.6 71.9 84.8 71.9ZM54.3 87.4C52.5 87.4 51.6 86.4 51.6 84.7C51.6 79.9 58.2 75.4 63.2 72.9C62.2 79.7 60.1 87.2 54.2 87.4H54.3ZM58 61.3C58 57.6 61.7 50.7 63.8 51.4C66.5 52.2 61.7 59.4 58 61.3ZM79 59.6C79 54.9 82 50.6 83.6 51.4C85.6 52.4 82.2 56.7 78.9 59.6H79Z" fill="#2A3232"/>
</svg>
