<svg width="40" height="40" viewBox="0 0 40 40" fill="none" xmlns="http://www.w3.org/2000/svg">
<path fill-rule="evenodd" clip-rule="evenodd" d="M28.5 14.156V25.8435H31.6875V29.031C31.6875 29.8764 31.3517 30.6871 30.7539 31.2849C30.1561 31.8827 29.3454 32.2185 28.5 32.2185H24.25V30.0935H18.9375C18.0921 30.0935 17.2814 30.4293 16.6836 31.0271C16.0858 31.6249 15.75 32.4356 15.75 33.281C15.75 34.1264 16.0858 34.9371 16.6836 35.5349C17.2814 36.1327 18.0921 36.4685 18.9375 36.4685H24.25V34.3435H28.5C29.9084 34.3418 31.2587 33.7816 32.2546 32.7856C33.2506 31.7897 33.8108 30.4394 33.8125 29.031V25.8435C34.6579 25.8435 35.4686 25.5077 36.0664 24.9099C36.6642 24.3121 37 23.5014 37 22.656V17.3435C37 16.4981 36.6642 15.6874 36.0664 15.0896C35.4686 14.4918 34.6579 14.156 33.8125 14.156L30.625 14.1562C30.6219 11.3393 29.5015 8.63856 27.5096 6.64666C25.5177 4.65475 22.817 3.53434 20 3.53125C17.183 3.53434 14.4823 4.65475 12.4904 6.64666C10.4985 8.63856 9.37809 11.3393 9.375 14.1562H6.1875C5.34212 14.1562 4.53137 14.4921 3.9336 15.0898C3.33582 15.6876 3 16.4984 3 17.3438V22.6562C3 23.5016 3.33582 24.3124 3.9336 24.9102C4.53137 25.5079 5.34212 25.8438 6.1875 25.8438H11.5V14.1562C11.5025 11.9027 12.3989 9.74215 13.9924 8.14864C15.5859 6.55513 17.7464 5.65878 20 5.65625C22.2536 5.65878 24.4141 6.55513 26.0076 8.14864C27.6011 9.74215 28.4975 11.9024 28.5 14.156ZM18.9375 34.3435H22.125V32.2185H18.9375C18.6557 32.2185 18.3855 32.3304 18.1862 32.5297C17.9869 32.729 17.875 32.9992 17.875 33.281C17.875 33.5628 17.9869 33.833 18.1862 34.0323C18.3855 34.2316 18.6557 34.3435 18.9375 34.3435ZM34.5638 23.4073C34.7631 23.208 34.875 22.9378 34.875 22.656V17.3435C34.875 17.0617 34.7631 16.7915 34.5638 16.5922C34.3645 16.3929 34.0943 16.281 33.8125 16.281H30.625V23.7185H33.8125C34.0943 23.7185 34.3645 23.6066 34.5638 23.4073ZM6.1875 23.7188H9.375V16.2812H6.1875C5.90571 16.2812 5.63546 16.3932 5.4362 16.5924C5.23694 16.7917 5.125 17.062 5.125 17.3438V22.6562C5.125 22.938 5.23694 23.2083 5.4362 23.4076C5.63546 23.6068 5.90571 23.7188 6.1875 23.7188Z" fill="url(#paint0_linear_127_7813)"/>
<defs>
<linearGradient id="paint0_linear_127_7813" x1="20" y1="3.53125" x2="20" y2="36.4685" gradientUnits="userSpaceOnUse">
<stop stop-color="#F3EFE0"/>
<stop offset="1" stop-color="#D2CCB2"/>
</linearGradient>
</defs>
</svg>
