<svg width="40" height="40" viewBox="0 0 40 40" fill="none" xmlns="http://www.w3.org/2000/svg">
<path d="M24.9997 19.5599C26.2935 18.524 27.2337 17.1118 27.6902 15.5185C28.1468 13.9251 28.0971 12.2293 27.5482 10.6654C26.9993 9.1015 25.9781 7.74669 24.6259 6.78822C23.2737 5.82975 21.6571 5.31494 19.9997 5.31494C18.3422 5.31494 16.7257 5.82975 15.3735 6.78822C14.0212 7.74669 13.0001 9.1015 12.4512 10.6654C11.9022 12.2293 11.8526 13.9251 12.3091 15.5185C12.7657 17.1118 13.7058 18.524 14.9997 19.5599C12.1697 20.5862 9.724 22.4584 7.99465 24.9224C6.2653 27.3865 5.33603 30.3229 5.33301 33.3333V34.6666H34.6663V33.3333C34.6633 30.3229 33.7341 27.3865 32.0047 24.9224C30.2753 22.4584 27.8297 20.5862 24.9997 19.5599V19.5599ZM14.6663 13.3333C14.6663 12.2784 14.9791 11.2473 15.5652 10.3702C16.1512 9.49317 16.9842 8.80958 17.9587 8.40592C18.9332 8.00225 20.0056 7.89663 21.0402 8.10242C22.0747 8.30821 23.025 8.81616 23.7709 9.56204C24.5168 10.3079 25.0247 11.2582 25.2305 12.2928C25.4363 13.3274 25.3307 14.3997 24.927 15.3743C24.5234 16.3488 23.8398 17.1817 22.9627 17.7678C22.0857 18.3538 21.0545 18.6666 19.9997 18.6666C18.5852 18.6666 17.2286 18.1047 16.2284 17.1045C15.2282 16.1043 14.6663 14.7478 14.6663 13.3333ZM8.07967 31.9999C8.41894 29.0765 9.82071 26.3797 12.0184 24.4222C14.2162 22.4648 17.0566 21.3833 19.9997 21.3833C22.9427 21.3833 25.7832 22.4648 27.9809 24.4222C30.1786 26.3797 31.5804 29.0765 31.9197 31.9999H8.07967Z" fill="url(#paint0_linear_127_7819)"/>
<defs>
<linearGradient id="paint0_linear_127_7819" x1="19.9997" y1="5.31494" x2="19.9997" y2="34.6666" gradientUnits="userSpaceOnUse">
<stop stop-color="#F3EFE0"/>
<stop offset="1" stop-color="#D2CCB2"/>
</linearGradient>
</defs>
</svg>
