<svg width="40" height="40" viewBox="0 0 40 40" fill="none" xmlns="http://www.w3.org/2000/svg">
<path d="M6.68921 14.9984V18.7694C6.67137 23.0414 8.11239 27.1916 10.7739 30.5333C12.9571 33.4205 16.0026 35.5378 19.4694 36.5787C19.8755 36.7079 20.3116 36.7079 20.7177 36.5787C24.4756 35.448 27.4428 33.2129 29.7629 30.0856C31.5788 27.6553 32.7775 24.8205 33.2561 21.8247C33.4035 20.883 33.48 19.9316 33.4849 18.9785C33.5012 16.0669 33.5012 13.1586 33.5012 10.247C33.5143 10.1406 33.4884 10.0329 33.4283 9.94406C33.3683 9.85517 33.2781 9.791 33.1744 9.76341C28.9089 7.88118 24.6445 5.98478 20.3811 4.07423C20.2849 4.02543 20.1786 4 20.0707 4C19.9628 4 19.8565 4.02543 19.7603 4.07423C15.51 5.97171 11.2565 7.86157 6.99965 9.7438C6.8902 9.78152 6.7975 9.85652 6.73776 9.95569C6.67802 10.0549 6.65505 10.1719 6.67287 10.2862C6.68377 11.857 6.68921 13.4277 6.68921 14.9984ZM8.97664 15.9068C8.97664 14.5997 8.97664 13.2926 8.97664 11.9855C8.962 11.8892 8.98228 11.7908 9.03381 11.7081C9.08535 11.6254 9.16474 11.5638 9.25767 11.5345C12.7738 9.97472 16.2964 8.40729 19.8256 6.83222C19.9051 6.79202 19.993 6.77107 20.0821 6.77107C20.1713 6.77107 20.2591 6.79202 20.3387 6.83222C23.8744 8.41164 27.4155 9.98562 30.9621 11.5541C31.047 11.5784 31.1204 11.6323 31.169 11.7061C31.2175 11.7798 31.2381 11.8685 31.2268 11.9561C31.2268 14.371 31.2497 16.7891 31.2268 19.204C31.2218 19.9952 31.1573 20.785 31.034 21.5666C30.6367 24.0552 29.6409 26.4102 28.1323 28.4289C26.2916 31.0072 23.6486 32.9032 20.6164 33.8207C20.2794 33.9278 19.9175 33.9278 19.5805 33.8207C16.6973 32.958 14.1642 31.1986 12.349 28.7981C10.14 26.0233 8.9445 22.5775 8.96031 19.0308V15.9068H8.97664Z" fill="url(#paint0_linear_127_7791)"/>
<path d="M20.1069 9.05078V20.3376H20.0873V31.3729C19.94 31.3697 19.7938 31.3466 19.6527 31.3042C17.1349 30.5404 14.9405 28.9652 13.4113 26.8241C12.1555 25.1472 11.3257 23.1904 10.9931 21.1219C10.9357 20.7843 10.8954 20.444 10.8722 20.1024C10.8494 19.8213 10.8395 19.537 10.8395 19.2527V13.3708C10.8301 13.2966 10.8463 13.2214 10.8856 13.1578C10.9248 13.0942 10.9847 13.0459 11.0552 13.0211L19.8782 9.0998C19.9502 9.06769 20.0281 9.05099 20.1069 9.05078Z" fill="url(#paint1_linear_127_7791)"/>
<defs>
<linearGradient id="paint0_linear_127_7791" x1="20.0858" y1="4" x2="20.0858" y2="36.6756" gradientUnits="userSpaceOnUse">
<stop stop-color="#F3EFE0"/>
<stop offset="1" stop-color="#D2CCB2"/>
</linearGradient>
<linearGradient id="paint1_linear_127_7791" x1="15.4719" y1="9.05078" x2="15.4719" y2="31.3729" gradientUnits="userSpaceOnUse">
<stop stop-color="#F3EFE0"/>
<stop offset="1" stop-color="#D2CCB2"/>
</linearGradient>
</defs>
</svg>
