<svg width="40" height="40" viewBox="0 0 40 40" fill="none" xmlns="http://www.w3.org/2000/svg">
<path d="M20.0002 35.1472L2.72461 15.5681L9.86902 4.85254H30.1313L37.2758 15.5681L20.0002 35.1472ZM5.40004 15.3875L20.0002 31.9342L34.6003 15.3875L28.9944 6.97759H11.0059L5.40004 15.3875Z" fill="url(#paint0_linear_127_7769)"/>
<path d="M35.9382 14.415H4.0625V16.5401H35.9382V14.415Z" fill="url(#paint1_linear_127_7769)"/>
<path d="M15.658 15.0466L11.4082 5.48389L9.46536 6.3473L13.7151 15.91L15.658 15.0466Z" fill="url(#paint2_linear_127_7769)"/>
<path d="M30.5346 6.3473L28.5918 5.48389L24.342 15.0466L26.2849 15.91L30.5346 6.3473Z" fill="url(#paint3_linear_127_7769)"/>
<path d="M20.9271 6.42963L19.0703 5.39844L13.7591 14.962L15.6159 15.9932L20.9271 6.42963Z" fill="url(#paint4_linear_127_7769)"/>
<path d="M26.2401 14.9634L20.9277 5.3999L19.0709 6.43131L24.3833 15.9948L26.2401 14.9634Z" fill="url(#paint5_linear_127_7769)"/>
<path d="M21.0193 33.2427L15.7061 15.1792L13.6683 15.7786L18.9815 33.8421L21.0193 33.2427Z" fill="url(#paint6_linear_127_7769)"/>
<path d="M26.3325 15.7764L24.2949 15.1768L18.9798 33.2384L21.0173 33.838L26.3325 15.7764Z" fill="url(#paint7_linear_127_7769)"/>
<defs>
<linearGradient id="paint0_linear_127_7769" x1="20.0002" y1="4.85254" x2="20.0002" y2="35.1472" gradientUnits="userSpaceOnUse">
<stop stop-color="#F3EFE0"/>
<stop offset="1" stop-color="#D2CCB2"/>
</linearGradient>
<linearGradient id="paint1_linear_127_7769" x1="20.0004" y1="14.415" x2="20.0004" y2="16.5401" gradientUnits="userSpaceOnUse">
<stop stop-color="#F3EFE0"/>
<stop offset="1" stop-color="#D2CCB2"/>
</linearGradient>
<linearGradient id="paint2_linear_127_7769" x1="13.5331" y1="10.2653" x2="11.5902" y2="11.1287" gradientUnits="userSpaceOnUse">
<stop stop-color="#F3EFE0"/>
<stop offset="1" stop-color="#D2CCB2"/>
</linearGradient>
<linearGradient id="paint3_linear_127_7769" x1="29.5632" y1="5.91559" x2="25.3135" y2="15.4783" gradientUnits="userSpaceOnUse">
<stop stop-color="#F3EFE0"/>
<stop offset="1" stop-color="#D2CCB2"/>
</linearGradient>
<linearGradient id="paint4_linear_127_7769" x1="19.9987" y1="5.91403" x2="14.6875" y2="15.4776" gradientUnits="userSpaceOnUse">
<stop stop-color="#F3EFE0"/>
<stop offset="1" stop-color="#D2CCB2"/>
</linearGradient>
<linearGradient id="paint5_linear_127_7769" x1="23.5839" y1="10.1817" x2="21.7271" y2="11.2131" gradientUnits="userSpaceOnUse">
<stop stop-color="#F3EFE0"/>
<stop offset="1" stop-color="#D2CCB2"/>
</linearGradient>
<linearGradient id="paint6_linear_127_7769" x1="18.3627" y1="24.211" x2="16.3249" y2="24.8103" gradientUnits="userSpaceOnUse">
<stop stop-color="#F3EFE0"/>
<stop offset="1" stop-color="#D2CCB2"/>
</linearGradient>
<linearGradient id="paint7_linear_127_7769" x1="25.3137" y1="15.4766" x2="19.9986" y2="33.5382" gradientUnits="userSpaceOnUse">
<stop stop-color="#F3EFE0"/>
<stop offset="1" stop-color="#D2CCB2"/>
</linearGradient>
</defs>
</svg>
