<svg width="40" height="40" viewBox="0 0 40 40" fill="none" xmlns="http://www.w3.org/2000/svg">
<path d="M12.7465 35.9187C17.2008 35.9187 20.8862 34.329 22.261 32.0588C23.7717 32.5444 25.4707 32.8117 27.2581 32.8117C32.9234 32.8117 37.3577 30.2472 37.3577 26.9708V9.9233C37.3577 6.64604 32.9234 4.08154 27.2581 4.08154C21.5936 4.08154 17.1553 6.64604 17.1553 9.9233V16.2817C15.7953 15.9116 14.2997 15.7147 12.7461 15.7147C7.08075 15.7147 2.6416 18.2788 2.6416 21.552V30.0786C2.64242 33.355 7.08116 35.9187 12.7465 35.9187ZM35.2566 26.9712C35.2566 28.7398 31.9732 30.7099 27.2585 30.7099C25.6168 30.7099 24.0247 30.4425 22.674 29.9746V27.7483C24.0763 28.1581 25.6348 28.3767 27.2585 28.3767C30.5812 28.3767 33.4671 27.4838 35.2566 26.0951V26.9712ZM35.2566 23.4393C34.5221 25.0626 31.4459 26.6224 27.2585 26.6224C25.6029 26.6224 24.0394 26.3645 22.674 25.8998V23.4909C24.0726 23.897 25.6316 24.1128 27.2585 24.1128C30.5812 24.1128 33.4671 23.2203 35.2566 21.8312V23.4393ZM35.2566 19.1795C34.5221 20.8032 31.4459 22.3597 27.2585 22.3597C25.6205 22.3597 24.0247 22.0956 22.6646 21.6355C22.6646 21.6076 22.6736 21.5798 22.6736 21.5524C22.6736 20.5628 22.2487 19.6298 21.4712 18.8122C23.0916 19.4656 25.0801 19.8505 27.2581 19.8505C30.5808 19.8505 33.4667 18.9588 35.2562 17.5681V19.1795H35.2566ZM35.2566 14.9164C34.5221 16.5401 31.4459 18.0966 27.2585 18.0966C23.0716 18.0966 19.9953 16.5401 19.2576 14.9164V13.3054C21.0508 14.6949 23.9366 15.5882 27.2585 15.5882C30.5812 15.5882 33.4671 14.6945 35.2566 13.3054V14.9164ZM19.6367 8.85722C20.6254 7.44724 23.4834 6.18464 27.2581 6.18464C31.9732 6.18464 35.2562 8.15305 35.2562 9.92371C35.2562 11.7898 33.296 12.6385 31.7796 13.1449C30.517 13.569 28.9813 13.8347 27.2581 13.8347C24.0177 13.8347 21.4454 12.9021 20.1034 11.7308C19.2514 10.9845 18.9415 9.83692 19.6367 8.85722ZM5.12462 20.4871C5.75265 19.5946 7.12701 18.7635 9.00739 18.2718C10.0976 17.9877 11.3586 17.8174 12.7465 17.8174C14.4246 17.8174 16.1445 18.072 17.7465 18.5699C18.6165 18.8401 19.4328 19.2433 20.1132 19.9172C20.6352 20.4335 20.9193 20.9939 20.9193 21.5524C20.9193 23.4033 17.5635 25.4662 12.7465 25.4662C9.71607 25.4662 7.26621 24.6507 5.8681 23.5859C4.87939 22.8326 4.33284 21.613 5.12462 20.4871ZM4.74552 24.9377C6.53829 26.328 9.42416 27.2193 12.7465 27.2193C16.1744 27.2193 19.145 26.2728 20.9193 24.8038V25.8179C20.9193 27.6688 17.5635 29.7294 12.7465 29.7294C8.5591 29.7294 5.48244 28.1736 4.74552 26.5495V24.9377ZM4.74552 29.2012C6.53829 30.5916 9.42416 31.482 12.7465 31.482C16.1744 31.482 19.145 30.5355 20.9193 29.0682L20.9726 30.8225C20.9726 30.8225 19.1569 33.6698 12.7465 33.8156C8.03138 33.9224 4.74552 31.8472 4.74552 30.079V29.2012Z" fill="url(#paint0_linear_127_7826)"/>
<defs>
<linearGradient id="paint0_linear_127_7826" x1="19.9996" y1="4.08154" x2="19.9996" y2="35.9187" gradientUnits="userSpaceOnUse">
<stop stop-color="#F3EFE0"/>
<stop offset="1" stop-color="#D2CCB2"/>
</linearGradient>
</defs>
</svg>
