<svg width="40" height="40" viewBox="0 0 40 40" fill="none" xmlns="http://www.w3.org/2000/svg">
<path d="M11.4284 34.8559C10.0722 34.8559 8.74646 34.4537 7.61881 33.7003C6.49116 32.9468 5.61226 31.8758 5.09326 30.6229C4.57426 29.3699 4.43847 27.9911 4.70305 26.661C4.96763 25.3308 5.62071 24.109 6.5797 23.15C7.53869 22.191 8.76052 21.5379 10.0907 21.2734C11.4208 21.0088 12.7996 21.1446 14.0525 21.6636C15.3055 22.1826 16.3765 23.0615 17.1299 24.1891C17.8834 25.3168 18.2856 26.6425 18.2856 27.9987C18.2835 29.8167 17.5603 31.5596 16.2748 32.8451C14.9893 34.1306 13.2464 34.8538 11.4284 34.8559ZM11.4284 23.4273C10.5243 23.4273 9.64045 23.6954 8.88869 24.1977C8.13692 24.7001 7.55099 25.414 7.20499 26.2493C6.85899 27.0847 6.76846 28.0038 6.94485 28.8906C7.12123 29.7774 7.55662 30.5919 8.19595 31.2312C8.83527 31.8706 9.64982 32.3059 10.5366 32.4823C11.4234 32.6587 12.3425 32.5682 13.1778 32.2222C14.0132 31.8762 14.7271 31.2903 15.2294 30.5385C15.7318 29.7867 15.9999 28.9029 15.9999 27.9987C15.9999 26.7863 15.5182 25.6236 14.6609 24.7663C13.8036 23.909 12.6409 23.4273 11.4284 23.4273Z" fill="url(#paint0_linear_127_7799)"/>
<path d="M28.572 34.8559C27.2158 34.8559 25.89 34.4537 24.7624 33.7003C23.6347 32.9468 22.7558 31.8758 22.2368 30.6229C21.7178 29.3699 21.582 27.9911 21.8466 26.661C22.1112 25.3308 22.7643 24.109 23.7233 23.15C24.6822 22.191 25.9041 21.5379 27.2342 21.2734C28.5644 21.0088 29.9431 21.1446 31.1961 21.6636C32.4491 22.1826 33.52 23.0615 34.2735 24.1891C35.027 25.3168 35.4291 26.6425 35.4291 27.9987C35.427 29.8167 34.7039 31.5596 33.4184 32.8451C32.1329 34.1306 30.39 34.8538 28.572 34.8559ZM28.572 23.4273C27.6678 23.4273 26.784 23.6954 26.0322 24.1977C25.2805 24.7001 24.6945 25.414 24.3485 26.2493C24.0025 27.0847 23.912 28.0038 24.0884 28.8906C24.2648 29.7774 24.7002 30.5919 25.3395 31.2312C25.9788 31.8706 26.7934 32.3059 27.6801 32.4823C28.5669 32.6587 29.4861 32.5682 30.3214 32.2222C31.1567 31.8762 31.8707 31.2903 32.373 30.5385C32.8753 29.7867 33.1434 28.9029 33.1434 27.9987C33.1434 26.7863 32.6618 25.6236 31.8045 24.7663C30.9472 23.909 29.7844 23.4273 28.572 23.4273Z" fill="url(#paint1_linear_127_7799)"/>
<path d="M22.8578 26.8564H17.1436V29.1422H22.8578V26.8564Z" fill="url(#paint2_linear_127_7799)"/>
<path d="M32.8225 18.8569H7.17676L9.91961 5.14258H30.0785L32.8225 18.8569ZM9.96533 16.5711H30.0339L28.2053 7.42829H11.7928L9.96533 16.5711Z" fill="url(#paint3_linear_127_7799)"/>
<path d="M36 16.5713H4V18.857H36V16.5713Z" fill="url(#paint4_linear_127_7799)"/>
<defs>
<linearGradient id="paint0_linear_127_7799" x1="11.4284" y1="21.1416" x2="11.4284" y2="34.8559" gradientUnits="userSpaceOnUse">
<stop stop-color="#F3EFE0"/>
<stop offset="1" stop-color="#D2CCB2"/>
</linearGradient>
<linearGradient id="paint1_linear_127_7799" x1="28.572" y1="21.1416" x2="28.572" y2="34.8559" gradientUnits="userSpaceOnUse">
<stop stop-color="#F3EFE0"/>
<stop offset="1" stop-color="#D2CCB2"/>
</linearGradient>
<linearGradient id="paint2_linear_127_7799" x1="20.0007" y1="26.8564" x2="20.0007" y2="29.1422" gradientUnits="userSpaceOnUse">
<stop stop-color="#F3EFE0"/>
<stop offset="1" stop-color="#D2CCB2"/>
</linearGradient>
<linearGradient id="paint3_linear_127_7799" x1="19.9996" y1="5.14258" x2="19.9996" y2="18.8569" gradientUnits="userSpaceOnUse">
<stop stop-color="#F3EFE0"/>
<stop offset="1" stop-color="#D2CCB2"/>
</linearGradient>
<linearGradient id="paint4_linear_127_7799" x1="20" y1="16.5713" x2="20" y2="18.857" gradientUnits="userSpaceOnUse">
<stop stop-color="#F3EFE0"/>
<stop offset="1" stop-color="#D2CCB2"/>
</linearGradient>
</defs>
</svg>
