<svg width="24" height="24" viewBox="0 0 24 24" fill="none" xmlns="http://www.w3.org/2000/svg">
<circle cx="12" cy="12" r="12" fill="#D7D2BE"/>
<path d="M11.9993 4.54712L9.54838 9.20448L4.97302 9.93337L8.44288 13.5095L7.53176 18.5997L11.9993 16.2308L16.4668 18.5997L15.5557 13.5095L19.0256 9.93337L14.4502 9.20448L11.9993 4.54712Z" fill="black"/>
<path d="M11.8018 4.43173C11.7214 4.58662 11.6394 4.73999 11.5589 4.89488C11.3645 5.2654 11.1686 5.63593 10.9742 6.00645C10.7389 6.45442 10.502 6.90391 10.2666 7.35187C10.0631 7.7391 9.85812 8.12785 9.65463 8.51508C9.55593 8.70186 9.44204 8.88712 9.357 9.07997C9.35548 9.08301 9.35396 9.08605 9.35245 9.08756C9.398 9.05264 9.44356 9.01771 9.48911 8.98278C8.97281 9.06479 8.45499 9.14679 7.93869 9.23031C7.11868 9.3609 6.29715 9.4915 5.47714 9.62209C5.28884 9.65246 5.10054 9.68131 4.91224 9.71168C4.73609 9.74054 4.70268 9.98046 4.81202 10.0928C5.20532 10.4983 5.59862 10.9022 5.9904 11.3077C6.61148 11.9485 7.23257 12.5878 7.85517 13.2286C7.99791 13.3759 8.13913 13.5217 8.28188 13.669C8.26214 13.5946 8.24239 13.5217 8.22265 13.4473C8.11939 14.0243 8.01613 14.5999 7.91287 15.1769C7.75039 16.088 7.58639 17.0007 7.4239 17.9118C7.38594 18.1213 7.34949 18.3294 7.31153 18.5389C7.2766 18.7333 7.46187 18.8943 7.64561 18.7956C8.14824 18.5283 8.65088 18.2626 9.15504 17.9953C9.95682 17.5701 10.7586 17.1449 11.5604 16.7197C11.7457 16.6226 11.9294 16.5238 12.1147 16.4267C12.0387 16.4267 11.9613 16.4267 11.8854 16.4267C12.388 16.6939 12.8906 16.9597 13.3948 17.2269C14.1966 17.6521 14.9984 18.0773 15.8002 18.5025C15.9854 18.5997 16.1692 18.6984 16.3544 18.7956C16.5397 18.8943 16.7234 18.7333 16.6885 18.5389C16.5852 17.9619 16.482 17.3864 16.3787 16.8093C16.2162 15.8982 16.0522 14.9856 15.8898 14.0744C15.8518 13.8649 15.8153 13.6568 15.7774 13.4473C15.7576 13.5217 15.7379 13.5946 15.7182 13.669C16.1115 13.2635 16.5048 12.8596 16.8965 12.4542C17.5176 11.8133 18.1387 11.174 18.7613 10.5332C18.9041 10.3859 19.0453 10.2401 19.188 10.0928C19.2974 9.98046 19.2639 9.74054 19.0878 9.71168C18.5715 9.62968 18.0537 9.54768 17.5374 9.46416C16.7174 9.33357 15.8958 9.20297 15.0758 9.07238C14.8875 9.04201 14.6992 9.01316 14.5109 8.98278C14.5565 9.01771 14.602 9.05264 14.6476 9.08756C14.5671 8.93267 14.4851 8.7793 14.4046 8.62441C14.2102 8.25389 14.0144 7.88336 13.82 7.51284C13.5846 7.06487 13.3477 6.61538 13.1123 6.16741C12.9089 5.78019 12.7039 5.39144 12.5004 5.00421C12.4017 4.81592 12.3106 4.62154 12.2027 4.43932C12.2012 4.43628 12.1997 4.43476 12.1982 4.43173C12.1405 4.32239 11.9886 4.2905 11.8869 4.34972C11.776 4.4135 11.7472 4.55169 11.8049 4.66102C12.057 5.13936 12.309 5.6177 12.5611 6.09756C12.9863 6.90542 13.41 7.71177 13.8352 8.51963C13.9612 8.75804 14.0872 8.99797 14.2118 9.23638C14.2543 9.31838 14.2877 9.39735 14.3925 9.42316C14.4456 9.43683 14.5018 9.43986 14.555 9.44898C15.3324 9.5735 16.1115 9.6965 16.889 9.82102C17.5708 9.92883 18.2526 10.0382 18.9344 10.146C18.9451 10.1475 18.9572 10.149 18.9678 10.1521C18.9344 10.0245 18.901 9.89846 18.8676 9.77091C18.4606 10.19 18.0552 10.6091 17.6482 11.0283C17.0195 11.6767 16.3909 12.3251 15.7607 12.9735C15.6392 13.098 15.5132 13.218 15.3977 13.3486C15.3066 13.4503 15.337 13.5612 15.3583 13.6766C15.3795 13.792 15.3993 13.9074 15.4205 14.0228C15.5754 14.8914 15.7318 15.7585 15.8867 16.6271C16.0067 17.2937 16.1251 17.9604 16.2451 18.627C16.2466 18.6377 16.2496 18.6483 16.2512 18.6589C16.362 18.5739 16.4744 18.4873 16.5852 18.4023C16.0781 18.1335 15.5709 17.8647 15.0637 17.5959C14.2604 17.1692 13.4555 16.744 12.6522 16.3173C12.4761 16.2232 12.3014 16.126 12.1223 16.0364C12.0068 15.9787 11.9218 16.0151 11.8246 16.0668C11.7335 16.1154 11.6424 16.164 11.5513 16.211C10.7829 16.6195 10.016 17.025 9.2507 17.4319C8.64936 17.7508 8.04802 18.0697 7.44668 18.3886C7.43605 18.3932 7.42694 18.3992 7.41631 18.4038C7.52716 18.4888 7.63953 18.5754 7.75039 18.6604C7.85061 18.0986 7.95235 17.5367 8.05258 16.9733C8.21506 16.0652 8.37754 15.1556 8.54003 14.2476C8.57951 14.0289 8.62051 13.8087 8.65847 13.59C8.67366 13.5004 8.6691 13.42 8.60381 13.3471C8.59469 13.3364 8.58558 13.3273 8.57647 13.3182C8.51118 13.2514 8.4474 13.1846 8.3821 13.1178C7.78835 12.5058 7.1946 11.8938 6.60085 11.2819C6.11948 10.7868 5.63962 10.2902 5.15824 9.7952C5.15065 9.78761 5.14306 9.7785 5.13395 9.77091C5.10054 9.89846 5.06713 10.0245 5.03372 10.1521C5.6138 10.0594 6.19237 9.9668 6.77245 9.87569C7.60916 9.74205 8.44588 9.60994 9.28259 9.47631C9.439 9.45201 9.66678 9.45961 9.75486 9.3032C9.85812 9.12097 9.95075 8.93115 10.0479 8.74589C10.461 7.96081 10.874 7.17724 11.2871 6.39216C11.5862 5.82423 11.8884 5.25781 12.183 4.68836C12.1876 4.67925 12.1921 4.67014 12.1967 4.66254C12.2544 4.55321 12.224 4.41502 12.1147 4.35124C12.0114 4.2905 11.8596 4.32239 11.8018 4.43173Z" fill="black"/>
</svg>
