<svg width="16" height="16" viewBox="0 0 16 16" fill="none" xmlns="http://www.w3.org/2000/svg">
<path d="M1.45947 7.99996C2.46591 5.36861 5.01465 3.5 7.99983 3.5C10.985 3.5 13.5338 5.36865 14.5402 8.00005C13.5338 10.6314 10.985 12.5 7.99986 12.5C5.01465 12.5 2.46588 10.6313 1.45947 7.99996Z" stroke="#222429" stroke-width="1.2" stroke-linecap="round" stroke-linejoin="round"/>
<path d="M6 7.5C6.55228 7.5 7 7.05228 7 6.5C7 6.24509 6.90462 6.01246 6.74761 5.83584C7.11587 5.62227 7.54365 5.5 8 5.5C9.38071 5.5 10.5 6.61929 10.5 8C10.5 9.38071 9.38071 10.5 8 10.5C6.61929 10.5 5.5 9.38071 5.5 8C5.5 7.79454 5.52479 7.59487 5.57153 7.40382C5.7014 7.46549 5.84667 7.5 6 7.5Z" fill="#222429"/>
</svg>
