<svg width="16" height="16" viewBox="0 0 16 16" fill="none" xmlns="http://www.w3.org/2000/svg">
<path fill-rule="evenodd" clip-rule="evenodd" d="M4.48575 5.10039H1.4999C1.16853 5.10039 0.899902 4.83176 0.899902 4.50039C0.899902 4.16902 1.16853 3.90039 1.4999 3.90039H3.7046C3.45993 2.36056 4.64827 0.900391 6.27462 0.900391H9.72491C11.3513 0.900391 12.5396 2.36056 12.2949 3.90039H13.9999C14.3313 3.90039 14.5999 4.16902 14.5999 4.50039C14.5999 4.83176 14.3313 5.10039 13.9999 5.10039H11.5138C11.5045 5.10061 11.4952 5.10061 11.4859 5.10039H4.51361C4.5043 5.10061 4.49501 5.10061 4.48575 5.10039ZM4.93295 3.90039H11.0666C11.334 3.0074 10.6655 2.10039 9.72491 2.10039H6.27462C5.33404 2.10039 4.66554 3.0074 4.93295 3.90039Z" fill="#D92D20"/>
<path d="M3.5 6.5L4.28101 12.7481C4.40612 13.7489 5.25692 14.5 6.26556 14.5H9.73444C10.7431 14.5 11.5939 13.7489 11.719 12.7481L12.5 6.5" stroke="#D92D20" stroke-width="1.2" stroke-linecap="round" stroke-linejoin="round"/>
</svg>
