<svg width="27" height="35" viewBox="0 0 27 35" fill="none" xmlns="http://www.w3.org/2000/svg">
<g clip-path="url(#clip0_4_252)">
<path d="M26.421 17.1108C24.6853 15.2635 22.371 13.9997 19.9603 13.5135C18.8996 13.2219 17.8389 13.0274 16.7782 12.9302C19.4782 9.72187 18.996 4.86076 15.8139 2.13854C12.6317 -0.58368 7.81031 -0.0975691 5.11031 3.11076C2.41031 6.3191 2.89245 11.1802 6.07459 13.9024C6.65317 14.3885 7.23174 14.7774 7.81031 14.9719V17.1108L6.26745 15.6524C4.91745 14.2913 2.6996 14.2913 1.25317 15.6524C-0.096833 17.0135 -0.193262 19.1524 1.15674 20.5135L5.59245 25.7635C5.78531 27.1247 6.26745 28.3885 6.94245 29.5552C7.42459 30.4302 8.09959 31.3052 8.77459 31.9858V33.833C8.77459 34.4163 9.16031 34.8052 9.73888 34.8052H22.8532C23.3353 34.8052 23.8175 34.3191 23.8175 33.833V31.3052C25.6496 29.0691 26.6139 26.2497 26.6139 23.4302V17.7913C26.7103 17.4024 26.6139 17.208 26.421 17.1108V17.1108ZM5.20674 7.97187C5.20674 4.76354 7.81031 2.23576 10.9925 2.33299C14.1746 2.33299 16.6817 4.95799 16.5853 8.16632C16.5853 9.91632 15.8139 11.4719 14.4639 12.5413V7.68021C14.4146 6.83765 14.0476 6.046 13.438 5.46754C12.8284 4.88908 12.0224 4.56764 11.1853 4.5691C9.44959 4.47187 7.90674 5.93021 7.90674 7.68021V12.7358C6.26745 11.7635 5.30317 9.91632 5.20674 7.97187ZM24.7817 23.333C24.8782 25.8608 24.0103 28.2913 22.371 30.2358C22.1782 30.4302 21.9853 30.6246 21.9853 30.9163V32.958H10.7996V31.5969C10.7996 31.3052 10.6067 31.0135 10.4139 30.8191C9.73888 30.2358 9.16031 29.5552 8.67817 28.6802C8.09959 27.708 7.71388 26.5413 7.52102 25.3747C7.52102 25.1802 7.42459 24.9858 7.32817 24.7913L2.6996 19.2497C2.41031 18.958 2.21745 18.5691 2.21745 18.083C2.21745 17.6941 2.41031 17.208 2.6996 16.9163C3.3746 16.333 4.33888 16.333 5.01388 16.9163L7.81031 19.7358V22.6524L9.64245 21.6802V7.68021C9.73888 6.99965 10.3175 6.41632 11.0889 6.51354C11.7639 6.51354 12.4389 6.99965 12.4389 7.68021V18.8608L14.3675 19.2497V14.7774C14.4639 14.6802 14.5603 14.6802 14.6567 14.583C15.3317 14.583 16.0067 14.6802 16.6817 14.7774V19.7358L18.2246 20.0274V14.9719L19.3817 15.2635C19.8639 15.3608 20.346 15.5552 20.8282 15.7497V20.6108L22.371 20.9024V16.4302C23.2389 16.8191 24.0103 17.4024 24.6853 18.083L24.7817 23.333V23.333Z" fill="#F5C108"/>
</g>
<defs>
<clipPath id="clip0_4_252">
<rect width="27" height="35" fill="white"/>
</clipPath>
</defs>
</svg>
