<svg width="48" height="48" viewBox="0 0 48 48" fill="none" xmlns="http://www.w3.org/2000/svg">
<rect width="48" height="48" rx="12" fill="white"/>
<path d="M28.117 21.2193C29.4084 22.142 30.9905 22.6849 32.6991 22.6849V19.3987C32.3757 19.3988 32.0532 19.3651 31.7368 19.298V21.8847C30.0283 21.8847 28.4465 21.3419 27.1548 20.4193V27.1255C27.1548 30.4804 24.4338 33.1997 21.0775 33.1997C19.8252 33.1997 18.6612 32.8213 17.6943 32.1723C18.7979 33.3002 20.3369 33.9998 22.0395 33.9998C25.3961 33.9998 28.1172 31.2804 28.1172 27.9255V21.2193H28.117ZM29.3042 17.904C28.6442 17.1834 28.2108 16.2521 28.117 15.2225V14.7998H27.2052C27.4347 16.1084 28.2177 17.2264 29.3042 17.904ZM19.8171 29.598C19.4484 29.1149 19.249 28.5237 19.25 27.9159C19.25 26.3815 20.4946 25.1375 22.0301 25.1375C22.3162 25.1373 22.6006 25.1812 22.8733 25.2676V21.908C22.5546 21.8643 22.233 21.8457 21.9115 21.8526V24.4676C21.6386 24.3811 21.354 24.3372 21.0678 24.3374C19.5323 24.3374 18.2878 25.5814 18.2878 27.1159C18.2878 28.201 18.9099 29.1404 19.8171 29.598Z" fill="#FF004F"/>
<path d="M27.1548 20.4193C28.4466 21.3419 30.0282 21.8847 31.7368 21.8847V19.298C30.7831 19.0949 29.9389 18.5968 29.3041 17.904C28.2176 17.2263 27.4347 16.1083 27.2052 14.7998H24.81V27.9253C24.8045 29.4555 23.5621 30.6945 22.0299 30.6945C21.1271 30.6945 20.325 30.2644 19.817 29.5979C18.9099 29.1404 18.2878 28.2009 18.2878 27.116C18.2878 25.5816 19.5323 24.3375 21.0677 24.3375C21.3619 24.3375 21.6454 24.3833 21.9114 24.4676V21.8527C18.614 21.9208 15.9622 24.6136 15.9622 27.9254C15.9622 29.5787 16.6226 31.0774 17.6944 32.1725C18.6613 32.8213 19.8252 33.1999 21.0776 33.1999C24.4339 33.1999 27.1549 30.4803 27.1549 27.1255L27.1548 20.4193Z" fill="black"/>
<path d="M31.7368 19.2981V18.5988C30.8768 18.6001 30.0338 18.3594 29.3041 17.9042C29.95 18.611 30.8005 19.0983 31.7368 19.2983M27.2051 14.7999C27.1832 14.6749 27.1664 14.549 27.1548 14.4226V14H23.8476V27.1257C23.8423 28.6557 22.5999 29.8947 21.0676 29.8947C20.6332 29.8953 20.2048 29.7938 19.8169 29.5983C20.3249 30.2646 21.127 30.6946 22.0298 30.6946C23.562 30.6946 24.8045 29.4558 24.8099 27.9256V14.8L27.2051 14.7999ZM21.9115 21.8528V21.1082C21.6352 21.0705 21.3566 21.0516 21.0777 21.0517C17.721 21.0517 15 23.7712 15 27.1257C15 29.2288 16.0694 31.0823 17.6944 32.1725C16.6226 31.0775 15.9623 29.5787 15.9623 27.9255C15.9623 24.6138 18.614 21.9209 21.9115 21.8528Z" fill="#00F2EA"/>
</svg>
