<svg width="148" height="40" viewBox="0 0 148 40" fill="none" xmlns="http://www.w3.org/2000/svg">
<g clip-path="url(#clip0_253_19)">
<path d="M59.7629 27.9471H45.933C44.4411 31.4711 42.5138 36.0999 41.3042 39.2933H35.2964L50.7875 0.706665H54.8599L70.3429 39.2933H64.3916L59.7629 27.9471ZM48.0296 22.7135H57.6178L52.8761 9.10943L48.0296 22.7135Z" fill="white"/>
<path d="M66.9238 27.2456V0.779297H72.5444V27.302C72.5444 31.5438 77.1168 33.6404 81.1972 33.6404C85.2776 33.6404 89.7935 31.4873 89.7935 27.2456V0.779297H95.4142V27.302C95.4142 35.1242 87.8097 39.2046 81.1972 39.2046C74.5846 39.2046 66.9318 35.1242 66.9318 27.2456" fill="white"/>
<path d="M97.4866 19.7379H103.986C108.672 19.7379 110.986 16.3752 110.986 13.0124C110.986 9.64971 108.672 6.34344 103.986 6.34344H95.4464V6.42408H89.9387V0.722778H103.986C112.365 0.722778 116.55 6.8918 116.55 13.0044C116.55 18.4557 113.187 23.6409 106.575 24.794L118.752 39.2852H111.534L97.4866 22.3748V19.7298V19.7379Z" fill="white"/>
<path d="M137.42 27.9471H123.59C122.106 31.4711 120.179 36.0999 118.961 39.2933H112.954L128.445 0.706665H132.525L148.008 39.2933H142.057L137.428 27.9471H137.42ZM125.687 22.7135H135.275L130.533 9.10943L125.687 22.7135Z" fill="white"/>
<path d="M38.9737 20.3427C38.9737 28.3826 34.103 35.2854 27.1517 38.2691C27.0308 37.8901 26.8372 37.4466 26.9824 37.0595C27.3372 36.1563 27.0469 35.3177 27.2888 34.3822C27.7969 32.4469 28.2001 30.6244 28.6597 28.6729C29.1032 26.8101 29.5629 24.8182 29.6758 22.899C29.7322 21.891 30.1032 20.8749 30.0387 19.875C29.9822 18.8831 29.9258 19.3347 30.0548 18.367C30.1354 17.738 30.0064 17.617 30.1113 16.988C30.2967 15.8591 30.5628 14.7059 30.5951 13.5527C30.6193 12.7625 30.4661 12.0206 30.1596 11.2948C29.8855 10.6577 29.8935 9.93196 29.708 9.27071C29.5306 8.62558 29.3613 8.69009 28.8533 8.30302C28.4178 7.98046 27.684 8.1498 27.1679 8.35947C25.7083 8.97234 25.1518 8.69816 24.0229 9.84326C23.7084 9.00459 23.2487 8.11755 22.4101 7.75466C21.5149 7.36759 20.3134 7.85143 19.5634 8.34334C18.0313 9.35135 17.3297 10.6013 17.8539 12.3593C16.8458 12.3754 17.6684 13.7382 17.999 14.0366C18.12 14.1414 18.628 14.2382 18.6441 14.2866C18.7328 14.5607 18.757 14.8752 18.7893 15.1655C18.8861 15.9397 19.1119 17.238 18.507 17.867C18.1119 18.2783 17.4507 18.5202 16.9507 18.7783C16.3781 18.1734 16.0394 17.6815 14.846 17.4477C14.3944 17.359 13.2573 17.3912 12.9106 17.1251C12.6122 16.8913 12.5235 16.601 12.2171 16.2703C11.9187 15.9478 11.7977 15.8833 11.1204 15.5446C10.5639 15.2784 9.38658 15.0043 8.78177 15.0849C9.78172 13.4318 10.0156 11.448 11.2736 9.89164C11.6365 9.44005 12.0074 8.76267 12.58 9.25458C13.0396 9.64972 13.6041 10.0287 14.2411 9.93196C14.6282 9.87551 14.7008 9.68198 15.9991 9.39973C16.3136 9.32716 17.0313 8.95621 16.4991 8.62558C16.1927 8.43204 16.2491 8.34334 16.0556 8.02884C15.1605 6.63376 13.7573 6.11765 12.209 6.64988C11.7816 6.79504 11.3139 6.89987 10.9026 7.10147C10.4188 7.34339 10.0236 7.90788 9.66075 8.27883C8.99144 8.96427 8.61242 9.96422 7.86246 10.561C6.64479 11.5206 6.28191 12.4641 5.41099 13.7301C5.03197 14.2946 4.70941 14.5849 4.99165 15.2865C5.29002 16.0365 5.87064 16.738 6.28191 17.4316C6.95122 18.4315 9.86236 20.762 10.1769 20.8991C11.451 21.4717 11.8784 22.5764 12.6041 23.8828C13.1364 24.8344 14.1202 25.8101 14.5315 26.8181C14.983 27.9149 15.6443 28.8664 16.233 29.8906C17.2732 31.705 16.104 33.7855 15.5959 35.616C15.4427 36.1725 14.604 36.7208 14.4186 37.2934C14.217 37.9304 14.0879 38.3982 14.0879 39.0675C8.44308 37.4466 3.73366 33.2371 1.47572 27.81C-0.790289 22.3748 -0.427405 16.0284 2.44341 10.8755C6.72543 3.17427 15.9265 -0.744875 24.4503 1.49694C32.9095 3.72262 38.9737 11.6012 38.9737 20.3427ZM24.3535 12.0931C24.3535 12.5367 24.3454 12.9721 24.2487 13.4156C24.1035 14.0446 24.2003 14.6333 23.8374 15.101C23.6681 15.3188 23.9745 16.6655 24.3938 16.5606C24.8051 16.4639 26.2647 14.6736 26.0873 14.2704C25.6679 13.3431 25.6438 12.2786 26.3373 11.5045L24.3616 12.1012L24.3535 12.0931Z" fill="white"/>
</g>
<defs>
<clipPath id="clip0_253_19">
<rect width="148" height="38.5866" fill="white" transform="translate(0 0.706665)"/>
</clipPath>
</defs>
</svg>
