<svg width="500" height="418" viewBox="0 0 500 418" fill="none" xmlns="http://www.w3.org/2000/svg">
<g clip-path="url(#clip0_253_5315)">
<path d="M500 30.5V11C500 5.5 495.5 1 490 1H291.7C286.2 1 281.7 5.5 281.7 11V209.6C281.7 215.1 286.2 219.6 291.7 219.6H341.7C352.4 219.6 362 212.7 365.4 202.5L376.6 169C376.9 168.1 377.7 167.5 378.7 167.5C379.9 167.5 380.9 168.5 380.9 169.7V218.6C378.5 243.8 370.5 262.2 357.7 274.8C343.4 288.9 321.8 297.3 291.3 298.4C285.9 298.6 281.7 303 281.7 308.4V407C281.7 409.8 282.9 412.6 285 414.5C287.1 416.4 290 417.3 292.8 417C360.2 409.3 412.3 388.5 447.5 353.5M95.9 169C96.2 168.1 97 167.5 98 167.5C99.2 167.5 100.2 168.5 100.2 169.7V218.6C97.8 243.8 89.8 262.2 77 274.8C62.7 288.9 41.1 297.3 10.6 298.4C5.2 298.6 1 303 1 308.4V407C1 409.8 2.2 412.6 4.3 414.5C6.4 416.4 9.3 417.3 12.1 417C79.5 409.3 131.6 388.5 166.8 353.5C202.2 318.3 219.3 269.9 219.3 209.7V11C219.3 5.5 214.8 1 209.3 1H11C5.5 1 1 5.5 1 11V209.6C1 215.1 5.5 219.6 11 219.6H61C71.7 219.6 81.3 212.7 84.7 202.5L95.9 169Z" stroke="#1C1C1C" stroke-width="2" stroke-linecap="round" stroke-linejoin="round"/>
</g>
<defs>
<clipPath id="clip0_253_5315">
<rect width="500" height="418" fill="white"/>
</clipPath>
</defs>
</svg>
