<svg width="112" height="49" viewBox="0 0 112 49" fill="none" xmlns="http://www.w3.org/2000/svg">
<g clip-path="url(#clip0_1_37)">
<mask id="mask0_1_37" style="mask-type:luminance" maskUnits="userSpaceOnUse" x="0" y="0" width="112" height="49">
<path d="M112 0H0V49H112V0Z" fill="white"/>
</mask>
<g mask="url(#mask0_1_37)">
<path d="M54.9744 9.14858C54.4161 8.45366 53.6885 7.91386 52.8608 7.58049C49.475 6.15227 45.5507 7.26306 43.4176 10.2532V7.4113H38.6829V26.8776H43.7834V18.0576C43.7165 16.5622 43.8484 15.0642 44.1755 13.6032C44.4275 12.8132 44.936 12.1301 45.6205 11.6609C46.3174 11.1744 47.1507 10.919 48.0013 10.9304C48.6353 10.9123 49.2587 11.093 49.7848 11.4472C50.2717 11.7997 50.636 12.295 50.8279 12.8636C51.1153 14.1979 51.2265 15.5635 51.1578 16.9263V26.8776H56.2583V14.7792C56.2898 13.6202 56.194 12.461 55.9731 11.3227C55.7973 10.5362 55.4568 9.7952 54.9744 9.14858Z" fill="white"/>
<path d="M94.5223 7.41113H89.0651L85.6051 17.3451C85.4176 17.8884 85.2219 18.4411 85.0608 18.993C84.9806 19.2605 84.812 19.8216 84.5347 20.6683L83.4743 17.3538L80.0319 7.41113H74.3872L75.6175 10.5384L82.0382 26.8774H87.0228L93.265 10.6275L94.5223 7.41113Z" fill="white"/>
<path d="M70.2141 21.577C69.399 22.581 68.1729 23.1639 66.8789 23.1626C65.5841 23.1778 64.35 22.6121 63.5176 21.6212C62.5237 20.3576 62.0371 18.7692 62.1531 17.1666C62.0382 15.5641 62.5237 13.9765 63.5176 12.712C64.3482 11.7182 65.5824 11.1492 66.8789 11.1617C68.1747 11.1418 69.4105 11.7085 70.2402 12.7031C71.2236 13.952 71.7085 15.5195 71.6046 17.1047C71.7095 18.7153 71.2138 20.3085 70.2141 21.577ZM74.0126 9.79888C72.1307 7.90748 69.5471 6.88186 66.8789 6.9657C65.0797 6.94281 63.3051 7.38132 61.7243 8.2398C60.1934 9.07368 58.951 10.3502 58.1574 11.9016C57.3416 13.4322 56.9097 15.1384 56.9007 16.8726C56.8424 18.8451 57.2748 20.8009 58.1574 22.5657C58.9753 24.1109 60.2617 25.3585 61.8316 26.1293C63.3973 26.9176 65.1261 27.3265 66.8789 27.323C69.5599 27.4007 72.1497 26.3469 74.0126 24.4188C74.6396 23.7785 75.1771 23.0564 75.6087 22.2716C76.4482 20.6841 76.8723 18.9092 76.8393 17.1134C76.8741 15.3232 76.4509 13.5537 75.6087 11.9726C75.1806 11.1777 74.6431 10.4459 74.0126 9.79888Z" fill="white"/>
<path d="M105.383 21.5413C104.569 22.5666 103.331 23.1631 102.022 23.1627C100.727 23.1779 99.4926 22.6122 98.6598 21.6213C97.6664 20.3574 97.1804 18.7694 97.2954 17.1668C97.1813 15.5642 97.6673 13.977 98.6598 12.7122C99.4926 11.7214 100.727 11.156 102.022 11.1713C103.315 11.1538 104.546 11.7201 105.374 12.7122C106.356 13.9613 106.842 15.5288 106.739 17.1136C106.849 18.7169 106.367 20.3055 105.383 21.5771V21.5413ZM109.2 9.79903C107.312 7.87974 104.705 6.83925 102.013 6.93004C100.217 6.90812 98.4449 7.34663 96.8674 8.20448C95.3364 9.03793 94.0932 10.3142 93.3006 11.8659C92.4918 13.3891 92.0628 15.0856 92.0522 16.8107C91.9951 18.776 92.4231 20.7255 93.3006 22.4858C94.1183 24.0313 95.4032 25.2786 96.9744 26.0495C98.5376 26.8447 100.267 27.2599 102.022 27.2605C104.703 27.3398 107.293 26.2854 109.155 24.3565C111.048 22.3965 112.068 19.7552 111.982 17.0335C112.07 14.3455 111.067 11.736 109.2 9.79903Z" fill="white"/>
<path d="M12.6001 21.7367C11.8871 22.6889 10.7672 23.2503 9.57725 23.2512C8.14913 23.2627 6.83037 22.4892 6.14415 21.2377C5.4576 19.839 5.14969 18.2844 5.25243 16.7296C5.13749 15.177 5.57674 13.6336 6.49144 12.3735C7.23129 11.4412 8.35988 10.9025 9.55049 10.9122C10.7578 10.8882 11.9055 11.437 12.6447 12.3912C13.4472 13.3709 13.8482 14.9926 13.8482 17.2199C13.961 18.8239 13.5203 20.4179 12.6001 21.7367ZM13.8217 8.90762C12.6318 7.84308 11.1319 7.1871 9.54175 7.03672C9.09135 6.98799 8.63888 6.96437 8.18606 6.96536C5.94492 6.9135 3.79643 7.85662 2.31847 9.54035C0.77294 11.2567 0 13.766 0 17.0685C0 20.3708 0.793839 22.886 2.38082 24.6145C4.26457 26.5024 6.84778 27.5256 9.51455 27.4385C12.0455 27.528 14.5215 26.6851 16.4704 25.069C18.1911 23.4831 18.9312 20.9794 18.9312 17.2912V-0.00146484H13.8217V8.90762Z" fill="white"/>
<path d="M25.147 15.4742C25.0696 14.2652 25.4591 13.0729 26.2343 12.1419C26.8566 11.4254 27.7391 10.9859 28.6866 10.9212H29.0252C30.0455 10.8996 31.0236 11.3263 31.7004 12.0884C32.8777 13.3625 32.102 15.4115 30.0515 15.8125L28.6866 16.1333L25.1197 16.9706V15.4829L25.147 15.4742ZM32.3604 21.2829C32.1519 21.8776 31.7884 22.4059 31.3082 22.8152C30.7279 23.2641 30.0089 23.4965 29.2754 23.4742C29.0764 23.4875 28.8768 23.4875 28.678 23.4742C27.7618 23.3587 26.9171 22.9195 26.2971 22.236C25.9073 21.8282 25.604 21.3469 25.4054 20.8196L28.6601 20.062L31.995 19.2869C33.6532 18.9752 35.1588 18.1191 36.2754 16.8547C37.6398 15.0729 37.729 12.5787 35.562 9.8789C33.8193 7.93734 31.2939 6.88357 28.6866 7.01053C26.264 6.93926 23.9302 7.92442 22.2931 9.70971C20.6045 11.551 19.7608 14.078 19.7608 17.2915C19.6699 19.6768 20.3481 22.0287 21.6957 23.9998C23.2353 26.0961 25.5656 27.1987 28.6866 27.3056H29.2216C31.1156 27.3751 32.9843 26.8593 34.572 25.8265C36.1143 24.7014 37.2402 23.0971 37.7731 21.265H32.3604V21.2829Z" fill="white"/>
<path d="M0.820312 34.415V32.179H37.7466V34.4236L0.820312 34.415Z" fill="white"/>
<path d="M37.6753 34.415V32.179H112V34.4236L37.6753 34.415Z" fill="white"/>
<path d="M2.06883 38.5667V46.8605H1.56934V38.5667H2.06883Z" fill="white"/>
<path d="M4.39632 40.8921V42.2104C4.73211 41.2923 5.62105 40.6955 6.5988 40.7313C7.17354 40.7 7.73436 40.913 8.1412 41.3194C8.53203 41.7701 8.73058 42.3548 8.69434 42.9498V46.8702H8.23072V43.1813C8.23072 41.8275 7.6511 41.1507 6.49152 41.1507C5.7569 41.102 5.06094 41.4847 4.70808 42.1304C4.45764 42.6392 4.34164 43.2029 4.3695 43.7694V46.8605H3.94141V40.8921H4.39632Z" fill="white"/>
<path d="M14.7934 42.6285H14.3117C14.3065 42.1893 14.1117 41.7742 13.7774 41.4888C13.3945 41.2376 12.9414 41.1146 12.484 41.1407C12.0658 41.1175 11.6505 41.2271 11.298 41.4533C11.0043 41.6516 10.8382 41.991 10.8612 42.3442C10.8504 42.4295 10.8504 42.5165 10.8612 42.6024C10.8779 42.673 10.9019 42.7416 10.9323 42.8071C10.965 42.8749 11.0103 42.9348 11.0664 42.9853L11.2179 43.1279C11.2802 43.176 11.3491 43.2149 11.4231 43.2438L11.6365 43.3326L11.8953 43.4039L12.1541 43.4753L12.4485 43.5465L12.7334 43.6092L13.3493 43.7519L13.9108 43.9475C14.1104 44.0181 14.2971 44.1208 14.4639 44.2503C14.5983 44.3756 14.7099 44.5234 14.7934 44.687C14.8973 44.8846 14.9492 45.1057 14.945 45.3284C14.9554 45.8354 14.7109 46.3133 14.294 46.6022C13.7917 46.9456 13.1904 47.1144 12.582 47.083C11.9361 47.1189 11.3007 46.9118 10.7985 46.5046C10.3519 46.0906 10.1133 45.4996 10.1478 44.8916H10.6114C10.5734 45.39 10.7636 45.8783 11.1287 46.2193C11.5519 46.5419 12.0779 46.6996 12.6091 46.6648C13.0845 46.6846 13.5552 46.5569 13.9554 46.2994C14.2814 46.093 14.4769 45.7321 14.4727 45.3465C14.4744 45.183 14.4308 45.0229 14.3476 44.883C14.279 44.76 14.1915 44.6498 14.0888 44.553C13.9606 44.4531 13.8161 44.3738 13.661 44.3216C13.5218 44.2653 13.3782 44.2183 13.2329 44.1789L12.7693 44.0721H12.6178L12.2966 44.0007L11.9403 43.9294L11.601 43.8407C11.4847 43.8093 11.3714 43.7676 11.2625 43.7161L10.9678 43.5734C10.8664 43.5264 10.7755 43.4603 10.7006 43.3777L10.5041 43.1279C10.4373 43.034 10.3888 42.9278 10.3616 42.8157C10.3474 42.6887 10.3474 42.56 10.3616 42.433C10.346 41.9666 10.5634 41.5229 10.9413 41.248C11.4171 40.9389 11.9793 40.7892 12.5464 40.8206C13.1326 40.7868 13.7122 40.9564 14.1874 41.3019C14.5698 41.6377 14.7903 42.1204 14.7934 42.6285Z" fill="white"/>
<path d="M19.2434 41.1236C18.6147 41.094 18.0104 41.37 17.6203 41.8631C17.2006 42.4644 16.9965 43.189 17.0406 43.9209C17.034 44.3758 17.1068 44.8274 17.2549 45.2573C17.3977 45.6558 17.6516 46.0044 17.986 46.2636C18.3483 46.5421 18.7954 46.6875 19.2521 46.6736C19.8757 46.6945 20.4706 46.4127 20.8486 45.9167C21.2711 45.3362 21.4821 44.629 21.4455 43.9121C21.4852 43.1838 21.2745 42.4644 20.8486 41.8717C20.463 41.3828 19.8659 41.1079 19.2434 41.1323V41.1236ZM17.0406 40.8921V42.3173C17.3224 41.3335 18.2475 40.6756 19.2699 40.7313C20.0219 40.7087 20.7409 41.0383 21.2139 41.6223C21.7277 42.2817 21.9872 43.1037 21.9451 43.939C21.9844 44.7648 21.7249 45.5774 21.2139 46.2282C20.364 47.1817 18.9474 47.3783 17.8699 46.6917C17.4775 46.4133 17.1936 46.0071 17.0677 45.5425V48.999H16.6038V40.8921H17.0406Z" fill="white"/>
<path d="M24.0764 40.9008V46.8702H23.6128V40.8921L24.0764 40.9008ZM24.0764 38.5667V39.743H23.6128V38.5667H24.0764Z" fill="white"/>
<path d="M28.6779 40.8467V41.328H28.535C27.8888 41.3078 27.2744 41.6081 26.8944 42.1302C26.6903 42.3911 26.5498 42.6964 26.4844 43.021C26.4193 43.4272 26.3896 43.8388 26.3949 44.2502V46.8603H25.8599V40.8919H26.3145V42.4684C26.4781 41.9742 26.7896 41.5421 27.2061 41.2306C27.6457 40.9545 28.1595 40.8206 28.6779 40.8467Z" fill="white"/>
<path d="M34.1974 43.5647C34.2124 42.9539 34.0173 42.3564 33.6447 41.8716C33.265 41.3931 32.6767 41.128 32.0664 41.1592C31.4624 41.1216 30.8769 41.3733 30.4878 41.8361C30.1028 42.338 29.8764 42.9428 29.8371 43.5734L34.1974 43.5647ZM34.6165 44.8384C34.5339 45.4572 34.2375 46.028 33.7784 46.4508C33.3072 46.8666 32.6944 47.0866 32.0664 47.0657C31.3046 47.0876 30.5755 46.7588 30.0869 46.1748C29.5682 45.5345 29.3046 44.7253 29.3466 43.9034C29.3073 43.0653 29.5738 42.2433 30.0955 41.5862C30.5759 41.0016 31.3008 40.6727 32.0577 40.6954C32.8098 40.6571 33.5332 40.9895 33.9923 41.5862C34.4584 42.2207 34.697 42.9922 34.6701 43.778V43.9388H29.8371C29.8131 44.621 30.0103 45.2926 30.3985 45.8539C30.7884 46.3829 31.4192 46.6777 32.0754 46.6377C32.5715 46.6533 33.055 46.4811 33.4308 46.1568C33.8126 45.7972 34.0641 45.3215 34.1438 44.803L34.6165 44.8384Z" fill="white"/>
<path d="M38.5934 41.1235C37.972 41.102 37.3785 41.3804 36.9977 41.8717C36.5727 42.4609 36.3619 43.1778 36.4 43.9035C36.3588 44.622 36.5672 45.3327 36.9887 45.9167C37.3788 46.4039 37.9786 46.6754 38.6024 46.6475C39.2378 46.6743 39.8474 46.3959 40.2434 45.8982C40.6719 45.3112 40.8827 44.5932 40.8405 43.8676C40.8639 43.1716 40.6673 42.4859 40.2789 41.9076C39.8841 41.3601 39.2312 41.0592 38.5582 41.1148L38.5934 41.1235ZM41.2686 38.5667V46.8605H40.8228V45.4354C40.697 45.9236 40.4037 46.3524 39.9937 46.6475C38.8944 47.3581 37.4415 47.1696 36.5606 46.202C36.0541 45.5461 35.8009 44.73 35.8475 43.9035C35.8034 43.0654 36.0629 42.24 36.5783 41.5777C37.0517 40.994 37.7707 40.6642 38.5227 40.6867C39.5356 40.6478 40.4525 41.2836 40.7697 42.2458V38.5667H41.2686Z" fill="white"/>
<path d="M49.4549 41.1054C48.8393 41.0974 48.2569 41.3821 47.8857 41.8717C47.4547 42.4424 47.2345 43.1447 47.261 43.8589C47.2248 44.5845 47.4386 45.3024 47.8676 45.8896C48.6056 46.7804 49.9268 46.905 50.8178 46.1673C50.9189 46.0837 51.0118 45.9904 51.095 45.8896C51.8918 44.6558 51.8918 43.0706 51.095 41.8362C50.6998 41.3559 50.1037 41.0863 49.4816 41.1054H49.4549ZM47.261 38.5667V42.3085C47.5567 41.3124 48.4972 40.6496 49.5346 40.7052C50.2814 40.6826 50.9952 41.0121 51.4613 41.5961C52.4087 42.9951 52.4087 44.8292 51.4613 46.2281C50.9962 46.8128 50.2822 47.1434 49.5346 47.119C48.4705 47.1754 47.516 46.4689 47.261 45.4354V46.8605H46.8152V38.5667H47.261Z" fill="white"/>
<path d="M58.309 40.8921L55.7324 47.4758C55.6136 47.7786 55.5272 47.9927 55.4739 48.1169C55.3955 48.2735 55.3026 48.4231 55.1973 48.5623C55.0873 48.7206 54.9316 48.8417 54.7515 48.9104C54.5411 48.9764 54.321 49.006 54.1004 48.999H53.646V48.5808C53.7733 48.5919 53.9016 48.5919 54.029 48.5808C54.2656 48.5954 54.5007 48.5327 54.6977 48.4021C54.8891 48.245 55.034 48.0385 55.1173 47.8054C55.3015 47.3773 55.438 47.0571 55.5272 46.8431L52.9858 40.8921H53.503L55.4739 45.5694C55.5359 45.7208 55.6254 45.9696 55.7411 46.3177C55.8902 45.8836 55.9818 45.6163 56.0176 45.5155L57.8015 40.9008L58.309 40.8921Z" fill="white"/>
<path d="M65.3097 40.892V41.3019H64.0252V45.3465C64.0252 45.5241 64.0252 45.6493 64.0252 45.7112C64.0201 45.807 64.0201 45.9016 64.0252 45.9966C64.0367 46.0923 64.0777 46.1828 64.1412 46.2549C64.2126 46.3168 64.2944 46.3645 64.3826 46.3976C64.5076 46.4438 64.641 46.4647 64.7741 46.4602C64.9388 46.4577 65.1025 46.4428 65.2653 46.415V46.843C65.0789 46.8701 64.8908 46.8847 64.7031 46.8876C64.5063 46.8945 64.3094 46.8639 64.1238 46.7988C63.9932 46.7519 63.8729 46.6822 63.7668 46.5935C63.6716 46.4926 63.61 46.3655 63.5884 46.2281C63.5553 46.0941 63.534 45.9566 63.5264 45.8181C63.5264 45.7112 63.5264 45.5362 63.5264 45.2926V41.3019H62.4204V40.892H63.5264V39.0208H63.9897V40.892H65.3097Z" fill="white"/>
<path d="M67.0845 38.5667V42.2458C67.2396 41.8108 67.5181 41.4297 67.8867 41.1507C68.2775 40.8688 68.7512 40.7243 69.2327 40.7407C69.8304 40.6955 70.4162 40.9216 70.8291 41.355C71.2069 41.8293 71.3968 42.4251 71.3647 43.03V46.8605H70.9004V43.11C70.9189 42.5939 70.7587 42.0875 70.4458 41.6762C70.1097 41.2969 69.6134 41.0985 69.1083 41.1409C68.6502 41.1235 68.2037 41.2836 67.8595 41.5863C67.5205 41.9024 67.2848 42.312 67.182 42.7627C67.1043 43.1107 67.0677 43.4666 67.0747 43.8234V46.8517H66.6118V38.5667H67.0845Z" fill="white"/>
<path d="M77.6957 43.5647C77.7103 42.9539 77.5152 42.3564 77.1425 41.8716C76.7628 41.3931 76.1748 41.128 75.5645 41.1592C74.9636 41.1391 74.389 41.4035 74.0127 41.8716C73.6279 42.3738 73.4015 42.9783 73.3613 43.6092L77.6957 43.5647ZM78.1143 44.8384C78.0325 45.4572 77.7353 46.028 77.2767 46.4508C76.8053 46.8666 76.1922 47.0866 75.5645 47.0657C74.8024 47.0876 74.073 46.7588 73.5843 46.1748C73.0664 45.5345 72.8023 44.7253 72.8448 43.9034C72.8058 43.0653 73.0712 42.2433 73.5941 41.5862C74.0738 41.0016 74.7983 40.6727 75.5559 40.6954C76.3072 40.6571 77.0311 40.9895 77.4908 41.5862C77.9559 42.2207 78.1951 42.9922 78.1684 43.778V43.9388H73.3352C73.3109 44.621 73.5076 45.2926 73.8968 45.8539C74.2861 46.3829 74.9174 46.6777 75.5733 46.6377C76.0696 46.6533 76.5527 46.4811 76.9282 46.1568C77.3104 45.7972 77.5623 45.3215 77.6423 44.803L78.1143 44.8384Z" fill="white"/>
<path d="M85.6493 38.5483V38.9676H85.1864C85.0276 38.9624 84.8701 38.9896 84.7221 39.0477C84.6176 39.0904 84.5212 39.1502 84.4371 39.2262C84.3598 39.3132 84.3104 39.4217 84.2948 39.5377C84.2665 39.6514 84.2494 39.7681 84.2403 39.8846C84.2403 39.9744 84.2403 40.1171 84.2403 40.2953V40.9279H85.4891V41.3375H84.2403V46.8605H83.7775V41.302H82.7244V40.8921H83.759V40.1432C83.7318 39.7186 83.8287 39.2947 84.0359 38.9234C84.318 38.6074 84.7395 38.4536 85.1592 38.5135L85.6493 38.5483Z" fill="white"/>
<path d="M91.3121 40.8921V46.8605H90.8662V45.6052C90.5399 46.5004 89.6704 47.0808 88.7173 47.039C88.1253 47.0825 87.5453 46.8563 87.1384 46.4248C86.7608 45.9505 86.5699 45.3547 86.6037 44.7498V40.8921H87.067V44.6332C87.067 45.9644 87.6469 46.629 88.8062 46.629C89.402 46.6544 89.9709 46.3802 90.3222 45.8982C90.679 45.3745 90.8609 44.7509 90.8394 44.1165V40.8921H91.3121Z" fill="white"/>
<path d="M95.3426 40.892V41.3019H94.0584V45.3465C94.0584 45.5241 94.0584 45.6493 94.0584 45.7112C94.0531 45.807 94.0531 45.9016 94.0584 45.9966C94.0692 46.0923 94.1102 46.1828 94.1744 46.2549C94.2449 46.3168 94.3269 46.3645 94.4152 46.3976C94.5408 46.4438 94.6737 46.4647 94.8075 46.4602C94.9716 46.4577 95.1356 46.4428 95.298 46.415V46.843C95.1116 46.8701 94.9243 46.8847 94.7362 46.8876C94.5392 46.8945 94.343 46.8639 94.1565 46.7988C94.0264 46.7519 93.906 46.6822 93.7999 46.5935C93.7044 46.4926 93.6429 46.3655 93.6216 46.2281C93.5885 46.0941 93.568 45.9566 93.5591 45.8181C93.5591 45.7112 93.5591 45.5362 93.5591 45.2926V41.3019H92.4534V40.892H93.6305V39.0208H94.0942V40.892H95.3426Z" fill="white"/>
<path d="M101.317 40.8921V46.8605H100.871V45.6052C100.545 46.5004 99.6745 47.0808 98.7222 47.039C98.1471 47.0635 97.5897 46.8362 97.1973 46.4151C96.8193 45.9417 96.6285 45.3459 96.6623 44.7404V40.8921H97.126V44.6332C97.126 45.9644 97.7057 46.629 98.8649 46.629C99.4605 46.6544 100.029 46.3802 100.381 45.8982C100.738 45.3745 100.919 44.7509 100.898 44.1165V40.8921H101.317Z" fill="white"/>
<path d="M105.928 40.8468V41.328H105.749C105.103 41.3079 104.489 41.6081 104.108 42.1302C103.904 42.3912 103.764 42.6964 103.698 43.0211C103.634 43.4272 103.605 43.8389 103.609 44.2503V46.8604H103.145V40.8919H103.6V42.4684C103.763 41.9743 104.075 41.5421 104.492 41.2306C104.921 40.9615 105.422 40.8276 105.928 40.8468Z" fill="white"/>
<path d="M111.465 43.5647C111.482 42.9504 111.287 42.3495 110.912 41.863C110.532 41.3845 109.944 41.1192 109.334 41.1506C108.73 41.113 108.144 41.3646 107.755 41.8274C107.37 42.3285 107.144 42.9341 107.104 43.5647H111.465ZM111.866 44.8384C111.783 45.4572 111.487 46.028 111.028 46.4508C110.556 46.8666 109.944 47.0866 109.316 47.0657C108.554 47.0876 107.825 46.7588 107.336 46.1748C106.817 45.5345 106.554 44.7253 106.596 43.9034C106.557 43.0653 106.823 42.2433 107.345 41.5862C107.826 41.0016 108.55 40.6727 109.307 40.6954C110.06 40.6571 110.783 40.9895 111.242 41.5862C111.707 42.2207 111.946 42.9922 111.92 43.778V43.9388H107.078C107.054 44.621 107.251 45.2926 107.64 45.8539C108.028 46.3829 108.66 46.6777 109.316 46.6377C109.812 46.6533 110.295 46.4811 110.671 46.1568C111.054 45.7972 111.304 45.3215 111.385 44.803L111.866 44.8384Z" fill="white"/>
</g>
</g>
<defs>
<clipPath id="clip0_1_37">
<rect width="112" height="49" fill="white"/>
</clipPath>
</defs>
</svg>
