<svg width="934" height="409" viewBox="0 0 934 409" fill="none" xmlns="http://www.w3.org/2000/svg">
<g clip-path="url(#clip0_3746_5860)">
<path d="M458.448 76.3618C453.792 70.5614 447.724 66.0557 440.822 63.2731C412.587 51.3518 379.861 60.6235 362.072 85.5821V61.8609H322.588V224.345H365.123V150.725C364.565 138.243 365.665 125.739 368.393 113.544C370.494 106.95 374.735 101.248 380.443 97.3323C386.255 93.2713 393.204 91.1393 400.297 91.2345C405.584 91.0836 410.783 92.5917 415.17 95.5484C419.231 98.4909 422.269 102.625 423.869 107.371C426.266 118.508 427.193 129.907 426.62 141.282V224.345H469.155V123.36C469.417 113.686 468.618 104.01 466.776 94.5087C465.31 87.9439 462.471 81.7591 458.448 76.3618Z" fill="white"/>
<path d="M788.248 61.8609H742.739L713.885 144.779C712.322 149.314 710.69 153.927 709.346 158.534C708.677 160.767 707.271 165.45 704.959 172.518L696.116 144.852L667.409 61.8609H620.336L630.596 87.964L684.14 224.345H725.708L777.763 88.7076L788.248 61.8609Z" fill="white"/>
<path d="M585.536 180.102C578.739 188.483 568.514 193.348 557.723 193.337C546.925 193.464 536.634 188.742 529.692 180.471C521.404 169.924 517.346 156.666 518.313 143.289C517.355 129.913 521.404 116.661 529.692 106.107C536.619 97.8112 546.911 93.0624 557.723 93.1665C568.529 93.0007 578.835 97.7302 585.754 106.032C593.955 116.457 597.998 129.541 597.132 142.772C598.007 156.216 593.873 169.514 585.536 180.102ZM617.213 81.7911C601.519 66.0037 579.974 57.4429 557.723 58.1427C542.719 57.9516 527.92 61.6118 514.737 68.7775C501.971 75.7379 491.61 86.3927 484.992 99.3424C478.189 112.118 474.587 126.36 474.512 140.835C474.026 157.299 477.632 173.624 484.992 188.355C491.813 201.253 502.54 211.666 515.632 218.1C528.689 224.68 543.106 228.093 557.723 228.064C580.081 228.712 601.678 219.916 617.213 203.823C622.442 198.478 626.924 192.451 630.523 185.9C637.524 172.649 641.061 157.834 640.786 142.845C641.076 127.902 637.547 113.132 630.523 99.9351C626.953 93.3003 622.471 87.1914 617.213 81.7911Z" fill="white"/>
<path d="M878.822 179.803C872.033 188.361 861.711 193.34 850.788 193.337C839.99 193.464 829.698 188.742 822.753 180.471C814.469 169.921 810.416 156.666 811.375 143.289C810.423 129.913 814.476 116.664 822.753 106.107C829.698 97.8373 839.99 93.1174 850.788 93.2453C861.57 93.0995 871.84 97.8261 878.748 106.107C886.935 116.533 890.988 129.617 890.126 142.845C891.048 156.228 887.025 169.488 878.822 180.102V179.803ZM910.65 81.7911C894.907 65.7709 873.163 57.086 850.713 57.8438C835.736 57.6608 820.961 61.321 807.806 68.4815C795.038 75.4382 784.671 86.0908 778.061 99.0427C771.316 111.757 767.739 125.918 767.65 140.317C767.174 156.721 770.743 172.994 778.061 187.687C784.88 200.587 795.595 210.998 808.698 217.433C821.734 224.07 836.153 227.536 850.788 227.541C873.149 228.203 894.744 219.402 910.278 203.301C926.058 186.941 934.565 164.895 933.851 142.177C934.587 119.74 926.221 97.9592 910.65 81.7911Z" fill="white"/>
<path d="M105.076 181.438C99.1297 189.386 89.7904 194.072 79.8674 194.08C67.9579 194.176 56.9604 187.719 51.2378 177.273C45.5125 165.598 42.9447 152.622 43.8015 139.644C42.843 126.685 46.506 113.802 54.134 103.284C60.3038 95.5022 69.7154 91.0055 79.6443 91.0865C89.7123 90.8865 99.2836 95.4673 105.448 103.432C112.14 111.609 115.484 125.146 115.484 143.737C116.425 157.125 112.75 170.43 105.076 181.438ZM115.263 74.3547C105.34 65.469 92.8319 59.9936 79.5714 58.7384C75.8154 58.3316 72.0421 58.1345 68.2659 58.1427C49.5764 57.7099 31.6595 65.582 19.3344 79.636C6.44577 93.9622 0 114.907 0 142.473C0 170.037 6.62005 191.031 19.8543 205.459C35.5635 221.217 57.1056 229.758 79.3446 229.031C100.451 229.778 121.099 222.742 137.351 209.253C151.701 196.015 157.873 175.117 157.873 144.332V-0.00892639H115.263V74.3547Z" fill="white"/>
<path d="M209.707 129.163C209.062 119.072 212.31 109.12 218.775 101.349C223.964 95.3684 231.324 91.6993 239.225 91.1594H242.049C250.557 90.9794 258.714 94.5407 264.358 100.902C274.176 111.537 267.707 128.64 250.607 131.987L239.225 134.665L209.48 141.654V129.236L209.707 129.163ZM269.862 177.648C268.123 182.612 265.092 187.022 261.087 190.438C256.248 194.185 250.252 196.125 244.135 195.939C242.476 196.05 240.811 196.05 239.153 195.939C231.513 194.975 224.469 191.309 219.298 185.604C216.048 182.2 213.518 178.182 211.862 173.781L239.004 167.457L266.815 160.988C280.643 158.386 293.199 151.24 302.51 140.686C313.888 125.814 314.632 104.995 296.561 82.4596C282.028 66.2535 260.968 57.4578 239.225 58.5175C219.022 57.9226 199.56 66.1457 185.908 81.0474C171.826 96.4169 164.79 117.509 164.79 144.332C164.032 164.242 169.688 183.873 180.926 200.326C193.765 217.824 213.198 227.027 239.225 227.919H243.687C259.481 228.499 275.065 224.194 288.305 215.573C301.167 206.182 310.556 192.791 315 177.499H269.862V177.648Z" fill="white"/>
<path d="M6.84082 287.259V268.595H314.78V287.331L6.84082 287.259Z" fill="white"/>
<path d="M314.184 287.259V268.595H934V287.331L314.184 287.259Z" fill="white"/>
<path d="M17.2516 321.913V391.141H13.0862V321.913H17.2516Z" fill="white"/>
<path d="M36.6616 341.323V352.327C39.4618 344.664 46.8749 339.682 55.0287 339.981C59.8216 339.72 64.4984 341.498 67.8912 344.89C71.1504 348.652 72.8062 353.532 72.504 358.499V391.222H68.6377V360.431C68.6377 349.131 63.8041 343.482 54.134 343.482C48.0078 343.075 42.204 346.27 39.2614 351.659C37.1729 355.906 36.2056 360.611 36.4379 365.34V391.141H32.8679V341.323H36.6616Z" fill="white"/>
<path d="M123.367 355.818H119.35C119.306 352.152 117.682 348.687 114.894 346.305C111.701 344.208 107.922 343.182 104.108 343.4C100.62 343.206 97.1567 344.121 94.2171 346.009C91.7684 347.664 90.383 350.497 90.5748 353.445C90.4849 354.157 90.4849 354.883 90.5748 355.6C90.7139 356.19 90.9147 356.762 91.1675 357.309C91.4404 357.875 91.8182 358.375 92.2859 358.796L93.5494 359.987C94.0692 360.388 94.644 360.713 95.2605 360.954L97.0407 361.695L99.1987 362.29L101.357 362.886L103.812 363.481L106.188 364.004L111.324 365.195L116.006 366.828C117.671 367.417 119.228 368.274 120.619 369.355C121.74 370.401 122.67 371.635 123.367 373C124.233 374.65 124.666 376.495 124.631 378.354C124.718 382.586 122.679 386.575 119.202 388.986C115.013 391.853 109.999 393.262 104.925 393C99.5386 393.299 94.2402 391.571 90.0521 388.172C86.328 384.716 84.338 379.783 84.6258 374.708H88.4919C88.1751 378.868 89.7613 382.944 92.8057 385.79C96.335 388.483 100.721 389.799 105.151 389.509C109.116 389.674 113.041 388.608 116.378 386.459C119.097 384.736 120.727 381.724 120.692 378.505C120.706 377.14 120.343 375.804 119.649 374.636C119.077 373.61 118.347 372.69 117.491 371.882C116.422 371.048 115.217 370.386 113.923 369.95C112.762 369.48 111.565 369.088 110.353 368.759L106.487 367.868H105.224L102.545 367.272L99.5735 366.677L96.7447 365.936C95.7743 365.674 94.8299 365.326 93.9212 364.896L91.4635 363.705C90.618 363.313 89.8602 362.761 89.2356 362.072L87.5973 359.987C87.0396 359.203 86.6358 358.316 86.409 357.381C86.29 356.321 86.29 355.246 86.409 354.186C86.2781 350.293 88.0911 346.59 91.2426 344.295C95.2106 341.715 99.8992 340.466 104.628 340.728C109.517 340.446 114.35 341.861 118.313 344.745C121.502 347.548 123.341 351.577 123.367 355.818Z" fill="white"/>
<path d="M160.476 343.255C155.233 343.008 150.193 345.312 146.94 349.428C143.44 354.447 141.738 360.495 142.106 366.604C142.051 370.401 142.658 374.171 143.893 377.759C145.084 381.085 147.201 383.995 149.99 386.159C153.011 388.483 156.74 389.697 160.548 389.581C165.749 389.755 170.71 387.403 173.862 383.263C177.385 378.418 179.145 372.515 178.84 366.531C179.171 360.452 177.414 354.447 173.862 349.5C170.646 345.419 165.667 343.124 160.476 343.328V343.255ZM142.106 341.323V353.219C144.456 345.007 152.171 339.516 160.697 339.981C166.968 339.792 172.964 342.543 176.908 347.418C181.193 352.922 183.357 359.783 183.006 366.755C183.334 373.648 181.17 380.431 176.908 385.863C169.821 393.822 158.007 395.463 149.022 389.732C145.749 387.408 143.382 384.018 142.332 380.14V408.991H138.463V341.323H142.106Z" fill="white"/>
<path d="M200.78 341.396V391.222H196.914V341.323L200.78 341.396ZM200.78 321.913V331.732H196.914V321.913H200.78Z" fill="white"/>
<path d="M239.153 340.946V344.963H237.962C232.573 344.795 227.449 347.301 224.28 351.659C222.578 353.837 221.407 356.385 220.861 359.095C220.318 362.485 220.071 365.921 220.115 369.355V391.141H215.653V341.323H219.444V354.482C220.809 350.357 223.406 346.75 226.88 344.15C230.546 341.846 234.83 340.728 239.153 340.946Z" fill="white"/>
<path d="M285.182 363.632C285.307 358.534 283.68 353.547 280.573 349.5C277.406 345.506 272.5 343.293 267.411 343.554C262.374 343.24 257.491 345.341 254.246 349.204C251.036 353.393 249.148 358.441 248.82 363.705L285.182 363.632ZM288.677 374.264C287.988 379.429 285.516 384.193 281.688 387.722C277.758 391.193 272.648 393.029 267.411 392.855C261.058 393.038 254.978 390.293 250.903 385.419C246.578 380.074 244.379 373.32 244.73 366.459C244.402 359.464 246.624 352.603 250.975 347.118C254.981 342.238 261.026 339.493 267.338 339.682C273.61 339.363 279.643 342.137 283.471 347.118C287.358 352.414 289.348 358.854 289.124 365.413V366.755H248.82C248.62 372.449 250.264 378.055 253.502 382.74C256.753 387.156 262.014 389.616 267.486 389.282C271.623 389.413 275.655 387.975 278.789 385.268C281.973 382.267 284.07 378.296 284.735 373.968L288.677 374.264Z" fill="white"/>
<path d="M321.841 343.255C316.659 343.075 311.709 345.399 308.534 349.5C304.99 354.418 303.232 360.402 303.549 366.459C303.206 372.457 304.944 378.389 308.459 383.263C311.712 387.33 316.714 389.596 321.916 389.363C327.215 389.587 332.298 387.263 335.601 383.109C339.174 378.209 340.932 372.216 340.58 366.16C340.775 360.35 339.136 354.627 335.897 349.8C332.604 345.23 327.16 342.718 321.547 343.182L321.841 343.255ZM344.15 321.913V391.141H340.432V379.246C339.383 383.321 336.937 386.9 333.518 389.363C324.351 395.295 312.235 393.721 304.889 385.645C300.665 380.17 298.553 373.358 298.942 366.459C298.574 359.464 300.738 352.574 305.036 347.046C308.984 342.174 314.98 339.421 321.251 339.609C329.698 339.284 337.344 344.591 339.99 352.623V321.913H344.15Z" fill="white"/>
<path d="M412.419 343.104C407.286 343.037 402.429 345.413 399.333 349.5C395.739 354.264 393.903 360.126 394.124 366.087C393.822 372.144 395.605 378.136 399.182 383.037C405.337 390.473 416.355 391.513 423.785 385.355C424.628 384.657 425.403 383.879 426.097 383.037C432.741 372.739 432.741 359.507 426.097 349.204C422.801 345.195 417.83 342.944 412.642 343.104H412.419ZM394.124 321.913V353.146C396.59 344.832 404.433 339.299 413.084 339.763C419.312 339.575 425.264 342.325 429.151 347.2C437.052 358.877 437.052 374.186 429.151 385.863C425.273 390.743 419.318 393.503 413.084 393.299C404.21 393.77 396.25 387.873 394.124 379.246V391.141H390.406V321.913H394.124Z" fill="white"/>
<path d="M486.256 341.323L464.769 396.277C463.779 398.804 463.058 400.591 462.614 401.628C461.96 402.935 461.185 404.184 460.307 405.346C459.39 406.667 458.091 407.678 456.589 408.251C454.835 408.802 452.999 409.049 451.16 408.991H447.37V405.5C448.432 405.593 449.502 405.593 450.564 405.5C452.537 405.622 454.498 405.099 456.141 404.009C457.737 402.697 458.945 400.974 459.64 399.028C461.176 395.455 462.314 392.782 463.058 390.996L441.865 341.323H446.178L462.614 380.364C463.131 381.628 463.877 383.705 464.842 386.61C466.085 382.987 466.849 380.756 467.148 379.914L482.024 341.396L486.256 341.323Z" fill="white"/>
<path d="M544.636 341.323V344.745H533.924V378.505C533.924 379.987 533.924 381.032 533.924 381.549C533.881 382.348 533.881 383.138 533.924 383.931C534.02 384.73 534.362 385.485 534.891 386.087C535.487 386.604 536.169 387.002 536.904 387.278C537.947 387.664 539.059 387.838 540.169 387.801C541.543 387.78 542.908 387.655 544.265 387.423V390.996C542.711 391.222 541.142 391.344 539.577 391.368C537.936 391.426 536.294 391.17 534.746 390.627C533.657 390.235 532.654 389.654 531.769 388.913C530.975 388.071 530.461 387.01 530.281 385.863C530.005 384.745 529.828 383.597 529.764 382.441C529.764 381.549 529.764 380.088 529.764 378.055V344.745H520.541V341.323H529.764V325.704H533.628V341.323H544.636Z" fill="white"/>
<path d="M559.437 321.913V352.623C560.73 348.992 563.053 345.811 566.127 343.482C569.386 341.129 573.336 339.923 577.351 340.06C582.336 339.682 587.221 341.57 590.664 345.187C593.815 349.146 595.398 354.119 595.131 359.168V391.141H591.259V359.836C591.413 355.528 590.077 351.301 587.468 347.868C584.665 344.702 580.526 343.046 576.314 343.4C572.494 343.255 568.77 344.591 565.9 347.118C563.073 349.756 561.107 353.175 560.25 356.937C559.602 359.842 559.297 362.813 559.355 365.791V391.068H555.495V321.913H559.437Z" fill="white"/>
<path d="M647.926 363.632C648.048 358.534 646.421 353.547 643.313 349.5C640.147 345.506 635.243 343.293 630.154 343.554C625.143 343.386 620.351 345.593 617.213 349.5C614.004 353.692 612.116 358.738 611.781 364.004L647.926 363.632ZM651.417 374.264C650.735 379.429 648.257 384.193 644.432 387.722C640.501 391.193 635.388 393.029 630.154 392.855C623.798 393.038 617.716 390.293 613.64 385.419C609.321 380.074 607.119 373.32 607.473 366.459C607.148 359.464 609.361 352.603 613.722 347.118C617.722 342.238 623.764 339.493 630.082 339.682C636.347 339.363 642.384 342.137 646.218 347.118C650.096 352.414 652.091 358.854 651.868 365.413V366.755H611.563C611.36 372.449 613.001 378.055 616.246 382.74C619.493 387.156 624.757 389.616 630.227 389.282C634.366 389.413 638.395 387.975 641.526 385.268C644.713 382.267 646.814 378.296 647.481 373.968L651.417 374.264Z" fill="white"/>
<path d="M714.254 321.76V325.26H710.394C709.069 325.216 707.756 325.443 706.522 325.928C705.65 326.285 704.846 326.784 704.145 327.418C703.5 328.144 703.088 329.05 702.958 330.018C702.722 330.967 702.58 331.941 702.504 332.914C702.504 333.663 702.504 334.854 702.504 336.342V341.622H712.918V345.041H702.504V391.141H698.644V344.745H689.862V341.323H698.49V335.072C698.263 331.528 699.071 327.99 700.799 324.891C703.152 322.253 706.667 320.969 710.167 321.469L714.254 321.76Z" fill="white"/>
<path d="M761.478 341.323V391.141H757.759V380.663C755.038 388.135 747.787 392.98 739.839 392.631C734.902 392.994 730.065 391.106 726.672 387.504C723.523 383.545 721.931 378.572 722.213 373.523V341.323H726.077V372.55C726.077 383.661 730.913 389.209 740.58 389.209C745.549 389.421 750.293 387.132 753.223 383.109C756.198 378.737 757.715 373.532 757.536 368.237V341.323H761.478Z" fill="white"/>
<path d="M795.09 341.323V344.745H784.381V378.505C784.381 379.987 784.381 381.032 784.381 381.549C784.337 382.348 784.337 383.138 784.381 383.931C784.471 384.73 784.813 385.485 785.348 386.087C785.936 386.604 786.62 387.002 787.356 387.278C788.404 387.664 789.512 387.838 790.628 387.801C791.996 387.78 793.364 387.655 794.718 387.423V390.996C793.164 391.222 791.602 391.344 790.033 391.368C788.39 391.426 786.754 391.17 785.199 390.627C784.114 390.235 783.11 389.654 782.225 388.913C781.429 388.071 780.916 387.01 780.738 385.863C780.462 384.745 780.291 383.597 780.217 382.441C780.217 381.549 780.217 380.088 780.217 378.055V344.745H770.996V341.323H780.812V325.704H784.679V341.323H795.09Z" fill="white"/>
<path d="M844.913 341.323V391.141H841.195V380.663C838.473 388.135 831.215 392.98 823.273 392.631C818.477 392.835 813.829 390.938 810.557 387.423C807.404 383.472 805.813 378.499 806.095 373.445V341.323H809.962V372.55C809.962 383.661 814.796 389.209 824.463 389.209C829.43 389.421 834.175 387.132 837.105 383.109C840.087 378.737 841.596 373.532 841.418 368.237V341.323H844.913Z" fill="white"/>
<path d="M883.359 340.946V344.963H881.872C876.48 344.795 871.364 347.301 868.189 351.659C866.486 353.837 865.318 356.385 864.768 359.095C864.233 362.485 863.987 365.921 864.024 369.355V391.141H860.157V341.323H863.95V354.482C865.311 350.357 867.914 346.75 871.386 344.15C874.963 341.904 879.142 340.786 883.359 340.946Z" fill="white"/>
<path d="M929.538 363.632C929.68 358.505 928.051 353.489 924.928 349.428C921.76 345.434 916.859 343.22 911.765 343.482C906.731 343.168 901.845 345.268 898.603 349.131C895.391 353.314 893.502 358.369 893.175 363.632H929.538ZM932.885 374.264C932.193 379.429 929.724 384.193 925.894 387.722C921.961 391.193 916.859 393.029 911.617 392.855C905.266 393.038 899.183 390.293 895.108 385.419C890.78 380.074 888.587 373.32 888.936 366.459C888.609 359.464 890.832 352.603 895.183 347.118C899.191 342.238 905.229 339.493 911.542 339.682C917.819 339.363 923.849 342.137 927.679 347.118C931.561 352.414 933.554 358.854 933.331 365.413V366.755H892.952C892.751 372.449 894.394 378.055 897.637 382.74C900.879 387.156 906.144 389.616 911.617 389.282C915.751 389.413 919.782 387.975 922.92 385.268C926.11 382.267 928.2 378.296 928.869 373.968L932.885 374.264Z" fill="white"/>
</g>
<defs>
<clipPath id="clip0_3746_5860">
<rect width="934" height="409" fill="white"/>
</clipPath>
</defs>
</svg>
