<svg width="24" height="24" viewBox="0 0 24 24" fill="none" xmlns="http://www.w3.org/2000/svg">
<g clip-path="url(#clip0_1_30)">
<path d="M22.024 2.27816C21.4001 1.75828 20.6688 1.38302 19.8826 1.17935C19.0964 0.975668 18.2749 0.948625 17.477 1.10016L14.194 1.78816C13.3783 1.93407 12.6189 2.30304 12 2.85416C11.3941 2.3071 10.6479 1.9394 9.84501 1.79216L6.48401 1.09216C5.69166 0.948076 4.87735 0.979754 4.0986 1.18495C3.31984 1.39016 2.59565 1.76387 1.9772 2.2797C1.35874 2.79552 0.861107 3.44087 0.519459 4.17014C0.17781 4.89942 0.000482738 5.69482 5.29487e-06 6.50016V16.2922C-0.00177769 17.5767 0.446789 18.8213 1.26768 19.8094C2.08858 20.7974 3.22986 21.4665 4.49301 21.7002L10.3 22.8472C10.8589 22.9491 11.4259 23.0003 11.994 23.0002C12.5736 22.9998 13.1519 22.9472 13.722 22.8432L19.484 21.7002C20.7505 21.4699 21.8961 20.8026 22.7213 19.8146C23.5465 18.8266 23.999 17.5804 24 16.2932V6.50016C24.0008 5.69451 23.8242 4.89857 23.4826 4.16889C23.1411 3.4392 22.6431 2.79367 22.024 2.27816ZM10.5 19.8292L5.05301 18.7532C4.47688 18.6485 3.95579 18.3449 3.5806 17.8953C3.20542 17.4457 2.99994 16.8787 3.00001 16.2932V6.50016C3.00184 5.83872 3.265 5.20481 3.73215 4.73654C4.1993 4.26827 4.83257 4.00358 5.49401 4.00016C5.63284 3.99989 5.77142 4.01227 5.90801 4.03716L9.26901 4.73716C9.61436 4.80011 9.9267 4.9822 10.1516 5.25172C10.3766 5.52124 10.4998 5.86111 10.5 6.21216V19.8292ZM21 16.2932C20.9989 16.8822 20.7903 17.4521 20.4109 17.9027C20.0314 18.3533 19.5053 18.6558 18.925 18.7572L13.5 19.8292V6.21216C13.5021 5.85453 13.631 5.50924 13.8637 5.2377C14.0964 4.96615 14.4179 4.78596 14.771 4.72916L18.053 4.04216C18.4131 3.97671 18.7832 3.99114 19.1372 4.08443C19.4911 4.17771 19.8202 4.34757 20.1013 4.58201C20.3824 4.81645 20.6086 5.10975 20.7638 5.4412C20.9191 5.77264 20.9998 6.13414 21 6.50016V16.2932Z" fill="white"/>
</g>
<defs>
<clipPath id="clip0_1_30">
<rect width="24" height="24" fill="white"/>
</clipPath>
</defs>
</svg>
