<svg width="24" height="24" viewBox="0 0 24 24" fill="none" xmlns="http://www.w3.org/2000/svg">
<g clip-path="url(#clip0_1_34)">
<path d="M8.00024 7.00024H22.5002C22.8981 7.00024 23.2796 6.84221 23.5609 6.5609C23.8422 6.2796 24.0002 5.89807 24.0002 5.50024C24.0002 5.10242 23.8422 4.72089 23.5609 4.43958C23.2796 4.15828 22.8981 4.00024 22.5002 4.00024H8.00024C7.60242 4.00024 7.22089 4.15828 6.93958 4.43958C6.65828 4.72089 6.50024 5.10242 6.50024 5.50024C6.50024 5.89807 6.65828 6.2796 6.93958 6.5609C7.22089 6.84221 7.60242 7.00024 8.00024 7.00024Z" fill="white"/>
<path d="M22.5002 10.9998H8.00024C7.60242 10.9998 7.22089 11.1578 6.93958 11.4391C6.65828 11.7204 6.50024 12.1019 6.50024 12.4998C6.50024 12.8976 6.65828 13.2791 6.93958 13.5604C7.22089 13.8417 7.60242 13.9998 8.00024 13.9998H22.5002C22.8981 13.9998 23.2796 13.8417 23.5609 13.5604C23.8422 13.2791 24.0002 12.8976 24.0002 12.4998C24.0002 12.1019 23.8422 11.7204 23.5609 11.4391C23.2796 11.1578 22.8981 10.9998 22.5002 10.9998Z" fill="white"/>
<path d="M22.5002 18H8.00024C7.60242 18 7.22089 18.158 6.93958 18.4393C6.65828 18.7206 6.50024 19.1022 6.50024 19.5C6.50024 19.8978 6.65828 20.2794 6.93958 20.5607C7.22089 20.842 7.60242 21 8.00024 21H22.5002C22.8981 21 23.2796 20.842 23.5609 20.5607C23.8422 20.2794 24.0002 19.8978 24.0002 19.5C24.0002 19.1022 23.8422 18.7206 23.5609 18.4393C23.2796 18.158 22.8981 18 22.5002 18Z" fill="white"/>
<path d="M2.5 8C3.88071 8 5 6.88071 5 5.5C5 4.11929 3.88071 3 2.5 3C1.11929 3 0 4.11929 0 5.5C0 6.88071 1.11929 8 2.5 8Z" fill="white"/>
<path d="M2.5 14.4997C3.88071 14.4997 5 13.3805 5 11.9997C5 10.619 3.88071 9.49976 2.5 9.49976C1.11929 9.49976 0 10.619 0 11.9997C0 13.3805 1.11929 14.4997 2.5 14.4997Z" fill="white"/>
<path d="M2.5 21.5C3.88071 21.5 5 20.3807 5 19C5 17.6193 3.88071 16.5 2.5 16.5C1.11929 16.5 0 17.6193 0 19C0 20.3807 1.11929 21.5 2.5 21.5Z" fill="white"/>
</g>
<defs>
<clipPath id="clip0_1_34">
<rect width="24" height="24" fill="white"/>
</clipPath>
</defs>
</svg>
