<svg width="24" height="24" viewBox="0 0 24 24" fill="none" xmlns="http://www.w3.org/2000/svg">
<g clip-path="url(#clip0_1_31)">
<path d="M0.499756 11.1692C0.497548 10.3739 0.813911 9.61084 1.37769 9.05005L8.4646 1.96313L8.46362 1.96216C10.4176 0.013571 13.5807 0.013905 15.5349 1.96216V1.96313L22.6218 9.05005C23.1856 9.61084 23.502 10.374 23.4998 11.1692V21.5481C23.4976 22.6266 22.6232 23.5002 21.5447 23.5012H2.45483L2.25562 23.4905C1.27039 23.3898 0.501401 22.5587 0.499756 21.5471V11.1692ZM21.4998 11.1692C21.4991 10.9053 21.3952 10.6516 21.2097 10.4641L21.2078 10.4622L14.1208 3.37622L14.0085 3.26978C12.8307 2.20605 11.0124 2.24113 9.87769 3.37622L2.79175 10.4622L2.79077 10.4641C2.60508 10.6518 2.50041 10.9054 2.49976 11.1692V21.5012H8.49976V17.8196C8.49976 15.9871 9.98564 14.5012 11.8181 14.5012H12.1814C14.0139 14.5012 15.4998 15.9871 15.4998 17.8196V21.5012H21.4998V11.1692Z" fill="white" stroke="white" stroke-width="0.999998"/>
</g>
<defs>
<clipPath id="clip0_1_31">
<rect width="24" height="24" fill="white"/>
</clipPath>
</defs>
</svg>
