<svg width="33" height="32" viewBox="0 0 33 32" xmlns="http://www.w3.org/2000/svg">
  <path fill-rule="evenodd" clip-rule="evenodd" d="M7.07666 7.44452C7.07666 6.09445 8.16334 5 9.50383 5H21.6185C22.959 5 24.0456 6.09445 24.0456 7.44451V13.5562C23.6627 13.7122 23.3103 13.9422 23.0096 14.2363L20.5342 16.6583C20.1543 17.0301 19.8848 17.4734 19.7266 17.9467C19.2678 18.1007 18.8368 18.3613 18.4719 18.7281L15.2361 21.9812C14.9433 22.2756 14.7095 22.624 14.5477 23.0075L13.7516 24.894H9.50383C8.16334 24.894 7.07666 23.7995 7.07666 22.4494V7.44452ZM11.0585 13.3887C10.3883 13.3887 9.84495 13.936 9.84495 14.611C9.84495 15.286 10.3883 15.8333 11.0585 15.8333H16.984C17.6542 15.8333 18.1976 15.286 18.1976 14.611C18.1976 13.936 17.6542 13.3887 16.984 13.3887H11.0585ZM9.84495 10.0525C9.84495 9.37744 10.3883 8.83021 11.0585 8.83021H20.1245C20.7948 8.83021 21.3381 9.37744 21.3381 10.0525C21.3381 10.7275 20.7948 11.2747 20.1245 11.2747H11.0585C10.3883 11.2747 9.84495 10.7275 9.84495 10.0525ZM11.0585 17.9438C10.3883 17.9438 9.84495 18.491 9.84495 19.166C9.84495 19.8411 10.3883 20.3883 11.0585 20.3883H13.5194C14.1897 20.3883 14.733 19.8411 14.733 19.166C14.733 18.491 14.1897 17.9438 13.5194 17.9438H11.0585Z"
        fill="white"/>

  <path d="M24.6548 16.0242C24.5427 16.0336 24.4373 16.0818 24.3567 16.1608L21.8318 18.6311C21.6407 18.8181 21.635 19.1253 21.8189 19.3194L23.0221 20.5886C23.2102 20.7871 23.5237 20.7908 23.7164 20.5968L26.2345 18.0616C26.3155 17.9801 26.3652 17.8724 26.375 17.7575L26.4866 16.4439C26.5122 16.1423 26.2624 15.89 25.9628 15.915L24.6548 16.0242Z"
        fill="white"/>

  <path d="M15.5307 26.3185C15.361 26.7205 15.7602 27.1278 16.1615 26.9621L18.3141 26.0736C18.3753 26.0483 18.4308 26.0107 18.477 25.963L21.8281 22.5122C22.0173 22.3174 22.0119 22.0046 21.8162 21.8166L20.5462 20.5963C20.3556 20.4132 20.0547 20.4166 19.8682 20.6041L16.5899 23.8999C16.5458 23.9443 16.5105 23.9968 16.4861 24.0546L15.5307 26.3185Z"
        fill="white"/>

</svg>