<svg width="24" height="24" viewBox="0 0 24 24" fill="none" xmlns="http://www.w3.org/2000/svg">
<g clip-path="url(#clip0_1_32)">
<path d="M4.5 7.00013C4.04018 7.00142 3.58466 6.9115 3.15983 6.73555C2.73499 6.55961 2.34927 6.30115 2.025 5.97513L0.500003 4.62013C0.202961 4.35491 0.0234413 3.98256 0.000936949 3.58498C-0.0102061 3.38812 0.0175345 3.19099 0.0825748 3.00485C0.147615 2.81872 0.248681 2.64721 0.380003 2.50013C0.511325 2.35305 0.670331 2.23327 0.847942 2.14764C1.02555 2.06201 1.21829 2.01221 1.41515 2.00106C1.81273 1.97856 2.20296 2.11491 2.5 2.38013L4.084 3.79413C4.13558 3.85508 4.19911 3.90481 4.27066 3.94024C4.34221 3.97567 4.42026 3.99605 4.5 4.00013C4.63236 4.0001 4.7593 3.9476 4.853 3.85413L8.466 0.414129C8.7561 0.151625 9.13728 0.0128524 9.52824 0.0274065C9.91921 0.0419606 10.289 0.20869 10.5588 0.492035C10.8286 0.775381 10.977 1.15292 10.9723 1.54412C10.9677 1.93533 10.8104 2.30925 10.534 2.58613L6.948 6.00013C6.62581 6.31965 6.24372 6.57246 5.82365 6.74406C5.40357 6.91566 4.95377 7.00268 4.5 7.00013ZM24 3.50013C24 3.1023 23.842 2.72077 23.5607 2.43947C23.2794 2.15816 22.8978 2.00013 22.5 2.00013H14.5C14.1022 2.00013 13.7206 2.15816 13.4393 2.43947C13.158 2.72077 13 3.1023 13 3.50013C13 3.89795 13.158 4.27948 13.4393 4.56079C13.7206 4.84209 14.1022 5.00013 14.5 5.00013H22.5C22.8978 5.00013 23.2794 4.84209 23.5607 4.56079C23.842 4.27948 24 3.89795 24 3.50013ZM6.948 14.0001L10.534 10.5861C10.8104 10.3092 10.9677 9.93533 10.9723 9.54412C10.977 9.15292 10.8286 8.77538 10.5588 8.49203C10.289 8.20869 9.91921 8.04196 9.52824 8.02741C9.13728 8.01285 8.7561 8.15162 8.466 8.41413L4.853 11.8541C4.75924 11.9479 4.63209 12.0005 4.4995 12.0005C4.36692 12.0005 4.23977 11.9479 4.146 11.8541L2.561 10.2681C2.27961 9.98673 1.89796 9.82865 1.5 9.82865C1.10205 9.82865 0.720398 9.98673 0.439003 10.2681C0.157609 10.5495 -0.000477264 10.9312 -0.000477264 11.3291C-0.000477264 11.7271 0.157609 12.1087 0.439003 12.3901L2.025 13.9751C2.67697 14.6267 3.55964 14.9948 4.48137 14.9995C5.40309 15.0042 6.28946 14.645 6.948 14.0001ZM24 11.5001C24 11.1023 23.842 10.7208 23.5607 10.4395C23.2794 10.1582 22.8978 10.0001 22.5 10.0001H14.5C14.1022 10.0001 13.7206 10.1582 13.4393 10.4395C13.158 10.7208 13 11.1023 13 11.5001C13 11.898 13.158 12.2795 13.4393 12.5608C13.7206 12.8421 14.1022 13.0001 14.5 13.0001H22.5C22.8978 13.0001 23.2794 12.8421 23.5607 12.5608C23.842 12.2795 24 11.898 24 11.5001ZM6.948 22.0001L10.534 18.5861C10.8104 18.3092 10.9677 17.9353 10.9723 17.5441C10.977 17.1529 10.8286 16.7754 10.5588 16.492C10.289 16.2087 9.91921 16.042 9.52824 16.0274C9.13728 16.0129 8.7561 16.1516 8.466 16.4141L4.853 19.8541C4.7593 19.9476 4.63236 20.0001 4.5 20.0001C4.42026 19.9961 4.34221 19.9757 4.27066 19.9402C4.19911 19.9048 4.13558 19.8551 4.084 19.7941L2.5 18.3801C2.20296 18.1149 1.81273 17.9786 1.41515 18.0011C1.01757 18.0236 0.64522 18.2031 0.380003 18.5001C0.114787 18.7972 -0.0215674 19.1874 0.000936949 19.585C0.0234413 19.9826 0.202961 20.3549 0.500003 20.6201L2.023 21.9751C2.67505 22.6273 3.55815 22.9958 4.48036 23.0005C5.40258 23.0051 6.28937 22.6457 6.948 22.0001ZM24 19.5001C24 19.1023 23.842 18.7208 23.5607 18.4395C23.2794 18.1582 22.8978 18.0001 22.5 18.0001H14.5C14.1022 18.0001 13.7206 18.1582 13.4393 18.4395C13.158 18.7208 13 19.1023 13 19.5001C13 19.898 13.158 20.2795 13.4393 20.5608C13.7206 20.8421 14.1022 21.0001 14.5 21.0001H22.5C22.8978 21.0001 23.2794 20.8421 23.5607 20.5608C23.842 20.2795 24 19.898 24 19.5001Z" fill="white"/>
</g>
<defs>
<clipPath id="clip0_1_32">
<rect width="24" height="24" fill="white"/>
</clipPath>
</defs>
</svg>
