<?xml version="1.0" encoding="UTF-8"?>
<svg xmlns="http://www.w3.org/2000/svg"
     viewBox="0 0 33 32"
     width="33"
     height="32">
  <path fill-rule="evenodd" clip-rule="evenodd"
        d="M8.07682 6H24.0768C25.5496 6 26.7435 7.19443 26.7435 8.66783V19.0079C26.7435 20.4813 25.5496 21.6758 24.0768 21.6758H17.69L11.871 25.8329C11.2827 26.2532 10.4656 25.8324 10.4656 25.1092V21.6758H8.07682C6.60406 21.6758 5.41016 20.4813 5.41016 19.0079V8.66783C5.41016 7.19443 6.60406 6 8.07682 6ZM14.5742 9.87394C14.5742 9.04384 15.2471 8.37091 16.0772 8.37091C16.9073 8.37091 17.5803 9.04384 17.5803 9.87394V12.8406C17.5803 13.6707 16.9073 14.3436 16.0772 14.3436C15.2471 14.3436 14.5742 13.6707 14.5742 12.8406V9.87394ZM14.5742 17.902C14.5742 17.0719 15.2472 16.399 16.0772 16.399C16.9073 16.399 17.5803 17.0719 17.5803 17.902C17.5803 18.732 16.9073 19.4049 16.0772 19.4049C15.2472 19.4049 14.5742 18.732 14.5742 17.902Z"
        fill="#ffffff"/>
</svg>