<svg width="348" height="196" viewBox="0 0 348 196" fill="none" xmlns="http://www.w3.org/2000/svg">
<path fill-rule="evenodd" clip-rule="evenodd" d="M293.831 66.8C293.031 66.2 292.432 65.4 291.632 64.6C290.832 64 290.233 63.4 289.633 62.8C288.234 62.8 287.035 62.8 285.835 62.8C285.236 63.4 284.836 63.8 284.236 64.4C281.438 64.4 278.839 64.6 276.441 64.6C274.242 64 272.443 63.4 270.244 63C269.645 62.8 269.045 62.6 268.645 62.2C266.846 61.8 265.047 61.2 263.248 60.8C263.448 60.2 263.448 59.6 263.448 59.2C260.65 58.8 257.852 58.4 255.053 58C254.453 57.2 253.854 56.4 253.454 55.4C252.255 54.8 251.055 54 250.056 53.4C248.657 53.4 247.258 53.4 246.058 53.4C245.059 52.6 244.059 51.6 243.26 50.6C241.261 50.6 239.662 50.4 237.863 50.2C237.463 49.2 237.064 48.2 236.864 47.2C237.263 46.2 237.463 45.2 237.863 44.2C237.463 43.6 237.064 43.2 236.864 42.6C234.865 42.4 233.066 42.2 231.267 42C230.467 41.4 229.668 40.6 228.868 40C225.27 40 219.873 39 214.876 39C210.879 35.4 209.879 34.4 203.483 33.2C202.284 34.2 201.484 34.6 199.885 35C197.886 34.2 196.287 33.8 193.888 33.4C192.889 31.8 191.89 30.6 191.89 29C183.894 24.8 171.901 28.2 163.306 25C163.106 25 157.709 21.8 148.515 18.4C145.317 17.2 142.318 16.2 141.919 13.6C136.522 13 111.136 11.2 108.338 9C102.541 4.2 112.735 1 87.1502 1C84.5517 3.2 83.1525 5.00002 81.5534 7.40002C79.9544 7.80002 78.7551 8.19998 77.3559 8.59998C73.7579 5.79998 69.7603 2.79999 62.9642 4.79999C55.1687 7.19999 51.7707 10.6 54.7689 15.2C55.9682 15.4 57.5673 15.6 58.7666 15.8C56.9676 16.8 55.5685 17.8 53.7695 18.6C54.7689 18.8 56.1681 18.8 57.3674 19C57.5673 19.4 57.5673 19.8 57.9671 20.2C56.9676 21.4 55.9682 22.8 55.1687 24C55.7683 24.2 56.5679 24.6 57.3674 24.8C53.1698 31.8 47.773 29.2 43.7753 37.2C46.9734 36.8 49.9717 36.2 53.1698 35.8C54.569 35.6 55.9682 35.4 57.3674 35.2C58.7666 35.2 60.3657 35.2 61.9648 35.2C62.5644 35.6 62.9642 35.8 63.5638 36C63.3639 37 63.1641 37.8 62.9642 38.6C62.3645 39.2 61.7649 39.6 60.9653 40C60.1658 40.4 59.3663 40.8 58.7666 41.2C58.9665 41.8 58.9665 42.2 59.1664 42.6C59.766 42.6 60.1658 42.6 60.7655 42.6C63.5638 43 66.762 43.2 69.7603 43.6C69.7603 43.8 69.9601 44 69.9601 44.2C70.16 45 70.5598 45.4 70.9596 46.2C71.1594 46.6 71.1594 47 71.5592 47.4C74.5575 48 77.5557 48.6 80.7539 49C81.5534 48.6 82.353 48.4 83.1525 48.2C83.5523 47.4 83.7522 46.4 84.1519 45.4C85.9509 45.2 87.55 45 89.3489 44.8C91.9474 45.8 94.5459 47 97.3443 48C97.944 48.8 98.7435 49.4 99.543 50.2C99.3432 51.2 98.9434 52 98.7435 52.8C97.7441 54.4 96.9445 55.8 96.145 57.2C92.9468 58.8 89.5488 60.6 86.1508 62.2C84.5517 63 82.9526 63.8 81.5534 64.6C81.9532 65.2 82.5529 65.8 83.1525 66.4C82.353 67.4 81.5534 68.6 80.7539 69.6C79.3547 70.2 78.1554 70.8 76.9561 71.4C76.7562 72.4 76.5563 73.6 76.3564 74.6C75.1571 75.6 73.9578 76.8 72.7585 77.8C72.3588 78.8 72.1589 79.8 71.7591 81C69.7603 82 68.1612 82.8 66.3622 83.8C66.5621 84.4 66.5621 85 66.5621 85.6C64.7631 86.2 62.9642 86.6 61.1652 87.4C60.1658 89.6 59.1664 91.8 58.1669 94C58.1669 94.2 58.167 94.4 57.9671 94.6C56.5679 96.2 55.5685 97.4 54.3691 98.8C53.1698 99 51.5708 99.2 50.5713 99.4C50.3715 100 49.7718 100.6 49.372 101.2C48.5725 100.6 47.773 100.2 46.9734 99.6C46.1739 99.2 45.3743 98.6 44.9746 98C43.5754 97.8 41.9763 97.8 40.777 97.4C40.1774 98 39.7776 98.8 39.1779 99.4C39.9775 100.4 40.777 101.6 41.5765 102.6C40.9769 103.8 40.5771 105 39.9775 106.4C40.1774 106.8 40.1773 107 40.1773 107.4C40.777 108.4 41.7764 109.2 42.7759 110C41.7764 110.6 41.1768 111 40.3772 111.6C40.9769 112.2 41.5765 112.6 42.3761 113.2C42.576 114 42.9757 114.6 43.5754 115.4C42.576 116.4 41.5765 117.6 40.777 118.6C39.3778 118.8 38.3784 118.8 37.5789 118.8C35.9798 119.6 34.3807 120.4 32.7816 121.4C31.3824 122.2 29.9832 122.8 28.7839 123.4C27.5846 124.4 26.3853 125.6 25.186 126.6C24.9861 127.6 24.7862 128.6 24.5864 129.6C25.186 130.6 26.1854 131.2 27.1849 132.2C28.1843 132.6 29.3836 132.8 30.383 133C30.9827 133.6 31.3824 134 31.9821 134.6C30.9827 135.2 29.9832 135.6 28.7839 136.2C28.5841 136.8 28.5841 137.4 28.5841 138C26.985 138.2 25.9856 138.4 24.7863 138.6C22.7874 138.8 21.1883 139 19.3894 139.2C17.7903 140 16.591 140.6 15.1918 141.4C14.3923 142.2 13.5927 142.8 12.7932 143.6C11.7938 143.8 10.9942 144 10.1947 144.2C8.79549 144.8 7.3963 145.2 6.39688 145.6C4.39804 149.2 2.79896 152.8 1 156.4C5.19757 157 9.19526 157.6 14.3923 157.6C15.5916 159.6 16.591 161.2 16.9908 163.4C28.7839 167.4 17.9902 173.4 18.7897 178.4C20.1889 180 21.5881 181.6 22.9873 183.2C25.3859 187.2 27.5846 197.6 39.7776 192.4C43.7753 190.4 48.1727 188.4 52.3703 186.4C58.5667 187 66.762 189 70.9596 184.4C75.9567 183.4 80.1542 183.4 85.1514 183.4C85.751 184.2 86.3507 185 87.1502 185.6C92.5471 186 96.7447 186 98.9434 189.4C105.14 189.4 111.536 189.6 117.733 189.8C117.932 190.6 117.733 191.4 117.932 192.2C119.531 192.8 121.131 193.4 122.93 194C128.127 192.4 132.724 190.8 138.321 191.6C138.92 193 139.12 194.2 140.519 195C147.116 195 152.712 184.4 165.105 181.4C171.901 179.8 167.904 180.2 171.701 178.8C178.697 176.2 181.496 181 186.493 181.8C191.89 178.4 187.492 175.8 196.687 173.4C198.286 169.6 203.883 167.2 208.88 164.6C212.478 162.8 213.477 161.8 218.274 161.8C221.073 159.8 224.071 160 227.469 159C227.669 157.6 227.869 156.2 228.069 154.8C226.47 154.2 224.871 153.6 223.471 153C222.472 134.4 227.869 136.6 246.458 123.8C252.255 119.8 252.655 118 261.25 117.4C263.848 117.2 265.647 116.6 267.646 115.4C267.446 113.2 267.446 111.6 268.445 109.2C282.437 105 291.832 107.6 306.423 106.8C308.622 99.6 324.613 99.6 332.209 97.2C334.807 96.2 337.605 95.2 340.204 94.2C341.803 90.4 343.402 88.2 347 85.2C345.601 84.2 344.801 82.6 344.601 81C341.203 80.8 338.405 81 334.607 81.2C333.608 81.2 332.608 81.2 331.809 81C331.609 81.6 331.409 82 331.409 82.4C329.81 82.4 328.211 82.6 326.412 82.6C325.812 81.8 325.412 81 325.013 80C323.214 79.8 321.415 79.4 319.616 79C317.817 79 316.018 79 314.419 79C313.22 78.4 312.02 77.6 310.821 76.8C311.021 76.2 311.021 75.8 311.021 75.2C309.022 75.2 307.023 75 305.024 74.8C303.425 74.2 301.626 73.4 300.027 72.6C300.027 71.4 299.827 70.2 299.827 69C299.228 68.8 298.428 68.4 297.828 68.2C296.429 67.6 295.03 67.2 293.831 66.8Z" fill="#DFF1F2" stroke="#A3B8B9" stroke-width="0.216" stroke-miterlimit="22.9256"/>
</svg>
