<svg width="637" height="434" viewBox="0 0 637 434" fill="none" xmlns="http://www.w3.org/2000/svg">
<path fill-rule="evenodd" clip-rule="evenodd" d="M482.727 108.193C440.439 52.4799 384.867 17.8249 316.012 4.22824C303.157 2.12913 290.2 0.717702 277.195 0H256.791C184.687 4.24814 123.558 32.1048 73.4043 83.5699C27.9285 132.382 3.46037 190.251 0 257.177V275.582C0.867143 293.663 3.2813 311.636 7.21601 329.305C20.9613 384.664 49.1618 431.091 91.8176 468.589C171.608 393.727 251.15 318.62 330.444 243.268V241.776C305.312 241.938 280.263 241.772 255.298 241.278V210.437C274.822 201.672 294.231 192.718 313.523 183.575L197.072 182.58C197.072 172.632 196.906 162.683 196.574 152.734H398.623C398.789 163.184 398.623 173.63 398.125 184.073C381.948 191.786 365.691 199.414 349.355 206.955L398.623 207.95C398.709 214.748 398.626 221.547 398.374 228.345C306.875 316.322 215.223 404.12 123.419 491.739L131.381 497.709C177.006 524.531 226.44 536.884 279.683 534.768C346.127 531.19 403.523 506.898 451.872 461.893C501.276 414.116 528.979 355.832 534.98 287.043H637V108.462C585.576 108.531 534.151 108.442 482.727 108.193ZM156.015 109.934C155.766 168.796 155.801 286.963 155.801 286.963L249.823 287.272C249.823 287.272 148.58 382.581 98.5359 430.037C95.8245 428.348 93.3904 426.251 91.3199 423.819C41.0765 364.992 22.8291 297.174 36.5777 220.366C49.7756 160.385 81.045 112.216 130.386 75.8596C194.819 31.876 264.657 20.9323 339.899 43.0286C378.025 55.6138 405.839 75.0587 438.933 104.96C440.426 106.298 445.129 109.974 445.129 109.974L440.152 109.934H156.015ZM502.633 288.535C494.883 360.498 461.871 417.787 403.599 460.401C345.918 499.39 282.881 511.66 214.49 497.211C198.638 493.667 183.267 488.239 168.705 481.044C236.055 416.377 303.57 351.876 371.252 287.54C415.125 287.043 459.085 286.877 503.13 287.043C502.858 287.498 502.688 288.007 502.633 288.535Z" fill="#254E82"/>
</svg>
