<?xml version="1.0" encoding="utf-8"?><svg width="45" height="57" viewBox="0 0 45 57" fill="none" xmlns="http://www.w3.org/2000/svg">
<path d="M0.5 0.5H35.662L44.5 8.76695V56.5H0.5V0.5Z" stroke="#878D9E"/>
<path d="M10 42.1085H12.76C13.856 42.1085 14.7962 42.4921 15.5806 43.2592C16.3649 44.0262 16.7571 44.9398 16.7571 46C16.7571 47.0602 16.3649 47.9738 15.5806 48.7408C14.7962 49.5079 13.856 49.8915 12.76 49.8915H10V42.1085ZM12.76 43.2212H11.2371V48.7788H12.76C13.5261 48.7788 14.1767 48.5111 14.7119 47.9756C15.247 47.4365 15.5146 46.7779 15.5146 46C15.5146 45.2221 15.247 44.5654 14.7119 44.0299C14.1767 43.4907 13.5261 43.2212 12.76 43.2212Z" fill="#878D9E"/>
<path d="M20.0753 43.9539C19.5109 44.5111 19.2286 45.1931 19.2286 46C19.2286 46.8069 19.5109 47.4907 20.0753 48.0516C20.6435 48.6124 21.3362 48.8928 22.1536 48.8928C22.9747 48.8928 23.6674 48.6124 24.2319 48.0516C24.8 47.4907 25.0841 46.8069 25.0841 46C25.0841 45.1931 24.8 44.5111 24.2319 43.9539C23.6674 43.393 22.9747 43.1126 22.1536 43.1126C21.3362 43.1126 20.6435 43.393 20.0753 43.9539ZM19.1902 48.8385C18.3911 48.0642 17.9916 47.118 17.9916 46C17.9916 44.882 18.3911 43.9358 19.1902 43.1615C19.9892 42.3872 20.977 42 22.1536 42C23.3339 42 24.3235 42.3872 25.1226 43.1615C25.9216 43.9358 26.3212 44.882 26.3212 46C26.3212 47.118 25.9216 48.0642 25.1226 48.8385C24.3235 49.6128 23.3339 50 22.1536 50C20.977 50 19.9892 49.6128 19.1902 48.8385Z" fill="#878D9E"/>
<path d="M31.7341 42C32.1337 42 32.5167 42.0525 32.8832 42.1574C33.2498 42.2587 33.5522 42.3835 33.7904 42.5319C34.0323 42.6802 34.2431 42.8268 34.4227 42.9715C34.6023 43.1162 34.7343 43.2411 34.8186 43.346L34.9395 43.498L34.1533 44.2795C34.1313 44.2506 34.0983 44.2108 34.0543 44.1601C34.014 44.1058 33.9187 44.01 33.7684 43.8725C33.6181 43.735 33.4569 43.6174 33.2846 43.5197C33.1123 43.4184 32.8869 43.3261 32.6083 43.2429C32.3334 43.156 32.042 43.1126 31.7341 43.1126C30.9168 43.1126 30.224 43.393 29.6559 43.9539C29.0877 44.5111 28.8037 45.1931 28.8037 46C28.8037 46.8069 29.0859 47.4907 29.6504 48.0516C30.2185 48.6124 30.9131 48.8928 31.7341 48.8928C32.042 48.8928 32.3353 48.8512 32.6138 48.768C32.8961 48.6811 33.1288 48.578 33.3121 48.4586C33.499 48.3392 33.6621 48.2216 33.8014 48.1058C33.9444 47.9864 34.0507 47.8851 34.1203 47.8019L34.2083 47.6662L35 48.4478C34.9707 48.4912 34.9249 48.5491 34.8625 48.6214C34.8039 48.6902 34.6701 48.8132 34.4612 48.9905C34.2559 49.1678 34.036 49.3252 33.8014 49.4627C33.5705 49.6002 33.2663 49.725 32.8887 49.8372C32.5149 49.9457 32.13 50 31.7341 50C30.5539 50 29.5642 49.6128 28.7652 48.8385C27.9661 48.0642 27.5666 47.118 27.5666 46C27.5666 44.882 27.9661 43.9358 28.7652 43.1615C29.5642 42.3872 30.5539 42 31.7341 42Z" fill="#878D9E"/>
<line x1="4" y1="13" x2="22" y2="13" stroke="#DFE1E6" stroke-width="2"/>
<line x1="4" y1="17" x2="22" y2="17" stroke="#DFE1E6" stroke-width="2"/>
<line x1="4" y1="21" x2="22" y2="21" stroke="#DFE1E6" stroke-width="2"/>
<line x1="4" y1="25" x2="41" y2="25" stroke="#DFE1E6" stroke-width="2"/>
<line x1="4" y1="29" x2="41" y2="29" stroke="#DFE1E6" stroke-width="2"/>
<line x1="4" y1="33" x2="41" y2="33" stroke="#DFE1E6" stroke-width="2"/>
<rect x="25" y="13" width="15" height="8" stroke="#DFE1E6" stroke-width="2"/>
</svg>
