<svg width="64" height="81" viewBox="0 0 64 81" fill="none" xmlns="http://www.w3.org/2000/svg">
<path d="M0.5 1H50.8045L63.5 12.7189V80H0.5V1Z" stroke="#878D9E"/>
<path d="M15.6016 59.2969H20.0781C21.1458 59.2969 22.0391 59.6484 22.7578 60.3516C23.4818 61.0495 23.8438 61.901 23.8438 62.9062C23.8438 63.9062 23.4818 64.7552 22.7578 65.4531C22.0391 66.151 21.1458 66.5 20.0781 66.5H17.3594V70.5H15.6016V59.2969ZM20.0781 60.8984H17.3594V64.8984H20.0781C20.6302 64.8984 21.1016 64.7083 21.4922 64.3281C21.8828 63.9427 22.0781 63.4688 22.0781 62.9062C22.0781 62.3385 21.8828 61.862 21.4922 61.4766C21.1016 61.0911 20.6302 60.8984 20.0781 60.8984Z" fill="#878D9E"/>
<path d="M27.9184 59.2969H31.8403C33.3976 59.2969 34.7335 59.849 35.8481 60.9531C36.9627 62.0573 37.52 63.3724 37.52 64.8984C37.52 66.4245 36.9627 67.7396 35.8481 68.8438C34.7335 69.9479 33.3976 70.5 31.8403 70.5H27.9184V59.2969ZM31.8403 60.8984H29.6763V68.8984H31.8403C32.9289 68.8984 33.8533 68.513 34.6138 67.7422C35.3742 66.9661 35.7544 66.0182 35.7544 64.8984C35.7544 63.7786 35.3742 62.8333 34.6138 62.0625C33.8533 61.2865 32.9289 60.8984 31.8403 60.8984Z" fill="#878D9E"/>
<path d="M41.5947 59.2969H49.4306V60.8984H43.3525V64.0234H48.1494V65.6172H43.3525V70.5H41.5947V59.2969Z" fill="#878D9E"/>
<line x1="7" y1="17.5" x2="32" y2="17.5" stroke="#DFE1E5" stroke-width="2"/>
<line x1="7" y1="22.5" x2="32" y2="22.5" stroke="#DFE1E5" stroke-width="2"/>
<line x1="7" y1="27.5" x2="32" y2="27.5" stroke="#DFE1E5" stroke-width="2"/>
<line x1="7" y1="32.5" x2="57" y2="32.5" stroke="#DFE1E5" stroke-width="2"/>
<line x1="7" y1="42.5" x2="57" y2="42.5" stroke="#DFE1E5" stroke-width="2"/>
<line x1="7" y1="37.5" x2="57" y2="37.5" stroke="#DFE1E5" stroke-width="2"/>
<line x1="7" y1="47.5" x2="57" y2="47.5" stroke="#DFE1E5" stroke-width="2"/>
<rect x="36" y="17.5" width="20" height="10" stroke="#DFE1E5" stroke-width="2"/>
</svg>
