<?xml version="1.0" encoding="utf-8"?><svg width="64" height="81" viewBox="0 0 64 81" fill="none" xmlns="http://www.w3.org/2000/svg">
<path d="M0.5 1H50.8045L63.5 12.7189V80H0.5V1Z" stroke="#878D9E"/>
<path d="M16.6016 70.5V59.2969H21.3203C22.3568 59.2969 23.2161 59.6276 23.8984 60.2891C24.5807 60.9505 24.9219 61.7682 24.9219 62.7422C24.9219 63.2005 24.8438 63.6302 24.6875 64.0312C24.5312 64.4271 24.3438 64.7396 24.125 64.9688C23.9062 65.1979 23.6875 65.3984 23.4688 65.5703C23.25 65.7422 23.0625 65.8594 22.9062 65.9219L22.6797 66.0234L25.2422 70.5H23.3203L20.9219 66.1797H18.3594V70.5H16.6016ZM22.625 64.0547C22.9792 63.7005 23.1562 63.263 23.1562 62.7422C23.1562 62.2161 22.9792 61.7786 22.625 61.4297C22.276 61.0755 21.8411 60.8984 21.3203 60.8984H18.3594V64.5781H21.3203C21.8411 64.5781 22.276 64.4036 22.625 64.0547Z" fill="#878D9E"/>
<path d="M27.7153 59.2969H36.1919V60.8984H32.8325V70.5H31.0747V60.8984H27.7153V59.2969Z" fill="#878D9E"/>
<path d="M39.6416 59.2969H47.4775V60.8984H41.3994V64.0234H46.1963V65.6172H41.3994V70.5H39.6416V59.2969Z" fill="#878D9E"/>
<line x1="7" y1="17.5" x2="32" y2="17.5" stroke="#DFE1E6" stroke-width="2"/>
<line x1="7" y1="22.5" x2="32" y2="22.5" stroke="#DFE1E6" stroke-width="2"/>
<line x1="7" y1="27.5" x2="32" y2="27.5" stroke="#DFE1E6" stroke-width="2"/>
<line x1="7" y1="32.5" x2="57" y2="32.5" stroke="#DFE1E6" stroke-width="2"/>
<line x1="7" y1="42.5" x2="57" y2="42.5" stroke="#DFE1E6" stroke-width="2"/>
<line x1="7" y1="37.5" x2="57" y2="37.5" stroke="#DFE1E6" stroke-width="2"/>
<line x1="7" y1="47.5" x2="57" y2="47.5" stroke="#DFE1E6" stroke-width="2"/>
<rect x="36" y="17.5" width="20" height="10" stroke="#DFE1E6" stroke-width="2"/>
</svg>
