<svg width="32" height="32" viewBox="0 0 32 32" fill="none" xmlns="http://www.w3.org/2000/svg">
<rect width="32" height="32" fill="white"/>
<path d="M29.3307 16.0807C29.3307 8.67184 23.3618 2.6665 15.9974 2.6665C8.63295 2.6665 2.66406 8.67184 2.66406 16.0807C2.66406 22.7776 7.53873 28.3269 13.9138 29.3332V19.9589H10.529V16.0798H13.9138V13.1252C13.9138 9.76339 15.9041 7.90562 18.9503 7.90562C20.4081 7.90562 21.9352 8.16784 21.9352 8.16784V11.4692H20.2525C18.5965 11.4692 18.081 12.5038 18.081 13.5652V16.0807H21.7787L21.1876 19.9581H18.081V29.3332C24.4561 28.3269 29.3307 22.7776 29.3307 16.0807Z" fill="#0674E7"/>
</svg>
