<svg width="33" height="32" viewBox="0 0 33 32" fill="none" xmlns="http://www.w3.org/2000/svg">
<path opacity="0.94" fill-rule="evenodd" clip-rule="evenodd" d="M16.2711 2.4375C16.5214 2.4375 16.7716 2.4375 17.0219 2.4375C17.9464 2.81585 18.3061 3.50403 18.101 4.50202C17.5114 5.57433 16.6825 5.80894 15.6142 5.20583C14.9728 4.53215 14.8947 3.79706 15.3796 3.00055C15.6464 2.75068 15.9435 2.563 16.2711 2.4375Z" fill="white"/>
<path opacity="0.947" fill-rule="evenodd" clip-rule="evenodd" d="M15.708 5.91159C15.8369 5.89689 15.9621 5.91253 16.0834 5.95851C15.688 6.35267 15.6097 6.80624 15.8488 7.31922C16.4085 7.83831 16.9403 7.80703 17.4441 7.22538C17.6692 6.76182 17.591 6.35516 17.2095 6.00544C18.5075 6.19104 19.3364 6.94177 19.6963 8.25763C19.7804 8.76899 19.7492 9.26948 19.6025 9.7591C19.2826 9.86438 18.9541 9.88003 18.6171 9.80602C17.2721 9.24297 15.927 9.24297 14.5819 9.80602C14.2692 9.86859 13.9563 9.86859 13.6435 9.80602C13.2565 7.93671 13.9448 6.63857 15.708 5.91159Z" fill="white"/>
<path opacity="0.918" fill-rule="evenodd" clip-rule="evenodd" d="M16.1744 10.4141C16.4872 10.4141 16.8 10.4141 17.1128 10.4141C17.0972 11.3843 17.1128 12.354 17.1597 13.3232C17.9658 13.9218 18.7635 14.5317 19.5527 15.1531C19.3822 15.4173 19.1789 15.6519 18.9427 15.8569C18.1355 15.3316 17.3535 14.7685 16.5967 14.1677C15.8435 14.7489 15.0771 15.3119 14.2975 15.8569C14.1045 15.6909 13.9325 15.5032 13.7814 15.2938C13.7111 15.1873 13.7267 15.0935 13.8283 15.0123C14.5862 14.4066 15.3526 13.8123 16.1275 13.2293C16.1744 12.2915 16.19 11.353 16.1744 10.4141Z" fill="white"/>
<path opacity="0.945" fill-rule="evenodd" clip-rule="evenodd" d="M10.9232 11.9141C12.3925 12.1304 12.8773 12.9437 12.3777 14.3539C11.8055 15.0159 11.1017 15.1879 10.2663 14.8701C9.45117 14.2007 9.31041 13.403 9.84401 12.4771C10.1544 12.1735 10.5141 11.9859 10.9232 11.9141Z" fill="white"/>
<path opacity="0.946" fill-rule="evenodd" clip-rule="evenodd" d="M22.0877 11.9141C23.5428 12.0706 24.0589 12.8526 23.6361 14.2601C23.1812 14.9692 22.5399 15.2038 21.7124 14.9639C20.7558 14.4403 20.4899 13.6739 20.9147 12.6648C21.2317 12.2806 21.6228 12.0303 22.0877 11.9141Z" fill="white"/>
<path opacity="0.944" fill-rule="evenodd" clip-rule="evenodd" d="M10.2598 15.3878C10.3586 15.3738 10.4524 15.3894 10.5414 15.4347C9.90926 16.0344 9.94054 16.5975 10.6352 17.1238C11.3843 17.3137 11.8535 17.0322 12.0428 16.2793C11.9836 15.9417 11.8272 15.6602 11.5736 15.4347C13.47 15.8653 14.3301 17.0696 14.1543 19.0476C13.9616 19.4034 13.6645 19.5129 13.2628 19.376C12.5495 19.1069 11.8144 18.9349 11.0575 18.8599C10.187 18.9954 9.32682 19.1831 8.47684 19.423C8.30098 19.4333 8.16022 19.3708 8.05456 19.2353C7.72123 17.3366 8.45633 16.0541 10.2598 15.3878Z" fill="white"/>
<path opacity="0.943" fill-rule="evenodd" clip-rule="evenodd" d="M21.5218 15.3893C21.604 15.377 21.6666 15.4083 21.7095 15.4832C21.162 16.1078 21.2246 16.6552 21.8972 17.1254C22.6715 17.3173 23.1094 17.0201 23.211 16.2339C23.1858 15.9333 23.0606 15.683 22.8356 15.4832C24.1343 15.6695 24.9633 16.4203 25.3224 17.7354C25.385 18.2046 25.385 18.6738 25.3224 19.143C25.115 19.4048 24.8491 19.483 24.5248 19.3776C23.7796 19.1092 23.0132 18.9371 22.2256 18.8615C21.382 18.9824 20.5531 19.1701 19.7388 19.4245C19.5424 19.4258 19.3704 19.3633 19.2227 19.2368C18.9141 17.3095 19.6804 16.027 21.5218 15.3893Z" fill="white"/>
<path opacity="0.898" fill-rule="evenodd" clip-rule="evenodd" d="M10.5414 19.8945C10.8855 19.8945 11.2296 19.8945 11.5737 19.8945C11.5581 20.8648 11.5737 21.8344 11.6206 22.8036C12.3714 23.3667 13.1221 23.9297 13.8728 24.4928C13.9354 24.5866 13.9354 24.6805 13.8728 24.7743C13.7217 24.9837 13.5497 25.1713 13.3567 25.3373C12.5747 24.7743 11.7927 24.2112 11.0107 23.6482C10.2865 24.2474 9.53573 24.8104 8.75845 25.3373C8.50769 25.1334 8.28873 24.8988 8.10156 24.6335C8.89077 24.0122 9.68842 23.4022 10.4945 22.8036C10.5414 21.8344 10.5571 20.8648 10.5414 19.8945Z" fill="white"/>
<path opacity="0.918" fill-rule="evenodd" clip-rule="evenodd" d="M21.8072 19.8945C22.12 19.8945 22.4328 19.8945 22.7456 19.8945C22.7145 20.8663 22.7457 21.8359 22.8395 22.8036C23.6214 23.4136 24.4035 24.0236 25.1855 24.6335C25.015 24.8978 24.8117 25.1324 24.5755 25.3373C23.8025 24.7863 23.0361 24.2233 22.2764 23.6482C21.4944 24.2112 20.7123 24.7743 19.9304 25.3373C19.7373 25.1713 19.5653 24.9837 19.4142 24.7743C19.3439 24.6678 19.3595 24.5739 19.4612 24.4928C20.219 23.8871 20.9854 23.2927 21.7603 22.7098C21.8072 21.7719 21.8228 20.8335 21.8072 19.8945Z" fill="white"/>
<path opacity="0.948" fill-rule="evenodd" clip-rule="evenodd" d="M4.91555 22.0479C6.1494 21.8343 6.86885 22.3348 7.07391 23.5494C6.86961 24.7787 6.15015 25.2636 4.91555 25.0039C4.02109 24.5111 3.7552 23.776 4.1179 22.7986C4.32027 22.4725 4.58615 22.2222 4.91555 22.0479Z" fill="white"/>
<path opacity="0.948" fill-rule="evenodd" clip-rule="evenodd" d="M16.0809 22.0488C17.7534 21.9224 18.3946 22.6731 18.0047 24.301C17.5497 25.0101 16.9084 25.2447 16.0809 25.0048C15.1691 24.5657 14.8719 23.8618 15.1894 22.8934C15.4152 22.5267 15.7123 22.2451 16.0809 22.0488Z" fill="white"/>
<path opacity="0.947" fill-rule="evenodd" clip-rule="evenodd" d="M27.1548 22.0513C28.6523 21.8754 29.3248 22.5323 29.1724 24.022C28.7718 24.9649 28.068 25.2934 27.061 25.0073C26.2234 24.5285 25.9575 23.8247 26.2633 22.8959C26.4914 22.5267 26.7886 22.2452 27.1548 22.0513Z" fill="white"/>
<path opacity="0.943" fill-rule="evenodd" clip-rule="evenodd" d="M8.29093 29.4648C8.10325 29.4648 7.91556 29.4648 7.72788 29.4648C6.71631 28.9782 5.65278 28.8375 4.53726 29.0425C4.10553 29.1417 3.69887 29.2825 3.31732 29.4648C3.09836 29.4648 2.87939 29.4648 2.66043 29.4648C2.56659 29.3709 2.47275 29.2771 2.37891 29.1833C2.37891 28.7141 2.37891 28.2448 2.37891 27.7756C2.76678 26.4791 3.61136 25.7284 4.91263 25.5234C4.31332 26.3593 4.501 26.9537 5.47568 27.3064C6.4838 26.9598 6.67149 26.3655 6.03873 25.5234C6.96768 25.6388 7.70277 26.108 8.24401 26.9311C8.65348 27.6794 8.74732 28.4615 8.52553 29.2771C8.43219 29.3302 8.35399 29.3928 8.29093 29.4648Z" fill="white"/>
<path opacity="0.944" fill-rule="evenodd" clip-rule="evenodd" d="M19.4602 29.4649C19.2412 29.4649 19.0222 29.4649 18.8033 29.4649C18.1232 29.1659 17.4037 28.9782 16.6449 28.9018C15.8544 28.9744 15.1037 29.1621 14.3927 29.4649C14.1738 29.4649 13.9547 29.4649 13.7358 29.4649C13.2264 28.066 13.5706 26.893 14.7681 25.9458C15.154 25.7214 15.5607 25.5494 15.988 25.4297C16.0193 25.4609 16.0506 25.4923 16.0819 25.5235C15.4638 26.089 15.4951 26.6364 16.1757 27.1658C16.9359 27.3949 17.4051 27.1134 17.5833 26.3212C17.5243 25.9857 17.4148 25.6885 17.2549 25.4297C19.1037 25.9978 19.9171 27.249 19.6948 29.1834C19.5967 29.2653 19.5185 29.3591 19.4602 29.4649Z" fill="white"/>
<path opacity="0.946" fill-rule="evenodd" clip-rule="evenodd" d="M30.5314 29.4649C30.3125 29.4649 30.0934 29.4649 29.8745 29.4649C29.178 29.1695 28.4429 28.9818 27.6692 28.9018C26.8955 28.9818 26.1604 29.1695 25.4639 29.4649C25.245 29.4649 25.026 29.4649 24.807 29.4649C24.2496 27.4222 25.0004 26.0772 27.0592 25.4297C27.0905 25.4454 27.1218 25.4609 27.1531 25.4766C26.464 26.3193 26.6361 26.9293 27.6692 27.3065C28.367 27.1927 28.6798 26.786 28.6076 26.0866C28.4802 25.8652 28.3864 25.6462 28.3261 25.4297C30.1438 25.9671 30.9571 27.1871 30.766 29.0895C30.7039 29.2288 30.6256 29.3539 30.5314 29.4649Z" fill="white"/>
</svg>
