<svg width="22" height="27" viewBox="0 0 22 27" fill="none" xmlns="http://www.w3.org/2000/svg">
<path fill-rule="evenodd" clip-rule="evenodd" d="M5.0787 18.5174C4.32431 18.0573 3.43357 17.8735 2.5587 17.9974H0.332031V25.9974H2.10536V22.9441H2.86536C3.65269 23.025 4.44382 22.8319 5.10537 22.3974C5.66689 21.9158 5.97649 21.2032 5.94536 20.4641C5.98694 19.7134 5.66431 18.9888 5.0787 18.5174ZM3.65203 21.4374C3.31709 21.5848 2.94883 21.6401 2.58536 21.5974H2.06536V19.3307H2.58536C2.96296 19.2906 3.34389 19.3649 3.6787 19.5441C3.99051 19.7612 4.1672 20.1247 4.14536 20.5041C4.18576 20.8865 3.99078 21.2554 3.65203 21.4374ZM9.7587 17.9974H7.54537V25.9974H9.66537C10.7458 26.1031 11.8338 25.8948 12.7987 25.3974C13.8605 24.6061 14.4277 23.3146 14.292 21.9974C14.3715 20.8689 13.9694 19.7596 13.1854 18.9441C12.2169 18.1807 10.9817 17.8395 9.7587 17.9974ZM11.5187 24.1841C10.9632 24.4963 10.3272 24.6356 9.69203 24.5841H9.34537V19.4107H9.66537C10.7854 19.4107 11.2254 19.5174 11.6654 19.9174C12.1994 20.4734 12.4751 21.2281 12.4254 21.9974C12.494 22.8299 12.1563 23.6443 11.5187 24.1841ZM16.2387 25.9974H18.0387V22.6507H21.6654V21.2374H18.0387V19.4107H21.6654V17.9974H16.2387V25.9974ZM14.9987 0.664062H0.332031V15.3307H2.9987V12.6641V11.2641V3.33073H13.892L18.9987 8.4374V11.2641V12.6641V15.3307H21.6654V7.33073L14.9987 0.664062Z" fill="#878D9E"/>
</svg>
