<?xml version="1.0" encoding="utf-8"?><svg width="262" height="60" viewBox="0 0 262 60" fill="none" xmlns="http://www.w3.org/2000/svg">
<g clip-path="url(#clip0_207_2403)">
<path d="M60.5566 30.1448C60.4687 46.7146 46.8751 60.0867 30.1467 59.9995C13.4183 59.9413 -0.0874634 46.4239 0.000426542 29.8541C0.0883165 13.2843 13.7113 -0.0877617 30.4104 -0.00055241C47.1387 0.0866569 60.6445 13.575 60.5566 30.1448Z" fill="#221F1F"/>
<path d="M15.8788 23.0516C16.9042 23.2842 18.0467 22.0342 18.4276 20.2609C18.8085 18.5167 18.3104 16.8888 17.285 16.6853C16.5819 16.54 15.8495 17.0633 15.3222 17.9353C15.7909 18.1679 16.0253 18.7493 15.7909 19.2435C15.5858 19.6795 15.1171 19.9412 14.6483 19.8249C14.4433 21.4528 14.9413 22.8481 15.8788 23.0516ZM10.957 19.3598C11.7773 14.9993 14.3261 11.8307 16.6405 12.2667C18.9549 12.7028 20.1561 16.5981 19.3358 20.9586C18.5155 25.3191 15.9667 28.4877 13.6522 28.0516C11.3378 27.6156 10.1367 23.7202 10.957 19.3598ZM51.0055 23.0516C25.1365 40.2028 7.35347 31.5109 7.35347 31.5109C7.0898 37.4702 17.3729 55.7842 29.6775 56.0167C41.9821 56.2202 51.0055 23.0516 51.0055 23.0516ZM13.4765 28.7784C16.1718 29.3016 19.1307 25.8423 20.0389 21.1039C20.9471 16.3656 19.4823 12.0923 16.787 11.5691C14.0917 11.0458 11.162 14.5051 10.2538 19.2435C9.31634 23.9819 10.7812 28.2551 13.4765 28.7784ZM22.7635 26.3365C23.6717 25.3191 24.6971 24.3598 25.8983 23.4586C31.2302 19.3888 37.0896 18.3714 38.9646 21.1912C39.697 22.2958 39.7263 23.8074 39.1696 25.4644C41.0739 22.3539 41.6891 19.476 40.488 17.8772C38.5251 15.2319 32.4021 17.0342 26.8357 21.947C25.2537 23.3423 23.8768 24.8539 22.7635 26.3365ZM28.7107 13.3423C32.988 10.4644 40.3415 8.89465 44.2673 14.883C41.8942 1.10395 31.6404 9.03999 28.7107 13.3423ZM59.7652 30.1446C59.6773 46.2784 46.4352 59.2726 30.1463 59.2144C13.8573 59.1272 0.820312 45.9877 0.820312 29.883C0.820312 19.4179 6.06441 11.9179 11.0741 7.8772C17.1971 2.93534 21.3573 6.74348 22.8221 9.59232C22.6463 8.37139 22.1483 4.88302 20.7713 2.35395C23.7889 1.33651 27.0115 0.78418 30.3806 0.78418C46.6989 0.871389 59.8238 14.0109 59.7652 30.1446ZM41.1618 44.883C37.9685 50.5807 33.9841 55.2319 29.531 55.1446C26.7772 55.0865 24.1405 54.04 21.7088 52.4412C22.5584 51.0167 27.3631 44.0691 41.1618 44.883Z" fill="#05BC52"/>
<path d="M244.982 32.1799L248.088 24.709L251.193 32.209H244.982V32.1799ZM252.599 20.0869H243.605L234.172 40.1451H241.701L243.342 36.2206H252.834L254.445 40.1451H262.004L252.599 20.0869Z" fill="#221F1F"/>
<path d="M183.664 25.2323H192.043V40.116H198.928V25.2323H207.306V20.0869H183.664V25.2323Z" fill="#221F1F"/>
<path d="M167.609 32.0927H179.445V28.0811H167.609V25.1451H181.467V20.0869H160.93V40.116H181.965V35.1741H167.609V32.0927Z" fill="#221F1F"/>
<path d="M158 23.6625V20.0869H135.676V25.2323H147.687L135.5 36.5695V40.116H158.058V34.9706H145.959L158 23.6625Z" fill="#221F1F"/>
<path d="M120.029 35.4067C115.635 35.4067 112.939 33.9242 112.939 30.116C112.939 26.3079 115.605 24.8544 120.029 24.8544C124.394 24.8544 127.148 26.3079 127.148 30.116C127.148 33.9242 124.394 35.4067 120.029 35.4067ZM120.029 19.5928C111.211 19.5928 105.703 22.9649 105.703 30.116C105.703 37.2381 111.211 40.6684 120.029 40.6684C128.877 40.6684 134.385 37.2672 134.385 30.116C134.385 22.9649 128.877 19.5928 120.029 19.5928Z" fill="#221F1F"/>
<path d="M87.1308 24.796H93.8104C95.8905 24.796 96.6815 25.9006 96.6815 27.3251C96.6815 28.2844 96.0956 29.9995 93.6933 29.9995H87.1308V24.796ZM103.654 27.3251C103.654 23.0809 100.93 20.0576 94.3964 20.0576H80.3047V40.1158H87.1015V34.4472H91.496L96.3885 40.1158H104.885L99.201 33.6041C102.043 32.4123 103.654 29.796 103.654 27.3251Z" fill="#221F1F"/>
<path d="M224.941 20.0869L216.562 27.4125V20.0869H209.766V40.116H216.562V34.5927L219.141 32.4416L224.971 40.116H233.437L224.062 28.2846L233.76 20.0869H224.941Z" fill="#221F1F"/>
</g>
<defs>
<clipPath id="clip0_207_2403">
<rect width="262" height="60" fill="white"/>
</clipPath>
</defs>
</svg>
