<?xml version="1.0" encoding="utf-8"?><svg width="174" height="104" viewBox="0 0 174 104" fill="none" xmlns="http://www.w3.org/2000/svg">
<g clip-path="url(#clip0_207_2421)">
<path d="M18 103.93H155.155L86.9414 36.1104L18 103.93Z" fill="#7BB51C"/>
<path d="M15.3835 100.595L26.0691 90.2307L22.5099 86.6014L15.7983 93.1138L3.97507 81.0615L0 84.9172L15.3835 100.595Z" fill="#112E52"/>
<path d="M28.4102 87.87L39.3592 77.247L36.3524 74.1847L29.4002 80.9275L26.0617 77.5246L31.6328 72.1205L28.4864 68.9165L22.9154 74.3176L20.0551 71.4029L26.7785 64.8797L23.7737 61.8184L12.8594 72.406L28.4102 87.87Z" fill="#112E52"/>
<path d="M64.2573 37.5106C59.8416 33.0102 52.1816 33.5486 48.4926 37.1277C44.8027 40.7068 42.9196 47.8433 48.1303 53.1538C53.8538 58.9861 60.6634 56.8678 64.3533 53.2906C69.7936 48.0136 67.8571 41.1793 64.2573 37.5106ZM61.0119 50.2087C58.5694 52.578 55.5834 51.9352 52.1717 48.4575C49.3045 45.536 49.4767 42.6007 51.5618 40.5778C52.9954 39.187 55.9071 37.9427 59.3713 41.4736C63.3236 45.5015 63.4543 47.8393 61.0119 50.2087Z" fill="#112E52"/>
<path d="M76.5651 41.2477L80.6045 37.3281L74.5276 31.1356L70.8901 16.0889L66.2596 20.5814L68.6684 29.1177L60.5302 26.138L56.1641 30.3727L70.0387 34.8023L76.5651 41.2477Z" fill="#112E52"/>
<path d="M55.033 62.1635C55.033 62.1635 45.2018 58.8286 44.7345 58.9093C44.583 58.9339 46.8463 52.9461 41.7614 50.2923C41.7614 50.2923 37.9883 48.2616 34.2122 51.6724L26.1641 59.558L41.6792 75.0929L45.784 71.1112L37.3883 62.5573L50.96 66.1147L55.033 62.1635ZM39.806 60.0304C37.5249 62.2393 37.217 62.4135 37.217 62.4135C37.217 62.4135 33.641 58.7695 33.5142 58.6406C33.3875 58.5116 36.0715 56.224 36.4943 55.8135C36.6735 55.6393 38.3447 54.5555 39.7278 55.9641C39.7278 55.9641 42.0861 57.8176 39.806 60.0304Z" fill="#112E52"/>
<path d="M75.3087 19.054L71.7188 15.4552L87.3913 0L92.5208 5.14123L86.8745 16.1895L98.3859 11.0207L103.321 15.969L87.6487 31.4242L83.8657 27.6325L92.1386 19.4753L80.8213 24.5801L78.4818 22.2344L83.742 10.9932L75.3087 19.054Z" fill="#112E52"/>
<path d="M102.523 46.3323L91.6562 35.4406L107.33 19.9854L118.227 30.9096L115.061 34.032L108.234 27.1888L105.68 29.7058L111.065 35.1039L107.768 38.3542L102.416 32.9886L98.9906 36.3658L105.754 43.145L102.523 46.3323Z" fill="#112E52"/>
<path d="M138.361 51.0869L142.399 55.1365L130.54 66.8305L137.174 73.4788L133.36 77.2419L122.688 66.5431L138.361 51.0869Z" fill="#112E52"/>
<path d="M136.18 80.0695L151.853 64.6143L155.796 68.5654L140.122 84.0196L136.18 80.0695Z" fill="#112E52"/>
<path d="M147.265 91.1875L143.578 87.4913L159.253 72.0371L164.606 77.3998L160.032 93.4466L170.407 83.2153L173.997 86.8141L158.324 102.268L153.643 97.5789L157.674 80.7328L147.265 91.1875Z" fill="#112E52"/>
<path d="M131.272 43.9866L121.753 34.4434L106.047 49.8671L110.085 53.9147L118.648 45.471L115.566 59.4093L119.701 63.5544C119.701 63.5544 122.96 53.584 123.06 53.1686C123.06 53.1686 126.591 55.1028 130.467 51.7905C130.467 51.7905 134.183 48.1897 131.272 43.9866ZM125.46 48.5067C125.46 48.5067 123.459 49.8425 121.696 48.0756L118.941 45.1835C118.941 45.1835 122.269 41.9017 122.689 41.4873C122.689 41.4873 125.253 44.0584 125.574 44.3793C125.893 44.7002 127.915 46.2122 125.46 48.5067Z" fill="#112E52"/>
</g>
<defs>
<clipPath id="clip0_207_2421">
<rect width="174" height="104" fill="white"/>
</clipPath>
</defs>
</svg>
