<svg width="22" height="27" viewBox="0 0 22 27" fill="none" xmlns="http://www.w3.org/2000/svg">
<path fill-rule="evenodd" clip-rule="evenodd" d="M5.08016 18.5201C4.32578 18.06 3.43504 17.8762 2.56016 18.0001H0.333496V26.0001H2.10683V22.9467H2.86683C3.65415 23.0276 4.44528 22.8346 5.10683 22.4001C5.66835 21.9184 5.97795 21.2059 5.94683 20.4667C5.9884 19.7161 5.66578 18.9915 5.08016 18.5201ZM3.6535 21.4401C3.31855 21.5875 2.95029 21.6428 2.58683 21.6001H2.06683V19.3334H2.58683C2.96442 19.2933 3.34536 19.3676 3.68016 19.5467C3.99197 19.7639 4.16866 20.1274 4.14683 20.5067C4.18722 20.8892 3.99225 21.2581 3.6535 21.4401ZM9.76016 18.0001H7.54683V26.0001H9.66683C10.7473 26.1058 11.8352 25.8975 12.8002 25.4001C13.8619 24.6088 14.4292 23.3173 14.2935 22.0001C14.373 20.8716 13.9709 19.7622 13.1868 18.9467C12.2183 18.1834 10.9832 17.8422 9.76016 18.0001ZM11.5202 24.1867C10.9647 24.499 10.3286 24.6383 9.6935 24.5867H9.34683V19.4134H9.66683C10.7868 19.4134 11.2268 19.5201 11.6668 19.9201C12.2008 20.476 12.4766 21.2308 12.4268 22.0001C12.4954 22.8326 12.1577 23.647 11.5202 24.1867ZM16.2402 26.0001H18.0402V22.6534H21.6668V21.2401H18.0402V19.4134H21.6668V18.0001H16.2402V26.0001ZM15.0002 0.666748H0.333496V15.3334H3.00016V12.6667V11.2667V3.33341H13.8935L19.0002 8.44008V11.2667V12.6667V15.3334H21.6668V7.33341L15.0002 0.666748Z" fill="white"/>
</svg>
