<svg width="39" height="39" viewBox="0 0 39 39" fill="none" xmlns="http://www.w3.org/2000/svg">
<path opacity="0.94" fill-rule="evenodd" clip-rule="evenodd" d="M19.2183 2.97363C19.5233 2.97363 19.8282 2.97363 20.1332 2.97363C21.26 3.43475 21.6984 4.27346 21.4485 5.48976C20.7299 6.79665 19.7197 7.08257 18.4177 6.34753C17.636 5.52649 17.5407 4.6306 18.1318 3.65985C18.4569 3.35532 18.819 3.12658 19.2183 2.97363Z" fill="white"/>
<path opacity="0.947" fill-rule="evenodd" clip-rule="evenodd" d="M18.5341 7.20573C18.6911 7.18781 18.8437 7.20688 18.9916 7.26292C18.5096 7.74329 18.4142 8.29608 18.7056 8.92127C19.3877 9.55392 20.0359 9.51579 20.6499 8.8069C20.9243 8.24194 20.8289 7.74633 20.364 7.3201C21.9459 7.5463 22.9562 8.46126 23.3948 10.065C23.4973 10.6882 23.4592 11.2982 23.2804 11.8949C22.8905 12.0232 22.4902 12.0423 22.0795 11.9521C20.4403 11.2658 18.8009 11.2658 17.1616 11.9521C16.7804 12.0283 16.3991 12.0283 16.0179 11.9521C15.5463 9.67384 16.3851 8.09173 18.5341 7.20573Z" fill="white"/>
<path opacity="0.918" fill-rule="evenodd" clip-rule="evenodd" d="M19.1018 12.6953C19.483 12.6953 19.8643 12.6953 20.2455 12.6953C20.2265 13.8777 20.2455 15.0596 20.3027 16.2408C21.2851 16.9703 22.2573 17.7137 23.2191 18.471C23.0113 18.793 22.7636 19.079 22.4757 19.3287C21.4919 18.6885 20.5389 18.0023 19.6165 17.2701C18.6985 17.9784 17.7645 18.6646 16.8144 19.3287C16.5792 19.1264 16.3695 18.8977 16.1854 18.6425C16.0997 18.5127 16.1187 18.3983 16.2426 18.2994C17.1662 17.5613 18.1003 16.8369 19.0446 16.1264C19.1018 14.9834 19.1208 13.8396 19.1018 12.6953Z" fill="white"/>
<path opacity="0.945" fill-rule="evenodd" clip-rule="evenodd" d="M12.7012 14.5254C14.4919 14.789 15.0828 15.7803 14.4739 17.499C13.7765 18.3058 12.9187 18.5154 11.9006 18.128C10.9072 17.3122 10.7356 16.3401 11.3859 15.2116C11.7642 14.8416 12.2027 14.6129 12.7012 14.5254Z" fill="white"/>
<path opacity="0.946" fill-rule="evenodd" clip-rule="evenodd" d="M26.3091 14.5254C28.0824 14.7162 28.7114 15.6692 28.1962 17.3846C27.6417 18.2488 26.8601 18.5347 25.8516 18.2424C24.6857 17.6042 24.3617 16.6702 24.8795 15.4403C25.2658 14.9721 25.7424 14.6671 26.3091 14.5254Z" fill="white"/>
<path opacity="0.944" fill-rule="evenodd" clip-rule="evenodd" d="M11.8921 18.757C12.0124 18.74 12.1268 18.759 12.2352 18.8142C11.4649 19.5451 11.503 20.2314 12.3496 20.8729C13.2626 21.1042 13.8344 20.7611 14.0651 19.8435C13.993 19.4321 13.8023 19.089 13.4933 18.8142C15.8045 19.339 16.8528 20.8067 16.6384 23.2174C16.4036 23.6511 16.0416 23.7845 15.5519 23.6177C14.6826 23.2897 13.7868 23.0801 12.8643 22.9887C11.8034 23.1538 10.755 23.3826 9.71909 23.6749C9.50476 23.6875 9.33321 23.6113 9.20443 23.4462C8.79819 21.1321 9.69409 19.5692 11.8921 18.757Z" fill="white"/>
<path opacity="0.943" fill-rule="evenodd" clip-rule="evenodd" d="M25.6174 18.7571C25.7176 18.7421 25.7939 18.7802 25.8462 18.8714C25.1789 19.6327 25.2552 20.2998 26.0749 20.8729C27.0186 21.1068 27.5523 20.7446 27.6761 19.7864C27.6454 19.4201 27.4929 19.1151 27.2186 18.8714C28.8014 19.0986 29.8117 20.0135 30.2494 21.6163C30.3257 22.1882 30.3257 22.76 30.2494 23.3319C29.9966 23.6509 29.6725 23.7462 29.2773 23.6178C28.369 23.2907 27.435 23.0809 26.4752 22.9887C25.447 23.1362 24.4368 23.3649 23.4444 23.675C23.205 23.6766 22.9954 23.6004 22.8154 23.4462C22.4392 21.0973 23.3732 19.5342 25.6174 18.7571Z" fill="white"/>
<path opacity="0.898" fill-rule="evenodd" clip-rule="evenodd" d="M12.2392 24.2461C12.6586 24.2461 13.0779 24.2461 13.4973 24.2461C13.4783 25.4286 13.4973 26.6103 13.5545 27.7915C14.4694 28.4778 15.3844 29.164 16.2993 29.8502C16.3756 29.9646 16.3756 30.0789 16.2993 30.1933C16.1152 30.4485 15.9056 30.6772 15.6703 30.8795C14.7173 30.1933 13.7642 29.5071 12.8111 28.8209C11.9285 29.5511 11.0135 30.2373 10.0662 30.8795C9.76059 30.631 9.49373 30.3451 9.26562 30.0218C10.2275 29.2645 11.1996 28.5211 12.182 27.7915C12.2392 26.6103 12.2583 25.4286 12.2392 24.2461Z" fill="white"/>
<path opacity="0.918" fill-rule="evenodd" clip-rule="evenodd" d="M25.969 24.2461C26.3502 24.2461 26.7315 24.2461 27.1127 24.2461C27.0747 25.4304 27.1128 26.6122 27.2271 27.7915C28.1801 28.535 29.1333 29.2784 30.0863 30.0218C29.8785 30.3438 29.6308 30.6297 29.3429 30.8795C28.4007 30.2079 27.4667 29.5217 26.5408 28.8209C25.5878 29.5071 24.6346 30.1933 23.6816 30.8795C23.4463 30.6772 23.2367 30.4485 23.0526 30.1933C22.9669 30.0635 22.9859 29.9491 23.1098 29.8502C24.0334 29.1121 24.9675 28.3876 25.9118 27.6772C25.969 26.5342 25.988 25.3905 25.969 24.2461Z" fill="white"/>
<path opacity="0.948" fill-rule="evenodd" clip-rule="evenodd" d="M5.38218 26.8768C6.88594 26.6165 7.76277 27.2264 8.01268 28.7067C7.76369 30.2049 6.88685 30.7959 5.38218 30.4794C4.29206 29.8787 3.96801 28.9829 4.41004 27.7917C4.65668 27.3942 4.98072 27.0891 5.38218 26.8768Z" fill="white"/>
<path opacity="0.948" fill-rule="evenodd" clip-rule="evenodd" d="M18.9865 26.877C21.0247 26.7229 21.8062 27.6379 21.331 29.6219C20.7766 30.486 19.995 30.772 18.9865 30.4796C17.8751 29.9444 17.5129 29.0866 17.8999 27.9063C18.1751 27.4594 18.5372 27.1163 18.9865 26.877Z" fill="white"/>
<path opacity="0.947" fill-rule="evenodd" clip-rule="evenodd" d="M32.4861 26.8768C34.311 26.6623 35.1307 27.4629 34.945 29.2785C34.4568 30.4277 33.599 30.828 32.3717 30.4794C31.3508 29.8959 31.0268 29.0381 31.3995 27.9061C31.6775 27.4561 32.0397 27.113 32.4861 26.8768Z" fill="white"/>
<path opacity="0.943" fill-rule="evenodd" clip-rule="evenodd" d="M9.49434 35.9122C9.2656 35.9122 9.03686 35.9122 8.80812 35.9122C7.57528 35.3192 6.27909 35.1476 4.91956 35.3975C4.39338 35.5184 3.89777 35.6899 3.43276 35.9122C3.1659 35.9122 2.89903 35.9122 2.63217 35.9122C2.5178 35.7978 2.40343 35.6834 2.28906 35.5691C2.28906 34.9972 2.28906 34.4254 2.28906 33.8535C2.76178 32.2734 3.79111 31.3584 5.37704 31.1086C4.64663 32.1273 4.87537 32.8517 6.06326 33.2817C7.2919 32.8592 7.52064 32.1349 6.74947 31.1086C7.88163 31.2492 8.77752 31.8211 9.43716 32.8242C9.9362 33.7363 10.0506 34.6894 9.78026 35.6834C9.6665 35.7482 9.5712 35.8244 9.49434 35.9122Z" fill="white"/>
<path opacity="0.944" fill-rule="evenodd" clip-rule="evenodd" d="M23.106 35.912C22.8392 35.912 22.5722 35.912 22.3054 35.912C21.4766 35.5476 20.5997 35.3189 19.6749 35.2258C18.7114 35.3142 17.7965 35.543 16.93 35.912C16.6632 35.912 16.3963 35.912 16.1294 35.912C15.5086 34.2071 15.928 32.7775 17.3875 31.6232C17.8579 31.3497 18.3535 31.1401 18.8743 30.9941C18.9124 31.0322 18.9506 31.0704 18.9887 31.1085C18.2354 31.7977 18.2735 32.4648 19.103 33.11C20.0296 33.3893 20.6014 33.0462 20.8186 32.0807C20.7467 31.6718 20.6132 31.3096 20.4183 30.9941C22.6716 31.6865 23.6628 33.2114 23.3919 35.5689C23.2724 35.6688 23.1771 35.7831 23.106 35.912Z" fill="white"/>
<path opacity="0.946" fill-rule="evenodd" clip-rule="evenodd" d="M36.5999 35.912C36.3331 35.912 36.0661 35.912 35.7993 35.912C34.9505 35.552 34.0546 35.3233 33.1116 35.2258C32.1687 35.3233 31.2728 35.552 30.4239 35.912C30.1571 35.912 29.8902 35.912 29.6234 35.912C28.944 33.4225 29.859 31.7833 32.3682 30.9941C32.4063 31.0132 32.4445 31.0322 32.4826 31.0513C31.6428 32.0784 31.8525 32.8218 33.1116 33.2815C33.9621 33.1428 34.3433 32.6471 34.2553 31.7947C34.1 31.5249 33.9856 31.258 33.9122 30.9941C36.1276 31.6491 37.1187 33.1359 36.8858 35.4546C36.8101 35.6243 36.7147 35.7767 36.5999 35.912Z" fill="white"/>
</svg>
