<svg width="247" height="267" viewBox="0 0 247 267" fill="none" xmlns="http://www.w3.org/2000/svg">
<g clip-path="url(#clip0_317_495)">
<path d="M127.996 0H129.551C130.107 0.931533 129.974 1.92537 129.151 2.9815C129.065 3.09373 128.95 3.18049 128.819 3.23257C128.687 3.28466 128.544 3.30011 128.405 3.27728C128.265 3.25446 128.135 3.19422 128.027 3.10296C127.919 3.0117 127.837 2.89284 127.791 2.759C127.365 1.5308 127.433 0.611133 127.996 0Z" fill="white"/>
<path d="M121.502 6.92424V15.0588C121.502 15.4504 121.697 15.6611 122.088 15.6907L124.105 15.8598C124.442 15.8836 124.611 16.0675 124.611 16.4116V16.8299C124.611 17.2275 124.413 17.4173 124.016 17.3995L120.551 17.2393C119.953 17.2156 119.648 16.9041 119.636 16.3048L119.449 7.51164C119.431 6.79964 119.067 6.42287 118.356 6.38134C117.717 6.34574 117.183 6.12324 116.757 5.71384C116.23 5.21544 116.325 4.92174 117.041 4.83274L119.005 4.58354C119.277 4.54794 119.422 4.39367 119.44 4.12074L119.556 2.30514C119.574 2.00847 119.725 1.82751 120.009 1.76224L120.569 1.63764C120.995 1.53677 121.217 1.70587 121.235 2.14494L121.342 4.19194C121.359 4.51234 121.528 4.67254 121.848 4.67254H123.732C124.087 4.67254 124.306 4.84461 124.389 5.18874C124.753 6.70174 122.665 6.42584 121.884 6.50594C121.629 6.52967 121.502 6.66911 121.502 6.92424Z" fill="white"/>
<path d="M87.6638 5.94956C87.947 6.70413 88.6568 7.13498 89.2494 6.91188C89.8419 6.68879 90.0927 5.89623 89.8096 5.14166C89.5264 4.38709 88.8165 3.95624 88.224 4.17934C87.6315 4.40244 87.3807 5.19499 87.6638 5.94956Z" fill="white"/>
<path d="M128.908 4.91215L128.039 4.86194C127.715 4.84326 127.438 5.09068 127.419 5.41455L126.76 16.8765C126.741 17.2004 126.988 17.4781 127.311 17.4968L128.181 17.547C128.504 17.5656 128.781 17.3182 128.8 16.9943L129.46 5.53238C129.478 5.20851 129.231 4.93082 128.908 4.91215Z" fill="white"/>
<path d="M113.023 9.56825C113.298 5.73235 109.371 6.74695 107.185 7.29875C106.86 7.38182 106.59 7.29282 106.377 7.03176C106.022 6.58676 106.128 6.16845 106.697 5.77685C106.904 5.63445 107.129 5.53062 107.372 5.46536C116.488 3.04456 115.733 11.1347 115.715 17.0087C115.709 17.3587 115.534 17.5041 115.191 17.4448C111.432 16.8218 105.924 20.9781 106.261 13.3508C106.377 10.5206 110.446 10.3604 112.534 10.0845C112.836 10.0489 112.999 9.87679 113.023 9.56825ZM113.565 14.8549L113.147 12.4163C113.1 12.1498 112.948 11.9131 112.727 11.758C112.506 11.6029 112.232 11.5419 111.966 11.5886L110.02 11.9268C109.424 12.0305 108.89 12.3464 108.535 12.8053C108.181 13.2641 108.034 13.8284 108.127 14.3743L108.189 14.7036C108.283 15.25 108.61 15.7333 109.098 16.047C109.587 16.3608 110.196 16.4794 110.793 16.3768L112.738 16.0386C113.004 15.9908 113.241 15.8395 113.396 15.6176C113.551 15.3958 113.611 15.1215 113.565 14.8549Z" fill="white"/>
<path d="M141.962 14.5148C141.874 15.135 141.665 15.7317 141.346 16.271C141.028 16.8102 140.607 17.2813 140.107 17.6574C139.607 18.0336 139.037 18.3074 138.432 18.4632C137.826 18.619 137.195 18.6537 136.576 18.5654L135.802 18.4551C135.183 18.3668 134.587 18.1572 134.049 17.8383C133.511 17.5194 133.04 17.0975 132.665 16.5965C132.289 16.0955 132.016 15.5254 131.861 14.9186C131.705 14.3118 131.67 13.6803 131.758 13.0601L132.249 9.60607C132.337 8.98585 132.546 8.3891 132.865 7.84988C133.183 7.31066 133.604 6.83953 134.105 6.46339C134.605 6.08725 135.174 5.81347 135.78 5.65768C136.385 5.50189 137.016 5.46714 137.635 5.55541L138.409 5.66577C139.028 5.75404 139.624 5.9636 140.162 6.2825C140.701 6.60139 141.171 7.02337 141.546 7.52435C141.922 8.02532 142.195 8.59547 142.351 9.20225C142.506 9.80903 142.541 10.4406 142.453 11.0608L141.962 14.5148ZM136.496 16.9084C136.916 16.9675 137.349 16.9022 137.77 16.7162C138.191 16.5303 138.593 16.2273 138.951 15.8247C139.31 15.422 139.62 14.9276 139.862 14.3695C140.104 13.8115 140.274 13.2008 140.362 12.5723C140.45 11.9439 140.455 11.3099 140.376 10.7067C140.296 10.1035 140.135 9.54278 139.901 9.05663C139.667 8.57048 139.364 8.16841 139.01 7.87335C138.657 7.5783 138.259 7.39605 137.839 7.33701C137.42 7.27796 136.987 7.34328 136.566 7.52923C136.145 7.71518 135.743 8.01813 135.384 8.42077C135.025 8.82342 134.716 9.31787 134.474 9.8759C134.232 10.4339 134.062 11.0446 133.974 11.6731C133.886 12.3016 133.881 12.9355 133.96 13.5387C134.039 14.142 134.2 14.7027 134.435 15.1888C134.669 15.675 134.972 16.077 135.325 16.3721C135.679 16.6671 136.077 16.8494 136.496 16.9084Z" fill="white"/>
<path d="M98.6099 18.0575L104.296 16.9806C104.729 16.8975 104.963 17.0755 104.998 17.5146C105.14 19.4281 98.4233 19.793 97.4371 19.8108C97.1628 19.8143 96.8925 19.7464 96.6524 19.6137C96.4122 19.481 96.2104 19.288 96.0664 19.0534C95.9225 18.8187 95.8413 18.5504 95.8309 18.2746C95.8204 17.9987 95.8809 17.7247 96.0066 17.479L100.422 8.89046C100.461 8.81249 100.477 8.72515 100.469 8.63847C100.461 8.5518 100.429 8.46932 100.377 8.40051C100.325 8.33171 100.255 8.27938 100.175 8.24954C100.095 8.2197 100.008 8.21358 99.9248 8.23186L95.1181 9.27316C94.6383 9.37996 94.3984 9.18712 94.3984 8.69466V8.18736C94.3984 7.84916 94.5643 7.64446 94.896 7.57326L101.284 6.26496C101.574 6.20562 101.844 6.25309 102.093 6.40736C104.296 7.79576 99.0008 15.8503 98.2456 17.6125C98.0857 17.9863 98.2071 18.1346 98.6099 18.0575Z" fill="white"/>
<path d="M149.676 8.25048C158.338 6.81758 154.003 17.8269 153.016 21.4848C152.945 21.7755 152.765 21.8912 152.474 21.8319L151.533 21.6539C151.159 21.5827 151.017 21.3602 151.106 20.9864L153.31 12.1487C153.398 11.7927 153.316 11.4841 153.061 11.2231C151.841 9.97115 150.301 9.60032 148.441 10.1106C148.156 10.1877 147.976 10.3687 147.899 10.6535L145.695 19.1797C145.547 19.7552 145.183 19.9896 144.602 19.8828C143.85 19.7463 143.554 19.3488 143.714 18.6902C144.591 14.97 145.55 11.2676 146.593 7.58298C146.699 7.21512 146.921 7.11722 147.259 7.28928L148.92 8.13478C149.157 8.25938 149.409 8.29795 149.676 8.25048Z" fill="white"/>
<path d="M90.0113 8.8344L89.3244 9.01748C88.964 9.11354 88.7496 9.48406 88.8455 9.84506L91.7469 20.768C91.8428 21.129 92.2127 21.3438 92.5731 21.2477L93.26 21.0647C93.6204 20.9686 93.8348 20.5981 93.7389 20.2371L90.8375 9.31414C90.7416 8.95313 90.3717 8.73835 90.0113 8.8344Z" fill="white"/>
<path d="M169.343 12.2288L168.827 13.5905C168.709 13.9109 168.804 14.1482 169.112 14.3025L170.844 15.1658C171.336 15.4031 171.374 15.7027 170.96 16.0647L170.391 16.5631C170.101 16.8182 169.796 16.839 169.476 16.6254L168.41 15.9045C168.102 15.7027 167.877 15.7739 167.734 16.1181L163.914 25.3919C163.868 25.5035 163.798 25.6038 163.709 25.6857C163.62 25.7677 163.515 25.8294 163.4 25.8666C163.285 25.9038 163.164 25.9157 163.044 25.9013C162.924 25.887 162.808 25.8468 162.706 25.7835C160.076 24.1459 168.525 14.8187 164.349 14.2669C163.917 14.2075 163.739 13.9643 163.816 13.5371L163.923 12.9052C163.994 12.5195 164.213 12.3979 164.58 12.5403L166.215 13.1722C166.665 13.3442 166.938 13.1959 167.033 12.7272C167.699 9.44306 170.462 8.66876 172.781 11.0006C173.131 11.3506 173.08 11.6325 172.63 11.8461C172.067 12.1071 171.487 12.0567 170.889 11.6948C170.756 11.6131 170.607 11.5619 170.453 11.545C170.298 11.528 170.141 11.5456 169.993 11.5966C169.846 11.6476 169.711 11.7307 169.598 11.84C169.486 11.9493 169.399 12.082 169.343 12.2288Z" fill="white"/>
<path d="M84.0154 11.5163C86.281 12.3796 88.2268 19.4729 88.911 21.5822C89.0117 21.8967 88.9287 22.1459 88.6622 22.3298C87.9573 22.8223 87.4805 22.7748 87.2317 22.1874C86.0944 19.5174 84.9868 16.8148 83.9088 14.0795C83.7641 13.7188 83.4974 13.4209 83.1559 13.2385C82.8144 13.056 82.4202 13.0009 82.0429 13.0827C80.7576 13.3557 79.6618 13.9579 78.7555 14.8894C78.5541 15.103 78.5038 15.3493 78.6045 15.6281L81.7408 24.2433C81.8771 24.6231 81.7557 24.8752 81.3766 24.9998L80.5414 25.2846C80.1445 25.4211 79.875 25.2906 79.7329 24.893L75.6991 13.6612C75.6716 13.5861 75.6648 13.5049 75.6794 13.4262C75.6941 13.3475 75.7297 13.2742 75.7824 13.214C75.8352 13.1539 75.9032 13.1091 75.9792 13.0845C76.0552 13.0598 76.1365 13.0561 76.2144 13.0738C79.3242 13.7858 80.4792 10.1635 84.0154 11.5163Z" fill="white"/>
<path d="M74.6525 27.5016C71.4007 32.6458 64.968 27.9466 68.0599 23.4432C68.8951 22.2328 70.7343 21.6098 72.0226 20.7376C72.3958 20.4824 72.4283 20.1887 72.1203 19.8565L70.6188 18.2901C70.3345 17.9875 70.0117 17.9341 69.6503 18.1299L65.6877 20.2837C65.3915 20.4439 65.125 20.4083 64.888 20.1769C63.4309 18.7618 70.6188 13.8134 73.5952 18.3791C74.2764 19.4233 75.5795 22.1022 77.5046 26.4158C77.6941 26.837 77.5579 27.0595 77.0959 27.0833L75.2212 27.1812C74.9724 27.193 74.7828 27.2998 74.6525 27.5016ZM71.9604 22.5354L69.3571 24.2709C69.1384 24.4176 68.9866 24.6451 68.935 24.9036C68.8834 25.1622 68.9361 25.4307 69.0817 25.6504L69.828 26.7718C70.1275 27.2209 70.5988 27.5284 71.1385 27.6269C71.6783 27.7253 72.2423 27.6066 72.7067 27.2969L73.462 26.7896C73.9264 26.479 74.2528 26.0027 74.3694 25.4652C74.4861 24.9278 74.3834 24.3733 74.0839 23.9238L73.3376 22.8113C73.1911 22.5922 72.964 22.4401 72.7059 22.3884C72.4478 22.3367 72.1797 22.3896 71.9604 22.5354Z" fill="white"/>
<path d="M171.515 30.043C170.888 29.7214 170.345 29.2493 169.918 28.6536C169.491 28.0578 169.188 27.3502 169.026 26.571C168.864 25.7918 168.847 24.9564 168.975 24.1124C169.104 23.2684 169.375 22.4323 169.773 21.652C170.172 20.8717 170.69 20.1623 171.299 19.5644C171.907 18.9665 172.594 18.4919 173.319 18.1675C174.045 17.8431 174.795 17.6754 175.527 17.6738C176.259 17.6723 176.959 17.8371 177.586 18.1587C178.214 18.4802 178.756 18.9524 179.184 19.5481C179.611 20.1438 179.914 20.8515 180.075 21.6307C180.237 22.4098 180.254 23.2453 180.126 24.0893C179.998 24.9333 179.727 25.7693 179.328 26.5497C178.929 27.33 178.411 28.0394 177.803 28.6372C177.194 29.2351 176.508 29.7098 175.782 30.0342C175.057 30.3586 174.307 30.5263 173.574 30.5278C172.842 30.5293 172.143 30.3646 171.515 30.043ZM172.396 28.437C173.158 28.8209 174.117 28.7351 175.061 28.1984C176.006 27.6617 176.859 26.7181 177.433 25.5751C178.007 24.4322 178.255 23.1835 178.121 22.1039C177.988 21.0242 177.486 20.202 176.723 19.8181C175.961 19.4341 175.003 19.52 174.058 20.0567C173.113 20.5934 172.26 21.537 171.686 22.6799C171.112 23.8229 170.865 25.0715 170.998 26.1512C171.131 27.2308 171.634 28.0531 172.396 28.437Z" fill="white"/>
<path d="M59.1554 32.8135L65.5703 30.9534C65.8724 30.8644 66.1745 30.8674 66.4766 30.9623C76.1433 33.9171 57.9204 45.941 58.8622 35.1631C58.8859 34.8368 58.7408 34.641 58.4269 34.5757C57.1415 34.2909 56.5462 33.478 56.641 32.1371C56.6588 31.8642 56.5433 31.6684 56.2945 31.5497C53.2292 30.0723 52.8827 26.2097 55.7259 24.1983C57.3785 23.0354 59.1021 21.8932 60.8969 20.7718C61.01 20.7017 61.1409 20.6657 61.2739 20.6681C61.4069 20.6705 61.5365 20.7112 61.647 20.7853C61.7576 20.8595 61.8445 20.9639 61.8974 21.0862C61.9503 21.2085 61.9669 21.3434 61.9453 21.4749L61.7765 22.4984C61.7291 22.7595 61.815 22.9701 62.0341 23.1303C65.9257 25.9961 63.4113 28.9776 60.497 30.9445C60.2601 31.1047 60.0025 31.2056 59.7241 31.2471C59.1021 31.3361 58.729 31.6891 58.6046 32.3062C58.5098 32.7809 58.6934 32.95 59.1554 32.8135ZM61.6202 25.5676C61.3047 24.9952 60.7154 24.6048 59.9818 24.4824C59.2481 24.36 58.4304 24.5155 57.7084 24.9148C56.9863 25.314 56.4192 25.9243 56.1317 26.6114C55.8442 27.2985 55.8599 28.006 56.1753 28.5784C56.4908 29.1508 57.0802 29.5412 57.8138 29.6636C58.5474 29.786 59.3652 29.6305 60.0872 29.2313C60.8092 28.832 61.3764 28.2217 61.6638 27.5346C61.9513 26.8475 61.9356 26.14 61.6202 25.5676ZM60.6836 35.4479L61.5544 37.4771C61.6539 37.7056 61.8396 37.8853 62.071 37.977C62.3025 38.0688 62.5607 38.065 62.7894 37.9666L63.9888 37.4504C65.0073 37.0132 65.9066 36.4125 66.4896 35.7801C67.0725 35.1478 67.2915 34.5354 67.0985 34.0773L66.9653 33.7658C66.7678 33.3093 66.1741 33.0453 65.3145 33.032C64.4549 33.0186 63.3997 33.2569 62.3806 33.6946L61.1812 34.2019C61.0664 34.2504 60.9623 34.3212 60.875 34.4103C60.7877 34.4994 60.7189 34.6049 60.6726 34.7208C60.6264 34.8367 60.6035 34.9607 60.6054 35.0855C60.6073 35.2103 60.6339 35.3335 60.6836 35.4479Z" fill="white"/>
<path d="M184.989 26.2913L180.146 33.8474C179.957 34.1381 179.699 34.2271 179.373 34.1144L178.529 33.8207C178.079 33.6664 177.984 33.3875 178.245 32.9841L184.473 23.2475C184.55 23.1268 184.657 23.0288 184.784 22.9632C184.911 22.8976 185.053 22.8668 185.196 22.8741C185.338 22.8813 185.477 22.9263 185.596 23.0044C185.716 23.0824 185.813 23.1909 185.877 23.3187C186.44 24.4401 187.423 24.9652 188.827 24.894C189.283 24.8702 189.493 25.0868 189.458 25.5437L189.404 26.3002C189.375 26.7096 189.164 26.8609 188.774 26.7541L185.833 25.962C185.477 25.867 185.196 25.9768 184.989 26.2913Z" fill="white"/>
<path d="M49.7076 32.0124L55.1807 39.2748C55.2859 39.4134 55.3428 39.583 55.3428 39.7581C55.3428 39.9331 55.2859 40.104 55.1807 40.2449C54.4433 41.2506 53.7236 41.0548 53.0306 40.147C50.8923 37.3584 48.7599 34.5371 46.6334 31.6831C46.5344 31.5499 46.4719 31.393 46.4521 31.2281C46.4323 31.0632 46.4559 30.896 46.5206 30.743C46.5853 30.5901 46.6887 30.4568 46.8208 30.3563C46.9528 30.2558 47.1087 30.1916 47.2732 30.1701C48.5467 30.0159 49.3078 29.2594 49.5566 27.9006C49.6513 27.4141 49.912 27.2984 50.3384 27.5535L51.3158 28.132C51.7067 28.3634 51.7571 28.6512 51.4668 28.9953L49.7254 31.069C49.4707 31.3776 49.4648 31.692 49.7076 32.0124Z" fill="white"/>
<path d="M188.951 39.9174C190.568 37.7102 194.122 46.3877 197.339 42.089C199.48 39.2143 193.047 33.2958 197.392 29.629C200.386 27.0925 204.207 31.0619 206.375 33.4293C206.582 33.6547 206.6 33.895 206.428 34.1502L206.046 34.6931C205.833 35.0075 205.584 35.0431 205.299 34.7999L201.088 31.2221C200.804 30.9847 200.481 30.8779 200.12 30.9017C194.007 31.2399 203.86 41.1545 197.374 44.8747C194.327 46.628 190.622 43.0324 188.969 40.9142C188.714 40.5878 188.708 40.2556 188.951 39.9174Z" fill="white"/>
<path d="M48.1225 38.4713C48.6441 39.0435 49.0481 39.7131 49.3114 40.4417C49.5747 41.1703 49.6922 41.9437 49.6571 42.7178C49.622 43.4919 49.4351 44.2515 49.1069 44.9532C48.7788 45.655 48.3158 46.2851 47.7446 46.8076L47.1935 47.3117C46.6222 47.8342 45.9538 48.2389 45.2264 48.5026C44.4991 48.7664 43.7269 48.8841 42.9541 48.8489C42.1814 48.8138 41.4231 48.6265 40.7225 48.2978C40.022 47.9691 39.393 47.5054 38.8713 46.9332L35.0251 42.7138C34.5034 42.1415 34.0994 41.472 33.8361 40.7434C33.5728 40.0148 33.4553 39.2413 33.4904 38.4672C33.5255 37.6931 33.7125 36.9335 34.0406 36.2318C34.3688 35.5301 34.8317 34.9 35.4029 34.3775L35.9541 33.8734C36.5253 33.3509 37.1937 32.9462 37.9211 32.6824C38.6485 32.4187 39.4206 32.301 40.1934 32.3362C40.9662 32.3713 41.7245 32.5586 42.425 32.8873C43.1255 33.216 43.7546 33.6797 44.2762 34.2519L48.1225 38.4713ZM42.4987 35.705C41.8067 34.9669 40.8503 34.5343 39.8399 34.5025C38.8295 34.4707 37.8479 34.8423 37.111 35.5355L36.7871 35.84C36.4222 36.1833 36.1284 36.5951 35.9224 37.0521C35.7164 37.5091 35.6023 38.0022 35.5866 38.5034C35.5709 39.0045 35.6538 39.5039 35.8308 39.9729C36.0077 40.4419 36.2751 40.8715 36.6178 41.237L40.5955 45.4801C41.2876 46.2182 42.244 46.6507 43.2543 46.6825C44.2647 46.7143 45.2464 46.3428 45.9833 45.6496L46.3071 45.3451C46.672 45.0018 46.9658 44.59 47.1718 44.133C47.3778 43.676 47.4919 43.1829 47.5076 42.6817C47.5234 42.1805 47.4404 41.6812 47.2635 41.2122C47.0865 40.7431 46.8191 40.3136 46.4765 39.9481L42.4987 35.705Z" fill="white"/>
<path d="M206.882 43.5039L201.24 49.0842C200.926 49.3928 200.891 49.7339 201.134 50.1077L202.324 51.9055C202.401 52.0242 202.389 52.134 202.289 52.2348L201.933 52.5997C201.649 52.8786 201.371 52.8727 201.098 52.5819L199.179 50.5171C198.887 50.2041 198.728 49.79 198.735 49.3618C198.741 48.9337 198.913 48.5247 199.214 48.2209L205.496 41.893C205.745 41.6438 205.766 41.3768 205.558 41.092L204.732 39.935C204.625 39.7926 204.572 39.6324 204.572 39.4544V39.1874C204.572 38.7602 204.779 38.6 205.194 38.7068C205.745 38.8611 206.151 39.1934 206.411 39.7036C206.559 39.9884 206.793 40.1101 207.113 40.0685C207.735 39.9855 208.194 39.6206 208.49 38.9738C208.68 38.5585 208.964 38.4784 209.343 38.7335L210.196 39.312C210.593 39.579 210.623 39.8846 210.285 40.2287L208.952 41.5637C208.662 41.8485 208.698 42.0859 209.059 42.2757C210.024 42.786 210.424 43.5633 210.258 44.6075C210.152 45.278 209.838 45.3937 209.317 44.9546L207.566 43.4772C207.329 43.2755 207.101 43.2844 206.882 43.5039Z" fill="white"/>
<path d="M37.2312 56.8906L24.6667 46.8074C24.3719 46.5707 23.9413 46.6184 23.7051 46.9137L23.2606 47.4694C23.0244 47.7648 23.0719 48.1961 23.3668 48.4327L35.9313 58.5159C36.2262 58.7525 36.6567 58.7049 36.893 58.4095L37.3374 57.8539C37.5736 57.5585 37.5261 57.1272 37.2312 56.8906Z" fill="white"/>
<path d="M213.102 54.1832C217.136 52.9461 212.818 49.039 211.654 47.8108C211.593 47.7478 211.547 47.6715 211.521 47.5878C211.494 47.5042 211.487 47.4152 211.5 47.3278C211.512 47.2403 211.545 47.1566 211.595 47.083C211.645 47.0094 211.71 46.9479 211.787 46.903C213.378 45.9685 218.957 51.7891 215.377 55.1177C213.215 57.1291 210.931 59.004 208.526 60.7425C208.159 61.0036 207.902 60.9205 207.753 60.4933L207.3 59.1761C207.206 58.9032 207.037 58.6925 206.794 58.5442C204.599 57.1558 202.591 54.9664 204.413 52.3676C207.203 48.3804 210.223 51.3085 212.329 53.9518C212.531 54.201 212.788 54.2781 213.102 54.1832ZM209.139 52.6191C208.902 52.3594 208.572 52.2045 208.221 52.1886C207.87 52.1726 207.528 52.2969 207.268 52.534L205.996 53.6983C205.736 53.9355 205.582 54.2661 205.566 54.6174C205.55 54.9688 205.674 55.3121 205.911 55.5718L207.612 57.4383C207.849 57.698 208.179 57.8529 208.53 57.8688C208.88 57.8848 209.223 57.7605 209.482 57.5234L210.755 56.3591C211.015 56.1219 211.169 55.7913 211.185 55.44C211.201 55.0886 211.077 54.7453 210.84 54.4856L209.139 52.6191Z" fill="white"/>
<path d="M98.2766 76.727L86.1576 72.4995C85.9593 72.4312 85.7456 72.4226 85.5433 72.4749C85.341 72.5271 85.1591 72.6379 85.0203 72.7932C82.3608 75.7658 79.8523 78.9313 77.4948 82.2895C76.8077 83.2685 75.8718 83.408 74.6872 82.7078C74.3377 82.5061 74.2844 82.245 74.5273 81.9246L82.4881 71.1912C82.6421 70.9836 82.6066 70.8145 82.3815 70.6839L75.1936 66.5543C74.9271 66.4001 74.6724 66.4149 74.4295 66.5988C68.9031 70.8352 64.1083 75.751 60.0449 81.3461C59.3075 82.3607 57.9303 83.4198 56.8197 82.5832C56.3399 82.2154 56.2777 81.7882 56.6331 81.3016C89.6938 36.5079 154.331 35.6624 186.815 81.7822C186.986 82.0255 186.936 82.2124 186.663 82.3429C185.349 82.9837 184.312 82.8057 183.554 81.8089C178.714 75.5018 173.766 70.3487 168.707 66.3496C168.435 66.136 168.15 66.1153 167.854 66.2873L160.782 70.3457C160.497 70.5119 160.456 70.7255 160.657 70.9865L168.547 81.3194C168.932 81.8297 168.852 82.245 168.307 82.5654C167.161 83.2329 165.9 82.4586 165.162 81.4262C162.917 78.2578 160.492 75.2022 157.885 72.2592C157.823 72.1887 157.741 72.1391 157.649 72.1168C157.557 72.0946 157.459 72.1008 157.37 72.1346L144.514 76.7359C144.457 76.7564 144.406 76.7882 144.363 76.8294C144.319 76.8706 144.285 76.9203 144.262 76.9754C144.238 77.0305 144.227 77.0898 144.227 77.1497C144.228 77.2096 144.24 77.2686 144.265 77.3233L146.353 81.8801C146.602 82.4201 146.427 82.69 145.829 82.69H144.38C143.978 82.69 143.684 82.5091 143.501 82.1471L141.324 77.9018C141.182 77.6289 140.96 77.5251 140.658 77.5903C135.054 78.777 129.389 79.4919 123.661 79.7352C123.216 79.753 123.009 79.9844 123.039 80.4294L123.128 81.9691C123.151 82.3548 122.971 82.5476 122.586 82.5476H120.729C120.356 82.5476 120.169 82.3607 120.169 81.9869V80.2781C120.169 79.8984 119.976 79.6996 119.591 79.6818C113.733 79.4564 107.929 78.7711 102.177 77.6259C101.893 77.5666 101.688 77.6674 101.564 77.9285L99.4583 82.2361C99.2924 82.5743 99.02 82.7464 98.6409 82.7523L96.8728 82.779C96.5233 82.785 96.4167 82.6248 96.5529 82.2984L98.6053 77.4746C98.7593 77.1068 98.6498 76.8576 98.2766 76.727ZM137.628 52.0117C126.8 49.7037 115.984 49.7244 105.18 52.074C105.114 52.0899 105.054 52.1251 105.008 52.1749C104.962 52.2247 104.931 52.2868 104.921 52.3532C104.91 52.4196 104.92 52.487 104.949 52.5468C104.978 52.6066 105.024 52.6558 105.082 52.6881C115.946 58.9715 126.83 58.9834 137.734 52.7237C137.804 52.6863 137.859 52.6285 137.895 52.558C137.93 52.4876 137.942 52.4081 137.931 52.3302C137.919 52.2524 137.884 52.18 137.829 52.123C137.775 52.066 137.705 52.0272 137.628 52.0117ZM102.319 54.3079C100.427 52.8216 100.116 53.2666 97.7701 54.0409C90.603 56.4202 83.9334 59.8022 77.7614 64.1869C77.7108 64.2234 77.67 64.2721 77.6431 64.3284C77.6161 64.3846 77.6038 64.4466 77.6074 64.5082C77.6109 64.5699 77.6302 64.6292 77.6634 64.6804C77.6966 64.7317 77.7426 64.7732 77.7969 64.801L84.4695 68.4144C84.813 68.5924 85.124 68.5479 85.4024 68.2809C90.5675 63.3266 96.1916 58.9597 102.275 55.1801C102.707 54.9072 102.722 54.6165 102.319 54.3079ZM165.02 63.7864C161.804 61.5792 143.083 50.5076 140.586 54.3346C140.403 54.6135 140.456 54.839 140.746 55.011C146.883 58.7134 152.543 63.0507 157.725 68.0228C157.992 68.278 158.285 68.3165 158.605 68.1385L164.975 64.6497C165.051 64.6082 165.116 64.5479 165.162 64.4745C165.208 64.4011 165.234 64.3171 165.239 64.2305C165.243 64.1439 165.225 64.0577 165.187 63.9799C165.149 63.9022 165.091 63.8355 165.02 63.7864ZM154.793 69.4379C149.676 64.2878 143.898 60.0306 137.459 56.6664C137.181 56.524 136.896 56.5211 136.606 56.6575L133.088 58.3218C132.821 58.4464 132.771 58.6333 132.937 58.8825L142.754 73.7099C142.962 74.0244 143.243 74.1164 143.598 73.9858L154.651 70.0609C154.711 70.0409 154.764 70.0058 154.807 69.9589C154.849 69.912 154.878 69.8548 154.893 69.7926C154.907 69.7305 154.905 69.6654 154.888 69.6033C154.87 69.5413 154.838 69.4844 154.793 69.4379ZM109.96 58.2684L106.388 56.8978C106.015 56.7554 105.654 56.7821 105.305 56.9779C99.0851 60.4252 93.4254 64.626 88.3255 69.5803C87.976 69.9126 88.0293 70.1588 88.4854 70.319L99.4938 74.1282C99.6137 74.1712 99.7446 74.1727 99.8654 74.1324C99.9862 74.092 100.09 74.0122 100.16 73.9057L110.102 58.7223C110.245 58.5087 110.197 58.3574 109.96 58.2684ZM119.432 60.173L114.092 59.5144C113.772 59.4729 113.511 59.5767 113.31 59.8259C109.614 64.3115 106.386 69.1175 103.625 74.2439C103.412 74.6474 103.525 74.8966 103.963 74.9915C109.051 76.1129 114.192 76.727 119.387 76.8338C119.819 76.8457 120.036 76.6351 120.036 76.2019L120.071 60.9028C120.071 60.4697 119.858 60.2264 119.432 60.173ZM123.154 60.796L123.074 76.2286C123.068 76.6262 123.267 76.819 123.67 76.8071C128.817 76.6588 133.905 76.0269 138.934 74.9114C139.011 74.8948 139.083 74.8604 139.144 74.8109C139.206 74.7615 139.255 74.6985 139.287 74.6268C139.32 74.555 139.336 74.4767 139.333 74.3979C139.33 74.319 139.309 74.242 139.271 74.1727C136.529 69.1412 133.333 64.4154 129.685 59.995C129.483 59.7458 129.226 59.6361 128.912 59.6657L123.723 60.1641C123.344 60.1997 123.154 60.4104 123.154 60.796Z" fill="white"/>
<path d="M26.6398 58.0464C23.7433 55.7146 22.1618 59.6306 21.1489 61.4729C21.1072 61.5504 21.0498 61.6184 20.9802 61.6726C20.9106 61.7268 20.8303 61.7659 20.7445 61.7877C20.6586 61.8094 20.5689 61.8132 20.481 61.7988C20.3932 61.7845 20.309 61.7523 20.2338 61.7043C18.8744 60.8232 22.3573 53.3116 27.315 56.2041C29.7554 57.6221 32.0596 59.2241 34.2275 61.0101C34.5059 61.2355 34.5059 61.461 34.2275 61.6865C32.1662 63.3508 32.184 65.6292 30.6469 66.9019C28.5412 68.6641 25.0583 66.7417 24.6229 64.1696C24.3297 62.3896 26.0179 60.4939 26.8175 58.8652C26.9774 58.5448 26.9182 58.2718 26.6398 58.0464ZM27.6971 60.2269L26.08 63.1283C26.0139 63.2468 25.9718 63.3773 25.9561 63.5122C25.9404 63.6472 25.9515 63.7838 25.9886 63.9145C26.0258 64.0451 26.0883 64.1671 26.1726 64.2735C26.2569 64.3799 26.3613 64.4686 26.4799 64.5345L27.5105 65.1041C28.0574 65.4103 28.7006 65.4914 29.2988 65.3295C29.8969 65.1677 30.401 64.776 30.7002 64.2408L31.0645 63.5644C31.3609 63.0285 31.4282 62.3941 31.2516 61.8002C31.0751 61.2062 30.6691 60.7013 30.1227 60.396L29.1009 59.8264C28.9825 59.7601 28.8523 59.7179 28.7176 59.7022C28.5829 59.6865 28.4464 59.6976 28.316 59.7348C28.1856 59.772 28.0638 59.8346 27.9576 59.919C27.8514 60.0035 27.7629 60.1081 27.6971 60.2269Z" fill="white"/>
<path d="M221.465 58.5703C229.284 63.7501 219.555 68.4226 215.468 70.879C215.13 71.0807 214.863 71.0095 214.668 70.6654L214.224 69.8733C214.082 69.6181 214.132 69.4075 214.375 69.2414C217.271 67.1944 226.805 62.8868 219.795 59.4247C219.498 59.2823 219.211 59.3001 218.933 59.4781L211.372 64.382C211.016 64.6134 210.738 64.5422 210.537 64.1684L210.066 63.2962C209.929 63.041 209.983 62.8334 210.226 62.6732L220.026 56.2652C220.464 55.9804 220.73 56.0961 220.825 56.6123L221.083 57.9829C221.13 58.2321 221.258 58.4279 221.465 58.5703Z" fill="white"/>
<path d="M16.1207 72.7219L24.3836 77.2075C24.5909 77.3203 24.6472 77.4864 24.5524 77.7059L24.126 78.6849C23.972 79.0469 23.7232 79.1359 23.3796 78.9519L12.9488 73.4339C12.6289 73.2619 12.5786 73.0305 12.7977 72.7397C13.6803 71.5531 14.3644 70.3071 14.8501 69.0017C17.1957 62.656 23.7883 67.9426 27.9109 70.4613C28.1775 70.6215 28.2456 70.844 28.1153 71.1288C27.209 73.1224 20.5009 68.6991 19.1504 68.0227C18.8133 67.8553 18.4299 67.8056 18.0613 67.8813C17.6926 67.9571 17.3599 68.1541 17.1158 68.441C16.2451 69.4734 15.789 70.6838 15.7475 72.0722C15.7416 72.363 15.866 72.5795 16.1207 72.7219Z" fill="white"/>
<path d="M231.259 74.1462L234.67 72.4641C235.055 72.2742 235.31 72.384 235.434 72.7934L235.719 73.6923C235.808 73.9889 235.716 74.2055 235.443 74.342L221.414 81.3819C221.211 81.4831 220.978 81.5082 220.757 81.4528C220.535 81.3974 220.34 81.265 220.206 81.0793C215.861 75.0451 217.025 71.8322 223.778 69.3224C227.927 67.7827 229.268 70.6307 230.592 73.8881C230.723 74.2144 230.945 74.3004 231.259 74.1462ZM227.574 71.5698C227.477 71.3808 227.343 71.2128 227.181 71.0755C227.019 70.9382 226.831 70.8342 226.629 70.7696C226.427 70.7049 226.214 70.6808 226.002 70.6986C225.791 70.7164 225.585 70.7758 225.396 70.8734L220.043 73.6409C219.854 73.7385 219.686 73.8723 219.549 74.0348C219.412 74.1973 219.309 74.3852 219.244 74.5879C219.179 74.7905 219.155 75.0039 219.173 75.2159C219.191 75.4279 219.25 75.6343 219.348 75.8233L220.407 77.8795C220.504 78.0686 220.638 78.2365 220.8 78.3738C220.962 78.5111 221.15 78.6151 221.352 78.6797C221.555 78.7444 221.768 78.7685 221.979 78.7507C222.191 78.7329 222.397 78.6735 222.586 78.576L227.939 75.8084C228.127 75.7108 228.295 75.577 228.432 75.4145C228.569 75.252 228.673 75.0641 228.738 74.8615C228.802 74.6588 228.826 74.4454 228.808 74.2334C228.791 74.0215 228.731 73.8151 228.634 73.626L227.574 71.5698Z" fill="white"/>
<path d="M21.1875 86.0525C20.6661 87.3715 19.5142 88.3779 17.9852 88.8504C16.4562 89.3229 14.6753 89.2227 13.0343 88.5718C12.2218 88.2496 11.468 87.8018 10.8161 87.2542C10.1642 86.7065 9.62686 86.0696 9.23484 85.38C8.84281 84.6903 8.60375 83.9612 8.5313 83.2345C8.45885 82.5078 8.55443 81.7976 8.81258 81.1445C9.33393 79.8255 10.4858 78.8191 12.0148 78.3466C13.5438 77.8742 15.3247 77.9744 16.9657 78.6252C17.7783 78.9475 18.532 79.3952 19.184 79.9429C19.8359 80.4905 20.3732 81.1274 20.7652 81.8171C21.1572 82.5068 21.3963 83.2358 21.4688 83.9625C21.5412 84.6892 21.4456 85.3994 21.1875 86.0525ZM19.3801 85.2052C19.6683 84.5149 19.671 83.7382 19.3876 83.0459C19.1041 82.3537 18.5577 81.8025 17.8686 81.5138L14.4916 80.0987C14.1504 79.9557 13.7844 79.8814 13.4145 79.8802C13.0447 79.8789 12.6782 79.9506 12.3359 80.0912C11.9937 80.2318 11.6825 80.4385 11.4201 80.6996C11.1576 80.9606 10.9491 81.2709 10.8064 81.6127L10.6555 81.974C10.3672 82.6643 10.3646 83.441 10.648 84.1333C10.9315 84.8256 11.4779 85.3767 12.167 85.6655L15.544 87.0806C15.8852 87.2235 16.2512 87.2978 16.6211 87.2991C16.9909 87.3004 17.3574 87.2287 17.6996 87.0881C18.0419 86.9475 18.3531 86.7407 18.6155 86.4797C18.878 86.2186 19.0865 85.9083 19.2292 85.5665L19.3801 85.2052Z" fill="white"/>
<path d="M233.151 86.936C233.427 86.7942 233.641 86.5539 233.749 86.2624C233.858 85.9709 233.854 85.6492 233.737 85.3607L232.085 81.2667C231.96 80.9523 232.046 80.7149 232.343 80.5547L232.707 80.3589C232.979 80.2165 233.204 80.2699 233.382 80.5191C239.539 89.1877 230.725 90.3447 225.128 92.4006C225.013 92.444 224.888 92.4577 224.766 92.4406C224.644 92.4234 224.529 92.376 224.43 92.3025C224.331 92.2291 224.252 92.132 224.2 92.0201C224.148 91.9082 224.125 91.785 224.133 91.6619L224.204 90.2913C224.222 90.0243 224.136 89.8018 223.946 89.6238C217.754 83.7498 229.153 77.4575 230.601 87.4878C230.666 87.9506 230.909 88.0752 231.33 87.8616L233.151 86.936ZM226.763 89.7929L228.851 88.6893C229.086 88.5661 229.263 88.3546 229.343 88.1011C229.423 87.8476 229.399 87.5727 229.277 87.3365L228.202 85.2895C227.961 84.8316 227.573 84.4752 227.123 84.2984C226.673 84.1216 226.199 84.1387 225.803 84.3461L224.924 84.8089C224.527 85.0173 224.243 85.3997 224.133 85.8721C224.023 86.3444 224.097 86.8679 224.337 87.3276L225.403 89.3657C225.464 89.4835 225.548 89.5881 225.649 89.6734C225.751 89.7586 225.868 89.823 225.994 89.8627C226.121 89.9024 226.254 89.9167 226.386 89.9047C226.517 89.8927 226.646 89.8547 226.763 89.7929Z" fill="white"/>
<path d="M2.38685 90.3986C3.18461 90.6068 3.95264 90.309 4.10231 89.7334C4.25197 89.1579 3.72659 88.5225 2.92884 88.3144C2.13108 88.1062 1.36305 88.4041 1.21338 88.9796C1.06372 89.5552 1.5891 90.1905 2.38685 90.3986Z" fill="white"/>
<path d="M126.163 94.5353L125.967 91.7852C125.943 91.4114 126.118 91.2245 126.491 91.2245H140.156C140.452 91.2245 140.6 91.3728 140.6 91.6695V113.884C140.6 114.157 140.464 114.299 140.192 114.311L127.326 114.631C127.06 114.637 126.841 114.54 126.669 114.338C122.221 108.915 116.561 105.815 109.69 105.037C105.301 104.548 103.426 104.076 100.014 105.598C99.6012 105.782 99.2632 106.101 99.0563 106.503C98.8495 106.904 98.7862 107.364 98.877 107.805C99.1317 109.033 100.014 109.87 101.525 110.315C108.402 112.32 115.27 114.356 122.129 116.42C127.679 118.094 131.559 119.731 133.768 121.333C140.032 125.872 143.719 132.894 142.742 140.762C141.365 151.878 132.373 157.894 121.711 159.158C111.973 160.309 102.777 158.449 94.1236 153.578C94.0616 153.544 93.9919 153.527 93.9214 153.528C93.8508 153.529 93.7817 153.549 93.7209 153.585C93.6601 153.62 93.6095 153.671 93.5742 153.733C93.5389 153.794 93.52 153.863 93.5194 153.934L93.5016 157.396C93.4957 157.782 93.3032 157.974 92.9241 157.974H78.7972C78.4655 157.974 78.2996 157.808 78.2996 157.476L78.344 133.784C78.344 133.339 78.5661 133.117 79.0104 133.117L91.4137 133.028C91.6802 133.028 91.8905 133.135 92.0445 133.348C92.9863 134.63 93.7238 136.232 94.8788 137.211C102.318 143.536 110.801 145.322 120.325 142.569C123.87 141.545 120.405 138.644 118.735 138.163C104.187 133.939 94.9795 131.046 91.1116 129.486C75.5986 123.22 72.3112 101.344 88.0552 93.1647C99.6056 87.1661 114.301 88.8571 125.452 94.9892C125.967 95.274 126.204 95.1227 126.163 94.5353Z" fill="white"/>
<path d="M169.436 90.896C183.981 87.3004 208.21 90.3798 214.847 107.085C222.07 125.25 218.925 149.814 197.743 156.854C184.967 161.108 172.883 160.455 161.493 154.896C148.166 148.39 143.901 135.788 144.896 121.734C146.078 105.234 152.99 94.9543 169.436 90.896ZM192.27 114.997C191.675 108.251 186.593 105.803 180.364 106.498C174.571 107.138 171.844 108.696 170.929 114.988C170.011 121.343 169.96 127.721 170.778 134.123C171.906 142.899 184.096 145.133 189.782 139.971C193.71 136.411 192.821 121.289 192.27 114.997Z" fill="white"/>
<path d="M17.6087 92.8824L6.92563 89.5903C6.52229 89.466 6.09472 89.6928 5.97064 90.0968L5.80344 90.6412C5.67935 91.0452 5.90574 91.4735 6.30908 91.5978L16.9922 94.89C17.3955 95.0143 17.8231 94.7875 17.9472 94.3835L18.1144 93.8391C18.2385 93.435 18.0121 93.0067 17.6087 92.8824Z" fill="white"/>
<path d="M64.5196 141.822L73.8577 142.009C73.9457 142.011 74.0293 142.048 74.0907 142.111C74.1521 142.174 74.1864 142.259 74.1864 142.347V157.638C74.1864 157.727 74.1508 157.813 74.0875 157.877C74.0242 157.94 73.9383 157.976 73.8488 157.976H30.7837C30.6942 157.976 30.6083 157.94 30.545 157.877C30.4817 157.813 30.4461 157.727 30.4461 157.638L30.375 142.374C30.375 142.286 30.4093 142.201 30.4707 142.138C30.5321 142.075 30.6157 142.038 30.7037 142.036L40.0951 141.751C40.1831 141.749 40.2667 141.712 40.3281 141.649C40.3895 141.586 40.4238 141.501 40.4238 141.413V107.228C40.4238 107.14 40.3895 107.055 40.3281 106.992C40.2667 106.929 40.1831 106.892 40.0951 106.89L30.8192 106.756C30.7312 106.754 30.6476 106.717 30.5862 106.654C30.5248 106.591 30.4905 106.506 30.4905 106.418L30.455 90.4515C30.455 90.3618 30.4905 90.2758 30.5539 90.2123C30.6172 90.1489 30.703 90.1133 30.7926 90.1133H73.8488C73.9383 90.1133 74.0242 90.1489 74.0875 90.2123C74.1508 90.2758 74.1864 90.3618 74.1864 90.4515V106.427C74.1864 106.515 74.1521 106.6 74.0907 106.663C74.0293 106.726 73.9457 106.763 73.8577 106.765L64.5196 106.952C64.4317 106.954 64.348 106.991 64.2866 107.054C64.2252 107.117 64.1909 107.202 64.1909 107.29V141.484C64.1909 141.572 64.2252 141.657 64.2866 141.72C64.348 141.783 64.4317 141.82 64.5196 141.822Z" fill="white"/>
<path d="M237.892 94.5893L239.074 96.1468C239.388 96.5621 239.323 96.9003 238.878 97.1614L238.496 97.3839C238.392 97.4463 238.275 97.4848 238.154 97.4967C238.033 97.5087 237.911 97.4937 237.796 97.4529C237.682 97.4121 237.578 97.3465 237.491 97.2607C237.405 97.1749 237.338 97.0711 237.297 96.9567C236.633 95.153 235.73 94.3905 234.587 94.6694C231.85 95.3458 229.126 96.0697 226.413 96.841C226.093 96.93 225.862 96.8262 225.72 96.5295L225.302 95.6573C225.107 95.2538 225.225 94.9928 225.658 94.8741L237.11 91.6879C237.572 91.5574 237.794 91.7354 237.777 92.2219L237.706 94.0019C237.694 94.2214 237.756 94.4172 237.892 94.5893Z" fill="white"/>
<path d="M3.3306 98.8789L1.58916 98.514C1.2693 98.4428 1.10938 98.244 1.10938 97.9177V96.8497C1.10938 96.4403 1.3078 96.2801 1.70466 96.3691L3.52607 96.7874C3.88146 96.8645 4.0947 96.7221 4.16578 96.3602L4.46786 94.7582C4.5271 94.4437 4.71072 94.2657 5.01873 94.2242C7.06225 93.9216 6.00495 95.9241 5.81837 96.8408C5.74137 97.2086 5.88649 97.4311 6.25373 97.5083L14.4278 99.3506C14.8661 99.4455 15.1268 99.2764 15.2097 98.8433L15.574 96.9921C15.651 96.6183 15.8731 96.4789 16.2403 96.5738C18.2483 97.09 16.2226 100.712 15.4407 101.291C15.1327 101.522 14.7891 101.593 14.4101 101.504L5.78283 99.4663C5.69768 99.4468 5.60941 99.4452 5.52377 99.4616C5.43814 99.4781 5.35705 99.5122 5.28581 99.5617C5.21456 99.6112 5.15474 99.6751 5.11026 99.7491C5.06577 99.8232 5.03761 99.9057 5.02761 99.9914C4.93284 100.733 4.58337 101.309 3.9792 101.718C3.64157 101.949 3.39575 101.872 3.24175 101.487C2.98705 100.852 3.09959 100.205 3.57938 99.5464C3.84 99.1904 3.75707 98.9679 3.3306 98.8789Z" fill="white"/>
<path d="M241.315 106.373C242.976 106.257 245.615 104.388 245.686 107.281C245.688 107.38 245.654 107.477 245.591 107.555C245.528 107.633 245.439 107.687 245.34 107.708L229.658 110.645C229.326 110.704 229.083 110.583 228.929 110.28C227.827 108.013 227.454 105.613 227.81 103.08C227.857 102.754 228.005 102.481 228.254 102.261C230.286 100.481 232.836 99.6445 235.904 99.7513C240.053 99.8937 240.346 102.528 240.782 105.928C240.823 106.248 241.001 106.397 241.315 106.373ZM230.946 108.429L238.409 106.951C238.532 106.927 238.648 106.878 238.752 106.809C238.856 106.739 238.945 106.65 239.015 106.546C239.084 106.441 239.132 106.325 239.156 106.202C239.181 106.079 239.18 105.953 239.156 105.83L238.809 104.103C238.648 103.286 238.142 102.572 237.402 102.118C236.662 101.664 235.749 101.508 234.864 101.683L232.217 102.208C231.333 102.384 230.549 102.876 230.038 103.577C229.527 104.277 229.329 105.129 229.489 105.946L229.827 107.681C229.851 107.804 229.899 107.921 229.969 108.025C230.038 108.129 230.128 108.218 230.232 108.287C230.336 108.357 230.452 108.405 230.575 108.429C230.697 108.454 230.824 108.453 230.946 108.429Z" fill="white"/>
<path d="M6.63159 106.328L4.4459 106.408C4.06089 106.42 3.83581 106.618 3.77065 107.004L3.00655 111.792C2.97101 112.041 2.83478 112.202 2.59785 112.273L2.30464 112.371C1.92555 112.489 1.70936 112.35 1.65605 111.952C0.243349 101.326 8.72842 104.201 14.7524 105.562C15.2736 105.681 15.3862 105.963 15.09 106.408L14.3881 107.431C14.2637 107.621 14.2163 107.829 14.2459 108.054C14.4414 109.425 14.5273 110.345 14.5036 110.813C14.2992 114.258 10.4254 115.37 8.09759 113.35C6.24065 111.748 6.94256 109.015 7.11137 106.835C7.13506 106.485 6.97513 106.316 6.63159 106.328ZM12.9079 108.415C12.9187 108.216 12.8901 108.016 12.8238 107.827C12.7576 107.639 12.6549 107.465 12.5216 107.316C12.3884 107.168 12.2272 107.047 12.0473 106.96C11.8673 106.874 11.6722 106.824 11.473 106.813L10.1244 106.74C9.92518 106.729 9.72577 106.758 9.53757 106.824C9.34937 106.891 9.17607 106.993 9.02756 107.127C8.87906 107.26 8.75825 107.422 8.67204 107.602C8.58583 107.782 8.53591 107.978 8.52513 108.177L8.40501 110.399C8.39422 110.599 8.42277 110.798 8.48904 110.987C8.55531 111.175 8.658 111.349 8.79124 111.498C8.92449 111.647 9.08567 111.768 9.26561 111.854C9.44554 111.94 9.64069 111.99 9.83992 112.001L11.1885 112.074C11.3877 112.085 11.5871 112.056 11.7753 111.99C11.9635 111.924 12.1368 111.821 12.2853 111.687C12.4338 111.554 12.5546 111.392 12.6408 111.212C12.727 111.032 12.777 110.836 12.7877 110.637L12.9079 108.415Z" fill="white"/>
<path d="M245.884 111.825L244.394 111.924C243.978 111.952 243.663 112.313 243.691 112.729L243.737 113.422C243.764 113.839 244.124 114.155 244.54 114.127L246.03 114.028C246.446 114 246.761 113.64 246.733 113.223L246.687 112.53C246.66 112.113 246.3 111.798 245.884 111.825Z" fill="white"/>
<path d="M240.914 112.326L229.661 113.551C229.266 113.594 228.98 113.95 229.023 114.346L229.086 114.93C229.129 115.325 229.484 115.611 229.88 115.568L241.133 114.344C241.528 114.301 241.813 113.945 241.77 113.549L241.707 112.965C241.664 112.57 241.309 112.283 240.914 112.326Z" fill="white"/>
<path d="M3.35645 124.067L12.65 124.423C13.118 124.435 13.3223 124.675 13.2631 125.144L13.1565 126.007C13.0973 126.476 12.8337 126.698 12.3657 126.674L0.90422 126.14C0.548824 126.123 0.356318 125.936 0.326702 125.58C0.279316 124.951 0.495515 124.372 0.975299 123.844C1.15892 123.642 1.20334 123.414 1.10857 123.159L0.531054 121.673C0.448129 121.447 0.406666 121.216 0.406666 120.978C0.504399 114.526 9.13163 116.68 12.961 116.884C13.3401 116.902 13.5297 117.101 13.5297 117.481V118.38C13.5297 118.712 13.3668 118.872 13.041 118.86L3.88066 118.531C3.67515 118.524 3.47051 118.561 3.28004 118.639C3.08957 118.717 2.91752 118.834 2.77507 118.984C2.63263 119.133 2.52297 119.311 2.45322 119.506C2.38347 119.701 2.3552 119.908 2.37023 120.115L2.62789 123.364C2.66343 123.821 2.90628 124.055 3.35645 124.067Z" fill="white"/>
<path d="M231.181 120.693L231.501 126.452C231.525 126.849 231.335 127.048 230.933 127.048H230.284C229.958 127.048 229.789 126.885 229.778 126.558L229.618 119.643C229.61 119.332 229.69 119.025 229.849 118.757C230.008 118.49 230.239 118.272 230.515 118.13C230.791 117.988 231.102 117.927 231.412 117.953C231.722 117.98 232.017 118.094 232.265 118.281L239.746 123.879C239.822 123.936 239.912 123.97 240.005 123.978C240.099 123.986 240.193 123.968 240.277 123.925C240.361 123.883 240.431 123.817 240.481 123.737C240.53 123.657 240.555 123.564 240.555 123.47V118.709C240.555 118.335 240.742 118.148 241.115 118.148H241.595C241.991 118.148 242.196 118.344 242.208 118.735L242.483 125.33C242.496 125.617 242.427 125.9 242.284 126.149C242.142 126.397 241.931 126.6 241.677 126.733C241.423 126.866 241.136 126.925 240.849 126.902C240.562 126.879 240.288 126.775 240.057 126.603L231.794 120.364C231.736 120.319 231.666 120.293 231.593 120.287C231.52 120.281 231.447 120.296 231.382 120.331C231.317 120.366 231.264 120.418 231.229 120.483C231.193 120.547 231.177 120.62 231.181 120.693Z" fill="white"/>
<path d="M3.71495 132.512L12.8397 131.872C13.2188 131.842 13.4202 132.017 13.4439 132.397L13.515 133.536C13.5387 133.969 13.3343 134.194 12.9019 134.212L1.11168 134.666C1.00545 134.669 0.900662 134.641 0.809962 134.586C0.719262 134.53 0.646518 134.449 0.6005 134.354C0.554483 134.258 0.537156 134.15 0.550609 134.045C0.564061 133.939 0.60772 133.84 0.67632 133.758C1.42265 132.874 1.44042 132.008 0.729629 131.16C0.540085 130.934 0.445312 130.673 0.445312 130.376V129.558C0.445312 129.273 0.575624 129.065 0.836248 128.935C1.0791 128.816 1.29826 128.777 1.49373 128.819C1.77805 128.872 1.96167 129.038 2.04459 129.317L2.84423 131.907C2.98047 132.34 3.27071 132.542 3.71495 132.512Z" fill="white"/>
<path d="M237.168 136.507C241.344 137.664 240.535 133.277 240.562 130.954C240.568 130.681 240.698 130.503 240.953 130.42C242.952 129.743 242.161 134.692 242.037 135.502C241.237 140.503 232.823 138.358 229.385 138.136C228.846 138.106 228.709 137.854 228.976 137.379L229.802 135.884C229.933 135.659 229.95 135.421 229.856 135.172C227.092 128.017 237.985 125.32 236.83 136.009C236.801 136.276 236.913 136.442 237.168 136.507ZM235.288 132.209C235.26 131.882 235.104 131.579 234.853 131.368C234.603 131.157 234.279 131.054 233.952 131.082L232.146 131.237C231.82 131.265 231.518 131.422 231.307 131.672C231.096 131.923 230.993 132.248 231.021 132.575L231.264 135.413C231.292 135.739 231.449 136.042 231.699 136.253C231.95 136.465 232.274 136.567 232.6 136.539L234.406 136.384C234.733 136.356 235.034 136.2 235.245 135.949C235.456 135.698 235.559 135.373 235.531 135.046L235.288 132.209Z" fill="white"/>
<path d="M9.65936 144.83C14.2706 144.696 12.2271 139.81 11.9339 137.193C11.8865 136.778 12.0701 136.591 12.4848 136.633L12.9645 136.686C13.2962 136.716 13.5213 136.888 13.6398 137.202C14.9903 140.682 15.55 145.987 10.6278 146.957C7.76688 147.517 4.47058 148.416 2.67584 145.595C-0.371681 140.833 2.40041 138.181 6.80731 136.962C6.94572 136.923 7.09089 136.913 7.23333 136.935C7.37576 136.956 7.51225 137.007 7.63387 137.085C7.75548 137.164 7.85948 137.267 7.93905 137.388C8.01862 137.509 8.07197 137.646 8.09562 137.79L9.13515 144.402C9.18254 144.699 9.35728 144.841 9.65936 144.83ZM6.17648 139.57C2.00059 139.24 2.818 146.538 7.09163 145.088C7.3641 144.999 7.47664 144.815 7.42925 144.536L6.62961 139.979C6.58815 139.724 6.43711 139.587 6.17648 139.57Z" fill="white"/>
<path d="M238.606 145.4L230.441 144.234C230.02 144.175 229.766 144.356 229.677 144.777L229.383 146.246C229.33 146.524 229.182 146.735 228.939 146.877L228.699 147.02C228.285 147.263 228.036 147.147 227.953 146.673C227.657 145.071 228.009 143.662 229.01 142.445C229.265 142.131 229.591 142.003 229.988 142.063L239.095 143.406C239.492 143.466 239.672 143.294 239.637 142.89C239.56 141.893 239.933 141.208 240.756 140.834C241.301 140.585 241.547 140.76 241.494 141.359L241.316 143.131C241.286 143.445 241.422 143.644 241.725 143.727L243.173 144.127C243.505 144.222 243.67 144.442 243.67 144.786V145.703C243.67 146.142 243.457 146.314 243.031 146.219L241.343 145.863C240.946 145.774 240.724 145.931 240.676 146.335L240.472 148.097C240.436 148.376 240.279 148.533 240.001 148.568L239.335 148.657C238.873 148.717 238.674 148.515 238.739 148.052L239.05 145.996C239.104 145.646 238.955 145.448 238.606 145.4Z" fill="white"/>
<path d="M5.81381 152.804L13.7214 150.953C14.0649 150.876 14.2308 150.662 14.2189 150.312C14.21 149.609 13.3393 147.073 14.983 147.562C15.2673 147.645 15.4687 147.826 15.5872 148.105C16.1144 149.405 16.1766 150.728 15.7738 152.075C15.6612 152.431 15.4243 152.656 15.063 152.751L6.24917 155.038C6.15513 155.062 6.06792 155.108 5.99434 155.171C5.92076 155.235 5.8628 155.315 5.82497 155.404C5.78714 155.494 5.77046 155.591 5.77623 155.688C5.782 155.785 5.81007 155.879 5.85824 155.964C6.19587 156.545 6.18106 157.103 5.81381 157.637C5.58873 157.957 5.31034 158.017 4.97863 157.815C4.39223 157.453 4.13161 156.937 4.19676 156.266C4.20687 156.159 4.18992 156.05 4.14745 155.95C4.10498 155.851 4.03834 155.764 3.95359 155.696C3.86884 155.629 3.76867 155.584 3.66217 155.566C3.55568 155.547 3.44624 155.555 3.34381 155.59L2.04662 156.035C1.59645 156.195 1.33583 156.038 1.26475 155.563L1.10482 154.469C1.05151 154.136 1.19071 153.935 1.52241 153.863L3.08615 153.534C3.4297 153.457 3.56001 153.246 3.47709 152.902L3.03284 151.06C2.92622 150.633 3.08911 150.378 3.52151 150.295L4.08126 150.179C4.53143 150.09 4.79798 150.271 4.8809 150.722L5.20076 152.404C5.26591 152.754 5.47027 152.887 5.81381 152.804Z" fill="white"/>
<path d="M239.191 151.421L227.897 148.913C227.643 148.856 227.392 149.017 227.336 149.271L227.093 150.366C227.037 150.62 227.197 150.872 227.451 150.928L238.745 153.437C238.999 153.493 239.25 153.332 239.307 153.078L239.549 151.983C239.605 151.729 239.445 151.477 239.191 151.421Z" fill="white"/>
<path d="M242.545 154.427C243.35 154.697 244.167 154.424 244.369 153.818C244.572 153.212 244.083 152.503 243.278 152.233C242.473 151.963 241.656 152.235 241.454 152.841C241.251 153.447 241.74 154.157 242.545 154.427Z" fill="white"/>
<path d="M237.128 162.105C236.956 162.7 236.67 163.256 236.284 163.74C235.898 164.224 235.421 164.627 234.879 164.926C234.338 165.226 233.743 165.415 233.129 165.485C232.514 165.554 231.892 165.501 231.298 165.329L227.934 164.356C227.34 164.185 226.786 163.897 226.302 163.511C225.819 163.124 225.417 162.646 225.118 162.104C224.819 161.562 224.63 160.966 224.561 160.35C224.492 159.735 224.544 159.111 224.716 158.516L224.918 157.815C225.089 157.22 225.376 156.665 225.762 156.18C226.148 155.696 226.625 155.293 227.166 154.994C227.708 154.694 228.303 154.505 228.917 154.436C229.532 154.367 230.154 154.419 230.748 154.591L234.112 155.564C234.706 155.736 235.26 156.023 235.744 156.409C236.227 156.796 236.629 157.274 236.928 157.816C237.227 158.358 237.416 158.954 237.485 159.57C237.554 160.186 237.501 160.809 237.33 161.404L237.128 162.105ZM235.63 161.396C235.758 160.99 235.764 160.549 235.649 160.099C235.533 159.649 235.297 159.199 234.955 158.775C234.613 158.35 234.171 157.96 233.654 157.625C233.138 157.291 232.557 157.02 231.945 156.826C230.709 156.436 229.421 156.388 228.364 156.693C227.307 156.998 226.568 157.631 226.309 158.453C226.181 158.859 226.175 159.3 226.291 159.75C226.407 160.2 226.642 160.65 226.985 161.074C227.327 161.499 227.769 161.889 228.285 162.224C228.802 162.558 229.382 162.829 229.994 163.023C231.23 163.413 232.519 163.461 233.576 163.156C234.632 162.851 235.372 162.218 235.63 161.396Z" fill="white"/>
<path d="M8.01296 162.532C8.10181 164.092 8.73263 165.392 9.90544 166.43C10.1305 166.632 10.3823 166.682 10.6607 166.581L19.1191 163.635C19.4863 163.505 19.7558 163.618 19.9276 163.974L20.3452 164.855C20.4992 165.181 20.4074 165.404 20.0698 165.522L9.06138 169.269C8.7356 169.376 8.46313 169.296 8.24397 169.029C7.87672 168.572 7.85007 168.05 8.164 167.462C8.31801 167.166 8.27654 166.902 8.03961 166.67C6.20933 164.908 5.24087 161.606 7.58648 159.764C8.84222 158.773 11.9342 157.661 16.8623 156.426C17.1881 156.343 17.4102 156.459 17.5287 156.774L17.7686 157.405C17.9285 157.839 17.7923 158.132 17.3599 158.287L8.83037 161.295C8.57893 161.385 8.36337 161.554 8.216 161.777C8.06863 162 7.99739 162.265 8.01296 162.532Z" fill="white"/>
<path d="M220.121 172.294C222.804 173.425 232.133 179.423 231.191 171.369C231.156 171.054 230.993 170.835 230.703 170.71L222.529 167.177C222.138 167.005 222.004 166.714 222.129 166.305L222.378 165.512C222.508 165.103 222.766 164.984 223.151 165.156L233.821 169.847C234.141 169.989 234.209 170.209 234.026 170.505C233.451 171.443 232.903 172.902 232.382 174.884C230.845 180.785 222.422 175.525 219.223 174.163C218.951 174.051 218.868 173.858 218.975 173.585L219.374 172.606C219.517 172.25 219.765 172.146 220.121 172.294Z" fill="white"/>
<path d="M123.948 168.353C129.753 168.685 135.507 169.424 141.211 170.569C141.561 170.64 141.821 170.518 141.993 170.204C142.873 168.602 144.01 163.912 146.72 165.603C146.981 165.763 147.049 165.982 146.924 166.261L144.908 170.738C144.777 171.034 144.866 171.236 145.174 171.343L157.764 175.811C158.025 175.9 158.247 175.843 158.43 175.642C160.96 172.924 163.246 170.026 165.289 166.946C166.24 165.514 167.333 164.837 168.95 165.425C169.376 165.585 169.454 165.846 169.181 166.208L161.247 176.977C161.057 177.232 161.099 177.44 161.371 177.6L168.577 181.72C168.711 181.797 168.865 181.831 169.02 181.818C169.175 181.806 169.324 181.747 169.448 181.649C174.992 177.241 179.831 172.171 183.965 166.439C184.789 165.3 185.796 164.962 186.986 165.425C187.448 165.603 187.537 165.893 187.253 166.297C171.198 189.054 147.093 201.737 119.461 200.775C93.9082 199.876 70.8786 187.247 56.3518 165.887C56.3146 165.832 56.2931 165.768 56.2896 165.702C56.286 165.636 56.3006 165.57 56.3316 165.511C56.3627 165.453 56.4091 165.404 56.4659 165.37C56.5227 165.336 56.5877 165.318 56.6539 165.318H58.8129C59.0794 165.318 59.2868 165.425 59.4348 165.638C63.7114 171.767 68.7758 177.149 74.628 181.783C74.8946 181.99 75.1729 182.011 75.4632 181.845L82.6066 177.778C82.8613 177.635 82.9028 177.445 82.731 177.208L74.6014 166.101C74.2163 165.579 74.3496 165.318 75.0012 165.318H76.7071C76.9914 165.318 77.2194 165.43 77.3912 165.656L85.1921 175.668C85.3064 175.816 85.4639 175.923 85.6425 175.976C85.821 176.029 86.0116 176.024 86.1872 175.962L98.9282 171.432C99.2362 171.325 99.325 171.123 99.1947 170.827L97.3911 166.528C97.3434 166.414 97.3199 166.291 97.3221 166.168C97.3243 166.044 97.3523 165.922 97.4041 165.81C97.4559 165.698 97.5305 165.598 97.6231 165.516C97.7157 165.434 97.8243 165.373 97.942 165.336C100.172 164.641 101.372 168.593 102.233 170.008C102.292 170.104 102.377 170.18 102.477 170.229C102.578 170.278 102.691 170.297 102.802 170.284L120.172 168.166C120.456 168.13 120.598 167.967 120.598 167.676L120.625 165.87C120.631 165.502 120.815 165.318 121.176 165.318H122.695C123.045 165.318 123.228 165.493 123.246 165.843L123.344 167.739C123.362 168.124 123.563 168.329 123.948 168.353ZM119.905 171.485C114.628 171.491 109.421 172.082 104.286 173.257C104.234 173.267 104.185 173.29 104.143 173.324C104.102 173.357 104.069 173.401 104.047 173.45C104.026 173.5 104.016 173.554 104.019 173.608C104.022 173.663 104.037 173.716 104.064 173.764C106.877 178.944 110.129 183.827 113.819 188.413C114.033 188.68 114.308 188.793 114.646 188.751L120.083 188.048C120.439 188.007 120.616 187.805 120.616 187.443V172.197C120.616 171.723 120.379 171.485 119.905 171.485ZM139.799 173.212C134.586 172.073 129.309 171.509 123.966 171.521C123.658 171.521 123.504 171.675 123.504 171.984V187.425C123.504 187.781 123.679 187.986 124.028 188.039L129.252 188.849C129.803 188.938 130.25 188.763 130.594 188.324C134.166 183.767 137.335 178.947 140.101 173.862C140.134 173.801 140.152 173.734 140.154 173.665C140.156 173.596 140.142 173.528 140.112 173.465C140.083 173.402 140.04 173.346 139.985 173.302C139.931 173.259 139.867 173.228 139.799 173.212ZM88.5595 178.766C93.6772 183.969 99.4879 188.238 105.992 191.573C106.24 191.697 106.492 191.706 106.747 191.599L110.434 190.078C110.689 189.971 110.742 189.802 110.594 189.57L100.723 174.325C100.557 174.063 100.329 173.983 100.039 174.084L88.7106 178.089C88.3078 178.232 88.2574 178.457 88.5595 178.766ZM154.974 177.84L144.063 174.093C143.779 173.992 143.557 174.069 143.397 174.325L133.695 189.437C133.529 189.698 133.588 189.894 133.872 190.024L137.124 191.484C137.421 191.614 137.711 191.605 137.995 191.457C144.422 188.128 150.147 183.862 155.17 178.659C155.537 178.279 155.472 178.006 154.974 177.84ZM102.633 193.219C96.4671 189.457 90.7867 185.067 85.592 180.047C85.3313 179.798 85.0441 179.762 84.7301 179.94L78.2264 183.714C78.1753 183.743 78.1324 183.784 78.1018 183.834C78.0711 183.885 78.0536 183.942 78.0509 184C78.0482 184.059 78.0605 184.117 78.0865 184.17C78.1126 184.223 78.1515 184.268 78.1997 184.301C81.2295 186.446 100.35 197.927 102.793 193.869C102.826 193.817 102.848 193.758 102.858 193.697C102.868 193.636 102.865 193.573 102.851 193.513C102.836 193.452 102.809 193.395 102.771 193.345C102.734 193.294 102.687 193.252 102.633 193.219ZM165.556 183.394L159.07 179.825C158.732 179.635 158.427 179.679 158.155 179.958C153.333 184.859 147.94 189.099 141.975 192.676C141.706 192.842 141.505 193.099 141.41 193.401C141.315 193.703 141.331 194.029 141.456 194.32C141.582 194.611 141.807 194.847 142.092 194.985C142.376 195.122 142.701 195.153 143.006 195.07C151.103 192.786 158.638 189.229 165.609 184.399C165.692 184.343 165.759 184.266 165.803 184.177C165.848 184.087 165.868 183.987 165.863 183.886C165.858 183.785 165.827 183.687 165.773 183.601C165.719 183.515 165.644 183.443 165.556 183.394ZM138.679 195.613C127.786 189.532 116.941 189.416 106.143 195.266C105.992 195.346 105.681 195.765 105.556 195.925C105.527 195.964 105.508 196.01 105.501 196.058C105.493 196.107 105.498 196.156 105.515 196.202C105.532 196.248 105.56 196.289 105.597 196.322C105.633 196.354 105.677 196.377 105.725 196.388C116.689 198.719 127.644 198.669 138.59 196.236C138.656 196.221 138.716 196.185 138.762 196.135C138.807 196.085 138.837 196.022 138.846 195.955C138.856 195.888 138.845 195.819 138.815 195.758C138.786 195.697 138.738 195.647 138.679 195.613Z" fill="white"/>
<path d="M21.1362 168.547L6.58915 174.853C6.23788 175.005 6.07635 175.414 6.22836 175.766L6.54593 176.501C6.69794 176.853 7.10592 177.015 7.45719 176.863L22.0042 170.557C22.3555 170.405 22.517 169.996 22.365 169.644L22.0474 168.909C21.8954 168.557 21.4874 168.395 21.1362 168.547Z" fill="white"/>
<path d="M97.9409 232.033C96.928 234.222 92.7699 233.662 91.4194 232.852C90.0215 232.009 89.0945 230.564 88.6384 228.517C87.3412 222.643 91.8458 218.273 97.6033 219.306C105.52 220.73 105.946 235.032 100.002 238.975C97.2242 240.82 94.0404 241.402 90.4509 240.719C90.1311 240.66 89.9711 240.467 89.9711 240.141L89.9445 237.168C89.9445 236.468 90.288 236.18 90.9751 236.305C94.5232 236.963 97.156 235.753 98.8738 232.674C99.0337 232.395 98.9745 232.172 98.6961 232.006L98.474 231.873C98.237 231.73 98.0593 231.784 97.9409 232.033ZM96.1685 229.264C96.7385 229.246 97.2762 228.944 97.6634 228.426C98.0505 227.908 98.2554 227.215 98.233 226.501C98.2219 226.147 98.1553 225.798 98.0371 225.474C97.9188 225.151 97.7512 224.859 97.5438 224.615C97.3363 224.37 97.0932 224.179 96.8282 224.052C96.5632 223.925 96.2816 223.864 95.9994 223.873C95.4294 223.891 94.8917 224.192 94.5045 224.71C94.1173 225.228 93.9124 225.921 93.9349 226.636C93.946 226.99 94.0125 227.339 94.1308 227.662C94.2491 227.986 94.4167 228.278 94.6241 228.522C94.8315 228.766 95.0747 228.957 95.3397 229.084C95.6046 229.212 95.8863 229.273 96.1685 229.264Z" fill="white"/>
<path d="M110.28 220.328C112.963 218.326 118.863 218.717 120.497 222.633C122.248 226.816 123.376 237.292 118.312 239.953C106.344 246.245 103.545 225.366 110.28 220.328ZM114.376 236.5C114.627 236.5 114.875 236.332 115.107 236.006C115.338 235.68 115.549 235.202 115.726 234.599C115.904 233.997 116.045 233.282 116.141 232.494C116.237 231.707 116.286 230.864 116.286 230.012C116.286 229.16 116.237 228.316 116.141 227.529C116.045 226.741 115.904 226.026 115.726 225.424C115.549 224.821 115.338 224.343 115.107 224.017C114.875 223.691 114.627 223.523 114.376 223.523C113.869 223.523 113.383 224.207 113.025 225.424C112.667 226.641 112.465 228.291 112.465 230.012C112.465 231.732 112.667 233.383 113.025 234.599C113.383 235.816 113.869 236.5 114.376 236.5Z" fill="white"/>
<path d="M136.662 220.444C141.806 223.185 141.895 239.232 134.147 240.674C120.527 243.219 121.922 212.576 136.662 220.444ZM132.559 236.428C133.073 236.427 133.564 235.751 133.925 234.549C134.287 233.347 134.488 231.716 134.485 230.017C134.483 229.175 134.432 228.342 134.333 227.565C134.234 226.788 134.091 226.081 133.91 225.487C133.729 224.892 133.514 224.42 133.279 224.099C133.043 223.777 132.791 223.612 132.537 223.612C132.023 223.613 131.532 224.289 131.17 225.492C130.809 226.694 130.608 228.324 130.611 230.024C130.612 230.865 130.664 231.698 130.763 232.476C130.861 233.253 131.005 233.959 131.186 234.554C131.367 235.149 131.581 235.62 131.817 235.942C132.053 236.264 132.305 236.429 132.559 236.428Z" fill="white"/>
<path d="M73.8191 249.889L72.5397 249.883C72.3581 249.882 72.2102 250.028 72.2092 250.21L72.1488 261.762C72.1479 261.944 72.2943 262.092 72.4758 262.093L73.7553 262.1C73.9368 262.101 74.0848 261.954 74.0857 261.772L74.1461 250.22C74.147 250.038 74.0006 249.89 73.8191 249.889Z" fill="white"/>
<path d="M77.6201 251.941C78.1697 251.941 78.6152 251.495 78.6152 250.944C78.6152 250.394 78.1697 249.947 77.6201 249.947C77.0705 249.947 76.625 250.394 76.625 250.944C76.625 251.495 77.0705 251.941 77.6201 251.941Z" fill="white"/>
<path d="M46.9273 262.782L48.8286 264.42C49.1426 264.687 49.1159 264.912 48.7487 265.096C47.2382 265.87 46.1365 264.375 45.0881 263.129C44.8926 262.898 44.6438 262.755 44.3418 262.702C35.5901 261.118 37.3049 248.747 45.6123 250.438C51.0765 251.55 50.4013 259.204 46.9362 262.034C46.6341 262.284 46.6311 262.533 46.9273 262.782ZM43.9672 260.776C44.4347 260.794 44.9021 260.697 45.3426 260.491C45.7831 260.284 46.1881 259.973 46.5345 259.573C46.8809 259.174 47.1619 258.695 47.3615 258.163C47.561 257.632 47.6752 257.058 47.6976 256.475C47.7427 255.298 47.4109 254.155 46.7752 253.297C46.1394 252.439 45.2519 251.937 44.3076 251.901C43.8401 251.883 43.3727 251.98 42.9322 252.186C42.4917 252.392 42.0867 252.704 41.7403 253.104C41.3939 253.503 41.1129 253.982 40.9134 254.514C40.7138 255.045 40.5996 255.619 40.5772 256.201C40.5321 257.378 40.8639 258.522 41.4996 259.379C42.1354 260.237 43.023 260.74 43.9672 260.776Z" fill="white"/>
<path d="M102.841 253.889V261.543C102.841 261.917 102.657 262.104 102.29 262.104H101.615C101.235 262.104 101.049 261.917 101.055 261.543L101.233 251.059C101.238 250.774 101.381 250.611 101.659 250.57L103.178 250.32C103.593 250.255 103.868 250.421 104.005 250.819L106.866 258.98C106.889 259.047 106.933 259.104 106.99 259.145C107.048 259.186 107.116 259.209 107.187 259.209C107.257 259.21 107.326 259.19 107.385 259.15C107.443 259.111 107.488 259.055 107.514 258.989L110.357 251.006C110.47 250.691 110.692 250.534 111.024 250.534H112.721C113.094 250.534 113.28 250.718 113.28 251.086V261.445C113.28 261.79 113.115 262.009 112.783 262.104L112.143 262.282C111.717 262.395 111.503 262.232 111.503 261.793V253.462C111.503 252.614 111.364 252.59 111.086 253.391L108.198 261.704C108.119 261.929 107.972 262.124 107.777 262.262C107.583 262.401 107.35 262.475 107.113 262.475C106.875 262.475 106.644 262.401 106.451 262.262C106.259 262.124 106.115 261.929 106.039 261.704L103.32 253.809C103.3 253.756 103.261 253.712 103.212 253.684C103.162 253.656 103.104 253.646 103.048 253.655C102.992 253.665 102.941 253.693 102.903 253.736C102.865 253.778 102.843 253.832 102.841 253.889Z" fill="white"/>
<path d="M83.2951 255.226V260.014C83.2951 260.394 83.4846 260.607 83.8637 260.655L85.5874 260.859C85.7947 260.883 85.9102 260.996 85.9339 261.197L85.9961 261.607C86.0117 261.725 86.0013 261.846 85.9656 261.96C85.9299 262.074 85.8697 262.178 85.7893 262.267C85.7088 262.355 85.6101 262.424 85.5 262.47C85.3899 262.516 85.2712 262.537 85.152 262.532C80.1232 262.274 81.5981 258.75 81.4914 255.555C81.4796 255.294 81.37 255.086 81.1627 254.932L80.4697 254.407C80.1024 254.128 80.1261 253.891 80.5408 253.695L81.2338 253.365C81.5359 253.217 81.6988 252.977 81.7224 252.645C81.7698 252.075 82.0156 251.615 82.4599 251.265C82.8745 250.939 83.1144 251.04 83.1796 251.568L83.3484 253.036C83.3839 253.297 83.532 253.428 83.7926 253.428H85.3208C85.6644 253.428 85.8776 253.597 85.9605 253.935C86.236 255.128 84.3435 254.745 83.7215 254.772C83.4372 254.789 83.2951 254.941 83.2951 255.226Z" fill="white"/>
<path d="M201.872 255.261L201.996 260.111C202.008 260.52 202.219 260.731 202.627 260.743L204.466 260.796C205.467 260.82 205.559 261.12 204.742 261.695C203.445 262.603 202.115 262.559 200.753 261.562C200.51 261.384 200.379 261.143 200.362 260.841L200.033 255.67C200.021 255.427 199.944 255.21 199.802 255.02L199.544 254.673C199.349 254.418 199.34 254.157 199.518 253.89L201.028 251.612C201.218 251.327 201.422 251.315 201.641 251.576C201.872 251.867 201.961 252.22 201.908 252.635C201.86 252.967 201.993 253.19 202.307 253.303C203.009 253.561 204.191 253.222 204.555 254.032C204.745 254.454 204.609 254.676 204.147 254.7L202.307 254.789C202.005 254.807 201.86 254.964 201.872 255.261Z" fill="white"/>
<path d="M67.5112 256.311C67.8666 254.086 64.4637 254.887 63.3798 255.057C63.0303 255.11 62.8585 254.962 62.8644 254.612C62.8644 254.493 62.8644 254.38 62.8644 254.273C62.8763 254.042 62.9859 253.873 63.1932 253.766C65.213 252.787 67.0996 252.95 68.8529 254.256C69.1076 254.445 69.2438 254.701 69.2616 255.021L69.6259 261.598C69.6555 262.138 69.4126 262.331 68.8973 262.177L67.5468 261.785C67.3099 261.714 67.0818 261.732 66.8626 261.838C65.4055 262.562 63.9632 262.527 62.5357 261.732C62.2455 261.571 62.0974 261.325 62.0915 260.993L62.047 258.697C62.0411 258.335 62.1951 258.056 62.5091 257.86C63.8773 257.029 65.3522 256.665 66.9337 256.765C67.2654 256.789 67.4579 256.638 67.5112 256.311ZM67.5288 258.643C67.4626 258.486 67.3512 258.349 67.2011 258.242C67.051 258.134 66.8651 258.057 66.6541 258.016C66.4431 257.974 66.211 257.968 65.9711 257.999C65.7313 258.029 65.4883 258.096 65.2562 258.194C64.7873 258.392 64.3908 258.709 64.1539 259.073C63.917 259.438 63.8592 259.821 63.993 260.139C64.0593 260.296 64.1707 260.432 64.3207 260.54C64.4708 260.648 64.6567 260.725 64.8677 260.766C65.0788 260.808 65.3109 260.814 65.5507 260.783C65.7906 260.752 66.0335 260.686 66.2657 260.588C66.7345 260.389 67.131 260.073 67.3679 259.708C67.6048 259.344 67.6627 258.96 67.5288 258.643Z" fill="white"/>
<path d="M77.8201 253.278L77.4648 253.275C77.0182 253.272 76.6537 253.632 76.6506 254.079L76.6002 261.306C76.5971 261.753 76.9566 262.118 77.4031 262.122L77.7585 262.124C78.205 262.127 78.5695 261.767 78.5726 261.32L78.623 254.093C78.6261 253.646 78.2667 253.281 77.8201 253.278Z" fill="white"/>
<path d="M121.218 255.901L120.925 255.171C120.783 254.804 120.513 254.64 120.116 254.682L117.131 255.02C116.906 255.05 116.758 254.958 116.687 254.744C116.657 254.655 116.628 254.569 116.598 254.486C116.533 254.272 116.595 254.109 116.785 253.997C118.964 252.727 120.907 252.863 122.613 254.406C122.844 254.614 122.965 254.875 122.977 255.189L123.306 261.775C123.31 261.879 123.286 261.981 123.236 262.072C123.185 262.162 123.111 262.237 123.021 262.288C122.931 262.338 122.828 262.363 122.725 262.359C122.621 262.355 122.521 262.322 122.435 262.265L121.44 261.588C121.239 261.452 121.034 261.452 120.827 261.588C119.24 262.65 117.682 262.638 116.154 261.553C115.858 261.345 115.715 261.063 115.727 260.707L115.781 258.411C115.786 257.936 116.02 257.646 116.482 257.539L120.898 256.498C121.236 256.42 121.342 256.222 121.218 255.901ZM120.401 257.788L117.593 258.892C117.535 258.913 117.483 258.946 117.438 258.989C117.393 259.031 117.358 259.082 117.333 259.138C117.308 259.194 117.295 259.255 117.294 259.317C117.292 259.378 117.304 259.44 117.327 259.497L117.389 259.639C117.58 260.123 117.941 260.516 118.394 260.733C118.847 260.95 119.355 260.973 119.805 260.796L120.072 260.689C120.296 260.601 120.499 260.467 120.669 260.294C120.84 260.12 120.975 259.912 121.067 259.679C121.158 259.447 121.205 259.196 121.203 258.94C121.202 258.684 121.152 258.429 121.058 258.188L120.996 258.046C120.95 257.933 120.863 257.843 120.751 257.795C120.64 257.747 120.514 257.744 120.401 257.788Z" fill="white"/>
<path d="M128.144 253.907C134.239 250.294 133.511 258.669 133.484 261.49C133.484 261.9 133.28 262.104 132.871 262.104H132.054C131.681 262.104 131.494 261.917 131.494 261.544V256.301C131.494 255.222 130.955 254.711 129.877 254.771C126.456 254.958 127.505 259.336 127.487 261.65C127.487 261.953 127.336 262.104 127.034 262.104H126.163C125.867 262.104 125.719 261.956 125.719 261.659V253.694C125.719 253.124 125.956 252.997 126.43 253.311L127.282 253.881C127.561 254.071 127.848 254.079 128.144 253.907Z" fill="white"/>
<path d="M141.229 256.329C141.486 254.228 138.759 254.682 137.453 255.118C137.079 255.249 136.831 255.121 136.706 254.736L136.626 254.477C136.567 254.282 136.623 254.127 136.795 254.015C138.779 252.792 140.69 252.887 142.526 254.299C142.798 254.513 142.937 254.792 142.943 255.136L143.094 261.873C143.095 261.982 143.062 262.088 143.001 262.178C142.94 262.268 142.853 262.337 142.751 262.375C142.65 262.414 142.539 262.421 142.434 262.395C142.328 262.369 142.233 262.311 142.162 262.229L141.584 261.562C141.359 261.301 141.104 261.274 140.82 261.482C136.075 264.971 131.935 257.005 140.767 256.756C141.045 256.744 141.199 256.602 141.229 256.329ZM141.314 258.511C141.24 258.35 141.117 258.212 140.954 258.107C140.791 258.002 140.589 257.93 140.362 257.897C140.134 257.864 139.884 257.869 139.626 257.913C139.369 257.957 139.109 258.038 138.861 258.152C138.36 258.383 137.939 258.734 137.69 259.128C137.442 259.521 137.386 259.926 137.536 260.252C137.61 260.413 137.733 260.55 137.896 260.656C138.059 260.761 138.261 260.832 138.488 260.866C138.716 260.899 138.966 260.894 139.224 260.85C139.481 260.806 139.741 260.725 139.989 260.61C140.49 260.38 140.911 260.029 141.16 259.635C141.408 259.241 141.463 258.837 141.314 258.511Z" fill="white"/>
<path d="M145.656 265.496C143.258 264.214 145.443 262.274 145.79 260.886C146.151 259.408 145.994 257.946 145.319 256.498C145.194 256.225 145.171 255.943 145.248 255.652C146.136 252.368 149.806 253.24 152.835 253.525C153.404 253.579 153.449 253.763 152.969 254.077L152.222 254.558C152.003 254.7 151.906 254.902 151.929 255.163C152.208 258.076 150.872 259.411 147.922 259.168C147.573 259.138 147.356 259.292 147.274 259.631C146.749 261.838 152.631 259.195 153.075 263.173C153.111 263.464 153.04 263.725 152.862 263.956C150.919 266.519 148.517 267.032 145.656 265.496ZM150.481 256.169C150.481 255.687 150.29 255.225 149.95 254.885C149.61 254.544 149.149 254.353 148.668 254.353C148.188 254.353 147.727 254.544 147.387 254.885C147.047 255.225 146.856 255.687 146.856 256.169C146.856 256.65 147.047 257.112 147.387 257.452C147.727 257.793 148.188 257.984 148.668 257.984C149.149 257.984 149.61 257.793 149.95 257.452C150.29 257.112 150.481 256.65 150.481 256.169ZM151.409 263.206C151.37 262.818 151.053 262.475 150.528 262.252C150.003 262.028 149.313 261.943 148.609 262.014C148.261 262.05 147.92 262.123 147.606 262.229C147.291 262.335 147.01 262.472 146.777 262.633C146.545 262.794 146.366 262.975 146.251 263.166C146.135 263.356 146.086 263.553 146.106 263.745C146.145 264.133 146.462 264.476 146.987 264.699C147.512 264.923 148.202 265.008 148.905 264.936C149.254 264.901 149.595 264.828 149.909 264.722C150.223 264.616 150.505 264.478 150.737 264.318C150.97 264.157 151.149 263.976 151.264 263.785C151.379 263.594 151.429 263.397 151.409 263.206Z" fill="white"/>
<path d="M161.435 261.767C156.29 264.33 152.337 258.714 155.739 254.469C158.156 251.434 162.412 254.077 162.128 257.548C162.098 257.916 161.9 258.1 161.532 258.1H156.584C156.499 258.1 156.417 258.121 156.343 258.162C156.269 258.202 156.206 258.26 156.16 258.331C156.114 258.401 156.087 258.482 156.08 258.566C156.073 258.65 156.088 258.735 156.122 258.812C157.051 260.912 158.671 261.491 160.982 260.547C161.301 260.417 161.515 260.518 161.621 260.85L161.701 261.126C161.796 261.417 161.707 261.63 161.435 261.767ZM156.646 257.103L160.049 256.898C160.101 256.895 160.153 256.881 160.2 256.858C160.247 256.835 160.289 256.802 160.324 256.762C160.359 256.723 160.385 256.677 160.402 256.627C160.419 256.577 160.425 256.524 160.422 256.471L160.413 256.355C160.381 255.843 160.146 255.365 159.758 255.025C159.37 254.685 158.861 254.51 158.343 254.54L158.058 254.558C157.801 254.573 157.548 254.638 157.316 254.749C157.083 254.861 156.875 255.016 156.703 255.207C156.532 255.398 156.4 255.621 156.315 255.862C156.231 256.103 156.195 256.359 156.21 256.614L156.219 256.729C156.223 256.782 156.236 256.833 156.26 256.881C156.283 256.928 156.315 256.97 156.355 257.005C156.395 257.04 156.441 257.066 156.491 257.083C156.54 257.1 156.593 257.107 156.646 257.103Z" fill="white"/>
<path d="M181.343 258.937C182.315 261.044 183.959 261.56 186.275 260.486C186.571 260.344 186.79 260.421 186.932 260.717C188.034 263.067 176.608 263.61 180.082 255.351C181.646 251.639 187.696 252.992 187.234 257.683C187.205 257.961 187.051 258.101 186.772 258.101H181.877C181.778 258.101 181.68 258.125 181.594 258.173C181.507 258.22 181.433 258.289 181.38 258.372C181.327 258.456 181.296 258.551 181.289 258.65C181.283 258.749 181.302 258.848 181.343 258.937ZM181.868 256.988H185.297C185.401 256.988 185.5 256.947 185.574 256.874C185.647 256.8 185.688 256.701 185.688 256.597V256.481C185.688 255.969 185.481 255.478 185.113 255.115C184.745 254.753 184.245 254.55 183.725 254.55H183.44C182.92 254.55 182.42 254.753 182.052 255.115C181.684 255.478 181.477 255.969 181.477 256.481V256.597C181.477 256.701 181.518 256.8 181.591 256.874C181.665 256.947 181.764 256.988 181.868 256.988Z" fill="white"/>
<path d="M192.098 253.917C198.424 250.437 197.384 258.625 197.491 261.526C197.503 261.959 197.298 262.203 196.878 262.256L196.318 262.336C195.945 262.384 195.752 262.22 195.74 261.847L195.572 255.812C195.56 255.51 195.421 255.287 195.154 255.145C193.975 254.54 192.992 254.608 192.204 255.35C190.703 256.774 192.56 263.191 190.027 261.945C189.785 261.826 189.666 261.63 189.672 261.357L189.761 253.57C189.767 253.125 189.953 253.024 190.321 253.267L191.254 253.881C191.526 254.065 191.807 254.077 192.098 253.917Z" fill="white"/>
<path d="M57.5474 259.809L57.8228 253.935C57.8406 253.597 58.0183 253.428 58.3559 253.428H59.3066C59.6028 253.428 59.7508 253.576 59.7508 253.873V261.918C59.7508 262.464 59.5169 262.601 59.0489 262.328L58.0716 261.767C57.8051 261.613 57.5355 261.607 57.2631 261.749C55.4506 262.734 53.8305 262.595 52.403 261.331C52.1187 261.082 51.9766 260.767 51.9766 260.388V253.873C51.9766 253.576 52.1246 253.428 52.4208 253.428H53.1938C53.567 253.428 53.7535 253.615 53.7535 253.988V259.524C53.7541 259.703 53.7931 259.88 53.8681 260.043C53.9431 260.205 54.0521 260.35 54.1879 260.467C54.3237 260.583 54.4829 260.669 54.6548 260.718C54.8267 260.768 55.0072 260.779 55.184 260.752L56.9521 260.477C57.3312 260.417 57.5296 260.195 57.5474 259.809Z" fill="white"/>
<path d="M91.2333 259.4L93.0636 253.899C93.1643 253.585 93.3805 253.428 93.7122 253.428H94.4496C94.8346 253.428 94.9738 253.615 94.8672 253.988C94.1475 256.409 91.642 264.74 89.5985 265.897C88.8344 266.333 86.2933 266.529 86.7198 265.069C86.8086 264.778 87.0041 264.63 87.3062 264.624C92.4061 264.526 87.6527 256.374 86.9064 253.997C86.7879 253.618 86.9241 253.428 87.3151 253.428H88.017C88.3546 253.428 88.5797 253.588 88.6922 253.908L90.6291 259.409C90.8364 259.996 91.0378 259.993 91.2333 259.4Z" fill="white"/>
<path d="M166.368 255.679L166.066 261.598C166.048 261.936 165.873 262.105 165.542 262.105H165.08C164.813 262.105 164.674 261.972 164.662 261.705L164.36 254.06C164.348 253.704 164.52 253.514 164.875 253.49C165.302 253.46 165.71 253.555 166.101 253.775C166.332 253.905 166.572 253.917 166.821 253.81C168.444 253.116 169.954 253.214 171.352 254.104C171.566 254.235 171.776 254.235 171.983 254.104C173.991 252.852 175.659 253.015 176.985 254.594C177.205 254.855 177.308 255.154 177.296 255.493C177.252 256.516 177.936 262.719 176.115 262.07C175.89 261.987 175.771 261.826 175.759 261.589L175.555 255.751C175.537 255.329 175.327 255.05 174.924 254.914C173.953 254.588 173.085 254.733 172.321 255.35C172.054 255.564 171.912 255.843 171.894 256.187L171.628 261.491C171.61 261.901 171.394 262.105 170.979 262.105H170.73C170.381 262.105 170.2 261.93 170.188 261.58L170.037 255.457C170.026 254.959 169.771 254.733 169.273 254.781L166.999 255.021C166.602 255.056 166.392 255.276 166.368 255.679Z" fill="white"/>
<path d="M151.42 219.049C152.525 219.049 153.42 219.944 153.42 221.049V238.845C153.42 239.949 152.525 240.845 151.42 240.845H149.466C148.361 240.845 147.466 239.949 147.466 238.845V224.599C147.466 224.543 147.42 224.498 147.365 224.498C147.347 224.498 147.329 224.503 147.313 224.512L145.561 225.554C144.228 226.346 142.539 225.385 142.539 223.834V223.452C142.539 222.753 142.904 222.105 143.501 221.743L147.458 219.339C147.771 219.149 148.13 219.049 148.496 219.049H151.42Z" fill="white"/>
</g>
<defs>
<clipPath id="clip0_317_495">
<rect width="247" height="267" fill="white"/>
</clipPath>
</defs>
</svg>
