<svg width="32" height="32" viewBox="0 0 32 32" fill="none" xmlns="http://www.w3.org/2000/svg">
<path fill-rule="evenodd" clip-rule="evenodd" d="M29.3307 15.9993C29.3307 23.3631 23.3612 29.3327 15.9974 29.3327C8.6336 29.3327 2.66406 23.3631 2.66406 15.9993C2.66406 8.63555 8.6336 2.66602 15.9974 2.66602C23.3612 2.66602 29.3307 8.63555 29.3307 15.9993ZM16.4752 12.5093C15.1783 13.0487 12.5864 14.1651 8.69947 15.8586C8.0683 16.1096 7.73766 16.3552 7.70756 16.5953C7.65669 17.001 8.16483 17.1608 8.85679 17.3784C8.95091 17.408 9.04843 17.4387 9.14841 17.4712C9.82919 17.6925 10.745 17.9513 11.221 17.9616C11.6529 17.971 12.1348 17.7929 12.667 17.4275C16.2987 14.976 18.1733 13.7369 18.291 13.7102C18.3741 13.6914 18.4891 13.6677 18.5671 13.737C18.6451 13.8063 18.6374 13.9375 18.6291 13.9727C18.5788 14.1873 16.5842 16.0417 15.552 17.0013C15.2302 17.3005 15.0019 17.5127 14.9552 17.5612C14.8507 17.6698 14.7442 17.7725 14.6418 17.8712C14.0093 18.4808 13.5351 18.9381 14.6681 19.6847C15.2125 20.0435 15.6482 20.3402 16.0828 20.6362C16.5575 20.9595 17.031 21.2819 17.6436 21.6834C17.7997 21.7858 17.9487 21.892 18.0939 21.9955C18.6463 22.3893 19.1426 22.7432 19.7558 22.6867C20.1121 22.654 20.4801 22.3189 20.667 21.3198C21.1087 18.9584 21.977 13.8421 22.1776 11.7338C22.1952 11.5491 22.1731 11.3127 22.1553 11.2089C22.1376 11.1051 22.1004 10.9573 21.9656 10.8478C21.8058 10.7182 21.5592 10.6908 21.4489 10.6928C20.9474 10.7016 20.178 10.9692 16.4752 12.5093Z" fill="#28A4E4"/>
</svg>
