<svg width="32" height="32" viewBox="0 0 32 32" fill="none" xmlns="http://www.w3.org/2000/svg">
<rect width="32" height="32" fill="white"/>
<path fill-rule="evenodd" clip-rule="evenodd" d="M29.3307 15.9998C29.3307 23.3636 23.3612 29.3332 15.9974 29.3332C8.6336 29.3332 2.66406 23.3636 2.66406 15.9998C2.66406 8.63604 8.6336 2.6665 15.9974 2.6665C23.3612 2.6665 29.3307 8.63604 29.3307 15.9998ZM16.4752 12.5098C15.1783 13.0492 12.5864 14.1656 8.69947 15.8591C8.0683 16.1101 7.73766 16.3556 7.70756 16.5957C7.65669 17.0015 8.16483 17.1613 8.85679 17.3789C8.95091 17.4085 9.04843 17.4391 9.14841 17.4716C9.82919 17.6929 10.745 17.9518 11.221 17.9621C11.6529 17.9714 12.1348 17.7934 12.667 17.428C16.2987 14.9765 18.1733 13.7374 18.291 13.7107C18.3741 13.6919 18.4891 13.6682 18.5671 13.7375C18.6451 13.8068 18.6374 13.938 18.6291 13.9732C18.5788 14.1878 16.5842 16.0422 15.552 17.0018C15.2302 17.301 15.0019 17.5132 14.9552 17.5617C14.8507 17.6702 14.7442 17.7729 14.6418 17.8716C14.0093 18.4813 13.5351 18.9385 14.6681 19.6852C15.2125 20.044 15.6482 20.3407 16.0828 20.6367C16.5575 20.9599 17.031 21.2824 17.6436 21.6839C17.7997 21.7862 17.9487 21.8925 18.0939 21.996C18.6463 22.3898 19.1426 22.7437 19.7558 22.6872C20.1121 22.6544 20.4801 22.3194 20.667 21.3203C21.1087 18.9589 21.977 13.8426 22.1776 11.7343C22.1952 11.5496 22.1731 11.3132 22.1553 11.2094C22.1376 11.1056 22.1004 10.9577 21.9656 10.8483C21.8058 10.7187 21.5592 10.6913 21.4489 10.6933C20.9474 10.7021 20.178 10.9696 16.4752 12.5098Z" fill="#28A4E4"/>
</svg>
