<svg width="138" height="138" viewBox="0 0 138 138" fill="none" xmlns="http://www.w3.org/2000/svg">
<path fill-rule="evenodd" clip-rule="evenodd" d="M104.578 34.4587C95.4169 22.3788 83.3779 14.8648 68.4609 11.9168C65.6761 11.4616 62.869 11.1556 60.0516 11H55.6313C40.0107 11.9211 26.7677 17.961 15.9023 29.1198C6.05044 39.7034 0.749656 52.2507 0 66.7616V70.7523C0.187858 74.6726 0.710862 78.5697 1.56328 82.4008C4.54106 94.4037 10.6504 104.47 19.8914 112.601C37.1773 96.3689 54.4094 80.084 71.5875 63.746V63.4224C66.143 63.4576 60.7164 63.4217 55.3078 63.3146V56.6275C59.5377 54.727 63.7423 52.7856 67.9219 50.8032L42.6937 50.5875C42.6937 48.4304 42.6578 46.2733 42.5859 44.1162H86.3578C86.3937 46.3819 86.3578 48.6468 86.25 50.9111C82.7454 52.5836 79.2235 54.2374 75.6844 55.8725L86.3578 56.0882C86.3765 57.5622 86.3585 59.0363 86.3039 60.5103C66.4815 79.5857 46.626 98.6224 26.7375 117.62L28.4625 118.914C38.3467 124.73 49.0561 127.408 60.5906 126.95C74.985 126.174 87.4194 120.907 97.8937 111.149C108.597 100.79 114.598 88.1524 115.898 73.2373H138V34.517C126.859 34.5321 115.719 34.5126 104.578 34.4587ZM33.7992 34.8362C33.7453 47.5988 33.7529 73.2201 33.7529 73.2201L54.1219 73.2869C54.1219 73.2869 32.1885 93.9522 21.3469 104.242C20.7595 103.875 20.2322 103.421 19.7836 102.893C8.89884 90.1384 4.94572 75.434 7.92422 58.7803C10.7834 45.775 17.5576 35.3309 28.2469 27.4481C42.2057 17.9114 57.3354 15.5386 73.6359 20.3296C81.8955 23.0583 87.9211 27.2744 95.0906 33.7577C95.4141 34.0478 96.4329 34.8448 96.4329 34.8448L95.3548 34.8362H33.7992ZM108.891 73.5609C107.212 89.1641 100.06 101.586 87.4359 110.825C74.9398 119.279 61.2835 121.939 46.4672 118.807C43.033 118.038 39.7031 116.861 36.5484 115.301C51.1391 101.28 65.7656 87.2946 80.4281 73.3452C89.9329 73.2373 99.4563 73.2014 108.998 73.2373C108.939 73.336 108.903 73.4465 108.891 73.5609Z" fill="white"/>
</svg>
