<svg width="32" height="32" viewBox="0 0 32 32" fill="none" xmlns="http://www.w3.org/2000/svg">
<path fill-rule="evenodd" clip-rule="evenodd" d="M26.3868 7.21912C27.5336 7.52721 28.4407 8.43436 28.7488 9.58112C29.3136 11.6693 29.3307 15.9996 29.3307 15.9996C29.3307 15.9996 29.3307 20.3471 28.7659 22.4181C28.4578 23.5649 27.5507 24.472 26.4039 24.7801C24.3329 25.3449 15.9974 25.3449 15.9974 25.3449C15.9974 25.3449 7.66192 25.3449 5.59089 24.7801C4.44412 24.472 3.53698 23.5649 3.22889 22.4181C2.66406 20.33 2.66406 15.9996 2.66406 15.9996C2.66406 15.9996 2.66406 11.6693 3.21177 9.59824C3.51986 8.45147 4.42701 7.54433 5.57378 7.23624C7.64481 6.67141 15.9803 6.6543 15.9803 6.6543C15.9803 6.6543 24.3158 6.6543 26.3868 7.21912ZM20.2422 15.9996L13.3273 20.0047V11.9945L20.2422 15.9996Z" fill="#FF0000"/>
</svg>
