<svg width="32" height="32" viewBox="0 0 32 32" fill="none" xmlns="http://www.w3.org/2000/svg">
<rect width="32" height="32" fill="white"/>
<path fill-rule="evenodd" clip-rule="evenodd" d="M26.3868 7.21961C27.5336 7.52769 28.4407 8.43485 28.7488 9.58161C29.3136 11.6698 29.3307 16.0001 29.3307 16.0001C29.3307 16.0001 29.3307 20.3476 28.7659 22.4186C28.4578 23.5654 27.5507 24.4725 26.4039 24.7806C24.3329 25.3454 15.9974 25.3454 15.9974 25.3454C15.9974 25.3454 7.66192 25.3454 5.59089 24.7806C4.44412 24.4725 3.53698 23.5654 3.22889 22.4186C2.66406 20.3304 2.66406 16.0001 2.66406 16.0001C2.66406 16.0001 2.66406 11.6698 3.21177 9.59873C3.51986 8.45196 4.42701 7.54482 5.57378 7.23673C7.64481 6.6719 15.9803 6.65479 15.9803 6.65479C15.9803 6.65479 24.3158 6.65479 26.3868 7.21961ZM20.2422 16.0001L13.3273 20.0052V11.995L20.2422 16.0001Z" fill="#FF0000"/>
</svg>
